%TF.GenerationSoftware,KiCad,Pcbnew,9.0.4*%
%TF.CreationDate,2025-10-04T20:32:12+02:00*%
%TF.ProjectId,DMH-VCM-Mk2-PANEL,444d482d-5643-44d2-9d4d-6b322d50414e,rev?*%
%TF.SameCoordinates,Original*%
%TF.FileFunction,Soldermask,Top*%
%TF.FilePolarity,Negative*%
%FSLAX46Y46*%
G04 Gerber Fmt 4.6, Leading zero omitted, Abs format (unit mm)*
G04 Created by KiCad (PCBNEW 9.0.4) date 2025-10-04 20:32:12*
%MOMM*%
%LPD*%
G01*
G04 APERTURE LIST*
%ADD10C,12.000000*%
%ADD11O,2.500000X1.500000*%
%ADD12C,4.000000*%
%ADD13C,0.500000*%
%ADD14C,3.100000*%
%ADD15C,2.900000*%
%ADD16C,13.000000*%
G04 APERTURE END LIST*
D10*
%TO.C,H13*%
X62500000Y-134750000D03*
D11*
X62500000Y-140750000D03*
%TD*%
D12*
%TO.C,H3*%
X53500000Y-226500000D03*
%TD*%
D10*
%TO.C,H26*%
X87500000Y-149250000D03*
%TD*%
D13*
%TO.C,H11*%
X85800000Y-192250000D03*
X87460000Y-188220000D03*
X87470000Y-196290000D03*
X91500000Y-186550000D03*
D10*
X91500000Y-192250000D03*
D13*
X91500000Y-197950000D03*
X95530000Y-196290000D03*
X95540000Y-188220000D03*
X97200000Y-192250000D03*
%TD*%
D14*
%TO.C,H22*%
X87500000Y-70750000D03*
%TD*%
D13*
%TO.C,H7*%
X85800000Y-175750000D03*
X87460000Y-171720000D03*
X87470000Y-179790000D03*
X91500000Y-170050000D03*
D10*
X91500000Y-175750000D03*
D13*
X91500000Y-181450000D03*
X95530000Y-179790000D03*
X95540000Y-171720000D03*
X97200000Y-175750000D03*
%TD*%
D15*
%TO.C,H20*%
X75000000Y-45900000D03*
D16*
X75000000Y-52000000D03*
%TD*%
D13*
%TO.C,H16*%
X69300000Y-208750000D03*
X70960000Y-204720000D03*
X70970000Y-212790000D03*
X75000000Y-203050000D03*
D10*
X75000000Y-208750000D03*
D13*
X75000000Y-214450000D03*
X79030000Y-212790000D03*
X79040000Y-204720000D03*
X80700000Y-208750000D03*
%TD*%
D14*
%TO.C,H23*%
X94000000Y-70750000D03*
%TD*%
D10*
%TO.C,H25*%
X87500000Y-120500000D03*
%TD*%
D14*
%TO.C,H17*%
X81000000Y-70750000D03*
%TD*%
D13*
%TO.C,H15*%
X85800000Y-208750000D03*
X87460000Y-204720000D03*
X87470000Y-212790000D03*
X91500000Y-203050000D03*
D10*
X91500000Y-208750000D03*
D13*
X91500000Y-214450000D03*
X95530000Y-212790000D03*
X95540000Y-204720000D03*
X97200000Y-208750000D03*
%TD*%
D10*
%TO.C,H24*%
X87500000Y-91750000D03*
%TD*%
D13*
%TO.C,H12*%
X69300000Y-192250000D03*
X70960000Y-188220000D03*
X70970000Y-196290000D03*
X75000000Y-186550000D03*
D10*
X75000000Y-192250000D03*
D13*
X75000000Y-197950000D03*
X79030000Y-196290000D03*
X79040000Y-188220000D03*
X80700000Y-192250000D03*
%TD*%
%TO.C,H14*%
X52800000Y-208750000D03*
X54460000Y-204720000D03*
X54470000Y-212790000D03*
X58500000Y-203050000D03*
D10*
X58500000Y-208750000D03*
D13*
X58500000Y-214450000D03*
X62530000Y-212790000D03*
X62540000Y-204720000D03*
X64200000Y-208750000D03*
%TD*%
%TO.C,H10*%
X52800000Y-192250000D03*
X54460000Y-188220000D03*
X54470000Y-196290000D03*
X58500000Y-186550000D03*
D10*
X58500000Y-192250000D03*
D13*
X58500000Y-197950000D03*
X62530000Y-196290000D03*
X62540000Y-188220000D03*
X64200000Y-192250000D03*
%TD*%
D10*
%TO.C,H5*%
X62500000Y-77250000D03*
D11*
X62500000Y-83250000D03*
%TD*%
D15*
%TO.C,H21*%
X91500000Y-45900000D03*
D16*
X91500000Y-52000000D03*
%TD*%
D12*
%TO.C,H2*%
X96500000Y-33500000D03*
%TD*%
%TO.C,H4*%
X96500000Y-226500000D03*
%TD*%
%TO.C,H1*%
X53500000Y-33500000D03*
%TD*%
D15*
%TO.C,H19*%
X58500000Y-45900000D03*
D16*
X58500000Y-52000000D03*
%TD*%
D10*
%TO.C,H9*%
X62500000Y-106000000D03*
D11*
X62500000Y-112000000D03*
%TD*%
D13*
%TO.C,H6*%
X52800000Y-175750000D03*
X54460000Y-171720000D03*
X54470000Y-179790000D03*
X58500000Y-170050000D03*
D10*
X58500000Y-175750000D03*
D13*
X58500000Y-181450000D03*
X62530000Y-179790000D03*
X62540000Y-171720000D03*
X64200000Y-175750000D03*
%TD*%
%TO.C,H18*%
X52800000Y-159250000D03*
X54460000Y-155220000D03*
X54470000Y-163290000D03*
X58500000Y-153550000D03*
D10*
X58500000Y-159250000D03*
D13*
X58500000Y-164950000D03*
X62530000Y-163290000D03*
X62540000Y-155220000D03*
X64200000Y-159250000D03*
%TD*%
%TO.C,H8*%
X69300000Y-175750000D03*
X70960000Y-171720000D03*
X70970000Y-179790000D03*
X75000000Y-170050000D03*
D10*
X75000000Y-175750000D03*
D13*
X75000000Y-181450000D03*
X79030000Y-179790000D03*
X79040000Y-171720000D03*
X80700000Y-175750000D03*
%TD*%
M02*
