%TF.GenerationSoftware,KiCad,Pcbnew,9.0.4*%
%TF.CreationDate,2025-10-04T20:32:12+02:00*%
%TF.ProjectId,DMH-VCM-Mk2-PANEL,444d482d-5643-44d2-9d4d-6b322d50414e,rev?*%
%TF.SameCoordinates,Original*%
%TF.FileFunction,Profile,NP*%
%FSLAX46Y46*%
G04 Gerber Fmt 4.6, Leading zero omitted, Abs format (unit mm)*
G04 Created by KiCad (PCBNEW 9.0.4) date 2025-10-04 20:32:12*
%MOMM*%
%LPD*%
G01*
G04 APERTURE LIST*
%TA.AperFunction,Profile*%
%ADD10C,0.050000*%
%TD*%
G04 APERTURE END LIST*
D10*
X50000000Y-30000000D02*
X100000000Y-30000000D01*
X100000000Y-230000000D01*
X50000000Y-230000000D01*
X50000000Y-30000000D01*
%TO.C,H13*%
X66000000Y-134750000D02*
G75*
G02*
X59000000Y-134750000I-3500000J0D01*
G01*
X59000000Y-134750000D02*
G75*
G02*
X66000000Y-134750000I3500000J0D01*
G01*
%TO.C,H26*%
X92000000Y-149250000D02*
G75*
G02*
X83000000Y-149250000I-4500000J0D01*
G01*
X83000000Y-149250000D02*
G75*
G02*
X92000000Y-149250000I4500000J0D01*
G01*
%TO.C,H11*%
X96400000Y-192250000D02*
G75*
G02*
X86600000Y-192250000I-4900000J0D01*
G01*
X86600000Y-192250000D02*
G75*
G02*
X96400000Y-192250000I4900000J0D01*
G01*
%TO.C,H7*%
X96400000Y-175750000D02*
G75*
G02*
X86600000Y-175750000I-4900000J0D01*
G01*
X86600000Y-175750000D02*
G75*
G02*
X96400000Y-175750000I4900000J0D01*
G01*
%TO.C,H16*%
X79900000Y-208750000D02*
G75*
G02*
X70100000Y-208750000I-4900000J0D01*
G01*
X70100000Y-208750000D02*
G75*
G02*
X79900000Y-208750000I4900000J0D01*
G01*
%TO.C,H25*%
X92000000Y-120500000D02*
G75*
G02*
X83000000Y-120500000I-4500000J0D01*
G01*
X83000000Y-120500000D02*
G75*
G02*
X92000000Y-120500000I4500000J0D01*
G01*
%TO.C,H15*%
X96400000Y-208750000D02*
G75*
G02*
X86600000Y-208750000I-4900000J0D01*
G01*
X86600000Y-208750000D02*
G75*
G02*
X96400000Y-208750000I4900000J0D01*
G01*
%TO.C,H24*%
X92000000Y-91750000D02*
G75*
G02*
X83000000Y-91750000I-4500000J0D01*
G01*
X83000000Y-91750000D02*
G75*
G02*
X92000000Y-91750000I4500000J0D01*
G01*
%TO.C,H12*%
X79900000Y-192250000D02*
G75*
G02*
X70100000Y-192250000I-4900000J0D01*
G01*
X70100000Y-192250000D02*
G75*
G02*
X79900000Y-192250000I4900000J0D01*
G01*
%TO.C,H14*%
X63400000Y-208750000D02*
G75*
G02*
X53600000Y-208750000I-4900000J0D01*
G01*
X53600000Y-208750000D02*
G75*
G02*
X63400000Y-208750000I4900000J0D01*
G01*
%TO.C,H10*%
X63400000Y-192250000D02*
G75*
G02*
X53600000Y-192250000I-4900000J0D01*
G01*
X53600000Y-192250000D02*
G75*
G02*
X63400000Y-192250000I4900000J0D01*
G01*
%TO.C,H5*%
X66000000Y-77250000D02*
G75*
G02*
X59000000Y-77250000I-3500000J0D01*
G01*
X59000000Y-77250000D02*
G75*
G02*
X66000000Y-77250000I3500000J0D01*
G01*
%TO.C,H9*%
X66000000Y-106000000D02*
G75*
G02*
X59000000Y-106000000I-3500000J0D01*
G01*
X59000000Y-106000000D02*
G75*
G02*
X66000000Y-106000000I3500000J0D01*
G01*
%TO.C,H6*%
X63400000Y-175750000D02*
G75*
G02*
X53600000Y-175750000I-4900000J0D01*
G01*
X53600000Y-175750000D02*
G75*
G02*
X63400000Y-175750000I4900000J0D01*
G01*
%TO.C,H18*%
X63400000Y-159250000D02*
G75*
G02*
X53600000Y-159250000I-4900000J0D01*
G01*
X53600000Y-159250000D02*
G75*
G02*
X63400000Y-159250000I4900000J0D01*
G01*
%TO.C,H8*%
X79900000Y-175750000D02*
G75*
G02*
X70100000Y-175750000I-4900000J0D01*
G01*
X70100000Y-175750000D02*
G75*
G02*
X79900000Y-175750000I4900000J0D01*
G01*
%TD*%
M02*
