%TF.GenerationSoftware,KiCad,Pcbnew,9.0.4*%
%TF.CreationDate,2025-10-04T20:32:15+02:00*%
%TF.ProjectId,DMH-VCM-Mk2-PANEL,444d482d-5643-44d2-9d4d-6b322d50414e,rev?*%
%TF.SameCoordinates,Original*%
%TF.FileFunction,Drillmap*%
%TF.FilePolarity,Positive*%
%FSLAX45Y45*%
G04 Gerber Fmt 4.5, Leading zero omitted, Abs format (unit mm)*
G04 Created by KiCad (PCBNEW 9.0.4) date 2025-10-04 20:32:15*
%MOMM*%
%LPD*%
G01*
G04 APERTURE LIST*
%ADD10C,0.050000*%
%ADD11C,0.200000*%
%ADD12C,0.310000*%
G04 APERTURE END LIST*
D10*
X5000000Y-3000000D02*
X10000000Y-3000000D01*
X10000000Y-23000000D01*
X5000000Y-23000000D01*
X5000000Y-3000000D01*
X6600000Y-13475000D02*
G75*
G02*
X5900000Y-13475000I-350000J0D01*
G01*
X5900000Y-13475000D02*
G75*
G02*
X6600000Y-13475000I350000J0D01*
G01*
X9200000Y-14925000D02*
G75*
G02*
X8300000Y-14925000I-450000J0D01*
G01*
X8300000Y-14925000D02*
G75*
G02*
X9200000Y-14925000I450000J0D01*
G01*
X9640000Y-19225000D02*
G75*
G02*
X8660000Y-19225000I-490000J0D01*
G01*
X8660000Y-19225000D02*
G75*
G02*
X9640000Y-19225000I490000J0D01*
G01*
X9640000Y-17575000D02*
G75*
G02*
X8660000Y-17575000I-490000J0D01*
G01*
X8660000Y-17575000D02*
G75*
G02*
X9640000Y-17575000I490000J0D01*
G01*
X7990000Y-20875000D02*
G75*
G02*
X7010000Y-20875000I-490000J0D01*
G01*
X7010000Y-20875000D02*
G75*
G02*
X7990000Y-20875000I490000J0D01*
G01*
X9200000Y-12050000D02*
G75*
G02*
X8300000Y-12050000I-450000J0D01*
G01*
X8300000Y-12050000D02*
G75*
G02*
X9200000Y-12050000I450000J0D01*
G01*
X9640000Y-20875000D02*
G75*
G02*
X8660000Y-20875000I-490000J0D01*
G01*
X8660000Y-20875000D02*
G75*
G02*
X9640000Y-20875000I490000J0D01*
G01*
X9200000Y-9175000D02*
G75*
G02*
X8300000Y-9175000I-450000J0D01*
G01*
X8300000Y-9175000D02*
G75*
G02*
X9200000Y-9175000I450000J0D01*
G01*
X7990000Y-19225000D02*
G75*
G02*
X7010000Y-19225000I-490000J0D01*
G01*
X7010000Y-19225000D02*
G75*
G02*
X7990000Y-19225000I490000J0D01*
G01*
X6340000Y-20875000D02*
G75*
G02*
X5360000Y-20875000I-490000J0D01*
G01*
X5360000Y-20875000D02*
G75*
G02*
X6340000Y-20875000I490000J0D01*
G01*
X6340000Y-19225000D02*
G75*
G02*
X5360000Y-19225000I-490000J0D01*
G01*
X5360000Y-19225000D02*
G75*
G02*
X6340000Y-19225000I490000J0D01*
G01*
X6600000Y-7725000D02*
G75*
G02*
X5900000Y-7725000I-350000J0D01*
G01*
X5900000Y-7725000D02*
G75*
G02*
X6600000Y-7725000I350000J0D01*
G01*
X6600000Y-10600000D02*
G75*
G02*
X5900000Y-10600000I-350000J0D01*
G01*
X5900000Y-10600000D02*
G75*
G02*
X6600000Y-10600000I350000J0D01*
G01*
X6340000Y-17575000D02*
G75*
G02*
X5360000Y-17575000I-490000J0D01*
G01*
X5360000Y-17575000D02*
G75*
G02*
X6340000Y-17575000I490000J0D01*
G01*
X6340000Y-15925000D02*
G75*
G02*
X5360000Y-15925000I-490000J0D01*
G01*
X5360000Y-15925000D02*
G75*
G02*
X6340000Y-15925000I490000J0D01*
G01*
X7990000Y-17575000D02*
G75*
G02*
X7010000Y-17575000I-490000J0D01*
G01*
X7010000Y-17575000D02*
G75*
G02*
X7990000Y-17575000I490000J0D01*
G01*
D11*
D12*
X7945000Y-6920000D02*
X8255000Y-7230000D01*
X8255000Y-6920000D02*
X7945000Y-7230000D01*
X8595000Y-6920000D02*
X8905000Y-7230000D01*
X8905000Y-6920000D02*
X8595000Y-7230000D01*
X9245000Y-6920000D02*
X9555000Y-7230000D01*
X9555000Y-6920000D02*
X9245000Y-7230000D01*
D11*
X5258277Y-23313984D02*
X5258277Y-23113984D01*
X5258277Y-23113984D02*
X5305896Y-23113984D01*
X5305896Y-23113984D02*
X5334467Y-23123508D01*
X5334467Y-23123508D02*
X5353515Y-23142555D01*
X5353515Y-23142555D02*
X5363039Y-23161603D01*
X5363039Y-23161603D02*
X5372563Y-23199698D01*
X5372563Y-23199698D02*
X5372563Y-23228269D01*
X5372563Y-23228269D02*
X5363039Y-23266365D01*
X5363039Y-23266365D02*
X5353515Y-23285412D01*
X5353515Y-23285412D02*
X5334467Y-23304460D01*
X5334467Y-23304460D02*
X5305896Y-23313984D01*
X5305896Y-23313984D02*
X5258277Y-23313984D01*
X5458277Y-23313984D02*
X5458277Y-23180650D01*
X5458277Y-23218746D02*
X5467801Y-23199698D01*
X5467801Y-23199698D02*
X5477324Y-23190174D01*
X5477324Y-23190174D02*
X5496372Y-23180650D01*
X5496372Y-23180650D02*
X5515420Y-23180650D01*
X5582086Y-23313984D02*
X5582086Y-23180650D01*
X5582086Y-23113984D02*
X5572563Y-23123508D01*
X5572563Y-23123508D02*
X5582086Y-23133031D01*
X5582086Y-23133031D02*
X5591610Y-23123508D01*
X5591610Y-23123508D02*
X5582086Y-23113984D01*
X5582086Y-23113984D02*
X5582086Y-23133031D01*
X5705896Y-23313984D02*
X5686848Y-23304460D01*
X5686848Y-23304460D02*
X5677324Y-23285412D01*
X5677324Y-23285412D02*
X5677324Y-23113984D01*
X5810658Y-23313984D02*
X5791610Y-23304460D01*
X5791610Y-23304460D02*
X5782086Y-23285412D01*
X5782086Y-23285412D02*
X5782086Y-23113984D01*
X6039229Y-23313984D02*
X6039229Y-23113984D01*
X6039229Y-23113984D02*
X6105896Y-23256841D01*
X6105896Y-23256841D02*
X6172562Y-23113984D01*
X6172562Y-23113984D02*
X6172562Y-23313984D01*
X6353515Y-23313984D02*
X6353515Y-23209222D01*
X6353515Y-23209222D02*
X6343991Y-23190174D01*
X6343991Y-23190174D02*
X6324943Y-23180650D01*
X6324943Y-23180650D02*
X6286848Y-23180650D01*
X6286848Y-23180650D02*
X6267801Y-23190174D01*
X6353515Y-23304460D02*
X6334467Y-23313984D01*
X6334467Y-23313984D02*
X6286848Y-23313984D01*
X6286848Y-23313984D02*
X6267801Y-23304460D01*
X6267801Y-23304460D02*
X6258277Y-23285412D01*
X6258277Y-23285412D02*
X6258277Y-23266365D01*
X6258277Y-23266365D02*
X6267801Y-23247317D01*
X6267801Y-23247317D02*
X6286848Y-23237793D01*
X6286848Y-23237793D02*
X6334467Y-23237793D01*
X6334467Y-23237793D02*
X6353515Y-23228269D01*
X6448753Y-23180650D02*
X6448753Y-23380650D01*
X6448753Y-23190174D02*
X6467801Y-23180650D01*
X6467801Y-23180650D02*
X6505896Y-23180650D01*
X6505896Y-23180650D02*
X6524943Y-23190174D01*
X6524943Y-23190174D02*
X6534467Y-23199698D01*
X6534467Y-23199698D02*
X6543991Y-23218746D01*
X6543991Y-23218746D02*
X6543991Y-23275888D01*
X6543991Y-23275888D02*
X6534467Y-23294936D01*
X6534467Y-23294936D02*
X6524943Y-23304460D01*
X6524943Y-23304460D02*
X6505896Y-23313984D01*
X6505896Y-23313984D02*
X6467801Y-23313984D01*
X6467801Y-23313984D02*
X6448753Y-23304460D01*
X6629705Y-23294936D02*
X6639229Y-23304460D01*
X6639229Y-23304460D02*
X6629705Y-23313984D01*
X6629705Y-23313984D02*
X6620182Y-23304460D01*
X6620182Y-23304460D02*
X6629705Y-23294936D01*
X6629705Y-23294936D02*
X6629705Y-23313984D01*
X6629705Y-23190174D02*
X6639229Y-23199698D01*
X6639229Y-23199698D02*
X6629705Y-23209222D01*
X6629705Y-23209222D02*
X6620182Y-23199698D01*
X6620182Y-23199698D02*
X6629705Y-23190174D01*
X6629705Y-23190174D02*
X6629705Y-23209222D01*
X4797500Y-23542500D02*
X4997500Y-23742500D01*
X4997500Y-23542500D02*
X4797500Y-23742500D01*
X5239229Y-23533984D02*
X5363039Y-23533984D01*
X5363039Y-23533984D02*
X5296372Y-23610174D01*
X5296372Y-23610174D02*
X5324944Y-23610174D01*
X5324944Y-23610174D02*
X5343991Y-23619698D01*
X5343991Y-23619698D02*
X5353515Y-23629222D01*
X5353515Y-23629222D02*
X5363039Y-23648269D01*
X5363039Y-23648269D02*
X5363039Y-23695888D01*
X5363039Y-23695888D02*
X5353515Y-23714936D01*
X5353515Y-23714936D02*
X5343991Y-23724460D01*
X5343991Y-23724460D02*
X5324944Y-23733984D01*
X5324944Y-23733984D02*
X5267801Y-23733984D01*
X5267801Y-23733984D02*
X5248753Y-23724460D01*
X5248753Y-23724460D02*
X5239229Y-23714936D01*
X5448753Y-23714936D02*
X5458277Y-23724460D01*
X5458277Y-23724460D02*
X5448753Y-23733984D01*
X5448753Y-23733984D02*
X5439229Y-23724460D01*
X5439229Y-23724460D02*
X5448753Y-23714936D01*
X5448753Y-23714936D02*
X5448753Y-23733984D01*
X5648753Y-23733984D02*
X5534467Y-23733984D01*
X5591610Y-23733984D02*
X5591610Y-23533984D01*
X5591610Y-23533984D02*
X5572563Y-23562555D01*
X5572563Y-23562555D02*
X5553515Y-23581603D01*
X5553515Y-23581603D02*
X5534467Y-23591127D01*
X5772562Y-23533984D02*
X5791610Y-23533984D01*
X5791610Y-23533984D02*
X5810658Y-23543508D01*
X5810658Y-23543508D02*
X5820182Y-23553031D01*
X5820182Y-23553031D02*
X5829705Y-23572079D01*
X5829705Y-23572079D02*
X5839229Y-23610174D01*
X5839229Y-23610174D02*
X5839229Y-23657793D01*
X5839229Y-23657793D02*
X5829705Y-23695888D01*
X5829705Y-23695888D02*
X5820182Y-23714936D01*
X5820182Y-23714936D02*
X5810658Y-23724460D01*
X5810658Y-23724460D02*
X5791610Y-23733984D01*
X5791610Y-23733984D02*
X5772562Y-23733984D01*
X5772562Y-23733984D02*
X5753515Y-23724460D01*
X5753515Y-23724460D02*
X5743991Y-23714936D01*
X5743991Y-23714936D02*
X5734467Y-23695888D01*
X5734467Y-23695888D02*
X5724943Y-23657793D01*
X5724943Y-23657793D02*
X5724943Y-23610174D01*
X5724943Y-23610174D02*
X5734467Y-23572079D01*
X5734467Y-23572079D02*
X5743991Y-23553031D01*
X5743991Y-23553031D02*
X5753515Y-23543508D01*
X5753515Y-23543508D02*
X5772562Y-23533984D01*
X5963039Y-23533984D02*
X5982086Y-23533984D01*
X5982086Y-23533984D02*
X6001134Y-23543508D01*
X6001134Y-23543508D02*
X6010658Y-23553031D01*
X6010658Y-23553031D02*
X6020182Y-23572079D01*
X6020182Y-23572079D02*
X6029705Y-23610174D01*
X6029705Y-23610174D02*
X6029705Y-23657793D01*
X6029705Y-23657793D02*
X6020182Y-23695888D01*
X6020182Y-23695888D02*
X6010658Y-23714936D01*
X6010658Y-23714936D02*
X6001134Y-23724460D01*
X6001134Y-23724460D02*
X5982086Y-23733984D01*
X5982086Y-23733984D02*
X5963039Y-23733984D01*
X5963039Y-23733984D02*
X5943991Y-23724460D01*
X5943991Y-23724460D02*
X5934467Y-23714936D01*
X5934467Y-23714936D02*
X5924943Y-23695888D01*
X5924943Y-23695888D02*
X5915420Y-23657793D01*
X5915420Y-23657793D02*
X5915420Y-23610174D01*
X5915420Y-23610174D02*
X5924943Y-23572079D01*
X5924943Y-23572079D02*
X5934467Y-23553031D01*
X5934467Y-23553031D02*
X5943991Y-23543508D01*
X5943991Y-23543508D02*
X5963039Y-23533984D01*
X6115420Y-23733984D02*
X6115420Y-23600650D01*
X6115420Y-23619698D02*
X6124943Y-23610174D01*
X6124943Y-23610174D02*
X6143991Y-23600650D01*
X6143991Y-23600650D02*
X6172563Y-23600650D01*
X6172563Y-23600650D02*
X6191610Y-23610174D01*
X6191610Y-23610174D02*
X6201134Y-23629222D01*
X6201134Y-23629222D02*
X6201134Y-23733984D01*
X6201134Y-23629222D02*
X6210658Y-23610174D01*
X6210658Y-23610174D02*
X6229705Y-23600650D01*
X6229705Y-23600650D02*
X6258277Y-23600650D01*
X6258277Y-23600650D02*
X6277324Y-23610174D01*
X6277324Y-23610174D02*
X6286848Y-23629222D01*
X6286848Y-23629222D02*
X6286848Y-23733984D01*
X6382086Y-23733984D02*
X6382086Y-23600650D01*
X6382086Y-23619698D02*
X6391610Y-23610174D01*
X6391610Y-23610174D02*
X6410658Y-23600650D01*
X6410658Y-23600650D02*
X6439229Y-23600650D01*
X6439229Y-23600650D02*
X6458277Y-23610174D01*
X6458277Y-23610174D02*
X6467801Y-23629222D01*
X6467801Y-23629222D02*
X6467801Y-23733984D01*
X6467801Y-23629222D02*
X6477324Y-23610174D01*
X6477324Y-23610174D02*
X6496372Y-23600650D01*
X6496372Y-23600650D02*
X6524943Y-23600650D01*
X6524943Y-23600650D02*
X6543991Y-23610174D01*
X6543991Y-23610174D02*
X6553515Y-23629222D01*
X6553515Y-23629222D02*
X6553515Y-23733984D01*
X6943991Y-23524460D02*
X6772563Y-23781603D01*
X7201134Y-23533984D02*
X7220182Y-23533984D01*
X7220182Y-23533984D02*
X7239229Y-23543508D01*
X7239229Y-23543508D02*
X7248753Y-23553031D01*
X7248753Y-23553031D02*
X7258277Y-23572079D01*
X7258277Y-23572079D02*
X7267801Y-23610174D01*
X7267801Y-23610174D02*
X7267801Y-23657793D01*
X7267801Y-23657793D02*
X7258277Y-23695888D01*
X7258277Y-23695888D02*
X7248753Y-23714936D01*
X7248753Y-23714936D02*
X7239229Y-23724460D01*
X7239229Y-23724460D02*
X7220182Y-23733984D01*
X7220182Y-23733984D02*
X7201134Y-23733984D01*
X7201134Y-23733984D02*
X7182086Y-23724460D01*
X7182086Y-23724460D02*
X7172563Y-23714936D01*
X7172563Y-23714936D02*
X7163039Y-23695888D01*
X7163039Y-23695888D02*
X7153515Y-23657793D01*
X7153515Y-23657793D02*
X7153515Y-23610174D01*
X7153515Y-23610174D02*
X7163039Y-23572079D01*
X7163039Y-23572079D02*
X7172563Y-23553031D01*
X7172563Y-23553031D02*
X7182086Y-23543508D01*
X7182086Y-23543508D02*
X7201134Y-23533984D01*
X7353515Y-23714936D02*
X7363039Y-23724460D01*
X7363039Y-23724460D02*
X7353515Y-23733984D01*
X7353515Y-23733984D02*
X7343991Y-23724460D01*
X7343991Y-23724460D02*
X7353515Y-23714936D01*
X7353515Y-23714936D02*
X7353515Y-23733984D01*
X7553515Y-23733984D02*
X7439229Y-23733984D01*
X7496372Y-23733984D02*
X7496372Y-23533984D01*
X7496372Y-23533984D02*
X7477325Y-23562555D01*
X7477325Y-23562555D02*
X7458277Y-23581603D01*
X7458277Y-23581603D02*
X7439229Y-23591127D01*
X7629706Y-23553031D02*
X7639229Y-23543508D01*
X7639229Y-23543508D02*
X7658277Y-23533984D01*
X7658277Y-23533984D02*
X7705896Y-23533984D01*
X7705896Y-23533984D02*
X7724944Y-23543508D01*
X7724944Y-23543508D02*
X7734467Y-23553031D01*
X7734467Y-23553031D02*
X7743991Y-23572079D01*
X7743991Y-23572079D02*
X7743991Y-23591127D01*
X7743991Y-23591127D02*
X7734467Y-23619698D01*
X7734467Y-23619698D02*
X7620182Y-23733984D01*
X7620182Y-23733984D02*
X7743991Y-23733984D01*
X7820182Y-23553031D02*
X7829706Y-23543508D01*
X7829706Y-23543508D02*
X7848753Y-23533984D01*
X7848753Y-23533984D02*
X7896372Y-23533984D01*
X7896372Y-23533984D02*
X7915420Y-23543508D01*
X7915420Y-23543508D02*
X7924944Y-23553031D01*
X7924944Y-23553031D02*
X7934467Y-23572079D01*
X7934467Y-23572079D02*
X7934467Y-23591127D01*
X7934467Y-23591127D02*
X7924944Y-23619698D01*
X7924944Y-23619698D02*
X7810658Y-23733984D01*
X7810658Y-23733984D02*
X7934467Y-23733984D01*
X8058277Y-23533984D02*
X8077325Y-23533984D01*
X8077325Y-23533984D02*
X8096372Y-23543508D01*
X8096372Y-23543508D02*
X8105896Y-23553031D01*
X8105896Y-23553031D02*
X8115420Y-23572079D01*
X8115420Y-23572079D02*
X8124944Y-23610174D01*
X8124944Y-23610174D02*
X8124944Y-23657793D01*
X8124944Y-23657793D02*
X8115420Y-23695888D01*
X8115420Y-23695888D02*
X8105896Y-23714936D01*
X8105896Y-23714936D02*
X8096372Y-23724460D01*
X8096372Y-23724460D02*
X8077325Y-23733984D01*
X8077325Y-23733984D02*
X8058277Y-23733984D01*
X8058277Y-23733984D02*
X8039229Y-23724460D01*
X8039229Y-23724460D02*
X8029706Y-23714936D01*
X8029706Y-23714936D02*
X8020182Y-23695888D01*
X8020182Y-23695888D02*
X8010658Y-23657793D01*
X8010658Y-23657793D02*
X8010658Y-23610174D01*
X8010658Y-23610174D02*
X8020182Y-23572079D01*
X8020182Y-23572079D02*
X8029706Y-23553031D01*
X8029706Y-23553031D02*
X8039229Y-23543508D01*
X8039229Y-23543508D02*
X8058277Y-23533984D01*
X8201134Y-23533984D02*
X8201134Y-23572079D01*
X8277325Y-23533984D02*
X8277325Y-23572079D01*
X8572563Y-23810174D02*
X8563039Y-23800650D01*
X8563039Y-23800650D02*
X8543991Y-23772079D01*
X8543991Y-23772079D02*
X8534468Y-23753031D01*
X8534468Y-23753031D02*
X8524944Y-23724460D01*
X8524944Y-23724460D02*
X8515420Y-23676841D01*
X8515420Y-23676841D02*
X8515420Y-23638746D01*
X8515420Y-23638746D02*
X8524944Y-23591127D01*
X8524944Y-23591127D02*
X8534468Y-23562555D01*
X8534468Y-23562555D02*
X8543991Y-23543508D01*
X8543991Y-23543508D02*
X8563039Y-23514936D01*
X8563039Y-23514936D02*
X8572563Y-23505412D01*
X8629706Y-23533984D02*
X8753515Y-23533984D01*
X8753515Y-23533984D02*
X8686849Y-23610174D01*
X8686849Y-23610174D02*
X8715420Y-23610174D01*
X8715420Y-23610174D02*
X8734468Y-23619698D01*
X8734468Y-23619698D02*
X8743991Y-23629222D01*
X8743991Y-23629222D02*
X8753515Y-23648269D01*
X8753515Y-23648269D02*
X8753515Y-23695888D01*
X8753515Y-23695888D02*
X8743991Y-23714936D01*
X8743991Y-23714936D02*
X8734468Y-23724460D01*
X8734468Y-23724460D02*
X8715420Y-23733984D01*
X8715420Y-23733984D02*
X8658277Y-23733984D01*
X8658277Y-23733984D02*
X8639230Y-23724460D01*
X8639230Y-23724460D02*
X8629706Y-23714936D01*
X8991611Y-23733984D02*
X8991611Y-23533984D01*
X9077325Y-23733984D02*
X9077325Y-23629222D01*
X9077325Y-23629222D02*
X9067801Y-23610174D01*
X9067801Y-23610174D02*
X9048753Y-23600650D01*
X9048753Y-23600650D02*
X9020182Y-23600650D01*
X9020182Y-23600650D02*
X9001134Y-23610174D01*
X9001134Y-23610174D02*
X8991611Y-23619698D01*
X9201134Y-23733984D02*
X9182087Y-23724460D01*
X9182087Y-23724460D02*
X9172563Y-23714936D01*
X9172563Y-23714936D02*
X9163039Y-23695888D01*
X9163039Y-23695888D02*
X9163039Y-23638746D01*
X9163039Y-23638746D02*
X9172563Y-23619698D01*
X9172563Y-23619698D02*
X9182087Y-23610174D01*
X9182087Y-23610174D02*
X9201134Y-23600650D01*
X9201134Y-23600650D02*
X9229706Y-23600650D01*
X9229706Y-23600650D02*
X9248753Y-23610174D01*
X9248753Y-23610174D02*
X9258277Y-23619698D01*
X9258277Y-23619698D02*
X9267801Y-23638746D01*
X9267801Y-23638746D02*
X9267801Y-23695888D01*
X9267801Y-23695888D02*
X9258277Y-23714936D01*
X9258277Y-23714936D02*
X9248753Y-23724460D01*
X9248753Y-23724460D02*
X9229706Y-23733984D01*
X9229706Y-23733984D02*
X9201134Y-23733984D01*
X9382087Y-23733984D02*
X9363039Y-23724460D01*
X9363039Y-23724460D02*
X9353515Y-23705412D01*
X9353515Y-23705412D02*
X9353515Y-23533984D01*
X9534468Y-23724460D02*
X9515420Y-23733984D01*
X9515420Y-23733984D02*
X9477325Y-23733984D01*
X9477325Y-23733984D02*
X9458277Y-23724460D01*
X9458277Y-23724460D02*
X9448753Y-23705412D01*
X9448753Y-23705412D02*
X9448753Y-23629222D01*
X9448753Y-23629222D02*
X9458277Y-23610174D01*
X9458277Y-23610174D02*
X9477325Y-23600650D01*
X9477325Y-23600650D02*
X9515420Y-23600650D01*
X9515420Y-23600650D02*
X9534468Y-23610174D01*
X9534468Y-23610174D02*
X9543992Y-23629222D01*
X9543992Y-23629222D02*
X9543992Y-23648269D01*
X9543992Y-23648269D02*
X9448753Y-23667317D01*
X9620182Y-23724460D02*
X9639230Y-23733984D01*
X9639230Y-23733984D02*
X9677325Y-23733984D01*
X9677325Y-23733984D02*
X9696373Y-23724460D01*
X9696373Y-23724460D02*
X9705896Y-23705412D01*
X9705896Y-23705412D02*
X9705896Y-23695888D01*
X9705896Y-23695888D02*
X9696373Y-23676841D01*
X9696373Y-23676841D02*
X9677325Y-23667317D01*
X9677325Y-23667317D02*
X9648753Y-23667317D01*
X9648753Y-23667317D02*
X9629706Y-23657793D01*
X9629706Y-23657793D02*
X9620182Y-23638746D01*
X9620182Y-23638746D02*
X9620182Y-23629222D01*
X9620182Y-23629222D02*
X9629706Y-23610174D01*
X9629706Y-23610174D02*
X9648753Y-23600650D01*
X9648753Y-23600650D02*
X9677325Y-23600650D01*
X9677325Y-23600650D02*
X9696373Y-23610174D01*
X9772563Y-23810174D02*
X9782087Y-23800650D01*
X9782087Y-23800650D02*
X9801134Y-23772079D01*
X9801134Y-23772079D02*
X9810658Y-23753031D01*
X9810658Y-23753031D02*
X9820182Y-23724460D01*
X9820182Y-23724460D02*
X9829706Y-23676841D01*
X9829706Y-23676841D02*
X9829706Y-23638746D01*
X9829706Y-23638746D02*
X9820182Y-23591127D01*
X9820182Y-23591127D02*
X9810658Y-23562555D01*
X9810658Y-23562555D02*
X9801134Y-23543508D01*
X9801134Y-23543508D02*
X9782087Y-23514936D01*
X9782087Y-23514936D02*
X9772563Y-23505412D01*
X10134468Y-23810174D02*
X10124944Y-23800650D01*
X10124944Y-23800650D02*
X10105896Y-23772079D01*
X10105896Y-23772079D02*
X10096373Y-23753031D01*
X10096373Y-23753031D02*
X10086849Y-23724460D01*
X10086849Y-23724460D02*
X10077325Y-23676841D01*
X10077325Y-23676841D02*
X10077325Y-23638746D01*
X10077325Y-23638746D02*
X10086849Y-23591127D01*
X10086849Y-23591127D02*
X10096373Y-23562555D01*
X10096373Y-23562555D02*
X10105896Y-23543508D01*
X10105896Y-23543508D02*
X10124944Y-23514936D01*
X10124944Y-23514936D02*
X10134468Y-23505412D01*
X10210658Y-23600650D02*
X10210658Y-23733984D01*
X10210658Y-23619698D02*
X10220182Y-23610174D01*
X10220182Y-23610174D02*
X10239230Y-23600650D01*
X10239230Y-23600650D02*
X10267801Y-23600650D01*
X10267801Y-23600650D02*
X10286849Y-23610174D01*
X10286849Y-23610174D02*
X10296373Y-23629222D01*
X10296373Y-23629222D02*
X10296373Y-23733984D01*
X10420182Y-23733984D02*
X10401134Y-23724460D01*
X10401134Y-23724460D02*
X10391611Y-23714936D01*
X10391611Y-23714936D02*
X10382087Y-23695888D01*
X10382087Y-23695888D02*
X10382087Y-23638746D01*
X10382087Y-23638746D02*
X10391611Y-23619698D01*
X10391611Y-23619698D02*
X10401134Y-23610174D01*
X10401134Y-23610174D02*
X10420182Y-23600650D01*
X10420182Y-23600650D02*
X10448754Y-23600650D01*
X10448754Y-23600650D02*
X10467801Y-23610174D01*
X10467801Y-23610174D02*
X10477325Y-23619698D01*
X10477325Y-23619698D02*
X10486849Y-23638746D01*
X10486849Y-23638746D02*
X10486849Y-23695888D01*
X10486849Y-23695888D02*
X10477325Y-23714936D01*
X10477325Y-23714936D02*
X10467801Y-23724460D01*
X10467801Y-23724460D02*
X10448754Y-23733984D01*
X10448754Y-23733984D02*
X10420182Y-23733984D01*
X10543992Y-23600650D02*
X10620182Y-23600650D01*
X10572563Y-23533984D02*
X10572563Y-23705412D01*
X10572563Y-23705412D02*
X10582087Y-23724460D01*
X10582087Y-23724460D02*
X10601134Y-23733984D01*
X10601134Y-23733984D02*
X10620182Y-23733984D01*
X10839230Y-23600650D02*
X10839230Y-23800650D01*
X10839230Y-23610174D02*
X10858277Y-23600650D01*
X10858277Y-23600650D02*
X10896373Y-23600650D01*
X10896373Y-23600650D02*
X10915420Y-23610174D01*
X10915420Y-23610174D02*
X10924944Y-23619698D01*
X10924944Y-23619698D02*
X10934468Y-23638746D01*
X10934468Y-23638746D02*
X10934468Y-23695888D01*
X10934468Y-23695888D02*
X10924944Y-23714936D01*
X10924944Y-23714936D02*
X10915420Y-23724460D01*
X10915420Y-23724460D02*
X10896373Y-23733984D01*
X10896373Y-23733984D02*
X10858277Y-23733984D01*
X10858277Y-23733984D02*
X10839230Y-23724460D01*
X11048754Y-23733984D02*
X11029706Y-23724460D01*
X11029706Y-23724460D02*
X11020182Y-23705412D01*
X11020182Y-23705412D02*
X11020182Y-23533984D01*
X11210658Y-23733984D02*
X11210658Y-23629222D01*
X11210658Y-23629222D02*
X11201134Y-23610174D01*
X11201134Y-23610174D02*
X11182087Y-23600650D01*
X11182087Y-23600650D02*
X11143992Y-23600650D01*
X11143992Y-23600650D02*
X11124944Y-23610174D01*
X11210658Y-23724460D02*
X11191611Y-23733984D01*
X11191611Y-23733984D02*
X11143992Y-23733984D01*
X11143992Y-23733984D02*
X11124944Y-23724460D01*
X11124944Y-23724460D02*
X11115420Y-23705412D01*
X11115420Y-23705412D02*
X11115420Y-23686365D01*
X11115420Y-23686365D02*
X11124944Y-23667317D01*
X11124944Y-23667317D02*
X11143992Y-23657793D01*
X11143992Y-23657793D02*
X11191611Y-23657793D01*
X11191611Y-23657793D02*
X11210658Y-23648269D01*
X11277325Y-23600650D02*
X11353515Y-23600650D01*
X11305896Y-23533984D02*
X11305896Y-23705412D01*
X11305896Y-23705412D02*
X11315420Y-23724460D01*
X11315420Y-23724460D02*
X11334468Y-23733984D01*
X11334468Y-23733984D02*
X11353515Y-23733984D01*
X11496373Y-23724460D02*
X11477325Y-23733984D01*
X11477325Y-23733984D02*
X11439230Y-23733984D01*
X11439230Y-23733984D02*
X11420182Y-23724460D01*
X11420182Y-23724460D02*
X11410658Y-23705412D01*
X11410658Y-23705412D02*
X11410658Y-23629222D01*
X11410658Y-23629222D02*
X11420182Y-23610174D01*
X11420182Y-23610174D02*
X11439230Y-23600650D01*
X11439230Y-23600650D02*
X11477325Y-23600650D01*
X11477325Y-23600650D02*
X11496373Y-23610174D01*
X11496373Y-23610174D02*
X11505896Y-23629222D01*
X11505896Y-23629222D02*
X11505896Y-23648269D01*
X11505896Y-23648269D02*
X11410658Y-23667317D01*
X11677325Y-23733984D02*
X11677325Y-23533984D01*
X11677325Y-23724460D02*
X11658277Y-23733984D01*
X11658277Y-23733984D02*
X11620182Y-23733984D01*
X11620182Y-23733984D02*
X11601134Y-23724460D01*
X11601134Y-23724460D02*
X11591611Y-23714936D01*
X11591611Y-23714936D02*
X11582087Y-23695888D01*
X11582087Y-23695888D02*
X11582087Y-23638746D01*
X11582087Y-23638746D02*
X11591611Y-23619698D01*
X11591611Y-23619698D02*
X11601134Y-23610174D01*
X11601134Y-23610174D02*
X11620182Y-23600650D01*
X11620182Y-23600650D02*
X11658277Y-23600650D01*
X11658277Y-23600650D02*
X11677325Y-23610174D01*
X11753515Y-23810174D02*
X11763039Y-23800650D01*
X11763039Y-23800650D02*
X11782087Y-23772079D01*
X11782087Y-23772079D02*
X11791611Y-23753031D01*
X11791611Y-23753031D02*
X11801134Y-23724460D01*
X11801134Y-23724460D02*
X11810658Y-23676841D01*
X11810658Y-23676841D02*
X11810658Y-23638746D01*
X11810658Y-23638746D02*
X11801134Y-23591127D01*
X11801134Y-23591127D02*
X11791611Y-23562555D01*
X11791611Y-23562555D02*
X11782087Y-23543508D01*
X11782087Y-23543508D02*
X11763039Y-23514936D01*
X11763039Y-23514936D02*
X11753515Y-23505412D01*
M02*
