%TF.GenerationSoftware,KiCad,Pcbnew,9.0.4*%
%TF.CreationDate,2025-10-04T20:42:34+02:00*%
%TF.ProjectId,DMH_VCM_Mk2_PCB_2,444d485f-5643-44d5-9f4d-6b325f504342,1*%
%TF.SameCoordinates,Original*%
%TF.FileFunction,Copper,L1,Top*%
%TF.FilePolarity,Positive*%
%FSLAX46Y46*%
G04 Gerber Fmt 4.6, Leading zero omitted, Abs format (unit mm)*
G04 Created by KiCad (PCBNEW 9.0.4) date 2025-10-04 20:42:34*
%MOMM*%
%LPD*%
G01*
G04 APERTURE LIST*
%TA.AperFunction,ComponentPad*%
%ADD10C,2.800000*%
%TD*%
%TA.AperFunction,ComponentPad*%
%ADD11C,1.600000*%
%TD*%
%TA.AperFunction,ComponentPad*%
%ADD12O,1.600000X1.600000*%
%TD*%
%TA.AperFunction,ComponentPad*%
%ADD13O,4.000000X4.200000*%
%TD*%
%TA.AperFunction,ComponentPad*%
%ADD14C,1.800000*%
%TD*%
%TA.AperFunction,ComponentPad*%
%ADD15R,1.800000X1.800000*%
%TD*%
%TA.AperFunction,ComponentPad*%
%ADD16O,2.720000X3.240000*%
%TD*%
%TA.AperFunction,ComponentPad*%
%ADD17R,1.800000X1.400000*%
%TD*%
%TA.AperFunction,ComponentPad*%
%ADD18O,1.800000X1.400000*%
%TD*%
%TA.AperFunction,ComponentPad*%
%ADD19R,1.700000X1.700000*%
%TD*%
%TA.AperFunction,ComponentPad*%
%ADD20O,1.700000X1.700000*%
%TD*%
%TA.AperFunction,Conductor*%
%ADD21C,1.000000*%
%TD*%
%TA.AperFunction,Conductor*%
%ADD22C,0.200000*%
%TD*%
G04 APERTURE END LIST*
D10*
%TO.P,SW1,1,A*%
%TO.N,/Inputs and Outputs/Mute A Switch*%
X60913000Y-47300000D03*
%TO.P,SW1,2,B*%
%TO.N,/Inputs and Outputs/Output A Jack*%
X60913000Y-52000000D03*
%TO.P,SW1,3,C*%
%TO.N,unconnected-(SW1-C-Pad3)*%
X60913000Y-56700000D03*
%TO.P,SW1,4,A*%
%TO.N,Net-(R57-Pad2)*%
X56087000Y-47300000D03*
%TO.P,SW1,5,B*%
%TO.N,+12V*%
X56087000Y-52000000D03*
%TO.P,SW1,6,C*%
%TO.N,Net-(R56-Pad2)*%
X56087000Y-56700000D03*
%TD*%
D11*
%TO.P,R61,1*%
%TO.N,Net-(D5-A1)*%
X92810000Y-79000000D03*
D12*
%TO.P,R61,2*%
%TO.N,Net-(R61-Pad2)*%
X85190000Y-79000000D03*
%TD*%
D13*
%TO.P,RV9,*%
%TO.N,*%
X81700000Y-149250000D03*
D14*
X91250000Y-160250000D03*
D13*
X93300000Y-149250000D03*
D15*
%TO.P,RV9,1,1*%
%TO.N,GND*%
X83750000Y-160250000D03*
D14*
%TO.P,RV9,2,2*%
%TO.N,/Inputs and Outputs/CV Amt C Pot*%
X86250000Y-160250000D03*
%TO.P,RV9,3,3*%
%TO.N,/Inputs and Outputs/CV C Jack*%
X88750000Y-160250000D03*
%TD*%
D16*
%TO.P,RV5,*%
%TO.N,*%
X57700000Y-106000000D03*
X67300000Y-106000000D03*
D15*
%TO.P,RV5,1,1*%
%TO.N,GND*%
X60000000Y-113500000D03*
D14*
%TO.P,RV5,2,2*%
%TO.N,/Inputs and Outputs/Offset B Pot*%
X62500000Y-113500000D03*
%TO.P,RV5,3,3*%
%TO.N,Net-(R54-Pad1)*%
X65000000Y-113500000D03*
%TD*%
D13*
%TO.P,RV8,*%
%TO.N,*%
X81700000Y-120500000D03*
D14*
X91250000Y-131500000D03*
D13*
X93300000Y-120500000D03*
D15*
%TO.P,RV8,1,1*%
%TO.N,GND*%
X83750000Y-131500000D03*
D14*
%TO.P,RV8,2,2*%
%TO.N,/Inputs and Outputs/CV Amt B Pot*%
X86250000Y-131500000D03*
%TO.P,RV8,3,3*%
%TO.N,/Inputs and Outputs/CV B Jack*%
X88750000Y-131500000D03*
%TD*%
D13*
%TO.P,RV7,*%
%TO.N,*%
X81700000Y-91750000D03*
D14*
X91250000Y-102750000D03*
D13*
X93300000Y-91750000D03*
D15*
%TO.P,RV7,1,1*%
%TO.N,GND*%
X83750000Y-102750000D03*
D14*
%TO.P,RV7,2,2*%
%TO.N,/Inputs and Outputs/CV Amt A Pot*%
X86250000Y-102750000D03*
%TO.P,RV7,3,3*%
%TO.N,/Inputs and Outputs/CV A Jack*%
X88750000Y-102750000D03*
%TD*%
D17*
%TO.P,D3,1,A1*%
%TO.N,Net-(D3-A1)*%
X81000000Y-72750000D03*
D18*
%TO.P,D3,2,K*%
%TO.N,GND*%
X81000000Y-70750000D03*
%TO.P,D3,3,A2*%
%TO.N,Net-(D3-A2)*%
X81000000Y-68750000D03*
%TD*%
D11*
%TO.P,R53,1*%
%TO.N,Net-(R53-Pad1)*%
X66310000Y-89500000D03*
D12*
%TO.P,R53,2*%
%TO.N,+12V*%
X58690000Y-89500000D03*
%TD*%
D11*
%TO.P,R60,1*%
%TO.N,Net-(D5-A2)*%
X90810000Y-64500000D03*
D12*
%TO.P,R60,2*%
%TO.N,Net-(R60-Pad2)*%
X83190000Y-64500000D03*
%TD*%
D17*
%TO.P,D5,1,A1*%
%TO.N,Net-(D5-A1)*%
X94000000Y-72750000D03*
D18*
%TO.P,D5,2,K*%
%TO.N,GND*%
X94000000Y-70750000D03*
%TO.P,D5,3,A2*%
%TO.N,Net-(D5-A2)*%
X94000000Y-68750000D03*
%TD*%
D16*
%TO.P,RV4,*%
%TO.N,*%
X57700000Y-77250000D03*
X67300000Y-77250000D03*
D15*
%TO.P,RV4,1,1*%
%TO.N,GND*%
X60000000Y-84750000D03*
D14*
%TO.P,RV4,2,2*%
%TO.N,/Inputs and Outputs/Offset A Pot*%
X62500000Y-84750000D03*
%TO.P,RV4,3,3*%
%TO.N,Net-(R53-Pad1)*%
X65000000Y-84750000D03*
%TD*%
D11*
%TO.P,R54,1*%
%TO.N,Net-(R54-Pad1)*%
X66310000Y-118250000D03*
D12*
%TO.P,R54,2*%
%TO.N,+12V*%
X58690000Y-118250000D03*
%TD*%
D11*
%TO.P,R58,1*%
%TO.N,Net-(D4-A2)*%
X78810000Y-64500000D03*
D12*
%TO.P,R58,2*%
%TO.N,Net-(R58-Pad2)*%
X71190000Y-64500000D03*
%TD*%
D16*
%TO.P,RV6,*%
%TO.N,*%
X57700000Y-134750000D03*
X67300000Y-134750000D03*
D15*
%TO.P,RV6,1,1*%
%TO.N,GND*%
X60000000Y-142250000D03*
D14*
%TO.P,RV6,2,2*%
%TO.N,/Inputs and Outputs/Offset C Pot*%
X62500000Y-142250000D03*
%TO.P,RV6,3,3*%
%TO.N,Net-(R55-Pad1)*%
X65000000Y-142250000D03*
%TD*%
D11*
%TO.P,R56,1*%
%TO.N,Net-(D3-A2)*%
X66810000Y-64500000D03*
D12*
%TO.P,R56,2*%
%TO.N,Net-(R56-Pad2)*%
X59190000Y-64500000D03*
%TD*%
D19*
%TO.P,J0,1,Pin_1*%
%TO.N,GND*%
X97000000Y-100000000D03*
%TD*%
D10*
%TO.P,SW2,1,A*%
%TO.N,/Inputs and Outputs/Mute B Switch*%
X77413000Y-47300000D03*
%TO.P,SW2,2,B*%
%TO.N,/Inputs and Outputs/Output B Jack*%
X77413000Y-52000000D03*
%TO.P,SW2,3,C*%
%TO.N,unconnected-(SW2-C-Pad3)*%
X77413000Y-56700000D03*
%TO.P,SW2,4,A*%
%TO.N,Net-(R59-Pad2)*%
X72587000Y-47300000D03*
%TO.P,SW2,5,B*%
%TO.N,+12V*%
X72587000Y-52000000D03*
%TO.P,SW2,6,C*%
%TO.N,Net-(R58-Pad2)*%
X72587000Y-56700000D03*
%TD*%
D11*
%TO.P,R55,1*%
%TO.N,Net-(R55-Pad1)*%
X66310000Y-146750000D03*
D12*
%TO.P,R55,2*%
%TO.N,+12V*%
X58690000Y-146750000D03*
%TD*%
D11*
%TO.P,R59,1*%
%TO.N,Net-(D4-A1)*%
X81060000Y-81500000D03*
D12*
%TO.P,R59,2*%
%TO.N,Net-(R59-Pad2)*%
X73440000Y-81500000D03*
%TD*%
D11*
%TO.P,R57,1*%
%TO.N,Net-(D3-A1)*%
X81060000Y-76500000D03*
D12*
%TO.P,R57,2*%
%TO.N,Net-(R57-Pad2)*%
X73440000Y-76500000D03*
%TD*%
D10*
%TO.P,SW3,1,A*%
%TO.N,/Inputs and Outputs/Mute C Switch*%
X93913000Y-47300000D03*
%TO.P,SW3,2,B*%
%TO.N,/Inputs and Outputs/Output C Jack*%
X93913000Y-52000000D03*
%TO.P,SW3,3,C*%
%TO.N,unconnected-(SW3-C-Pad3)*%
X93913000Y-56700000D03*
%TO.P,SW3,4,A*%
%TO.N,Net-(R61-Pad2)*%
X89087000Y-47300000D03*
%TO.P,SW3,5,B*%
%TO.N,+12V*%
X89087000Y-52000000D03*
%TO.P,SW3,6,C*%
%TO.N,Net-(R60-Pad2)*%
X89087000Y-56700000D03*
%TD*%
D17*
%TO.P,D4,1,A1*%
%TO.N,Net-(D4-A1)*%
X87500000Y-72750000D03*
D18*
%TO.P,D4,2,K*%
%TO.N,GND*%
X87500000Y-70750000D03*
%TO.P,D4,3,A2*%
%TO.N,Net-(D4-A2)*%
X87500000Y-68750000D03*
%TD*%
D19*
%TO.P,J70,1,Pin_1*%
%TO.N,+12V*%
X97000000Y-133000000D03*
D20*
%TO.P,J70,2,Pin_2*%
%TO.N,/Inputs and Outputs/Mute C Switch*%
X97000000Y-135540000D03*
%TO.P,J70,3,Pin_3*%
%TO.N,/Inputs and Outputs/Output C Jack*%
X97000000Y-138080000D03*
%TO.P,J70,4,Pin_4*%
%TO.N,/Inputs and Outputs/Offset C Pot*%
X97000000Y-140620000D03*
%TO.P,J70,5,Pin_5*%
%TO.N,/Inputs and Outputs/CV Amt C Pot*%
X97000000Y-143160000D03*
%TO.P,J70,6,Pin_6*%
%TO.N,/Inputs and Outputs/CV C Jack*%
X97000000Y-145700000D03*
%TO.P,J70,7,Pin_7*%
%TO.N,unconnected-(J70-Pin_7-Pad7)*%
X97000000Y-148240000D03*
%TO.P,J70,8,Pin_8*%
%TO.N,GND*%
X97000000Y-150780000D03*
%TD*%
D19*
%TO.P,J60,1,Pin_1*%
%TO.N,+12V*%
X54500000Y-96000000D03*
D20*
%TO.P,J60,2,Pin_2*%
%TO.N,/Inputs and Outputs/Mute B Switch*%
X54500000Y-98540000D03*
%TO.P,J60,3,Pin_3*%
%TO.N,/Inputs and Outputs/Output B Jack*%
X54500000Y-101080000D03*
%TO.P,J60,4,Pin_4*%
%TO.N,/Inputs and Outputs/Offset B Pot*%
X54500000Y-103620000D03*
%TO.P,J60,5,Pin_5*%
%TO.N,/Inputs and Outputs/CV Amt B Pot*%
X54500000Y-106160000D03*
%TO.P,J60,6,Pin_6*%
%TO.N,/Inputs and Outputs/CV B Jack*%
X54500000Y-108700000D03*
%TO.P,J60,7,Pin_7*%
%TO.N,GND*%
X54500000Y-111240000D03*
%TO.P,J60,8,Pin_8*%
X54500000Y-113780000D03*
%TD*%
D19*
%TO.P,J50,1,Pin_1*%
%TO.N,+12V*%
X97000000Y-62500000D03*
D20*
%TO.P,J50,2,Pin_2*%
%TO.N,/Inputs and Outputs/Mute A Switch*%
X97000000Y-65040000D03*
%TO.P,J50,3,Pin_3*%
%TO.N,/Inputs and Outputs/Output A Jack*%
X97000000Y-67580000D03*
%TO.P,J50,4,Pin_4*%
%TO.N,/Inputs and Outputs/Offset A Pot*%
X97000000Y-70120000D03*
%TO.P,J50,5,Pin_5*%
%TO.N,/Inputs and Outputs/CV Amt A Pot*%
X97000000Y-72660000D03*
%TO.P,J50,6,Pin_6*%
%TO.N,/Inputs and Outputs/CV A Jack*%
X97000000Y-75200000D03*
%TO.P,J50,7,Pin_7*%
%TO.N,GND*%
X97000000Y-77740000D03*
%TO.P,J50,8,Pin_8*%
X97000000Y-80280000D03*
%TD*%
D21*
%TO.N,+12V*%
X54400000Y-96000000D02*
X52001000Y-98399000D01*
X57000000Y-145060000D02*
X58690000Y-146750000D01*
X54500000Y-96000000D02*
X54400000Y-96000000D01*
X53986000Y-54101000D02*
X53986000Y-84796000D01*
X89300000Y-52000000D02*
X91800000Y-54500000D01*
X52001000Y-98399000D02*
X52001000Y-114599000D01*
X62300000Y-44700000D02*
X69600000Y-52000000D01*
X95500000Y-54500000D02*
X97000000Y-56000000D01*
X72587000Y-52000000D02*
X74688000Y-49899000D01*
X56087000Y-52000000D02*
X58300000Y-49787000D01*
X55652000Y-118250000D02*
X58690000Y-118250000D01*
X59300000Y-44700000D02*
X62300000Y-44700000D01*
X58300000Y-49787000D02*
X58300000Y-45700000D01*
X52001000Y-114599000D02*
X55652000Y-118250000D01*
X57000000Y-140400000D02*
X57000000Y-145060000D01*
X86986000Y-49899000D02*
X89087000Y-52000000D01*
X58300000Y-45700000D02*
X59300000Y-44700000D01*
X69600000Y-52000000D02*
X72587000Y-52000000D01*
X53986000Y-84796000D02*
X58690000Y-89500000D01*
X97000000Y-56000000D02*
X97000000Y-62500000D01*
X74688000Y-49899000D02*
X86986000Y-49899000D01*
X56087000Y-52000000D02*
X53986000Y-54101000D01*
X89087000Y-52000000D02*
X89300000Y-52000000D01*
X97000000Y-133000000D02*
X92500000Y-137500000D01*
X59900000Y-137500000D02*
X57000000Y-140400000D01*
X92500000Y-137500000D02*
X59900000Y-137500000D01*
X91800000Y-54500000D02*
X95500000Y-54500000D01*
D22*
%TO.N,Net-(D3-A2)*%
X66810000Y-64500000D02*
X71060000Y-68750000D01*
X71060000Y-68750000D02*
X81000000Y-68750000D01*
%TO.N,Net-(D4-A2)*%
X83060000Y-68750000D02*
X87500000Y-68750000D01*
X78810000Y-64500000D02*
X83060000Y-68750000D01*
%TO.N,Net-(D5-A2)*%
X90810000Y-64500000D02*
X94000000Y-67690000D01*
X94000000Y-67690000D02*
X94000000Y-68750000D01*
%TO.N,/Inputs and Outputs/Output A Jack*%
X89634900Y-54102000D02*
X63015000Y-54102000D01*
X95100000Y-65680000D02*
X95100000Y-60859678D01*
X63015000Y-54102000D02*
X60913000Y-52000000D01*
X91811000Y-57570678D02*
X91811000Y-56278100D01*
X91811000Y-56278100D02*
X89634900Y-54102000D01*
X97000000Y-67580000D02*
X95100000Y-65680000D01*
X95100000Y-60859678D02*
X91811000Y-57570678D01*
%TO.N,/Inputs and Outputs/CV A Jack*%
X97000000Y-75200000D02*
X96100000Y-76100000D01*
X92667100Y-76100000D02*
X88750000Y-80017100D01*
X96100000Y-76100000D02*
X92667100Y-76100000D01*
X88750000Y-80017100D02*
X88750000Y-102750000D01*
%TO.N,/Inputs and Outputs/CV B Jack*%
X65950000Y-108700000D02*
X88750000Y-131500000D01*
X54500000Y-108700000D02*
X65950000Y-108700000D01*
%TO.N,/Inputs and Outputs/Offset A Pot*%
X62500000Y-90900000D02*
X78800000Y-107200000D01*
X98399000Y-103601000D02*
X98399000Y-71519000D01*
X62500000Y-84750000D02*
X62500000Y-90900000D01*
X98399000Y-71519000D02*
X97000000Y-70120000D01*
X78800000Y-107200000D02*
X94800000Y-107200000D01*
X94800000Y-107200000D02*
X98399000Y-103601000D01*
%TO.N,/Inputs and Outputs/Mute A Switch*%
X92212000Y-56112000D02*
X92212000Y-57404578D01*
X67314000Y-53701000D02*
X89801000Y-53701000D01*
X92212000Y-57404578D02*
X95500000Y-60692578D01*
X89801000Y-53701000D02*
X92212000Y-56112000D01*
X95500000Y-63540000D02*
X97000000Y-65040000D01*
X60913000Y-47300000D02*
X67314000Y-53701000D01*
X95500000Y-60692578D02*
X95500000Y-63540000D01*
%TO.N,/Inputs and Outputs/Offset C Pot*%
X64130000Y-140620000D02*
X97000000Y-140620000D01*
X62500000Y-142250000D02*
X64130000Y-140620000D01*
%TO.N,/Inputs and Outputs/CV Amt A Pot*%
X96600000Y-73950000D02*
X94850000Y-75700000D01*
X94850000Y-75700000D02*
X92500000Y-75700000D01*
X92500000Y-75700000D02*
X86250000Y-81950000D01*
X97000000Y-72660000D02*
X96600000Y-73060000D01*
X96600000Y-73060000D02*
X96600000Y-73950000D01*
X86250000Y-81950000D02*
X86250000Y-102750000D01*
%TO.N,/Inputs and Outputs/CV Amt B Pot*%
X53349000Y-109176760D02*
X54023240Y-109851000D01*
X54500000Y-106160000D02*
X53349000Y-107311000D01*
X53349000Y-107311000D02*
X53349000Y-109176760D01*
X64601000Y-109851000D02*
X86250000Y-131500000D01*
X54023240Y-109851000D02*
X64601000Y-109851000D01*
%TD*%
%TA.AperFunction,Conductor*%
%TO.N,GND*%
G36*
X98442539Y-43020185D02*
G01*
X98488294Y-43072989D01*
X98499500Y-43124500D01*
X98499500Y-61309897D01*
X98479815Y-61376936D01*
X98427011Y-61422691D01*
X98357853Y-61432635D01*
X98294297Y-61403610D01*
X98276234Y-61384208D01*
X98207547Y-61292455D01*
X98207544Y-61292452D01*
X98092335Y-61206206D01*
X98092332Y-61206205D01*
X98092331Y-61206204D01*
X98081161Y-61202038D01*
X98025231Y-61160166D01*
X98000816Y-61094701D01*
X98000500Y-61085858D01*
X98000500Y-55901456D01*
X97969037Y-55743284D01*
X97969037Y-55743283D01*
X97962052Y-55708171D01*
X97962051Y-55708164D01*
X97897541Y-55552423D01*
X97886632Y-55526086D01*
X97777139Y-55362218D01*
X97637782Y-55222861D01*
X97637781Y-55222860D01*
X96284208Y-53869288D01*
X96284206Y-53869285D01*
X96284206Y-53869286D01*
X96277139Y-53862219D01*
X96277139Y-53862218D01*
X96137782Y-53722861D01*
X96137781Y-53722860D01*
X96137780Y-53722859D01*
X95973920Y-53613371D01*
X95973911Y-53613366D01*
X95901315Y-53583296D01*
X95845165Y-53560038D01*
X95791836Y-53537949D01*
X95791832Y-53537948D01*
X95791828Y-53537946D01*
X95695188Y-53518724D01*
X95598544Y-53499500D01*
X95598541Y-53499500D01*
X95400577Y-53499500D01*
X95333538Y-53479815D01*
X95287783Y-53427011D01*
X95277839Y-53357853D01*
X95306864Y-53294297D01*
X95312896Y-53287819D01*
X95344933Y-53255781D01*
X95344938Y-53255776D01*
X95496599Y-53058127D01*
X95621164Y-52842373D01*
X95716502Y-52612207D01*
X95780982Y-52371565D01*
X95813500Y-52124565D01*
X95813500Y-51875435D01*
X95780982Y-51628435D01*
X95716502Y-51387793D01*
X95621164Y-51157627D01*
X95523918Y-50989192D01*
X95496599Y-50941873D01*
X95344939Y-50744225D01*
X95344933Y-50744218D01*
X95168781Y-50568066D01*
X95168774Y-50568060D01*
X94971126Y-50416400D01*
X94755376Y-50291837D01*
X94755361Y-50291830D01*
X94525207Y-50196498D01*
X94286427Y-50132517D01*
X94284565Y-50132018D01*
X94284564Y-50132017D01*
X94284561Y-50132017D01*
X94037575Y-50099501D01*
X94037570Y-50099500D01*
X94037565Y-50099500D01*
X93788435Y-50099500D01*
X93788429Y-50099500D01*
X93788424Y-50099501D01*
X93541438Y-50132017D01*
X93300792Y-50196498D01*
X93070638Y-50291830D01*
X93070623Y-50291837D01*
X92854873Y-50416400D01*
X92657225Y-50568060D01*
X92657218Y-50568066D01*
X92481066Y-50744218D01*
X92481060Y-50744225D01*
X92329400Y-50941873D01*
X92204837Y-51157623D01*
X92204830Y-51157638D01*
X92109498Y-51387792D01*
X92045017Y-51628438D01*
X92045017Y-51628441D01*
X92012500Y-51875435D01*
X92012500Y-52124565D01*
X92012500Y-52124570D01*
X92012501Y-52124575D01*
X92035411Y-52298599D01*
X92045018Y-52371565D01*
X92046098Y-52375594D01*
X92109498Y-52612207D01*
X92204830Y-52842361D01*
X92204837Y-52842376D01*
X92329400Y-53058126D01*
X92481060Y-53255774D01*
X92481066Y-53255781D01*
X92513104Y-53287819D01*
X92523716Y-53307255D01*
X92538217Y-53323989D01*
X92540133Y-53337320D01*
X92546589Y-53349142D01*
X92545009Y-53371228D01*
X92548161Y-53393147D01*
X92542565Y-53405398D01*
X92541605Y-53418834D01*
X92528334Y-53436560D01*
X92519136Y-53456703D01*
X92507804Y-53463985D01*
X92499733Y-53474767D01*
X92478987Y-53482504D01*
X92460358Y-53494477D01*
X92438439Y-53497628D01*
X92434269Y-53499184D01*
X92425423Y-53499500D01*
X92265782Y-53499500D01*
X92198743Y-53479815D01*
X92178101Y-53463181D01*
X91013519Y-52298599D01*
X90980034Y-52237276D01*
X90978261Y-52194737D01*
X90987500Y-52124565D01*
X90987500Y-51875435D01*
X90954982Y-51628435D01*
X90890502Y-51387793D01*
X90795164Y-51157627D01*
X90697918Y-50989192D01*
X90670599Y-50941873D01*
X90518939Y-50744225D01*
X90518933Y-50744218D01*
X90342781Y-50568066D01*
X90342774Y-50568060D01*
X90145126Y-50416400D01*
X89929376Y-50291837D01*
X89929361Y-50291830D01*
X89699207Y-50196498D01*
X89460427Y-50132517D01*
X89458565Y-50132018D01*
X89458564Y-50132017D01*
X89458561Y-50132017D01*
X89211575Y-50099501D01*
X89211570Y-50099500D01*
X89211565Y-50099500D01*
X88962435Y-50099500D01*
X88962429Y-50099500D01*
X88962424Y-50099501D01*
X88715427Y-50132019D01*
X88712450Y-50132611D01*
X88711546Y-50132530D01*
X88711410Y-50132548D01*
X88711405Y-50132517D01*
X88642859Y-50126376D01*
X88600592Y-50098672D01*
X87770209Y-49268289D01*
X87770206Y-49268285D01*
X87770206Y-49268286D01*
X87763139Y-49261219D01*
X87763139Y-49261218D01*
X87623782Y-49121861D01*
X87623781Y-49121860D01*
X87623780Y-49121859D01*
X87459920Y-49012371D01*
X87459911Y-49012366D01*
X87387315Y-48982296D01*
X87331165Y-48959038D01*
X87277836Y-48936949D01*
X87277832Y-48936948D01*
X87277828Y-48936946D01*
X87181188Y-48917724D01*
X87084544Y-48898500D01*
X87084541Y-48898500D01*
X78801577Y-48898500D01*
X78734538Y-48878815D01*
X78688783Y-48826011D01*
X78678839Y-48756853D01*
X78707864Y-48693297D01*
X78713896Y-48686819D01*
X78844933Y-48555781D01*
X78844938Y-48555776D01*
X78996599Y-48358127D01*
X79121164Y-48142373D01*
X79216502Y-47912207D01*
X79280982Y-47671565D01*
X79313500Y-47424565D01*
X79313500Y-47175441D01*
X87186500Y-47175441D01*
X87186500Y-47424558D01*
X87186501Y-47424575D01*
X87219017Y-47671561D01*
X87283498Y-47912207D01*
X87378830Y-48142361D01*
X87378837Y-48142376D01*
X87503400Y-48358126D01*
X87655060Y-48555774D01*
X87655066Y-48555781D01*
X87831218Y-48731933D01*
X87831225Y-48731939D01*
X88028873Y-48883599D01*
X88244623Y-49008162D01*
X88244638Y-49008169D01*
X88309465Y-49035021D01*
X88474793Y-49103502D01*
X88715435Y-49167982D01*
X88962435Y-49200500D01*
X88962442Y-49200500D01*
X89211558Y-49200500D01*
X89211565Y-49200500D01*
X89458565Y-49167982D01*
X89699207Y-49103502D01*
X89929373Y-49008164D01*
X90145127Y-48883599D01*
X90342776Y-48731938D01*
X90518938Y-48555776D01*
X90670599Y-48358127D01*
X90795164Y-48142373D01*
X90890502Y-47912207D01*
X90954982Y-47671565D01*
X90987500Y-47424565D01*
X90987500Y-47175441D01*
X92012500Y-47175441D01*
X92012500Y-47424558D01*
X92012501Y-47424575D01*
X92045017Y-47671561D01*
X92109498Y-47912207D01*
X92204830Y-48142361D01*
X92204837Y-48142376D01*
X92329400Y-48358126D01*
X92481060Y-48555774D01*
X92481066Y-48555781D01*
X92657218Y-48731933D01*
X92657225Y-48731939D01*
X92854873Y-48883599D01*
X93070623Y-49008162D01*
X93070638Y-49008169D01*
X93135465Y-49035021D01*
X93300793Y-49103502D01*
X93541435Y-49167982D01*
X93788435Y-49200500D01*
X93788442Y-49200500D01*
X94037558Y-49200500D01*
X94037565Y-49200500D01*
X94284565Y-49167982D01*
X94525207Y-49103502D01*
X94755373Y-49008164D01*
X94971127Y-48883599D01*
X95168776Y-48731938D01*
X95344938Y-48555776D01*
X95496599Y-48358127D01*
X95621164Y-48142373D01*
X95716502Y-47912207D01*
X95780982Y-47671565D01*
X95813500Y-47424565D01*
X95813500Y-47175435D01*
X95780982Y-46928435D01*
X95716502Y-46687793D01*
X95621164Y-46457627D01*
X95496599Y-46241873D01*
X95344938Y-46044224D01*
X95344933Y-46044218D01*
X95168781Y-45868066D01*
X95168774Y-45868060D01*
X94971126Y-45716400D01*
X94755376Y-45591837D01*
X94755361Y-45591830D01*
X94525207Y-45496498D01*
X94284561Y-45432017D01*
X94037575Y-45399501D01*
X94037570Y-45399500D01*
X94037565Y-45399500D01*
X93788435Y-45399500D01*
X93788429Y-45399500D01*
X93788424Y-45399501D01*
X93541438Y-45432017D01*
X93300792Y-45496498D01*
X93070638Y-45591830D01*
X93070623Y-45591837D01*
X92854873Y-45716400D01*
X92657225Y-45868060D01*
X92657218Y-45868066D01*
X92481066Y-46044218D01*
X92481060Y-46044225D01*
X92329400Y-46241873D01*
X92204837Y-46457623D01*
X92204830Y-46457638D01*
X92109498Y-46687792D01*
X92045017Y-46928438D01*
X92012501Y-47175424D01*
X92012500Y-47175441D01*
X90987500Y-47175441D01*
X90987500Y-47175435D01*
X90954982Y-46928435D01*
X90890502Y-46687793D01*
X90795164Y-46457627D01*
X90670599Y-46241873D01*
X90518938Y-46044224D01*
X90518933Y-46044218D01*
X90342781Y-45868066D01*
X90342774Y-45868060D01*
X90145126Y-45716400D01*
X89929376Y-45591837D01*
X89929361Y-45591830D01*
X89699207Y-45496498D01*
X89458561Y-45432017D01*
X89211575Y-45399501D01*
X89211570Y-45399500D01*
X89211565Y-45399500D01*
X88962435Y-45399500D01*
X88962429Y-45399500D01*
X88962424Y-45399501D01*
X88715438Y-45432017D01*
X88474792Y-45496498D01*
X88244638Y-45591830D01*
X88244623Y-45591837D01*
X88028873Y-45716400D01*
X87831225Y-45868060D01*
X87831218Y-45868066D01*
X87655066Y-46044218D01*
X87655060Y-46044225D01*
X87503400Y-46241873D01*
X87378837Y-46457623D01*
X87378830Y-46457638D01*
X87283498Y-46687792D01*
X87219017Y-46928438D01*
X87186501Y-47175424D01*
X87186500Y-47175441D01*
X79313500Y-47175441D01*
X79313500Y-47175435D01*
X79280982Y-46928435D01*
X79216502Y-46687793D01*
X79121164Y-46457627D01*
X78996599Y-46241873D01*
X78844938Y-46044224D01*
X78844933Y-46044218D01*
X78668781Y-45868066D01*
X78668774Y-45868060D01*
X78471126Y-45716400D01*
X78255376Y-45591837D01*
X78255361Y-45591830D01*
X78025207Y-45496498D01*
X77784561Y-45432017D01*
X77537575Y-45399501D01*
X77537570Y-45399500D01*
X77537565Y-45399500D01*
X77288435Y-45399500D01*
X77288429Y-45399500D01*
X77288424Y-45399501D01*
X77041438Y-45432017D01*
X76800792Y-45496498D01*
X76570638Y-45591830D01*
X76570623Y-45591837D01*
X76354873Y-45716400D01*
X76157225Y-45868060D01*
X76157218Y-45868066D01*
X75981066Y-46044218D01*
X75981060Y-46044225D01*
X75829400Y-46241873D01*
X75704837Y-46457623D01*
X75704830Y-46457638D01*
X75609498Y-46687792D01*
X75545017Y-46928438D01*
X75512501Y-47175424D01*
X75512500Y-47175441D01*
X75512500Y-47424558D01*
X75512501Y-47424575D01*
X75545017Y-47671561D01*
X75609498Y-47912207D01*
X75704830Y-48142361D01*
X75704837Y-48142376D01*
X75829400Y-48358126D01*
X75981060Y-48555774D01*
X75981066Y-48555781D01*
X76112104Y-48686819D01*
X76145589Y-48748142D01*
X76140605Y-48817834D01*
X76098733Y-48873767D01*
X76033269Y-48898184D01*
X76024423Y-48898500D01*
X74589454Y-48898500D01*
X74557391Y-48904876D01*
X74557392Y-48904877D01*
X74396170Y-48936946D01*
X74396164Y-48936948D01*
X74214088Y-49012366D01*
X74214079Y-49012371D01*
X74050219Y-49121859D01*
X74050215Y-49121862D01*
X73073406Y-50098672D01*
X73012083Y-50132157D01*
X72961541Y-50132610D01*
X72958563Y-50132017D01*
X72711575Y-50099501D01*
X72711570Y-50099500D01*
X72711565Y-50099500D01*
X72462435Y-50099500D01*
X72462429Y-50099500D01*
X72462424Y-50099501D01*
X72215438Y-50132017D01*
X71974792Y-50196498D01*
X71744638Y-50291830D01*
X71744623Y-50291837D01*
X71528873Y-50416400D01*
X71331225Y-50568060D01*
X71331218Y-50568066D01*
X71155066Y-50744218D01*
X71155060Y-50744225D01*
X71003406Y-50941865D01*
X71001724Y-50944384D01*
X71001027Y-50944966D01*
X71000930Y-50945093D01*
X71000901Y-50945071D01*
X70948115Y-50989192D01*
X70898617Y-50999500D01*
X70065782Y-50999500D01*
X69998743Y-50979815D01*
X69978101Y-50963181D01*
X66190361Y-47175441D01*
X70686500Y-47175441D01*
X70686500Y-47424558D01*
X70686501Y-47424575D01*
X70719017Y-47671561D01*
X70783498Y-47912207D01*
X70878830Y-48142361D01*
X70878837Y-48142376D01*
X71003400Y-48358126D01*
X71155060Y-48555774D01*
X71155066Y-48555781D01*
X71331218Y-48731933D01*
X71331225Y-48731939D01*
X71528873Y-48883599D01*
X71744623Y-49008162D01*
X71744638Y-49008169D01*
X71809465Y-49035021D01*
X71974793Y-49103502D01*
X72215435Y-49167982D01*
X72462435Y-49200500D01*
X72462442Y-49200500D01*
X72711558Y-49200500D01*
X72711565Y-49200500D01*
X72958565Y-49167982D01*
X73199207Y-49103502D01*
X73429373Y-49008164D01*
X73645127Y-48883599D01*
X73842776Y-48731938D01*
X74018938Y-48555776D01*
X74170599Y-48358127D01*
X74295164Y-48142373D01*
X74390502Y-47912207D01*
X74454982Y-47671565D01*
X74487500Y-47424565D01*
X74487500Y-47175435D01*
X74454982Y-46928435D01*
X74390502Y-46687793D01*
X74295164Y-46457627D01*
X74170599Y-46241873D01*
X74018938Y-46044224D01*
X74018933Y-46044218D01*
X73842781Y-45868066D01*
X73842774Y-45868060D01*
X73645126Y-45716400D01*
X73429376Y-45591837D01*
X73429361Y-45591830D01*
X73199207Y-45496498D01*
X72958561Y-45432017D01*
X72711575Y-45399501D01*
X72711570Y-45399500D01*
X72711565Y-45399500D01*
X72462435Y-45399500D01*
X72462429Y-45399500D01*
X72462424Y-45399501D01*
X72215438Y-45432017D01*
X71974792Y-45496498D01*
X71744638Y-45591830D01*
X71744623Y-45591837D01*
X71528873Y-45716400D01*
X71331225Y-45868060D01*
X71331218Y-45868066D01*
X71155066Y-46044218D01*
X71155060Y-46044225D01*
X71003400Y-46241873D01*
X70878837Y-46457623D01*
X70878830Y-46457638D01*
X70783498Y-46687792D01*
X70719017Y-46928438D01*
X70686501Y-47175424D01*
X70686500Y-47175441D01*
X66190361Y-47175441D01*
X63081479Y-44066559D01*
X63081459Y-44066537D01*
X62937785Y-43922863D01*
X62937781Y-43922860D01*
X62773920Y-43813371D01*
X62773911Y-43813366D01*
X62701315Y-43783296D01*
X62645165Y-43760038D01*
X62591836Y-43737949D01*
X62591832Y-43737948D01*
X62591828Y-43737946D01*
X62495188Y-43718724D01*
X62398544Y-43699500D01*
X62398541Y-43699500D01*
X59404675Y-43699500D01*
X59404655Y-43699499D01*
X59398541Y-43699499D01*
X59201460Y-43699499D01*
X59201457Y-43699499D01*
X59008172Y-43737946D01*
X59008164Y-43737948D01*
X58826088Y-43813366D01*
X58826079Y-43813371D01*
X58662219Y-43922859D01*
X58662215Y-43922862D01*
X57662220Y-44922859D01*
X57662218Y-44922861D01*
X57592538Y-44992540D01*
X57522859Y-45062219D01*
X57413371Y-45226079D01*
X57413364Y-45226092D01*
X57337950Y-45408160D01*
X57337947Y-45408170D01*
X57299499Y-45601460D01*
X57299331Y-45603167D01*
X57298993Y-45604002D01*
X57298311Y-45607434D01*
X57297659Y-45607304D01*
X57273164Y-45667952D01*
X57216126Y-45708306D01*
X57146326Y-45711416D01*
X57113929Y-45698389D01*
X56929376Y-45591837D01*
X56929361Y-45591830D01*
X56699207Y-45496498D01*
X56458561Y-45432017D01*
X56211575Y-45399501D01*
X56211570Y-45399500D01*
X56211565Y-45399500D01*
X55962435Y-45399500D01*
X55962429Y-45399500D01*
X55962424Y-45399501D01*
X55715438Y-45432017D01*
X55474792Y-45496498D01*
X55244638Y-45591830D01*
X55244623Y-45591837D01*
X55028873Y-45716400D01*
X54831225Y-45868060D01*
X54831218Y-45868066D01*
X54655066Y-46044218D01*
X54655060Y-46044225D01*
X54503400Y-46241873D01*
X54378837Y-46457623D01*
X54378830Y-46457638D01*
X54283498Y-46687792D01*
X54219017Y-46928438D01*
X54186501Y-47175424D01*
X54186500Y-47175441D01*
X54186500Y-47424558D01*
X54186501Y-47424575D01*
X54219017Y-47671561D01*
X54283498Y-47912207D01*
X54378830Y-48142361D01*
X54378837Y-48142376D01*
X54503400Y-48358126D01*
X54655060Y-48555774D01*
X54655066Y-48555781D01*
X54831218Y-48731933D01*
X54831225Y-48731939D01*
X55028873Y-48883599D01*
X55244623Y-49008162D01*
X55244638Y-49008169D01*
X55309465Y-49035021D01*
X55474793Y-49103502D01*
X55715435Y-49167982D01*
X55962435Y-49200500D01*
X55962442Y-49200500D01*
X56211558Y-49200500D01*
X56211565Y-49200500D01*
X56458565Y-49167982D01*
X56699207Y-49103502D01*
X56929373Y-49008164D01*
X57052727Y-48936946D01*
X57113500Y-48901859D01*
X57181401Y-48885386D01*
X57247427Y-48908239D01*
X57290618Y-48963160D01*
X57299500Y-49009246D01*
X57299500Y-49321217D01*
X57279815Y-49388256D01*
X57263181Y-49408898D01*
X56573406Y-50098672D01*
X56512083Y-50132157D01*
X56461541Y-50132610D01*
X56458563Y-50132017D01*
X56211575Y-50099501D01*
X56211570Y-50099500D01*
X56211565Y-50099500D01*
X55962435Y-50099500D01*
X55962429Y-50099500D01*
X55962424Y-50099501D01*
X55715438Y-50132017D01*
X55474792Y-50196498D01*
X55244638Y-50291830D01*
X55244623Y-50291837D01*
X55028873Y-50416400D01*
X54831225Y-50568060D01*
X54831218Y-50568066D01*
X54655066Y-50744218D01*
X54655060Y-50744225D01*
X54503400Y-50941873D01*
X54378837Y-51157623D01*
X54378830Y-51157638D01*
X54283498Y-51387792D01*
X54219017Y-51628438D01*
X54219017Y-51628441D01*
X54186500Y-51875435D01*
X54186500Y-52124565D01*
X54186500Y-52124570D01*
X54186501Y-52124575D01*
X54219017Y-52371563D01*
X54219610Y-52374541D01*
X54219528Y-52375445D01*
X54219548Y-52375590D01*
X54219515Y-52375594D01*
X54213378Y-52444132D01*
X54185672Y-52486406D01*
X53759413Y-52912666D01*
X53348220Y-53323859D01*
X53348218Y-53323861D01*
X53300851Y-53371228D01*
X53208859Y-53463219D01*
X53099371Y-53627080D01*
X53099364Y-53627092D01*
X53065785Y-53708162D01*
X53065785Y-53708164D01*
X53026296Y-53803501D01*
X53026295Y-53803503D01*
X53023949Y-53809165D01*
X53023946Y-53809174D01*
X52985500Y-54002454D01*
X52985500Y-54002459D01*
X52985500Y-84894541D01*
X52985500Y-84894543D01*
X52985499Y-84894543D01*
X53023947Y-85087829D01*
X53023950Y-85087839D01*
X53099364Y-85269907D01*
X53099371Y-85269920D01*
X53208859Y-85433780D01*
X53208860Y-85433781D01*
X53208861Y-85433782D01*
X53348218Y-85573139D01*
X53348219Y-85573139D01*
X53355286Y-85580206D01*
X53355285Y-85580206D01*
X53355289Y-85580209D01*
X57363281Y-89588202D01*
X57396766Y-89649525D01*
X57398073Y-89656484D01*
X57421522Y-89804531D01*
X57484781Y-89999221D01*
X57577715Y-90181613D01*
X57698028Y-90347213D01*
X57842786Y-90491971D01*
X57991345Y-90599903D01*
X58008390Y-90612287D01*
X58084889Y-90651265D01*
X58190776Y-90705218D01*
X58190778Y-90705218D01*
X58190781Y-90705220D01*
X58295137Y-90739127D01*
X58385465Y-90768477D01*
X58486557Y-90784488D01*
X58587648Y-90800500D01*
X58587649Y-90800500D01*
X58792351Y-90800500D01*
X58792352Y-90800500D01*
X58994534Y-90768477D01*
X59189219Y-90705220D01*
X59371610Y-90612287D01*
X59464590Y-90544732D01*
X59537213Y-90491971D01*
X59537215Y-90491968D01*
X59537219Y-90491966D01*
X59681966Y-90347219D01*
X59681968Y-90347215D01*
X59681971Y-90347213D01*
X59734732Y-90274590D01*
X59802287Y-90181610D01*
X59895220Y-89999219D01*
X59958477Y-89804534D01*
X59990500Y-89602352D01*
X59990500Y-89397648D01*
X59966076Y-89243443D01*
X59958477Y-89195465D01*
X59895218Y-89000776D01*
X59861503Y-88934607D01*
X59802287Y-88818390D01*
X59794556Y-88807749D01*
X59681971Y-88652786D01*
X59537213Y-88508028D01*
X59371613Y-88387715D01*
X59371612Y-88387714D01*
X59371610Y-88387713D01*
X59189219Y-88294780D01*
X58994534Y-88231523D01*
X58994531Y-88231522D01*
X58994532Y-88231522D01*
X58846484Y-88208073D01*
X58783350Y-88178143D01*
X58778202Y-88173281D01*
X55022819Y-84417898D01*
X54989334Y-84356575D01*
X54986500Y-84330217D01*
X54986500Y-81397648D01*
X72139500Y-81397648D01*
X72139500Y-81602351D01*
X72171522Y-81804534D01*
X72234781Y-81999223D01*
X72327715Y-82181613D01*
X72448028Y-82347213D01*
X72592786Y-82491971D01*
X72747749Y-82604556D01*
X72758390Y-82612287D01*
X72874607Y-82671503D01*
X72940776Y-82705218D01*
X72940778Y-82705218D01*
X72940781Y-82705220D01*
X73045137Y-82739127D01*
X73135465Y-82768477D01*
X73236557Y-82784488D01*
X73337648Y-82800500D01*
X73337649Y-82800500D01*
X73542351Y-82800500D01*
X73542352Y-82800500D01*
X73744534Y-82768477D01*
X73939219Y-82705220D01*
X74121610Y-82612287D01*
X74214590Y-82544732D01*
X74287213Y-82491971D01*
X74287215Y-82491968D01*
X74287219Y-82491966D01*
X74431966Y-82347219D01*
X74431968Y-82347215D01*
X74431971Y-82347213D01*
X74484732Y-82274590D01*
X74552287Y-82181610D01*
X74645220Y-81999219D01*
X74708477Y-81804534D01*
X74740500Y-81602352D01*
X74740500Y-81397648D01*
X79759500Y-81397648D01*
X79759500Y-81602351D01*
X79791522Y-81804534D01*
X79854781Y-81999223D01*
X79947715Y-82181613D01*
X80068028Y-82347213D01*
X80212786Y-82491971D01*
X80367749Y-82604556D01*
X80378390Y-82612287D01*
X80494607Y-82671503D01*
X80560776Y-82705218D01*
X80560778Y-82705218D01*
X80560781Y-82705220D01*
X80665137Y-82739127D01*
X80755465Y-82768477D01*
X80856557Y-82784488D01*
X80957648Y-82800500D01*
X80957649Y-82800500D01*
X81162351Y-82800500D01*
X81162352Y-82800500D01*
X81364534Y-82768477D01*
X81559219Y-82705220D01*
X81741610Y-82612287D01*
X81834590Y-82544732D01*
X81907213Y-82491971D01*
X81907215Y-82491968D01*
X81907219Y-82491966D01*
X82051966Y-82347219D01*
X82051968Y-82347215D01*
X82051971Y-82347213D01*
X82104732Y-82274590D01*
X82172287Y-82181610D01*
X82265220Y-81999219D01*
X82328477Y-81804534D01*
X82360500Y-81602352D01*
X82360500Y-81397648D01*
X82328477Y-81195465D01*
X82291907Y-81082915D01*
X82265220Y-81000781D01*
X82265218Y-81000778D01*
X82265218Y-81000776D01*
X82213734Y-80899735D01*
X82172287Y-80818390D01*
X82157631Y-80798217D01*
X82051971Y-80652786D01*
X81907213Y-80508028D01*
X81741613Y-80387715D01*
X81741612Y-80387714D01*
X81741610Y-80387713D01*
X81684653Y-80358691D01*
X81559223Y-80294781D01*
X81364534Y-80231522D01*
X81189995Y-80203878D01*
X81162352Y-80199500D01*
X80957648Y-80199500D01*
X80933329Y-80203351D01*
X80755465Y-80231522D01*
X80560776Y-80294781D01*
X80378386Y-80387715D01*
X80212786Y-80508028D01*
X80068028Y-80652786D01*
X79947715Y-80818386D01*
X79854781Y-81000776D01*
X79791522Y-81195465D01*
X79759500Y-81397648D01*
X74740500Y-81397648D01*
X74708477Y-81195465D01*
X74671907Y-81082915D01*
X74645220Y-81000781D01*
X74645218Y-81000778D01*
X74645218Y-81000776D01*
X74593734Y-80899735D01*
X74552287Y-80818390D01*
X74537631Y-80798217D01*
X74431971Y-80652786D01*
X74287213Y-80508028D01*
X74121613Y-80387715D01*
X74121612Y-80387714D01*
X74121610Y-80387713D01*
X74064653Y-80358691D01*
X73939223Y-80294781D01*
X73744534Y-80231522D01*
X73569995Y-80203878D01*
X73542352Y-80199500D01*
X73337648Y-80199500D01*
X73313329Y-80203351D01*
X73135465Y-80231522D01*
X72940776Y-80294781D01*
X72758386Y-80387715D01*
X72592786Y-80508028D01*
X72448028Y-80652786D01*
X72327715Y-80818386D01*
X72234781Y-81000776D01*
X72171522Y-81195465D01*
X72139500Y-81397648D01*
X54986500Y-81397648D01*
X54986500Y-76868048D01*
X55839500Y-76868048D01*
X55839500Y-77631951D01*
X55866013Y-77833333D01*
X55871334Y-77873744D01*
X55934456Y-78109320D01*
X55934459Y-78109330D01*
X56027786Y-78334640D01*
X56027791Y-78334651D01*
X56149727Y-78545848D01*
X56149738Y-78545864D01*
X56298199Y-78739343D01*
X56298205Y-78739350D01*
X56470649Y-78911794D01*
X56470655Y-78911799D01*
X56664144Y-79060268D01*
X56664151Y-79060272D01*
X56875348Y-79182208D01*
X56875353Y-79182210D01*
X56875356Y-79182212D01*
X57100679Y-79275544D01*
X57336256Y-79338666D01*
X57578056Y-79370500D01*
X57578063Y-79370500D01*
X57821937Y-79370500D01*
X57821944Y-79370500D01*
X58063744Y-79338666D01*
X58299321Y-79275544D01*
X58524644Y-79182212D01*
X58735856Y-79060268D01*
X58929345Y-78911799D01*
X59101799Y-78739345D01*
X59250268Y-78545856D01*
X59372212Y-78334644D01*
X59465544Y-78109321D01*
X59528666Y-77873744D01*
X59560500Y-77631944D01*
X59560500Y-76868056D01*
X59560499Y-76868048D01*
X65439500Y-76868048D01*
X65439500Y-77631951D01*
X65466013Y-77833333D01*
X65471334Y-77873744D01*
X65534456Y-78109320D01*
X65534459Y-78109330D01*
X65627786Y-78334640D01*
X65627791Y-78334651D01*
X65749727Y-78545848D01*
X65749738Y-78545864D01*
X65898199Y-78739343D01*
X65898205Y-78739350D01*
X66070649Y-78911794D01*
X66070655Y-78911799D01*
X66264144Y-79060268D01*
X66264151Y-79060272D01*
X66475348Y-79182208D01*
X66475353Y-79182210D01*
X66475356Y-79182212D01*
X66700679Y-79275544D01*
X66936256Y-79338666D01*
X67178056Y-79370500D01*
X67178063Y-79370500D01*
X67421937Y-79370500D01*
X67421944Y-79370500D01*
X67663744Y-79338666D01*
X67899321Y-79275544D01*
X68124644Y-79182212D01*
X68335856Y-79060268D01*
X68529345Y-78911799D01*
X68543496Y-78897648D01*
X83889500Y-78897648D01*
X83889500Y-79102351D01*
X83921522Y-79304534D01*
X83984781Y-79499223D01*
X84077715Y-79681613D01*
X84198028Y-79847213D01*
X84342786Y-79991971D01*
X84497749Y-80104556D01*
X84508390Y-80112287D01*
X84624607Y-80171503D01*
X84690776Y-80205218D01*
X84690778Y-80205218D01*
X84690781Y-80205220D01*
X84795137Y-80239127D01*
X84885465Y-80268477D01*
X84986557Y-80284488D01*
X85087648Y-80300500D01*
X85087649Y-80300500D01*
X85292351Y-80300500D01*
X85292352Y-80300500D01*
X85494534Y-80268477D01*
X85689219Y-80205220D01*
X85871610Y-80112287D01*
X85964590Y-80044732D01*
X86037213Y-79991971D01*
X86037215Y-79991968D01*
X86037219Y-79991966D01*
X86181966Y-79847219D01*
X86181968Y-79847215D01*
X86181971Y-79847213D01*
X86244039Y-79761782D01*
X86302287Y-79681610D01*
X86395220Y-79499219D01*
X86458477Y-79304534D01*
X86490500Y-79102352D01*
X86490500Y-78897648D01*
X86458477Y-78695466D01*
X86433782Y-78619464D01*
X86395218Y-78500776D01*
X86310572Y-78334651D01*
X86302287Y-78318390D01*
X86294556Y-78307749D01*
X86181971Y-78152786D01*
X86037213Y-78008028D01*
X85871613Y-77887715D01*
X85871612Y-77887714D01*
X85871610Y-77887713D01*
X85814653Y-77858691D01*
X85689223Y-77794781D01*
X85494534Y-77731522D01*
X85319995Y-77703878D01*
X85292352Y-77699500D01*
X85087648Y-77699500D01*
X85063329Y-77703351D01*
X84885465Y-77731522D01*
X84690776Y-77794781D01*
X84508386Y-77887715D01*
X84342786Y-78008028D01*
X84198028Y-78152786D01*
X84077715Y-78318386D01*
X83984781Y-78500776D01*
X83921522Y-78695465D01*
X83889500Y-78897648D01*
X68543496Y-78897648D01*
X68546522Y-78894622D01*
X68636050Y-78805095D01*
X68701794Y-78739350D01*
X68701799Y-78739345D01*
X68850268Y-78545856D01*
X68972212Y-78334644D01*
X69065544Y-78109321D01*
X69128666Y-77873744D01*
X69160500Y-77631944D01*
X69160500Y-76868056D01*
X69128666Y-76626256D01*
X69067411Y-76397648D01*
X72139500Y-76397648D01*
X72139500Y-76602351D01*
X72171522Y-76804534D01*
X72234781Y-76999223D01*
X72327715Y-77181613D01*
X72448028Y-77347213D01*
X72592786Y-77491971D01*
X72689848Y-77562489D01*
X72758390Y-77612287D01*
X72874607Y-77671503D01*
X72940776Y-77705218D01*
X72940778Y-77705218D01*
X72940781Y-77705220D01*
X73045137Y-77739127D01*
X73135465Y-77768477D01*
X73236557Y-77784488D01*
X73337648Y-77800500D01*
X73337649Y-77800500D01*
X73542351Y-77800500D01*
X73542352Y-77800500D01*
X73744534Y-77768477D01*
X73939219Y-77705220D01*
X74121610Y-77612287D01*
X74262831Y-77509685D01*
X74287213Y-77491971D01*
X74287215Y-77491968D01*
X74287219Y-77491966D01*
X74431966Y-77347219D01*
X74431968Y-77347215D01*
X74431971Y-77347213D01*
X74485108Y-77274075D01*
X74552287Y-77181610D01*
X74645220Y-76999219D01*
X74708477Y-76804534D01*
X74740500Y-76602352D01*
X74740500Y-76397648D01*
X79759500Y-76397648D01*
X79759500Y-76602351D01*
X79791522Y-76804534D01*
X79854781Y-76999223D01*
X79947715Y-77181613D01*
X80068028Y-77347213D01*
X80212786Y-77491971D01*
X80309848Y-77562489D01*
X80378390Y-77612287D01*
X80494607Y-77671503D01*
X80560776Y-77705218D01*
X80560778Y-77705218D01*
X80560781Y-77705220D01*
X80665137Y-77739127D01*
X80755465Y-77768477D01*
X80856557Y-77784488D01*
X80957648Y-77800500D01*
X80957649Y-77800500D01*
X81162351Y-77800500D01*
X81162352Y-77800500D01*
X81364534Y-77768477D01*
X81559219Y-77705220D01*
X81741610Y-77612287D01*
X81882831Y-77509685D01*
X81907213Y-77491971D01*
X81907215Y-77491968D01*
X81907219Y-77491966D01*
X82051966Y-77347219D01*
X82051968Y-77347215D01*
X82051971Y-77347213D01*
X82105108Y-77274075D01*
X82172287Y-77181610D01*
X82265220Y-76999219D01*
X82328477Y-76804534D01*
X82360500Y-76602352D01*
X82360500Y-76397648D01*
X82328477Y-76195466D01*
X82265220Y-76000781D01*
X82265218Y-76000778D01*
X82265218Y-76000776D01*
X82231503Y-75934607D01*
X82172287Y-75818390D01*
X82164556Y-75807749D01*
X82051971Y-75652786D01*
X81907213Y-75508028D01*
X81741613Y-75387715D01*
X81741612Y-75387714D01*
X81741610Y-75387713D01*
X81684653Y-75358691D01*
X81559223Y-75294781D01*
X81364534Y-75231522D01*
X81189995Y-75203878D01*
X81162352Y-75199500D01*
X80957648Y-75199500D01*
X80933329Y-75203351D01*
X80755465Y-75231522D01*
X80560776Y-75294781D01*
X80378386Y-75387715D01*
X80212786Y-75508028D01*
X80068028Y-75652786D01*
X79947715Y-75818386D01*
X79854781Y-76000776D01*
X79791522Y-76195465D01*
X79759500Y-76397648D01*
X74740500Y-76397648D01*
X74708477Y-76195466D01*
X74645220Y-76000781D01*
X74645218Y-76000778D01*
X74645218Y-76000776D01*
X74611503Y-75934607D01*
X74552287Y-75818390D01*
X74544556Y-75807749D01*
X74431971Y-75652786D01*
X74287213Y-75508028D01*
X74121613Y-75387715D01*
X74121612Y-75387714D01*
X74121610Y-75387713D01*
X74064653Y-75358691D01*
X73939223Y-75294781D01*
X73744534Y-75231522D01*
X73569995Y-75203878D01*
X73542352Y-75199500D01*
X73337648Y-75199500D01*
X73313329Y-75203351D01*
X73135465Y-75231522D01*
X72940776Y-75294781D01*
X72758386Y-75387715D01*
X72592786Y-75508028D01*
X72448028Y-75652786D01*
X72327715Y-75818386D01*
X72234781Y-76000776D01*
X72171522Y-76195465D01*
X72139500Y-76397648D01*
X69067411Y-76397648D01*
X69065544Y-76390679D01*
X68972212Y-76165356D01*
X68972210Y-76165353D01*
X68972208Y-76165348D01*
X68850272Y-75954151D01*
X68850268Y-75954144D01*
X68746101Y-75818390D01*
X68701800Y-75760656D01*
X68701794Y-75760649D01*
X68529350Y-75588205D01*
X68529343Y-75588199D01*
X68335864Y-75439738D01*
X68335862Y-75439736D01*
X68335856Y-75439732D01*
X68335851Y-75439729D01*
X68335848Y-75439727D01*
X68124651Y-75317791D01*
X68124640Y-75317786D01*
X67899330Y-75224459D01*
X67899323Y-75224457D01*
X67899321Y-75224456D01*
X67663744Y-75161334D01*
X67623333Y-75156013D01*
X67421951Y-75129500D01*
X67421944Y-75129500D01*
X67178056Y-75129500D01*
X67178048Y-75129500D01*
X66947896Y-75159801D01*
X66936256Y-75161334D01*
X66793817Y-75199500D01*
X66700679Y-75224456D01*
X66700669Y-75224459D01*
X66475359Y-75317786D01*
X66475348Y-75317791D01*
X66264151Y-75439727D01*
X66264135Y-75439738D01*
X66070656Y-75588199D01*
X66070649Y-75588205D01*
X65898205Y-75760649D01*
X65898199Y-75760656D01*
X65749738Y-75954135D01*
X65749727Y-75954151D01*
X65627791Y-76165348D01*
X65627786Y-76165359D01*
X65534459Y-76390669D01*
X65534456Y-76390679D01*
X65471335Y-76626253D01*
X65471333Y-76626264D01*
X65439500Y-76868048D01*
X59560499Y-76868048D01*
X59528666Y-76626256D01*
X59465544Y-76390679D01*
X59372212Y-76165356D01*
X59372210Y-76165353D01*
X59372208Y-76165348D01*
X59250272Y-75954151D01*
X59250268Y-75954144D01*
X59146101Y-75818390D01*
X59101800Y-75760656D01*
X59101794Y-75760649D01*
X58929350Y-75588205D01*
X58929343Y-75588199D01*
X58735864Y-75439738D01*
X58735862Y-75439736D01*
X58735856Y-75439732D01*
X58735851Y-75439729D01*
X58735848Y-75439727D01*
X58524651Y-75317791D01*
X58524640Y-75317786D01*
X58299330Y-75224459D01*
X58299323Y-75224457D01*
X58299321Y-75224456D01*
X58063744Y-75161334D01*
X58023333Y-75156013D01*
X57821951Y-75129500D01*
X57821944Y-75129500D01*
X57578056Y-75129500D01*
X57578048Y-75129500D01*
X57347896Y-75159801D01*
X57336256Y-75161334D01*
X57193817Y-75199500D01*
X57100679Y-75224456D01*
X57100669Y-75224459D01*
X56875359Y-75317786D01*
X56875348Y-75317791D01*
X56664151Y-75439727D01*
X56664135Y-75439738D01*
X56470656Y-75588199D01*
X56470649Y-75588205D01*
X56298205Y-75760649D01*
X56298199Y-75760656D01*
X56149738Y-75954135D01*
X56149727Y-75954151D01*
X56027791Y-76165348D01*
X56027786Y-76165359D01*
X55934459Y-76390669D01*
X55934456Y-76390679D01*
X55871335Y-76626253D01*
X55871333Y-76626264D01*
X55839500Y-76868048D01*
X54986500Y-76868048D01*
X54986500Y-64397648D01*
X57889500Y-64397648D01*
X57889500Y-64602351D01*
X57921522Y-64804534D01*
X57984781Y-64999223D01*
X58077715Y-65181613D01*
X58198028Y-65347213D01*
X58342786Y-65491971D01*
X58482298Y-65593330D01*
X58508390Y-65612287D01*
X58624607Y-65671503D01*
X58690776Y-65705218D01*
X58690778Y-65705218D01*
X58690781Y-65705220D01*
X58795137Y-65739127D01*
X58885465Y-65768477D01*
X58986557Y-65784488D01*
X59087648Y-65800500D01*
X59087649Y-65800500D01*
X59292351Y-65800500D01*
X59292352Y-65800500D01*
X59494534Y-65768477D01*
X59689219Y-65705220D01*
X59871610Y-65612287D01*
X60006626Y-65514193D01*
X60037213Y-65491971D01*
X60037215Y-65491968D01*
X60037219Y-65491966D01*
X60181966Y-65347219D01*
X60181968Y-65347215D01*
X60181971Y-65347213D01*
X60234732Y-65274590D01*
X60302287Y-65181610D01*
X60395220Y-64999219D01*
X60458477Y-64804534D01*
X60490500Y-64602352D01*
X60490500Y-64397648D01*
X65509500Y-64397648D01*
X65509500Y-64602351D01*
X65541522Y-64804534D01*
X65604781Y-64999223D01*
X65697715Y-65181613D01*
X65818028Y-65347213D01*
X65962786Y-65491971D01*
X66102298Y-65593330D01*
X66128390Y-65612287D01*
X66244607Y-65671503D01*
X66310776Y-65705218D01*
X66310778Y-65705218D01*
X66310781Y-65705220D01*
X66415137Y-65739127D01*
X66505465Y-65768477D01*
X66606557Y-65784488D01*
X66707648Y-65800500D01*
X66707649Y-65800500D01*
X66912351Y-65800500D01*
X66912352Y-65800500D01*
X67114534Y-65768477D01*
X67128842Y-65763827D01*
X67198682Y-65761831D01*
X67254841Y-65794076D01*
X70691284Y-69230520D01*
X70691286Y-69230521D01*
X70691290Y-69230524D01*
X70828209Y-69309573D01*
X70828216Y-69309577D01*
X70980943Y-69350501D01*
X70980945Y-69350501D01*
X71146654Y-69350501D01*
X71146670Y-69350500D01*
X79689208Y-69350500D01*
X79756247Y-69370185D01*
X79789524Y-69401612D01*
X79884310Y-69532073D01*
X79884312Y-69532075D01*
X80014909Y-69662672D01*
X80048394Y-69723995D01*
X80043410Y-69793687D01*
X80014909Y-69838034D01*
X79884689Y-69968253D01*
X79884685Y-69968258D01*
X79773670Y-70121059D01*
X79687914Y-70289362D01*
X79629548Y-70468997D01*
X79624638Y-70500000D01*
X80624722Y-70500000D01*
X80580667Y-70576306D01*
X80550000Y-70690756D01*
X80550000Y-70809244D01*
X80580667Y-70923694D01*
X80624722Y-71000000D01*
X79624638Y-71000000D01*
X79629548Y-71031002D01*
X79687914Y-71210637D01*
X79773670Y-71378940D01*
X79838358Y-71467977D01*
X79861838Y-71533784D01*
X79846012Y-71601837D01*
X79812352Y-71640128D01*
X79742452Y-71692455D01*
X79656206Y-71807664D01*
X79656202Y-71807671D01*
X79605908Y-71942517D01*
X79599501Y-72002116D01*
X79599501Y-72002123D01*
X79599500Y-72002135D01*
X79599500Y-73497870D01*
X79599501Y-73497876D01*
X79605908Y-73557483D01*
X79656202Y-73692328D01*
X79656206Y-73692335D01*
X79742452Y-73807544D01*
X79742455Y-73807547D01*
X79857664Y-73893793D01*
X79857671Y-73893797D01*
X79992517Y-73944091D01*
X79992516Y-73944091D01*
X79999444Y-73944835D01*
X80052127Y-73950500D01*
X81947872Y-73950499D01*
X82007483Y-73944091D01*
X82142331Y-73893796D01*
X82257546Y-73807546D01*
X82343796Y-73692331D01*
X82394091Y-73557483D01*
X82400500Y-73497873D01*
X82400499Y-72002128D01*
X82394091Y-71942517D01*
X82343796Y-71807669D01*
X82343795Y-71807668D01*
X82343793Y-71807664D01*
X82257547Y-71692455D01*
X82187647Y-71640127D01*
X82145777Y-71584193D01*
X82140793Y-71514501D01*
X82161641Y-71467975D01*
X82226331Y-71378937D01*
X82312085Y-71210637D01*
X82370451Y-71031002D01*
X82375362Y-71000000D01*
X81375278Y-71000000D01*
X81419333Y-70923694D01*
X81450000Y-70809244D01*
X81450000Y-70690756D01*
X81419333Y-70576306D01*
X81375278Y-70500000D01*
X82375362Y-70500000D01*
X82370451Y-70468997D01*
X82312085Y-70289362D01*
X82226329Y-70121059D01*
X82115314Y-69968258D01*
X82115310Y-69968253D01*
X81985091Y-69838034D01*
X81951606Y-69776711D01*
X81956590Y-69707019D01*
X81985091Y-69662672D01*
X82046181Y-69601582D01*
X82115690Y-69532073D01*
X82226760Y-69379199D01*
X82312547Y-69210832D01*
X82338070Y-69132279D01*
X82377508Y-69074604D01*
X82441866Y-69047406D01*
X82510713Y-69059321D01*
X82543677Y-69082913D01*
X82691284Y-69230520D01*
X82691286Y-69230521D01*
X82691287Y-69230522D01*
X82691290Y-69230524D01*
X82828209Y-69309573D01*
X82828216Y-69309577D01*
X82980943Y-69350501D01*
X82980945Y-69350501D01*
X83146654Y-69350501D01*
X83146670Y-69350500D01*
X86189208Y-69350500D01*
X86256247Y-69370185D01*
X86289524Y-69401612D01*
X86384310Y-69532073D01*
X86384312Y-69532075D01*
X86514909Y-69662672D01*
X86548394Y-69723995D01*
X86543410Y-69793687D01*
X86514909Y-69838034D01*
X86384689Y-69968253D01*
X86384685Y-69968258D01*
X86273670Y-70121059D01*
X86187914Y-70289362D01*
X86129548Y-70468997D01*
X86124638Y-70500000D01*
X87124722Y-70500000D01*
X87080667Y-70576306D01*
X87050000Y-70690756D01*
X87050000Y-70809244D01*
X87080667Y-70923694D01*
X87124722Y-71000000D01*
X86124638Y-71000000D01*
X86129548Y-71031002D01*
X86187914Y-71210637D01*
X86273670Y-71378940D01*
X86338358Y-71467977D01*
X86361838Y-71533784D01*
X86346012Y-71601837D01*
X86312352Y-71640128D01*
X86242452Y-71692455D01*
X86156206Y-71807664D01*
X86156202Y-71807671D01*
X86105908Y-71942517D01*
X86099501Y-72002116D01*
X86099501Y-72002123D01*
X86099500Y-72002135D01*
X86099500Y-73497870D01*
X86099501Y-73497876D01*
X86105908Y-73557483D01*
X86156202Y-73692328D01*
X86156206Y-73692335D01*
X86242452Y-73807544D01*
X86242455Y-73807547D01*
X86357664Y-73893793D01*
X86357671Y-73893797D01*
X86492517Y-73944091D01*
X86492516Y-73944091D01*
X86499444Y-73944835D01*
X86552127Y-73950500D01*
X88447872Y-73950499D01*
X88507483Y-73944091D01*
X88642331Y-73893796D01*
X88757546Y-73807546D01*
X88843796Y-73692331D01*
X88894091Y-73557483D01*
X88900500Y-73497873D01*
X88900499Y-72002128D01*
X88894091Y-71942517D01*
X88843796Y-71807669D01*
X88843795Y-71807668D01*
X88843793Y-71807664D01*
X88757547Y-71692455D01*
X88687647Y-71640127D01*
X88645777Y-71584193D01*
X88640793Y-71514501D01*
X88661641Y-71467975D01*
X88726331Y-71378937D01*
X88812085Y-71210637D01*
X88870451Y-71031002D01*
X88875362Y-71000000D01*
X87875278Y-71000000D01*
X87919333Y-70923694D01*
X87950000Y-70809244D01*
X87950000Y-70690756D01*
X87919333Y-70576306D01*
X87875278Y-70500000D01*
X88875362Y-70500000D01*
X88870451Y-70468997D01*
X88812085Y-70289362D01*
X88726329Y-70121059D01*
X88615314Y-69968258D01*
X88615310Y-69968253D01*
X88485091Y-69838034D01*
X88451606Y-69776711D01*
X88456590Y-69707019D01*
X88485091Y-69662672D01*
X88546181Y-69601582D01*
X88615690Y-69532073D01*
X88726760Y-69379199D01*
X88812547Y-69210832D01*
X88870940Y-69031118D01*
X88882127Y-68960484D01*
X88900500Y-68844486D01*
X88900500Y-68655513D01*
X88870940Y-68468881D01*
X88812545Y-68289163D01*
X88741383Y-68149500D01*
X88726760Y-68120801D01*
X88615690Y-67967927D01*
X88482073Y-67834310D01*
X88329199Y-67723240D01*
X88320452Y-67718783D01*
X88160836Y-67637454D01*
X87981118Y-67579059D01*
X87794486Y-67549500D01*
X87794481Y-67549500D01*
X87205519Y-67549500D01*
X87205514Y-67549500D01*
X87018881Y-67579059D01*
X86839163Y-67637454D01*
X86670800Y-67723240D01*
X86583579Y-67786610D01*
X86517927Y-67834310D01*
X86517925Y-67834312D01*
X86517924Y-67834312D01*
X86384312Y-67967924D01*
X86384312Y-67967925D01*
X86384310Y-67967927D01*
X86364616Y-67995034D01*
X86289526Y-68098386D01*
X86234196Y-68141051D01*
X86189208Y-68149500D01*
X83360098Y-68149500D01*
X83293059Y-68129815D01*
X83272417Y-68113181D01*
X80104077Y-64944842D01*
X80070592Y-64883519D01*
X80073828Y-64818841D01*
X80078477Y-64804534D01*
X80110500Y-64602352D01*
X80110500Y-64397648D01*
X81889500Y-64397648D01*
X81889500Y-64602351D01*
X81921522Y-64804534D01*
X81984781Y-64999223D01*
X82077715Y-65181613D01*
X82198028Y-65347213D01*
X82342786Y-65491971D01*
X82482298Y-65593330D01*
X82508390Y-65612287D01*
X82624607Y-65671503D01*
X82690776Y-65705218D01*
X82690778Y-65705218D01*
X82690781Y-65705220D01*
X82795137Y-65739127D01*
X82885465Y-65768477D01*
X82986557Y-65784488D01*
X83087648Y-65800500D01*
X83087649Y-65800500D01*
X83292351Y-65800500D01*
X83292352Y-65800500D01*
X83494534Y-65768477D01*
X83689219Y-65705220D01*
X83871610Y-65612287D01*
X84006626Y-65514193D01*
X84037213Y-65491971D01*
X84037215Y-65491968D01*
X84037219Y-65491966D01*
X84181966Y-65347219D01*
X84181968Y-65347215D01*
X84181971Y-65347213D01*
X84234732Y-65274590D01*
X84302287Y-65181610D01*
X84395220Y-64999219D01*
X84458477Y-64804534D01*
X84490500Y-64602352D01*
X84490500Y-64397648D01*
X89509500Y-64397648D01*
X89509500Y-64602351D01*
X89541522Y-64804534D01*
X89604781Y-64999223D01*
X89697715Y-65181613D01*
X89818028Y-65347213D01*
X89962786Y-65491971D01*
X90102298Y-65593330D01*
X90128390Y-65612287D01*
X90244607Y-65671503D01*
X90310776Y-65705218D01*
X90310778Y-65705218D01*
X90310781Y-65705220D01*
X90415137Y-65739127D01*
X90505465Y-65768477D01*
X90606557Y-65784488D01*
X90707648Y-65800500D01*
X90707649Y-65800500D01*
X90912351Y-65800500D01*
X90912352Y-65800500D01*
X91114534Y-65768477D01*
X91128842Y-65763827D01*
X91198682Y-65761831D01*
X91254842Y-65794077D01*
X93075787Y-67615022D01*
X93109272Y-67676345D01*
X93104288Y-67746037D01*
X93062416Y-67801970D01*
X93060993Y-67803020D01*
X93017927Y-67834309D01*
X92884312Y-67967924D01*
X92884312Y-67967925D01*
X92884310Y-67967927D01*
X92864616Y-67995034D01*
X92773240Y-68120800D01*
X92687454Y-68289163D01*
X92629059Y-68468881D01*
X92599500Y-68655513D01*
X92599500Y-68844486D01*
X92629059Y-69031118D01*
X92687454Y-69210836D01*
X92737765Y-69309576D01*
X92773240Y-69379199D01*
X92884310Y-69532073D01*
X92884312Y-69532075D01*
X93014909Y-69662672D01*
X93048394Y-69723995D01*
X93043410Y-69793687D01*
X93014909Y-69838034D01*
X92884689Y-69968253D01*
X92884685Y-69968258D01*
X92773670Y-70121059D01*
X92687914Y-70289362D01*
X92629548Y-70468997D01*
X92624638Y-70500000D01*
X93624722Y-70500000D01*
X93580667Y-70576306D01*
X93550000Y-70690756D01*
X93550000Y-70809244D01*
X93580667Y-70923694D01*
X93624722Y-71000000D01*
X92624638Y-71000000D01*
X92629548Y-71031002D01*
X92687914Y-71210637D01*
X92773670Y-71378940D01*
X92838358Y-71467977D01*
X92861838Y-71533784D01*
X92846012Y-71601837D01*
X92812352Y-71640128D01*
X92742452Y-71692455D01*
X92656206Y-71807664D01*
X92656202Y-71807671D01*
X92605908Y-71942517D01*
X92599501Y-72002116D01*
X92599501Y-72002123D01*
X92599500Y-72002135D01*
X92599500Y-73497870D01*
X92599501Y-73497876D01*
X92605908Y-73557483D01*
X92656202Y-73692328D01*
X92656206Y-73692335D01*
X92742452Y-73807544D01*
X92742455Y-73807547D01*
X92857664Y-73893793D01*
X92857671Y-73893797D01*
X92992517Y-73944091D01*
X92992516Y-73944091D01*
X92999444Y-73944835D01*
X93052127Y-73950500D01*
X94947872Y-73950499D01*
X95007483Y-73944091D01*
X95142331Y-73893796D01*
X95257546Y-73807546D01*
X95343796Y-73692331D01*
X95394091Y-73557483D01*
X95400500Y-73497873D01*
X95400499Y-72002128D01*
X95394091Y-71942517D01*
X95343796Y-71807669D01*
X95343795Y-71807668D01*
X95343793Y-71807664D01*
X95257547Y-71692455D01*
X95187647Y-71640127D01*
X95145777Y-71584193D01*
X95140793Y-71514501D01*
X95161641Y-71467975D01*
X95226331Y-71378937D01*
X95312085Y-71210637D01*
X95370451Y-71031002D01*
X95375362Y-71000000D01*
X94375278Y-71000000D01*
X94419333Y-70923694D01*
X94450000Y-70809244D01*
X94450000Y-70690756D01*
X94419333Y-70576306D01*
X94375278Y-70500000D01*
X95375362Y-70500000D01*
X95370451Y-70468997D01*
X95312085Y-70289362D01*
X95226329Y-70121059D01*
X95115314Y-69968258D01*
X95115310Y-69968253D01*
X94985091Y-69838034D01*
X94951606Y-69776711D01*
X94956590Y-69707019D01*
X94985091Y-69662672D01*
X95046181Y-69601582D01*
X95115690Y-69532073D01*
X95226760Y-69379199D01*
X95312547Y-69210832D01*
X95370940Y-69031118D01*
X95382127Y-68960484D01*
X95400500Y-68844486D01*
X95400500Y-68655513D01*
X95370940Y-68468881D01*
X95312545Y-68289163D01*
X95241383Y-68149500D01*
X95226760Y-68120801D01*
X95115690Y-67967927D01*
X94982073Y-67834310D01*
X94905636Y-67778775D01*
X94829197Y-67723238D01*
X94660828Y-67637451D01*
X94657441Y-67636048D01*
X94632238Y-67615734D01*
X94606183Y-67596524D01*
X94604731Y-67593562D01*
X94603042Y-67592201D01*
X94589043Y-67565671D01*
X94586778Y-67559733D01*
X94584037Y-67549500D01*
X94559577Y-67458215D01*
X94530639Y-67408095D01*
X94480520Y-67321284D01*
X94368716Y-67209480D01*
X94368715Y-67209479D01*
X94364385Y-67205149D01*
X94364374Y-67205139D01*
X92104077Y-64944842D01*
X92070592Y-64883519D01*
X92073828Y-64818841D01*
X92078477Y-64804534D01*
X92110500Y-64602352D01*
X92110500Y-64397648D01*
X92078477Y-64195466D01*
X92015220Y-64000781D01*
X92015218Y-64000778D01*
X92015218Y-64000776D01*
X91981503Y-63934607D01*
X91922287Y-63818390D01*
X91904419Y-63793796D01*
X91801971Y-63652786D01*
X91657213Y-63508028D01*
X91491613Y-63387715D01*
X91491612Y-63387714D01*
X91491610Y-63387713D01*
X91434653Y-63358691D01*
X91309223Y-63294781D01*
X91114534Y-63231522D01*
X90939995Y-63203878D01*
X90912352Y-63199500D01*
X90707648Y-63199500D01*
X90683329Y-63203351D01*
X90505465Y-63231522D01*
X90310776Y-63294781D01*
X90128386Y-63387715D01*
X89962786Y-63508028D01*
X89818028Y-63652786D01*
X89697715Y-63818386D01*
X89604781Y-64000776D01*
X89541522Y-64195465D01*
X89509500Y-64397648D01*
X84490500Y-64397648D01*
X84458477Y-64195466D01*
X84395220Y-64000781D01*
X84395218Y-64000778D01*
X84395218Y-64000776D01*
X84361503Y-63934607D01*
X84302287Y-63818390D01*
X84284419Y-63793796D01*
X84181971Y-63652786D01*
X84037213Y-63508028D01*
X83871613Y-63387715D01*
X83871612Y-63387714D01*
X83871610Y-63387713D01*
X83814653Y-63358691D01*
X83689223Y-63294781D01*
X83494534Y-63231522D01*
X83319995Y-63203878D01*
X83292352Y-63199500D01*
X83087648Y-63199500D01*
X83063329Y-63203351D01*
X82885465Y-63231522D01*
X82690776Y-63294781D01*
X82508386Y-63387715D01*
X82342786Y-63508028D01*
X82198028Y-63652786D01*
X82077715Y-63818386D01*
X81984781Y-64000776D01*
X81921522Y-64195465D01*
X81889500Y-64397648D01*
X80110500Y-64397648D01*
X80078477Y-64195466D01*
X80015220Y-64000781D01*
X80015218Y-64000778D01*
X80015218Y-64000776D01*
X79981503Y-63934607D01*
X79922287Y-63818390D01*
X79904419Y-63793796D01*
X79801971Y-63652786D01*
X79657213Y-63508028D01*
X79491613Y-63387715D01*
X79491612Y-63387714D01*
X79491610Y-63387713D01*
X79434653Y-63358691D01*
X79309223Y-63294781D01*
X79114534Y-63231522D01*
X78939995Y-63203878D01*
X78912352Y-63199500D01*
X78707648Y-63199500D01*
X78683329Y-63203351D01*
X78505465Y-63231522D01*
X78310776Y-63294781D01*
X78128386Y-63387715D01*
X77962786Y-63508028D01*
X77818028Y-63652786D01*
X77697715Y-63818386D01*
X77604781Y-64000776D01*
X77541522Y-64195465D01*
X77509500Y-64397648D01*
X77509500Y-64602351D01*
X77541522Y-64804534D01*
X77604781Y-64999223D01*
X77697715Y-65181613D01*
X77818028Y-65347213D01*
X77962786Y-65491971D01*
X78102298Y-65593330D01*
X78128390Y-65612287D01*
X78244607Y-65671503D01*
X78310776Y-65705218D01*
X78310778Y-65705218D01*
X78310781Y-65705220D01*
X78415137Y-65739127D01*
X78505465Y-65768477D01*
X78606557Y-65784488D01*
X78707648Y-65800500D01*
X78707649Y-65800500D01*
X78912351Y-65800500D01*
X78912352Y-65800500D01*
X79114534Y-65768477D01*
X79128842Y-65763827D01*
X79198682Y-65761831D01*
X79254842Y-65794077D01*
X80798583Y-67337819D01*
X80832068Y-67399142D01*
X80827084Y-67468834D01*
X80785212Y-67524767D01*
X80719748Y-67549184D01*
X80710902Y-67549500D01*
X80705514Y-67549500D01*
X80518881Y-67579059D01*
X80339163Y-67637454D01*
X80170800Y-67723240D01*
X80083579Y-67786610D01*
X80017927Y-67834310D01*
X80017925Y-67834312D01*
X80017924Y-67834312D01*
X79884312Y-67967924D01*
X79884312Y-67967925D01*
X79884310Y-67967927D01*
X79864616Y-67995034D01*
X79789526Y-68098386D01*
X79734196Y-68141051D01*
X79689208Y-68149500D01*
X71360098Y-68149500D01*
X71293059Y-68129815D01*
X71272417Y-68113181D01*
X68104077Y-64944842D01*
X68070592Y-64883519D01*
X68073828Y-64818841D01*
X68078477Y-64804534D01*
X68110500Y-64602352D01*
X68110500Y-64397648D01*
X69889500Y-64397648D01*
X69889500Y-64602351D01*
X69921522Y-64804534D01*
X69984781Y-64999223D01*
X70077715Y-65181613D01*
X70198028Y-65347213D01*
X70342786Y-65491971D01*
X70482298Y-65593330D01*
X70508390Y-65612287D01*
X70624607Y-65671503D01*
X70690776Y-65705218D01*
X70690778Y-65705218D01*
X70690781Y-65705220D01*
X70795137Y-65739127D01*
X70885465Y-65768477D01*
X70986557Y-65784488D01*
X71087648Y-65800500D01*
X71087649Y-65800500D01*
X71292351Y-65800500D01*
X71292352Y-65800500D01*
X71494534Y-65768477D01*
X71689219Y-65705220D01*
X71871610Y-65612287D01*
X72006626Y-65514193D01*
X72037213Y-65491971D01*
X72037215Y-65491968D01*
X72037219Y-65491966D01*
X72181966Y-65347219D01*
X72181968Y-65347215D01*
X72181971Y-65347213D01*
X72234732Y-65274590D01*
X72302287Y-65181610D01*
X72395220Y-64999219D01*
X72458477Y-64804534D01*
X72490500Y-64602352D01*
X72490500Y-64397648D01*
X72458477Y-64195466D01*
X72395220Y-64000781D01*
X72395218Y-64000778D01*
X72395218Y-64000776D01*
X72361503Y-63934607D01*
X72302287Y-63818390D01*
X72284419Y-63793796D01*
X72181971Y-63652786D01*
X72037213Y-63508028D01*
X71871613Y-63387715D01*
X71871612Y-63387714D01*
X71871610Y-63387713D01*
X71814653Y-63358691D01*
X71689223Y-63294781D01*
X71494534Y-63231522D01*
X71319995Y-63203878D01*
X71292352Y-63199500D01*
X71087648Y-63199500D01*
X71063329Y-63203351D01*
X70885465Y-63231522D01*
X70690776Y-63294781D01*
X70508386Y-63387715D01*
X70342786Y-63508028D01*
X70198028Y-63652786D01*
X70077715Y-63818386D01*
X69984781Y-64000776D01*
X69921522Y-64195465D01*
X69889500Y-64397648D01*
X68110500Y-64397648D01*
X68078477Y-64195466D01*
X68015220Y-64000781D01*
X68015218Y-64000778D01*
X68015218Y-64000776D01*
X67981503Y-63934607D01*
X67922287Y-63818390D01*
X67904419Y-63793796D01*
X67801971Y-63652786D01*
X67657213Y-63508028D01*
X67491613Y-63387715D01*
X67491612Y-63387714D01*
X67491610Y-63387713D01*
X67434653Y-63358691D01*
X67309223Y-63294781D01*
X67114534Y-63231522D01*
X66939995Y-63203878D01*
X66912352Y-63199500D01*
X66707648Y-63199500D01*
X66683329Y-63203351D01*
X66505465Y-63231522D01*
X66310776Y-63294781D01*
X66128386Y-63387715D01*
X65962786Y-63508028D01*
X65818028Y-63652786D01*
X65697715Y-63818386D01*
X65604781Y-64000776D01*
X65541522Y-64195465D01*
X65509500Y-64397648D01*
X60490500Y-64397648D01*
X60458477Y-64195466D01*
X60395220Y-64000781D01*
X60395218Y-64000778D01*
X60395218Y-64000776D01*
X60361503Y-63934607D01*
X60302287Y-63818390D01*
X60284419Y-63793796D01*
X60181971Y-63652786D01*
X60037213Y-63508028D01*
X59871613Y-63387715D01*
X59871612Y-63387714D01*
X59871610Y-63387713D01*
X59814653Y-63358691D01*
X59689223Y-63294781D01*
X59494534Y-63231522D01*
X59319995Y-63203878D01*
X59292352Y-63199500D01*
X59087648Y-63199500D01*
X59063329Y-63203351D01*
X58885465Y-63231522D01*
X58690776Y-63294781D01*
X58508386Y-63387715D01*
X58342786Y-63508028D01*
X58198028Y-63652786D01*
X58077715Y-63818386D01*
X57984781Y-64000776D01*
X57921522Y-64195465D01*
X57889500Y-64397648D01*
X54986500Y-64397648D01*
X54986500Y-58473908D01*
X55006185Y-58406869D01*
X55058989Y-58361114D01*
X55128147Y-58351170D01*
X55172495Y-58366519D01*
X55244627Y-58408164D01*
X55244635Y-58408167D01*
X55244638Y-58408169D01*
X55343825Y-58449253D01*
X55474793Y-58503502D01*
X55715435Y-58567982D01*
X55962435Y-58600500D01*
X55962442Y-58600500D01*
X56211558Y-58600500D01*
X56211565Y-58600500D01*
X56458565Y-58567982D01*
X56699207Y-58503502D01*
X56929373Y-58408164D01*
X57145127Y-58283599D01*
X57342776Y-58131938D01*
X57518938Y-57955776D01*
X57670599Y-57758127D01*
X57795164Y-57542373D01*
X57890502Y-57312207D01*
X57954982Y-57071565D01*
X57987500Y-56824565D01*
X57987500Y-56575441D01*
X59012500Y-56575441D01*
X59012500Y-56824558D01*
X59012501Y-56824575D01*
X59045017Y-57071561D01*
X59109498Y-57312207D01*
X59204830Y-57542361D01*
X59204837Y-57542376D01*
X59329400Y-57758126D01*
X59481060Y-57955774D01*
X59481066Y-57955781D01*
X59657218Y-58131933D01*
X59657225Y-58131939D01*
X59854873Y-58283599D01*
X60070623Y-58408162D01*
X60070638Y-58408169D01*
X60169825Y-58449253D01*
X60300793Y-58503502D01*
X60541435Y-58567982D01*
X60788435Y-58600500D01*
X60788442Y-58600500D01*
X61037558Y-58600500D01*
X61037565Y-58600500D01*
X61284565Y-58567982D01*
X61525207Y-58503502D01*
X61755373Y-58408164D01*
X61971127Y-58283599D01*
X62168776Y-58131938D01*
X62344938Y-57955776D01*
X62496599Y-57758127D01*
X62621164Y-57542373D01*
X62716502Y-57312207D01*
X62780982Y-57071565D01*
X62813500Y-56824565D01*
X62813500Y-56575435D01*
X62780982Y-56328435D01*
X62716502Y-56087793D01*
X62621164Y-55857627D01*
X62555148Y-55743284D01*
X62496599Y-55641873D01*
X62344939Y-55444225D01*
X62344933Y-55444218D01*
X62168781Y-55268066D01*
X62168774Y-55268060D01*
X61971126Y-55116400D01*
X61755376Y-54991837D01*
X61755361Y-54991830D01*
X61525207Y-54896498D01*
X61284561Y-54832017D01*
X61037575Y-54799501D01*
X61037570Y-54799500D01*
X61037565Y-54799500D01*
X60788435Y-54799500D01*
X60788429Y-54799500D01*
X60788424Y-54799501D01*
X60541438Y-54832017D01*
X60300792Y-54896498D01*
X60070638Y-54991830D01*
X60070623Y-54991837D01*
X59854873Y-55116400D01*
X59657225Y-55268060D01*
X59657218Y-55268066D01*
X59481066Y-55444218D01*
X59481060Y-55444225D01*
X59329400Y-55641873D01*
X59204837Y-55857623D01*
X59204830Y-55857638D01*
X59109498Y-56087792D01*
X59045017Y-56328438D01*
X59012501Y-56575424D01*
X59012500Y-56575441D01*
X57987500Y-56575441D01*
X57987500Y-56575435D01*
X57954982Y-56328435D01*
X57890502Y-56087793D01*
X57795164Y-55857627D01*
X57729148Y-55743284D01*
X57670599Y-55641873D01*
X57518939Y-55444225D01*
X57518933Y-55444218D01*
X57342781Y-55268066D01*
X57342774Y-55268060D01*
X57145126Y-55116400D01*
X56929376Y-54991837D01*
X56929361Y-54991830D01*
X56699207Y-54896498D01*
X56458561Y-54832017D01*
X56211575Y-54799501D01*
X56211570Y-54799500D01*
X56211565Y-54799500D01*
X55962435Y-54799500D01*
X55962429Y-54799500D01*
X55962424Y-54799501D01*
X55715438Y-54832017D01*
X55474792Y-54896498D01*
X55244638Y-54991830D01*
X55244616Y-54991841D01*
X55172499Y-55033478D01*
X55104599Y-55049951D01*
X55038572Y-55027098D01*
X54995382Y-54972177D01*
X54986500Y-54926091D01*
X54986500Y-54566781D01*
X55006185Y-54499742D01*
X55022815Y-54479104D01*
X55600593Y-53901325D01*
X55661914Y-53867842D01*
X55712463Y-53867390D01*
X55715417Y-53867977D01*
X55715435Y-53867982D01*
X55962435Y-53900500D01*
X55962442Y-53900500D01*
X56211558Y-53900500D01*
X56211565Y-53900500D01*
X56458565Y-53867982D01*
X56699207Y-53803502D01*
X56929373Y-53708164D01*
X57145127Y-53583599D01*
X57342776Y-53431938D01*
X57518938Y-53255776D01*
X57670599Y-53058127D01*
X57795164Y-52842373D01*
X57890502Y-52612207D01*
X57954982Y-52371565D01*
X57987500Y-52124565D01*
X57987500Y-51875435D01*
X57954982Y-51628435D01*
X57954977Y-51628417D01*
X57954391Y-51625467D01*
X57954471Y-51624561D01*
X57954452Y-51624410D01*
X57954485Y-51624405D01*
X57960617Y-51555875D01*
X57988327Y-51513592D01*
X59077137Y-50424784D01*
X59077137Y-50424783D01*
X59077140Y-50424781D01*
X59186632Y-50260914D01*
X59262052Y-50078835D01*
X59300501Y-49885540D01*
X59300501Y-49688459D01*
X59300501Y-49683349D01*
X59300500Y-49683323D01*
X59300500Y-48674577D01*
X59320185Y-48607538D01*
X59372989Y-48561783D01*
X59442147Y-48551839D01*
X59505703Y-48580864D01*
X59512181Y-48586896D01*
X59657218Y-48731933D01*
X59657225Y-48731939D01*
X59854873Y-48883599D01*
X60070623Y-49008162D01*
X60070638Y-49008169D01*
X60135465Y-49035021D01*
X60300793Y-49103502D01*
X60541435Y-49167982D01*
X60788435Y-49200500D01*
X60788442Y-49200500D01*
X61037558Y-49200500D01*
X61037565Y-49200500D01*
X61284565Y-49167982D01*
X61525207Y-49103502D01*
X61690535Y-49035020D01*
X61760001Y-49027552D01*
X61822481Y-49058827D01*
X61825666Y-49061901D01*
X66053584Y-53289819D01*
X66087069Y-53351142D01*
X66082085Y-53420834D01*
X66040213Y-53476767D01*
X65974749Y-53501184D01*
X65965903Y-53501500D01*
X63315097Y-53501500D01*
X63248058Y-53481815D01*
X63227416Y-53465181D01*
X62674901Y-52912666D01*
X62641416Y-52851343D01*
X62646400Y-52781651D01*
X62648000Y-52777583D01*
X62716502Y-52612207D01*
X62780982Y-52371565D01*
X62813500Y-52124565D01*
X62813500Y-51875435D01*
X62780982Y-51628435D01*
X62716502Y-51387793D01*
X62621164Y-51157627D01*
X62523918Y-50989192D01*
X62496599Y-50941873D01*
X62344939Y-50744225D01*
X62344933Y-50744218D01*
X62168781Y-50568066D01*
X62168774Y-50568060D01*
X61971126Y-50416400D01*
X61755376Y-50291837D01*
X61755361Y-50291830D01*
X61525207Y-50196498D01*
X61286427Y-50132517D01*
X61284565Y-50132018D01*
X61284564Y-50132017D01*
X61284561Y-50132017D01*
X61037575Y-50099501D01*
X61037570Y-50099500D01*
X61037565Y-50099500D01*
X60788435Y-50099500D01*
X60788429Y-50099500D01*
X60788424Y-50099501D01*
X60541438Y-50132017D01*
X60300792Y-50196498D01*
X60070638Y-50291830D01*
X60070623Y-50291837D01*
X59854873Y-50416400D01*
X59657225Y-50568060D01*
X59657218Y-50568066D01*
X59481066Y-50744218D01*
X59481060Y-50744225D01*
X59329400Y-50941873D01*
X59204837Y-51157623D01*
X59204830Y-51157638D01*
X59109498Y-51387792D01*
X59045017Y-51628438D01*
X59045017Y-51628441D01*
X59012500Y-51875435D01*
X59012500Y-52124565D01*
X59012500Y-52124570D01*
X59012501Y-52124575D01*
X59035411Y-52298599D01*
X59045018Y-52371565D01*
X59046098Y-52375594D01*
X59109498Y-52612207D01*
X59204830Y-52842361D01*
X59204837Y-52842376D01*
X59329400Y-53058126D01*
X59481060Y-53255774D01*
X59481066Y-53255781D01*
X59657218Y-53431933D01*
X59657225Y-53431939D01*
X59854873Y-53583599D01*
X60070623Y-53708162D01*
X60070638Y-53708169D01*
X60135465Y-53735021D01*
X60300793Y-53803502D01*
X60541435Y-53867982D01*
X60788435Y-53900500D01*
X60788442Y-53900500D01*
X61037558Y-53900500D01*
X61037565Y-53900500D01*
X61284565Y-53867982D01*
X61525207Y-53803502D01*
X61690535Y-53735020D01*
X61760001Y-53727552D01*
X61822481Y-53758827D01*
X61825666Y-53761901D01*
X62530139Y-54466374D01*
X62530149Y-54466385D01*
X62534479Y-54470715D01*
X62534480Y-54470716D01*
X62646284Y-54582520D01*
X62733095Y-54632639D01*
X62733097Y-54632641D01*
X62771151Y-54654611D01*
X62783215Y-54661577D01*
X62935943Y-54702501D01*
X62935946Y-54702501D01*
X63101653Y-54702501D01*
X63101669Y-54702500D01*
X71819756Y-54702500D01*
X71886795Y-54722185D01*
X71932550Y-54774989D01*
X71942494Y-54844147D01*
X71913469Y-54907703D01*
X71867208Y-54941061D01*
X71744638Y-54991830D01*
X71744623Y-54991837D01*
X71528873Y-55116400D01*
X71331225Y-55268060D01*
X71331218Y-55268066D01*
X71155066Y-55444218D01*
X71155060Y-55444225D01*
X71003400Y-55641873D01*
X70878837Y-55857623D01*
X70878830Y-55857638D01*
X70783498Y-56087792D01*
X70719017Y-56328438D01*
X70686501Y-56575424D01*
X70686500Y-56575441D01*
X70686500Y-56824558D01*
X70686501Y-56824575D01*
X70719017Y-57071561D01*
X70783498Y-57312207D01*
X70878830Y-57542361D01*
X70878837Y-57542376D01*
X71003400Y-57758126D01*
X71155060Y-57955774D01*
X71155066Y-57955781D01*
X71331218Y-58131933D01*
X71331225Y-58131939D01*
X71528873Y-58283599D01*
X71744623Y-58408162D01*
X71744638Y-58408169D01*
X71843825Y-58449253D01*
X71974793Y-58503502D01*
X72215435Y-58567982D01*
X72462435Y-58600500D01*
X72462442Y-58600500D01*
X72711558Y-58600500D01*
X72711565Y-58600500D01*
X72958565Y-58567982D01*
X73199207Y-58503502D01*
X73429373Y-58408164D01*
X73645127Y-58283599D01*
X73842776Y-58131938D01*
X74018938Y-57955776D01*
X74170599Y-57758127D01*
X74295164Y-57542373D01*
X74390502Y-57312207D01*
X74454982Y-57071565D01*
X74487500Y-56824565D01*
X74487500Y-56575435D01*
X74454982Y-56328435D01*
X74390502Y-56087793D01*
X74295164Y-55857627D01*
X74229148Y-55743284D01*
X74170599Y-55641873D01*
X74018939Y-55444225D01*
X74018933Y-55444218D01*
X73842781Y-55268066D01*
X73842774Y-55268060D01*
X73645126Y-55116400D01*
X73429376Y-54991837D01*
X73429361Y-54991830D01*
X73306792Y-54941061D01*
X73252388Y-54897220D01*
X73230323Y-54830926D01*
X73247602Y-54763227D01*
X73298739Y-54715616D01*
X73354244Y-54702500D01*
X76645756Y-54702500D01*
X76712795Y-54722185D01*
X76758550Y-54774989D01*
X76768494Y-54844147D01*
X76739469Y-54907703D01*
X76693208Y-54941061D01*
X76570638Y-54991830D01*
X76570623Y-54991837D01*
X76354873Y-55116400D01*
X76157225Y-55268060D01*
X76157218Y-55268066D01*
X75981066Y-55444218D01*
X75981060Y-55444225D01*
X75829400Y-55641873D01*
X75704837Y-55857623D01*
X75704830Y-55857638D01*
X75609498Y-56087792D01*
X75545017Y-56328438D01*
X75512501Y-56575424D01*
X75512500Y-56575441D01*
X75512500Y-56824558D01*
X75512501Y-56824575D01*
X75545017Y-57071561D01*
X75609498Y-57312207D01*
X75704830Y-57542361D01*
X75704837Y-57542376D01*
X75829400Y-57758126D01*
X75981060Y-57955774D01*
X75981066Y-57955781D01*
X76157218Y-58131933D01*
X76157225Y-58131939D01*
X76354873Y-58283599D01*
X76570623Y-58408162D01*
X76570638Y-58408169D01*
X76669825Y-58449253D01*
X76800793Y-58503502D01*
X77041435Y-58567982D01*
X77288435Y-58600500D01*
X77288442Y-58600500D01*
X77537558Y-58600500D01*
X77537565Y-58600500D01*
X77784565Y-58567982D01*
X78025207Y-58503502D01*
X78255373Y-58408164D01*
X78471127Y-58283599D01*
X78668776Y-58131938D01*
X78844938Y-57955776D01*
X78996599Y-57758127D01*
X79121164Y-57542373D01*
X79216502Y-57312207D01*
X79280982Y-57071565D01*
X79313500Y-56824565D01*
X79313500Y-56575435D01*
X79280982Y-56328435D01*
X79216502Y-56087793D01*
X79121164Y-55857627D01*
X79055148Y-55743284D01*
X78996599Y-55641873D01*
X78844939Y-55444225D01*
X78844933Y-55444218D01*
X78668781Y-55268066D01*
X78668774Y-55268060D01*
X78471126Y-55116400D01*
X78255376Y-54991837D01*
X78255361Y-54991830D01*
X78132792Y-54941061D01*
X78078388Y-54897220D01*
X78056323Y-54830926D01*
X78073602Y-54763227D01*
X78124739Y-54715616D01*
X78180244Y-54702500D01*
X88319756Y-54702500D01*
X88386795Y-54722185D01*
X88432550Y-54774989D01*
X88442494Y-54844147D01*
X88413469Y-54907703D01*
X88367208Y-54941061D01*
X88244638Y-54991830D01*
X88244623Y-54991837D01*
X88028873Y-55116400D01*
X87831225Y-55268060D01*
X87831218Y-55268066D01*
X87655066Y-55444218D01*
X87655060Y-55444225D01*
X87503400Y-55641873D01*
X87378837Y-55857623D01*
X87378830Y-55857638D01*
X87283498Y-56087792D01*
X87219017Y-56328438D01*
X87186501Y-56575424D01*
X87186500Y-56575441D01*
X87186500Y-56824558D01*
X87186501Y-56824575D01*
X87219017Y-57071561D01*
X87283498Y-57312207D01*
X87378830Y-57542361D01*
X87378837Y-57542376D01*
X87503400Y-57758126D01*
X87655060Y-57955774D01*
X87655066Y-57955781D01*
X87831218Y-58131933D01*
X87831225Y-58131939D01*
X88028873Y-58283599D01*
X88244623Y-58408162D01*
X88244638Y-58408169D01*
X88343825Y-58449253D01*
X88474793Y-58503502D01*
X88715435Y-58567982D01*
X88962435Y-58600500D01*
X88962442Y-58600500D01*
X89211558Y-58600500D01*
X89211565Y-58600500D01*
X89458565Y-58567982D01*
X89699207Y-58503502D01*
X89929373Y-58408164D01*
X90145127Y-58283599D01*
X90342776Y-58131938D01*
X90518938Y-57955776D01*
X90670599Y-57758127D01*
X90795164Y-57542373D01*
X90890502Y-57312207D01*
X90954982Y-57071565D01*
X90963561Y-57006399D01*
X90991827Y-56942503D01*
X91050152Y-56904032D01*
X91120017Y-56903201D01*
X91179240Y-56940273D01*
X91209019Y-57003479D01*
X91210500Y-57022585D01*
X91210500Y-57484008D01*
X91210499Y-57484026D01*
X91210499Y-57649732D01*
X91210498Y-57649732D01*
X91251423Y-57802463D01*
X91280358Y-57852578D01*
X91280359Y-57852582D01*
X91280360Y-57852582D01*
X91330479Y-57939392D01*
X91330481Y-57939395D01*
X91449349Y-58058263D01*
X91449355Y-58058268D01*
X94463181Y-61072094D01*
X94496666Y-61133417D01*
X94499500Y-61159775D01*
X94499500Y-65593330D01*
X94499499Y-65593348D01*
X94499499Y-65759054D01*
X94499498Y-65759054D01*
X94499499Y-65759057D01*
X94540423Y-65911785D01*
X94545043Y-65919786D01*
X94545047Y-65919793D01*
X94545047Y-65919794D01*
X94619477Y-66048712D01*
X94619481Y-66048717D01*
X94738349Y-66167585D01*
X94738355Y-66167590D01*
X95666241Y-67095476D01*
X95699726Y-67156799D01*
X95696492Y-67221473D01*
X95682753Y-67263757D01*
X95649500Y-67473713D01*
X95649500Y-67686286D01*
X95672944Y-67834310D01*
X95682754Y-67896243D01*
X95734075Y-68054193D01*
X95748444Y-68098414D01*
X95844951Y-68287820D01*
X95969890Y-68459786D01*
X96120213Y-68610109D01*
X96292182Y-68735050D01*
X96300946Y-68739516D01*
X96351742Y-68787491D01*
X96368536Y-68855312D01*
X96345998Y-68921447D01*
X96300946Y-68960484D01*
X96292182Y-68964949D01*
X96120213Y-69089890D01*
X95969890Y-69240213D01*
X95844951Y-69412179D01*
X95748444Y-69601585D01*
X95682753Y-69803760D01*
X95649500Y-70013713D01*
X95649500Y-70226286D01*
X95675415Y-70389910D01*
X95682754Y-70436243D01*
X95728263Y-70576306D01*
X95748444Y-70638414D01*
X95844951Y-70827820D01*
X95969890Y-70999786D01*
X96120213Y-71150109D01*
X96292182Y-71275050D01*
X96300946Y-71279516D01*
X96351742Y-71327491D01*
X96368536Y-71395312D01*
X96345998Y-71461447D01*
X96300946Y-71500484D01*
X96292182Y-71504949D01*
X96120213Y-71629890D01*
X95969890Y-71780213D01*
X95844951Y-71952179D01*
X95748444Y-72141585D01*
X95682753Y-72343760D01*
X95649500Y-72553713D01*
X95649500Y-72766286D01*
X95682753Y-72976239D01*
X95748444Y-73178414D01*
X95844951Y-73367820D01*
X95972759Y-73543734D01*
X95971888Y-73544366D01*
X95980413Y-73563380D01*
X95994477Y-73585264D01*
X95996484Y-73599223D01*
X95998357Y-73603401D01*
X95999500Y-73620199D01*
X95999500Y-73649902D01*
X95979815Y-73716941D01*
X95963181Y-73737583D01*
X94637584Y-75063181D01*
X94576261Y-75096666D01*
X94549903Y-75099500D01*
X92586670Y-75099500D01*
X92586654Y-75099499D01*
X92579058Y-75099499D01*
X92420943Y-75099499D01*
X92344579Y-75119961D01*
X92268214Y-75140423D01*
X92268209Y-75140426D01*
X92131290Y-75219475D01*
X92131282Y-75219481D01*
X85769481Y-81581282D01*
X85769479Y-81581285D01*
X85719361Y-81668094D01*
X85719359Y-81668096D01*
X85690425Y-81718209D01*
X85690424Y-81718210D01*
X85690423Y-81718215D01*
X85649499Y-81870943D01*
X85649499Y-81870945D01*
X85649499Y-82039046D01*
X85649500Y-82039059D01*
X85649500Y-101408164D01*
X85629815Y-101475203D01*
X85581796Y-101518648D01*
X85515976Y-101552185D01*
X85337641Y-101681752D01*
X85337635Y-101681757D01*
X85316207Y-101703185D01*
X85254884Y-101736669D01*
X85185192Y-101731683D01*
X85129259Y-101689810D01*
X85112346Y-101658834D01*
X85093355Y-101607915D01*
X85093350Y-101607906D01*
X85007190Y-101492812D01*
X85007187Y-101492809D01*
X84892093Y-101406649D01*
X84892086Y-101406645D01*
X84757379Y-101356403D01*
X84757372Y-101356401D01*
X84697844Y-101350000D01*
X84000000Y-101350000D01*
X84000000Y-102316988D01*
X83942993Y-102284075D01*
X83815826Y-102250000D01*
X83684174Y-102250000D01*
X83557007Y-102284075D01*
X83500000Y-102316988D01*
X83500000Y-101350000D01*
X82802155Y-101350000D01*
X82742627Y-101356401D01*
X82742620Y-101356403D01*
X82607913Y-101406645D01*
X82607906Y-101406649D01*
X82492812Y-101492809D01*
X82492809Y-101492812D01*
X82406649Y-101607906D01*
X82406645Y-101607913D01*
X82356403Y-101742620D01*
X82356401Y-101742627D01*
X82350000Y-101802155D01*
X82350000Y-102500000D01*
X83316988Y-102500000D01*
X83284075Y-102557007D01*
X83250000Y-102684174D01*
X83250000Y-102815826D01*
X83284075Y-102942993D01*
X83316988Y-103000000D01*
X82350000Y-103000000D01*
X82350000Y-103697844D01*
X82356401Y-103757372D01*
X82356403Y-103757379D01*
X82406645Y-103892086D01*
X82406649Y-103892093D01*
X82492809Y-104007187D01*
X82492812Y-104007190D01*
X82607906Y-104093350D01*
X82607913Y-104093354D01*
X82742620Y-104143596D01*
X82742627Y-104143598D01*
X82802155Y-104149999D01*
X82802172Y-104150000D01*
X83500000Y-104150000D01*
X83500000Y-103183012D01*
X83557007Y-103215925D01*
X83684174Y-103250000D01*
X83815826Y-103250000D01*
X83942993Y-103215925D01*
X84000000Y-103183012D01*
X84000000Y-104150000D01*
X84697828Y-104150000D01*
X84697844Y-104149999D01*
X84757372Y-104143598D01*
X84757379Y-104143596D01*
X84892086Y-104093354D01*
X84892093Y-104093350D01*
X85007187Y-104007190D01*
X85007190Y-104007187D01*
X85093350Y-103892093D01*
X85093353Y-103892088D01*
X85112345Y-103841166D01*
X85154215Y-103785232D01*
X85219679Y-103760813D01*
X85287952Y-103775663D01*
X85316209Y-103796816D01*
X85337636Y-103818243D01*
X85337641Y-103818247D01*
X85465766Y-103911334D01*
X85515978Y-103947815D01*
X85632501Y-104007187D01*
X85712393Y-104047895D01*
X85712396Y-104047896D01*
X85817221Y-104081955D01*
X85922049Y-104116015D01*
X86139778Y-104150500D01*
X86139779Y-104150500D01*
X86360221Y-104150500D01*
X86360222Y-104150500D01*
X86577951Y-104116015D01*
X86787606Y-104047895D01*
X86984022Y-103947815D01*
X87162365Y-103818242D01*
X87318242Y-103662365D01*
X87399682Y-103550270D01*
X87455011Y-103507606D01*
X87524624Y-103501627D01*
X87586420Y-103534232D01*
X87600313Y-103550265D01*
X87681753Y-103662358D01*
X87681758Y-103662365D01*
X87837636Y-103818243D01*
X87837641Y-103818247D01*
X87965766Y-103911334D01*
X88015978Y-103947815D01*
X88132501Y-104007187D01*
X88212393Y-104047895D01*
X88212396Y-104047896D01*
X88317221Y-104081955D01*
X88422049Y-104116015D01*
X88639778Y-104150500D01*
X88639779Y-104150500D01*
X88860221Y-104150500D01*
X88860222Y-104150500D01*
X89077951Y-104116015D01*
X89287606Y-104047895D01*
X89484022Y-103947815D01*
X89662365Y-103818242D01*
X89818242Y-103662365D01*
X89899682Y-103550270D01*
X89955011Y-103507606D01*
X90024624Y-103501627D01*
X90086420Y-103534232D01*
X90100313Y-103550265D01*
X90181753Y-103662358D01*
X90181758Y-103662365D01*
X90337636Y-103818243D01*
X90337641Y-103818247D01*
X90465766Y-103911334D01*
X90515978Y-103947815D01*
X90632501Y-104007187D01*
X90712393Y-104047895D01*
X90712396Y-104047896D01*
X90817221Y-104081955D01*
X90922049Y-104116015D01*
X91139778Y-104150500D01*
X91139779Y-104150500D01*
X91360221Y-104150500D01*
X91360222Y-104150500D01*
X91577951Y-104116015D01*
X91787606Y-104047895D01*
X91984022Y-103947815D01*
X92162365Y-103818242D01*
X92318242Y-103662365D01*
X92447815Y-103484022D01*
X92547895Y-103287606D01*
X92616015Y-103077951D01*
X92650500Y-102860222D01*
X92650500Y-102639778D01*
X92616015Y-102422049D01*
X92560114Y-102250000D01*
X92547896Y-102212396D01*
X92547895Y-102212393D01*
X92513237Y-102144375D01*
X92447815Y-102015978D01*
X92406994Y-101959792D01*
X92318247Y-101837641D01*
X92318243Y-101837636D01*
X92162363Y-101681756D01*
X92162358Y-101681752D01*
X91984025Y-101552187D01*
X91984024Y-101552186D01*
X91984022Y-101552185D01*
X91898304Y-101508509D01*
X91787606Y-101452104D01*
X91787603Y-101452103D01*
X91577952Y-101383985D01*
X91469086Y-101366742D01*
X91360222Y-101349500D01*
X91139778Y-101349500D01*
X91067201Y-101360995D01*
X90922047Y-101383985D01*
X90712396Y-101452103D01*
X90712393Y-101452104D01*
X90515974Y-101552187D01*
X90337641Y-101681752D01*
X90337636Y-101681756D01*
X90181756Y-101837636D01*
X90181752Y-101837641D01*
X90100318Y-101949727D01*
X90044989Y-101992393D01*
X89975375Y-101998372D01*
X89913580Y-101965767D01*
X89899682Y-101949727D01*
X89818247Y-101837641D01*
X89818243Y-101837636D01*
X89662363Y-101681756D01*
X89662358Y-101681752D01*
X89484023Y-101552185D01*
X89418204Y-101518648D01*
X89367409Y-101470674D01*
X89350500Y-101408164D01*
X89350500Y-91509568D01*
X90799500Y-91509568D01*
X90799500Y-91990431D01*
X90830942Y-92269494D01*
X90830945Y-92269512D01*
X90893439Y-92543317D01*
X90893443Y-92543329D01*
X90986200Y-92808411D01*
X91108053Y-93061442D01*
X91108055Y-93061445D01*
X91257477Y-93299248D01*
X91432584Y-93518825D01*
X91631175Y-93717416D01*
X91850752Y-93892523D01*
X92088555Y-94041945D01*
X92341592Y-94163801D01*
X92540680Y-94233465D01*
X92606670Y-94256556D01*
X92606682Y-94256560D01*
X92880491Y-94319055D01*
X92880497Y-94319055D01*
X92880505Y-94319057D01*
X93066547Y-94340018D01*
X93159569Y-94350499D01*
X93159572Y-94350500D01*
X93159575Y-94350500D01*
X93440428Y-94350500D01*
X93440429Y-94350499D01*
X93583055Y-94334429D01*
X93719494Y-94319057D01*
X93719499Y-94319056D01*
X93719509Y-94319055D01*
X93993318Y-94256560D01*
X94258408Y-94163801D01*
X94511445Y-94041945D01*
X94749248Y-93892523D01*
X94968825Y-93717416D01*
X95167416Y-93518825D01*
X95342523Y-93299248D01*
X95491945Y-93061445D01*
X95613801Y-92808408D01*
X95706560Y-92543318D01*
X95769055Y-92269509D01*
X95800500Y-91990425D01*
X95800500Y-91509575D01*
X95769055Y-91230491D01*
X95706560Y-90956682D01*
X95613801Y-90691592D01*
X95491945Y-90438555D01*
X95342523Y-90200752D01*
X95167416Y-89981175D01*
X94968825Y-89782584D01*
X94749248Y-89607477D01*
X94511445Y-89458055D01*
X94511442Y-89458053D01*
X94258411Y-89336200D01*
X93993329Y-89243443D01*
X93993317Y-89243439D01*
X93719512Y-89180945D01*
X93719494Y-89180942D01*
X93440431Y-89149500D01*
X93440425Y-89149500D01*
X93159575Y-89149500D01*
X93159568Y-89149500D01*
X92880505Y-89180942D01*
X92880487Y-89180945D01*
X92606682Y-89243439D01*
X92606670Y-89243443D01*
X92341588Y-89336200D01*
X92088557Y-89458053D01*
X91850753Y-89607476D01*
X91631175Y-89782583D01*
X91432583Y-89981175D01*
X91257476Y-90200753D01*
X91108053Y-90438557D01*
X90986200Y-90691588D01*
X90893443Y-90956670D01*
X90893439Y-90956682D01*
X90830945Y-91230487D01*
X90830942Y-91230505D01*
X90799500Y-91509568D01*
X89350500Y-91509568D01*
X89350500Y-80317197D01*
X89370185Y-80250158D01*
X89386819Y-80229516D01*
X90718687Y-78897648D01*
X91509500Y-78897648D01*
X91509500Y-79102351D01*
X91541522Y-79304534D01*
X91604781Y-79499223D01*
X91697715Y-79681613D01*
X91818028Y-79847213D01*
X91962786Y-79991971D01*
X92117749Y-80104556D01*
X92128390Y-80112287D01*
X92244607Y-80171503D01*
X92310776Y-80205218D01*
X92310778Y-80205218D01*
X92310781Y-80205220D01*
X92415137Y-80239127D01*
X92505465Y-80268477D01*
X92606557Y-80284488D01*
X92707648Y-80300500D01*
X92707649Y-80300500D01*
X92912351Y-80300500D01*
X92912352Y-80300500D01*
X93114534Y-80268477D01*
X93309219Y-80205220D01*
X93491610Y-80112287D01*
X93584590Y-80044732D01*
X93657213Y-79991971D01*
X93657215Y-79991968D01*
X93657219Y-79991966D01*
X93801966Y-79847219D01*
X93801968Y-79847215D01*
X93801971Y-79847213D01*
X93864039Y-79761782D01*
X93922287Y-79681610D01*
X94015220Y-79499219D01*
X94078477Y-79304534D01*
X94110500Y-79102352D01*
X94110500Y-78897648D01*
X94078477Y-78695466D01*
X94053782Y-78619464D01*
X94015218Y-78500776D01*
X93930572Y-78334651D01*
X93922287Y-78318390D01*
X93914556Y-78307749D01*
X93801971Y-78152786D01*
X93657213Y-78008028D01*
X93491613Y-77887715D01*
X93491612Y-77887714D01*
X93491610Y-77887713D01*
X93434653Y-77858691D01*
X93309223Y-77794781D01*
X93114534Y-77731522D01*
X92939995Y-77703878D01*
X92912352Y-77699500D01*
X92707648Y-77699500D01*
X92683329Y-77703351D01*
X92505465Y-77731522D01*
X92310776Y-77794781D01*
X92128386Y-77887715D01*
X91962786Y-78008028D01*
X91818028Y-78152786D01*
X91697715Y-78318386D01*
X91604781Y-78500776D01*
X91541522Y-78695465D01*
X91509500Y-78897648D01*
X90718687Y-78897648D01*
X92879516Y-76736819D01*
X92940839Y-76703334D01*
X92967197Y-76700500D01*
X95843185Y-76700500D01*
X95910224Y-76720185D01*
X95955979Y-76772989D01*
X95965923Y-76842147D01*
X95943503Y-76897385D01*
X95845379Y-77032442D01*
X95748904Y-77221782D01*
X95683242Y-77423870D01*
X95683242Y-77423873D01*
X95672769Y-77490000D01*
X96566988Y-77490000D01*
X96534075Y-77547007D01*
X96500000Y-77674174D01*
X96500000Y-77805826D01*
X96534075Y-77932993D01*
X96566988Y-77990000D01*
X95672769Y-77990000D01*
X95683242Y-78056126D01*
X95683242Y-78056129D01*
X95748904Y-78258217D01*
X95845379Y-78447557D01*
X95970272Y-78619459D01*
X95970276Y-78619464D01*
X96120535Y-78769723D01*
X96120540Y-78769727D01*
X96292444Y-78894622D01*
X96302048Y-78899516D01*
X96352844Y-78947491D01*
X96369638Y-79015312D01*
X96347100Y-79081447D01*
X96302048Y-79120484D01*
X96292444Y-79125377D01*
X96120540Y-79250272D01*
X96120535Y-79250276D01*
X95970276Y-79400535D01*
X95970272Y-79400540D01*
X95845379Y-79572442D01*
X95748904Y-79761782D01*
X95683242Y-79963870D01*
X95683242Y-79963873D01*
X95672769Y-80030000D01*
X96566988Y-80030000D01*
X96534075Y-80087007D01*
X96500000Y-80214174D01*
X96500000Y-80345826D01*
X96534075Y-80472993D01*
X96566988Y-80530000D01*
X95672769Y-80530000D01*
X95683242Y-80596126D01*
X95683242Y-80596129D01*
X95748904Y-80798217D01*
X95845379Y-80987557D01*
X95970272Y-81159459D01*
X95970276Y-81159464D01*
X96120535Y-81309723D01*
X96120540Y-81309727D01*
X96292442Y-81434620D01*
X96481782Y-81531095D01*
X96683871Y-81596757D01*
X96750000Y-81607231D01*
X96750000Y-80713012D01*
X96807007Y-80745925D01*
X96934174Y-80780000D01*
X97065826Y-80780000D01*
X97192993Y-80745925D01*
X97250000Y-80713012D01*
X97250000Y-81607230D01*
X97316126Y-81596757D01*
X97316129Y-81596757D01*
X97518219Y-81531094D01*
X97618204Y-81480149D01*
X97686873Y-81467252D01*
X97751614Y-81493528D01*
X97791871Y-81550634D01*
X97798500Y-81590633D01*
X97798500Y-98526000D01*
X97778815Y-98593039D01*
X97726011Y-98638794D01*
X97674500Y-98650000D01*
X97250000Y-98650000D01*
X97250000Y-99566988D01*
X97192993Y-99534075D01*
X97065826Y-99500000D01*
X96934174Y-99500000D01*
X96807007Y-99534075D01*
X96750000Y-99566988D01*
X96750000Y-98650000D01*
X96102155Y-98650000D01*
X96042627Y-98656401D01*
X96042620Y-98656403D01*
X95907913Y-98706645D01*
X95907906Y-98706649D01*
X95792812Y-98792809D01*
X95792809Y-98792812D01*
X95706649Y-98907906D01*
X95706645Y-98907913D01*
X95656403Y-99042620D01*
X95656401Y-99042627D01*
X95650000Y-99102155D01*
X95650000Y-99750000D01*
X96566988Y-99750000D01*
X96534075Y-99807007D01*
X96500000Y-99934174D01*
X96500000Y-100065826D01*
X96534075Y-100192993D01*
X96566988Y-100250000D01*
X95650000Y-100250000D01*
X95650000Y-100897844D01*
X95656401Y-100957372D01*
X95656403Y-100957379D01*
X95706645Y-101092086D01*
X95706649Y-101092093D01*
X95792809Y-101207187D01*
X95792812Y-101207190D01*
X95907906Y-101293350D01*
X95907913Y-101293354D01*
X96042620Y-101343596D01*
X96042627Y-101343598D01*
X96102155Y-101349999D01*
X96102172Y-101350000D01*
X96750000Y-101350000D01*
X96750000Y-100433012D01*
X96807007Y-100465925D01*
X96934174Y-100500000D01*
X97065826Y-100500000D01*
X97192993Y-100465925D01*
X97250000Y-100433012D01*
X97250000Y-101350000D01*
X97674500Y-101350000D01*
X97741539Y-101369685D01*
X97787294Y-101422489D01*
X97798500Y-101474000D01*
X97798500Y-103300902D01*
X97778815Y-103367941D01*
X97762181Y-103388583D01*
X94587584Y-106563181D01*
X94526261Y-106596666D01*
X94499903Y-106599500D01*
X79100097Y-106599500D01*
X79033058Y-106579815D01*
X79012416Y-106563181D01*
X63958803Y-91509568D01*
X79199500Y-91509568D01*
X79199500Y-91990431D01*
X79230942Y-92269494D01*
X79230945Y-92269512D01*
X79293439Y-92543317D01*
X79293443Y-92543329D01*
X79386200Y-92808411D01*
X79508053Y-93061442D01*
X79508055Y-93061445D01*
X79657477Y-93299248D01*
X79832584Y-93518825D01*
X80031175Y-93717416D01*
X80250752Y-93892523D01*
X80488555Y-94041945D01*
X80741592Y-94163801D01*
X80940680Y-94233465D01*
X81006670Y-94256556D01*
X81006682Y-94256560D01*
X81280491Y-94319055D01*
X81280497Y-94319055D01*
X81280505Y-94319057D01*
X81466547Y-94340018D01*
X81559569Y-94350499D01*
X81559572Y-94350500D01*
X81559575Y-94350500D01*
X81840428Y-94350500D01*
X81840429Y-94350499D01*
X81983055Y-94334429D01*
X82119494Y-94319057D01*
X82119499Y-94319056D01*
X82119509Y-94319055D01*
X82393318Y-94256560D01*
X82658408Y-94163801D01*
X82911445Y-94041945D01*
X83149248Y-93892523D01*
X83368825Y-93717416D01*
X83567416Y-93518825D01*
X83742523Y-93299248D01*
X83891945Y-93061445D01*
X84013801Y-92808408D01*
X84106560Y-92543318D01*
X84169055Y-92269509D01*
X84200500Y-91990425D01*
X84200500Y-91509575D01*
X84169055Y-91230491D01*
X84106560Y-90956682D01*
X84013801Y-90691592D01*
X83891945Y-90438555D01*
X83742523Y-90200752D01*
X83567416Y-89981175D01*
X83368825Y-89782584D01*
X83149248Y-89607477D01*
X82911445Y-89458055D01*
X82911442Y-89458053D01*
X82658411Y-89336200D01*
X82393329Y-89243443D01*
X82393317Y-89243439D01*
X82119512Y-89180945D01*
X82119494Y-89180942D01*
X81840431Y-89149500D01*
X81840425Y-89149500D01*
X81559575Y-89149500D01*
X81559568Y-89149500D01*
X81280505Y-89180942D01*
X81280487Y-89180945D01*
X81006682Y-89243439D01*
X81006670Y-89243443D01*
X80741588Y-89336200D01*
X80488557Y-89458053D01*
X80250753Y-89607476D01*
X80031175Y-89782583D01*
X79832583Y-89981175D01*
X79657476Y-90200753D01*
X79508053Y-90438557D01*
X79386200Y-90691588D01*
X79293443Y-90956670D01*
X79293439Y-90956682D01*
X79230945Y-91230487D01*
X79230942Y-91230505D01*
X79199500Y-91509568D01*
X63958803Y-91509568D01*
X63136819Y-90687584D01*
X63103334Y-90626261D01*
X63100500Y-90599903D01*
X63100500Y-89397648D01*
X65009500Y-89397648D01*
X65009500Y-89602351D01*
X65041522Y-89804534D01*
X65104781Y-89999223D01*
X65197715Y-90181613D01*
X65318028Y-90347213D01*
X65462786Y-90491971D01*
X65611345Y-90599903D01*
X65628390Y-90612287D01*
X65704889Y-90651265D01*
X65810776Y-90705218D01*
X65810778Y-90705218D01*
X65810781Y-90705220D01*
X65915137Y-90739127D01*
X66005465Y-90768477D01*
X66106557Y-90784488D01*
X66207648Y-90800500D01*
X66207649Y-90800500D01*
X66412351Y-90800500D01*
X66412352Y-90800500D01*
X66614534Y-90768477D01*
X66809219Y-90705220D01*
X66991610Y-90612287D01*
X67084590Y-90544732D01*
X67157213Y-90491971D01*
X67157215Y-90491968D01*
X67157219Y-90491966D01*
X67301966Y-90347219D01*
X67301968Y-90347215D01*
X67301971Y-90347213D01*
X67354732Y-90274590D01*
X67422287Y-90181610D01*
X67515220Y-89999219D01*
X67578477Y-89804534D01*
X67610500Y-89602352D01*
X67610500Y-89397648D01*
X67586076Y-89243443D01*
X67578477Y-89195465D01*
X67515218Y-89000776D01*
X67481503Y-88934607D01*
X67422287Y-88818390D01*
X67414556Y-88807749D01*
X67301971Y-88652786D01*
X67157213Y-88508028D01*
X66991613Y-88387715D01*
X66991612Y-88387714D01*
X66991610Y-88387713D01*
X66934653Y-88358691D01*
X66809223Y-88294781D01*
X66614534Y-88231522D01*
X66426690Y-88201771D01*
X66412352Y-88199500D01*
X66207648Y-88199500D01*
X66193310Y-88201771D01*
X66005465Y-88231522D01*
X65810776Y-88294781D01*
X65628386Y-88387715D01*
X65462786Y-88508028D01*
X65318028Y-88652786D01*
X65197715Y-88818386D01*
X65104781Y-89000776D01*
X65041522Y-89195465D01*
X65009500Y-89397648D01*
X63100500Y-89397648D01*
X63100500Y-86091835D01*
X63120185Y-86024796D01*
X63168206Y-85981350D01*
X63168547Y-85981175D01*
X63234022Y-85947815D01*
X63412365Y-85818242D01*
X63568242Y-85662365D01*
X63649682Y-85550270D01*
X63705011Y-85507606D01*
X63774624Y-85501627D01*
X63836420Y-85534232D01*
X63850313Y-85550265D01*
X63872069Y-85580209D01*
X63931758Y-85662365D01*
X64087636Y-85818243D01*
X64087641Y-85818247D01*
X64243192Y-85931260D01*
X64265978Y-85947815D01*
X64382501Y-86007187D01*
X64462393Y-86047895D01*
X64462396Y-86047896D01*
X64567221Y-86081955D01*
X64672049Y-86116015D01*
X64889778Y-86150500D01*
X64889779Y-86150500D01*
X65110221Y-86150500D01*
X65110222Y-86150500D01*
X65327951Y-86116015D01*
X65537606Y-86047895D01*
X65734022Y-85947815D01*
X65912365Y-85818242D01*
X66068242Y-85662365D01*
X66197815Y-85484022D01*
X66297895Y-85287606D01*
X66366015Y-85077951D01*
X66400500Y-84860222D01*
X66400500Y-84639778D01*
X66366015Y-84422049D01*
X66297895Y-84212394D01*
X66297895Y-84212393D01*
X66263237Y-84144375D01*
X66197815Y-84015978D01*
X66149681Y-83949727D01*
X66068247Y-83837641D01*
X66068243Y-83837636D01*
X65912363Y-83681756D01*
X65912358Y-83681752D01*
X65734025Y-83552187D01*
X65734024Y-83552186D01*
X65734022Y-83552185D01*
X65671096Y-83520122D01*
X65537606Y-83452104D01*
X65537603Y-83452103D01*
X65327952Y-83383985D01*
X65219086Y-83366742D01*
X65110222Y-83349500D01*
X64889778Y-83349500D01*
X64817201Y-83360995D01*
X64672047Y-83383985D01*
X64462396Y-83452103D01*
X64462393Y-83452104D01*
X64265974Y-83552187D01*
X64087641Y-83681752D01*
X64087636Y-83681756D01*
X63931756Y-83837636D01*
X63931752Y-83837641D01*
X63850318Y-83949727D01*
X63794989Y-83992393D01*
X63725375Y-83998372D01*
X63663580Y-83965767D01*
X63649682Y-83949727D01*
X63568247Y-83837641D01*
X63568243Y-83837636D01*
X63412363Y-83681756D01*
X63412358Y-83681752D01*
X63234025Y-83552187D01*
X63234024Y-83552186D01*
X63234022Y-83552185D01*
X63171096Y-83520122D01*
X63037606Y-83452104D01*
X63037603Y-83452103D01*
X62827952Y-83383985D01*
X62719086Y-83366742D01*
X62610222Y-83349500D01*
X62389778Y-83349500D01*
X62317201Y-83360995D01*
X62172047Y-83383985D01*
X61962396Y-83452103D01*
X61962393Y-83452104D01*
X61765974Y-83552187D01*
X61587641Y-83681752D01*
X61587635Y-83681757D01*
X61566207Y-83703185D01*
X61504884Y-83736669D01*
X61435192Y-83731683D01*
X61379259Y-83689810D01*
X61362346Y-83658834D01*
X61343355Y-83607915D01*
X61343350Y-83607906D01*
X61257190Y-83492812D01*
X61257187Y-83492809D01*
X61142093Y-83406649D01*
X61142086Y-83406645D01*
X61007379Y-83356403D01*
X61007372Y-83356401D01*
X60947844Y-83350000D01*
X60250000Y-83350000D01*
X60250000Y-84316988D01*
X60192993Y-84284075D01*
X60065826Y-84250000D01*
X59934174Y-84250000D01*
X59807007Y-84284075D01*
X59750000Y-84316988D01*
X59750000Y-83350000D01*
X59052155Y-83350000D01*
X58992627Y-83356401D01*
X58992620Y-83356403D01*
X58857913Y-83406645D01*
X58857906Y-83406649D01*
X58742812Y-83492809D01*
X58742809Y-83492812D01*
X58656649Y-83607906D01*
X58656645Y-83607913D01*
X58606403Y-83742620D01*
X58606401Y-83742627D01*
X58600000Y-83802155D01*
X58600000Y-84500000D01*
X59566988Y-84500000D01*
X59534075Y-84557007D01*
X59500000Y-84684174D01*
X59500000Y-84815826D01*
X59534075Y-84942993D01*
X59566988Y-85000000D01*
X58600000Y-85000000D01*
X58600000Y-85697844D01*
X58606401Y-85757372D01*
X58606403Y-85757379D01*
X58656645Y-85892086D01*
X58656649Y-85892093D01*
X58742809Y-86007187D01*
X58742812Y-86007190D01*
X58857906Y-86093350D01*
X58857913Y-86093354D01*
X58992620Y-86143596D01*
X58992627Y-86143598D01*
X59052155Y-86149999D01*
X59052172Y-86150000D01*
X59750000Y-86150000D01*
X59750000Y-85183012D01*
X59807007Y-85215925D01*
X59934174Y-85250000D01*
X60065826Y-85250000D01*
X60192993Y-85215925D01*
X60250000Y-85183012D01*
X60250000Y-86150000D01*
X60947828Y-86150000D01*
X60947844Y-86149999D01*
X61007372Y-86143598D01*
X61007379Y-86143596D01*
X61142086Y-86093354D01*
X61142093Y-86093350D01*
X61257187Y-86007190D01*
X61257190Y-86007187D01*
X61343350Y-85892093D01*
X61343353Y-85892088D01*
X61362345Y-85841166D01*
X61404215Y-85785232D01*
X61469679Y-85760813D01*
X61537952Y-85775663D01*
X61566209Y-85796816D01*
X61587636Y-85818243D01*
X61587641Y-85818247D01*
X61765976Y-85947814D01*
X61831794Y-85981350D01*
X61882591Y-86029324D01*
X61899500Y-86091835D01*
X61899500Y-90813330D01*
X61899499Y-90813348D01*
X61899499Y-90979054D01*
X61899498Y-90979054D01*
X61940423Y-91131785D01*
X61969358Y-91181900D01*
X61969359Y-91181904D01*
X61969360Y-91181904D01*
X62019479Y-91268714D01*
X62019481Y-91268717D01*
X62138349Y-91387585D01*
X62138355Y-91387590D01*
X78315139Y-107564374D01*
X78315149Y-107564385D01*
X78319479Y-107568715D01*
X78319480Y-107568716D01*
X78431284Y-107680520D01*
X78518095Y-107730639D01*
X78518097Y-107730641D01*
X78556151Y-107752611D01*
X78568215Y-107759577D01*
X78720943Y-107800500D01*
X94713331Y-107800500D01*
X94713347Y-107800501D01*
X94720943Y-107800501D01*
X94879054Y-107800501D01*
X94879057Y-107800501D01*
X95031785Y-107759577D01*
X95081904Y-107730639D01*
X95168716Y-107680520D01*
X95280520Y-107568716D01*
X95280520Y-107568714D01*
X95290728Y-107558507D01*
X95290729Y-107558504D01*
X98287821Y-104561413D01*
X98349142Y-104527930D01*
X98418834Y-104532914D01*
X98474767Y-104574786D01*
X98499184Y-104640250D01*
X98499500Y-104649096D01*
X98499500Y-131809897D01*
X98479815Y-131876936D01*
X98427011Y-131922691D01*
X98357853Y-131932635D01*
X98294297Y-131903610D01*
X98276234Y-131884208D01*
X98207547Y-131792455D01*
X98207544Y-131792452D01*
X98092335Y-131706206D01*
X98092328Y-131706202D01*
X97957482Y-131655908D01*
X97957483Y-131655908D01*
X97897883Y-131649501D01*
X97897881Y-131649500D01*
X97897873Y-131649500D01*
X97897864Y-131649500D01*
X96102129Y-131649500D01*
X96102123Y-131649501D01*
X96042516Y-131655908D01*
X95907671Y-131706202D01*
X95907664Y-131706206D01*
X95792455Y-131792452D01*
X95792452Y-131792455D01*
X95706206Y-131907664D01*
X95706202Y-131907671D01*
X95655908Y-132042517D01*
X95649501Y-132102116D01*
X95649500Y-132102135D01*
X95649500Y-132884217D01*
X95629815Y-132951256D01*
X95613181Y-132971898D01*
X92121899Y-136463181D01*
X92060576Y-136496666D01*
X92034218Y-136499500D01*
X68741007Y-136499500D01*
X68673968Y-136479815D01*
X68628213Y-136427011D01*
X68618269Y-136357853D01*
X68647294Y-136294297D01*
X68653326Y-136287819D01*
X68701794Y-136239350D01*
X68701799Y-136239345D01*
X68850268Y-136045856D01*
X68972212Y-135834644D01*
X69065544Y-135609321D01*
X69128666Y-135373744D01*
X69160500Y-135131944D01*
X69160500Y-134368056D01*
X69128666Y-134126256D01*
X69065544Y-133890679D01*
X68972212Y-133665356D01*
X68972210Y-133665353D01*
X68972208Y-133665348D01*
X68850272Y-133454151D01*
X68850268Y-133454144D01*
X68701799Y-133260655D01*
X68701794Y-133260649D01*
X68529350Y-133088205D01*
X68529343Y-133088199D01*
X68335864Y-132939738D01*
X68335862Y-132939736D01*
X68335856Y-132939732D01*
X68335851Y-132939729D01*
X68335848Y-132939727D01*
X68124651Y-132817791D01*
X68124640Y-132817786D01*
X67899330Y-132724459D01*
X67899323Y-132724457D01*
X67899321Y-132724456D01*
X67663744Y-132661334D01*
X67623333Y-132656013D01*
X67421951Y-132629500D01*
X67421944Y-132629500D01*
X67178056Y-132629500D01*
X67178048Y-132629500D01*
X66947896Y-132659801D01*
X66936256Y-132661334D01*
X66800117Y-132697812D01*
X66700679Y-132724456D01*
X66700669Y-132724459D01*
X66475359Y-132817786D01*
X66475348Y-132817791D01*
X66264151Y-132939727D01*
X66264135Y-132939738D01*
X66070656Y-133088199D01*
X66070649Y-133088205D01*
X65898205Y-133260649D01*
X65898199Y-133260656D01*
X65749738Y-133454135D01*
X65749727Y-133454151D01*
X65627791Y-133665348D01*
X65627786Y-133665359D01*
X65534459Y-133890669D01*
X65534456Y-133890679D01*
X65471335Y-134126253D01*
X65471333Y-134126264D01*
X65439500Y-134368048D01*
X65439500Y-135131951D01*
X65466013Y-135333333D01*
X65471334Y-135373744D01*
X65534456Y-135609320D01*
X65534459Y-135609330D01*
X65627786Y-135834640D01*
X65627791Y-135834651D01*
X65749727Y-136045848D01*
X65749738Y-136045864D01*
X65898199Y-136239343D01*
X65898205Y-136239350D01*
X65946674Y-136287819D01*
X65980159Y-136349142D01*
X65975175Y-136418834D01*
X65933303Y-136474767D01*
X65867839Y-136499184D01*
X65858993Y-136499500D01*
X59801456Y-136499500D01*
X59608171Y-136537946D01*
X59608167Y-136537948D01*
X59608165Y-136537948D01*
X59608164Y-136537949D01*
X59554271Y-136560272D01*
X59532743Y-136569189D01*
X59426085Y-136613368D01*
X59426085Y-136613369D01*
X59426084Y-136613369D01*
X59262222Y-136722857D01*
X59262214Y-136722863D01*
X57025293Y-138959786D01*
X56362220Y-139622859D01*
X56362218Y-139622861D01*
X56292538Y-139692540D01*
X56222859Y-139762219D01*
X56113371Y-139926079D01*
X56113364Y-139926092D01*
X56037950Y-140108160D01*
X56037947Y-140108170D01*
X55999500Y-140301456D01*
X55999500Y-140301459D01*
X55999500Y-145158541D01*
X55999500Y-145158543D01*
X55999499Y-145158543D01*
X56037947Y-145351829D01*
X56037950Y-145351839D01*
X56113364Y-145533907D01*
X56113371Y-145533920D01*
X56222860Y-145697781D01*
X56222863Y-145697785D01*
X56366537Y-145841459D01*
X56366559Y-145841479D01*
X57363281Y-146838201D01*
X57396766Y-146899524D01*
X57398073Y-146906483D01*
X57421523Y-147054535D01*
X57484781Y-147249223D01*
X57577715Y-147431613D01*
X57698028Y-147597213D01*
X57842786Y-147741971D01*
X57956395Y-147824511D01*
X58008390Y-147862287D01*
X58100552Y-147909246D01*
X58190776Y-147955218D01*
X58190778Y-147955218D01*
X58190781Y-147955220D01*
X58225393Y-147966466D01*
X58385465Y-148018477D01*
X58486557Y-148034488D01*
X58587648Y-148050500D01*
X58587649Y-148050500D01*
X58792351Y-148050500D01*
X58792352Y-148050500D01*
X58994534Y-148018477D01*
X59189219Y-147955220D01*
X59371610Y-147862287D01*
X59464590Y-147794732D01*
X59537213Y-147741971D01*
X59537215Y-147741968D01*
X59537219Y-147741966D01*
X59681966Y-147597219D01*
X59681968Y-147597215D01*
X59681971Y-147597213D01*
X59766276Y-147481175D01*
X59802287Y-147431610D01*
X59895220Y-147249219D01*
X59958477Y-147054534D01*
X59990500Y-146852352D01*
X59990500Y-146647648D01*
X65009500Y-146647648D01*
X65009500Y-146852352D01*
X65010634Y-146859514D01*
X65041522Y-147054534D01*
X65104781Y-147249223D01*
X65197715Y-147431613D01*
X65318028Y-147597213D01*
X65462786Y-147741971D01*
X65576395Y-147824511D01*
X65628390Y-147862287D01*
X65720552Y-147909246D01*
X65810776Y-147955218D01*
X65810778Y-147955218D01*
X65810781Y-147955220D01*
X65845393Y-147966466D01*
X66005465Y-148018477D01*
X66106557Y-148034488D01*
X66207648Y-148050500D01*
X66207649Y-148050500D01*
X66412351Y-148050500D01*
X66412352Y-148050500D01*
X66614534Y-148018477D01*
X66809219Y-147955220D01*
X66991610Y-147862287D01*
X67084590Y-147794732D01*
X67157213Y-147741971D01*
X67157215Y-147741968D01*
X67157219Y-147741966D01*
X67301966Y-147597219D01*
X67301968Y-147597215D01*
X67301971Y-147597213D01*
X67386276Y-147481175D01*
X67422287Y-147431610D01*
X67515220Y-147249219D01*
X67578477Y-147054534D01*
X67610500Y-146852352D01*
X67610500Y-146647648D01*
X67578477Y-146445465D01*
X67515218Y-146250776D01*
X67446053Y-146115034D01*
X67422287Y-146068390D01*
X67414556Y-146057749D01*
X67301971Y-145902786D01*
X67157213Y-145758028D01*
X66991613Y-145637715D01*
X66991612Y-145637714D01*
X66991610Y-145637713D01*
X66934653Y-145608691D01*
X66809223Y-145544781D01*
X66614534Y-145481522D01*
X66426690Y-145451771D01*
X66412352Y-145449500D01*
X66207648Y-145449500D01*
X66193310Y-145451771D01*
X66005465Y-145481522D01*
X65810776Y-145544781D01*
X65628386Y-145637715D01*
X65462786Y-145758028D01*
X65318028Y-145902786D01*
X65197715Y-146068386D01*
X65104781Y-146250776D01*
X65041522Y-146445465D01*
X65009500Y-146647648D01*
X59990500Y-146647648D01*
X59958477Y-146445465D01*
X59895218Y-146250776D01*
X59826053Y-146115034D01*
X59802287Y-146068390D01*
X59794556Y-146057749D01*
X59681971Y-145902786D01*
X59537213Y-145758028D01*
X59371613Y-145637715D01*
X59371612Y-145637714D01*
X59371610Y-145637713D01*
X59314653Y-145608691D01*
X59189223Y-145544781D01*
X58994535Y-145481523D01*
X58846483Y-145458073D01*
X58783349Y-145428143D01*
X58778201Y-145423281D01*
X58036819Y-144681899D01*
X58003334Y-144620576D01*
X58000500Y-144594218D01*
X58000500Y-140865782D01*
X58020185Y-140798743D01*
X58036819Y-140778101D01*
X60278102Y-138536819D01*
X60339425Y-138503334D01*
X60365783Y-138500500D01*
X92598542Y-138500500D01*
X92629566Y-138494328D01*
X92695188Y-138481275D01*
X92791836Y-138462051D01*
X92845165Y-138439961D01*
X92973914Y-138386632D01*
X93137782Y-138277139D01*
X93277139Y-138137782D01*
X93277140Y-138137779D01*
X93284206Y-138130714D01*
X93284209Y-138130710D01*
X95509245Y-135905673D01*
X95570566Y-135872190D01*
X95640258Y-135877174D01*
X95696191Y-135919046D01*
X95714853Y-135955034D01*
X95744366Y-136045864D01*
X95748444Y-136058414D01*
X95844951Y-136247820D01*
X95969890Y-136419786D01*
X96120213Y-136570109D01*
X96292182Y-136695050D01*
X96300946Y-136699516D01*
X96351742Y-136747491D01*
X96368536Y-136815312D01*
X96345998Y-136881447D01*
X96300946Y-136920484D01*
X96292182Y-136924949D01*
X96120213Y-137049890D01*
X95969890Y-137200213D01*
X95844951Y-137372179D01*
X95748444Y-137561585D01*
X95682753Y-137763760D01*
X95649500Y-137973713D01*
X95649500Y-138186286D01*
X95681231Y-138386632D01*
X95682754Y-138396243D01*
X95734075Y-138554193D01*
X95748444Y-138598414D01*
X95844951Y-138787820D01*
X95969890Y-138959786D01*
X96120213Y-139110109D01*
X96292182Y-139235050D01*
X96300946Y-139239516D01*
X96351742Y-139287491D01*
X96368536Y-139355312D01*
X96345998Y-139421447D01*
X96300946Y-139460484D01*
X96292182Y-139464949D01*
X96120213Y-139589890D01*
X95969890Y-139740213D01*
X95844948Y-139912184D01*
X95844947Y-139912185D01*
X95824765Y-139951795D01*
X95776791Y-140002591D01*
X95714281Y-140019500D01*
X64209057Y-140019500D01*
X64050943Y-140019500D01*
X63898215Y-140060423D01*
X63898214Y-140060423D01*
X63898212Y-140060424D01*
X63898209Y-140060425D01*
X63848096Y-140089359D01*
X63848095Y-140089360D01*
X63815532Y-140108160D01*
X63761285Y-140139479D01*
X63761282Y-140139481D01*
X63649478Y-140251286D01*
X63024202Y-140876561D01*
X62962879Y-140910046D01*
X62898203Y-140906811D01*
X62873584Y-140898812D01*
X62827952Y-140883985D01*
X62713022Y-140865782D01*
X62610222Y-140849500D01*
X62389778Y-140849500D01*
X62317201Y-140860995D01*
X62172047Y-140883985D01*
X61962396Y-140952103D01*
X61962393Y-140952104D01*
X61765974Y-141052187D01*
X61587641Y-141181752D01*
X61587635Y-141181757D01*
X61566207Y-141203185D01*
X61504884Y-141236669D01*
X61435192Y-141231683D01*
X61379259Y-141189810D01*
X61362346Y-141158834D01*
X61343355Y-141107915D01*
X61343350Y-141107906D01*
X61257190Y-140992812D01*
X61257187Y-140992809D01*
X61142093Y-140906649D01*
X61142086Y-140906645D01*
X61007379Y-140856403D01*
X61007372Y-140856401D01*
X60947844Y-140850000D01*
X60250000Y-140850000D01*
X60250000Y-141816988D01*
X60192993Y-141784075D01*
X60065826Y-141750000D01*
X59934174Y-141750000D01*
X59807007Y-141784075D01*
X59750000Y-141816988D01*
X59750000Y-140850000D01*
X59052155Y-140850000D01*
X58992627Y-140856401D01*
X58992620Y-140856403D01*
X58857913Y-140906645D01*
X58857906Y-140906649D01*
X58742812Y-140992809D01*
X58742809Y-140992812D01*
X58656649Y-141107906D01*
X58656645Y-141107913D01*
X58606403Y-141242620D01*
X58606401Y-141242627D01*
X58600000Y-141302155D01*
X58600000Y-142000000D01*
X59566988Y-142000000D01*
X59534075Y-142057007D01*
X59500000Y-142184174D01*
X59500000Y-142315826D01*
X59534075Y-142442993D01*
X59566988Y-142500000D01*
X58600000Y-142500000D01*
X58600000Y-143197844D01*
X58606401Y-143257372D01*
X58606403Y-143257379D01*
X58656645Y-143392086D01*
X58656649Y-143392093D01*
X58742809Y-143507187D01*
X58742812Y-143507190D01*
X58857906Y-143593350D01*
X58857913Y-143593354D01*
X58992620Y-143643596D01*
X58992627Y-143643598D01*
X59052155Y-143649999D01*
X59052172Y-143650000D01*
X59750000Y-143650000D01*
X59750000Y-142683012D01*
X59807007Y-142715925D01*
X59934174Y-142750000D01*
X60065826Y-142750000D01*
X60192993Y-142715925D01*
X60250000Y-142683012D01*
X60250000Y-143650000D01*
X60947828Y-143650000D01*
X60947844Y-143649999D01*
X61007372Y-143643598D01*
X61007379Y-143643596D01*
X61142086Y-143593354D01*
X61142093Y-143593350D01*
X61257187Y-143507190D01*
X61257190Y-143507187D01*
X61343350Y-143392093D01*
X61343353Y-143392088D01*
X61362345Y-143341166D01*
X61404215Y-143285232D01*
X61469679Y-143260813D01*
X61537952Y-143275663D01*
X61566209Y-143296816D01*
X61587636Y-143318243D01*
X61587641Y-143318247D01*
X61743192Y-143431260D01*
X61765978Y-143447815D01*
X61882501Y-143507187D01*
X61962393Y-143547895D01*
X61962396Y-143547896D01*
X62067221Y-143581955D01*
X62172049Y-143616015D01*
X62389778Y-143650500D01*
X62389779Y-143650500D01*
X62610221Y-143650500D01*
X62610222Y-143650500D01*
X62827951Y-143616015D01*
X63037606Y-143547895D01*
X63234022Y-143447815D01*
X63412365Y-143318242D01*
X63568242Y-143162365D01*
X63649682Y-143050270D01*
X63705011Y-143007606D01*
X63774624Y-143001627D01*
X63836420Y-143034232D01*
X63850313Y-143050265D01*
X63931753Y-143162358D01*
X63931758Y-143162365D01*
X64087636Y-143318243D01*
X64087641Y-143318247D01*
X64243192Y-143431260D01*
X64265978Y-143447815D01*
X64382501Y-143507187D01*
X64462393Y-143547895D01*
X64462396Y-143547896D01*
X64567221Y-143581955D01*
X64672049Y-143616015D01*
X64889778Y-143650500D01*
X64889779Y-143650500D01*
X65110221Y-143650500D01*
X65110222Y-143650500D01*
X65327951Y-143616015D01*
X65537606Y-143547895D01*
X65734022Y-143447815D01*
X65912365Y-143318242D01*
X66068242Y-143162365D01*
X66197815Y-142984022D01*
X66297895Y-142787606D01*
X66366015Y-142577951D01*
X66400500Y-142360222D01*
X66400500Y-142139778D01*
X66366015Y-141922049D01*
X66297895Y-141712394D01*
X66297895Y-141712393D01*
X66263237Y-141644375D01*
X66197815Y-141515978D01*
X66186051Y-141499786D01*
X66126184Y-141417385D01*
X66102704Y-141351579D01*
X66118530Y-141283525D01*
X66168635Y-141234830D01*
X66226502Y-141220500D01*
X95714281Y-141220500D01*
X95781320Y-141240185D01*
X95824765Y-141288205D01*
X95844947Y-141327814D01*
X95844948Y-141327815D01*
X95969890Y-141499786D01*
X96120213Y-141650109D01*
X96292182Y-141775050D01*
X96300946Y-141779516D01*
X96351742Y-141827491D01*
X96368536Y-141895312D01*
X96345998Y-141961447D01*
X96300946Y-142000484D01*
X96292182Y-142004949D01*
X96120213Y-142129890D01*
X95969890Y-142280213D01*
X95844951Y-142452179D01*
X95748444Y-142641585D01*
X95682753Y-142843760D01*
X95650045Y-143050272D01*
X95649500Y-143053713D01*
X95649500Y-143266287D01*
X95682754Y-143476243D01*
X95739211Y-143650000D01*
X95748444Y-143678414D01*
X95844951Y-143867820D01*
X95969890Y-144039786D01*
X96120213Y-144190109D01*
X96292182Y-144315050D01*
X96300946Y-144319516D01*
X96351742Y-144367491D01*
X96368536Y-144435312D01*
X96345998Y-144501447D01*
X96300946Y-144540484D01*
X96292182Y-144544949D01*
X96120213Y-144669890D01*
X95969890Y-144820213D01*
X95844951Y-144992179D01*
X95748444Y-145181585D01*
X95682753Y-145383760D01*
X95670983Y-145458073D01*
X95649500Y-145593713D01*
X95649500Y-145806287D01*
X95682754Y-146016243D01*
X95734075Y-146174193D01*
X95748444Y-146218414D01*
X95844951Y-146407820D01*
X95969890Y-146579786D01*
X96120213Y-146730109D01*
X96292182Y-146855050D01*
X96300946Y-146859516D01*
X96351742Y-146907491D01*
X96368536Y-146975312D01*
X96345998Y-147041447D01*
X96300946Y-147080484D01*
X96292182Y-147084949D01*
X96120213Y-147209890D01*
X95969890Y-147360213D01*
X95844951Y-147532179D01*
X95748444Y-147721583D01*
X95696454Y-147881593D01*
X95657016Y-147939268D01*
X95592657Y-147966466D01*
X95523811Y-147954551D01*
X95473529Y-147909246D01*
X95414038Y-147814567D01*
X95342523Y-147700752D01*
X95167416Y-147481175D01*
X94968825Y-147282584D01*
X94749248Y-147107477D01*
X94511445Y-146958055D01*
X94511442Y-146958053D01*
X94258411Y-146836200D01*
X93993329Y-146743443D01*
X93993317Y-146743439D01*
X93719512Y-146680945D01*
X93719494Y-146680942D01*
X93440431Y-146649500D01*
X93440425Y-146649500D01*
X93159575Y-146649500D01*
X93159568Y-146649500D01*
X92880505Y-146680942D01*
X92880487Y-146680945D01*
X92606682Y-146743439D01*
X92606670Y-146743443D01*
X92341588Y-146836200D01*
X92088557Y-146958053D01*
X91850753Y-147107476D01*
X91631175Y-147282583D01*
X91432583Y-147481175D01*
X91257476Y-147700753D01*
X91108053Y-147938557D01*
X90986200Y-148191588D01*
X90893443Y-148456670D01*
X90893439Y-148456682D01*
X90830945Y-148730487D01*
X90830942Y-148730505D01*
X90799500Y-149009568D01*
X90799500Y-149490431D01*
X90830942Y-149769494D01*
X90830945Y-149769512D01*
X90893439Y-150043317D01*
X90893443Y-150043329D01*
X90986200Y-150308411D01*
X91108053Y-150561442D01*
X91110849Y-150565892D01*
X91257477Y-150799248D01*
X91432584Y-151018825D01*
X91631175Y-151217416D01*
X91850752Y-151392523D01*
X92088555Y-151541945D01*
X92341592Y-151663801D01*
X92540680Y-151733465D01*
X92606670Y-151756556D01*
X92606682Y-151756560D01*
X92880491Y-151819055D01*
X92880497Y-151819055D01*
X92880505Y-151819057D01*
X93066547Y-151840018D01*
X93159569Y-151850499D01*
X93159572Y-151850500D01*
X93159575Y-151850500D01*
X93440428Y-151850500D01*
X93440429Y-151850499D01*
X93583055Y-151834429D01*
X93719494Y-151819057D01*
X93719499Y-151819056D01*
X93719509Y-151819055D01*
X93993318Y-151756560D01*
X94258408Y-151663801D01*
X94511445Y-151541945D01*
X94749248Y-151392523D01*
X94968825Y-151217416D01*
X95167416Y-151018825D01*
X95342523Y-150799248D01*
X95490235Y-150564166D01*
X95542566Y-150517878D01*
X95611620Y-150507229D01*
X95662858Y-150530000D01*
X96566988Y-150530000D01*
X96534075Y-150587007D01*
X96500000Y-150714174D01*
X96500000Y-150845826D01*
X96534075Y-150972993D01*
X96566988Y-151030000D01*
X95672769Y-151030000D01*
X95683242Y-151096126D01*
X95683242Y-151096129D01*
X95748904Y-151298217D01*
X95845379Y-151487557D01*
X95970272Y-151659459D01*
X95970276Y-151659464D01*
X96120535Y-151809723D01*
X96120540Y-151809727D01*
X96292442Y-151934620D01*
X96481782Y-152031095D01*
X96683871Y-152096757D01*
X96750000Y-152107231D01*
X96750000Y-151213012D01*
X96807007Y-151245925D01*
X96934174Y-151280000D01*
X97065826Y-151280000D01*
X97192993Y-151245925D01*
X97250000Y-151213012D01*
X97250000Y-152107230D01*
X97316126Y-152096757D01*
X97316129Y-152096757D01*
X97518217Y-152031095D01*
X97707557Y-151934620D01*
X97879459Y-151809727D01*
X97879464Y-151809723D01*
X98029723Y-151659464D01*
X98029727Y-151659459D01*
X98154620Y-151487557D01*
X98251093Y-151298221D01*
X98257568Y-151278294D01*
X98297005Y-151220618D01*
X98361363Y-151193419D01*
X98430210Y-151205333D01*
X98481686Y-151252576D01*
X98499500Y-151316611D01*
X98499500Y-166375500D01*
X98479815Y-166442539D01*
X98427011Y-166488294D01*
X98375500Y-166499500D01*
X68124500Y-166499500D01*
X68057461Y-166479815D01*
X68011706Y-166427011D01*
X68000500Y-166375500D01*
X68000500Y-159302155D01*
X82350000Y-159302155D01*
X82350000Y-160000000D01*
X83316988Y-160000000D01*
X83284075Y-160057007D01*
X83250000Y-160184174D01*
X83250000Y-160315826D01*
X83284075Y-160442993D01*
X83316988Y-160500000D01*
X82350000Y-160500000D01*
X82350000Y-161197844D01*
X82356401Y-161257372D01*
X82356403Y-161257379D01*
X82406645Y-161392086D01*
X82406649Y-161392093D01*
X82492809Y-161507187D01*
X82492812Y-161507190D01*
X82607906Y-161593350D01*
X82607913Y-161593354D01*
X82742620Y-161643596D01*
X82742627Y-161643598D01*
X82802155Y-161649999D01*
X82802172Y-161650000D01*
X83500000Y-161650000D01*
X83500000Y-160683012D01*
X83557007Y-160715925D01*
X83684174Y-160750000D01*
X83815826Y-160750000D01*
X83942993Y-160715925D01*
X84000000Y-160683012D01*
X84000000Y-161650000D01*
X84697828Y-161650000D01*
X84697844Y-161649999D01*
X84757372Y-161643598D01*
X84757379Y-161643596D01*
X84892086Y-161593354D01*
X84892093Y-161593350D01*
X85007187Y-161507190D01*
X85007190Y-161507187D01*
X85093350Y-161392093D01*
X85093353Y-161392088D01*
X85112345Y-161341166D01*
X85154215Y-161285232D01*
X85219679Y-161260813D01*
X85287952Y-161275663D01*
X85316209Y-161296816D01*
X85337636Y-161318243D01*
X85337641Y-161318247D01*
X85493192Y-161431260D01*
X85515978Y-161447815D01*
X85632501Y-161507187D01*
X85712393Y-161547895D01*
X85712396Y-161547896D01*
X85817221Y-161581955D01*
X85922049Y-161616015D01*
X86139778Y-161650500D01*
X86139779Y-161650500D01*
X86360221Y-161650500D01*
X86360222Y-161650500D01*
X86577951Y-161616015D01*
X86787606Y-161547895D01*
X86984022Y-161447815D01*
X87162365Y-161318242D01*
X87318242Y-161162365D01*
X87399682Y-161050270D01*
X87455011Y-161007606D01*
X87524624Y-161001627D01*
X87586420Y-161034232D01*
X87600313Y-161050265D01*
X87681753Y-161162358D01*
X87681758Y-161162365D01*
X87837636Y-161318243D01*
X87837641Y-161318247D01*
X87993192Y-161431260D01*
X88015978Y-161447815D01*
X88132501Y-161507187D01*
X88212393Y-161547895D01*
X88212396Y-161547896D01*
X88317221Y-161581955D01*
X88422049Y-161616015D01*
X88639778Y-161650500D01*
X88639779Y-161650500D01*
X88860221Y-161650500D01*
X88860222Y-161650500D01*
X89077951Y-161616015D01*
X89287606Y-161547895D01*
X89484022Y-161447815D01*
X89662365Y-161318242D01*
X89818242Y-161162365D01*
X89899682Y-161050270D01*
X89955011Y-161007606D01*
X90024624Y-161001627D01*
X90086420Y-161034232D01*
X90100313Y-161050265D01*
X90181753Y-161162358D01*
X90181758Y-161162365D01*
X90337636Y-161318243D01*
X90337641Y-161318247D01*
X90493192Y-161431260D01*
X90515978Y-161447815D01*
X90632501Y-161507187D01*
X90712393Y-161547895D01*
X90712396Y-161547896D01*
X90817221Y-161581955D01*
X90922049Y-161616015D01*
X91139778Y-161650500D01*
X91139779Y-161650500D01*
X91360221Y-161650500D01*
X91360222Y-161650500D01*
X91577951Y-161616015D01*
X91787606Y-161547895D01*
X91984022Y-161447815D01*
X92162365Y-161318242D01*
X92318242Y-161162365D01*
X92447815Y-160984022D01*
X92547895Y-160787606D01*
X92616015Y-160577951D01*
X92650500Y-160360222D01*
X92650500Y-160139778D01*
X92616015Y-159922049D01*
X92547895Y-159712394D01*
X92547895Y-159712393D01*
X92513237Y-159644375D01*
X92447815Y-159515978D01*
X92399681Y-159449727D01*
X92318247Y-159337641D01*
X92318243Y-159337636D01*
X92162363Y-159181756D01*
X92162358Y-159181752D01*
X91984025Y-159052187D01*
X91984024Y-159052186D01*
X91984022Y-159052185D01*
X91921096Y-159020122D01*
X91787606Y-158952104D01*
X91787603Y-158952103D01*
X91577952Y-158883985D01*
X91469086Y-158866742D01*
X91360222Y-158849500D01*
X91139778Y-158849500D01*
X91067201Y-158860995D01*
X90922047Y-158883985D01*
X90712396Y-158952103D01*
X90712393Y-158952104D01*
X90515974Y-159052187D01*
X90337641Y-159181752D01*
X90337636Y-159181756D01*
X90181756Y-159337636D01*
X90181752Y-159337641D01*
X90100318Y-159449727D01*
X90044989Y-159492393D01*
X89975375Y-159498372D01*
X89913580Y-159465767D01*
X89899682Y-159449727D01*
X89818247Y-159337641D01*
X89818243Y-159337636D01*
X89662363Y-159181756D01*
X89662358Y-159181752D01*
X89484025Y-159052187D01*
X89484024Y-159052186D01*
X89484022Y-159052185D01*
X89421096Y-159020122D01*
X89287606Y-158952104D01*
X89287603Y-158952103D01*
X89077952Y-158883985D01*
X88969086Y-158866742D01*
X88860222Y-158849500D01*
X88639778Y-158849500D01*
X88567201Y-158860995D01*
X88422047Y-158883985D01*
X88212396Y-158952103D01*
X88212393Y-158952104D01*
X88015974Y-159052187D01*
X87837641Y-159181752D01*
X87837636Y-159181756D01*
X87681756Y-159337636D01*
X87681752Y-159337641D01*
X87600318Y-159449727D01*
X87544989Y-159492393D01*
X87475375Y-159498372D01*
X87413580Y-159465767D01*
X87399682Y-159449727D01*
X87318247Y-159337641D01*
X87318243Y-159337636D01*
X87162363Y-159181756D01*
X87162358Y-159181752D01*
X86984025Y-159052187D01*
X86984024Y-159052186D01*
X86984022Y-159052185D01*
X86921096Y-159020122D01*
X86787606Y-158952104D01*
X86787603Y-158952103D01*
X86577952Y-158883985D01*
X86469086Y-158866742D01*
X86360222Y-158849500D01*
X86139778Y-158849500D01*
X86067201Y-158860995D01*
X85922047Y-158883985D01*
X85712396Y-158952103D01*
X85712393Y-158952104D01*
X85515974Y-159052187D01*
X85337641Y-159181752D01*
X85337635Y-159181757D01*
X85316207Y-159203185D01*
X85254884Y-159236669D01*
X85185192Y-159231683D01*
X85129259Y-159189810D01*
X85112346Y-159158834D01*
X85093355Y-159107915D01*
X85093350Y-159107906D01*
X85007190Y-158992812D01*
X85007187Y-158992809D01*
X84892093Y-158906649D01*
X84892086Y-158906645D01*
X84757379Y-158856403D01*
X84757372Y-158856401D01*
X84697844Y-158850000D01*
X84000000Y-158850000D01*
X84000000Y-159816988D01*
X83942993Y-159784075D01*
X83815826Y-159750000D01*
X83684174Y-159750000D01*
X83557007Y-159784075D01*
X83500000Y-159816988D01*
X83500000Y-158850000D01*
X82802155Y-158850000D01*
X82742627Y-158856401D01*
X82742620Y-158856403D01*
X82607913Y-158906645D01*
X82607906Y-158906649D01*
X82492812Y-158992809D01*
X82492809Y-158992812D01*
X82406649Y-159107906D01*
X82406645Y-159107913D01*
X82356403Y-159242620D01*
X82356401Y-159242627D01*
X82350000Y-159302155D01*
X68000500Y-159302155D01*
X68000500Y-150434110D01*
X68000500Y-150434108D01*
X67966392Y-150306814D01*
X67900500Y-150192686D01*
X67807314Y-150099500D01*
X67750250Y-150066554D01*
X67693187Y-150033608D01*
X67629539Y-150016554D01*
X67565892Y-149999500D01*
X67565891Y-149999500D01*
X51624500Y-149999500D01*
X51557461Y-149979815D01*
X51511706Y-149927011D01*
X51500500Y-149875500D01*
X51500500Y-149009568D01*
X79199500Y-149009568D01*
X79199500Y-149490431D01*
X79230942Y-149769494D01*
X79230945Y-149769512D01*
X79293439Y-150043317D01*
X79293443Y-150043329D01*
X79386200Y-150308411D01*
X79508053Y-150561442D01*
X79510849Y-150565892D01*
X79657477Y-150799248D01*
X79832584Y-151018825D01*
X80031175Y-151217416D01*
X80250752Y-151392523D01*
X80488555Y-151541945D01*
X80741592Y-151663801D01*
X80940680Y-151733465D01*
X81006670Y-151756556D01*
X81006682Y-151756560D01*
X81280491Y-151819055D01*
X81280497Y-151819055D01*
X81280505Y-151819057D01*
X81466547Y-151840018D01*
X81559569Y-151850499D01*
X81559572Y-151850500D01*
X81559575Y-151850500D01*
X81840428Y-151850500D01*
X81840429Y-151850499D01*
X81983055Y-151834429D01*
X82119494Y-151819057D01*
X82119499Y-151819056D01*
X82119509Y-151819055D01*
X82393318Y-151756560D01*
X82658408Y-151663801D01*
X82911445Y-151541945D01*
X83149248Y-151392523D01*
X83368825Y-151217416D01*
X83567416Y-151018825D01*
X83742523Y-150799248D01*
X83891945Y-150561445D01*
X84013801Y-150308408D01*
X84106560Y-150043318D01*
X84169055Y-149769509D01*
X84171223Y-149750272D01*
X84197665Y-149515587D01*
X84200500Y-149490425D01*
X84200500Y-149009575D01*
X84178946Y-148818277D01*
X84169057Y-148730505D01*
X84169054Y-148730487D01*
X84106560Y-148456682D01*
X84106556Y-148456670D01*
X84067931Y-148346287D01*
X84013801Y-148191592D01*
X83891945Y-147938555D01*
X83742523Y-147700752D01*
X83567416Y-147481175D01*
X83368825Y-147282584D01*
X83149248Y-147107477D01*
X82911445Y-146958055D01*
X82911442Y-146958053D01*
X82658411Y-146836200D01*
X82393329Y-146743443D01*
X82393317Y-146743439D01*
X82119512Y-146680945D01*
X82119494Y-146680942D01*
X81840431Y-146649500D01*
X81840425Y-146649500D01*
X81559575Y-146649500D01*
X81559568Y-146649500D01*
X81280505Y-146680942D01*
X81280487Y-146680945D01*
X81006682Y-146743439D01*
X81006670Y-146743443D01*
X80741588Y-146836200D01*
X80488557Y-146958053D01*
X80250753Y-147107476D01*
X80031175Y-147282583D01*
X79832583Y-147481175D01*
X79657476Y-147700753D01*
X79508053Y-147938557D01*
X79386200Y-148191588D01*
X79293443Y-148456670D01*
X79293439Y-148456682D01*
X79230945Y-148730487D01*
X79230942Y-148730505D01*
X79199500Y-149009568D01*
X51500500Y-149009568D01*
X51500500Y-134368048D01*
X55839500Y-134368048D01*
X55839500Y-135131951D01*
X55866013Y-135333333D01*
X55871334Y-135373744D01*
X55934456Y-135609320D01*
X55934459Y-135609330D01*
X56027786Y-135834640D01*
X56027791Y-135834651D01*
X56149727Y-136045848D01*
X56149738Y-136045864D01*
X56298199Y-136239343D01*
X56298205Y-136239350D01*
X56470649Y-136411794D01*
X56470656Y-136411800D01*
X56537617Y-136463181D01*
X56664144Y-136560268D01*
X56664151Y-136560272D01*
X56875348Y-136682208D01*
X56875353Y-136682210D01*
X56875356Y-136682212D01*
X57100679Y-136775544D01*
X57336256Y-136838666D01*
X57578056Y-136870500D01*
X57578063Y-136870500D01*
X57821937Y-136870500D01*
X57821944Y-136870500D01*
X58063744Y-136838666D01*
X58299321Y-136775544D01*
X58524644Y-136682212D01*
X58735856Y-136560268D01*
X58929345Y-136411799D01*
X59101799Y-136239345D01*
X59250268Y-136045856D01*
X59372212Y-135834644D01*
X59465544Y-135609321D01*
X59528666Y-135373744D01*
X59560500Y-135131944D01*
X59560500Y-134368056D01*
X59528666Y-134126256D01*
X59465544Y-133890679D01*
X59372212Y-133665356D01*
X59372210Y-133665353D01*
X59372208Y-133665348D01*
X59250272Y-133454151D01*
X59250268Y-133454144D01*
X59101799Y-133260655D01*
X59101794Y-133260649D01*
X58929350Y-133088205D01*
X58929343Y-133088199D01*
X58735864Y-132939738D01*
X58735862Y-132939736D01*
X58735856Y-132939732D01*
X58735851Y-132939729D01*
X58735848Y-132939727D01*
X58524651Y-132817791D01*
X58524640Y-132817786D01*
X58299330Y-132724459D01*
X58299323Y-132724457D01*
X58299321Y-132724456D01*
X58063744Y-132661334D01*
X58023333Y-132656013D01*
X57821951Y-132629500D01*
X57821944Y-132629500D01*
X57578056Y-132629500D01*
X57578048Y-132629500D01*
X57347896Y-132659801D01*
X57336256Y-132661334D01*
X57200117Y-132697812D01*
X57100679Y-132724456D01*
X57100669Y-132724459D01*
X56875359Y-132817786D01*
X56875348Y-132817791D01*
X56664151Y-132939727D01*
X56664135Y-132939738D01*
X56470656Y-133088199D01*
X56470649Y-133088205D01*
X56298205Y-133260649D01*
X56298199Y-133260656D01*
X56149738Y-133454135D01*
X56149727Y-133454151D01*
X56027791Y-133665348D01*
X56027786Y-133665359D01*
X55934459Y-133890669D01*
X55934456Y-133890679D01*
X55871335Y-134126253D01*
X55871333Y-134126264D01*
X55839500Y-134368048D01*
X51500500Y-134368048D01*
X51500500Y-115812782D01*
X51520185Y-115745743D01*
X51572989Y-115699988D01*
X51642147Y-115690044D01*
X51705703Y-115719069D01*
X51712180Y-115725100D01*
X54874860Y-118887781D01*
X54874861Y-118887782D01*
X55014218Y-119027139D01*
X55178086Y-119136632D01*
X55178088Y-119136633D01*
X55178092Y-119136635D01*
X55269123Y-119174340D01*
X55269124Y-119174341D01*
X55306835Y-119189961D01*
X55360165Y-119212052D01*
X55510556Y-119241966D01*
X55539158Y-119247655D01*
X55553458Y-119250500D01*
X55553459Y-119250500D01*
X55553460Y-119250500D01*
X55750540Y-119250500D01*
X57814238Y-119250500D01*
X57881277Y-119270185D01*
X57887119Y-119274179D01*
X58008390Y-119362287D01*
X58124607Y-119421503D01*
X58190776Y-119455218D01*
X58190778Y-119455218D01*
X58190781Y-119455220D01*
X58295137Y-119489127D01*
X58385465Y-119518477D01*
X58486557Y-119534488D01*
X58587648Y-119550500D01*
X58587649Y-119550500D01*
X58792351Y-119550500D01*
X58792352Y-119550500D01*
X58994534Y-119518477D01*
X59189219Y-119455220D01*
X59371610Y-119362287D01*
X59498379Y-119270185D01*
X59537213Y-119241971D01*
X59537220Y-119241965D01*
X59604845Y-119174340D01*
X59681966Y-119097219D01*
X59681968Y-119097215D01*
X59681971Y-119097213D01*
X59734732Y-119024590D01*
X59802287Y-118931610D01*
X59895220Y-118749219D01*
X59958477Y-118554534D01*
X59990500Y-118352352D01*
X59990500Y-118147648D01*
X65009500Y-118147648D01*
X65009500Y-118352351D01*
X65041522Y-118554534D01*
X65104781Y-118749223D01*
X65168691Y-118874653D01*
X65175381Y-118887782D01*
X65197715Y-118931613D01*
X65318028Y-119097213D01*
X65462786Y-119241971D01*
X65617749Y-119354556D01*
X65628390Y-119362287D01*
X65744607Y-119421503D01*
X65810776Y-119455218D01*
X65810778Y-119455218D01*
X65810781Y-119455220D01*
X65915137Y-119489127D01*
X66005465Y-119518477D01*
X66106557Y-119534488D01*
X66207648Y-119550500D01*
X66207649Y-119550500D01*
X66412351Y-119550500D01*
X66412352Y-119550500D01*
X66614534Y-119518477D01*
X66809219Y-119455220D01*
X66991610Y-119362287D01*
X67118379Y-119270185D01*
X67157213Y-119241971D01*
X67157220Y-119241965D01*
X67224845Y-119174340D01*
X67301966Y-119097219D01*
X67301968Y-119097215D01*
X67301971Y-119097213D01*
X67354732Y-119024590D01*
X67422287Y-118931610D01*
X67515220Y-118749219D01*
X67578477Y-118554534D01*
X67610500Y-118352352D01*
X67610500Y-118147648D01*
X67586076Y-117993443D01*
X67578477Y-117945465D01*
X67515218Y-117750776D01*
X67481503Y-117684607D01*
X67422287Y-117568390D01*
X67414556Y-117557749D01*
X67301971Y-117402786D01*
X67157213Y-117258028D01*
X66991613Y-117137715D01*
X66991612Y-117137714D01*
X66991610Y-117137713D01*
X66934653Y-117108691D01*
X66809223Y-117044781D01*
X66614534Y-116981522D01*
X66439995Y-116953878D01*
X66412352Y-116949500D01*
X66207648Y-116949500D01*
X66183329Y-116953351D01*
X66005465Y-116981522D01*
X65810776Y-117044781D01*
X65628386Y-117137715D01*
X65462786Y-117258028D01*
X65318028Y-117402786D01*
X65197715Y-117568386D01*
X65104781Y-117750776D01*
X65041522Y-117945465D01*
X65009500Y-118147648D01*
X59990500Y-118147648D01*
X59966076Y-117993443D01*
X59958477Y-117945465D01*
X59895218Y-117750776D01*
X59861503Y-117684607D01*
X59802287Y-117568390D01*
X59794556Y-117557749D01*
X59681971Y-117402786D01*
X59537213Y-117258028D01*
X59371613Y-117137715D01*
X59371612Y-117137714D01*
X59371610Y-117137713D01*
X59314653Y-117108691D01*
X59189223Y-117044781D01*
X58994534Y-116981522D01*
X58819995Y-116953878D01*
X58792352Y-116949500D01*
X58587648Y-116949500D01*
X58563329Y-116953351D01*
X58385465Y-116981522D01*
X58190776Y-117044781D01*
X58008386Y-117137715D01*
X57887123Y-117225818D01*
X57821317Y-117249298D01*
X57814238Y-117249500D01*
X56117783Y-117249500D01*
X56050744Y-117229815D01*
X56030102Y-117213181D01*
X54132685Y-115315764D01*
X54099200Y-115254441D01*
X54104184Y-115184749D01*
X54146056Y-115128816D01*
X54211520Y-115104399D01*
X54239764Y-115105610D01*
X54250000Y-115107231D01*
X54250000Y-114213012D01*
X54307007Y-114245925D01*
X54434174Y-114280000D01*
X54565826Y-114280000D01*
X54692993Y-114245925D01*
X54750000Y-114213012D01*
X54750000Y-115107230D01*
X54816126Y-115096757D01*
X54816129Y-115096757D01*
X55018217Y-115031095D01*
X55207557Y-114934620D01*
X55379459Y-114809727D01*
X55379464Y-114809723D01*
X55529723Y-114659464D01*
X55529727Y-114659459D01*
X55654620Y-114487557D01*
X55751095Y-114298217D01*
X55816757Y-114096129D01*
X55816757Y-114096126D01*
X55827231Y-114030000D01*
X54933012Y-114030000D01*
X54965925Y-113972993D01*
X55000000Y-113845826D01*
X55000000Y-113714174D01*
X54965925Y-113587007D01*
X54933012Y-113530000D01*
X55827231Y-113530000D01*
X55816757Y-113463873D01*
X55816757Y-113463870D01*
X55751095Y-113261782D01*
X55654620Y-113072442D01*
X55529727Y-112900540D01*
X55529723Y-112900535D01*
X55379464Y-112750276D01*
X55379459Y-112750272D01*
X55242585Y-112650827D01*
X55186003Y-112613531D01*
X55167725Y-112591937D01*
X55147157Y-112572512D01*
X55145450Y-112565620D01*
X55140863Y-112560201D01*
X55139801Y-112552155D01*
X58600000Y-112552155D01*
X58600000Y-113250000D01*
X59566988Y-113250000D01*
X59534075Y-113307007D01*
X59500000Y-113434174D01*
X59500000Y-113565826D01*
X59534075Y-113692993D01*
X59566988Y-113750000D01*
X58600000Y-113750000D01*
X58600000Y-114447844D01*
X58606401Y-114507372D01*
X58606403Y-114507379D01*
X58656645Y-114642086D01*
X58656649Y-114642093D01*
X58742809Y-114757187D01*
X58742812Y-114757190D01*
X58857906Y-114843350D01*
X58857913Y-114843354D01*
X58992620Y-114893596D01*
X58992627Y-114893598D01*
X59052155Y-114899999D01*
X59052172Y-114900000D01*
X59750000Y-114900000D01*
X59750000Y-113933012D01*
X59807007Y-113965925D01*
X59934174Y-114000000D01*
X60065826Y-114000000D01*
X60192993Y-113965925D01*
X60250000Y-113933012D01*
X60250000Y-114900000D01*
X60947828Y-114900000D01*
X60947844Y-114899999D01*
X61007372Y-114893598D01*
X61007379Y-114893596D01*
X61142086Y-114843354D01*
X61142093Y-114843350D01*
X61257187Y-114757190D01*
X61257190Y-114757187D01*
X61343350Y-114642093D01*
X61343353Y-114642088D01*
X61362345Y-114591166D01*
X61404215Y-114535232D01*
X61469679Y-114510813D01*
X61537952Y-114525663D01*
X61566209Y-114546816D01*
X61587636Y-114568243D01*
X61587641Y-114568247D01*
X61713185Y-114659459D01*
X61765978Y-114697815D01*
X61882501Y-114757187D01*
X61962393Y-114797895D01*
X61962396Y-114797896D01*
X62067221Y-114831955D01*
X62172049Y-114866015D01*
X62389778Y-114900500D01*
X62389779Y-114900500D01*
X62610221Y-114900500D01*
X62610222Y-114900500D01*
X62827951Y-114866015D01*
X63037606Y-114797895D01*
X63234022Y-114697815D01*
X63412365Y-114568242D01*
X63568242Y-114412365D01*
X63649682Y-114300270D01*
X63705011Y-114257606D01*
X63774624Y-114251627D01*
X63836420Y-114284232D01*
X63850313Y-114300265D01*
X63931753Y-114412358D01*
X63931758Y-114412365D01*
X64087636Y-114568243D01*
X64087641Y-114568247D01*
X64213185Y-114659459D01*
X64265978Y-114697815D01*
X64382501Y-114757187D01*
X64462393Y-114797895D01*
X64462396Y-114797896D01*
X64567221Y-114831955D01*
X64672049Y-114866015D01*
X64889778Y-114900500D01*
X64889779Y-114900500D01*
X65110221Y-114900500D01*
X65110222Y-114900500D01*
X65327951Y-114866015D01*
X65537606Y-114797895D01*
X65734022Y-114697815D01*
X65912365Y-114568242D01*
X66068242Y-114412365D01*
X66197815Y-114234022D01*
X66297895Y-114037606D01*
X66366015Y-113827951D01*
X66400500Y-113610222D01*
X66400500Y-113389778D01*
X66366015Y-113172049D01*
X66297895Y-112962394D01*
X66297895Y-112962393D01*
X66263237Y-112894375D01*
X66197815Y-112765978D01*
X66149681Y-112699727D01*
X66068247Y-112587641D01*
X66068243Y-112587636D01*
X65912363Y-112431756D01*
X65912358Y-112431752D01*
X65734025Y-112302187D01*
X65734024Y-112302186D01*
X65734022Y-112302185D01*
X65670312Y-112269723D01*
X65537606Y-112202104D01*
X65537603Y-112202103D01*
X65327952Y-112133985D01*
X65219086Y-112116742D01*
X65110222Y-112099500D01*
X64889778Y-112099500D01*
X64817201Y-112110995D01*
X64672047Y-112133985D01*
X64462396Y-112202103D01*
X64462393Y-112202104D01*
X64265974Y-112302187D01*
X64087641Y-112431752D01*
X64087636Y-112431756D01*
X63931756Y-112587636D01*
X63931752Y-112587641D01*
X63850318Y-112699727D01*
X63794989Y-112742393D01*
X63725375Y-112748372D01*
X63663580Y-112715767D01*
X63649682Y-112699727D01*
X63568247Y-112587641D01*
X63568243Y-112587636D01*
X63412363Y-112431756D01*
X63412358Y-112431752D01*
X63234025Y-112302187D01*
X63234024Y-112302186D01*
X63234022Y-112302185D01*
X63170312Y-112269723D01*
X63037606Y-112202104D01*
X63037603Y-112202103D01*
X62827952Y-112133985D01*
X62719086Y-112116742D01*
X62610222Y-112099500D01*
X62389778Y-112099500D01*
X62317201Y-112110995D01*
X62172047Y-112133985D01*
X61962396Y-112202103D01*
X61962393Y-112202104D01*
X61765974Y-112302187D01*
X61587641Y-112431752D01*
X61587635Y-112431757D01*
X61566207Y-112453185D01*
X61504884Y-112486669D01*
X61435192Y-112481683D01*
X61379259Y-112439810D01*
X61362346Y-112408834D01*
X61343355Y-112357915D01*
X61343350Y-112357906D01*
X61257190Y-112242812D01*
X61257187Y-112242809D01*
X61142093Y-112156649D01*
X61142086Y-112156645D01*
X61007379Y-112106403D01*
X61007372Y-112106401D01*
X60947844Y-112100000D01*
X60250000Y-112100000D01*
X60250000Y-113066988D01*
X60192993Y-113034075D01*
X60065826Y-113000000D01*
X59934174Y-113000000D01*
X59807007Y-113034075D01*
X59750000Y-113066988D01*
X59750000Y-112100000D01*
X59052155Y-112100000D01*
X58992627Y-112106401D01*
X58992620Y-112106403D01*
X58857913Y-112156645D01*
X58857906Y-112156649D01*
X58742812Y-112242809D01*
X58742809Y-112242812D01*
X58656649Y-112357906D01*
X58656645Y-112357913D01*
X58606403Y-112492620D01*
X58606401Y-112492627D01*
X58600000Y-112552155D01*
X55139801Y-112552155D01*
X55137161Y-112532151D01*
X55130361Y-112504692D01*
X55132650Y-112497971D01*
X55131722Y-112490932D01*
X55143771Y-112465335D01*
X55152897Y-112438556D01*
X55158776Y-112433460D01*
X55161481Y-112427717D01*
X55175646Y-112418843D01*
X55197954Y-112399514D01*
X55207558Y-112394620D01*
X55379459Y-112269727D01*
X55379464Y-112269723D01*
X55529723Y-112119464D01*
X55529727Y-112119459D01*
X55654620Y-111947557D01*
X55751095Y-111758217D01*
X55816757Y-111556129D01*
X55816757Y-111556126D01*
X55827231Y-111490000D01*
X54933012Y-111490000D01*
X54965925Y-111432993D01*
X55000000Y-111305826D01*
X55000000Y-111174174D01*
X54965925Y-111047007D01*
X54933012Y-110990000D01*
X55827231Y-110990000D01*
X55816757Y-110923873D01*
X55816757Y-110923870D01*
X55751095Y-110721782D01*
X55705244Y-110631795D01*
X55692348Y-110563126D01*
X55718624Y-110498386D01*
X55775730Y-110458128D01*
X55815729Y-110451500D01*
X64300903Y-110451500D01*
X64367942Y-110471185D01*
X64388584Y-110487819D01*
X83963681Y-130062916D01*
X83997166Y-130124239D01*
X84000000Y-130150597D01*
X84000000Y-131066988D01*
X83942993Y-131034075D01*
X83815826Y-131000000D01*
X83684174Y-131000000D01*
X83557007Y-131034075D01*
X83500000Y-131066988D01*
X83500000Y-130100000D01*
X82802155Y-130100000D01*
X82742627Y-130106401D01*
X82742620Y-130106403D01*
X82607913Y-130156645D01*
X82607906Y-130156649D01*
X82492812Y-130242809D01*
X82492809Y-130242812D01*
X82406649Y-130357906D01*
X82406645Y-130357913D01*
X82356403Y-130492620D01*
X82356401Y-130492627D01*
X82350000Y-130552155D01*
X82350000Y-131250000D01*
X83316988Y-131250000D01*
X83284075Y-131307007D01*
X83250000Y-131434174D01*
X83250000Y-131565826D01*
X83284075Y-131692993D01*
X83316988Y-131750000D01*
X82350000Y-131750000D01*
X82350000Y-132447844D01*
X82356401Y-132507372D01*
X82356403Y-132507379D01*
X82406645Y-132642086D01*
X82406649Y-132642093D01*
X82492809Y-132757187D01*
X82492812Y-132757190D01*
X82607906Y-132843350D01*
X82607913Y-132843354D01*
X82742620Y-132893596D01*
X82742627Y-132893598D01*
X82802155Y-132899999D01*
X82802172Y-132900000D01*
X83500000Y-132900000D01*
X83500000Y-131933012D01*
X83557007Y-131965925D01*
X83684174Y-132000000D01*
X83815826Y-132000000D01*
X83942993Y-131965925D01*
X84000000Y-131933012D01*
X84000000Y-132900000D01*
X84697828Y-132900000D01*
X84697844Y-132899999D01*
X84757372Y-132893598D01*
X84757379Y-132893596D01*
X84892086Y-132843354D01*
X84892093Y-132843350D01*
X85007187Y-132757190D01*
X85007190Y-132757187D01*
X85093350Y-132642093D01*
X85093353Y-132642088D01*
X85112345Y-132591166D01*
X85154215Y-132535232D01*
X85219679Y-132510813D01*
X85287952Y-132525663D01*
X85316209Y-132546816D01*
X85337636Y-132568243D01*
X85337641Y-132568247D01*
X85465766Y-132661334D01*
X85515978Y-132697815D01*
X85632501Y-132757187D01*
X85712393Y-132797895D01*
X85712396Y-132797896D01*
X85817221Y-132831955D01*
X85922049Y-132866015D01*
X86139778Y-132900500D01*
X86139779Y-132900500D01*
X86360221Y-132900500D01*
X86360222Y-132900500D01*
X86577951Y-132866015D01*
X86787606Y-132797895D01*
X86984022Y-132697815D01*
X87162365Y-132568242D01*
X87318242Y-132412365D01*
X87399682Y-132300270D01*
X87455011Y-132257606D01*
X87524624Y-132251627D01*
X87586420Y-132284232D01*
X87600313Y-132300265D01*
X87681753Y-132412358D01*
X87681758Y-132412365D01*
X87837636Y-132568243D01*
X87837641Y-132568247D01*
X87965766Y-132661334D01*
X88015978Y-132697815D01*
X88132501Y-132757187D01*
X88212393Y-132797895D01*
X88212396Y-132797896D01*
X88317221Y-132831955D01*
X88422049Y-132866015D01*
X88639778Y-132900500D01*
X88639779Y-132900500D01*
X88860221Y-132900500D01*
X88860222Y-132900500D01*
X89077951Y-132866015D01*
X89287606Y-132797895D01*
X89484022Y-132697815D01*
X89662365Y-132568242D01*
X89818242Y-132412365D01*
X89899682Y-132300270D01*
X89955011Y-132257606D01*
X90024624Y-132251627D01*
X90086420Y-132284232D01*
X90100313Y-132300265D01*
X90181753Y-132412358D01*
X90181758Y-132412365D01*
X90337636Y-132568243D01*
X90337641Y-132568247D01*
X90465766Y-132661334D01*
X90515978Y-132697815D01*
X90632501Y-132757187D01*
X90712393Y-132797895D01*
X90712396Y-132797896D01*
X90817221Y-132831955D01*
X90922049Y-132866015D01*
X91139778Y-132900500D01*
X91139779Y-132900500D01*
X91360221Y-132900500D01*
X91360222Y-132900500D01*
X91577951Y-132866015D01*
X91787606Y-132797895D01*
X91984022Y-132697815D01*
X92162365Y-132568242D01*
X92318242Y-132412365D01*
X92447815Y-132234022D01*
X92547895Y-132037606D01*
X92616015Y-131827951D01*
X92650500Y-131610222D01*
X92650500Y-131389778D01*
X92616015Y-131172049D01*
X92547895Y-130962394D01*
X92547895Y-130962393D01*
X92513237Y-130894375D01*
X92447815Y-130765978D01*
X92399681Y-130699727D01*
X92318247Y-130587641D01*
X92318243Y-130587636D01*
X92162363Y-130431756D01*
X92162358Y-130431752D01*
X91984025Y-130302187D01*
X91984024Y-130302186D01*
X91984022Y-130302185D01*
X91921096Y-130270122D01*
X91787606Y-130202104D01*
X91787603Y-130202103D01*
X91577952Y-130133985D01*
X91469086Y-130116742D01*
X91360222Y-130099500D01*
X91139778Y-130099500D01*
X91067201Y-130110995D01*
X90922047Y-130133985D01*
X90712396Y-130202103D01*
X90712393Y-130202104D01*
X90515974Y-130302187D01*
X90337641Y-130431752D01*
X90337636Y-130431756D01*
X90181756Y-130587636D01*
X90181752Y-130587641D01*
X90100318Y-130699727D01*
X90044989Y-130742393D01*
X89975375Y-130748372D01*
X89913580Y-130715767D01*
X89899682Y-130699727D01*
X89818247Y-130587641D01*
X89818243Y-130587636D01*
X89662363Y-130431756D01*
X89662358Y-130431752D01*
X89484025Y-130302187D01*
X89484024Y-130302186D01*
X89484022Y-130302185D01*
X89421096Y-130270122D01*
X89287606Y-130202104D01*
X89287603Y-130202103D01*
X89077952Y-130133985D01*
X88969086Y-130116742D01*
X88860222Y-130099500D01*
X88639778Y-130099500D01*
X88596232Y-130106397D01*
X88422045Y-130133985D01*
X88351794Y-130156811D01*
X88281953Y-130158806D01*
X88225796Y-130126561D01*
X81404620Y-123305385D01*
X81371135Y-123244062D01*
X81376119Y-123174370D01*
X81417991Y-123118437D01*
X81483455Y-123094020D01*
X81506180Y-123094483D01*
X81543966Y-123098741D01*
X81559573Y-123100500D01*
X81559575Y-123100500D01*
X81840428Y-123100500D01*
X81840429Y-123100499D01*
X81983055Y-123084429D01*
X82119494Y-123069057D01*
X82119499Y-123069056D01*
X82119509Y-123069055D01*
X82393318Y-123006560D01*
X82658408Y-122913801D01*
X82911445Y-122791945D01*
X83149248Y-122642523D01*
X83368825Y-122467416D01*
X83567416Y-122268825D01*
X83742523Y-122049248D01*
X83891945Y-121811445D01*
X84013801Y-121558408D01*
X84106560Y-121293318D01*
X84169055Y-121019509D01*
X84178956Y-120931640D01*
X84200499Y-120740431D01*
X84200500Y-120740427D01*
X84200500Y-120259572D01*
X84200499Y-120259568D01*
X90799500Y-120259568D01*
X90799500Y-120740431D01*
X90830942Y-121019494D01*
X90830945Y-121019512D01*
X90893439Y-121293317D01*
X90893443Y-121293329D01*
X90986200Y-121558411D01*
X91108053Y-121811442D01*
X91108055Y-121811445D01*
X91257477Y-122049248D01*
X91432584Y-122268825D01*
X91631175Y-122467416D01*
X91850752Y-122642523D01*
X92088555Y-122791945D01*
X92341592Y-122913801D01*
X92540680Y-122983465D01*
X92606670Y-123006556D01*
X92606682Y-123006560D01*
X92880491Y-123069055D01*
X92880497Y-123069055D01*
X92880505Y-123069057D01*
X93066547Y-123090018D01*
X93159569Y-123100499D01*
X93159572Y-123100500D01*
X93159575Y-123100500D01*
X93440428Y-123100500D01*
X93440429Y-123100499D01*
X93583055Y-123084429D01*
X93719494Y-123069057D01*
X93719499Y-123069056D01*
X93719509Y-123069055D01*
X93993318Y-123006560D01*
X94258408Y-122913801D01*
X94511445Y-122791945D01*
X94749248Y-122642523D01*
X94968825Y-122467416D01*
X95167416Y-122268825D01*
X95342523Y-122049248D01*
X95491945Y-121811445D01*
X95613801Y-121558408D01*
X95706560Y-121293318D01*
X95769055Y-121019509D01*
X95778956Y-120931640D01*
X95800499Y-120740431D01*
X95800500Y-120740427D01*
X95800500Y-120259572D01*
X95800499Y-120259568D01*
X95769057Y-119980505D01*
X95769054Y-119980487D01*
X95706560Y-119706682D01*
X95706556Y-119706670D01*
X95683465Y-119640680D01*
X95613801Y-119441592D01*
X95491945Y-119188555D01*
X95342523Y-118950752D01*
X95167416Y-118731175D01*
X94968825Y-118532584D01*
X94749248Y-118357477D01*
X94511445Y-118208055D01*
X94511442Y-118208053D01*
X94258411Y-118086200D01*
X93993329Y-117993443D01*
X93993317Y-117993439D01*
X93719512Y-117930945D01*
X93719494Y-117930942D01*
X93440431Y-117899500D01*
X93440425Y-117899500D01*
X93159575Y-117899500D01*
X93159568Y-117899500D01*
X92880505Y-117930942D01*
X92880487Y-117930945D01*
X92606682Y-117993439D01*
X92606670Y-117993443D01*
X92341588Y-118086200D01*
X92088557Y-118208053D01*
X91850753Y-118357476D01*
X91631175Y-118532583D01*
X91432583Y-118731175D01*
X91257476Y-118950753D01*
X91108053Y-119188557D01*
X90986200Y-119441588D01*
X90893443Y-119706670D01*
X90893439Y-119706682D01*
X90830945Y-119980487D01*
X90830942Y-119980505D01*
X90799500Y-120259568D01*
X84200499Y-120259568D01*
X84169057Y-119980505D01*
X84169054Y-119980487D01*
X84106560Y-119706682D01*
X84106556Y-119706670D01*
X84083465Y-119640680D01*
X84013801Y-119441592D01*
X83891945Y-119188555D01*
X83742523Y-118950752D01*
X83567416Y-118731175D01*
X83368825Y-118532584D01*
X83149248Y-118357477D01*
X82911445Y-118208055D01*
X82911442Y-118208053D01*
X82658411Y-118086200D01*
X82393329Y-117993443D01*
X82393317Y-117993439D01*
X82119512Y-117930945D01*
X82119494Y-117930942D01*
X81840431Y-117899500D01*
X81840425Y-117899500D01*
X81559575Y-117899500D01*
X81559568Y-117899500D01*
X81280505Y-117930942D01*
X81280487Y-117930945D01*
X81006682Y-117993439D01*
X81006670Y-117993443D01*
X80741588Y-118086200D01*
X80488557Y-118208053D01*
X80250753Y-118357476D01*
X80031175Y-118532583D01*
X79832583Y-118731175D01*
X79657476Y-118950753D01*
X79508053Y-119188557D01*
X79386200Y-119441588D01*
X79293443Y-119706670D01*
X79293439Y-119706682D01*
X79230945Y-119980487D01*
X79230942Y-119980505D01*
X79199500Y-120259568D01*
X79199500Y-120740431D01*
X79205515Y-120793815D01*
X79193460Y-120862637D01*
X79146111Y-120914016D01*
X79078501Y-120931640D01*
X79012095Y-120909913D01*
X78994614Y-120895379D01*
X66437590Y-108338355D01*
X66437588Y-108338352D01*
X66318717Y-108219481D01*
X66318716Y-108219480D01*
X66231904Y-108169360D01*
X66231904Y-108169359D01*
X66231900Y-108169358D01*
X66181785Y-108140423D01*
X66029057Y-108099499D01*
X65870943Y-108099499D01*
X65863347Y-108099499D01*
X65863331Y-108099500D01*
X58697667Y-108099500D01*
X58630628Y-108079815D01*
X58584873Y-108027011D01*
X58574929Y-107957853D01*
X58603954Y-107894297D01*
X58635666Y-107868113D01*
X58735856Y-107810268D01*
X58929345Y-107661799D01*
X59101799Y-107489345D01*
X59250268Y-107295856D01*
X59372212Y-107084644D01*
X59465544Y-106859321D01*
X59528666Y-106623744D01*
X59560500Y-106381944D01*
X59560500Y-105618056D01*
X59560499Y-105618048D01*
X65439500Y-105618048D01*
X65439500Y-106381951D01*
X65463361Y-106563181D01*
X65471334Y-106623744D01*
X65516776Y-106793336D01*
X65534456Y-106859320D01*
X65534459Y-106859330D01*
X65627786Y-107084640D01*
X65627791Y-107084651D01*
X65749727Y-107295848D01*
X65749738Y-107295864D01*
X65898199Y-107489343D01*
X65898205Y-107489350D01*
X66070649Y-107661794D01*
X66070656Y-107661800D01*
X66160369Y-107730639D01*
X66264144Y-107810268D01*
X66264151Y-107810272D01*
X66475348Y-107932208D01*
X66475353Y-107932210D01*
X66475356Y-107932212D01*
X66700679Y-108025544D01*
X66936256Y-108088666D01*
X67178056Y-108120500D01*
X67178063Y-108120500D01*
X67421937Y-108120500D01*
X67421944Y-108120500D01*
X67663744Y-108088666D01*
X67899321Y-108025544D01*
X68124644Y-107932212D01*
X68335856Y-107810268D01*
X68529345Y-107661799D01*
X68701799Y-107489345D01*
X68850268Y-107295856D01*
X68972212Y-107084644D01*
X69065544Y-106859321D01*
X69128666Y-106623744D01*
X69160500Y-106381944D01*
X69160500Y-105618056D01*
X69128666Y-105376256D01*
X69065544Y-105140679D01*
X68972212Y-104915356D01*
X68972210Y-104915353D01*
X68972208Y-104915348D01*
X68850272Y-104704151D01*
X68850268Y-104704144D01*
X68751008Y-104574786D01*
X68701800Y-104510656D01*
X68701794Y-104510649D01*
X68529350Y-104338205D01*
X68529343Y-104338199D01*
X68335864Y-104189738D01*
X68335862Y-104189736D01*
X68335856Y-104189732D01*
X68335851Y-104189729D01*
X68335848Y-104189727D01*
X68124651Y-104067791D01*
X68124640Y-104067786D01*
X67899330Y-103974459D01*
X67899323Y-103974457D01*
X67899321Y-103974456D01*
X67663744Y-103911334D01*
X67623333Y-103906013D01*
X67421951Y-103879500D01*
X67421944Y-103879500D01*
X67178056Y-103879500D01*
X67178048Y-103879500D01*
X66947896Y-103909801D01*
X66936256Y-103911334D01*
X66800117Y-103947812D01*
X66700679Y-103974456D01*
X66700669Y-103974459D01*
X66475359Y-104067786D01*
X66475348Y-104067791D01*
X66264151Y-104189727D01*
X66264135Y-104189738D01*
X66070656Y-104338199D01*
X66070649Y-104338205D01*
X65898205Y-104510649D01*
X65898199Y-104510656D01*
X65749738Y-104704135D01*
X65749727Y-104704151D01*
X65627791Y-104915348D01*
X65627786Y-104915359D01*
X65534459Y-105140669D01*
X65534456Y-105140679D01*
X65471335Y-105376253D01*
X65471333Y-105376264D01*
X65439500Y-105618048D01*
X59560499Y-105618048D01*
X59528666Y-105376256D01*
X59465544Y-105140679D01*
X59372212Y-104915356D01*
X59372210Y-104915353D01*
X59372208Y-104915348D01*
X59250272Y-104704151D01*
X59250268Y-104704144D01*
X59151008Y-104574786D01*
X59101800Y-104510656D01*
X59101794Y-104510649D01*
X58929350Y-104338205D01*
X58929343Y-104338199D01*
X58735864Y-104189738D01*
X58735862Y-104189736D01*
X58735856Y-104189732D01*
X58735851Y-104189729D01*
X58735848Y-104189727D01*
X58524651Y-104067791D01*
X58524640Y-104067786D01*
X58299330Y-103974459D01*
X58299323Y-103974457D01*
X58299321Y-103974456D01*
X58063744Y-103911334D01*
X58023333Y-103906013D01*
X57821951Y-103879500D01*
X57821944Y-103879500D01*
X57578056Y-103879500D01*
X57578048Y-103879500D01*
X57347896Y-103909801D01*
X57336256Y-103911334D01*
X57200117Y-103947812D01*
X57100679Y-103974456D01*
X57100669Y-103974459D01*
X56875359Y-104067786D01*
X56875348Y-104067791D01*
X56664151Y-104189727D01*
X56664135Y-104189738D01*
X56470656Y-104338199D01*
X56470649Y-104338205D01*
X56298205Y-104510649D01*
X56298199Y-104510656D01*
X56149738Y-104704135D01*
X56149727Y-104704151D01*
X56027791Y-104915348D01*
X56027786Y-104915359D01*
X55934459Y-105140669D01*
X55934456Y-105140679D01*
X55871335Y-105376253D01*
X55871332Y-105376266D01*
X55870259Y-105384417D01*
X55841987Y-105448311D01*
X55783660Y-105486778D01*
X55713795Y-105487604D01*
X55654574Y-105450527D01*
X55647013Y-105441121D01*
X55530104Y-105280208D01*
X55379792Y-105129896D01*
X55379786Y-105129890D01*
X55207820Y-105004951D01*
X55207115Y-105004591D01*
X55199054Y-105000485D01*
X55148259Y-104952512D01*
X55131463Y-104884692D01*
X55153999Y-104818556D01*
X55199054Y-104779515D01*
X55207816Y-104775051D01*
X55229789Y-104759086D01*
X55379786Y-104650109D01*
X55379788Y-104650106D01*
X55379792Y-104650104D01*
X55530104Y-104499792D01*
X55530106Y-104499788D01*
X55530109Y-104499786D01*
X55655048Y-104327820D01*
X55655047Y-104327820D01*
X55655051Y-104327816D01*
X55751557Y-104138412D01*
X55817246Y-103936243D01*
X55850500Y-103726287D01*
X55850500Y-103513713D01*
X55817246Y-103303757D01*
X55751557Y-103101588D01*
X55655051Y-102912184D01*
X55655049Y-102912181D01*
X55655048Y-102912179D01*
X55530109Y-102740213D01*
X55379786Y-102589890D01*
X55207820Y-102464951D01*
X55207115Y-102464591D01*
X55199054Y-102460485D01*
X55148259Y-102412512D01*
X55131463Y-102344692D01*
X55153999Y-102278556D01*
X55199054Y-102239515D01*
X55207816Y-102235051D01*
X55239002Y-102212393D01*
X55379786Y-102110109D01*
X55379788Y-102110106D01*
X55379792Y-102110104D01*
X55530104Y-101959792D01*
X55530106Y-101959788D01*
X55530109Y-101959786D01*
X55655048Y-101787820D01*
X55655047Y-101787820D01*
X55655051Y-101787816D01*
X55751557Y-101598412D01*
X55817246Y-101396243D01*
X55850500Y-101186287D01*
X55850500Y-100973713D01*
X55817246Y-100763757D01*
X55751557Y-100561588D01*
X55655051Y-100372184D01*
X55655049Y-100372181D01*
X55655048Y-100372179D01*
X55530109Y-100200213D01*
X55379786Y-100049890D01*
X55207820Y-99924951D01*
X55207115Y-99924591D01*
X55199054Y-99920485D01*
X55148259Y-99872512D01*
X55131463Y-99804692D01*
X55153999Y-99738556D01*
X55199054Y-99699515D01*
X55207816Y-99695051D01*
X55338780Y-99599901D01*
X55379786Y-99570109D01*
X55379788Y-99570106D01*
X55379792Y-99570104D01*
X55530104Y-99419792D01*
X55530106Y-99419788D01*
X55530109Y-99419786D01*
X55655048Y-99247820D01*
X55655047Y-99247820D01*
X55655051Y-99247816D01*
X55751557Y-99058412D01*
X55817246Y-98856243D01*
X55850500Y-98646287D01*
X55850500Y-98433713D01*
X55817246Y-98223757D01*
X55751557Y-98021588D01*
X55655051Y-97832184D01*
X55655049Y-97832181D01*
X55655048Y-97832179D01*
X55530109Y-97660213D01*
X55416569Y-97546673D01*
X55383084Y-97485350D01*
X55388068Y-97415658D01*
X55429940Y-97359725D01*
X55460915Y-97342810D01*
X55592331Y-97293796D01*
X55707546Y-97207546D01*
X55793796Y-97092331D01*
X55844091Y-96957483D01*
X55850500Y-96897873D01*
X55850499Y-95102128D01*
X55844091Y-95042517D01*
X55793796Y-94907669D01*
X55793795Y-94907668D01*
X55793793Y-94907664D01*
X55707547Y-94792455D01*
X55707544Y-94792452D01*
X55592335Y-94706206D01*
X55592328Y-94706202D01*
X55457482Y-94655908D01*
X55457483Y-94655908D01*
X55397883Y-94649501D01*
X55397881Y-94649500D01*
X55397873Y-94649500D01*
X55397864Y-94649500D01*
X53602129Y-94649500D01*
X53602123Y-94649501D01*
X53542516Y-94655908D01*
X53407671Y-94706202D01*
X53407664Y-94706206D01*
X53292455Y-94792452D01*
X53292452Y-94792455D01*
X53206206Y-94907664D01*
X53206202Y-94907671D01*
X53155908Y-95042517D01*
X53149501Y-95102116D01*
X53149501Y-95102123D01*
X53149500Y-95102135D01*
X53149500Y-95784216D01*
X53129815Y-95851255D01*
X53113181Y-95871897D01*
X51712181Y-97272897D01*
X51650858Y-97306382D01*
X51581166Y-97301398D01*
X51525233Y-97259526D01*
X51500816Y-97194062D01*
X51500500Y-97185216D01*
X51500500Y-43124500D01*
X51520185Y-43057461D01*
X51572989Y-43011706D01*
X51624500Y-43000500D01*
X98375500Y-43000500D01*
X98442539Y-43020185D01*
G37*
%TD.AperFunction*%
%TA.AperFunction,Conductor*%
G36*
X54750000Y-113346988D02*
G01*
X54692993Y-113314075D01*
X54565826Y-113280000D01*
X54434174Y-113280000D01*
X54307007Y-113314075D01*
X54250000Y-113346988D01*
X54250000Y-111673012D01*
X54307007Y-111705925D01*
X54434174Y-111740000D01*
X54565826Y-111740000D01*
X54692993Y-111705925D01*
X54750000Y-111673012D01*
X54750000Y-113346988D01*
G37*
%TD.AperFunction*%
%TA.AperFunction,Conductor*%
G36*
X97250000Y-79846988D02*
G01*
X97192993Y-79814075D01*
X97065826Y-79780000D01*
X96934174Y-79780000D01*
X96807007Y-79814075D01*
X96750000Y-79846988D01*
X96750000Y-78173012D01*
X96807007Y-78205925D01*
X96934174Y-78240000D01*
X97065826Y-78240000D01*
X97192993Y-78205925D01*
X97250000Y-78173012D01*
X97250000Y-79846988D01*
G37*
%TD.AperFunction*%
%TD*%
M02*
