%TF.GenerationSoftware,KiCad,Pcbnew,9.0.4*%
%TF.CreationDate,2025-10-04T20:42:34+02:00*%
%TF.ProjectId,DMH_VCM_Mk2_PCB_2,444d485f-5643-44d5-9f4d-6b325f504342,1*%
%TF.SameCoordinates,Original*%
%TF.FileFunction,Legend,Bot*%
%TF.FilePolarity,Positive*%
%FSLAX46Y46*%
G04 Gerber Fmt 4.6, Leading zero omitted, Abs format (unit mm)*
G04 Created by KiCad (PCBNEW 9.0.4) date 2025-10-04 20:42:34*
%MOMM*%
%LPD*%
G01*
G04 APERTURE LIST*
%ADD10C,0.100000*%
%ADD11C,0.250000*%
%ADD12C,0.150000*%
%ADD13C,0.120000*%
%ADD14C,2.800000*%
%ADD15C,1.600000*%
%ADD16O,1.600000X1.600000*%
%ADD17O,4.000000X4.200000*%
%ADD18C,1.800000*%
%ADD19R,1.800000X1.800000*%
%ADD20O,2.720000X3.240000*%
%ADD21R,1.800000X1.400000*%
%ADD22O,1.800000X1.400000*%
%ADD23R,1.700000X1.700000*%
%ADD24O,1.700000X1.700000*%
G04 APERTURE END LIST*
D10*
X94600000Y-105700000D02*
X96600000Y-105700000D01*
X96600000Y-115700000D01*
X94600000Y-115700000D01*
X94600000Y-105700000D01*
G36*
X94600000Y-105700000D02*
G01*
X96600000Y-105700000D01*
X96600000Y-115700000D01*
X94600000Y-115700000D01*
X94600000Y-105700000D01*
G37*
D11*
X98049619Y-102223809D02*
X97049619Y-102223809D01*
X97049619Y-102223809D02*
X97763904Y-102557142D01*
X97763904Y-102557142D02*
X97049619Y-102890475D01*
X97049619Y-102890475D02*
X98049619Y-102890475D01*
X98049619Y-103366666D02*
X97049619Y-103366666D01*
X97668666Y-103461904D02*
X98049619Y-103747618D01*
X97382952Y-103747618D02*
X97763904Y-103366666D01*
X97144857Y-104128571D02*
X97097238Y-104176190D01*
X97097238Y-104176190D02*
X97049619Y-104271428D01*
X97049619Y-104271428D02*
X97049619Y-104509523D01*
X97049619Y-104509523D02*
X97097238Y-104604761D01*
X97097238Y-104604761D02*
X97144857Y-104652380D01*
X97144857Y-104652380D02*
X97240095Y-104699999D01*
X97240095Y-104699999D02*
X97335333Y-104699999D01*
X97335333Y-104699999D02*
X97478190Y-104652380D01*
X97478190Y-104652380D02*
X98049619Y-104080952D01*
X98049619Y-104080952D02*
X98049619Y-104699999D01*
X97954380Y-105128571D02*
X98002000Y-105176190D01*
X98002000Y-105176190D02*
X98049619Y-105128571D01*
X98049619Y-105128571D02*
X98002000Y-105080952D01*
X98002000Y-105080952D02*
X97954380Y-105128571D01*
X97954380Y-105128571D02*
X98049619Y-105128571D01*
X97049619Y-105795237D02*
X97049619Y-105890475D01*
X97049619Y-105890475D02*
X97097238Y-105985713D01*
X97097238Y-105985713D02*
X97144857Y-106033332D01*
X97144857Y-106033332D02*
X97240095Y-106080951D01*
X97240095Y-106080951D02*
X97430571Y-106128570D01*
X97430571Y-106128570D02*
X97668666Y-106128570D01*
X97668666Y-106128570D02*
X97859142Y-106080951D01*
X97859142Y-106080951D02*
X97954380Y-106033332D01*
X97954380Y-106033332D02*
X98002000Y-105985713D01*
X98002000Y-105985713D02*
X98049619Y-105890475D01*
X98049619Y-105890475D02*
X98049619Y-105795237D01*
X98049619Y-105795237D02*
X98002000Y-105699999D01*
X98002000Y-105699999D02*
X97954380Y-105652380D01*
X97954380Y-105652380D02*
X97859142Y-105604761D01*
X97859142Y-105604761D02*
X97668666Y-105557142D01*
X97668666Y-105557142D02*
X97430571Y-105557142D01*
X97430571Y-105557142D02*
X97240095Y-105604761D01*
X97240095Y-105604761D02*
X97144857Y-105652380D01*
X97144857Y-105652380D02*
X97097238Y-105699999D01*
X97097238Y-105699999D02*
X97049619Y-105795237D01*
X97668666Y-107319047D02*
X97668666Y-108080952D01*
X97049619Y-109509523D02*
X97049619Y-109699999D01*
X97049619Y-109699999D02*
X97097238Y-109795237D01*
X97097238Y-109795237D02*
X97192476Y-109890475D01*
X97192476Y-109890475D02*
X97382952Y-109938094D01*
X97382952Y-109938094D02*
X97716285Y-109938094D01*
X97716285Y-109938094D02*
X97906761Y-109890475D01*
X97906761Y-109890475D02*
X98002000Y-109795237D01*
X98002000Y-109795237D02*
X98049619Y-109699999D01*
X98049619Y-109699999D02*
X98049619Y-109509523D01*
X98049619Y-109509523D02*
X98002000Y-109414285D01*
X98002000Y-109414285D02*
X97906761Y-109319047D01*
X97906761Y-109319047D02*
X97716285Y-109271428D01*
X97716285Y-109271428D02*
X97382952Y-109271428D01*
X97382952Y-109271428D02*
X97192476Y-109319047D01*
X97192476Y-109319047D02*
X97097238Y-109414285D01*
X97097238Y-109414285D02*
X97049619Y-109509523D01*
X98002000Y-110795237D02*
X98049619Y-110699999D01*
X98049619Y-110699999D02*
X98049619Y-110509523D01*
X98049619Y-110509523D02*
X98002000Y-110414285D01*
X98002000Y-110414285D02*
X97954380Y-110366666D01*
X97954380Y-110366666D02*
X97859142Y-110319047D01*
X97859142Y-110319047D02*
X97573428Y-110319047D01*
X97573428Y-110319047D02*
X97478190Y-110366666D01*
X97478190Y-110366666D02*
X97430571Y-110414285D01*
X97430571Y-110414285D02*
X97382952Y-110509523D01*
X97382952Y-110509523D02*
X97382952Y-110699999D01*
X97382952Y-110699999D02*
X97430571Y-110795237D01*
X97382952Y-111080952D02*
X97382952Y-111461904D01*
X97049619Y-111223809D02*
X97906761Y-111223809D01*
X97906761Y-111223809D02*
X98002000Y-111271428D01*
X98002000Y-111271428D02*
X98049619Y-111366666D01*
X98049619Y-111366666D02*
X98049619Y-111461904D01*
X98049619Y-111938095D02*
X98002000Y-111842857D01*
X98002000Y-111842857D02*
X97954380Y-111795238D01*
X97954380Y-111795238D02*
X97859142Y-111747619D01*
X97859142Y-111747619D02*
X97573428Y-111747619D01*
X97573428Y-111747619D02*
X97478190Y-111795238D01*
X97478190Y-111795238D02*
X97430571Y-111842857D01*
X97430571Y-111842857D02*
X97382952Y-111938095D01*
X97382952Y-111938095D02*
X97382952Y-112080952D01*
X97382952Y-112080952D02*
X97430571Y-112176190D01*
X97430571Y-112176190D02*
X97478190Y-112223809D01*
X97478190Y-112223809D02*
X97573428Y-112271428D01*
X97573428Y-112271428D02*
X97859142Y-112271428D01*
X97859142Y-112271428D02*
X97954380Y-112223809D01*
X97954380Y-112223809D02*
X98002000Y-112176190D01*
X98002000Y-112176190D02*
X98049619Y-112080952D01*
X98049619Y-112080952D02*
X98049619Y-111938095D01*
X98049619Y-112700000D02*
X97049619Y-112700000D01*
X97430571Y-112700000D02*
X97382952Y-112795238D01*
X97382952Y-112795238D02*
X97382952Y-112985714D01*
X97382952Y-112985714D02*
X97430571Y-113080952D01*
X97430571Y-113080952D02*
X97478190Y-113128571D01*
X97478190Y-113128571D02*
X97573428Y-113176190D01*
X97573428Y-113176190D02*
X97859142Y-113176190D01*
X97859142Y-113176190D02*
X97954380Y-113128571D01*
X97954380Y-113128571D02*
X98002000Y-113080952D01*
X98002000Y-113080952D02*
X98049619Y-112985714D01*
X98049619Y-112985714D02*
X98049619Y-112795238D01*
X98049619Y-112795238D02*
X98002000Y-112700000D01*
X98002000Y-113985714D02*
X98049619Y-113890476D01*
X98049619Y-113890476D02*
X98049619Y-113700000D01*
X98049619Y-113700000D02*
X98002000Y-113604762D01*
X98002000Y-113604762D02*
X97906761Y-113557143D01*
X97906761Y-113557143D02*
X97525809Y-113557143D01*
X97525809Y-113557143D02*
X97430571Y-113604762D01*
X97430571Y-113604762D02*
X97382952Y-113700000D01*
X97382952Y-113700000D02*
X97382952Y-113890476D01*
X97382952Y-113890476D02*
X97430571Y-113985714D01*
X97430571Y-113985714D02*
X97525809Y-114033333D01*
X97525809Y-114033333D02*
X97621047Y-114033333D01*
X97621047Y-114033333D02*
X97716285Y-113557143D01*
X98049619Y-114461905D02*
X97382952Y-114461905D01*
X97573428Y-114461905D02*
X97478190Y-114509524D01*
X97478190Y-114509524D02*
X97430571Y-114557143D01*
X97430571Y-114557143D02*
X97382952Y-114652381D01*
X97382952Y-114652381D02*
X97382952Y-114747619D01*
X97144857Y-115795239D02*
X97097238Y-115842858D01*
X97097238Y-115842858D02*
X97049619Y-115938096D01*
X97049619Y-115938096D02*
X97049619Y-116176191D01*
X97049619Y-116176191D02*
X97097238Y-116271429D01*
X97097238Y-116271429D02*
X97144857Y-116319048D01*
X97144857Y-116319048D02*
X97240095Y-116366667D01*
X97240095Y-116366667D02*
X97335333Y-116366667D01*
X97335333Y-116366667D02*
X97478190Y-116319048D01*
X97478190Y-116319048D02*
X98049619Y-115747620D01*
X98049619Y-115747620D02*
X98049619Y-116366667D01*
X97049619Y-116985715D02*
X97049619Y-117080953D01*
X97049619Y-117080953D02*
X97097238Y-117176191D01*
X97097238Y-117176191D02*
X97144857Y-117223810D01*
X97144857Y-117223810D02*
X97240095Y-117271429D01*
X97240095Y-117271429D02*
X97430571Y-117319048D01*
X97430571Y-117319048D02*
X97668666Y-117319048D01*
X97668666Y-117319048D02*
X97859142Y-117271429D01*
X97859142Y-117271429D02*
X97954380Y-117223810D01*
X97954380Y-117223810D02*
X98002000Y-117176191D01*
X98002000Y-117176191D02*
X98049619Y-117080953D01*
X98049619Y-117080953D02*
X98049619Y-116985715D01*
X98049619Y-116985715D02*
X98002000Y-116890477D01*
X98002000Y-116890477D02*
X97954380Y-116842858D01*
X97954380Y-116842858D02*
X97859142Y-116795239D01*
X97859142Y-116795239D02*
X97668666Y-116747620D01*
X97668666Y-116747620D02*
X97430571Y-116747620D01*
X97430571Y-116747620D02*
X97240095Y-116795239D01*
X97240095Y-116795239D02*
X97144857Y-116842858D01*
X97144857Y-116842858D02*
X97097238Y-116890477D01*
X97097238Y-116890477D02*
X97049619Y-116985715D01*
X97144857Y-117700001D02*
X97097238Y-117747620D01*
X97097238Y-117747620D02*
X97049619Y-117842858D01*
X97049619Y-117842858D02*
X97049619Y-118080953D01*
X97049619Y-118080953D02*
X97097238Y-118176191D01*
X97097238Y-118176191D02*
X97144857Y-118223810D01*
X97144857Y-118223810D02*
X97240095Y-118271429D01*
X97240095Y-118271429D02*
X97335333Y-118271429D01*
X97335333Y-118271429D02*
X97478190Y-118223810D01*
X97478190Y-118223810D02*
X98049619Y-117652382D01*
X98049619Y-117652382D02*
X98049619Y-118271429D01*
X97049619Y-119176191D02*
X97049619Y-118700001D01*
X97049619Y-118700001D02*
X97525809Y-118652382D01*
X97525809Y-118652382D02*
X97478190Y-118700001D01*
X97478190Y-118700001D02*
X97430571Y-118795239D01*
X97430571Y-118795239D02*
X97430571Y-119033334D01*
X97430571Y-119033334D02*
X97478190Y-119128572D01*
X97478190Y-119128572D02*
X97525809Y-119176191D01*
X97525809Y-119176191D02*
X97621047Y-119223810D01*
X97621047Y-119223810D02*
X97859142Y-119223810D01*
X97859142Y-119223810D02*
X97954380Y-119176191D01*
X97954380Y-119176191D02*
X98002000Y-119128572D01*
X98002000Y-119128572D02*
X98049619Y-119033334D01*
X98049619Y-119033334D02*
X98049619Y-118795239D01*
X98049619Y-118795239D02*
X98002000Y-118700001D01*
X98002000Y-118700001D02*
X97954380Y-118652382D01*
D12*
X97809523Y-130124819D02*
X97809523Y-130839104D01*
X97809523Y-130839104D02*
X97857142Y-130981961D01*
X97857142Y-130981961D02*
X97952380Y-131077200D01*
X97952380Y-131077200D02*
X98095237Y-131124819D01*
X98095237Y-131124819D02*
X98190475Y-131124819D01*
X97428570Y-130124819D02*
X96761904Y-130124819D01*
X96761904Y-130124819D02*
X97190475Y-131124819D01*
X96190475Y-130124819D02*
X96095237Y-130124819D01*
X96095237Y-130124819D02*
X95999999Y-130172438D01*
X95999999Y-130172438D02*
X95952380Y-130220057D01*
X95952380Y-130220057D02*
X95904761Y-130315295D01*
X95904761Y-130315295D02*
X95857142Y-130505771D01*
X95857142Y-130505771D02*
X95857142Y-130743866D01*
X95857142Y-130743866D02*
X95904761Y-130934342D01*
X95904761Y-130934342D02*
X95952380Y-131029580D01*
X95952380Y-131029580D02*
X95999999Y-131077200D01*
X95999999Y-131077200D02*
X96095237Y-131124819D01*
X96095237Y-131124819D02*
X96190475Y-131124819D01*
X96190475Y-131124819D02*
X96285713Y-131077200D01*
X96285713Y-131077200D02*
X96333332Y-131029580D01*
X96333332Y-131029580D02*
X96380951Y-130934342D01*
X96380951Y-130934342D02*
X96428570Y-130743866D01*
X96428570Y-130743866D02*
X96428570Y-130505771D01*
X96428570Y-130505771D02*
X96380951Y-130315295D01*
X96380951Y-130315295D02*
X96333332Y-130220057D01*
X96333332Y-130220057D02*
X96285713Y-130172438D01*
X96285713Y-130172438D02*
X96190475Y-130124819D01*
X55309523Y-93124819D02*
X55309523Y-93839104D01*
X55309523Y-93839104D02*
X55357142Y-93981961D01*
X55357142Y-93981961D02*
X55452380Y-94077200D01*
X55452380Y-94077200D02*
X55595237Y-94124819D01*
X55595237Y-94124819D02*
X55690475Y-94124819D01*
X54404761Y-93124819D02*
X54595237Y-93124819D01*
X54595237Y-93124819D02*
X54690475Y-93172438D01*
X54690475Y-93172438D02*
X54738094Y-93220057D01*
X54738094Y-93220057D02*
X54833332Y-93362914D01*
X54833332Y-93362914D02*
X54880951Y-93553390D01*
X54880951Y-93553390D02*
X54880951Y-93934342D01*
X54880951Y-93934342D02*
X54833332Y-94029580D01*
X54833332Y-94029580D02*
X54785713Y-94077200D01*
X54785713Y-94077200D02*
X54690475Y-94124819D01*
X54690475Y-94124819D02*
X54499999Y-94124819D01*
X54499999Y-94124819D02*
X54404761Y-94077200D01*
X54404761Y-94077200D02*
X54357142Y-94029580D01*
X54357142Y-94029580D02*
X54309523Y-93934342D01*
X54309523Y-93934342D02*
X54309523Y-93696247D01*
X54309523Y-93696247D02*
X54357142Y-93601009D01*
X54357142Y-93601009D02*
X54404761Y-93553390D01*
X54404761Y-93553390D02*
X54499999Y-93505771D01*
X54499999Y-93505771D02*
X54690475Y-93505771D01*
X54690475Y-93505771D02*
X54785713Y-93553390D01*
X54785713Y-93553390D02*
X54833332Y-93601009D01*
X54833332Y-93601009D02*
X54880951Y-93696247D01*
X53690475Y-93124819D02*
X53595237Y-93124819D01*
X53595237Y-93124819D02*
X53499999Y-93172438D01*
X53499999Y-93172438D02*
X53452380Y-93220057D01*
X53452380Y-93220057D02*
X53404761Y-93315295D01*
X53404761Y-93315295D02*
X53357142Y-93505771D01*
X53357142Y-93505771D02*
X53357142Y-93743866D01*
X53357142Y-93743866D02*
X53404761Y-93934342D01*
X53404761Y-93934342D02*
X53452380Y-94029580D01*
X53452380Y-94029580D02*
X53499999Y-94077200D01*
X53499999Y-94077200D02*
X53595237Y-94124819D01*
X53595237Y-94124819D02*
X53690475Y-94124819D01*
X53690475Y-94124819D02*
X53785713Y-94077200D01*
X53785713Y-94077200D02*
X53833332Y-94029580D01*
X53833332Y-94029580D02*
X53880951Y-93934342D01*
X53880951Y-93934342D02*
X53928570Y-93743866D01*
X53928570Y-93743866D02*
X53928570Y-93505771D01*
X53928570Y-93505771D02*
X53880951Y-93315295D01*
X53880951Y-93315295D02*
X53833332Y-93220057D01*
X53833332Y-93220057D02*
X53785713Y-93172438D01*
X53785713Y-93172438D02*
X53690475Y-93124819D01*
X97809523Y-59624819D02*
X97809523Y-60339104D01*
X97809523Y-60339104D02*
X97857142Y-60481961D01*
X97857142Y-60481961D02*
X97952380Y-60577200D01*
X97952380Y-60577200D02*
X98095237Y-60624819D01*
X98095237Y-60624819D02*
X98190475Y-60624819D01*
X96857142Y-59624819D02*
X97333332Y-59624819D01*
X97333332Y-59624819D02*
X97380951Y-60101009D01*
X97380951Y-60101009D02*
X97333332Y-60053390D01*
X97333332Y-60053390D02*
X97238094Y-60005771D01*
X97238094Y-60005771D02*
X96999999Y-60005771D01*
X96999999Y-60005771D02*
X96904761Y-60053390D01*
X96904761Y-60053390D02*
X96857142Y-60101009D01*
X96857142Y-60101009D02*
X96809523Y-60196247D01*
X96809523Y-60196247D02*
X96809523Y-60434342D01*
X96809523Y-60434342D02*
X96857142Y-60529580D01*
X96857142Y-60529580D02*
X96904761Y-60577200D01*
X96904761Y-60577200D02*
X96999999Y-60624819D01*
X96999999Y-60624819D02*
X97238094Y-60624819D01*
X97238094Y-60624819D02*
X97333332Y-60577200D01*
X97333332Y-60577200D02*
X97380951Y-60529580D01*
X96190475Y-59624819D02*
X96095237Y-59624819D01*
X96095237Y-59624819D02*
X95999999Y-59672438D01*
X95999999Y-59672438D02*
X95952380Y-59720057D01*
X95952380Y-59720057D02*
X95904761Y-59815295D01*
X95904761Y-59815295D02*
X95857142Y-60005771D01*
X95857142Y-60005771D02*
X95857142Y-60243866D01*
X95857142Y-60243866D02*
X95904761Y-60434342D01*
X95904761Y-60434342D02*
X95952380Y-60529580D01*
X95952380Y-60529580D02*
X95999999Y-60577200D01*
X95999999Y-60577200D02*
X96095237Y-60624819D01*
X96095237Y-60624819D02*
X96190475Y-60624819D01*
X96190475Y-60624819D02*
X96285713Y-60577200D01*
X96285713Y-60577200D02*
X96333332Y-60529580D01*
X96333332Y-60529580D02*
X96380951Y-60434342D01*
X96380951Y-60434342D02*
X96428570Y-60243866D01*
X96428570Y-60243866D02*
X96428570Y-60005771D01*
X96428570Y-60005771D02*
X96380951Y-59815295D01*
X96380951Y-59815295D02*
X96333332Y-59720057D01*
X96333332Y-59720057D02*
X96285713Y-59672438D01*
X96285713Y-59672438D02*
X96190475Y-59624819D01*
D13*
%TO.C,J70*%
X95670000Y-134270000D02*
X95670000Y-152110000D01*
X98330000Y-131670000D02*
X97000000Y-131670000D01*
X98330000Y-133000000D02*
X98330000Y-131670000D01*
X98330000Y-134270000D02*
X95670000Y-134270000D01*
X98330000Y-134270000D02*
X98330000Y-152110000D01*
X98330000Y-152110000D02*
X95670000Y-152110000D01*
%TO.C,J60*%
X53170000Y-97270000D02*
X53170000Y-115110000D01*
X55830000Y-94670000D02*
X54500000Y-94670000D01*
X55830000Y-96000000D02*
X55830000Y-94670000D01*
X55830000Y-97270000D02*
X53170000Y-97270000D01*
X55830000Y-97270000D02*
X55830000Y-115110000D01*
X55830000Y-115110000D02*
X53170000Y-115110000D01*
%TO.C,J50*%
X95670000Y-63770000D02*
X95670000Y-81610000D01*
X98330000Y-61170000D02*
X97000000Y-61170000D01*
X98330000Y-62500000D02*
X98330000Y-61170000D01*
X98330000Y-63770000D02*
X95670000Y-63770000D01*
X98330000Y-63770000D02*
X98330000Y-81610000D01*
X98330000Y-81610000D02*
X95670000Y-81610000D01*
%TD*%
%LPC*%
D14*
%TO.C,SW1*%
X60913000Y-47300000D03*
X60913000Y-52000000D03*
X60913000Y-56700000D03*
X56087000Y-47300000D03*
X56087000Y-52000000D03*
X56087000Y-56700000D03*
%TD*%
D15*
%TO.C,R61*%
X92810000Y-79000000D03*
D16*
X85190000Y-79000000D03*
%TD*%
D17*
%TO.C,RV9*%
X81700000Y-149250000D03*
D18*
X91250000Y-160250000D03*
D17*
X93300000Y-149250000D03*
D19*
X83750000Y-160250000D03*
D18*
X86250000Y-160250000D03*
X88750000Y-160250000D03*
%TD*%
D20*
%TO.C,RV5*%
X57700000Y-106000000D03*
X67300000Y-106000000D03*
D19*
X60000000Y-113500000D03*
D18*
X62500000Y-113500000D03*
X65000000Y-113500000D03*
%TD*%
D17*
%TO.C,RV8*%
X81700000Y-120500000D03*
D18*
X91250000Y-131500000D03*
D17*
X93300000Y-120500000D03*
D19*
X83750000Y-131500000D03*
D18*
X86250000Y-131500000D03*
X88750000Y-131500000D03*
%TD*%
D17*
%TO.C,RV7*%
X81700000Y-91750000D03*
D18*
X91250000Y-102750000D03*
D17*
X93300000Y-91750000D03*
D19*
X83750000Y-102750000D03*
D18*
X86250000Y-102750000D03*
X88750000Y-102750000D03*
%TD*%
D21*
%TO.C,D3*%
X81000000Y-72750000D03*
D22*
X81000000Y-70750000D03*
X81000000Y-68750000D03*
%TD*%
D15*
%TO.C,R53*%
X66310000Y-89500000D03*
D16*
X58690000Y-89500000D03*
%TD*%
D15*
%TO.C,R60*%
X90810000Y-64500000D03*
D16*
X83190000Y-64500000D03*
%TD*%
D21*
%TO.C,D5*%
X94000000Y-72750000D03*
D22*
X94000000Y-70750000D03*
X94000000Y-68750000D03*
%TD*%
D20*
%TO.C,RV4*%
X57700000Y-77250000D03*
X67300000Y-77250000D03*
D19*
X60000000Y-84750000D03*
D18*
X62500000Y-84750000D03*
X65000000Y-84750000D03*
%TD*%
D15*
%TO.C,R54*%
X66310000Y-118250000D03*
D16*
X58690000Y-118250000D03*
%TD*%
D15*
%TO.C,R58*%
X78810000Y-64500000D03*
D16*
X71190000Y-64500000D03*
%TD*%
D20*
%TO.C,RV6*%
X57700000Y-134750000D03*
X67300000Y-134750000D03*
D19*
X60000000Y-142250000D03*
D18*
X62500000Y-142250000D03*
X65000000Y-142250000D03*
%TD*%
D15*
%TO.C,R56*%
X66810000Y-64500000D03*
D16*
X59190000Y-64500000D03*
%TD*%
D23*
%TO.C,J0*%
X97000000Y-100000000D03*
%TD*%
D14*
%TO.C,SW2*%
X77413000Y-47300000D03*
X77413000Y-52000000D03*
X77413000Y-56700000D03*
X72587000Y-47300000D03*
X72587000Y-52000000D03*
X72587000Y-56700000D03*
%TD*%
D15*
%TO.C,R55*%
X66310000Y-146750000D03*
D16*
X58690000Y-146750000D03*
%TD*%
D15*
%TO.C,R59*%
X81060000Y-81500000D03*
D16*
X73440000Y-81500000D03*
%TD*%
D15*
%TO.C,R57*%
X81060000Y-76500000D03*
D16*
X73440000Y-76500000D03*
%TD*%
D14*
%TO.C,SW3*%
X93913000Y-47300000D03*
X93913000Y-52000000D03*
X93913000Y-56700000D03*
X89087000Y-47300000D03*
X89087000Y-52000000D03*
X89087000Y-56700000D03*
%TD*%
D21*
%TO.C,D4*%
X87500000Y-72750000D03*
D22*
X87500000Y-70750000D03*
X87500000Y-68750000D03*
%TD*%
D23*
%TO.C,J70*%
X97000000Y-133000000D03*
D24*
X97000000Y-135540000D03*
X97000000Y-138080000D03*
X97000000Y-140620000D03*
X97000000Y-143160000D03*
X97000000Y-145700000D03*
X97000000Y-148240000D03*
X97000000Y-150780000D03*
%TD*%
D23*
%TO.C,J60*%
X54500000Y-96000000D03*
D24*
X54500000Y-98540000D03*
X54500000Y-101080000D03*
X54500000Y-103620000D03*
X54500000Y-106160000D03*
X54500000Y-108700000D03*
X54500000Y-111240000D03*
X54500000Y-113780000D03*
%TD*%
D23*
%TO.C,J50*%
X97000000Y-62500000D03*
D24*
X97000000Y-65040000D03*
X97000000Y-67580000D03*
X97000000Y-70120000D03*
X97000000Y-72660000D03*
X97000000Y-75200000D03*
X97000000Y-77740000D03*
X97000000Y-80280000D03*
%TD*%
%LPD*%
M02*
