%TF.GenerationSoftware,KiCad,Pcbnew,9.0.4*%
%TF.CreationDate,2025-10-04T20:42:34+02:00*%
%TF.ProjectId,DMH_VCM_Mk2_PCB_2,444d485f-5643-44d5-9f4d-6b325f504342,1*%
%TF.SameCoordinates,Original*%
%TF.FileFunction,Legend,Top*%
%TF.FilePolarity,Positive*%
%FSLAX46Y46*%
G04 Gerber Fmt 4.6, Leading zero omitted, Abs format (unit mm)*
G04 Created by KiCad (PCBNEW 9.0.4) date 2025-10-04 20:42:34*
%MOMM*%
%LPD*%
G01*
G04 APERTURE LIST*
%ADD10C,0.150000*%
%ADD11C,0.120000*%
%ADD12C,2.800000*%
%ADD13C,1.600000*%
%ADD14O,1.600000X1.600000*%
%ADD15O,4.000000X4.200000*%
%ADD16C,1.800000*%
%ADD17R,1.800000X1.800000*%
%ADD18O,2.720000X3.240000*%
%ADD19R,1.800000X1.400000*%
%ADD20O,1.800000X1.400000*%
%ADD21R,1.700000X1.700000*%
%ADD22O,1.700000X1.700000*%
G04 APERTURE END LIST*
D10*
X57166667Y-60407200D02*
X57309524Y-60454819D01*
X57309524Y-60454819D02*
X57547619Y-60454819D01*
X57547619Y-60454819D02*
X57642857Y-60407200D01*
X57642857Y-60407200D02*
X57690476Y-60359580D01*
X57690476Y-60359580D02*
X57738095Y-60264342D01*
X57738095Y-60264342D02*
X57738095Y-60169104D01*
X57738095Y-60169104D02*
X57690476Y-60073866D01*
X57690476Y-60073866D02*
X57642857Y-60026247D01*
X57642857Y-60026247D02*
X57547619Y-59978628D01*
X57547619Y-59978628D02*
X57357143Y-59931009D01*
X57357143Y-59931009D02*
X57261905Y-59883390D01*
X57261905Y-59883390D02*
X57214286Y-59835771D01*
X57214286Y-59835771D02*
X57166667Y-59740533D01*
X57166667Y-59740533D02*
X57166667Y-59645295D01*
X57166667Y-59645295D02*
X57214286Y-59550057D01*
X57214286Y-59550057D02*
X57261905Y-59502438D01*
X57261905Y-59502438D02*
X57357143Y-59454819D01*
X57357143Y-59454819D02*
X57595238Y-59454819D01*
X57595238Y-59454819D02*
X57738095Y-59502438D01*
X58071429Y-59454819D02*
X58309524Y-60454819D01*
X58309524Y-60454819D02*
X58500000Y-59740533D01*
X58500000Y-59740533D02*
X58690476Y-60454819D01*
X58690476Y-60454819D02*
X58928572Y-59454819D01*
X59833333Y-60454819D02*
X59261905Y-60454819D01*
X59547619Y-60454819D02*
X59547619Y-59454819D01*
X59547619Y-59454819D02*
X59452381Y-59597676D01*
X59452381Y-59597676D02*
X59357143Y-59692914D01*
X59357143Y-59692914D02*
X59261905Y-59740533D01*
X55380952Y-62207200D02*
X55523809Y-62254819D01*
X55523809Y-62254819D02*
X55761904Y-62254819D01*
X55761904Y-62254819D02*
X55857142Y-62207200D01*
X55857142Y-62207200D02*
X55904761Y-62159580D01*
X55904761Y-62159580D02*
X55952380Y-62064342D01*
X55952380Y-62064342D02*
X55952380Y-61969104D01*
X55952380Y-61969104D02*
X55904761Y-61873866D01*
X55904761Y-61873866D02*
X55857142Y-61826247D01*
X55857142Y-61826247D02*
X55761904Y-61778628D01*
X55761904Y-61778628D02*
X55571428Y-61731009D01*
X55571428Y-61731009D02*
X55476190Y-61683390D01*
X55476190Y-61683390D02*
X55428571Y-61635771D01*
X55428571Y-61635771D02*
X55380952Y-61540533D01*
X55380952Y-61540533D02*
X55380952Y-61445295D01*
X55380952Y-61445295D02*
X55428571Y-61350057D01*
X55428571Y-61350057D02*
X55476190Y-61302438D01*
X55476190Y-61302438D02*
X55571428Y-61254819D01*
X55571428Y-61254819D02*
X55809523Y-61254819D01*
X55809523Y-61254819D02*
X55952380Y-61302438D01*
X56285714Y-61254819D02*
X56523809Y-62254819D01*
X56523809Y-62254819D02*
X56714285Y-61540533D01*
X56714285Y-61540533D02*
X56904761Y-62254819D01*
X56904761Y-62254819D02*
X57142857Y-61254819D01*
X57285714Y-62350057D02*
X58047618Y-62350057D01*
X58285714Y-62254819D02*
X58285714Y-61254819D01*
X58285714Y-61254819D02*
X58523809Y-61254819D01*
X58523809Y-61254819D02*
X58666666Y-61302438D01*
X58666666Y-61302438D02*
X58761904Y-61397676D01*
X58761904Y-61397676D02*
X58809523Y-61492914D01*
X58809523Y-61492914D02*
X58857142Y-61683390D01*
X58857142Y-61683390D02*
X58857142Y-61826247D01*
X58857142Y-61826247D02*
X58809523Y-62016723D01*
X58809523Y-62016723D02*
X58761904Y-62111961D01*
X58761904Y-62111961D02*
X58666666Y-62207200D01*
X58666666Y-62207200D02*
X58523809Y-62254819D01*
X58523809Y-62254819D02*
X58285714Y-62254819D01*
X59285714Y-62254819D02*
X59285714Y-61254819D01*
X59285714Y-61254819D02*
X59666666Y-61254819D01*
X59666666Y-61254819D02*
X59761904Y-61302438D01*
X59761904Y-61302438D02*
X59809523Y-61350057D01*
X59809523Y-61350057D02*
X59857142Y-61445295D01*
X59857142Y-61445295D02*
X59857142Y-61588152D01*
X59857142Y-61588152D02*
X59809523Y-61683390D01*
X59809523Y-61683390D02*
X59761904Y-61731009D01*
X59761904Y-61731009D02*
X59666666Y-61778628D01*
X59666666Y-61778628D02*
X59285714Y-61778628D01*
X60285714Y-62254819D02*
X60285714Y-61254819D01*
X60285714Y-61254819D02*
X60523809Y-61254819D01*
X60523809Y-61254819D02*
X60666666Y-61302438D01*
X60666666Y-61302438D02*
X60761904Y-61397676D01*
X60761904Y-61397676D02*
X60809523Y-61492914D01*
X60809523Y-61492914D02*
X60857142Y-61683390D01*
X60857142Y-61683390D02*
X60857142Y-61826247D01*
X60857142Y-61826247D02*
X60809523Y-62016723D01*
X60809523Y-62016723D02*
X60761904Y-62111961D01*
X60761904Y-62111961D02*
X60666666Y-62207200D01*
X60666666Y-62207200D02*
X60523809Y-62254819D01*
X60523809Y-62254819D02*
X60285714Y-62254819D01*
X61142857Y-61254819D02*
X61714285Y-61254819D01*
X61428571Y-62254819D02*
X61428571Y-61254819D01*
X56184523Y-44754819D02*
X56309523Y-43754819D01*
X56309523Y-43754819D02*
X56553571Y-44469104D01*
X56553571Y-44469104D02*
X56976190Y-43754819D01*
X56976190Y-43754819D02*
X56851190Y-44754819D01*
X57839285Y-44088152D02*
X57755952Y-44754819D01*
X57410714Y-44088152D02*
X57345238Y-44611961D01*
X57345238Y-44611961D02*
X57380952Y-44707200D01*
X57380952Y-44707200D02*
X57470238Y-44754819D01*
X57470238Y-44754819D02*
X57613095Y-44754819D01*
X57613095Y-44754819D02*
X57714285Y-44707200D01*
X57714285Y-44707200D02*
X57767857Y-44659580D01*
X58172619Y-44088152D02*
X58553571Y-44088152D01*
X58357142Y-43754819D02*
X58250000Y-44611961D01*
X58250000Y-44611961D02*
X58285714Y-44707200D01*
X58285714Y-44707200D02*
X58375000Y-44754819D01*
X58375000Y-44754819D02*
X58470238Y-44754819D01*
X59190476Y-44707200D02*
X59089286Y-44754819D01*
X59089286Y-44754819D02*
X58898809Y-44754819D01*
X58898809Y-44754819D02*
X58809524Y-44707200D01*
X58809524Y-44707200D02*
X58773809Y-44611961D01*
X58773809Y-44611961D02*
X58821429Y-44231009D01*
X58821429Y-44231009D02*
X58880952Y-44135771D01*
X58880952Y-44135771D02*
X58982143Y-44088152D01*
X58982143Y-44088152D02*
X59172619Y-44088152D01*
X59172619Y-44088152D02*
X59261905Y-44135771D01*
X59261905Y-44135771D02*
X59297619Y-44231009D01*
X59297619Y-44231009D02*
X59285714Y-44326247D01*
X59285714Y-44326247D02*
X58797619Y-44421485D01*
X60410715Y-44469104D02*
X60886905Y-44469104D01*
X60279762Y-44754819D02*
X60738096Y-43754819D01*
X60738096Y-43754819D02*
X60946429Y-44754819D01*
X88357142Y-81824819D02*
X88023809Y-81348628D01*
X87785714Y-81824819D02*
X87785714Y-80824819D01*
X87785714Y-80824819D02*
X88166666Y-80824819D01*
X88166666Y-80824819D02*
X88261904Y-80872438D01*
X88261904Y-80872438D02*
X88309523Y-80920057D01*
X88309523Y-80920057D02*
X88357142Y-81015295D01*
X88357142Y-81015295D02*
X88357142Y-81158152D01*
X88357142Y-81158152D02*
X88309523Y-81253390D01*
X88309523Y-81253390D02*
X88261904Y-81301009D01*
X88261904Y-81301009D02*
X88166666Y-81348628D01*
X88166666Y-81348628D02*
X87785714Y-81348628D01*
X89214285Y-80824819D02*
X89023809Y-80824819D01*
X89023809Y-80824819D02*
X88928571Y-80872438D01*
X88928571Y-80872438D02*
X88880952Y-80920057D01*
X88880952Y-80920057D02*
X88785714Y-81062914D01*
X88785714Y-81062914D02*
X88738095Y-81253390D01*
X88738095Y-81253390D02*
X88738095Y-81634342D01*
X88738095Y-81634342D02*
X88785714Y-81729580D01*
X88785714Y-81729580D02*
X88833333Y-81777200D01*
X88833333Y-81777200D02*
X88928571Y-81824819D01*
X88928571Y-81824819D02*
X89119047Y-81824819D01*
X89119047Y-81824819D02*
X89214285Y-81777200D01*
X89214285Y-81777200D02*
X89261904Y-81729580D01*
X89261904Y-81729580D02*
X89309523Y-81634342D01*
X89309523Y-81634342D02*
X89309523Y-81396247D01*
X89309523Y-81396247D02*
X89261904Y-81301009D01*
X89261904Y-81301009D02*
X89214285Y-81253390D01*
X89214285Y-81253390D02*
X89119047Y-81205771D01*
X89119047Y-81205771D02*
X88928571Y-81205771D01*
X88928571Y-81205771D02*
X88833333Y-81253390D01*
X88833333Y-81253390D02*
X88785714Y-81301009D01*
X88785714Y-81301009D02*
X88738095Y-81396247D01*
X90261904Y-81824819D02*
X89690476Y-81824819D01*
X89976190Y-81824819D02*
X89976190Y-80824819D01*
X89976190Y-80824819D02*
X89880952Y-80967676D01*
X89880952Y-80967676D02*
X89785714Y-81062914D01*
X89785714Y-81062914D02*
X89690476Y-81110533D01*
X88880952Y-79454819D02*
X88309524Y-79454819D01*
X88595238Y-79454819D02*
X88595238Y-78454819D01*
X88595238Y-78454819D02*
X88500000Y-78597676D01*
X88500000Y-78597676D02*
X88404762Y-78692914D01*
X88404762Y-78692914D02*
X88309524Y-78740533D01*
X89309524Y-79454819D02*
X89309524Y-78454819D01*
X89404762Y-79073866D02*
X89690476Y-79454819D01*
X89690476Y-78788152D02*
X89309524Y-79169104D01*
X86904761Y-142054819D02*
X86571428Y-141578628D01*
X86333333Y-142054819D02*
X86333333Y-141054819D01*
X86333333Y-141054819D02*
X86714285Y-141054819D01*
X86714285Y-141054819D02*
X86809523Y-141102438D01*
X86809523Y-141102438D02*
X86857142Y-141150057D01*
X86857142Y-141150057D02*
X86904761Y-141245295D01*
X86904761Y-141245295D02*
X86904761Y-141388152D01*
X86904761Y-141388152D02*
X86857142Y-141483390D01*
X86857142Y-141483390D02*
X86809523Y-141531009D01*
X86809523Y-141531009D02*
X86714285Y-141578628D01*
X86714285Y-141578628D02*
X86333333Y-141578628D01*
X87190476Y-141054819D02*
X87523809Y-142054819D01*
X87523809Y-142054819D02*
X87857142Y-141054819D01*
X88238095Y-142054819D02*
X88428571Y-142054819D01*
X88428571Y-142054819D02*
X88523809Y-142007200D01*
X88523809Y-142007200D02*
X88571428Y-141959580D01*
X88571428Y-141959580D02*
X88666666Y-141816723D01*
X88666666Y-141816723D02*
X88714285Y-141626247D01*
X88714285Y-141626247D02*
X88714285Y-141245295D01*
X88714285Y-141245295D02*
X88666666Y-141150057D01*
X88666666Y-141150057D02*
X88619047Y-141102438D01*
X88619047Y-141102438D02*
X88523809Y-141054819D01*
X88523809Y-141054819D02*
X88333333Y-141054819D01*
X88333333Y-141054819D02*
X88238095Y-141102438D01*
X88238095Y-141102438D02*
X88190476Y-141150057D01*
X88190476Y-141150057D02*
X88142857Y-141245295D01*
X88142857Y-141245295D02*
X88142857Y-141483390D01*
X88142857Y-141483390D02*
X88190476Y-141578628D01*
X88190476Y-141578628D02*
X88238095Y-141626247D01*
X88238095Y-141626247D02*
X88333333Y-141673866D01*
X88333333Y-141673866D02*
X88523809Y-141673866D01*
X88523809Y-141673866D02*
X88619047Y-141626247D01*
X88619047Y-141626247D02*
X88666666Y-141578628D01*
X88666666Y-141578628D02*
X88714285Y-141483390D01*
X94754819Y-158321428D02*
X94754819Y-158892856D01*
X94754819Y-158607142D02*
X93754819Y-158607142D01*
X93754819Y-158607142D02*
X93897676Y-158702380D01*
X93897676Y-158702380D02*
X93992914Y-158797618D01*
X93992914Y-158797618D02*
X94040533Y-158892856D01*
X93754819Y-157702380D02*
X93754819Y-157607142D01*
X93754819Y-157607142D02*
X93802438Y-157511904D01*
X93802438Y-157511904D02*
X93850057Y-157464285D01*
X93850057Y-157464285D02*
X93945295Y-157416666D01*
X93945295Y-157416666D02*
X94135771Y-157369047D01*
X94135771Y-157369047D02*
X94373866Y-157369047D01*
X94373866Y-157369047D02*
X94564342Y-157416666D01*
X94564342Y-157416666D02*
X94659580Y-157464285D01*
X94659580Y-157464285D02*
X94707200Y-157511904D01*
X94707200Y-157511904D02*
X94754819Y-157607142D01*
X94754819Y-157607142D02*
X94754819Y-157702380D01*
X94754819Y-157702380D02*
X94707200Y-157797618D01*
X94707200Y-157797618D02*
X94659580Y-157845237D01*
X94659580Y-157845237D02*
X94564342Y-157892856D01*
X94564342Y-157892856D02*
X94373866Y-157940475D01*
X94373866Y-157940475D02*
X94135771Y-157940475D01*
X94135771Y-157940475D02*
X93945295Y-157892856D01*
X93945295Y-157892856D02*
X93850057Y-157845237D01*
X93850057Y-157845237D02*
X93802438Y-157797618D01*
X93802438Y-157797618D02*
X93754819Y-157702380D01*
X93754819Y-156749999D02*
X93754819Y-156654761D01*
X93754819Y-156654761D02*
X93802438Y-156559523D01*
X93802438Y-156559523D02*
X93850057Y-156511904D01*
X93850057Y-156511904D02*
X93945295Y-156464285D01*
X93945295Y-156464285D02*
X94135771Y-156416666D01*
X94135771Y-156416666D02*
X94373866Y-156416666D01*
X94373866Y-156416666D02*
X94564342Y-156464285D01*
X94564342Y-156464285D02*
X94659580Y-156511904D01*
X94659580Y-156511904D02*
X94707200Y-156559523D01*
X94707200Y-156559523D02*
X94754819Y-156654761D01*
X94754819Y-156654761D02*
X94754819Y-156749999D01*
X94754819Y-156749999D02*
X94707200Y-156845237D01*
X94707200Y-156845237D02*
X94659580Y-156892856D01*
X94659580Y-156892856D02*
X94564342Y-156940475D01*
X94564342Y-156940475D02*
X94373866Y-156988094D01*
X94373866Y-156988094D02*
X94135771Y-156988094D01*
X94135771Y-156988094D02*
X93945295Y-156940475D01*
X93945295Y-156940475D02*
X93850057Y-156892856D01*
X93850057Y-156892856D02*
X93802438Y-156845237D01*
X93802438Y-156845237D02*
X93754819Y-156749999D01*
X94754819Y-155988094D02*
X93754819Y-155988094D01*
X94373866Y-155892856D02*
X94754819Y-155607142D01*
X94088152Y-155607142D02*
X94469104Y-155988094D01*
X84744047Y-162509580D02*
X84690475Y-162557200D01*
X84690475Y-162557200D02*
X84541666Y-162604819D01*
X84541666Y-162604819D02*
X84446428Y-162604819D01*
X84446428Y-162604819D02*
X84309523Y-162557200D01*
X84309523Y-162557200D02*
X84226190Y-162461961D01*
X84226190Y-162461961D02*
X84190475Y-162366723D01*
X84190475Y-162366723D02*
X84166666Y-162176247D01*
X84166666Y-162176247D02*
X84184523Y-162033390D01*
X84184523Y-162033390D02*
X84255951Y-161842914D01*
X84255951Y-161842914D02*
X84315475Y-161747676D01*
X84315475Y-161747676D02*
X84422618Y-161652438D01*
X84422618Y-161652438D02*
X84571428Y-161604819D01*
X84571428Y-161604819D02*
X84666666Y-161604819D01*
X84666666Y-161604819D02*
X84803571Y-161652438D01*
X84803571Y-161652438D02*
X84845237Y-161700057D01*
X85142856Y-161604819D02*
X85351190Y-162604819D01*
X85351190Y-162604819D02*
X85809523Y-161604819D01*
X86767857Y-162319104D02*
X87244047Y-162319104D01*
X86636904Y-162604819D02*
X87095238Y-161604819D01*
X87095238Y-161604819D02*
X87303571Y-162604819D01*
X87636904Y-162604819D02*
X87720238Y-161938152D01*
X87708333Y-162033390D02*
X87761904Y-161985771D01*
X87761904Y-161985771D02*
X87863095Y-161938152D01*
X87863095Y-161938152D02*
X88005952Y-161938152D01*
X88005952Y-161938152D02*
X88095238Y-161985771D01*
X88095238Y-161985771D02*
X88130952Y-162081009D01*
X88130952Y-162081009D02*
X88065476Y-162604819D01*
X88130952Y-162081009D02*
X88190476Y-161985771D01*
X88190476Y-161985771D02*
X88291666Y-161938152D01*
X88291666Y-161938152D02*
X88434523Y-161938152D01*
X88434523Y-161938152D02*
X88523809Y-161985771D01*
X88523809Y-161985771D02*
X88559523Y-162081009D01*
X88559523Y-162081009D02*
X88494047Y-162604819D01*
X88910714Y-161938152D02*
X89291666Y-161938152D01*
X89095237Y-161604819D02*
X88988095Y-162461961D01*
X88988095Y-162461961D02*
X89023809Y-162557200D01*
X89023809Y-162557200D02*
X89113095Y-162604819D01*
X89113095Y-162604819D02*
X89208333Y-162604819D01*
X90886905Y-162509580D02*
X90833333Y-162557200D01*
X90833333Y-162557200D02*
X90684524Y-162604819D01*
X90684524Y-162604819D02*
X90589286Y-162604819D01*
X90589286Y-162604819D02*
X90452381Y-162557200D01*
X90452381Y-162557200D02*
X90369048Y-162461961D01*
X90369048Y-162461961D02*
X90333333Y-162366723D01*
X90333333Y-162366723D02*
X90309524Y-162176247D01*
X90309524Y-162176247D02*
X90327381Y-162033390D01*
X90327381Y-162033390D02*
X90398809Y-161842914D01*
X90398809Y-161842914D02*
X90458333Y-161747676D01*
X90458333Y-161747676D02*
X90565476Y-161652438D01*
X90565476Y-161652438D02*
X90714286Y-161604819D01*
X90714286Y-161604819D02*
X90809524Y-161604819D01*
X90809524Y-161604819D02*
X90946429Y-161652438D01*
X90946429Y-161652438D02*
X90988095Y-161700057D01*
X57254819Y-111195238D02*
X56778628Y-111528571D01*
X57254819Y-111766666D02*
X56254819Y-111766666D01*
X56254819Y-111766666D02*
X56254819Y-111385714D01*
X56254819Y-111385714D02*
X56302438Y-111290476D01*
X56302438Y-111290476D02*
X56350057Y-111242857D01*
X56350057Y-111242857D02*
X56445295Y-111195238D01*
X56445295Y-111195238D02*
X56588152Y-111195238D01*
X56588152Y-111195238D02*
X56683390Y-111242857D01*
X56683390Y-111242857D02*
X56731009Y-111290476D01*
X56731009Y-111290476D02*
X56778628Y-111385714D01*
X56778628Y-111385714D02*
X56778628Y-111766666D01*
X56254819Y-110909523D02*
X57254819Y-110576190D01*
X57254819Y-110576190D02*
X56254819Y-110242857D01*
X56254819Y-109433333D02*
X56254819Y-109909523D01*
X56254819Y-109909523D02*
X56731009Y-109957142D01*
X56731009Y-109957142D02*
X56683390Y-109909523D01*
X56683390Y-109909523D02*
X56635771Y-109814285D01*
X56635771Y-109814285D02*
X56635771Y-109576190D01*
X56635771Y-109576190D02*
X56683390Y-109480952D01*
X56683390Y-109480952D02*
X56731009Y-109433333D01*
X56731009Y-109433333D02*
X56826247Y-109385714D01*
X56826247Y-109385714D02*
X57064342Y-109385714D01*
X57064342Y-109385714D02*
X57159580Y-109433333D01*
X57159580Y-109433333D02*
X57207200Y-109480952D01*
X57207200Y-109480952D02*
X57254819Y-109576190D01*
X57254819Y-109576190D02*
X57254819Y-109814285D01*
X57254819Y-109814285D02*
X57207200Y-109909523D01*
X57207200Y-109909523D02*
X57159580Y-109957142D01*
X68754819Y-111871428D02*
X68754819Y-112442856D01*
X68754819Y-112157142D02*
X67754819Y-112157142D01*
X67754819Y-112157142D02*
X67897676Y-112252380D01*
X67897676Y-112252380D02*
X67992914Y-112347618D01*
X67992914Y-112347618D02*
X68040533Y-112442856D01*
X67754819Y-111252380D02*
X67754819Y-111157142D01*
X67754819Y-111157142D02*
X67802438Y-111061904D01*
X67802438Y-111061904D02*
X67850057Y-111014285D01*
X67850057Y-111014285D02*
X67945295Y-110966666D01*
X67945295Y-110966666D02*
X68135771Y-110919047D01*
X68135771Y-110919047D02*
X68373866Y-110919047D01*
X68373866Y-110919047D02*
X68564342Y-110966666D01*
X68564342Y-110966666D02*
X68659580Y-111014285D01*
X68659580Y-111014285D02*
X68707200Y-111061904D01*
X68707200Y-111061904D02*
X68754819Y-111157142D01*
X68754819Y-111157142D02*
X68754819Y-111252380D01*
X68754819Y-111252380D02*
X68707200Y-111347618D01*
X68707200Y-111347618D02*
X68659580Y-111395237D01*
X68659580Y-111395237D02*
X68564342Y-111442856D01*
X68564342Y-111442856D02*
X68373866Y-111490475D01*
X68373866Y-111490475D02*
X68135771Y-111490475D01*
X68135771Y-111490475D02*
X67945295Y-111442856D01*
X67945295Y-111442856D02*
X67850057Y-111395237D01*
X67850057Y-111395237D02*
X67802438Y-111347618D01*
X67802438Y-111347618D02*
X67754819Y-111252380D01*
X67754819Y-110299999D02*
X67754819Y-110204761D01*
X67754819Y-110204761D02*
X67802438Y-110109523D01*
X67802438Y-110109523D02*
X67850057Y-110061904D01*
X67850057Y-110061904D02*
X67945295Y-110014285D01*
X67945295Y-110014285D02*
X68135771Y-109966666D01*
X68135771Y-109966666D02*
X68373866Y-109966666D01*
X68373866Y-109966666D02*
X68564342Y-110014285D01*
X68564342Y-110014285D02*
X68659580Y-110061904D01*
X68659580Y-110061904D02*
X68707200Y-110109523D01*
X68707200Y-110109523D02*
X68754819Y-110204761D01*
X68754819Y-110204761D02*
X68754819Y-110299999D01*
X68754819Y-110299999D02*
X68707200Y-110395237D01*
X68707200Y-110395237D02*
X68659580Y-110442856D01*
X68659580Y-110442856D02*
X68564342Y-110490475D01*
X68564342Y-110490475D02*
X68373866Y-110538094D01*
X68373866Y-110538094D02*
X68135771Y-110538094D01*
X68135771Y-110538094D02*
X67945295Y-110490475D01*
X67945295Y-110490475D02*
X67850057Y-110442856D01*
X67850057Y-110442856D02*
X67802438Y-110395237D01*
X67802438Y-110395237D02*
X67754819Y-110299999D01*
X68754819Y-109538094D02*
X67754819Y-109538094D01*
X68373866Y-109442856D02*
X68754819Y-109157142D01*
X68088152Y-109157142D02*
X68469104Y-109538094D01*
X59952380Y-114954819D02*
X60142856Y-114954819D01*
X60142856Y-114954819D02*
X60232141Y-115002438D01*
X60232141Y-115002438D02*
X60315475Y-115097676D01*
X60315475Y-115097676D02*
X60339284Y-115288152D01*
X60339284Y-115288152D02*
X60297618Y-115621485D01*
X60297618Y-115621485D02*
X60226189Y-115811961D01*
X60226189Y-115811961D02*
X60119046Y-115907200D01*
X60119046Y-115907200D02*
X60017856Y-115954819D01*
X60017856Y-115954819D02*
X59827380Y-115954819D01*
X59827380Y-115954819D02*
X59738094Y-115907200D01*
X59738094Y-115907200D02*
X59654761Y-115811961D01*
X59654761Y-115811961D02*
X59630951Y-115621485D01*
X59630951Y-115621485D02*
X59672618Y-115288152D01*
X59672618Y-115288152D02*
X59744046Y-115097676D01*
X59744046Y-115097676D02*
X59851189Y-115002438D01*
X59851189Y-115002438D02*
X59952380Y-114954819D01*
X60624999Y-115288152D02*
X61005951Y-115288152D01*
X60684522Y-115954819D02*
X60791665Y-115097676D01*
X60791665Y-115097676D02*
X60851189Y-115002438D01*
X60851189Y-115002438D02*
X60952380Y-114954819D01*
X60952380Y-114954819D02*
X61047618Y-114954819D01*
X61196428Y-115288152D02*
X61577380Y-115288152D01*
X61255951Y-115954819D02*
X61363094Y-115097676D01*
X61363094Y-115097676D02*
X61422618Y-115002438D01*
X61422618Y-115002438D02*
X61523809Y-114954819D01*
X61523809Y-114954819D02*
X61619047Y-114954819D01*
X61785714Y-115907200D02*
X61874999Y-115954819D01*
X61874999Y-115954819D02*
X62065476Y-115954819D01*
X62065476Y-115954819D02*
X62166666Y-115907200D01*
X62166666Y-115907200D02*
X62226190Y-115811961D01*
X62226190Y-115811961D02*
X62232142Y-115764342D01*
X62232142Y-115764342D02*
X62196428Y-115669104D01*
X62196428Y-115669104D02*
X62107142Y-115621485D01*
X62107142Y-115621485D02*
X61964285Y-115621485D01*
X61964285Y-115621485D02*
X61874999Y-115573866D01*
X61874999Y-115573866D02*
X61839285Y-115478628D01*
X61839285Y-115478628D02*
X61845238Y-115431009D01*
X61845238Y-115431009D02*
X61904761Y-115335771D01*
X61904761Y-115335771D02*
X62005952Y-115288152D01*
X62005952Y-115288152D02*
X62148809Y-115288152D01*
X62148809Y-115288152D02*
X62238095Y-115335771D01*
X63023809Y-115907200D02*
X62922619Y-115954819D01*
X62922619Y-115954819D02*
X62732142Y-115954819D01*
X62732142Y-115954819D02*
X62642857Y-115907200D01*
X62642857Y-115907200D02*
X62607142Y-115811961D01*
X62607142Y-115811961D02*
X62654762Y-115431009D01*
X62654762Y-115431009D02*
X62714285Y-115335771D01*
X62714285Y-115335771D02*
X62815476Y-115288152D01*
X62815476Y-115288152D02*
X63005952Y-115288152D01*
X63005952Y-115288152D02*
X63095238Y-115335771D01*
X63095238Y-115335771D02*
X63130952Y-115431009D01*
X63130952Y-115431009D02*
X63119047Y-115526247D01*
X63119047Y-115526247D02*
X62630952Y-115621485D01*
X63434524Y-115288152D02*
X63815476Y-115288152D01*
X63619047Y-114954819D02*
X63511905Y-115811961D01*
X63511905Y-115811961D02*
X63547619Y-115907200D01*
X63547619Y-115907200D02*
X63636905Y-115954819D01*
X63636905Y-115954819D02*
X63732143Y-115954819D01*
X65226191Y-115431009D02*
X65363096Y-115478628D01*
X65363096Y-115478628D02*
X65404762Y-115526247D01*
X65404762Y-115526247D02*
X65440477Y-115621485D01*
X65440477Y-115621485D02*
X65422619Y-115764342D01*
X65422619Y-115764342D02*
X65363096Y-115859580D01*
X65363096Y-115859580D02*
X65309524Y-115907200D01*
X65309524Y-115907200D02*
X65208334Y-115954819D01*
X65208334Y-115954819D02*
X64827381Y-115954819D01*
X64827381Y-115954819D02*
X64952381Y-114954819D01*
X64952381Y-114954819D02*
X65285715Y-114954819D01*
X65285715Y-114954819D02*
X65375000Y-115002438D01*
X65375000Y-115002438D02*
X65416667Y-115050057D01*
X65416667Y-115050057D02*
X65452381Y-115145295D01*
X65452381Y-115145295D02*
X65440477Y-115240533D01*
X65440477Y-115240533D02*
X65380953Y-115335771D01*
X65380953Y-115335771D02*
X65327381Y-115383390D01*
X65327381Y-115383390D02*
X65226191Y-115431009D01*
X65226191Y-115431009D02*
X64892858Y-115431009D01*
X86904761Y-113304819D02*
X86571428Y-112828628D01*
X86333333Y-113304819D02*
X86333333Y-112304819D01*
X86333333Y-112304819D02*
X86714285Y-112304819D01*
X86714285Y-112304819D02*
X86809523Y-112352438D01*
X86809523Y-112352438D02*
X86857142Y-112400057D01*
X86857142Y-112400057D02*
X86904761Y-112495295D01*
X86904761Y-112495295D02*
X86904761Y-112638152D01*
X86904761Y-112638152D02*
X86857142Y-112733390D01*
X86857142Y-112733390D02*
X86809523Y-112781009D01*
X86809523Y-112781009D02*
X86714285Y-112828628D01*
X86714285Y-112828628D02*
X86333333Y-112828628D01*
X87190476Y-112304819D02*
X87523809Y-113304819D01*
X87523809Y-113304819D02*
X87857142Y-112304819D01*
X88333333Y-112733390D02*
X88238095Y-112685771D01*
X88238095Y-112685771D02*
X88190476Y-112638152D01*
X88190476Y-112638152D02*
X88142857Y-112542914D01*
X88142857Y-112542914D02*
X88142857Y-112495295D01*
X88142857Y-112495295D02*
X88190476Y-112400057D01*
X88190476Y-112400057D02*
X88238095Y-112352438D01*
X88238095Y-112352438D02*
X88333333Y-112304819D01*
X88333333Y-112304819D02*
X88523809Y-112304819D01*
X88523809Y-112304819D02*
X88619047Y-112352438D01*
X88619047Y-112352438D02*
X88666666Y-112400057D01*
X88666666Y-112400057D02*
X88714285Y-112495295D01*
X88714285Y-112495295D02*
X88714285Y-112542914D01*
X88714285Y-112542914D02*
X88666666Y-112638152D01*
X88666666Y-112638152D02*
X88619047Y-112685771D01*
X88619047Y-112685771D02*
X88523809Y-112733390D01*
X88523809Y-112733390D02*
X88333333Y-112733390D01*
X88333333Y-112733390D02*
X88238095Y-112781009D01*
X88238095Y-112781009D02*
X88190476Y-112828628D01*
X88190476Y-112828628D02*
X88142857Y-112923866D01*
X88142857Y-112923866D02*
X88142857Y-113114342D01*
X88142857Y-113114342D02*
X88190476Y-113209580D01*
X88190476Y-113209580D02*
X88238095Y-113257200D01*
X88238095Y-113257200D02*
X88333333Y-113304819D01*
X88333333Y-113304819D02*
X88523809Y-113304819D01*
X88523809Y-113304819D02*
X88619047Y-113257200D01*
X88619047Y-113257200D02*
X88666666Y-113209580D01*
X88666666Y-113209580D02*
X88714285Y-113114342D01*
X88714285Y-113114342D02*
X88714285Y-112923866D01*
X88714285Y-112923866D02*
X88666666Y-112828628D01*
X88666666Y-112828628D02*
X88619047Y-112781009D01*
X88619047Y-112781009D02*
X88523809Y-112733390D01*
X94754819Y-129571428D02*
X94754819Y-130142856D01*
X94754819Y-129857142D02*
X93754819Y-129857142D01*
X93754819Y-129857142D02*
X93897676Y-129952380D01*
X93897676Y-129952380D02*
X93992914Y-130047618D01*
X93992914Y-130047618D02*
X94040533Y-130142856D01*
X93754819Y-128952380D02*
X93754819Y-128857142D01*
X93754819Y-128857142D02*
X93802438Y-128761904D01*
X93802438Y-128761904D02*
X93850057Y-128714285D01*
X93850057Y-128714285D02*
X93945295Y-128666666D01*
X93945295Y-128666666D02*
X94135771Y-128619047D01*
X94135771Y-128619047D02*
X94373866Y-128619047D01*
X94373866Y-128619047D02*
X94564342Y-128666666D01*
X94564342Y-128666666D02*
X94659580Y-128714285D01*
X94659580Y-128714285D02*
X94707200Y-128761904D01*
X94707200Y-128761904D02*
X94754819Y-128857142D01*
X94754819Y-128857142D02*
X94754819Y-128952380D01*
X94754819Y-128952380D02*
X94707200Y-129047618D01*
X94707200Y-129047618D02*
X94659580Y-129095237D01*
X94659580Y-129095237D02*
X94564342Y-129142856D01*
X94564342Y-129142856D02*
X94373866Y-129190475D01*
X94373866Y-129190475D02*
X94135771Y-129190475D01*
X94135771Y-129190475D02*
X93945295Y-129142856D01*
X93945295Y-129142856D02*
X93850057Y-129095237D01*
X93850057Y-129095237D02*
X93802438Y-129047618D01*
X93802438Y-129047618D02*
X93754819Y-128952380D01*
X93754819Y-127999999D02*
X93754819Y-127904761D01*
X93754819Y-127904761D02*
X93802438Y-127809523D01*
X93802438Y-127809523D02*
X93850057Y-127761904D01*
X93850057Y-127761904D02*
X93945295Y-127714285D01*
X93945295Y-127714285D02*
X94135771Y-127666666D01*
X94135771Y-127666666D02*
X94373866Y-127666666D01*
X94373866Y-127666666D02*
X94564342Y-127714285D01*
X94564342Y-127714285D02*
X94659580Y-127761904D01*
X94659580Y-127761904D02*
X94707200Y-127809523D01*
X94707200Y-127809523D02*
X94754819Y-127904761D01*
X94754819Y-127904761D02*
X94754819Y-127999999D01*
X94754819Y-127999999D02*
X94707200Y-128095237D01*
X94707200Y-128095237D02*
X94659580Y-128142856D01*
X94659580Y-128142856D02*
X94564342Y-128190475D01*
X94564342Y-128190475D02*
X94373866Y-128238094D01*
X94373866Y-128238094D02*
X94135771Y-128238094D01*
X94135771Y-128238094D02*
X93945295Y-128190475D01*
X93945295Y-128190475D02*
X93850057Y-128142856D01*
X93850057Y-128142856D02*
X93802438Y-128095237D01*
X93802438Y-128095237D02*
X93754819Y-127999999D01*
X94754819Y-127238094D02*
X93754819Y-127238094D01*
X94373866Y-127142856D02*
X94754819Y-126857142D01*
X94088152Y-126857142D02*
X94469104Y-127238094D01*
X84744047Y-133759580D02*
X84690475Y-133807200D01*
X84690475Y-133807200D02*
X84541666Y-133854819D01*
X84541666Y-133854819D02*
X84446428Y-133854819D01*
X84446428Y-133854819D02*
X84309523Y-133807200D01*
X84309523Y-133807200D02*
X84226190Y-133711961D01*
X84226190Y-133711961D02*
X84190475Y-133616723D01*
X84190475Y-133616723D02*
X84166666Y-133426247D01*
X84166666Y-133426247D02*
X84184523Y-133283390D01*
X84184523Y-133283390D02*
X84255951Y-133092914D01*
X84255951Y-133092914D02*
X84315475Y-132997676D01*
X84315475Y-132997676D02*
X84422618Y-132902438D01*
X84422618Y-132902438D02*
X84571428Y-132854819D01*
X84571428Y-132854819D02*
X84666666Y-132854819D01*
X84666666Y-132854819D02*
X84803571Y-132902438D01*
X84803571Y-132902438D02*
X84845237Y-132950057D01*
X85142856Y-132854819D02*
X85351190Y-133854819D01*
X85351190Y-133854819D02*
X85809523Y-132854819D01*
X86767857Y-133569104D02*
X87244047Y-133569104D01*
X86636904Y-133854819D02*
X87095238Y-132854819D01*
X87095238Y-132854819D02*
X87303571Y-133854819D01*
X87636904Y-133854819D02*
X87720238Y-133188152D01*
X87708333Y-133283390D02*
X87761904Y-133235771D01*
X87761904Y-133235771D02*
X87863095Y-133188152D01*
X87863095Y-133188152D02*
X88005952Y-133188152D01*
X88005952Y-133188152D02*
X88095238Y-133235771D01*
X88095238Y-133235771D02*
X88130952Y-133331009D01*
X88130952Y-133331009D02*
X88065476Y-133854819D01*
X88130952Y-133331009D02*
X88190476Y-133235771D01*
X88190476Y-133235771D02*
X88291666Y-133188152D01*
X88291666Y-133188152D02*
X88434523Y-133188152D01*
X88434523Y-133188152D02*
X88523809Y-133235771D01*
X88523809Y-133235771D02*
X88559523Y-133331009D01*
X88559523Y-133331009D02*
X88494047Y-133854819D01*
X88910714Y-133188152D02*
X89291666Y-133188152D01*
X89095237Y-132854819D02*
X88988095Y-133711961D01*
X88988095Y-133711961D02*
X89023809Y-133807200D01*
X89023809Y-133807200D02*
X89113095Y-133854819D01*
X89113095Y-133854819D02*
X89208333Y-133854819D01*
X90702381Y-133331009D02*
X90839286Y-133378628D01*
X90839286Y-133378628D02*
X90880952Y-133426247D01*
X90880952Y-133426247D02*
X90916667Y-133521485D01*
X90916667Y-133521485D02*
X90898809Y-133664342D01*
X90898809Y-133664342D02*
X90839286Y-133759580D01*
X90839286Y-133759580D02*
X90785714Y-133807200D01*
X90785714Y-133807200D02*
X90684524Y-133854819D01*
X90684524Y-133854819D02*
X90303571Y-133854819D01*
X90303571Y-133854819D02*
X90428571Y-132854819D01*
X90428571Y-132854819D02*
X90761905Y-132854819D01*
X90761905Y-132854819D02*
X90851190Y-132902438D01*
X90851190Y-132902438D02*
X90892857Y-132950057D01*
X90892857Y-132950057D02*
X90928571Y-133045295D01*
X90928571Y-133045295D02*
X90916667Y-133140533D01*
X90916667Y-133140533D02*
X90857143Y-133235771D01*
X90857143Y-133235771D02*
X90803571Y-133283390D01*
X90803571Y-133283390D02*
X90702381Y-133331009D01*
X90702381Y-133331009D02*
X90369048Y-133331009D01*
X86904761Y-84554819D02*
X86571428Y-84078628D01*
X86333333Y-84554819D02*
X86333333Y-83554819D01*
X86333333Y-83554819D02*
X86714285Y-83554819D01*
X86714285Y-83554819D02*
X86809523Y-83602438D01*
X86809523Y-83602438D02*
X86857142Y-83650057D01*
X86857142Y-83650057D02*
X86904761Y-83745295D01*
X86904761Y-83745295D02*
X86904761Y-83888152D01*
X86904761Y-83888152D02*
X86857142Y-83983390D01*
X86857142Y-83983390D02*
X86809523Y-84031009D01*
X86809523Y-84031009D02*
X86714285Y-84078628D01*
X86714285Y-84078628D02*
X86333333Y-84078628D01*
X87190476Y-83554819D02*
X87523809Y-84554819D01*
X87523809Y-84554819D02*
X87857142Y-83554819D01*
X88095238Y-83554819D02*
X88761904Y-83554819D01*
X88761904Y-83554819D02*
X88333333Y-84554819D01*
X94754819Y-100821428D02*
X94754819Y-101392856D01*
X94754819Y-101107142D02*
X93754819Y-101107142D01*
X93754819Y-101107142D02*
X93897676Y-101202380D01*
X93897676Y-101202380D02*
X93992914Y-101297618D01*
X93992914Y-101297618D02*
X94040533Y-101392856D01*
X93754819Y-100202380D02*
X93754819Y-100107142D01*
X93754819Y-100107142D02*
X93802438Y-100011904D01*
X93802438Y-100011904D02*
X93850057Y-99964285D01*
X93850057Y-99964285D02*
X93945295Y-99916666D01*
X93945295Y-99916666D02*
X94135771Y-99869047D01*
X94135771Y-99869047D02*
X94373866Y-99869047D01*
X94373866Y-99869047D02*
X94564342Y-99916666D01*
X94564342Y-99916666D02*
X94659580Y-99964285D01*
X94659580Y-99964285D02*
X94707200Y-100011904D01*
X94707200Y-100011904D02*
X94754819Y-100107142D01*
X94754819Y-100107142D02*
X94754819Y-100202380D01*
X94754819Y-100202380D02*
X94707200Y-100297618D01*
X94707200Y-100297618D02*
X94659580Y-100345237D01*
X94659580Y-100345237D02*
X94564342Y-100392856D01*
X94564342Y-100392856D02*
X94373866Y-100440475D01*
X94373866Y-100440475D02*
X94135771Y-100440475D01*
X94135771Y-100440475D02*
X93945295Y-100392856D01*
X93945295Y-100392856D02*
X93850057Y-100345237D01*
X93850057Y-100345237D02*
X93802438Y-100297618D01*
X93802438Y-100297618D02*
X93754819Y-100202380D01*
X93754819Y-99249999D02*
X93754819Y-99154761D01*
X93754819Y-99154761D02*
X93802438Y-99059523D01*
X93802438Y-99059523D02*
X93850057Y-99011904D01*
X93850057Y-99011904D02*
X93945295Y-98964285D01*
X93945295Y-98964285D02*
X94135771Y-98916666D01*
X94135771Y-98916666D02*
X94373866Y-98916666D01*
X94373866Y-98916666D02*
X94564342Y-98964285D01*
X94564342Y-98964285D02*
X94659580Y-99011904D01*
X94659580Y-99011904D02*
X94707200Y-99059523D01*
X94707200Y-99059523D02*
X94754819Y-99154761D01*
X94754819Y-99154761D02*
X94754819Y-99249999D01*
X94754819Y-99249999D02*
X94707200Y-99345237D01*
X94707200Y-99345237D02*
X94659580Y-99392856D01*
X94659580Y-99392856D02*
X94564342Y-99440475D01*
X94564342Y-99440475D02*
X94373866Y-99488094D01*
X94373866Y-99488094D02*
X94135771Y-99488094D01*
X94135771Y-99488094D02*
X93945295Y-99440475D01*
X93945295Y-99440475D02*
X93850057Y-99392856D01*
X93850057Y-99392856D02*
X93802438Y-99345237D01*
X93802438Y-99345237D02*
X93754819Y-99249999D01*
X94754819Y-98488094D02*
X93754819Y-98488094D01*
X94373866Y-98392856D02*
X94754819Y-98107142D01*
X94088152Y-98107142D02*
X94469104Y-98488094D01*
X84815476Y-105009580D02*
X84761904Y-105057200D01*
X84761904Y-105057200D02*
X84613095Y-105104819D01*
X84613095Y-105104819D02*
X84517857Y-105104819D01*
X84517857Y-105104819D02*
X84380952Y-105057200D01*
X84380952Y-105057200D02*
X84297619Y-104961961D01*
X84297619Y-104961961D02*
X84261904Y-104866723D01*
X84261904Y-104866723D02*
X84238095Y-104676247D01*
X84238095Y-104676247D02*
X84255952Y-104533390D01*
X84255952Y-104533390D02*
X84327380Y-104342914D01*
X84327380Y-104342914D02*
X84386904Y-104247676D01*
X84386904Y-104247676D02*
X84494047Y-104152438D01*
X84494047Y-104152438D02*
X84642857Y-104104819D01*
X84642857Y-104104819D02*
X84738095Y-104104819D01*
X84738095Y-104104819D02*
X84875000Y-104152438D01*
X84875000Y-104152438D02*
X84916666Y-104200057D01*
X85214285Y-104104819D02*
X85422619Y-105104819D01*
X85422619Y-105104819D02*
X85880952Y-104104819D01*
X86839286Y-104819104D02*
X87315476Y-104819104D01*
X86708333Y-105104819D02*
X87166667Y-104104819D01*
X87166667Y-104104819D02*
X87375000Y-105104819D01*
X87708333Y-105104819D02*
X87791667Y-104438152D01*
X87779762Y-104533390D02*
X87833333Y-104485771D01*
X87833333Y-104485771D02*
X87934524Y-104438152D01*
X87934524Y-104438152D02*
X88077381Y-104438152D01*
X88077381Y-104438152D02*
X88166667Y-104485771D01*
X88166667Y-104485771D02*
X88202381Y-104581009D01*
X88202381Y-104581009D02*
X88136905Y-105104819D01*
X88202381Y-104581009D02*
X88261905Y-104485771D01*
X88261905Y-104485771D02*
X88363095Y-104438152D01*
X88363095Y-104438152D02*
X88505952Y-104438152D01*
X88505952Y-104438152D02*
X88595238Y-104485771D01*
X88595238Y-104485771D02*
X88630952Y-104581009D01*
X88630952Y-104581009D02*
X88565476Y-105104819D01*
X88982143Y-104438152D02*
X89363095Y-104438152D01*
X89166666Y-104104819D02*
X89059524Y-104961961D01*
X89059524Y-104961961D02*
X89095238Y-105057200D01*
X89095238Y-105057200D02*
X89184524Y-105104819D01*
X89184524Y-105104819D02*
X89279762Y-105104819D01*
X90363096Y-104819104D02*
X90839286Y-104819104D01*
X90232143Y-105104819D02*
X90690477Y-104104819D01*
X90690477Y-104104819D02*
X90898810Y-105104819D01*
X78494819Y-71488094D02*
X77494819Y-71488094D01*
X77494819Y-71488094D02*
X77494819Y-71249999D01*
X77494819Y-71249999D02*
X77542438Y-71107142D01*
X77542438Y-71107142D02*
X77637676Y-71011904D01*
X77637676Y-71011904D02*
X77732914Y-70964285D01*
X77732914Y-70964285D02*
X77923390Y-70916666D01*
X77923390Y-70916666D02*
X78066247Y-70916666D01*
X78066247Y-70916666D02*
X78256723Y-70964285D01*
X78256723Y-70964285D02*
X78351961Y-71011904D01*
X78351961Y-71011904D02*
X78447200Y-71107142D01*
X78447200Y-71107142D02*
X78494819Y-71249999D01*
X78494819Y-71249999D02*
X78494819Y-71488094D01*
X77494819Y-70583332D02*
X77494819Y-69964285D01*
X77494819Y-69964285D02*
X77875771Y-70297618D01*
X77875771Y-70297618D02*
X77875771Y-70154761D01*
X77875771Y-70154761D02*
X77923390Y-70059523D01*
X77923390Y-70059523D02*
X77971009Y-70011904D01*
X77971009Y-70011904D02*
X78066247Y-69964285D01*
X78066247Y-69964285D02*
X78304342Y-69964285D01*
X78304342Y-69964285D02*
X78399580Y-70011904D01*
X78399580Y-70011904D02*
X78447200Y-70059523D01*
X78447200Y-70059523D02*
X78494819Y-70154761D01*
X78494819Y-70154761D02*
X78494819Y-70440475D01*
X78494819Y-70440475D02*
X78447200Y-70535713D01*
X78447200Y-70535713D02*
X78399580Y-70583332D01*
X61857142Y-92324819D02*
X61523809Y-91848628D01*
X61285714Y-92324819D02*
X61285714Y-91324819D01*
X61285714Y-91324819D02*
X61666666Y-91324819D01*
X61666666Y-91324819D02*
X61761904Y-91372438D01*
X61761904Y-91372438D02*
X61809523Y-91420057D01*
X61809523Y-91420057D02*
X61857142Y-91515295D01*
X61857142Y-91515295D02*
X61857142Y-91658152D01*
X61857142Y-91658152D02*
X61809523Y-91753390D01*
X61809523Y-91753390D02*
X61761904Y-91801009D01*
X61761904Y-91801009D02*
X61666666Y-91848628D01*
X61666666Y-91848628D02*
X61285714Y-91848628D01*
X62761904Y-91324819D02*
X62285714Y-91324819D01*
X62285714Y-91324819D02*
X62238095Y-91801009D01*
X62238095Y-91801009D02*
X62285714Y-91753390D01*
X62285714Y-91753390D02*
X62380952Y-91705771D01*
X62380952Y-91705771D02*
X62619047Y-91705771D01*
X62619047Y-91705771D02*
X62714285Y-91753390D01*
X62714285Y-91753390D02*
X62761904Y-91801009D01*
X62761904Y-91801009D02*
X62809523Y-91896247D01*
X62809523Y-91896247D02*
X62809523Y-92134342D01*
X62809523Y-92134342D02*
X62761904Y-92229580D01*
X62761904Y-92229580D02*
X62714285Y-92277200D01*
X62714285Y-92277200D02*
X62619047Y-92324819D01*
X62619047Y-92324819D02*
X62380952Y-92324819D01*
X62380952Y-92324819D02*
X62285714Y-92277200D01*
X62285714Y-92277200D02*
X62238095Y-92229580D01*
X63142857Y-91324819D02*
X63761904Y-91324819D01*
X63761904Y-91324819D02*
X63428571Y-91705771D01*
X63428571Y-91705771D02*
X63571428Y-91705771D01*
X63571428Y-91705771D02*
X63666666Y-91753390D01*
X63666666Y-91753390D02*
X63714285Y-91801009D01*
X63714285Y-91801009D02*
X63761904Y-91896247D01*
X63761904Y-91896247D02*
X63761904Y-92134342D01*
X63761904Y-92134342D02*
X63714285Y-92229580D01*
X63714285Y-92229580D02*
X63666666Y-92277200D01*
X63666666Y-92277200D02*
X63571428Y-92324819D01*
X63571428Y-92324819D02*
X63285714Y-92324819D01*
X63285714Y-92324819D02*
X63190476Y-92277200D01*
X63190476Y-92277200D02*
X63142857Y-92229580D01*
X61333333Y-89050057D02*
X61380952Y-89002438D01*
X61380952Y-89002438D02*
X61476190Y-88954819D01*
X61476190Y-88954819D02*
X61714285Y-88954819D01*
X61714285Y-88954819D02*
X61809523Y-89002438D01*
X61809523Y-89002438D02*
X61857142Y-89050057D01*
X61857142Y-89050057D02*
X61904761Y-89145295D01*
X61904761Y-89145295D02*
X61904761Y-89240533D01*
X61904761Y-89240533D02*
X61857142Y-89383390D01*
X61857142Y-89383390D02*
X61285714Y-89954819D01*
X61285714Y-89954819D02*
X61904761Y-89954819D01*
X62523809Y-88954819D02*
X62619047Y-88954819D01*
X62619047Y-88954819D02*
X62714285Y-89002438D01*
X62714285Y-89002438D02*
X62761904Y-89050057D01*
X62761904Y-89050057D02*
X62809523Y-89145295D01*
X62809523Y-89145295D02*
X62857142Y-89335771D01*
X62857142Y-89335771D02*
X62857142Y-89573866D01*
X62857142Y-89573866D02*
X62809523Y-89764342D01*
X62809523Y-89764342D02*
X62761904Y-89859580D01*
X62761904Y-89859580D02*
X62714285Y-89907200D01*
X62714285Y-89907200D02*
X62619047Y-89954819D01*
X62619047Y-89954819D02*
X62523809Y-89954819D01*
X62523809Y-89954819D02*
X62428571Y-89907200D01*
X62428571Y-89907200D02*
X62380952Y-89859580D01*
X62380952Y-89859580D02*
X62333333Y-89764342D01*
X62333333Y-89764342D02*
X62285714Y-89573866D01*
X62285714Y-89573866D02*
X62285714Y-89335771D01*
X62285714Y-89335771D02*
X62333333Y-89145295D01*
X62333333Y-89145295D02*
X62380952Y-89050057D01*
X62380952Y-89050057D02*
X62428571Y-89002438D01*
X62428571Y-89002438D02*
X62523809Y-88954819D01*
X63285714Y-89954819D02*
X63285714Y-88954819D01*
X63380952Y-89573866D02*
X63666666Y-89954819D01*
X63666666Y-89288152D02*
X63285714Y-89669104D01*
X86357142Y-67324819D02*
X86023809Y-66848628D01*
X85785714Y-67324819D02*
X85785714Y-66324819D01*
X85785714Y-66324819D02*
X86166666Y-66324819D01*
X86166666Y-66324819D02*
X86261904Y-66372438D01*
X86261904Y-66372438D02*
X86309523Y-66420057D01*
X86309523Y-66420057D02*
X86357142Y-66515295D01*
X86357142Y-66515295D02*
X86357142Y-66658152D01*
X86357142Y-66658152D02*
X86309523Y-66753390D01*
X86309523Y-66753390D02*
X86261904Y-66801009D01*
X86261904Y-66801009D02*
X86166666Y-66848628D01*
X86166666Y-66848628D02*
X85785714Y-66848628D01*
X87214285Y-66324819D02*
X87023809Y-66324819D01*
X87023809Y-66324819D02*
X86928571Y-66372438D01*
X86928571Y-66372438D02*
X86880952Y-66420057D01*
X86880952Y-66420057D02*
X86785714Y-66562914D01*
X86785714Y-66562914D02*
X86738095Y-66753390D01*
X86738095Y-66753390D02*
X86738095Y-67134342D01*
X86738095Y-67134342D02*
X86785714Y-67229580D01*
X86785714Y-67229580D02*
X86833333Y-67277200D01*
X86833333Y-67277200D02*
X86928571Y-67324819D01*
X86928571Y-67324819D02*
X87119047Y-67324819D01*
X87119047Y-67324819D02*
X87214285Y-67277200D01*
X87214285Y-67277200D02*
X87261904Y-67229580D01*
X87261904Y-67229580D02*
X87309523Y-67134342D01*
X87309523Y-67134342D02*
X87309523Y-66896247D01*
X87309523Y-66896247D02*
X87261904Y-66801009D01*
X87261904Y-66801009D02*
X87214285Y-66753390D01*
X87214285Y-66753390D02*
X87119047Y-66705771D01*
X87119047Y-66705771D02*
X86928571Y-66705771D01*
X86928571Y-66705771D02*
X86833333Y-66753390D01*
X86833333Y-66753390D02*
X86785714Y-66801009D01*
X86785714Y-66801009D02*
X86738095Y-66896247D01*
X87928571Y-66324819D02*
X88023809Y-66324819D01*
X88023809Y-66324819D02*
X88119047Y-66372438D01*
X88119047Y-66372438D02*
X88166666Y-66420057D01*
X88166666Y-66420057D02*
X88214285Y-66515295D01*
X88214285Y-66515295D02*
X88261904Y-66705771D01*
X88261904Y-66705771D02*
X88261904Y-66943866D01*
X88261904Y-66943866D02*
X88214285Y-67134342D01*
X88214285Y-67134342D02*
X88166666Y-67229580D01*
X88166666Y-67229580D02*
X88119047Y-67277200D01*
X88119047Y-67277200D02*
X88023809Y-67324819D01*
X88023809Y-67324819D02*
X87928571Y-67324819D01*
X87928571Y-67324819D02*
X87833333Y-67277200D01*
X87833333Y-67277200D02*
X87785714Y-67229580D01*
X87785714Y-67229580D02*
X87738095Y-67134342D01*
X87738095Y-67134342D02*
X87690476Y-66943866D01*
X87690476Y-66943866D02*
X87690476Y-66705771D01*
X87690476Y-66705771D02*
X87738095Y-66515295D01*
X87738095Y-66515295D02*
X87785714Y-66420057D01*
X87785714Y-66420057D02*
X87833333Y-66372438D01*
X87833333Y-66372438D02*
X87928571Y-66324819D01*
X86880952Y-64954819D02*
X86309524Y-64954819D01*
X86595238Y-64954819D02*
X86595238Y-63954819D01*
X86595238Y-63954819D02*
X86500000Y-64097676D01*
X86500000Y-64097676D02*
X86404762Y-64192914D01*
X86404762Y-64192914D02*
X86309524Y-64240533D01*
X87309524Y-64954819D02*
X87309524Y-63954819D01*
X87404762Y-64573866D02*
X87690476Y-64954819D01*
X87690476Y-64288152D02*
X87309524Y-64669104D01*
X91494819Y-71488094D02*
X90494819Y-71488094D01*
X90494819Y-71488094D02*
X90494819Y-71249999D01*
X90494819Y-71249999D02*
X90542438Y-71107142D01*
X90542438Y-71107142D02*
X90637676Y-71011904D01*
X90637676Y-71011904D02*
X90732914Y-70964285D01*
X90732914Y-70964285D02*
X90923390Y-70916666D01*
X90923390Y-70916666D02*
X91066247Y-70916666D01*
X91066247Y-70916666D02*
X91256723Y-70964285D01*
X91256723Y-70964285D02*
X91351961Y-71011904D01*
X91351961Y-71011904D02*
X91447200Y-71107142D01*
X91447200Y-71107142D02*
X91494819Y-71249999D01*
X91494819Y-71249999D02*
X91494819Y-71488094D01*
X90494819Y-70011904D02*
X90494819Y-70488094D01*
X90494819Y-70488094D02*
X90971009Y-70535713D01*
X90971009Y-70535713D02*
X90923390Y-70488094D01*
X90923390Y-70488094D02*
X90875771Y-70392856D01*
X90875771Y-70392856D02*
X90875771Y-70154761D01*
X90875771Y-70154761D02*
X90923390Y-70059523D01*
X90923390Y-70059523D02*
X90971009Y-70011904D01*
X90971009Y-70011904D02*
X91066247Y-69964285D01*
X91066247Y-69964285D02*
X91304342Y-69964285D01*
X91304342Y-69964285D02*
X91399580Y-70011904D01*
X91399580Y-70011904D02*
X91447200Y-70059523D01*
X91447200Y-70059523D02*
X91494819Y-70154761D01*
X91494819Y-70154761D02*
X91494819Y-70392856D01*
X91494819Y-70392856D02*
X91447200Y-70488094D01*
X91447200Y-70488094D02*
X91399580Y-70535713D01*
X57254819Y-82445238D02*
X56778628Y-82778571D01*
X57254819Y-83016666D02*
X56254819Y-83016666D01*
X56254819Y-83016666D02*
X56254819Y-82635714D01*
X56254819Y-82635714D02*
X56302438Y-82540476D01*
X56302438Y-82540476D02*
X56350057Y-82492857D01*
X56350057Y-82492857D02*
X56445295Y-82445238D01*
X56445295Y-82445238D02*
X56588152Y-82445238D01*
X56588152Y-82445238D02*
X56683390Y-82492857D01*
X56683390Y-82492857D02*
X56731009Y-82540476D01*
X56731009Y-82540476D02*
X56778628Y-82635714D01*
X56778628Y-82635714D02*
X56778628Y-83016666D01*
X56254819Y-82159523D02*
X57254819Y-81826190D01*
X57254819Y-81826190D02*
X56254819Y-81492857D01*
X56588152Y-80730952D02*
X57254819Y-80730952D01*
X56207200Y-80969047D02*
X56921485Y-81207142D01*
X56921485Y-81207142D02*
X56921485Y-80588095D01*
X68754819Y-83121428D02*
X68754819Y-83692856D01*
X68754819Y-83407142D02*
X67754819Y-83407142D01*
X67754819Y-83407142D02*
X67897676Y-83502380D01*
X67897676Y-83502380D02*
X67992914Y-83597618D01*
X67992914Y-83597618D02*
X68040533Y-83692856D01*
X67754819Y-82502380D02*
X67754819Y-82407142D01*
X67754819Y-82407142D02*
X67802438Y-82311904D01*
X67802438Y-82311904D02*
X67850057Y-82264285D01*
X67850057Y-82264285D02*
X67945295Y-82216666D01*
X67945295Y-82216666D02*
X68135771Y-82169047D01*
X68135771Y-82169047D02*
X68373866Y-82169047D01*
X68373866Y-82169047D02*
X68564342Y-82216666D01*
X68564342Y-82216666D02*
X68659580Y-82264285D01*
X68659580Y-82264285D02*
X68707200Y-82311904D01*
X68707200Y-82311904D02*
X68754819Y-82407142D01*
X68754819Y-82407142D02*
X68754819Y-82502380D01*
X68754819Y-82502380D02*
X68707200Y-82597618D01*
X68707200Y-82597618D02*
X68659580Y-82645237D01*
X68659580Y-82645237D02*
X68564342Y-82692856D01*
X68564342Y-82692856D02*
X68373866Y-82740475D01*
X68373866Y-82740475D02*
X68135771Y-82740475D01*
X68135771Y-82740475D02*
X67945295Y-82692856D01*
X67945295Y-82692856D02*
X67850057Y-82645237D01*
X67850057Y-82645237D02*
X67802438Y-82597618D01*
X67802438Y-82597618D02*
X67754819Y-82502380D01*
X67754819Y-81549999D02*
X67754819Y-81454761D01*
X67754819Y-81454761D02*
X67802438Y-81359523D01*
X67802438Y-81359523D02*
X67850057Y-81311904D01*
X67850057Y-81311904D02*
X67945295Y-81264285D01*
X67945295Y-81264285D02*
X68135771Y-81216666D01*
X68135771Y-81216666D02*
X68373866Y-81216666D01*
X68373866Y-81216666D02*
X68564342Y-81264285D01*
X68564342Y-81264285D02*
X68659580Y-81311904D01*
X68659580Y-81311904D02*
X68707200Y-81359523D01*
X68707200Y-81359523D02*
X68754819Y-81454761D01*
X68754819Y-81454761D02*
X68754819Y-81549999D01*
X68754819Y-81549999D02*
X68707200Y-81645237D01*
X68707200Y-81645237D02*
X68659580Y-81692856D01*
X68659580Y-81692856D02*
X68564342Y-81740475D01*
X68564342Y-81740475D02*
X68373866Y-81788094D01*
X68373866Y-81788094D02*
X68135771Y-81788094D01*
X68135771Y-81788094D02*
X67945295Y-81740475D01*
X67945295Y-81740475D02*
X67850057Y-81692856D01*
X67850057Y-81692856D02*
X67802438Y-81645237D01*
X67802438Y-81645237D02*
X67754819Y-81549999D01*
X68754819Y-80788094D02*
X67754819Y-80788094D01*
X68373866Y-80692856D02*
X68754819Y-80407142D01*
X68088152Y-80407142D02*
X68469104Y-80788094D01*
X60023809Y-86204819D02*
X60214285Y-86204819D01*
X60214285Y-86204819D02*
X60303570Y-86252438D01*
X60303570Y-86252438D02*
X60386904Y-86347676D01*
X60386904Y-86347676D02*
X60410713Y-86538152D01*
X60410713Y-86538152D02*
X60369047Y-86871485D01*
X60369047Y-86871485D02*
X60297618Y-87061961D01*
X60297618Y-87061961D02*
X60190475Y-87157200D01*
X60190475Y-87157200D02*
X60089285Y-87204819D01*
X60089285Y-87204819D02*
X59898809Y-87204819D01*
X59898809Y-87204819D02*
X59809523Y-87157200D01*
X59809523Y-87157200D02*
X59726190Y-87061961D01*
X59726190Y-87061961D02*
X59702380Y-86871485D01*
X59702380Y-86871485D02*
X59744047Y-86538152D01*
X59744047Y-86538152D02*
X59815475Y-86347676D01*
X59815475Y-86347676D02*
X59922618Y-86252438D01*
X59922618Y-86252438D02*
X60023809Y-86204819D01*
X60696428Y-86538152D02*
X61077380Y-86538152D01*
X60755951Y-87204819D02*
X60863094Y-86347676D01*
X60863094Y-86347676D02*
X60922618Y-86252438D01*
X60922618Y-86252438D02*
X61023809Y-86204819D01*
X61023809Y-86204819D02*
X61119047Y-86204819D01*
X61267857Y-86538152D02*
X61648809Y-86538152D01*
X61327380Y-87204819D02*
X61434523Y-86347676D01*
X61434523Y-86347676D02*
X61494047Y-86252438D01*
X61494047Y-86252438D02*
X61595238Y-86204819D01*
X61595238Y-86204819D02*
X61690476Y-86204819D01*
X61857143Y-87157200D02*
X61946428Y-87204819D01*
X61946428Y-87204819D02*
X62136905Y-87204819D01*
X62136905Y-87204819D02*
X62238095Y-87157200D01*
X62238095Y-87157200D02*
X62297619Y-87061961D01*
X62297619Y-87061961D02*
X62303571Y-87014342D01*
X62303571Y-87014342D02*
X62267857Y-86919104D01*
X62267857Y-86919104D02*
X62178571Y-86871485D01*
X62178571Y-86871485D02*
X62035714Y-86871485D01*
X62035714Y-86871485D02*
X61946428Y-86823866D01*
X61946428Y-86823866D02*
X61910714Y-86728628D01*
X61910714Y-86728628D02*
X61916667Y-86681009D01*
X61916667Y-86681009D02*
X61976190Y-86585771D01*
X61976190Y-86585771D02*
X62077381Y-86538152D01*
X62077381Y-86538152D02*
X62220238Y-86538152D01*
X62220238Y-86538152D02*
X62309524Y-86585771D01*
X63095238Y-87157200D02*
X62994048Y-87204819D01*
X62994048Y-87204819D02*
X62803571Y-87204819D01*
X62803571Y-87204819D02*
X62714286Y-87157200D01*
X62714286Y-87157200D02*
X62678571Y-87061961D01*
X62678571Y-87061961D02*
X62726191Y-86681009D01*
X62726191Y-86681009D02*
X62785714Y-86585771D01*
X62785714Y-86585771D02*
X62886905Y-86538152D01*
X62886905Y-86538152D02*
X63077381Y-86538152D01*
X63077381Y-86538152D02*
X63166667Y-86585771D01*
X63166667Y-86585771D02*
X63202381Y-86681009D01*
X63202381Y-86681009D02*
X63190476Y-86776247D01*
X63190476Y-86776247D02*
X62702381Y-86871485D01*
X63505953Y-86538152D02*
X63886905Y-86538152D01*
X63690476Y-86204819D02*
X63583334Y-87061961D01*
X63583334Y-87061961D02*
X63619048Y-87157200D01*
X63619048Y-87157200D02*
X63708334Y-87204819D01*
X63708334Y-87204819D02*
X63803572Y-87204819D01*
X64886906Y-86919104D02*
X65363096Y-86919104D01*
X64755953Y-87204819D02*
X65214287Y-86204819D01*
X65214287Y-86204819D02*
X65422620Y-87204819D01*
X61857142Y-121074819D02*
X61523809Y-120598628D01*
X61285714Y-121074819D02*
X61285714Y-120074819D01*
X61285714Y-120074819D02*
X61666666Y-120074819D01*
X61666666Y-120074819D02*
X61761904Y-120122438D01*
X61761904Y-120122438D02*
X61809523Y-120170057D01*
X61809523Y-120170057D02*
X61857142Y-120265295D01*
X61857142Y-120265295D02*
X61857142Y-120408152D01*
X61857142Y-120408152D02*
X61809523Y-120503390D01*
X61809523Y-120503390D02*
X61761904Y-120551009D01*
X61761904Y-120551009D02*
X61666666Y-120598628D01*
X61666666Y-120598628D02*
X61285714Y-120598628D01*
X62761904Y-120074819D02*
X62285714Y-120074819D01*
X62285714Y-120074819D02*
X62238095Y-120551009D01*
X62238095Y-120551009D02*
X62285714Y-120503390D01*
X62285714Y-120503390D02*
X62380952Y-120455771D01*
X62380952Y-120455771D02*
X62619047Y-120455771D01*
X62619047Y-120455771D02*
X62714285Y-120503390D01*
X62714285Y-120503390D02*
X62761904Y-120551009D01*
X62761904Y-120551009D02*
X62809523Y-120646247D01*
X62809523Y-120646247D02*
X62809523Y-120884342D01*
X62809523Y-120884342D02*
X62761904Y-120979580D01*
X62761904Y-120979580D02*
X62714285Y-121027200D01*
X62714285Y-121027200D02*
X62619047Y-121074819D01*
X62619047Y-121074819D02*
X62380952Y-121074819D01*
X62380952Y-121074819D02*
X62285714Y-121027200D01*
X62285714Y-121027200D02*
X62238095Y-120979580D01*
X63666666Y-120408152D02*
X63666666Y-121074819D01*
X63428571Y-120027200D02*
X63190476Y-120741485D01*
X63190476Y-120741485D02*
X63809523Y-120741485D01*
X61333333Y-117800057D02*
X61380952Y-117752438D01*
X61380952Y-117752438D02*
X61476190Y-117704819D01*
X61476190Y-117704819D02*
X61714285Y-117704819D01*
X61714285Y-117704819D02*
X61809523Y-117752438D01*
X61809523Y-117752438D02*
X61857142Y-117800057D01*
X61857142Y-117800057D02*
X61904761Y-117895295D01*
X61904761Y-117895295D02*
X61904761Y-117990533D01*
X61904761Y-117990533D02*
X61857142Y-118133390D01*
X61857142Y-118133390D02*
X61285714Y-118704819D01*
X61285714Y-118704819D02*
X61904761Y-118704819D01*
X62523809Y-117704819D02*
X62619047Y-117704819D01*
X62619047Y-117704819D02*
X62714285Y-117752438D01*
X62714285Y-117752438D02*
X62761904Y-117800057D01*
X62761904Y-117800057D02*
X62809523Y-117895295D01*
X62809523Y-117895295D02*
X62857142Y-118085771D01*
X62857142Y-118085771D02*
X62857142Y-118323866D01*
X62857142Y-118323866D02*
X62809523Y-118514342D01*
X62809523Y-118514342D02*
X62761904Y-118609580D01*
X62761904Y-118609580D02*
X62714285Y-118657200D01*
X62714285Y-118657200D02*
X62619047Y-118704819D01*
X62619047Y-118704819D02*
X62523809Y-118704819D01*
X62523809Y-118704819D02*
X62428571Y-118657200D01*
X62428571Y-118657200D02*
X62380952Y-118609580D01*
X62380952Y-118609580D02*
X62333333Y-118514342D01*
X62333333Y-118514342D02*
X62285714Y-118323866D01*
X62285714Y-118323866D02*
X62285714Y-118085771D01*
X62285714Y-118085771D02*
X62333333Y-117895295D01*
X62333333Y-117895295D02*
X62380952Y-117800057D01*
X62380952Y-117800057D02*
X62428571Y-117752438D01*
X62428571Y-117752438D02*
X62523809Y-117704819D01*
X63285714Y-118704819D02*
X63285714Y-117704819D01*
X63380952Y-118323866D02*
X63666666Y-118704819D01*
X63666666Y-118038152D02*
X63285714Y-118419104D01*
X74357142Y-67324819D02*
X74023809Y-66848628D01*
X73785714Y-67324819D02*
X73785714Y-66324819D01*
X73785714Y-66324819D02*
X74166666Y-66324819D01*
X74166666Y-66324819D02*
X74261904Y-66372438D01*
X74261904Y-66372438D02*
X74309523Y-66420057D01*
X74309523Y-66420057D02*
X74357142Y-66515295D01*
X74357142Y-66515295D02*
X74357142Y-66658152D01*
X74357142Y-66658152D02*
X74309523Y-66753390D01*
X74309523Y-66753390D02*
X74261904Y-66801009D01*
X74261904Y-66801009D02*
X74166666Y-66848628D01*
X74166666Y-66848628D02*
X73785714Y-66848628D01*
X75261904Y-66324819D02*
X74785714Y-66324819D01*
X74785714Y-66324819D02*
X74738095Y-66801009D01*
X74738095Y-66801009D02*
X74785714Y-66753390D01*
X74785714Y-66753390D02*
X74880952Y-66705771D01*
X74880952Y-66705771D02*
X75119047Y-66705771D01*
X75119047Y-66705771D02*
X75214285Y-66753390D01*
X75214285Y-66753390D02*
X75261904Y-66801009D01*
X75261904Y-66801009D02*
X75309523Y-66896247D01*
X75309523Y-66896247D02*
X75309523Y-67134342D01*
X75309523Y-67134342D02*
X75261904Y-67229580D01*
X75261904Y-67229580D02*
X75214285Y-67277200D01*
X75214285Y-67277200D02*
X75119047Y-67324819D01*
X75119047Y-67324819D02*
X74880952Y-67324819D01*
X74880952Y-67324819D02*
X74785714Y-67277200D01*
X74785714Y-67277200D02*
X74738095Y-67229580D01*
X75880952Y-66753390D02*
X75785714Y-66705771D01*
X75785714Y-66705771D02*
X75738095Y-66658152D01*
X75738095Y-66658152D02*
X75690476Y-66562914D01*
X75690476Y-66562914D02*
X75690476Y-66515295D01*
X75690476Y-66515295D02*
X75738095Y-66420057D01*
X75738095Y-66420057D02*
X75785714Y-66372438D01*
X75785714Y-66372438D02*
X75880952Y-66324819D01*
X75880952Y-66324819D02*
X76071428Y-66324819D01*
X76071428Y-66324819D02*
X76166666Y-66372438D01*
X76166666Y-66372438D02*
X76214285Y-66420057D01*
X76214285Y-66420057D02*
X76261904Y-66515295D01*
X76261904Y-66515295D02*
X76261904Y-66562914D01*
X76261904Y-66562914D02*
X76214285Y-66658152D01*
X76214285Y-66658152D02*
X76166666Y-66705771D01*
X76166666Y-66705771D02*
X76071428Y-66753390D01*
X76071428Y-66753390D02*
X75880952Y-66753390D01*
X75880952Y-66753390D02*
X75785714Y-66801009D01*
X75785714Y-66801009D02*
X75738095Y-66848628D01*
X75738095Y-66848628D02*
X75690476Y-66943866D01*
X75690476Y-66943866D02*
X75690476Y-67134342D01*
X75690476Y-67134342D02*
X75738095Y-67229580D01*
X75738095Y-67229580D02*
X75785714Y-67277200D01*
X75785714Y-67277200D02*
X75880952Y-67324819D01*
X75880952Y-67324819D02*
X76071428Y-67324819D01*
X76071428Y-67324819D02*
X76166666Y-67277200D01*
X76166666Y-67277200D02*
X76214285Y-67229580D01*
X76214285Y-67229580D02*
X76261904Y-67134342D01*
X76261904Y-67134342D02*
X76261904Y-66943866D01*
X76261904Y-66943866D02*
X76214285Y-66848628D01*
X76214285Y-66848628D02*
X76166666Y-66801009D01*
X76166666Y-66801009D02*
X76071428Y-66753390D01*
X74880952Y-64954819D02*
X74309524Y-64954819D01*
X74595238Y-64954819D02*
X74595238Y-63954819D01*
X74595238Y-63954819D02*
X74500000Y-64097676D01*
X74500000Y-64097676D02*
X74404762Y-64192914D01*
X74404762Y-64192914D02*
X74309524Y-64240533D01*
X75309524Y-64954819D02*
X75309524Y-63954819D01*
X75404762Y-64573866D02*
X75690476Y-64954819D01*
X75690476Y-64288152D02*
X75309524Y-64669104D01*
X57254819Y-139945238D02*
X56778628Y-140278571D01*
X57254819Y-140516666D02*
X56254819Y-140516666D01*
X56254819Y-140516666D02*
X56254819Y-140135714D01*
X56254819Y-140135714D02*
X56302438Y-140040476D01*
X56302438Y-140040476D02*
X56350057Y-139992857D01*
X56350057Y-139992857D02*
X56445295Y-139945238D01*
X56445295Y-139945238D02*
X56588152Y-139945238D01*
X56588152Y-139945238D02*
X56683390Y-139992857D01*
X56683390Y-139992857D02*
X56731009Y-140040476D01*
X56731009Y-140040476D02*
X56778628Y-140135714D01*
X56778628Y-140135714D02*
X56778628Y-140516666D01*
X56254819Y-139659523D02*
X57254819Y-139326190D01*
X57254819Y-139326190D02*
X56254819Y-138992857D01*
X56254819Y-138230952D02*
X56254819Y-138421428D01*
X56254819Y-138421428D02*
X56302438Y-138516666D01*
X56302438Y-138516666D02*
X56350057Y-138564285D01*
X56350057Y-138564285D02*
X56492914Y-138659523D01*
X56492914Y-138659523D02*
X56683390Y-138707142D01*
X56683390Y-138707142D02*
X57064342Y-138707142D01*
X57064342Y-138707142D02*
X57159580Y-138659523D01*
X57159580Y-138659523D02*
X57207200Y-138611904D01*
X57207200Y-138611904D02*
X57254819Y-138516666D01*
X57254819Y-138516666D02*
X57254819Y-138326190D01*
X57254819Y-138326190D02*
X57207200Y-138230952D01*
X57207200Y-138230952D02*
X57159580Y-138183333D01*
X57159580Y-138183333D02*
X57064342Y-138135714D01*
X57064342Y-138135714D02*
X56826247Y-138135714D01*
X56826247Y-138135714D02*
X56731009Y-138183333D01*
X56731009Y-138183333D02*
X56683390Y-138230952D01*
X56683390Y-138230952D02*
X56635771Y-138326190D01*
X56635771Y-138326190D02*
X56635771Y-138516666D01*
X56635771Y-138516666D02*
X56683390Y-138611904D01*
X56683390Y-138611904D02*
X56731009Y-138659523D01*
X56731009Y-138659523D02*
X56826247Y-138707142D01*
X68754819Y-140621428D02*
X68754819Y-141192856D01*
X68754819Y-140907142D02*
X67754819Y-140907142D01*
X67754819Y-140907142D02*
X67897676Y-141002380D01*
X67897676Y-141002380D02*
X67992914Y-141097618D01*
X67992914Y-141097618D02*
X68040533Y-141192856D01*
X67754819Y-140002380D02*
X67754819Y-139907142D01*
X67754819Y-139907142D02*
X67802438Y-139811904D01*
X67802438Y-139811904D02*
X67850057Y-139764285D01*
X67850057Y-139764285D02*
X67945295Y-139716666D01*
X67945295Y-139716666D02*
X68135771Y-139669047D01*
X68135771Y-139669047D02*
X68373866Y-139669047D01*
X68373866Y-139669047D02*
X68564342Y-139716666D01*
X68564342Y-139716666D02*
X68659580Y-139764285D01*
X68659580Y-139764285D02*
X68707200Y-139811904D01*
X68707200Y-139811904D02*
X68754819Y-139907142D01*
X68754819Y-139907142D02*
X68754819Y-140002380D01*
X68754819Y-140002380D02*
X68707200Y-140097618D01*
X68707200Y-140097618D02*
X68659580Y-140145237D01*
X68659580Y-140145237D02*
X68564342Y-140192856D01*
X68564342Y-140192856D02*
X68373866Y-140240475D01*
X68373866Y-140240475D02*
X68135771Y-140240475D01*
X68135771Y-140240475D02*
X67945295Y-140192856D01*
X67945295Y-140192856D02*
X67850057Y-140145237D01*
X67850057Y-140145237D02*
X67802438Y-140097618D01*
X67802438Y-140097618D02*
X67754819Y-140002380D01*
X67754819Y-139049999D02*
X67754819Y-138954761D01*
X67754819Y-138954761D02*
X67802438Y-138859523D01*
X67802438Y-138859523D02*
X67850057Y-138811904D01*
X67850057Y-138811904D02*
X67945295Y-138764285D01*
X67945295Y-138764285D02*
X68135771Y-138716666D01*
X68135771Y-138716666D02*
X68373866Y-138716666D01*
X68373866Y-138716666D02*
X68564342Y-138764285D01*
X68564342Y-138764285D02*
X68659580Y-138811904D01*
X68659580Y-138811904D02*
X68707200Y-138859523D01*
X68707200Y-138859523D02*
X68754819Y-138954761D01*
X68754819Y-138954761D02*
X68754819Y-139049999D01*
X68754819Y-139049999D02*
X68707200Y-139145237D01*
X68707200Y-139145237D02*
X68659580Y-139192856D01*
X68659580Y-139192856D02*
X68564342Y-139240475D01*
X68564342Y-139240475D02*
X68373866Y-139288094D01*
X68373866Y-139288094D02*
X68135771Y-139288094D01*
X68135771Y-139288094D02*
X67945295Y-139240475D01*
X67945295Y-139240475D02*
X67850057Y-139192856D01*
X67850057Y-139192856D02*
X67802438Y-139145237D01*
X67802438Y-139145237D02*
X67754819Y-139049999D01*
X68754819Y-138288094D02*
X67754819Y-138288094D01*
X68373866Y-138192856D02*
X68754819Y-137907142D01*
X68088152Y-137907142D02*
X68469104Y-138288094D01*
X59952380Y-143704819D02*
X60142856Y-143704819D01*
X60142856Y-143704819D02*
X60232141Y-143752438D01*
X60232141Y-143752438D02*
X60315475Y-143847676D01*
X60315475Y-143847676D02*
X60339284Y-144038152D01*
X60339284Y-144038152D02*
X60297618Y-144371485D01*
X60297618Y-144371485D02*
X60226189Y-144561961D01*
X60226189Y-144561961D02*
X60119046Y-144657200D01*
X60119046Y-144657200D02*
X60017856Y-144704819D01*
X60017856Y-144704819D02*
X59827380Y-144704819D01*
X59827380Y-144704819D02*
X59738094Y-144657200D01*
X59738094Y-144657200D02*
X59654761Y-144561961D01*
X59654761Y-144561961D02*
X59630951Y-144371485D01*
X59630951Y-144371485D02*
X59672618Y-144038152D01*
X59672618Y-144038152D02*
X59744046Y-143847676D01*
X59744046Y-143847676D02*
X59851189Y-143752438D01*
X59851189Y-143752438D02*
X59952380Y-143704819D01*
X60624999Y-144038152D02*
X61005951Y-144038152D01*
X60684522Y-144704819D02*
X60791665Y-143847676D01*
X60791665Y-143847676D02*
X60851189Y-143752438D01*
X60851189Y-143752438D02*
X60952380Y-143704819D01*
X60952380Y-143704819D02*
X61047618Y-143704819D01*
X61196428Y-144038152D02*
X61577380Y-144038152D01*
X61255951Y-144704819D02*
X61363094Y-143847676D01*
X61363094Y-143847676D02*
X61422618Y-143752438D01*
X61422618Y-143752438D02*
X61523809Y-143704819D01*
X61523809Y-143704819D02*
X61619047Y-143704819D01*
X61785714Y-144657200D02*
X61874999Y-144704819D01*
X61874999Y-144704819D02*
X62065476Y-144704819D01*
X62065476Y-144704819D02*
X62166666Y-144657200D01*
X62166666Y-144657200D02*
X62226190Y-144561961D01*
X62226190Y-144561961D02*
X62232142Y-144514342D01*
X62232142Y-144514342D02*
X62196428Y-144419104D01*
X62196428Y-144419104D02*
X62107142Y-144371485D01*
X62107142Y-144371485D02*
X61964285Y-144371485D01*
X61964285Y-144371485D02*
X61874999Y-144323866D01*
X61874999Y-144323866D02*
X61839285Y-144228628D01*
X61839285Y-144228628D02*
X61845238Y-144181009D01*
X61845238Y-144181009D02*
X61904761Y-144085771D01*
X61904761Y-144085771D02*
X62005952Y-144038152D01*
X62005952Y-144038152D02*
X62148809Y-144038152D01*
X62148809Y-144038152D02*
X62238095Y-144085771D01*
X63023809Y-144657200D02*
X62922619Y-144704819D01*
X62922619Y-144704819D02*
X62732142Y-144704819D01*
X62732142Y-144704819D02*
X62642857Y-144657200D01*
X62642857Y-144657200D02*
X62607142Y-144561961D01*
X62607142Y-144561961D02*
X62654762Y-144181009D01*
X62654762Y-144181009D02*
X62714285Y-144085771D01*
X62714285Y-144085771D02*
X62815476Y-144038152D01*
X62815476Y-144038152D02*
X63005952Y-144038152D01*
X63005952Y-144038152D02*
X63095238Y-144085771D01*
X63095238Y-144085771D02*
X63130952Y-144181009D01*
X63130952Y-144181009D02*
X63119047Y-144276247D01*
X63119047Y-144276247D02*
X62630952Y-144371485D01*
X63434524Y-144038152D02*
X63815476Y-144038152D01*
X63619047Y-143704819D02*
X63511905Y-144561961D01*
X63511905Y-144561961D02*
X63547619Y-144657200D01*
X63547619Y-144657200D02*
X63636905Y-144704819D01*
X63636905Y-144704819D02*
X63732143Y-144704819D01*
X65410715Y-144609580D02*
X65357143Y-144657200D01*
X65357143Y-144657200D02*
X65208334Y-144704819D01*
X65208334Y-144704819D02*
X65113096Y-144704819D01*
X65113096Y-144704819D02*
X64976191Y-144657200D01*
X64976191Y-144657200D02*
X64892858Y-144561961D01*
X64892858Y-144561961D02*
X64857143Y-144466723D01*
X64857143Y-144466723D02*
X64833334Y-144276247D01*
X64833334Y-144276247D02*
X64851191Y-144133390D01*
X64851191Y-144133390D02*
X64922619Y-143942914D01*
X64922619Y-143942914D02*
X64982143Y-143847676D01*
X64982143Y-143847676D02*
X65089286Y-143752438D01*
X65089286Y-143752438D02*
X65238096Y-143704819D01*
X65238096Y-143704819D02*
X65333334Y-143704819D01*
X65333334Y-143704819D02*
X65470239Y-143752438D01*
X65470239Y-143752438D02*
X65511905Y-143800057D01*
X62357142Y-67324819D02*
X62023809Y-66848628D01*
X61785714Y-67324819D02*
X61785714Y-66324819D01*
X61785714Y-66324819D02*
X62166666Y-66324819D01*
X62166666Y-66324819D02*
X62261904Y-66372438D01*
X62261904Y-66372438D02*
X62309523Y-66420057D01*
X62309523Y-66420057D02*
X62357142Y-66515295D01*
X62357142Y-66515295D02*
X62357142Y-66658152D01*
X62357142Y-66658152D02*
X62309523Y-66753390D01*
X62309523Y-66753390D02*
X62261904Y-66801009D01*
X62261904Y-66801009D02*
X62166666Y-66848628D01*
X62166666Y-66848628D02*
X61785714Y-66848628D01*
X63261904Y-66324819D02*
X62785714Y-66324819D01*
X62785714Y-66324819D02*
X62738095Y-66801009D01*
X62738095Y-66801009D02*
X62785714Y-66753390D01*
X62785714Y-66753390D02*
X62880952Y-66705771D01*
X62880952Y-66705771D02*
X63119047Y-66705771D01*
X63119047Y-66705771D02*
X63214285Y-66753390D01*
X63214285Y-66753390D02*
X63261904Y-66801009D01*
X63261904Y-66801009D02*
X63309523Y-66896247D01*
X63309523Y-66896247D02*
X63309523Y-67134342D01*
X63309523Y-67134342D02*
X63261904Y-67229580D01*
X63261904Y-67229580D02*
X63214285Y-67277200D01*
X63214285Y-67277200D02*
X63119047Y-67324819D01*
X63119047Y-67324819D02*
X62880952Y-67324819D01*
X62880952Y-67324819D02*
X62785714Y-67277200D01*
X62785714Y-67277200D02*
X62738095Y-67229580D01*
X64166666Y-66324819D02*
X63976190Y-66324819D01*
X63976190Y-66324819D02*
X63880952Y-66372438D01*
X63880952Y-66372438D02*
X63833333Y-66420057D01*
X63833333Y-66420057D02*
X63738095Y-66562914D01*
X63738095Y-66562914D02*
X63690476Y-66753390D01*
X63690476Y-66753390D02*
X63690476Y-67134342D01*
X63690476Y-67134342D02*
X63738095Y-67229580D01*
X63738095Y-67229580D02*
X63785714Y-67277200D01*
X63785714Y-67277200D02*
X63880952Y-67324819D01*
X63880952Y-67324819D02*
X64071428Y-67324819D01*
X64071428Y-67324819D02*
X64166666Y-67277200D01*
X64166666Y-67277200D02*
X64214285Y-67229580D01*
X64214285Y-67229580D02*
X64261904Y-67134342D01*
X64261904Y-67134342D02*
X64261904Y-66896247D01*
X64261904Y-66896247D02*
X64214285Y-66801009D01*
X64214285Y-66801009D02*
X64166666Y-66753390D01*
X64166666Y-66753390D02*
X64071428Y-66705771D01*
X64071428Y-66705771D02*
X63880952Y-66705771D01*
X63880952Y-66705771D02*
X63785714Y-66753390D01*
X63785714Y-66753390D02*
X63738095Y-66801009D01*
X63738095Y-66801009D02*
X63690476Y-66896247D01*
X62880952Y-64954819D02*
X62309524Y-64954819D01*
X62595238Y-64954819D02*
X62595238Y-63954819D01*
X62595238Y-63954819D02*
X62500000Y-64097676D01*
X62500000Y-64097676D02*
X62404762Y-64192914D01*
X62404762Y-64192914D02*
X62309524Y-64240533D01*
X63309524Y-64954819D02*
X63309524Y-63954819D01*
X63404762Y-64573866D02*
X63690476Y-64954819D01*
X63690476Y-64288152D02*
X63309524Y-64669104D01*
X96666666Y-97124819D02*
X96666666Y-97839104D01*
X96666666Y-97839104D02*
X96619047Y-97981961D01*
X96619047Y-97981961D02*
X96523809Y-98077200D01*
X96523809Y-98077200D02*
X96380952Y-98124819D01*
X96380952Y-98124819D02*
X96285714Y-98124819D01*
X97333333Y-97124819D02*
X97428571Y-97124819D01*
X97428571Y-97124819D02*
X97523809Y-97172438D01*
X97523809Y-97172438D02*
X97571428Y-97220057D01*
X97571428Y-97220057D02*
X97619047Y-97315295D01*
X97619047Y-97315295D02*
X97666666Y-97505771D01*
X97666666Y-97505771D02*
X97666666Y-97743866D01*
X97666666Y-97743866D02*
X97619047Y-97934342D01*
X97619047Y-97934342D02*
X97571428Y-98029580D01*
X97571428Y-98029580D02*
X97523809Y-98077200D01*
X97523809Y-98077200D02*
X97428571Y-98124819D01*
X97428571Y-98124819D02*
X97333333Y-98124819D01*
X97333333Y-98124819D02*
X97238095Y-98077200D01*
X97238095Y-98077200D02*
X97190476Y-98029580D01*
X97190476Y-98029580D02*
X97142857Y-97934342D01*
X97142857Y-97934342D02*
X97095238Y-97743866D01*
X97095238Y-97743866D02*
X97095238Y-97505771D01*
X97095238Y-97505771D02*
X97142857Y-97315295D01*
X97142857Y-97315295D02*
X97190476Y-97220057D01*
X97190476Y-97220057D02*
X97238095Y-97172438D01*
X97238095Y-97172438D02*
X97333333Y-97124819D01*
X73666667Y-60407200D02*
X73809524Y-60454819D01*
X73809524Y-60454819D02*
X74047619Y-60454819D01*
X74047619Y-60454819D02*
X74142857Y-60407200D01*
X74142857Y-60407200D02*
X74190476Y-60359580D01*
X74190476Y-60359580D02*
X74238095Y-60264342D01*
X74238095Y-60264342D02*
X74238095Y-60169104D01*
X74238095Y-60169104D02*
X74190476Y-60073866D01*
X74190476Y-60073866D02*
X74142857Y-60026247D01*
X74142857Y-60026247D02*
X74047619Y-59978628D01*
X74047619Y-59978628D02*
X73857143Y-59931009D01*
X73857143Y-59931009D02*
X73761905Y-59883390D01*
X73761905Y-59883390D02*
X73714286Y-59835771D01*
X73714286Y-59835771D02*
X73666667Y-59740533D01*
X73666667Y-59740533D02*
X73666667Y-59645295D01*
X73666667Y-59645295D02*
X73714286Y-59550057D01*
X73714286Y-59550057D02*
X73761905Y-59502438D01*
X73761905Y-59502438D02*
X73857143Y-59454819D01*
X73857143Y-59454819D02*
X74095238Y-59454819D01*
X74095238Y-59454819D02*
X74238095Y-59502438D01*
X74571429Y-59454819D02*
X74809524Y-60454819D01*
X74809524Y-60454819D02*
X75000000Y-59740533D01*
X75000000Y-59740533D02*
X75190476Y-60454819D01*
X75190476Y-60454819D02*
X75428572Y-59454819D01*
X75761905Y-59550057D02*
X75809524Y-59502438D01*
X75809524Y-59502438D02*
X75904762Y-59454819D01*
X75904762Y-59454819D02*
X76142857Y-59454819D01*
X76142857Y-59454819D02*
X76238095Y-59502438D01*
X76238095Y-59502438D02*
X76285714Y-59550057D01*
X76285714Y-59550057D02*
X76333333Y-59645295D01*
X76333333Y-59645295D02*
X76333333Y-59740533D01*
X76333333Y-59740533D02*
X76285714Y-59883390D01*
X76285714Y-59883390D02*
X75714286Y-60454819D01*
X75714286Y-60454819D02*
X76333333Y-60454819D01*
X71880952Y-62207200D02*
X72023809Y-62254819D01*
X72023809Y-62254819D02*
X72261904Y-62254819D01*
X72261904Y-62254819D02*
X72357142Y-62207200D01*
X72357142Y-62207200D02*
X72404761Y-62159580D01*
X72404761Y-62159580D02*
X72452380Y-62064342D01*
X72452380Y-62064342D02*
X72452380Y-61969104D01*
X72452380Y-61969104D02*
X72404761Y-61873866D01*
X72404761Y-61873866D02*
X72357142Y-61826247D01*
X72357142Y-61826247D02*
X72261904Y-61778628D01*
X72261904Y-61778628D02*
X72071428Y-61731009D01*
X72071428Y-61731009D02*
X71976190Y-61683390D01*
X71976190Y-61683390D02*
X71928571Y-61635771D01*
X71928571Y-61635771D02*
X71880952Y-61540533D01*
X71880952Y-61540533D02*
X71880952Y-61445295D01*
X71880952Y-61445295D02*
X71928571Y-61350057D01*
X71928571Y-61350057D02*
X71976190Y-61302438D01*
X71976190Y-61302438D02*
X72071428Y-61254819D01*
X72071428Y-61254819D02*
X72309523Y-61254819D01*
X72309523Y-61254819D02*
X72452380Y-61302438D01*
X72785714Y-61254819D02*
X73023809Y-62254819D01*
X73023809Y-62254819D02*
X73214285Y-61540533D01*
X73214285Y-61540533D02*
X73404761Y-62254819D01*
X73404761Y-62254819D02*
X73642857Y-61254819D01*
X73785714Y-62350057D02*
X74547618Y-62350057D01*
X74785714Y-62254819D02*
X74785714Y-61254819D01*
X74785714Y-61254819D02*
X75023809Y-61254819D01*
X75023809Y-61254819D02*
X75166666Y-61302438D01*
X75166666Y-61302438D02*
X75261904Y-61397676D01*
X75261904Y-61397676D02*
X75309523Y-61492914D01*
X75309523Y-61492914D02*
X75357142Y-61683390D01*
X75357142Y-61683390D02*
X75357142Y-61826247D01*
X75357142Y-61826247D02*
X75309523Y-62016723D01*
X75309523Y-62016723D02*
X75261904Y-62111961D01*
X75261904Y-62111961D02*
X75166666Y-62207200D01*
X75166666Y-62207200D02*
X75023809Y-62254819D01*
X75023809Y-62254819D02*
X74785714Y-62254819D01*
X75785714Y-62254819D02*
X75785714Y-61254819D01*
X75785714Y-61254819D02*
X76166666Y-61254819D01*
X76166666Y-61254819D02*
X76261904Y-61302438D01*
X76261904Y-61302438D02*
X76309523Y-61350057D01*
X76309523Y-61350057D02*
X76357142Y-61445295D01*
X76357142Y-61445295D02*
X76357142Y-61588152D01*
X76357142Y-61588152D02*
X76309523Y-61683390D01*
X76309523Y-61683390D02*
X76261904Y-61731009D01*
X76261904Y-61731009D02*
X76166666Y-61778628D01*
X76166666Y-61778628D02*
X75785714Y-61778628D01*
X76785714Y-62254819D02*
X76785714Y-61254819D01*
X76785714Y-61254819D02*
X77023809Y-61254819D01*
X77023809Y-61254819D02*
X77166666Y-61302438D01*
X77166666Y-61302438D02*
X77261904Y-61397676D01*
X77261904Y-61397676D02*
X77309523Y-61492914D01*
X77309523Y-61492914D02*
X77357142Y-61683390D01*
X77357142Y-61683390D02*
X77357142Y-61826247D01*
X77357142Y-61826247D02*
X77309523Y-62016723D01*
X77309523Y-62016723D02*
X77261904Y-62111961D01*
X77261904Y-62111961D02*
X77166666Y-62207200D01*
X77166666Y-62207200D02*
X77023809Y-62254819D01*
X77023809Y-62254819D02*
X76785714Y-62254819D01*
X77642857Y-61254819D02*
X78214285Y-61254819D01*
X77928571Y-62254819D02*
X77928571Y-61254819D01*
X72613094Y-44754819D02*
X72738094Y-43754819D01*
X72738094Y-43754819D02*
X72982142Y-44469104D01*
X72982142Y-44469104D02*
X73404761Y-43754819D01*
X73404761Y-43754819D02*
X73279761Y-44754819D01*
X74267856Y-44088152D02*
X74184523Y-44754819D01*
X73839285Y-44088152D02*
X73773809Y-44611961D01*
X73773809Y-44611961D02*
X73809523Y-44707200D01*
X73809523Y-44707200D02*
X73898809Y-44754819D01*
X73898809Y-44754819D02*
X74041666Y-44754819D01*
X74041666Y-44754819D02*
X74142856Y-44707200D01*
X74142856Y-44707200D02*
X74196428Y-44659580D01*
X74601190Y-44088152D02*
X74982142Y-44088152D01*
X74785713Y-43754819D02*
X74678571Y-44611961D01*
X74678571Y-44611961D02*
X74714285Y-44707200D01*
X74714285Y-44707200D02*
X74803571Y-44754819D01*
X74803571Y-44754819D02*
X74898809Y-44754819D01*
X75619047Y-44707200D02*
X75517857Y-44754819D01*
X75517857Y-44754819D02*
X75327380Y-44754819D01*
X75327380Y-44754819D02*
X75238095Y-44707200D01*
X75238095Y-44707200D02*
X75202380Y-44611961D01*
X75202380Y-44611961D02*
X75250000Y-44231009D01*
X75250000Y-44231009D02*
X75309523Y-44135771D01*
X75309523Y-44135771D02*
X75410714Y-44088152D01*
X75410714Y-44088152D02*
X75601190Y-44088152D01*
X75601190Y-44088152D02*
X75690476Y-44135771D01*
X75690476Y-44135771D02*
X75726190Y-44231009D01*
X75726190Y-44231009D02*
X75714285Y-44326247D01*
X75714285Y-44326247D02*
X75226190Y-44421485D01*
X77250000Y-44231009D02*
X77386905Y-44278628D01*
X77386905Y-44278628D02*
X77428571Y-44326247D01*
X77428571Y-44326247D02*
X77464286Y-44421485D01*
X77464286Y-44421485D02*
X77446428Y-44564342D01*
X77446428Y-44564342D02*
X77386905Y-44659580D01*
X77386905Y-44659580D02*
X77333333Y-44707200D01*
X77333333Y-44707200D02*
X77232143Y-44754819D01*
X77232143Y-44754819D02*
X76851190Y-44754819D01*
X76851190Y-44754819D02*
X76976190Y-43754819D01*
X76976190Y-43754819D02*
X77309524Y-43754819D01*
X77309524Y-43754819D02*
X77398809Y-43802438D01*
X77398809Y-43802438D02*
X77440476Y-43850057D01*
X77440476Y-43850057D02*
X77476190Y-43945295D01*
X77476190Y-43945295D02*
X77464286Y-44040533D01*
X77464286Y-44040533D02*
X77404762Y-44135771D01*
X77404762Y-44135771D02*
X77351190Y-44183390D01*
X77351190Y-44183390D02*
X77250000Y-44231009D01*
X77250000Y-44231009D02*
X76916667Y-44231009D01*
X61857142Y-149574819D02*
X61523809Y-149098628D01*
X61285714Y-149574819D02*
X61285714Y-148574819D01*
X61285714Y-148574819D02*
X61666666Y-148574819D01*
X61666666Y-148574819D02*
X61761904Y-148622438D01*
X61761904Y-148622438D02*
X61809523Y-148670057D01*
X61809523Y-148670057D02*
X61857142Y-148765295D01*
X61857142Y-148765295D02*
X61857142Y-148908152D01*
X61857142Y-148908152D02*
X61809523Y-149003390D01*
X61809523Y-149003390D02*
X61761904Y-149051009D01*
X61761904Y-149051009D02*
X61666666Y-149098628D01*
X61666666Y-149098628D02*
X61285714Y-149098628D01*
X62761904Y-148574819D02*
X62285714Y-148574819D01*
X62285714Y-148574819D02*
X62238095Y-149051009D01*
X62238095Y-149051009D02*
X62285714Y-149003390D01*
X62285714Y-149003390D02*
X62380952Y-148955771D01*
X62380952Y-148955771D02*
X62619047Y-148955771D01*
X62619047Y-148955771D02*
X62714285Y-149003390D01*
X62714285Y-149003390D02*
X62761904Y-149051009D01*
X62761904Y-149051009D02*
X62809523Y-149146247D01*
X62809523Y-149146247D02*
X62809523Y-149384342D01*
X62809523Y-149384342D02*
X62761904Y-149479580D01*
X62761904Y-149479580D02*
X62714285Y-149527200D01*
X62714285Y-149527200D02*
X62619047Y-149574819D01*
X62619047Y-149574819D02*
X62380952Y-149574819D01*
X62380952Y-149574819D02*
X62285714Y-149527200D01*
X62285714Y-149527200D02*
X62238095Y-149479580D01*
X63714285Y-148574819D02*
X63238095Y-148574819D01*
X63238095Y-148574819D02*
X63190476Y-149051009D01*
X63190476Y-149051009D02*
X63238095Y-149003390D01*
X63238095Y-149003390D02*
X63333333Y-148955771D01*
X63333333Y-148955771D02*
X63571428Y-148955771D01*
X63571428Y-148955771D02*
X63666666Y-149003390D01*
X63666666Y-149003390D02*
X63714285Y-149051009D01*
X63714285Y-149051009D02*
X63761904Y-149146247D01*
X63761904Y-149146247D02*
X63761904Y-149384342D01*
X63761904Y-149384342D02*
X63714285Y-149479580D01*
X63714285Y-149479580D02*
X63666666Y-149527200D01*
X63666666Y-149527200D02*
X63571428Y-149574819D01*
X63571428Y-149574819D02*
X63333333Y-149574819D01*
X63333333Y-149574819D02*
X63238095Y-149527200D01*
X63238095Y-149527200D02*
X63190476Y-149479580D01*
X61333333Y-146300057D02*
X61380952Y-146252438D01*
X61380952Y-146252438D02*
X61476190Y-146204819D01*
X61476190Y-146204819D02*
X61714285Y-146204819D01*
X61714285Y-146204819D02*
X61809523Y-146252438D01*
X61809523Y-146252438D02*
X61857142Y-146300057D01*
X61857142Y-146300057D02*
X61904761Y-146395295D01*
X61904761Y-146395295D02*
X61904761Y-146490533D01*
X61904761Y-146490533D02*
X61857142Y-146633390D01*
X61857142Y-146633390D02*
X61285714Y-147204819D01*
X61285714Y-147204819D02*
X61904761Y-147204819D01*
X62523809Y-146204819D02*
X62619047Y-146204819D01*
X62619047Y-146204819D02*
X62714285Y-146252438D01*
X62714285Y-146252438D02*
X62761904Y-146300057D01*
X62761904Y-146300057D02*
X62809523Y-146395295D01*
X62809523Y-146395295D02*
X62857142Y-146585771D01*
X62857142Y-146585771D02*
X62857142Y-146823866D01*
X62857142Y-146823866D02*
X62809523Y-147014342D01*
X62809523Y-147014342D02*
X62761904Y-147109580D01*
X62761904Y-147109580D02*
X62714285Y-147157200D01*
X62714285Y-147157200D02*
X62619047Y-147204819D01*
X62619047Y-147204819D02*
X62523809Y-147204819D01*
X62523809Y-147204819D02*
X62428571Y-147157200D01*
X62428571Y-147157200D02*
X62380952Y-147109580D01*
X62380952Y-147109580D02*
X62333333Y-147014342D01*
X62333333Y-147014342D02*
X62285714Y-146823866D01*
X62285714Y-146823866D02*
X62285714Y-146585771D01*
X62285714Y-146585771D02*
X62333333Y-146395295D01*
X62333333Y-146395295D02*
X62380952Y-146300057D01*
X62380952Y-146300057D02*
X62428571Y-146252438D01*
X62428571Y-146252438D02*
X62523809Y-146204819D01*
X63285714Y-147204819D02*
X63285714Y-146204819D01*
X63380952Y-146823866D02*
X63666666Y-147204819D01*
X63666666Y-146538152D02*
X63285714Y-146919104D01*
X76607142Y-84324819D02*
X76273809Y-83848628D01*
X76035714Y-84324819D02*
X76035714Y-83324819D01*
X76035714Y-83324819D02*
X76416666Y-83324819D01*
X76416666Y-83324819D02*
X76511904Y-83372438D01*
X76511904Y-83372438D02*
X76559523Y-83420057D01*
X76559523Y-83420057D02*
X76607142Y-83515295D01*
X76607142Y-83515295D02*
X76607142Y-83658152D01*
X76607142Y-83658152D02*
X76559523Y-83753390D01*
X76559523Y-83753390D02*
X76511904Y-83801009D01*
X76511904Y-83801009D02*
X76416666Y-83848628D01*
X76416666Y-83848628D02*
X76035714Y-83848628D01*
X77511904Y-83324819D02*
X77035714Y-83324819D01*
X77035714Y-83324819D02*
X76988095Y-83801009D01*
X76988095Y-83801009D02*
X77035714Y-83753390D01*
X77035714Y-83753390D02*
X77130952Y-83705771D01*
X77130952Y-83705771D02*
X77369047Y-83705771D01*
X77369047Y-83705771D02*
X77464285Y-83753390D01*
X77464285Y-83753390D02*
X77511904Y-83801009D01*
X77511904Y-83801009D02*
X77559523Y-83896247D01*
X77559523Y-83896247D02*
X77559523Y-84134342D01*
X77559523Y-84134342D02*
X77511904Y-84229580D01*
X77511904Y-84229580D02*
X77464285Y-84277200D01*
X77464285Y-84277200D02*
X77369047Y-84324819D01*
X77369047Y-84324819D02*
X77130952Y-84324819D01*
X77130952Y-84324819D02*
X77035714Y-84277200D01*
X77035714Y-84277200D02*
X76988095Y-84229580D01*
X78035714Y-84324819D02*
X78226190Y-84324819D01*
X78226190Y-84324819D02*
X78321428Y-84277200D01*
X78321428Y-84277200D02*
X78369047Y-84229580D01*
X78369047Y-84229580D02*
X78464285Y-84086723D01*
X78464285Y-84086723D02*
X78511904Y-83896247D01*
X78511904Y-83896247D02*
X78511904Y-83515295D01*
X78511904Y-83515295D02*
X78464285Y-83420057D01*
X78464285Y-83420057D02*
X78416666Y-83372438D01*
X78416666Y-83372438D02*
X78321428Y-83324819D01*
X78321428Y-83324819D02*
X78130952Y-83324819D01*
X78130952Y-83324819D02*
X78035714Y-83372438D01*
X78035714Y-83372438D02*
X77988095Y-83420057D01*
X77988095Y-83420057D02*
X77940476Y-83515295D01*
X77940476Y-83515295D02*
X77940476Y-83753390D01*
X77940476Y-83753390D02*
X77988095Y-83848628D01*
X77988095Y-83848628D02*
X78035714Y-83896247D01*
X78035714Y-83896247D02*
X78130952Y-83943866D01*
X78130952Y-83943866D02*
X78321428Y-83943866D01*
X78321428Y-83943866D02*
X78416666Y-83896247D01*
X78416666Y-83896247D02*
X78464285Y-83848628D01*
X78464285Y-83848628D02*
X78511904Y-83753390D01*
X77130952Y-81954819D02*
X76559524Y-81954819D01*
X76845238Y-81954819D02*
X76845238Y-80954819D01*
X76845238Y-80954819D02*
X76750000Y-81097676D01*
X76750000Y-81097676D02*
X76654762Y-81192914D01*
X76654762Y-81192914D02*
X76559524Y-81240533D01*
X77559524Y-81954819D02*
X77559524Y-80954819D01*
X77654762Y-81573866D02*
X77940476Y-81954819D01*
X77940476Y-81288152D02*
X77559524Y-81669104D01*
X76607142Y-79324819D02*
X76273809Y-78848628D01*
X76035714Y-79324819D02*
X76035714Y-78324819D01*
X76035714Y-78324819D02*
X76416666Y-78324819D01*
X76416666Y-78324819D02*
X76511904Y-78372438D01*
X76511904Y-78372438D02*
X76559523Y-78420057D01*
X76559523Y-78420057D02*
X76607142Y-78515295D01*
X76607142Y-78515295D02*
X76607142Y-78658152D01*
X76607142Y-78658152D02*
X76559523Y-78753390D01*
X76559523Y-78753390D02*
X76511904Y-78801009D01*
X76511904Y-78801009D02*
X76416666Y-78848628D01*
X76416666Y-78848628D02*
X76035714Y-78848628D01*
X77511904Y-78324819D02*
X77035714Y-78324819D01*
X77035714Y-78324819D02*
X76988095Y-78801009D01*
X76988095Y-78801009D02*
X77035714Y-78753390D01*
X77035714Y-78753390D02*
X77130952Y-78705771D01*
X77130952Y-78705771D02*
X77369047Y-78705771D01*
X77369047Y-78705771D02*
X77464285Y-78753390D01*
X77464285Y-78753390D02*
X77511904Y-78801009D01*
X77511904Y-78801009D02*
X77559523Y-78896247D01*
X77559523Y-78896247D02*
X77559523Y-79134342D01*
X77559523Y-79134342D02*
X77511904Y-79229580D01*
X77511904Y-79229580D02*
X77464285Y-79277200D01*
X77464285Y-79277200D02*
X77369047Y-79324819D01*
X77369047Y-79324819D02*
X77130952Y-79324819D01*
X77130952Y-79324819D02*
X77035714Y-79277200D01*
X77035714Y-79277200D02*
X76988095Y-79229580D01*
X77892857Y-78324819D02*
X78559523Y-78324819D01*
X78559523Y-78324819D02*
X78130952Y-79324819D01*
X77130952Y-76954819D02*
X76559524Y-76954819D01*
X76845238Y-76954819D02*
X76845238Y-75954819D01*
X76845238Y-75954819D02*
X76750000Y-76097676D01*
X76750000Y-76097676D02*
X76654762Y-76192914D01*
X76654762Y-76192914D02*
X76559524Y-76240533D01*
X77559524Y-76954819D02*
X77559524Y-75954819D01*
X77654762Y-76573866D02*
X77940476Y-76954819D01*
X77940476Y-76288152D02*
X77559524Y-76669104D01*
X90166667Y-60407200D02*
X90309524Y-60454819D01*
X90309524Y-60454819D02*
X90547619Y-60454819D01*
X90547619Y-60454819D02*
X90642857Y-60407200D01*
X90642857Y-60407200D02*
X90690476Y-60359580D01*
X90690476Y-60359580D02*
X90738095Y-60264342D01*
X90738095Y-60264342D02*
X90738095Y-60169104D01*
X90738095Y-60169104D02*
X90690476Y-60073866D01*
X90690476Y-60073866D02*
X90642857Y-60026247D01*
X90642857Y-60026247D02*
X90547619Y-59978628D01*
X90547619Y-59978628D02*
X90357143Y-59931009D01*
X90357143Y-59931009D02*
X90261905Y-59883390D01*
X90261905Y-59883390D02*
X90214286Y-59835771D01*
X90214286Y-59835771D02*
X90166667Y-59740533D01*
X90166667Y-59740533D02*
X90166667Y-59645295D01*
X90166667Y-59645295D02*
X90214286Y-59550057D01*
X90214286Y-59550057D02*
X90261905Y-59502438D01*
X90261905Y-59502438D02*
X90357143Y-59454819D01*
X90357143Y-59454819D02*
X90595238Y-59454819D01*
X90595238Y-59454819D02*
X90738095Y-59502438D01*
X91071429Y-59454819D02*
X91309524Y-60454819D01*
X91309524Y-60454819D02*
X91500000Y-59740533D01*
X91500000Y-59740533D02*
X91690476Y-60454819D01*
X91690476Y-60454819D02*
X91928572Y-59454819D01*
X92214286Y-59454819D02*
X92833333Y-59454819D01*
X92833333Y-59454819D02*
X92500000Y-59835771D01*
X92500000Y-59835771D02*
X92642857Y-59835771D01*
X92642857Y-59835771D02*
X92738095Y-59883390D01*
X92738095Y-59883390D02*
X92785714Y-59931009D01*
X92785714Y-59931009D02*
X92833333Y-60026247D01*
X92833333Y-60026247D02*
X92833333Y-60264342D01*
X92833333Y-60264342D02*
X92785714Y-60359580D01*
X92785714Y-60359580D02*
X92738095Y-60407200D01*
X92738095Y-60407200D02*
X92642857Y-60454819D01*
X92642857Y-60454819D02*
X92357143Y-60454819D01*
X92357143Y-60454819D02*
X92261905Y-60407200D01*
X92261905Y-60407200D02*
X92214286Y-60359580D01*
X88380952Y-62207200D02*
X88523809Y-62254819D01*
X88523809Y-62254819D02*
X88761904Y-62254819D01*
X88761904Y-62254819D02*
X88857142Y-62207200D01*
X88857142Y-62207200D02*
X88904761Y-62159580D01*
X88904761Y-62159580D02*
X88952380Y-62064342D01*
X88952380Y-62064342D02*
X88952380Y-61969104D01*
X88952380Y-61969104D02*
X88904761Y-61873866D01*
X88904761Y-61873866D02*
X88857142Y-61826247D01*
X88857142Y-61826247D02*
X88761904Y-61778628D01*
X88761904Y-61778628D02*
X88571428Y-61731009D01*
X88571428Y-61731009D02*
X88476190Y-61683390D01*
X88476190Y-61683390D02*
X88428571Y-61635771D01*
X88428571Y-61635771D02*
X88380952Y-61540533D01*
X88380952Y-61540533D02*
X88380952Y-61445295D01*
X88380952Y-61445295D02*
X88428571Y-61350057D01*
X88428571Y-61350057D02*
X88476190Y-61302438D01*
X88476190Y-61302438D02*
X88571428Y-61254819D01*
X88571428Y-61254819D02*
X88809523Y-61254819D01*
X88809523Y-61254819D02*
X88952380Y-61302438D01*
X89285714Y-61254819D02*
X89523809Y-62254819D01*
X89523809Y-62254819D02*
X89714285Y-61540533D01*
X89714285Y-61540533D02*
X89904761Y-62254819D01*
X89904761Y-62254819D02*
X90142857Y-61254819D01*
X90285714Y-62350057D02*
X91047618Y-62350057D01*
X91285714Y-62254819D02*
X91285714Y-61254819D01*
X91285714Y-61254819D02*
X91523809Y-61254819D01*
X91523809Y-61254819D02*
X91666666Y-61302438D01*
X91666666Y-61302438D02*
X91761904Y-61397676D01*
X91761904Y-61397676D02*
X91809523Y-61492914D01*
X91809523Y-61492914D02*
X91857142Y-61683390D01*
X91857142Y-61683390D02*
X91857142Y-61826247D01*
X91857142Y-61826247D02*
X91809523Y-62016723D01*
X91809523Y-62016723D02*
X91761904Y-62111961D01*
X91761904Y-62111961D02*
X91666666Y-62207200D01*
X91666666Y-62207200D02*
X91523809Y-62254819D01*
X91523809Y-62254819D02*
X91285714Y-62254819D01*
X92285714Y-62254819D02*
X92285714Y-61254819D01*
X92285714Y-61254819D02*
X92666666Y-61254819D01*
X92666666Y-61254819D02*
X92761904Y-61302438D01*
X92761904Y-61302438D02*
X92809523Y-61350057D01*
X92809523Y-61350057D02*
X92857142Y-61445295D01*
X92857142Y-61445295D02*
X92857142Y-61588152D01*
X92857142Y-61588152D02*
X92809523Y-61683390D01*
X92809523Y-61683390D02*
X92761904Y-61731009D01*
X92761904Y-61731009D02*
X92666666Y-61778628D01*
X92666666Y-61778628D02*
X92285714Y-61778628D01*
X93285714Y-62254819D02*
X93285714Y-61254819D01*
X93285714Y-61254819D02*
X93523809Y-61254819D01*
X93523809Y-61254819D02*
X93666666Y-61302438D01*
X93666666Y-61302438D02*
X93761904Y-61397676D01*
X93761904Y-61397676D02*
X93809523Y-61492914D01*
X93809523Y-61492914D02*
X93857142Y-61683390D01*
X93857142Y-61683390D02*
X93857142Y-61826247D01*
X93857142Y-61826247D02*
X93809523Y-62016723D01*
X93809523Y-62016723D02*
X93761904Y-62111961D01*
X93761904Y-62111961D02*
X93666666Y-62207200D01*
X93666666Y-62207200D02*
X93523809Y-62254819D01*
X93523809Y-62254819D02*
X93285714Y-62254819D01*
X94142857Y-61254819D02*
X94714285Y-61254819D01*
X94428571Y-62254819D02*
X94428571Y-61254819D01*
X89113094Y-44754819D02*
X89238094Y-43754819D01*
X89238094Y-43754819D02*
X89482142Y-44469104D01*
X89482142Y-44469104D02*
X89904761Y-43754819D01*
X89904761Y-43754819D02*
X89779761Y-44754819D01*
X90767856Y-44088152D02*
X90684523Y-44754819D01*
X90339285Y-44088152D02*
X90273809Y-44611961D01*
X90273809Y-44611961D02*
X90309523Y-44707200D01*
X90309523Y-44707200D02*
X90398809Y-44754819D01*
X90398809Y-44754819D02*
X90541666Y-44754819D01*
X90541666Y-44754819D02*
X90642856Y-44707200D01*
X90642856Y-44707200D02*
X90696428Y-44659580D01*
X91101190Y-44088152D02*
X91482142Y-44088152D01*
X91285713Y-43754819D02*
X91178571Y-44611961D01*
X91178571Y-44611961D02*
X91214285Y-44707200D01*
X91214285Y-44707200D02*
X91303571Y-44754819D01*
X91303571Y-44754819D02*
X91398809Y-44754819D01*
X92119047Y-44707200D02*
X92017857Y-44754819D01*
X92017857Y-44754819D02*
X91827380Y-44754819D01*
X91827380Y-44754819D02*
X91738095Y-44707200D01*
X91738095Y-44707200D02*
X91702380Y-44611961D01*
X91702380Y-44611961D02*
X91750000Y-44231009D01*
X91750000Y-44231009D02*
X91809523Y-44135771D01*
X91809523Y-44135771D02*
X91910714Y-44088152D01*
X91910714Y-44088152D02*
X92101190Y-44088152D01*
X92101190Y-44088152D02*
X92190476Y-44135771D01*
X92190476Y-44135771D02*
X92226190Y-44231009D01*
X92226190Y-44231009D02*
X92214285Y-44326247D01*
X92214285Y-44326247D02*
X91726190Y-44421485D01*
X93934524Y-44659580D02*
X93880952Y-44707200D01*
X93880952Y-44707200D02*
X93732143Y-44754819D01*
X93732143Y-44754819D02*
X93636905Y-44754819D01*
X93636905Y-44754819D02*
X93500000Y-44707200D01*
X93500000Y-44707200D02*
X93416667Y-44611961D01*
X93416667Y-44611961D02*
X93380952Y-44516723D01*
X93380952Y-44516723D02*
X93357143Y-44326247D01*
X93357143Y-44326247D02*
X93375000Y-44183390D01*
X93375000Y-44183390D02*
X93446428Y-43992914D01*
X93446428Y-43992914D02*
X93505952Y-43897676D01*
X93505952Y-43897676D02*
X93613095Y-43802438D01*
X93613095Y-43802438D02*
X93761905Y-43754819D01*
X93761905Y-43754819D02*
X93857143Y-43754819D01*
X93857143Y-43754819D02*
X93994048Y-43802438D01*
X93994048Y-43802438D02*
X94035714Y-43850057D01*
X84994819Y-71488094D02*
X83994819Y-71488094D01*
X83994819Y-71488094D02*
X83994819Y-71249999D01*
X83994819Y-71249999D02*
X84042438Y-71107142D01*
X84042438Y-71107142D02*
X84137676Y-71011904D01*
X84137676Y-71011904D02*
X84232914Y-70964285D01*
X84232914Y-70964285D02*
X84423390Y-70916666D01*
X84423390Y-70916666D02*
X84566247Y-70916666D01*
X84566247Y-70916666D02*
X84756723Y-70964285D01*
X84756723Y-70964285D02*
X84851961Y-71011904D01*
X84851961Y-71011904D02*
X84947200Y-71107142D01*
X84947200Y-71107142D02*
X84994819Y-71249999D01*
X84994819Y-71249999D02*
X84994819Y-71488094D01*
X84328152Y-70059523D02*
X84994819Y-70059523D01*
X83947200Y-70297618D02*
X84661485Y-70535713D01*
X84661485Y-70535713D02*
X84661485Y-69916666D01*
%TO.C,SW1*%
D11*
X64700000Y-58800000D02*
X52300000Y-58800000D01*
X52300000Y-45200000D01*
X64700000Y-45200000D01*
X64700000Y-58800000D01*
%TO.C,R61*%
X85730000Y-77630000D02*
X85730000Y-77960000D01*
X85730000Y-80370000D02*
X85730000Y-80040000D01*
X92270000Y-77630000D02*
X85730000Y-77630000D01*
X92270000Y-77960000D02*
X92270000Y-77630000D01*
X92270000Y-80040000D02*
X92270000Y-80370000D01*
X92270000Y-80370000D02*
X85730000Y-80370000D01*
%TO.C,RV9*%
X81600000Y-142630000D02*
X81600000Y-147000000D01*
X81600000Y-151550000D02*
X81600000Y-159370000D01*
X82600000Y-159370000D02*
X81600000Y-159370000D01*
X93400000Y-142630000D02*
X81600000Y-142630000D01*
X93400000Y-142630000D02*
X93400000Y-147000000D01*
X93400000Y-151550000D02*
X93400000Y-159370000D01*
X93400000Y-159370000D02*
X92400000Y-159370000D01*
%TO.C,RV5*%
X57620000Y-112620000D02*
X57620000Y-107900000D01*
X57630000Y-104090000D02*
X57630000Y-101030000D01*
X58810000Y-112620000D02*
X57630000Y-112620000D01*
X61710000Y-112620000D02*
X61180000Y-112620000D01*
X64160000Y-112620000D02*
X63330000Y-112620000D01*
X67370000Y-101030000D02*
X57630000Y-101030000D01*
X67370000Y-104090000D02*
X67370000Y-101030000D01*
X67370000Y-112620000D02*
X65880000Y-112620000D01*
X67370000Y-112620000D02*
X67370000Y-107900000D01*
%TO.C,RV8*%
X81600000Y-113880000D02*
X81600000Y-118250000D01*
X81600000Y-122800000D02*
X81600000Y-130620000D01*
X82600000Y-130620000D02*
X81600000Y-130620000D01*
X93400000Y-113880000D02*
X81600000Y-113880000D01*
X93400000Y-113880000D02*
X93400000Y-118250000D01*
X93400000Y-122800000D02*
X93400000Y-130620000D01*
X93400000Y-130620000D02*
X92400000Y-130620000D01*
%TO.C,RV7*%
X81600000Y-85130000D02*
X81600000Y-89500000D01*
X81600000Y-94050000D02*
X81600000Y-101870000D01*
X82600000Y-101870000D02*
X81600000Y-101870000D01*
X93400000Y-85130000D02*
X81600000Y-85130000D01*
X93400000Y-85130000D02*
X93400000Y-89500000D01*
X93400000Y-94050000D02*
X93400000Y-101870000D01*
X93400000Y-101870000D02*
X92400000Y-101870000D01*
%TO.C,D3*%
X79764000Y-72310000D02*
X79920000Y-72310000D01*
X82080000Y-72310000D02*
X82236000Y-72310000D01*
X79764484Y-72310000D02*
G75*
G02*
X79919939Y-69078603I1235516J1560000D01*
G01*
X79920000Y-71790961D02*
G75*
G02*
X79919951Y-69709090I1080000J1040961D01*
G01*
X82080049Y-69709090D02*
G75*
G02*
X82080000Y-71790961I-1080049J-1040910D01*
G01*
X82080061Y-69078603D02*
G75*
G02*
X82235516Y-72310000I-1080061J-1671397D01*
G01*
%TO.C,R53*%
X59230000Y-88130000D02*
X59230000Y-88460000D01*
X59230000Y-90870000D02*
X59230000Y-90540000D01*
X65770000Y-88130000D02*
X59230000Y-88130000D01*
X65770000Y-88460000D02*
X65770000Y-88130000D01*
X65770000Y-90540000D02*
X65770000Y-90870000D01*
X65770000Y-90870000D02*
X59230000Y-90870000D01*
%TO.C,R60*%
X83730000Y-63130000D02*
X83730000Y-63460000D01*
X83730000Y-65870000D02*
X83730000Y-65540000D01*
X90270000Y-63130000D02*
X83730000Y-63130000D01*
X90270000Y-63460000D02*
X90270000Y-63130000D01*
X90270000Y-65540000D02*
X90270000Y-65870000D01*
X90270000Y-65870000D02*
X83730000Y-65870000D01*
%TO.C,D5*%
X92764000Y-72310000D02*
X92920000Y-72310000D01*
X95080000Y-72310000D02*
X95236000Y-72310000D01*
X92764484Y-72310000D02*
G75*
G02*
X92919939Y-69078603I1235516J1560000D01*
G01*
X92920000Y-71790961D02*
G75*
G02*
X92919951Y-69709090I1080000J1040961D01*
G01*
X95080049Y-69709090D02*
G75*
G02*
X95080000Y-71790961I-1080049J-1040910D01*
G01*
X95080061Y-69078603D02*
G75*
G02*
X95235516Y-72310000I-1080061J-1671397D01*
G01*
%TO.C,RV4*%
X57620000Y-83870000D02*
X57620000Y-79150000D01*
X57630000Y-75340000D02*
X57630000Y-72280000D01*
X58810000Y-83870000D02*
X57630000Y-83870000D01*
X61710000Y-83870000D02*
X61180000Y-83870000D01*
X64160000Y-83870000D02*
X63330000Y-83870000D01*
X67370000Y-72280000D02*
X57630000Y-72280000D01*
X67370000Y-75340000D02*
X67370000Y-72280000D01*
X67370000Y-83870000D02*
X65880000Y-83870000D01*
X67370000Y-83870000D02*
X67370000Y-79150000D01*
%TO.C,R54*%
X59230000Y-116880000D02*
X59230000Y-117210000D01*
X59230000Y-119620000D02*
X59230000Y-119290000D01*
X65770000Y-116880000D02*
X59230000Y-116880000D01*
X65770000Y-117210000D02*
X65770000Y-116880000D01*
X65770000Y-119290000D02*
X65770000Y-119620000D01*
X65770000Y-119620000D02*
X59230000Y-119620000D01*
%TO.C,R58*%
X71730000Y-63130000D02*
X71730000Y-63460000D01*
X71730000Y-65870000D02*
X71730000Y-65540000D01*
X78270000Y-63130000D02*
X71730000Y-63130000D01*
X78270000Y-63460000D02*
X78270000Y-63130000D01*
X78270000Y-65540000D02*
X78270000Y-65870000D01*
X78270000Y-65870000D02*
X71730000Y-65870000D01*
%TO.C,RV6*%
X57620000Y-141370000D02*
X57620000Y-136650000D01*
X57630000Y-132840000D02*
X57630000Y-129780000D01*
X58810000Y-141370000D02*
X57630000Y-141370000D01*
X61710000Y-141370000D02*
X61180000Y-141370000D01*
X64160000Y-141370000D02*
X63330000Y-141370000D01*
X67370000Y-129780000D02*
X57630000Y-129780000D01*
X67370000Y-132840000D02*
X67370000Y-129780000D01*
X67370000Y-141370000D02*
X65880000Y-141370000D01*
X67370000Y-141370000D02*
X67370000Y-136650000D01*
%TO.C,R56*%
X59730000Y-63130000D02*
X59730000Y-63460000D01*
X59730000Y-65870000D02*
X59730000Y-65540000D01*
X66270000Y-63130000D02*
X59730000Y-63130000D01*
X66270000Y-63460000D02*
X66270000Y-63130000D01*
X66270000Y-65540000D02*
X66270000Y-65870000D01*
X66270000Y-65870000D02*
X59730000Y-65870000D01*
%TO.C,J0*%
X95670000Y-98670000D02*
X97000000Y-98670000D01*
X95670000Y-100000000D02*
X95670000Y-98670000D01*
X95670000Y-101270000D02*
X95670000Y-101330000D01*
X95670000Y-101270000D02*
X98330000Y-101270000D01*
X95670000Y-101330000D02*
X98330000Y-101330000D01*
X98330000Y-101270000D02*
X98330000Y-101330000D01*
%TO.C,SW2*%
X81200000Y-58800000D02*
X68800000Y-58800000D01*
X68800000Y-45200000D01*
X81200000Y-45200000D01*
X81200000Y-58800000D01*
%TO.C,R55*%
X59230000Y-145380000D02*
X59230000Y-145710000D01*
X59230000Y-148120000D02*
X59230000Y-147790000D01*
X65770000Y-145380000D02*
X59230000Y-145380000D01*
X65770000Y-145710000D02*
X65770000Y-145380000D01*
X65770000Y-147790000D02*
X65770000Y-148120000D01*
X65770000Y-148120000D02*
X59230000Y-148120000D01*
%TO.C,R59*%
X73980000Y-80130000D02*
X73980000Y-80460000D01*
X73980000Y-82870000D02*
X73980000Y-82540000D01*
X80520000Y-80130000D02*
X73980000Y-80130000D01*
X80520000Y-80460000D02*
X80520000Y-80130000D01*
X80520000Y-82540000D02*
X80520000Y-82870000D01*
X80520000Y-82870000D02*
X73980000Y-82870000D01*
%TO.C,R57*%
X73980000Y-75130000D02*
X73980000Y-75460000D01*
X73980000Y-77870000D02*
X73980000Y-77540000D01*
X80520000Y-75130000D02*
X73980000Y-75130000D01*
X80520000Y-75460000D02*
X80520000Y-75130000D01*
X80520000Y-77540000D02*
X80520000Y-77870000D01*
X80520000Y-77870000D02*
X73980000Y-77870000D01*
%TO.C,SW3*%
X97700000Y-58800000D02*
X85300000Y-58800000D01*
X85300000Y-45200000D01*
X97700000Y-45200000D01*
X97700000Y-58800000D01*
%TO.C,D4*%
X86264000Y-72310000D02*
X86420000Y-72310000D01*
X88580000Y-72310000D02*
X88736000Y-72310000D01*
X86264484Y-72310000D02*
G75*
G02*
X86419939Y-69078603I1235516J1560000D01*
G01*
X86420000Y-71790961D02*
G75*
G02*
X86419951Y-69709090I1080000J1040961D01*
G01*
X88580049Y-69709090D02*
G75*
G02*
X88580000Y-71790961I-1080049J-1040910D01*
G01*
X88580061Y-69078603D02*
G75*
G02*
X88735516Y-72310000I-1080061J-1671397D01*
G01*
%TD*%
%LPC*%
D12*
%TO.C,SW1*%
X60913000Y-47300000D03*
X60913000Y-52000000D03*
X60913000Y-56700000D03*
X56087000Y-47300000D03*
X56087000Y-52000000D03*
X56087000Y-56700000D03*
%TD*%
D13*
%TO.C,R61*%
X92810000Y-79000000D03*
D14*
X85190000Y-79000000D03*
%TD*%
D15*
%TO.C,RV9*%
X81700000Y-149250000D03*
D16*
X91250000Y-160250000D03*
D15*
X93300000Y-149250000D03*
D17*
X83750000Y-160250000D03*
D16*
X86250000Y-160250000D03*
X88750000Y-160250000D03*
%TD*%
D18*
%TO.C,RV5*%
X57700000Y-106000000D03*
X67300000Y-106000000D03*
D17*
X60000000Y-113500000D03*
D16*
X62500000Y-113500000D03*
X65000000Y-113500000D03*
%TD*%
D15*
%TO.C,RV8*%
X81700000Y-120500000D03*
D16*
X91250000Y-131500000D03*
D15*
X93300000Y-120500000D03*
D17*
X83750000Y-131500000D03*
D16*
X86250000Y-131500000D03*
X88750000Y-131500000D03*
%TD*%
D15*
%TO.C,RV7*%
X81700000Y-91750000D03*
D16*
X91250000Y-102750000D03*
D15*
X93300000Y-91750000D03*
D17*
X83750000Y-102750000D03*
D16*
X86250000Y-102750000D03*
X88750000Y-102750000D03*
%TD*%
D19*
%TO.C,D3*%
X81000000Y-72750000D03*
D20*
X81000000Y-70750000D03*
X81000000Y-68750000D03*
%TD*%
D13*
%TO.C,R53*%
X66310000Y-89500000D03*
D14*
X58690000Y-89500000D03*
%TD*%
D13*
%TO.C,R60*%
X90810000Y-64500000D03*
D14*
X83190000Y-64500000D03*
%TD*%
D19*
%TO.C,D5*%
X94000000Y-72750000D03*
D20*
X94000000Y-70750000D03*
X94000000Y-68750000D03*
%TD*%
D18*
%TO.C,RV4*%
X57700000Y-77250000D03*
X67300000Y-77250000D03*
D17*
X60000000Y-84750000D03*
D16*
X62500000Y-84750000D03*
X65000000Y-84750000D03*
%TD*%
D13*
%TO.C,R54*%
X66310000Y-118250000D03*
D14*
X58690000Y-118250000D03*
%TD*%
D13*
%TO.C,R58*%
X78810000Y-64500000D03*
D14*
X71190000Y-64500000D03*
%TD*%
D18*
%TO.C,RV6*%
X57700000Y-134750000D03*
X67300000Y-134750000D03*
D17*
X60000000Y-142250000D03*
D16*
X62500000Y-142250000D03*
X65000000Y-142250000D03*
%TD*%
D13*
%TO.C,R56*%
X66810000Y-64500000D03*
D14*
X59190000Y-64500000D03*
%TD*%
D21*
%TO.C,J0*%
X97000000Y-100000000D03*
%TD*%
D12*
%TO.C,SW2*%
X77413000Y-47300000D03*
X77413000Y-52000000D03*
X77413000Y-56700000D03*
X72587000Y-47300000D03*
X72587000Y-52000000D03*
X72587000Y-56700000D03*
%TD*%
D13*
%TO.C,R55*%
X66310000Y-146750000D03*
D14*
X58690000Y-146750000D03*
%TD*%
D13*
%TO.C,R59*%
X81060000Y-81500000D03*
D14*
X73440000Y-81500000D03*
%TD*%
D13*
%TO.C,R57*%
X81060000Y-76500000D03*
D14*
X73440000Y-76500000D03*
%TD*%
D12*
%TO.C,SW3*%
X93913000Y-47300000D03*
X93913000Y-52000000D03*
X93913000Y-56700000D03*
X89087000Y-47300000D03*
X89087000Y-52000000D03*
X89087000Y-56700000D03*
%TD*%
D19*
%TO.C,D4*%
X87500000Y-72750000D03*
D20*
X87500000Y-70750000D03*
X87500000Y-68750000D03*
%TD*%
D21*
%TO.C,J70*%
X97000000Y-133000000D03*
D22*
X97000000Y-135540000D03*
X97000000Y-138080000D03*
X97000000Y-140620000D03*
X97000000Y-143160000D03*
X97000000Y-145700000D03*
X97000000Y-148240000D03*
X97000000Y-150780000D03*
%TD*%
D21*
%TO.C,J60*%
X54500000Y-96000000D03*
D22*
X54500000Y-98540000D03*
X54500000Y-101080000D03*
X54500000Y-103620000D03*
X54500000Y-106160000D03*
X54500000Y-108700000D03*
X54500000Y-111240000D03*
X54500000Y-113780000D03*
%TD*%
D21*
%TO.C,J50*%
X97000000Y-62500000D03*
D22*
X97000000Y-65040000D03*
X97000000Y-67580000D03*
X97000000Y-70120000D03*
X97000000Y-72660000D03*
X97000000Y-75200000D03*
X97000000Y-77740000D03*
X97000000Y-80280000D03*
%TD*%
%LPD*%
M02*
