M48
; DRILL file {KiCad 9.0.4} date 2025-10-04T20:42:37+0200
; FORMAT={-:-/ absolute / metric / decimal}
; #@! TF.CreationDate,2025-10-04T20:42:37+02:00
; #@! TF.GenerationSoftware,Kicad,Pcbnew,9.0.4
; #@! TF.FileFunction,Plated,1,2,PTH
FMAT,2
METRIC
; #@! TA.AperFunction,Plated,PTH,ComponentDrill
T1C0.800
; #@! TA.AperFunction,Plated,PTH,ComponentDrill
T2C0.900
; #@! TA.AperFunction,Plated,PTH,ComponentDrill
T3C1.000
; #@! TA.AperFunction,Plated,PTH,ComponentDrill
T4C1.100
; #@! TA.AperFunction,Plated,PTH,ComponentDrill
T5C1.800
; #@! TA.AperFunction,Plated,PTH,ComponentDrill
T6C2.000
%
G90
G05
T1
X58.69Y-89.5
X58.69Y-118.25
X58.69Y-146.75
X59.19Y-64.5
X66.31Y-89.5
X66.31Y-118.25
X66.31Y-146.75
X66.81Y-64.5
X71.19Y-64.5
X73.44Y-76.5
X73.44Y-81.5
X78.81Y-64.5
X81.06Y-76.5
X81.06Y-81.5
X83.19Y-64.5
X85.19Y-79.0
X90.81Y-64.5
X92.81Y-79.0
T2
X81.0Y-68.75
X81.0Y-70.75
X81.0Y-72.75
X87.5Y-68.75
X87.5Y-70.75
X87.5Y-72.75
X94.0Y-68.75
X94.0Y-70.75
X94.0Y-72.75
T3
X54.5Y-96.0
X54.5Y-98.54
X54.5Y-101.08
X54.5Y-103.62
X54.5Y-106.16
X54.5Y-108.7
X54.5Y-111.24
X54.5Y-113.78
X60.0Y-84.75
X60.0Y-113.5
X60.0Y-142.25
X62.5Y-84.75
X62.5Y-113.5
X62.5Y-142.25
X65.0Y-84.75
X65.0Y-113.5
X65.0Y-142.25
X83.75Y-102.75
X83.75Y-131.5
X83.75Y-160.25
X86.25Y-102.75
X86.25Y-131.5
X86.25Y-160.25
X88.75Y-102.75
X88.75Y-131.5
X88.75Y-160.25
X91.25Y-102.75
X91.25Y-131.5
X91.25Y-160.25
X97.0Y-62.5
X97.0Y-65.04
X97.0Y-67.58
X97.0Y-70.12
X97.0Y-72.66
X97.0Y-75.2
X97.0Y-77.74
X97.0Y-80.28
X97.0Y-100.0
X97.0Y-133.0
X97.0Y-135.54
X97.0Y-138.08
X97.0Y-140.62
X97.0Y-143.16
X97.0Y-145.7
X97.0Y-148.24
X97.0Y-150.78
T5
X56.087Y-47.3
X56.087Y-52.0
X56.087Y-56.7
X60.913Y-47.3
X60.913Y-52.0
X60.913Y-56.7
X72.587Y-47.3
X72.587Y-52.0
X72.587Y-56.7
X77.413Y-47.3
X77.413Y-52.0
X77.413Y-56.7
X89.087Y-47.3
X89.087Y-52.0
X89.087Y-56.7
X93.913Y-47.3
X93.913Y-52.0
X93.913Y-56.7
T4
X57.7Y-77.6G85X57.7Y-76.9
G05
X57.7Y-106.35G85X57.7Y-105.65
G05
X57.7Y-135.1G85X57.7Y-134.4
G05
X67.3Y-77.6G85X67.3Y-76.9
G05
X67.3Y-106.35G85X67.3Y-105.65
G05
X67.3Y-135.1G85X67.3Y-134.4
G05
T6
X81.7Y-91.65G85X81.7Y-91.85
G05
X81.7Y-120.4G85X81.7Y-120.6
G05
X81.7Y-149.15G85X81.7Y-149.35
G05
X93.3Y-91.65G85X93.3Y-91.85
G05
X93.3Y-120.4G85X93.3Y-120.6
G05
X93.3Y-149.15G85X93.3Y-149.35
G05
M30
