%TF.GenerationSoftware,KiCad,Pcbnew,9.0.4*%
%TF.CreationDate,2025-10-04T20:42:37+02:00*%
%TF.ProjectId,DMH_VCM_Mk2_PCB_2,444d485f-5643-44d5-9f4d-6b325f504342,1*%
%TF.SameCoordinates,Original*%
%TF.FileFunction,Drillmap*%
%TF.FilePolarity,Positive*%
%FSLAX45Y45*%
G04 Gerber Fmt 4.5, Leading zero omitted, Abs format (unit mm)*
G04 Created by KiCad (PCBNEW 9.0.4) date 2025-10-04 20:42:37*
%MOMM*%
%LPD*%
G01*
G04 APERTURE LIST*
%ADD10C,0.050000*%
%ADD11C,0.200000*%
G04 APERTURE END LIST*
D10*
X5100000Y-4250000D02*
X5100000Y-15050000D01*
X9900000Y-16700000D02*
X9900000Y-4250000D01*
X6750000Y-16700000D02*
X9900000Y-16700000D01*
X6750000Y-15050000D02*
X6750000Y-16700000D01*
X5100000Y-15050000D02*
X6750000Y-15050000D01*
X9900000Y-4250000D02*
X5100000Y-4250000D01*
D11*
X5358277Y-17013984D02*
X5358277Y-16813984D01*
X5358277Y-16813984D02*
X5405896Y-16813984D01*
X5405896Y-16813984D02*
X5434467Y-16823508D01*
X5434467Y-16823508D02*
X5453515Y-16842555D01*
X5453515Y-16842555D02*
X5463039Y-16861603D01*
X5463039Y-16861603D02*
X5472563Y-16899698D01*
X5472563Y-16899698D02*
X5472563Y-16928270D01*
X5472563Y-16928270D02*
X5463039Y-16966365D01*
X5463039Y-16966365D02*
X5453515Y-16985412D01*
X5453515Y-16985412D02*
X5434467Y-17004460D01*
X5434467Y-17004460D02*
X5405896Y-17013984D01*
X5405896Y-17013984D02*
X5358277Y-17013984D01*
X5558277Y-17013984D02*
X5558277Y-16880650D01*
X5558277Y-16918746D02*
X5567801Y-16899698D01*
X5567801Y-16899698D02*
X5577324Y-16890174D01*
X5577324Y-16890174D02*
X5596372Y-16880650D01*
X5596372Y-16880650D02*
X5615420Y-16880650D01*
X5682086Y-17013984D02*
X5682086Y-16880650D01*
X5682086Y-16813984D02*
X5672562Y-16823508D01*
X5672562Y-16823508D02*
X5682086Y-16833031D01*
X5682086Y-16833031D02*
X5691610Y-16823508D01*
X5691610Y-16823508D02*
X5682086Y-16813984D01*
X5682086Y-16813984D02*
X5682086Y-16833031D01*
X5805896Y-17013984D02*
X5786848Y-17004460D01*
X5786848Y-17004460D02*
X5777324Y-16985412D01*
X5777324Y-16985412D02*
X5777324Y-16813984D01*
X5910658Y-17013984D02*
X5891610Y-17004460D01*
X5891610Y-17004460D02*
X5882086Y-16985412D01*
X5882086Y-16985412D02*
X5882086Y-16813984D01*
X6139229Y-17013984D02*
X6139229Y-16813984D01*
X6139229Y-16813984D02*
X6205896Y-16956841D01*
X6205896Y-16956841D02*
X6272562Y-16813984D01*
X6272562Y-16813984D02*
X6272562Y-17013984D01*
X6453515Y-17013984D02*
X6453515Y-16909222D01*
X6453515Y-16909222D02*
X6443991Y-16890174D01*
X6443991Y-16890174D02*
X6424943Y-16880650D01*
X6424943Y-16880650D02*
X6386848Y-16880650D01*
X6386848Y-16880650D02*
X6367801Y-16890174D01*
X6453515Y-17004460D02*
X6434467Y-17013984D01*
X6434467Y-17013984D02*
X6386848Y-17013984D01*
X6386848Y-17013984D02*
X6367801Y-17004460D01*
X6367801Y-17004460D02*
X6358277Y-16985412D01*
X6358277Y-16985412D02*
X6358277Y-16966365D01*
X6358277Y-16966365D02*
X6367801Y-16947317D01*
X6367801Y-16947317D02*
X6386848Y-16937793D01*
X6386848Y-16937793D02*
X6434467Y-16937793D01*
X6434467Y-16937793D02*
X6453515Y-16928270D01*
X6548753Y-16880650D02*
X6548753Y-17080650D01*
X6548753Y-16890174D02*
X6567801Y-16880650D01*
X6567801Y-16880650D02*
X6605896Y-16880650D01*
X6605896Y-16880650D02*
X6624943Y-16890174D01*
X6624943Y-16890174D02*
X6634467Y-16899698D01*
X6634467Y-16899698D02*
X6643991Y-16918746D01*
X6643991Y-16918746D02*
X6643991Y-16975889D01*
X6643991Y-16975889D02*
X6634467Y-16994936D01*
X6634467Y-16994936D02*
X6624943Y-17004460D01*
X6624943Y-17004460D02*
X6605896Y-17013984D01*
X6605896Y-17013984D02*
X6567801Y-17013984D01*
X6567801Y-17013984D02*
X6548753Y-17004460D01*
X6729705Y-16994936D02*
X6739229Y-17004460D01*
X6739229Y-17004460D02*
X6729705Y-17013984D01*
X6729705Y-17013984D02*
X6720182Y-17004460D01*
X6720182Y-17004460D02*
X6729705Y-16994936D01*
X6729705Y-16994936D02*
X6729705Y-17013984D01*
X6729705Y-16890174D02*
X6739229Y-16899698D01*
X6739229Y-16899698D02*
X6729705Y-16909222D01*
X6729705Y-16909222D02*
X6720182Y-16899698D01*
X6720182Y-16899698D02*
X6729705Y-16890174D01*
X6729705Y-16890174D02*
X6729705Y-16909222D01*
M02*
