%TF.GenerationSoftware,KiCad,Pcbnew,9.0.4*%
%TF.CreationDate,2025-10-04T20:42:34+02:00*%
%TF.ProjectId,DMH_VCM_Mk2_PCB_2,444d485f-5643-44d5-9f4d-6b325f504342,1*%
%TF.SameCoordinates,Original*%
%TF.FileFunction,Copper,L2,Bot*%
%TF.FilePolarity,Positive*%
%FSLAX46Y46*%
G04 Gerber Fmt 4.6, Leading zero omitted, Abs format (unit mm)*
G04 Created by KiCad (PCBNEW 9.0.4) date 2025-10-04 20:42:34*
%MOMM*%
%LPD*%
G01*
G04 APERTURE LIST*
%TA.AperFunction,ComponentPad*%
%ADD10C,2.800000*%
%TD*%
%TA.AperFunction,ComponentPad*%
%ADD11C,1.600000*%
%TD*%
%TA.AperFunction,ComponentPad*%
%ADD12O,1.600000X1.600000*%
%TD*%
%TA.AperFunction,ComponentPad*%
%ADD13O,4.000000X4.200000*%
%TD*%
%TA.AperFunction,ComponentPad*%
%ADD14C,1.800000*%
%TD*%
%TA.AperFunction,ComponentPad*%
%ADD15R,1.800000X1.800000*%
%TD*%
%TA.AperFunction,ComponentPad*%
%ADD16O,2.720000X3.240000*%
%TD*%
%TA.AperFunction,ComponentPad*%
%ADD17R,1.800000X1.400000*%
%TD*%
%TA.AperFunction,ComponentPad*%
%ADD18O,1.800000X1.400000*%
%TD*%
%TA.AperFunction,ComponentPad*%
%ADD19R,1.700000X1.700000*%
%TD*%
%TA.AperFunction,ComponentPad*%
%ADD20O,1.700000X1.700000*%
%TD*%
%TA.AperFunction,Conductor*%
%ADD21C,1.000000*%
%TD*%
%TA.AperFunction,Conductor*%
%ADD22C,0.200000*%
%TD*%
G04 APERTURE END LIST*
D10*
%TO.P,SW1,1,A*%
%TO.N,/Inputs and Outputs/Mute A Switch*%
X60913000Y-47300000D03*
%TO.P,SW1,2,B*%
%TO.N,/Inputs and Outputs/Output A Jack*%
X60913000Y-52000000D03*
%TO.P,SW1,3,C*%
%TO.N,unconnected-(SW1-C-Pad3)*%
X60913000Y-56700000D03*
%TO.P,SW1,4,A*%
%TO.N,Net-(R57-Pad2)*%
X56087000Y-47300000D03*
%TO.P,SW1,5,B*%
%TO.N,+12V*%
X56087000Y-52000000D03*
%TO.P,SW1,6,C*%
%TO.N,Net-(R56-Pad2)*%
X56087000Y-56700000D03*
%TD*%
D11*
%TO.P,R61,1*%
%TO.N,Net-(D5-A1)*%
X92810000Y-79000000D03*
D12*
%TO.P,R61,2*%
%TO.N,Net-(R61-Pad2)*%
X85190000Y-79000000D03*
%TD*%
D13*
%TO.P,RV9,*%
%TO.N,*%
X81700000Y-149250000D03*
D14*
X91250000Y-160250000D03*
D13*
X93300000Y-149250000D03*
D15*
%TO.P,RV9,1,1*%
%TO.N,GND*%
X83750000Y-160250000D03*
D14*
%TO.P,RV9,2,2*%
%TO.N,/Inputs and Outputs/CV Amt C Pot*%
X86250000Y-160250000D03*
%TO.P,RV9,3,3*%
%TO.N,/Inputs and Outputs/CV C Jack*%
X88750000Y-160250000D03*
%TD*%
D16*
%TO.P,RV5,*%
%TO.N,*%
X57700000Y-106000000D03*
X67300000Y-106000000D03*
D15*
%TO.P,RV5,1,1*%
%TO.N,GND*%
X60000000Y-113500000D03*
D14*
%TO.P,RV5,2,2*%
%TO.N,/Inputs and Outputs/Offset B Pot*%
X62500000Y-113500000D03*
%TO.P,RV5,3,3*%
%TO.N,Net-(R54-Pad1)*%
X65000000Y-113500000D03*
%TD*%
D13*
%TO.P,RV8,*%
%TO.N,*%
X81700000Y-120500000D03*
D14*
X91250000Y-131500000D03*
D13*
X93300000Y-120500000D03*
D15*
%TO.P,RV8,1,1*%
%TO.N,GND*%
X83750000Y-131500000D03*
D14*
%TO.P,RV8,2,2*%
%TO.N,/Inputs and Outputs/CV Amt B Pot*%
X86250000Y-131500000D03*
%TO.P,RV8,3,3*%
%TO.N,/Inputs and Outputs/CV B Jack*%
X88750000Y-131500000D03*
%TD*%
D13*
%TO.P,RV7,*%
%TO.N,*%
X81700000Y-91750000D03*
D14*
X91250000Y-102750000D03*
D13*
X93300000Y-91750000D03*
D15*
%TO.P,RV7,1,1*%
%TO.N,GND*%
X83750000Y-102750000D03*
D14*
%TO.P,RV7,2,2*%
%TO.N,/Inputs and Outputs/CV Amt A Pot*%
X86250000Y-102750000D03*
%TO.P,RV7,3,3*%
%TO.N,/Inputs and Outputs/CV A Jack*%
X88750000Y-102750000D03*
%TD*%
D17*
%TO.P,D3,1,A1*%
%TO.N,Net-(D3-A1)*%
X81000000Y-72750000D03*
D18*
%TO.P,D3,2,K*%
%TO.N,GND*%
X81000000Y-70750000D03*
%TO.P,D3,3,A2*%
%TO.N,Net-(D3-A2)*%
X81000000Y-68750000D03*
%TD*%
D11*
%TO.P,R53,1*%
%TO.N,Net-(R53-Pad1)*%
X66310000Y-89500000D03*
D12*
%TO.P,R53,2*%
%TO.N,+12V*%
X58690000Y-89500000D03*
%TD*%
D11*
%TO.P,R60,1*%
%TO.N,Net-(D5-A2)*%
X90810000Y-64500000D03*
D12*
%TO.P,R60,2*%
%TO.N,Net-(R60-Pad2)*%
X83190000Y-64500000D03*
%TD*%
D17*
%TO.P,D5,1,A1*%
%TO.N,Net-(D5-A1)*%
X94000000Y-72750000D03*
D18*
%TO.P,D5,2,K*%
%TO.N,GND*%
X94000000Y-70750000D03*
%TO.P,D5,3,A2*%
%TO.N,Net-(D5-A2)*%
X94000000Y-68750000D03*
%TD*%
D16*
%TO.P,RV4,*%
%TO.N,*%
X57700000Y-77250000D03*
X67300000Y-77250000D03*
D15*
%TO.P,RV4,1,1*%
%TO.N,GND*%
X60000000Y-84750000D03*
D14*
%TO.P,RV4,2,2*%
%TO.N,/Inputs and Outputs/Offset A Pot*%
X62500000Y-84750000D03*
%TO.P,RV4,3,3*%
%TO.N,Net-(R53-Pad1)*%
X65000000Y-84750000D03*
%TD*%
D11*
%TO.P,R54,1*%
%TO.N,Net-(R54-Pad1)*%
X66310000Y-118250000D03*
D12*
%TO.P,R54,2*%
%TO.N,+12V*%
X58690000Y-118250000D03*
%TD*%
D11*
%TO.P,R58,1*%
%TO.N,Net-(D4-A2)*%
X78810000Y-64500000D03*
D12*
%TO.P,R58,2*%
%TO.N,Net-(R58-Pad2)*%
X71190000Y-64500000D03*
%TD*%
D16*
%TO.P,RV6,*%
%TO.N,*%
X57700000Y-134750000D03*
X67300000Y-134750000D03*
D15*
%TO.P,RV6,1,1*%
%TO.N,GND*%
X60000000Y-142250000D03*
D14*
%TO.P,RV6,2,2*%
%TO.N,/Inputs and Outputs/Offset C Pot*%
X62500000Y-142250000D03*
%TO.P,RV6,3,3*%
%TO.N,Net-(R55-Pad1)*%
X65000000Y-142250000D03*
%TD*%
D11*
%TO.P,R56,1*%
%TO.N,Net-(D3-A2)*%
X66810000Y-64500000D03*
D12*
%TO.P,R56,2*%
%TO.N,Net-(R56-Pad2)*%
X59190000Y-64500000D03*
%TD*%
D19*
%TO.P,J0,1,Pin_1*%
%TO.N,GND*%
X97000000Y-100000000D03*
%TD*%
D10*
%TO.P,SW2,1,A*%
%TO.N,/Inputs and Outputs/Mute B Switch*%
X77413000Y-47300000D03*
%TO.P,SW2,2,B*%
%TO.N,/Inputs and Outputs/Output B Jack*%
X77413000Y-52000000D03*
%TO.P,SW2,3,C*%
%TO.N,unconnected-(SW2-C-Pad3)*%
X77413000Y-56700000D03*
%TO.P,SW2,4,A*%
%TO.N,Net-(R59-Pad2)*%
X72587000Y-47300000D03*
%TO.P,SW2,5,B*%
%TO.N,+12V*%
X72587000Y-52000000D03*
%TO.P,SW2,6,C*%
%TO.N,Net-(R58-Pad2)*%
X72587000Y-56700000D03*
%TD*%
D11*
%TO.P,R55,1*%
%TO.N,Net-(R55-Pad1)*%
X66310000Y-146750000D03*
D12*
%TO.P,R55,2*%
%TO.N,+12V*%
X58690000Y-146750000D03*
%TD*%
D11*
%TO.P,R59,1*%
%TO.N,Net-(D4-A1)*%
X81060000Y-81500000D03*
D12*
%TO.P,R59,2*%
%TO.N,Net-(R59-Pad2)*%
X73440000Y-81500000D03*
%TD*%
D11*
%TO.P,R57,1*%
%TO.N,Net-(D3-A1)*%
X81060000Y-76500000D03*
D12*
%TO.P,R57,2*%
%TO.N,Net-(R57-Pad2)*%
X73440000Y-76500000D03*
%TD*%
D10*
%TO.P,SW3,1,A*%
%TO.N,/Inputs and Outputs/Mute C Switch*%
X93913000Y-47300000D03*
%TO.P,SW3,2,B*%
%TO.N,/Inputs and Outputs/Output C Jack*%
X93913000Y-52000000D03*
%TO.P,SW3,3,C*%
%TO.N,unconnected-(SW3-C-Pad3)*%
X93913000Y-56700000D03*
%TO.P,SW3,4,A*%
%TO.N,Net-(R61-Pad2)*%
X89087000Y-47300000D03*
%TO.P,SW3,5,B*%
%TO.N,+12V*%
X89087000Y-52000000D03*
%TO.P,SW3,6,C*%
%TO.N,Net-(R60-Pad2)*%
X89087000Y-56700000D03*
%TD*%
D17*
%TO.P,D4,1,A1*%
%TO.N,Net-(D4-A1)*%
X87500000Y-72750000D03*
D18*
%TO.P,D4,2,K*%
%TO.N,GND*%
X87500000Y-70750000D03*
%TO.P,D4,3,A2*%
%TO.N,Net-(D4-A2)*%
X87500000Y-68750000D03*
%TD*%
D19*
%TO.P,J70,1,Pin_1*%
%TO.N,+12V*%
X97000000Y-133000000D03*
D20*
%TO.P,J70,2,Pin_2*%
%TO.N,/Inputs and Outputs/Mute C Switch*%
X97000000Y-135540000D03*
%TO.P,J70,3,Pin_3*%
%TO.N,/Inputs and Outputs/Output C Jack*%
X97000000Y-138080000D03*
%TO.P,J70,4,Pin_4*%
%TO.N,/Inputs and Outputs/Offset C Pot*%
X97000000Y-140620000D03*
%TO.P,J70,5,Pin_5*%
%TO.N,/Inputs and Outputs/CV Amt C Pot*%
X97000000Y-143160000D03*
%TO.P,J70,6,Pin_6*%
%TO.N,/Inputs and Outputs/CV C Jack*%
X97000000Y-145700000D03*
%TO.P,J70,7,Pin_7*%
%TO.N,unconnected-(J70-Pin_7-Pad7)*%
X97000000Y-148240000D03*
%TO.P,J70,8,Pin_8*%
%TO.N,GND*%
X97000000Y-150780000D03*
%TD*%
D19*
%TO.P,J60,1,Pin_1*%
%TO.N,+12V*%
X54500000Y-96000000D03*
D20*
%TO.P,J60,2,Pin_2*%
%TO.N,/Inputs and Outputs/Mute B Switch*%
X54500000Y-98540000D03*
%TO.P,J60,3,Pin_3*%
%TO.N,/Inputs and Outputs/Output B Jack*%
X54500000Y-101080000D03*
%TO.P,J60,4,Pin_4*%
%TO.N,/Inputs and Outputs/Offset B Pot*%
X54500000Y-103620000D03*
%TO.P,J60,5,Pin_5*%
%TO.N,/Inputs and Outputs/CV Amt B Pot*%
X54500000Y-106160000D03*
%TO.P,J60,6,Pin_6*%
%TO.N,/Inputs and Outputs/CV B Jack*%
X54500000Y-108700000D03*
%TO.P,J60,7,Pin_7*%
%TO.N,GND*%
X54500000Y-111240000D03*
%TO.P,J60,8,Pin_8*%
X54500000Y-113780000D03*
%TD*%
D19*
%TO.P,J50,1,Pin_1*%
%TO.N,+12V*%
X97000000Y-62500000D03*
D20*
%TO.P,J50,2,Pin_2*%
%TO.N,/Inputs and Outputs/Mute A Switch*%
X97000000Y-65040000D03*
%TO.P,J50,3,Pin_3*%
%TO.N,/Inputs and Outputs/Output A Jack*%
X97000000Y-67580000D03*
%TO.P,J50,4,Pin_4*%
%TO.N,/Inputs and Outputs/Offset A Pot*%
X97000000Y-70120000D03*
%TO.P,J50,5,Pin_5*%
%TO.N,/Inputs and Outputs/CV Amt A Pot*%
X97000000Y-72660000D03*
%TO.P,J50,6,Pin_6*%
%TO.N,/Inputs and Outputs/CV A Jack*%
X97000000Y-75200000D03*
%TO.P,J50,7,Pin_7*%
%TO.N,GND*%
X97000000Y-77740000D03*
%TO.P,J50,8,Pin_8*%
X97000000Y-80280000D03*
%TD*%
D21*
%TO.N,+12V*%
X58690000Y-125310000D02*
X54700000Y-129300000D01*
X54500000Y-96000000D02*
X54500000Y-93690000D01*
X54700000Y-129300000D02*
X54700000Y-142760000D01*
X54700000Y-142760000D02*
X58690000Y-146750000D01*
X54500000Y-93690000D02*
X58690000Y-89500000D01*
X58690000Y-118250000D02*
X58690000Y-125310000D01*
D22*
%TO.N,Net-(D3-A1)*%
X81060000Y-76500000D02*
X81060000Y-72810000D01*
X81060000Y-72810000D02*
X81000000Y-72750000D01*
%TO.N,Net-(D4-A1)*%
X81060000Y-81500000D02*
X81060000Y-79190000D01*
X81060000Y-79190000D02*
X87500000Y-72750000D01*
%TO.N,Net-(D5-A1)*%
X92810000Y-79000000D02*
X94000000Y-77810000D01*
X94000000Y-77810000D02*
X94000000Y-72750000D01*
%TO.N,Net-(R53-Pad1)*%
X66310000Y-89500000D02*
X66310000Y-86060000D01*
X66310000Y-86060000D02*
X65000000Y-84750000D01*
%TO.N,Net-(R54-Pad1)*%
X66310000Y-114810000D02*
X65000000Y-113500000D01*
X66310000Y-118250000D02*
X66310000Y-114810000D01*
%TO.N,/Inputs and Outputs/Output B Jack*%
X52948000Y-47466322D02*
X52948000Y-99528000D01*
X77717578Y-45199000D02*
X55215322Y-45199000D01*
X77413000Y-52000000D02*
X79114000Y-50299000D01*
X52948000Y-99528000D02*
X54500000Y-101080000D01*
X55215322Y-45199000D02*
X52948000Y-47466322D01*
X79114000Y-50299000D02*
X79114000Y-46595422D01*
X79114000Y-46595422D02*
X77717578Y-45199000D01*
%TO.N,Net-(R55-Pad1)*%
X66310000Y-146750000D02*
X66310000Y-143560000D01*
X66310000Y-143560000D02*
X65000000Y-142250000D01*
%TO.N,Net-(R56-Pad2)*%
X59190000Y-64500000D02*
X59190000Y-59803000D01*
X59190000Y-59803000D02*
X56087000Y-56700000D01*
%TO.N,Net-(R57-Pad2)*%
X75199000Y-50479100D02*
X75199000Y-74801000D01*
X73500000Y-76500000D02*
X73440000Y-76500000D01*
X73720900Y-49001000D02*
X75199000Y-50479100D01*
X56087000Y-47300000D02*
X57788000Y-49001000D01*
X57788000Y-49001000D02*
X73720900Y-49001000D01*
X75199000Y-74801000D02*
X73500000Y-76500000D01*
%TO.N,/Inputs and Outputs/Output C Jack*%
X91189000Y-57713050D02*
X90954100Y-57947950D01*
X91099000Y-73601000D02*
X91099000Y-73658100D01*
X91911000Y-65722900D02*
X91099000Y-66534900D01*
X91189000Y-54724000D02*
X91189000Y-57380850D01*
X91099000Y-73658100D02*
X90864100Y-73893000D01*
X94280000Y-138080000D02*
X97000000Y-138080000D01*
X90864100Y-73893000D02*
X90049000Y-74708100D01*
X91189000Y-57380850D02*
X91189000Y-57713050D01*
X90049000Y-133849000D02*
X94280000Y-138080000D01*
X93913000Y-52000000D02*
X91189000Y-54724000D01*
X90954100Y-57947950D02*
X90110000Y-58792050D01*
X91099000Y-66534900D02*
X91099000Y-66664100D01*
X90049000Y-74708100D02*
X90049000Y-133849000D01*
X91099000Y-66664100D02*
X91099000Y-73325900D01*
X91099000Y-73325900D02*
X91099000Y-73601000D01*
X91911000Y-63578100D02*
X91911000Y-65722900D01*
X90110000Y-58792050D02*
X90110000Y-61777100D01*
X90110000Y-61777100D02*
X91911000Y-63578100D01*
%TO.N,Net-(R58-Pad2)*%
X71190000Y-58097000D02*
X72587000Y-56700000D01*
X71190000Y-64500000D02*
X71190000Y-58097000D01*
%TO.N,Net-(R59-Pad2)*%
X75600000Y-50313000D02*
X75600000Y-79340000D01*
X72587000Y-47300000D02*
X75600000Y-50313000D01*
X75600000Y-79340000D02*
X73440000Y-81500000D01*
%TO.N,/Inputs and Outputs/CV C Jack*%
X91300000Y-145700000D02*
X97000000Y-145700000D01*
X88750000Y-160250000D02*
X88750000Y-148250000D01*
X88750000Y-148250000D02*
X91300000Y-145700000D01*
%TO.N,Net-(R60-Pad2)*%
X83190000Y-64500000D02*
X83190000Y-62597000D01*
X83190000Y-62597000D02*
X89087000Y-56700000D01*
%TO.N,Net-(R61-Pad2)*%
X89709000Y-58625950D02*
X90788000Y-57546950D01*
X90698000Y-66498000D02*
X89709000Y-65509000D01*
X89709000Y-65509000D02*
X89709000Y-58625950D01*
X90788000Y-49001000D02*
X89087000Y-47300000D01*
X90788000Y-57546950D02*
X90788000Y-49001000D01*
X85190000Y-79000000D02*
X90698000Y-73492000D01*
X90698000Y-73492000D02*
X90698000Y-66498000D01*
%TO.N,/Inputs and Outputs/Mute B Switch*%
X77413000Y-47300000D02*
X75713000Y-45600000D01*
X53349000Y-47632422D02*
X53349000Y-97389000D01*
X55381422Y-45600000D02*
X53349000Y-47632422D01*
X75713000Y-45600000D02*
X55381422Y-45600000D01*
X53349000Y-97389000D02*
X54500000Y-98540000D01*
%TO.N,/Inputs and Outputs/Offset B Pot*%
X54500000Y-103620000D02*
X58320000Y-103620000D01*
X62500000Y-107800000D02*
X62500000Y-113500000D01*
X58320000Y-103620000D02*
X62500000Y-107800000D01*
%TO.N,/Inputs and Outputs/Mute C Switch*%
X91500000Y-73159800D02*
X91500000Y-66830200D01*
X91500000Y-73700000D02*
X91500000Y-73492000D01*
X91590000Y-57546950D02*
X91590000Y-57214750D01*
X92312000Y-63412000D02*
X92077100Y-63177100D01*
X94800000Y-53900000D02*
X95900000Y-52800000D01*
X95900000Y-52800000D02*
X95900000Y-49287000D01*
X91030200Y-74294000D02*
X91265100Y-74059100D01*
X91355100Y-58114050D02*
X91590000Y-57879150D01*
X91265100Y-74059100D02*
X91500000Y-73824200D01*
X92077100Y-63177100D02*
X90511000Y-61611000D01*
X91500000Y-73492000D02*
X91500000Y-73434900D01*
X90511000Y-58958150D02*
X91120200Y-58348950D01*
X91590000Y-57214750D02*
X91590000Y-54890100D01*
X91500000Y-73767100D02*
X91500000Y-73700000D01*
X97000000Y-135540000D02*
X90450000Y-128990000D01*
X91120200Y-58348950D02*
X91355100Y-58114050D01*
X92600000Y-101900000D02*
X90450000Y-99750000D01*
X90450000Y-105850000D02*
X92600000Y-103700000D01*
X92312000Y-63744200D02*
X92312000Y-63412000D01*
X92600000Y-103700000D02*
X92600000Y-101900000D01*
X92312000Y-65889000D02*
X92312000Y-65556800D01*
X90511000Y-61611000D02*
X90511000Y-58958150D01*
X95900000Y-49287000D02*
X93913000Y-47300000D01*
X90450000Y-74874200D02*
X91030200Y-74294000D01*
X91500000Y-66830200D02*
X91500000Y-66701000D01*
X91500000Y-73434900D02*
X91500000Y-73159800D01*
X91500000Y-73824200D02*
X91500000Y-73767100D01*
X92580100Y-53900000D02*
X94800000Y-53900000D01*
X91500000Y-66701000D02*
X92077100Y-66123900D01*
X90450000Y-99750000D02*
X90450000Y-74874200D01*
X91590000Y-54890100D02*
X92580100Y-53900000D01*
X90450000Y-128990000D02*
X90450000Y-105850000D01*
X92312000Y-65556800D02*
X92312000Y-63744200D01*
X91590000Y-57879150D02*
X91590000Y-57546950D01*
X92077100Y-66123900D02*
X92312000Y-65889000D01*
%TO.N,/Inputs and Outputs/CV Amt C Pot*%
X97000000Y-143160000D02*
X90440000Y-143160000D01*
X86250000Y-147350000D02*
X86250000Y-160250000D01*
X90440000Y-143160000D02*
X86250000Y-147350000D01*
%TD*%
%TA.AperFunction,Conductor*%
%TO.N,GND*%
G36*
X54750000Y-113346988D02*
G01*
X54692993Y-113314075D01*
X54565826Y-113280000D01*
X54434174Y-113280000D01*
X54307007Y-113314075D01*
X54250000Y-113346988D01*
X54250000Y-111673012D01*
X54307007Y-111705925D01*
X54434174Y-111740000D01*
X54565826Y-111740000D01*
X54692993Y-111705925D01*
X54750000Y-111673012D01*
X54750000Y-113346988D01*
G37*
%TD.AperFunction*%
%TA.AperFunction,Conductor*%
G36*
X98442539Y-43020185D02*
G01*
X98488294Y-43072989D01*
X98499500Y-43124500D01*
X98499500Y-61309897D01*
X98479815Y-61376936D01*
X98427011Y-61422691D01*
X98357853Y-61432635D01*
X98294297Y-61403610D01*
X98276234Y-61384208D01*
X98207547Y-61292455D01*
X98207544Y-61292452D01*
X98092335Y-61206206D01*
X98092328Y-61206202D01*
X97957482Y-61155908D01*
X97957483Y-61155908D01*
X97897883Y-61149501D01*
X97897881Y-61149500D01*
X97897873Y-61149500D01*
X97897864Y-61149500D01*
X96102129Y-61149500D01*
X96102123Y-61149501D01*
X96042516Y-61155908D01*
X95907671Y-61206202D01*
X95907664Y-61206206D01*
X95792455Y-61292452D01*
X95792452Y-61292455D01*
X95706206Y-61407664D01*
X95706202Y-61407671D01*
X95655908Y-61542517D01*
X95649501Y-61602116D01*
X95649500Y-61602135D01*
X95649500Y-63397870D01*
X95649501Y-63397876D01*
X95655908Y-63457483D01*
X95706202Y-63592328D01*
X95706206Y-63592335D01*
X95792452Y-63707544D01*
X95792455Y-63707547D01*
X95907664Y-63793793D01*
X95907671Y-63793797D01*
X96039082Y-63842810D01*
X96095016Y-63884681D01*
X96119433Y-63950145D01*
X96104582Y-64018418D01*
X96083431Y-64046673D01*
X95969889Y-64160215D01*
X95844951Y-64332179D01*
X95748444Y-64521585D01*
X95682753Y-64723760D01*
X95649500Y-64933713D01*
X95649500Y-65146286D01*
X95681324Y-65347219D01*
X95682754Y-65356243D01*
X95734075Y-65514193D01*
X95748444Y-65558414D01*
X95844951Y-65747820D01*
X95969890Y-65919786D01*
X96120213Y-66070109D01*
X96292182Y-66195050D01*
X96300946Y-66199516D01*
X96351742Y-66247491D01*
X96368536Y-66315312D01*
X96345998Y-66381447D01*
X96300946Y-66420484D01*
X96292182Y-66424949D01*
X96120213Y-66549890D01*
X95969890Y-66700213D01*
X95844951Y-66872179D01*
X95748444Y-67061585D01*
X95682753Y-67263760D01*
X95649500Y-67473713D01*
X95649500Y-67686286D01*
X95672944Y-67834310D01*
X95682754Y-67896243D01*
X95734075Y-68054193D01*
X95748444Y-68098414D01*
X95844951Y-68287820D01*
X95969890Y-68459786D01*
X96120213Y-68610109D01*
X96292182Y-68735050D01*
X96300946Y-68739516D01*
X96351742Y-68787491D01*
X96368536Y-68855312D01*
X96345998Y-68921447D01*
X96300946Y-68960484D01*
X96292182Y-68964949D01*
X96120213Y-69089890D01*
X95969890Y-69240213D01*
X95844951Y-69412179D01*
X95748444Y-69601585D01*
X95682753Y-69803760D01*
X95649500Y-70013713D01*
X95649500Y-70226286D01*
X95675415Y-70389910D01*
X95682754Y-70436243D01*
X95734075Y-70594193D01*
X95748444Y-70638414D01*
X95844951Y-70827820D01*
X95969890Y-70999786D01*
X96120213Y-71150109D01*
X96292182Y-71275050D01*
X96300946Y-71279516D01*
X96351742Y-71327491D01*
X96368536Y-71395312D01*
X96345998Y-71461447D01*
X96300946Y-71500484D01*
X96292182Y-71504949D01*
X96120213Y-71629890D01*
X95969890Y-71780213D01*
X95844951Y-71952179D01*
X95748444Y-72141585D01*
X95682753Y-72343760D01*
X95649500Y-72553713D01*
X95649500Y-72766287D01*
X95682754Y-72976243D01*
X95734075Y-73134193D01*
X95748444Y-73178414D01*
X95844951Y-73367820D01*
X95969890Y-73539786D01*
X96120213Y-73690109D01*
X96292182Y-73815050D01*
X96300946Y-73819516D01*
X96351742Y-73867491D01*
X96368536Y-73935312D01*
X96345998Y-74001447D01*
X96300946Y-74040484D01*
X96292182Y-74044949D01*
X96120213Y-74169890D01*
X95969890Y-74320213D01*
X95844951Y-74492179D01*
X95748444Y-74681585D01*
X95682753Y-74883760D01*
X95649500Y-75093713D01*
X95649500Y-75306286D01*
X95681453Y-75508034D01*
X95682754Y-75516243D01*
X95734075Y-75674193D01*
X95748444Y-75718414D01*
X95844951Y-75907820D01*
X95969890Y-76079786D01*
X96120213Y-76230109D01*
X96292179Y-76355048D01*
X96292181Y-76355049D01*
X96292184Y-76355051D01*
X96301493Y-76359794D01*
X96352290Y-76407766D01*
X96369087Y-76475587D01*
X96346552Y-76541722D01*
X96301502Y-76580762D01*
X96292443Y-76585378D01*
X96120540Y-76710272D01*
X96120535Y-76710276D01*
X95970276Y-76860535D01*
X95970272Y-76860540D01*
X95845379Y-77032442D01*
X95748904Y-77221782D01*
X95683242Y-77423870D01*
X95683242Y-77423873D01*
X95672769Y-77490000D01*
X96566988Y-77490000D01*
X96534075Y-77547007D01*
X96500000Y-77674174D01*
X96500000Y-77805826D01*
X96534075Y-77932993D01*
X96566988Y-77990000D01*
X95672769Y-77990000D01*
X95683242Y-78056126D01*
X95683242Y-78056129D01*
X95748904Y-78258217D01*
X95845379Y-78447557D01*
X95970272Y-78619459D01*
X95970276Y-78619464D01*
X96120535Y-78769723D01*
X96120540Y-78769727D01*
X96292444Y-78894622D01*
X96302048Y-78899516D01*
X96352844Y-78947491D01*
X96369638Y-79015312D01*
X96347100Y-79081447D01*
X96302048Y-79120484D01*
X96292444Y-79125377D01*
X96120540Y-79250272D01*
X96120535Y-79250276D01*
X95970276Y-79400535D01*
X95970272Y-79400540D01*
X95845379Y-79572442D01*
X95748904Y-79761782D01*
X95683242Y-79963870D01*
X95683242Y-79963873D01*
X95672769Y-80030000D01*
X96566988Y-80030000D01*
X96534075Y-80087007D01*
X96500000Y-80214174D01*
X96500000Y-80345826D01*
X96534075Y-80472993D01*
X96566988Y-80530000D01*
X95672769Y-80530000D01*
X95683242Y-80596126D01*
X95683242Y-80596129D01*
X95748904Y-80798217D01*
X95845379Y-80987557D01*
X95970272Y-81159459D01*
X95970276Y-81159464D01*
X96120535Y-81309723D01*
X96120540Y-81309727D01*
X96292442Y-81434620D01*
X96481782Y-81531095D01*
X96683871Y-81596757D01*
X96750000Y-81607231D01*
X96750000Y-80713012D01*
X96807007Y-80745925D01*
X96934174Y-80780000D01*
X97065826Y-80780000D01*
X97192993Y-80745925D01*
X97250000Y-80713012D01*
X97250000Y-81607230D01*
X97316126Y-81596757D01*
X97316129Y-81596757D01*
X97518217Y-81531095D01*
X97707557Y-81434620D01*
X97879459Y-81309727D01*
X97879464Y-81309723D01*
X98029723Y-81159464D01*
X98029727Y-81159459D01*
X98154620Y-80987557D01*
X98251093Y-80798221D01*
X98257568Y-80778294D01*
X98297005Y-80720618D01*
X98361363Y-80693419D01*
X98430210Y-80705333D01*
X98481686Y-80752576D01*
X98499500Y-80816611D01*
X98499500Y-98810730D01*
X98479815Y-98877769D01*
X98427011Y-98923524D01*
X98357853Y-98933468D01*
X98294297Y-98904443D01*
X98276234Y-98885042D01*
X98207187Y-98792809D01*
X98092093Y-98706649D01*
X98092086Y-98706645D01*
X97957379Y-98656403D01*
X97957372Y-98656401D01*
X97897844Y-98650000D01*
X97250000Y-98650000D01*
X97250000Y-99566988D01*
X97192993Y-99534075D01*
X97065826Y-99500000D01*
X96934174Y-99500000D01*
X96807007Y-99534075D01*
X96750000Y-99566988D01*
X96750000Y-98650000D01*
X96102155Y-98650000D01*
X96042627Y-98656401D01*
X96042620Y-98656403D01*
X95907913Y-98706645D01*
X95907906Y-98706649D01*
X95792812Y-98792809D01*
X95792809Y-98792812D01*
X95706649Y-98907906D01*
X95706645Y-98907913D01*
X95656403Y-99042620D01*
X95656401Y-99042627D01*
X95650000Y-99102155D01*
X95650000Y-99750000D01*
X96566988Y-99750000D01*
X96534075Y-99807007D01*
X96500000Y-99934174D01*
X96500000Y-100065826D01*
X96534075Y-100192993D01*
X96566988Y-100250000D01*
X95650000Y-100250000D01*
X95650000Y-100897844D01*
X95656401Y-100957372D01*
X95656403Y-100957379D01*
X95706645Y-101092086D01*
X95706649Y-101092093D01*
X95792809Y-101207187D01*
X95792812Y-101207190D01*
X95907906Y-101293350D01*
X95907913Y-101293354D01*
X96042620Y-101343596D01*
X96042627Y-101343598D01*
X96102155Y-101349999D01*
X96102172Y-101350000D01*
X96750000Y-101350000D01*
X96750000Y-100433012D01*
X96807007Y-100465925D01*
X96934174Y-100500000D01*
X97065826Y-100500000D01*
X97192993Y-100465925D01*
X97250000Y-100433012D01*
X97250000Y-101350000D01*
X97897828Y-101350000D01*
X97897844Y-101349999D01*
X97957372Y-101343598D01*
X97957379Y-101343596D01*
X98092086Y-101293354D01*
X98092093Y-101293350D01*
X98207187Y-101207190D01*
X98207190Y-101207187D01*
X98276234Y-101114958D01*
X98332168Y-101073087D01*
X98401859Y-101068103D01*
X98463182Y-101101589D01*
X98496666Y-101162912D01*
X98499500Y-101189269D01*
X98499500Y-131809897D01*
X98479815Y-131876936D01*
X98427011Y-131922691D01*
X98357853Y-131932635D01*
X98294297Y-131903610D01*
X98276234Y-131884208D01*
X98207547Y-131792455D01*
X98207544Y-131792452D01*
X98092335Y-131706206D01*
X98092328Y-131706202D01*
X97957482Y-131655908D01*
X97957483Y-131655908D01*
X97897883Y-131649501D01*
X97897881Y-131649500D01*
X97897873Y-131649500D01*
X97897864Y-131649500D01*
X96102129Y-131649500D01*
X96102123Y-131649501D01*
X96042516Y-131655908D01*
X95907671Y-131706202D01*
X95907664Y-131706206D01*
X95792455Y-131792452D01*
X95792452Y-131792455D01*
X95706206Y-131907664D01*
X95706202Y-131907671D01*
X95655908Y-132042517D01*
X95649501Y-132102116D01*
X95649500Y-132102135D01*
X95649500Y-133040903D01*
X95629815Y-133107942D01*
X95577011Y-133153697D01*
X95507853Y-133163641D01*
X95444297Y-133134616D01*
X95437819Y-133128584D01*
X91086819Y-128777584D01*
X91053334Y-128716261D01*
X91050500Y-128689903D01*
X91050500Y-122144078D01*
X91070185Y-122077039D01*
X91122989Y-122031284D01*
X91192147Y-122021340D01*
X91255703Y-122050365D01*
X91271443Y-122066761D01*
X91432584Y-122268825D01*
X91631175Y-122467416D01*
X91850752Y-122642523D01*
X92088555Y-122791945D01*
X92341592Y-122913801D01*
X92540680Y-122983465D01*
X92606670Y-123006556D01*
X92606682Y-123006560D01*
X92880491Y-123069055D01*
X92880497Y-123069055D01*
X92880505Y-123069057D01*
X93066547Y-123090018D01*
X93159569Y-123100499D01*
X93159572Y-123100500D01*
X93159575Y-123100500D01*
X93440428Y-123100500D01*
X93440429Y-123100499D01*
X93583055Y-123084429D01*
X93719494Y-123069057D01*
X93719499Y-123069056D01*
X93719509Y-123069055D01*
X93993318Y-123006560D01*
X94258408Y-122913801D01*
X94511445Y-122791945D01*
X94749248Y-122642523D01*
X94968825Y-122467416D01*
X95167416Y-122268825D01*
X95342523Y-122049248D01*
X95491945Y-121811445D01*
X95613801Y-121558408D01*
X95706560Y-121293318D01*
X95769055Y-121019509D01*
X95800500Y-120740425D01*
X95800500Y-120259575D01*
X95769055Y-119980491D01*
X95706560Y-119706682D01*
X95613801Y-119441592D01*
X95491945Y-119188555D01*
X95342523Y-118950752D01*
X95167416Y-118731175D01*
X94968825Y-118532584D01*
X94749248Y-118357477D01*
X94511445Y-118208055D01*
X94511442Y-118208053D01*
X94258411Y-118086200D01*
X93993329Y-117993443D01*
X93993317Y-117993439D01*
X93719512Y-117930945D01*
X93719494Y-117930942D01*
X93440431Y-117899500D01*
X93440425Y-117899500D01*
X93159575Y-117899500D01*
X93159568Y-117899500D01*
X92880505Y-117930942D01*
X92880487Y-117930945D01*
X92606682Y-117993439D01*
X92606670Y-117993443D01*
X92341588Y-118086200D01*
X92088557Y-118208053D01*
X91850753Y-118357476D01*
X91631175Y-118532583D01*
X91432583Y-118731175D01*
X91271447Y-118933234D01*
X91214259Y-118973374D01*
X91144447Y-118976224D01*
X91084177Y-118940879D01*
X91052584Y-118878560D01*
X91050500Y-118855921D01*
X91050500Y-106150096D01*
X91070185Y-106083057D01*
X91086814Y-106062420D01*
X92958506Y-104190727D01*
X92958511Y-104190724D01*
X92968714Y-104180520D01*
X92968716Y-104180520D01*
X93080520Y-104068716D01*
X93157003Y-103936243D01*
X93159577Y-103931785D01*
X93200500Y-103779057D01*
X93200500Y-103620943D01*
X93200500Y-101820943D01*
X93168947Y-101703185D01*
X93163206Y-101681757D01*
X93163206Y-101681756D01*
X93159577Y-101668216D01*
X93159577Y-101668215D01*
X93154161Y-101658834D01*
X93119276Y-101598412D01*
X93080520Y-101531284D01*
X92968716Y-101419480D01*
X92968715Y-101419479D01*
X92964385Y-101415149D01*
X92964374Y-101415139D01*
X91086819Y-99537584D01*
X91053334Y-99476261D01*
X91050500Y-99449903D01*
X91050500Y-93394078D01*
X91070185Y-93327039D01*
X91122989Y-93281284D01*
X91192147Y-93271340D01*
X91255703Y-93300365D01*
X91271443Y-93316761D01*
X91432584Y-93518825D01*
X91631175Y-93717416D01*
X91850752Y-93892523D01*
X92088555Y-94041945D01*
X92088557Y-94041946D01*
X92172900Y-94082563D01*
X92341592Y-94163801D01*
X92540680Y-94233465D01*
X92606670Y-94256556D01*
X92606682Y-94256560D01*
X92880491Y-94319055D01*
X92880497Y-94319055D01*
X92880505Y-94319057D01*
X93066547Y-94340018D01*
X93159569Y-94350499D01*
X93159572Y-94350500D01*
X93159575Y-94350500D01*
X93440428Y-94350500D01*
X93440429Y-94350499D01*
X93583055Y-94334429D01*
X93719494Y-94319057D01*
X93719499Y-94319056D01*
X93719509Y-94319055D01*
X93993318Y-94256560D01*
X94258408Y-94163801D01*
X94511445Y-94041945D01*
X94749248Y-93892523D01*
X94968825Y-93717416D01*
X95167416Y-93518825D01*
X95342523Y-93299248D01*
X95491945Y-93061445D01*
X95613801Y-92808408D01*
X95706560Y-92543318D01*
X95769055Y-92269509D01*
X95800500Y-91990425D01*
X95800500Y-91509575D01*
X95769055Y-91230491D01*
X95706560Y-90956682D01*
X95613801Y-90691592D01*
X95491945Y-90438555D01*
X95342523Y-90200752D01*
X95167416Y-89981175D01*
X94968825Y-89782584D01*
X94749248Y-89607477D01*
X94511445Y-89458055D01*
X94511442Y-89458053D01*
X94258411Y-89336200D01*
X93993329Y-89243443D01*
X93993317Y-89243439D01*
X93719512Y-89180945D01*
X93719494Y-89180942D01*
X93440431Y-89149500D01*
X93440425Y-89149500D01*
X93159575Y-89149500D01*
X93159568Y-89149500D01*
X92880505Y-89180942D01*
X92880487Y-89180945D01*
X92606682Y-89243439D01*
X92606670Y-89243443D01*
X92341588Y-89336200D01*
X92088557Y-89458053D01*
X91850753Y-89607476D01*
X91631175Y-89782583D01*
X91432583Y-89981175D01*
X91271447Y-90183234D01*
X91214259Y-90223374D01*
X91144447Y-90226224D01*
X91084177Y-90190879D01*
X91052584Y-90128560D01*
X91050500Y-90105921D01*
X91050500Y-78897646D01*
X91509500Y-78897646D01*
X91509500Y-79102351D01*
X91541522Y-79304534D01*
X91604781Y-79499223D01*
X91697715Y-79681613D01*
X91818028Y-79847213D01*
X91962786Y-79991971D01*
X92117749Y-80104556D01*
X92128390Y-80112287D01*
X92244607Y-80171503D01*
X92310776Y-80205218D01*
X92310778Y-80205218D01*
X92310781Y-80205220D01*
X92406045Y-80236173D01*
X92505465Y-80268477D01*
X92606557Y-80284488D01*
X92707648Y-80300500D01*
X92707649Y-80300500D01*
X92912351Y-80300500D01*
X92912352Y-80300500D01*
X93114534Y-80268477D01*
X93309219Y-80205220D01*
X93491610Y-80112287D01*
X93584590Y-80044732D01*
X93657213Y-79991971D01*
X93657215Y-79991968D01*
X93657219Y-79991966D01*
X93801966Y-79847219D01*
X93801968Y-79847215D01*
X93801971Y-79847213D01*
X93902593Y-79708716D01*
X93922287Y-79681610D01*
X94015220Y-79499219D01*
X94078477Y-79304534D01*
X94110500Y-79102352D01*
X94110500Y-78897648D01*
X94110020Y-78894620D01*
X94078478Y-78695472D01*
X94078477Y-78695471D01*
X94078477Y-78695466D01*
X94073825Y-78681151D01*
X94071832Y-78611312D01*
X94104075Y-78555158D01*
X94368713Y-78290521D01*
X94368716Y-78290520D01*
X94480520Y-78178716D01*
X94530639Y-78091904D01*
X94559577Y-78041785D01*
X94600500Y-77889057D01*
X94600500Y-77730943D01*
X94600500Y-74074499D01*
X94620185Y-74007460D01*
X94672989Y-73961705D01*
X94724500Y-73950499D01*
X94947871Y-73950499D01*
X94947872Y-73950499D01*
X95007483Y-73944091D01*
X95142331Y-73893796D01*
X95257546Y-73807546D01*
X95343796Y-73692331D01*
X95394091Y-73557483D01*
X95400500Y-73497873D01*
X95400499Y-72002128D01*
X95394091Y-71942517D01*
X95343796Y-71807669D01*
X95343795Y-71807668D01*
X95343793Y-71807664D01*
X95257547Y-71692455D01*
X95187647Y-71640127D01*
X95145777Y-71584193D01*
X95140793Y-71514501D01*
X95161641Y-71467975D01*
X95226331Y-71378937D01*
X95312085Y-71210637D01*
X95370451Y-71031002D01*
X95375362Y-71000000D01*
X94375278Y-71000000D01*
X94419333Y-70923694D01*
X94450000Y-70809244D01*
X94450000Y-70690756D01*
X94419333Y-70576306D01*
X94375278Y-70500000D01*
X95375362Y-70500000D01*
X95370451Y-70468997D01*
X95312085Y-70289362D01*
X95226329Y-70121059D01*
X95115314Y-69968258D01*
X95115310Y-69968253D01*
X94985091Y-69838034D01*
X94951606Y-69776711D01*
X94956590Y-69707019D01*
X94985091Y-69662672D01*
X95046181Y-69601582D01*
X95115690Y-69532073D01*
X95226760Y-69379199D01*
X95312547Y-69210832D01*
X95370940Y-69031118D01*
X95388310Y-68921447D01*
X95400500Y-68844486D01*
X95400500Y-68655513D01*
X95370940Y-68468881D01*
X95312545Y-68289163D01*
X95226759Y-68120800D01*
X95224889Y-68118226D01*
X95115690Y-67967927D01*
X94982073Y-67834310D01*
X94829199Y-67723240D01*
X94660836Y-67637454D01*
X94481118Y-67579059D01*
X94294486Y-67549500D01*
X94294481Y-67549500D01*
X93705519Y-67549500D01*
X93705514Y-67549500D01*
X93518881Y-67579059D01*
X93339163Y-67637454D01*
X93170800Y-67723240D01*
X93083579Y-67786610D01*
X93017927Y-67834310D01*
X93017925Y-67834312D01*
X93017924Y-67834312D01*
X92884312Y-67967924D01*
X92884312Y-67967925D01*
X92884310Y-67967927D01*
X92864616Y-67995034D01*
X92773240Y-68120800D01*
X92687454Y-68289163D01*
X92629059Y-68468881D01*
X92599500Y-68655513D01*
X92599500Y-68844486D01*
X92629059Y-69031118D01*
X92687454Y-69210836D01*
X92773240Y-69379199D01*
X92884310Y-69532073D01*
X92884312Y-69532075D01*
X93014909Y-69662672D01*
X93048394Y-69723995D01*
X93043410Y-69793687D01*
X93014909Y-69838034D01*
X92884689Y-69968253D01*
X92884685Y-69968258D01*
X92773670Y-70121059D01*
X92687914Y-70289362D01*
X92629548Y-70468997D01*
X92624638Y-70500000D01*
X93624722Y-70500000D01*
X93580667Y-70576306D01*
X93550000Y-70690756D01*
X93550000Y-70809244D01*
X93580667Y-70923694D01*
X93624722Y-71000000D01*
X92624638Y-71000000D01*
X92629548Y-71031002D01*
X92687914Y-71210637D01*
X92773670Y-71378940D01*
X92838358Y-71467977D01*
X92861838Y-71533784D01*
X92846012Y-71601837D01*
X92812352Y-71640128D01*
X92742452Y-71692455D01*
X92656206Y-71807664D01*
X92656202Y-71807671D01*
X92605908Y-71942517D01*
X92599501Y-72002116D01*
X92599501Y-72002123D01*
X92599500Y-72002135D01*
X92599500Y-73497870D01*
X92599501Y-73497876D01*
X92605908Y-73557483D01*
X92656202Y-73692328D01*
X92656206Y-73692335D01*
X92742452Y-73807544D01*
X92742455Y-73807547D01*
X92857664Y-73893793D01*
X92857671Y-73893797D01*
X92883030Y-73903255D01*
X92992517Y-73944091D01*
X93052127Y-73950500D01*
X93275500Y-73950499D01*
X93342539Y-73970183D01*
X93388294Y-74022987D01*
X93399500Y-74074499D01*
X93399500Y-77509902D01*
X93390855Y-77539342D01*
X93384332Y-77569329D01*
X93380577Y-77574344D01*
X93379815Y-77576941D01*
X93363181Y-77597583D01*
X93254842Y-77705922D01*
X93193519Y-77739407D01*
X93128843Y-77736172D01*
X93114534Y-77731523D01*
X93110872Y-77730943D01*
X92912352Y-77699500D01*
X92707648Y-77699500D01*
X92683329Y-77703351D01*
X92505465Y-77731522D01*
X92310776Y-77794781D01*
X92128386Y-77887715D01*
X91962786Y-78008028D01*
X91818028Y-78152786D01*
X91697715Y-78318386D01*
X91604781Y-78500776D01*
X91541522Y-78695465D01*
X91509500Y-78897646D01*
X91050500Y-78897646D01*
X91050500Y-75174297D01*
X91070185Y-75107258D01*
X91086819Y-75086616D01*
X91510720Y-74662716D01*
X91510720Y-74662715D01*
X91528148Y-74645287D01*
X91528153Y-74645280D01*
X91745620Y-74427816D01*
X91745620Y-74427814D01*
X91763058Y-74410377D01*
X91763059Y-74410374D01*
X91980520Y-74192916D01*
X92059577Y-74055984D01*
X92100501Y-73903257D01*
X92100501Y-73745142D01*
X92100501Y-73737547D01*
X92100500Y-73737529D01*
X92100500Y-67001097D01*
X92120185Y-66934058D01*
X92136819Y-66913416D01*
X92303500Y-66746735D01*
X92557620Y-66492616D01*
X92557620Y-66492615D01*
X92575048Y-66475187D01*
X92575053Y-66475180D01*
X92792520Y-66257716D01*
X92871577Y-66120784D01*
X92912501Y-65968057D01*
X92912501Y-65809942D01*
X92912501Y-65802347D01*
X92912500Y-65802329D01*
X92912500Y-63501060D01*
X92912501Y-63501047D01*
X92912501Y-63332944D01*
X92912490Y-63332903D01*
X92871577Y-63180216D01*
X92871573Y-63180209D01*
X92792524Y-63043290D01*
X92792518Y-63043282D01*
X92445816Y-62696581D01*
X91147819Y-61398584D01*
X91114334Y-61337261D01*
X91111500Y-61310903D01*
X91111500Y-59258247D01*
X91131185Y-59191208D01*
X91147819Y-59170566D01*
X91659299Y-58659086D01*
X91659300Y-58659083D01*
X91835620Y-58482766D01*
X91835620Y-58482764D01*
X91853058Y-58465327D01*
X91853059Y-58465324D01*
X92070520Y-58247866D01*
X92149577Y-58110934D01*
X92190501Y-57958207D01*
X92190501Y-57942401D01*
X92210186Y-57875362D01*
X92262990Y-57829607D01*
X92332148Y-57819663D01*
X92395704Y-57848688D01*
X92412875Y-57866913D01*
X92437215Y-57898633D01*
X92481060Y-57955774D01*
X92481066Y-57955781D01*
X92657218Y-58131933D01*
X92657225Y-58131939D01*
X92854873Y-58283599D01*
X93070623Y-58408162D01*
X93070638Y-58408169D01*
X93131552Y-58433400D01*
X93300793Y-58503502D01*
X93541435Y-58567982D01*
X93788435Y-58600500D01*
X93788442Y-58600500D01*
X94037558Y-58600500D01*
X94037565Y-58600500D01*
X94284565Y-58567982D01*
X94525207Y-58503502D01*
X94755373Y-58408164D01*
X94971127Y-58283599D01*
X95168776Y-58131938D01*
X95344938Y-57955776D01*
X95496599Y-57758127D01*
X95621164Y-57542373D01*
X95716502Y-57312207D01*
X95780982Y-57071565D01*
X95813500Y-56824565D01*
X95813500Y-56575435D01*
X95780982Y-56328435D01*
X95716502Y-56087793D01*
X95621164Y-55857627D01*
X95496599Y-55641873D01*
X95344938Y-55444224D01*
X95344933Y-55444218D01*
X95168781Y-55268066D01*
X95168774Y-55268060D01*
X94971126Y-55116400D01*
X94755376Y-54991837D01*
X94755361Y-54991830D01*
X94525207Y-54896498D01*
X94284561Y-54832017D01*
X94037575Y-54799501D01*
X94037570Y-54799500D01*
X94037565Y-54799500D01*
X93788435Y-54799500D01*
X93788429Y-54799500D01*
X93788424Y-54799501D01*
X93541438Y-54832017D01*
X93300792Y-54896498D01*
X93070638Y-54991830D01*
X93070623Y-54991837D01*
X92854873Y-55116400D01*
X92657225Y-55268060D01*
X92657218Y-55268066D01*
X92481066Y-55444218D01*
X92481060Y-55444225D01*
X92412876Y-55533085D01*
X92356448Y-55574288D01*
X92286702Y-55578443D01*
X92225782Y-55544231D01*
X92193029Y-55482513D01*
X92190500Y-55457599D01*
X92190500Y-55190197D01*
X92210185Y-55123158D01*
X92226819Y-55102516D01*
X92792516Y-54536819D01*
X92853839Y-54503334D01*
X92880197Y-54500500D01*
X94713331Y-54500500D01*
X94713347Y-54500501D01*
X94720943Y-54500501D01*
X94879054Y-54500501D01*
X94879057Y-54500501D01*
X95031785Y-54459577D01*
X95081904Y-54430639D01*
X95168716Y-54380520D01*
X95280520Y-54268716D01*
X95280520Y-54268714D01*
X95290728Y-54258507D01*
X95290730Y-54258504D01*
X96258506Y-53290728D01*
X96258511Y-53290724D01*
X96268714Y-53280520D01*
X96268716Y-53280520D01*
X96380520Y-53168716D01*
X96444368Y-53058127D01*
X96459577Y-53031785D01*
X96500501Y-52879057D01*
X96500501Y-52720943D01*
X96500501Y-52713348D01*
X96500500Y-52713330D01*
X96500500Y-49207945D01*
X96500500Y-49207943D01*
X96459577Y-49055216D01*
X96451225Y-49040750D01*
X96380524Y-48918290D01*
X96380521Y-48918286D01*
X96380520Y-48918284D01*
X96268716Y-48806480D01*
X96268715Y-48806479D01*
X96264385Y-48802149D01*
X96264374Y-48802139D01*
X95674901Y-48212666D01*
X95641416Y-48151343D01*
X95646400Y-48081651D01*
X95648000Y-48077583D01*
X95716502Y-47912207D01*
X95780982Y-47671565D01*
X95813500Y-47424565D01*
X95813500Y-47175435D01*
X95780982Y-46928435D01*
X95716502Y-46687793D01*
X95648021Y-46522466D01*
X95621169Y-46457638D01*
X95621162Y-46457623D01*
X95496599Y-46241873D01*
X95344939Y-46044225D01*
X95344933Y-46044218D01*
X95168781Y-45868066D01*
X95168774Y-45868060D01*
X94971126Y-45716400D01*
X94755376Y-45591837D01*
X94755361Y-45591830D01*
X94525207Y-45496498D01*
X94284561Y-45432017D01*
X94037575Y-45399501D01*
X94037570Y-45399500D01*
X94037565Y-45399500D01*
X93788435Y-45399500D01*
X93788429Y-45399500D01*
X93788424Y-45399501D01*
X93541438Y-45432017D01*
X93300792Y-45496498D01*
X93070638Y-45591830D01*
X93070623Y-45591837D01*
X92854873Y-45716400D01*
X92657225Y-45868060D01*
X92657218Y-45868066D01*
X92481066Y-46044218D01*
X92481060Y-46044225D01*
X92329400Y-46241873D01*
X92204837Y-46457623D01*
X92204830Y-46457638D01*
X92109498Y-46687792D01*
X92045017Y-46928438D01*
X92012501Y-47175424D01*
X92012500Y-47175435D01*
X92012500Y-47424558D01*
X92012501Y-47424575D01*
X92045017Y-47671561D01*
X92109498Y-47912207D01*
X92204830Y-48142361D01*
X92204837Y-48142376D01*
X92329400Y-48358126D01*
X92481060Y-48555774D01*
X92481066Y-48555781D01*
X92657218Y-48731933D01*
X92657225Y-48731939D01*
X92854873Y-48883599D01*
X93070623Y-49008162D01*
X93070638Y-49008169D01*
X93135465Y-49035021D01*
X93300793Y-49103502D01*
X93541435Y-49167982D01*
X93788435Y-49200500D01*
X93788442Y-49200500D01*
X94037558Y-49200500D01*
X94037565Y-49200500D01*
X94284565Y-49167982D01*
X94525207Y-49103502D01*
X94690535Y-49035020D01*
X94760001Y-49027552D01*
X94822481Y-49058827D01*
X94825666Y-49061901D01*
X95263181Y-49499416D01*
X95296666Y-49560739D01*
X95299500Y-49587097D01*
X95299500Y-50416922D01*
X95279815Y-50483961D01*
X95227011Y-50529716D01*
X95157853Y-50539660D01*
X95100014Y-50515298D01*
X94971126Y-50416400D01*
X94755376Y-50291837D01*
X94755361Y-50291830D01*
X94525207Y-50196498D01*
X94284561Y-50132017D01*
X94037575Y-50099501D01*
X94037570Y-50099500D01*
X94037565Y-50099500D01*
X93788435Y-50099500D01*
X93788429Y-50099500D01*
X93788424Y-50099501D01*
X93541438Y-50132017D01*
X93300792Y-50196498D01*
X93070638Y-50291830D01*
X93070623Y-50291837D01*
X92854873Y-50416400D01*
X92657225Y-50568060D01*
X92657218Y-50568066D01*
X92481066Y-50744218D01*
X92481060Y-50744225D01*
X92329400Y-50941873D01*
X92204837Y-51157623D01*
X92204830Y-51157638D01*
X92109498Y-51387792D01*
X92045017Y-51628438D01*
X92012501Y-51875424D01*
X92012500Y-51875441D01*
X92012500Y-52124558D01*
X92012501Y-52124575D01*
X92045017Y-52371561D01*
X92109498Y-52612207D01*
X92177977Y-52777532D01*
X92185446Y-52847001D01*
X92154170Y-52909480D01*
X92151097Y-52912665D01*
X91600181Y-53463582D01*
X91538858Y-53497067D01*
X91469167Y-53492083D01*
X91413233Y-53450212D01*
X91388816Y-53384747D01*
X91388500Y-53375901D01*
X91388500Y-48921945D01*
X91388500Y-48921943D01*
X91347577Y-48769216D01*
X91347577Y-48769215D01*
X91287994Y-48666015D01*
X91268520Y-48632284D01*
X91156716Y-48520480D01*
X91156713Y-48520478D01*
X90848901Y-48212666D01*
X90815416Y-48151343D01*
X90820400Y-48081651D01*
X90822000Y-48077583D01*
X90890502Y-47912207D01*
X90954982Y-47671565D01*
X90987500Y-47424565D01*
X90987500Y-47175435D01*
X90954982Y-46928435D01*
X90890502Y-46687793D01*
X90822021Y-46522466D01*
X90795169Y-46457638D01*
X90795162Y-46457623D01*
X90670599Y-46241873D01*
X90518939Y-46044225D01*
X90518933Y-46044218D01*
X90342781Y-45868066D01*
X90342774Y-45868060D01*
X90145126Y-45716400D01*
X89929376Y-45591837D01*
X89929361Y-45591830D01*
X89699207Y-45496498D01*
X89458561Y-45432017D01*
X89211575Y-45399501D01*
X89211570Y-45399500D01*
X89211565Y-45399500D01*
X88962435Y-45399500D01*
X88962429Y-45399500D01*
X88962424Y-45399501D01*
X88715438Y-45432017D01*
X88474792Y-45496498D01*
X88244638Y-45591830D01*
X88244623Y-45591837D01*
X88028873Y-45716400D01*
X87831225Y-45868060D01*
X87831218Y-45868066D01*
X87655066Y-46044218D01*
X87655060Y-46044225D01*
X87503400Y-46241873D01*
X87378837Y-46457623D01*
X87378830Y-46457638D01*
X87283498Y-46687792D01*
X87219017Y-46928438D01*
X87186501Y-47175424D01*
X87186500Y-47175435D01*
X87186500Y-47424558D01*
X87186501Y-47424575D01*
X87219017Y-47671561D01*
X87283498Y-47912207D01*
X87378830Y-48142361D01*
X87378837Y-48142376D01*
X87503400Y-48358126D01*
X87655060Y-48555774D01*
X87655066Y-48555781D01*
X87831218Y-48731933D01*
X87831225Y-48731939D01*
X88028873Y-48883599D01*
X88244623Y-49008162D01*
X88244638Y-49008169D01*
X88309465Y-49035021D01*
X88474793Y-49103502D01*
X88715435Y-49167982D01*
X88962435Y-49200500D01*
X88962442Y-49200500D01*
X89211558Y-49200500D01*
X89211565Y-49200500D01*
X89458565Y-49167982D01*
X89699207Y-49103502D01*
X89864535Y-49035020D01*
X89884409Y-49032883D01*
X89903139Y-49025898D01*
X89918435Y-49029225D01*
X89934001Y-49027552D01*
X89951878Y-49036500D01*
X89971412Y-49040750D01*
X89993700Y-49057435D01*
X89996481Y-49058827D01*
X89999666Y-49061901D01*
X90151181Y-49213416D01*
X90184666Y-49274739D01*
X90187500Y-49301097D01*
X90187500Y-50226091D01*
X90167815Y-50293130D01*
X90115011Y-50338885D01*
X90045853Y-50348829D01*
X90001501Y-50333478D01*
X89929383Y-50291841D01*
X89929361Y-50291830D01*
X89699207Y-50196498D01*
X89458561Y-50132017D01*
X89211575Y-50099501D01*
X89211570Y-50099500D01*
X89211565Y-50099500D01*
X88962435Y-50099500D01*
X88962429Y-50099500D01*
X88962424Y-50099501D01*
X88715438Y-50132017D01*
X88474792Y-50196498D01*
X88244638Y-50291830D01*
X88244623Y-50291837D01*
X88028873Y-50416400D01*
X87831225Y-50568060D01*
X87831218Y-50568066D01*
X87655066Y-50744218D01*
X87655060Y-50744225D01*
X87503400Y-50941873D01*
X87378837Y-51157623D01*
X87378830Y-51157638D01*
X87283498Y-51387792D01*
X87219017Y-51628438D01*
X87186501Y-51875424D01*
X87186500Y-51875441D01*
X87186500Y-52124558D01*
X87186501Y-52124575D01*
X87219017Y-52371561D01*
X87283498Y-52612207D01*
X87378830Y-52842361D01*
X87378837Y-52842376D01*
X87503400Y-53058126D01*
X87655060Y-53255774D01*
X87655066Y-53255781D01*
X87831218Y-53431933D01*
X87831225Y-53431939D01*
X88028873Y-53583599D01*
X88244623Y-53708162D01*
X88244638Y-53708169D01*
X88292083Y-53727821D01*
X88474793Y-53803502D01*
X88715435Y-53867982D01*
X88962435Y-53900500D01*
X88962442Y-53900500D01*
X89211558Y-53900500D01*
X89211565Y-53900500D01*
X89458565Y-53867982D01*
X89699207Y-53803502D01*
X89929373Y-53708164D01*
X90001502Y-53666520D01*
X90069400Y-53650048D01*
X90135427Y-53672900D01*
X90178617Y-53727821D01*
X90187500Y-53773908D01*
X90187500Y-54926091D01*
X90167815Y-54993130D01*
X90115011Y-55038885D01*
X90045853Y-55048829D01*
X90001501Y-55033478D01*
X89929383Y-54991841D01*
X89929361Y-54991830D01*
X89699207Y-54896498D01*
X89458561Y-54832017D01*
X89211575Y-54799501D01*
X89211570Y-54799500D01*
X89211565Y-54799500D01*
X88962435Y-54799500D01*
X88962429Y-54799500D01*
X88962424Y-54799501D01*
X88715438Y-54832017D01*
X88474792Y-54896498D01*
X88244638Y-54991830D01*
X88244623Y-54991837D01*
X88028873Y-55116400D01*
X87831225Y-55268060D01*
X87831218Y-55268066D01*
X87655066Y-55444218D01*
X87655060Y-55444225D01*
X87503400Y-55641873D01*
X87378837Y-55857623D01*
X87378830Y-55857638D01*
X87283498Y-56087792D01*
X87219017Y-56328438D01*
X87186501Y-56575424D01*
X87186500Y-56575441D01*
X87186500Y-56824558D01*
X87186501Y-56824575D01*
X87198569Y-56916245D01*
X87219018Y-57071565D01*
X87283498Y-57312207D01*
X87289543Y-57326802D01*
X87351978Y-57477531D01*
X87359447Y-57547001D01*
X87328172Y-57609480D01*
X87325098Y-57612665D01*
X82821286Y-62116478D01*
X82709481Y-62228282D01*
X82709479Y-62228285D01*
X82659361Y-62315094D01*
X82659359Y-62315096D01*
X82630425Y-62365209D01*
X82630424Y-62365210D01*
X82630423Y-62365215D01*
X82589499Y-62517943D01*
X82589499Y-62517945D01*
X82589499Y-62686046D01*
X82589500Y-62686059D01*
X82589500Y-63270397D01*
X82569815Y-63337436D01*
X82521800Y-63380879D01*
X82508389Y-63387712D01*
X82342786Y-63508028D01*
X82198028Y-63652786D01*
X82077715Y-63818386D01*
X81984781Y-64000776D01*
X81921522Y-64195465D01*
X81889500Y-64397648D01*
X81889500Y-64602351D01*
X81921522Y-64804534D01*
X81984781Y-64999223D01*
X82048691Y-65124653D01*
X82059714Y-65146286D01*
X82077715Y-65181613D01*
X82198028Y-65347213D01*
X82342786Y-65491971D01*
X82475036Y-65588054D01*
X82508390Y-65612287D01*
X82624607Y-65671503D01*
X82690776Y-65705218D01*
X82690778Y-65705218D01*
X82690781Y-65705220D01*
X82795137Y-65739127D01*
X82885465Y-65768477D01*
X82986557Y-65784488D01*
X83087648Y-65800500D01*
X83087649Y-65800500D01*
X83292351Y-65800500D01*
X83292352Y-65800500D01*
X83494534Y-65768477D01*
X83689219Y-65705220D01*
X83871610Y-65612287D01*
X84006626Y-65514193D01*
X84037213Y-65491971D01*
X84037215Y-65491968D01*
X84037219Y-65491966D01*
X84181966Y-65347219D01*
X84181968Y-65347215D01*
X84181971Y-65347213D01*
X84234732Y-65274590D01*
X84302287Y-65181610D01*
X84395220Y-64999219D01*
X84458477Y-64804534D01*
X84490500Y-64602352D01*
X84490500Y-64397648D01*
X84458477Y-64195466D01*
X84395220Y-64000781D01*
X84395218Y-64000778D01*
X84395218Y-64000776D01*
X84361503Y-63934607D01*
X84302287Y-63818390D01*
X84284419Y-63793796D01*
X84181971Y-63652786D01*
X84037213Y-63508028D01*
X83871610Y-63387712D01*
X83858200Y-63380879D01*
X83807406Y-63332903D01*
X83790500Y-63270397D01*
X83790500Y-62897096D01*
X83810185Y-62830057D01*
X83826814Y-62809420D01*
X88174334Y-58461899D01*
X88235655Y-58428416D01*
X88305347Y-58433400D01*
X88309455Y-58435016D01*
X88474793Y-58503502D01*
X88715435Y-58567982D01*
X88962435Y-58600500D01*
X88984500Y-58600500D01*
X89051539Y-58620185D01*
X89097294Y-58672989D01*
X89108500Y-58724500D01*
X89108500Y-65422330D01*
X89108499Y-65422348D01*
X89108499Y-65588054D01*
X89108498Y-65588054D01*
X89149424Y-65740789D01*
X89149425Y-65740790D01*
X89165410Y-65768476D01*
X89165411Y-65768477D01*
X89228477Y-65877712D01*
X89228481Y-65877717D01*
X89347349Y-65996585D01*
X89347355Y-65996590D01*
X90061181Y-66710416D01*
X90094666Y-66771739D01*
X90097500Y-66798097D01*
X90097500Y-73191902D01*
X90077815Y-73258941D01*
X90061181Y-73279583D01*
X85634842Y-77705921D01*
X85573519Y-77739406D01*
X85508848Y-77736173D01*
X85494534Y-77731522D01*
X85319995Y-77703878D01*
X85292352Y-77699500D01*
X85087648Y-77699500D01*
X85063329Y-77703351D01*
X84885465Y-77731522D01*
X84690776Y-77794781D01*
X84508386Y-77887715D01*
X84342786Y-78008028D01*
X84198028Y-78152786D01*
X84077715Y-78318386D01*
X83984781Y-78500776D01*
X83921522Y-78695465D01*
X83889500Y-78897646D01*
X83889500Y-79102351D01*
X83921522Y-79304534D01*
X83984781Y-79499223D01*
X84077715Y-79681613D01*
X84198028Y-79847213D01*
X84342786Y-79991971D01*
X84497749Y-80104556D01*
X84508390Y-80112287D01*
X84624607Y-80171503D01*
X84690776Y-80205218D01*
X84690778Y-80205218D01*
X84690781Y-80205220D01*
X84786045Y-80236173D01*
X84885465Y-80268477D01*
X84986557Y-80284488D01*
X85087648Y-80300500D01*
X85087649Y-80300500D01*
X85292351Y-80300500D01*
X85292352Y-80300500D01*
X85494534Y-80268477D01*
X85689219Y-80205220D01*
X85871610Y-80112287D01*
X85964590Y-80044732D01*
X86037213Y-79991971D01*
X86037215Y-79991968D01*
X86037219Y-79991966D01*
X86181966Y-79847219D01*
X86181968Y-79847215D01*
X86181971Y-79847213D01*
X86282593Y-79708716D01*
X86302287Y-79681610D01*
X86395220Y-79499219D01*
X86458477Y-79304534D01*
X86490500Y-79102352D01*
X86490500Y-78897648D01*
X86490020Y-78894620D01*
X86458478Y-78695472D01*
X86458477Y-78695471D01*
X86458477Y-78695466D01*
X86453825Y-78681151D01*
X86451832Y-78611312D01*
X86484075Y-78555158D01*
X89236821Y-75802413D01*
X89298142Y-75768930D01*
X89367834Y-75773914D01*
X89423767Y-75815786D01*
X89448184Y-75881250D01*
X89448500Y-75890096D01*
X89448500Y-101333710D01*
X89428815Y-101400749D01*
X89376011Y-101446504D01*
X89306853Y-101456448D01*
X89286183Y-101451641D01*
X89077953Y-101383985D01*
X89077954Y-101383985D01*
X88914654Y-101358121D01*
X88860222Y-101349500D01*
X88639778Y-101349500D01*
X88567201Y-101360995D01*
X88422047Y-101383985D01*
X88212396Y-101452103D01*
X88212393Y-101452104D01*
X88015974Y-101552187D01*
X87837641Y-101681752D01*
X87837636Y-101681756D01*
X87681756Y-101837636D01*
X87681752Y-101837641D01*
X87600318Y-101949727D01*
X87544989Y-101992393D01*
X87475375Y-101998372D01*
X87413580Y-101965767D01*
X87399682Y-101949727D01*
X87318247Y-101837641D01*
X87318243Y-101837636D01*
X87162363Y-101681756D01*
X87162358Y-101681752D01*
X86984025Y-101552187D01*
X86984024Y-101552186D01*
X86984022Y-101552185D01*
X86921096Y-101520122D01*
X86787606Y-101452104D01*
X86787603Y-101452103D01*
X86577952Y-101383985D01*
X86469086Y-101366742D01*
X86360222Y-101349500D01*
X86139778Y-101349500D01*
X86067201Y-101360995D01*
X85922047Y-101383985D01*
X85712396Y-101452103D01*
X85712393Y-101452104D01*
X85515974Y-101552187D01*
X85337641Y-101681752D01*
X85337635Y-101681757D01*
X85316207Y-101703185D01*
X85254884Y-101736669D01*
X85185192Y-101731683D01*
X85129259Y-101689810D01*
X85112346Y-101658834D01*
X85093355Y-101607915D01*
X85093350Y-101607906D01*
X85007190Y-101492812D01*
X85007187Y-101492809D01*
X84892093Y-101406649D01*
X84892086Y-101406645D01*
X84757379Y-101356403D01*
X84757372Y-101356401D01*
X84697844Y-101350000D01*
X84000000Y-101350000D01*
X84000000Y-102316988D01*
X83942993Y-102284075D01*
X83815826Y-102250000D01*
X83684174Y-102250000D01*
X83557007Y-102284075D01*
X83500000Y-102316988D01*
X83500000Y-101350000D01*
X82802155Y-101350000D01*
X82742627Y-101356401D01*
X82742620Y-101356403D01*
X82607913Y-101406645D01*
X82607906Y-101406649D01*
X82492812Y-101492809D01*
X82492809Y-101492812D01*
X82406649Y-101607906D01*
X82406645Y-101607913D01*
X82356403Y-101742620D01*
X82356401Y-101742627D01*
X82350000Y-101802155D01*
X82350000Y-102500000D01*
X83316988Y-102500000D01*
X83284075Y-102557007D01*
X83250000Y-102684174D01*
X83250000Y-102815826D01*
X83284075Y-102942993D01*
X83316988Y-103000000D01*
X82350000Y-103000000D01*
X82350000Y-103697844D01*
X82356401Y-103757372D01*
X82356403Y-103757379D01*
X82406645Y-103892086D01*
X82406649Y-103892093D01*
X82492809Y-104007187D01*
X82492812Y-104007190D01*
X82607906Y-104093350D01*
X82607913Y-104093354D01*
X82742620Y-104143596D01*
X82742627Y-104143598D01*
X82802155Y-104149999D01*
X82802172Y-104150000D01*
X83500000Y-104150000D01*
X83500000Y-103183012D01*
X83557007Y-103215925D01*
X83684174Y-103250000D01*
X83815826Y-103250000D01*
X83942993Y-103215925D01*
X84000000Y-103183012D01*
X84000000Y-104150000D01*
X84697828Y-104150000D01*
X84697844Y-104149999D01*
X84757372Y-104143598D01*
X84757379Y-104143596D01*
X84892086Y-104093354D01*
X84892093Y-104093350D01*
X85007187Y-104007190D01*
X85007190Y-104007187D01*
X85093350Y-103892093D01*
X85093353Y-103892088D01*
X85112345Y-103841166D01*
X85154215Y-103785232D01*
X85219679Y-103760813D01*
X85287952Y-103775663D01*
X85316209Y-103796816D01*
X85337636Y-103818243D01*
X85337641Y-103818247D01*
X85465766Y-103911334D01*
X85515978Y-103947815D01*
X85632501Y-104007187D01*
X85712393Y-104047895D01*
X85712396Y-104047896D01*
X85793295Y-104074181D01*
X85922049Y-104116015D01*
X86139778Y-104150500D01*
X86139779Y-104150500D01*
X86360221Y-104150500D01*
X86360222Y-104150500D01*
X86577951Y-104116015D01*
X86787606Y-104047895D01*
X86984022Y-103947815D01*
X87162365Y-103818242D01*
X87318242Y-103662365D01*
X87399682Y-103550270D01*
X87455011Y-103507606D01*
X87524624Y-103501627D01*
X87586420Y-103534232D01*
X87600313Y-103550265D01*
X87681758Y-103662365D01*
X87837636Y-103818243D01*
X87837641Y-103818247D01*
X87965766Y-103911334D01*
X88015978Y-103947815D01*
X88132501Y-104007187D01*
X88212393Y-104047895D01*
X88212396Y-104047896D01*
X88293295Y-104074181D01*
X88422049Y-104116015D01*
X88639778Y-104150500D01*
X88639779Y-104150500D01*
X88860221Y-104150500D01*
X88860222Y-104150500D01*
X89077951Y-104116015D01*
X89219019Y-104070179D01*
X89286182Y-104048358D01*
X89356024Y-104046363D01*
X89415856Y-104082444D01*
X89446684Y-104145145D01*
X89448500Y-104166289D01*
X89448500Y-130083710D01*
X89428815Y-130150749D01*
X89376011Y-130196504D01*
X89306853Y-130206448D01*
X89286183Y-130201641D01*
X89077953Y-130133985D01*
X89077954Y-130133985D01*
X88914654Y-130108121D01*
X88860222Y-130099500D01*
X88639778Y-130099500D01*
X88567201Y-130110995D01*
X88422047Y-130133985D01*
X88212396Y-130202103D01*
X88212393Y-130202104D01*
X88015974Y-130302187D01*
X87837641Y-130431752D01*
X87837636Y-130431756D01*
X87681756Y-130587636D01*
X87681752Y-130587641D01*
X87600318Y-130699727D01*
X87544989Y-130742393D01*
X87475375Y-130748372D01*
X87413580Y-130715767D01*
X87399682Y-130699727D01*
X87318247Y-130587641D01*
X87318243Y-130587636D01*
X87162363Y-130431756D01*
X87162358Y-130431752D01*
X86984025Y-130302187D01*
X86984024Y-130302186D01*
X86984022Y-130302185D01*
X86921096Y-130270122D01*
X86787606Y-130202104D01*
X86787603Y-130202103D01*
X86577952Y-130133985D01*
X86469086Y-130116742D01*
X86360222Y-130099500D01*
X86139778Y-130099500D01*
X86067201Y-130110995D01*
X85922047Y-130133985D01*
X85712396Y-130202103D01*
X85712393Y-130202104D01*
X85515974Y-130302187D01*
X85337641Y-130431752D01*
X85337635Y-130431757D01*
X85316207Y-130453185D01*
X85254884Y-130486669D01*
X85185192Y-130481683D01*
X85129259Y-130439810D01*
X85112346Y-130408834D01*
X85093355Y-130357915D01*
X85093350Y-130357906D01*
X85007190Y-130242812D01*
X85007187Y-130242809D01*
X84892093Y-130156649D01*
X84892086Y-130156645D01*
X84757379Y-130106403D01*
X84757372Y-130106401D01*
X84697844Y-130100000D01*
X84000000Y-130100000D01*
X84000000Y-131066988D01*
X83942993Y-131034075D01*
X83815826Y-131000000D01*
X83684174Y-131000000D01*
X83557007Y-131034075D01*
X83500000Y-131066988D01*
X83500000Y-130100000D01*
X82802155Y-130100000D01*
X82742627Y-130106401D01*
X82742620Y-130106403D01*
X82607913Y-130156645D01*
X82607906Y-130156649D01*
X82492812Y-130242809D01*
X82492809Y-130242812D01*
X82406649Y-130357906D01*
X82406645Y-130357913D01*
X82356403Y-130492620D01*
X82356401Y-130492627D01*
X82350000Y-130552155D01*
X82350000Y-131250000D01*
X83316988Y-131250000D01*
X83284075Y-131307007D01*
X83250000Y-131434174D01*
X83250000Y-131565826D01*
X83284075Y-131692993D01*
X83316988Y-131750000D01*
X82350000Y-131750000D01*
X82350000Y-132447844D01*
X82356401Y-132507372D01*
X82356403Y-132507379D01*
X82406645Y-132642086D01*
X82406649Y-132642093D01*
X82492809Y-132757187D01*
X82492812Y-132757190D01*
X82607906Y-132843350D01*
X82607913Y-132843354D01*
X82742620Y-132893596D01*
X82742627Y-132893598D01*
X82802155Y-132899999D01*
X82802172Y-132900000D01*
X83500000Y-132900000D01*
X83500000Y-131933012D01*
X83557007Y-131965925D01*
X83684174Y-132000000D01*
X83815826Y-132000000D01*
X83942993Y-131965925D01*
X84000000Y-131933012D01*
X84000000Y-132900000D01*
X84697828Y-132900000D01*
X84697844Y-132899999D01*
X84757372Y-132893598D01*
X84757379Y-132893596D01*
X84892086Y-132843354D01*
X84892093Y-132843350D01*
X85007187Y-132757190D01*
X85007190Y-132757187D01*
X85093350Y-132642093D01*
X85093353Y-132642088D01*
X85112345Y-132591166D01*
X85154215Y-132535232D01*
X85219679Y-132510813D01*
X85287952Y-132525663D01*
X85316209Y-132546816D01*
X85337636Y-132568243D01*
X85337641Y-132568247D01*
X85465766Y-132661334D01*
X85515978Y-132697815D01*
X85632501Y-132757187D01*
X85712393Y-132797895D01*
X85712396Y-132797896D01*
X85797022Y-132825392D01*
X85922049Y-132866015D01*
X86139778Y-132900500D01*
X86139779Y-132900500D01*
X86360221Y-132900500D01*
X86360222Y-132900500D01*
X86577951Y-132866015D01*
X86787606Y-132797895D01*
X86984022Y-132697815D01*
X87162365Y-132568242D01*
X87318242Y-132412365D01*
X87399682Y-132300270D01*
X87455011Y-132257606D01*
X87524624Y-132251627D01*
X87586420Y-132284232D01*
X87600313Y-132300265D01*
X87681753Y-132412358D01*
X87681758Y-132412365D01*
X87837636Y-132568243D01*
X87837641Y-132568247D01*
X87965766Y-132661334D01*
X88015978Y-132697815D01*
X88132501Y-132757187D01*
X88212393Y-132797895D01*
X88212396Y-132797896D01*
X88297022Y-132825392D01*
X88422049Y-132866015D01*
X88639778Y-132900500D01*
X88639779Y-132900500D01*
X88860221Y-132900500D01*
X88860222Y-132900500D01*
X89077951Y-132866015D01*
X89219019Y-132820179D01*
X89286182Y-132798358D01*
X89356024Y-132796363D01*
X89415856Y-132832444D01*
X89446684Y-132895145D01*
X89448500Y-132916289D01*
X89448500Y-133762330D01*
X89448499Y-133762348D01*
X89448499Y-133928054D01*
X89448498Y-133928054D01*
X89489423Y-134080785D01*
X89501914Y-134102421D01*
X89515676Y-134126256D01*
X89562609Y-134207547D01*
X89568479Y-134217714D01*
X89568481Y-134217717D01*
X89687349Y-134336585D01*
X89687354Y-134336589D01*
X93911284Y-138560520D01*
X93911286Y-138560521D01*
X93911290Y-138560524D01*
X94048209Y-138639573D01*
X94048216Y-138639577D01*
X94200943Y-138680501D01*
X94200945Y-138680501D01*
X94366654Y-138680501D01*
X94366670Y-138680500D01*
X95714281Y-138680500D01*
X95781320Y-138700185D01*
X95824765Y-138748205D01*
X95844947Y-138787814D01*
X95844948Y-138787815D01*
X95969890Y-138959786D01*
X96120213Y-139110109D01*
X96292182Y-139235050D01*
X96300946Y-139239516D01*
X96351742Y-139287491D01*
X96368536Y-139355312D01*
X96345998Y-139421447D01*
X96300946Y-139460484D01*
X96292182Y-139464949D01*
X96120213Y-139589890D01*
X95969890Y-139740213D01*
X95844951Y-139912179D01*
X95748444Y-140101585D01*
X95682753Y-140303760D01*
X95649500Y-140513713D01*
X95649500Y-140726286D01*
X95678066Y-140906649D01*
X95682754Y-140936243D01*
X95738533Y-141107913D01*
X95748444Y-141138414D01*
X95844951Y-141327820D01*
X95969890Y-141499786D01*
X96120213Y-141650109D01*
X96292182Y-141775050D01*
X96300946Y-141779516D01*
X96351742Y-141827491D01*
X96368536Y-141895312D01*
X96345998Y-141961447D01*
X96300946Y-142000484D01*
X96292182Y-142004949D01*
X96120213Y-142129890D01*
X95969890Y-142280213D01*
X95844948Y-142452184D01*
X95844947Y-142452185D01*
X95824765Y-142491795D01*
X95776791Y-142542591D01*
X95714281Y-142559500D01*
X90526669Y-142559500D01*
X90526653Y-142559499D01*
X90519057Y-142559499D01*
X90360943Y-142559499D01*
X90246397Y-142590192D01*
X90208214Y-142600423D01*
X90176531Y-142618716D01*
X90176530Y-142618716D01*
X90071287Y-142679477D01*
X90071282Y-142679481D01*
X85769481Y-146981282D01*
X85769479Y-146981285D01*
X85744420Y-147024689D01*
X85727190Y-147054534D01*
X85719361Y-147068094D01*
X85719359Y-147068096D01*
X85690425Y-147118209D01*
X85690424Y-147118210D01*
X85690423Y-147118215D01*
X85649499Y-147270943D01*
X85649499Y-147270945D01*
X85649499Y-147439046D01*
X85649500Y-147439059D01*
X85649500Y-158908164D01*
X85629815Y-158975203D01*
X85581796Y-159018648D01*
X85515976Y-159052185D01*
X85337641Y-159181752D01*
X85337635Y-159181757D01*
X85316207Y-159203185D01*
X85254884Y-159236669D01*
X85185192Y-159231683D01*
X85129259Y-159189810D01*
X85112346Y-159158834D01*
X85093355Y-159107915D01*
X85093350Y-159107906D01*
X85007190Y-158992812D01*
X85007187Y-158992809D01*
X84892093Y-158906649D01*
X84892086Y-158906645D01*
X84757379Y-158856403D01*
X84757372Y-158856401D01*
X84697844Y-158850000D01*
X84000000Y-158850000D01*
X84000000Y-159816988D01*
X83942993Y-159784075D01*
X83815826Y-159750000D01*
X83684174Y-159750000D01*
X83557007Y-159784075D01*
X83500000Y-159816988D01*
X83500000Y-158850000D01*
X82802155Y-158850000D01*
X82742627Y-158856401D01*
X82742620Y-158856403D01*
X82607913Y-158906645D01*
X82607906Y-158906649D01*
X82492812Y-158992809D01*
X82492809Y-158992812D01*
X82406649Y-159107906D01*
X82406645Y-159107913D01*
X82356403Y-159242620D01*
X82356401Y-159242627D01*
X82350000Y-159302155D01*
X82350000Y-160000000D01*
X83316988Y-160000000D01*
X83284075Y-160057007D01*
X83250000Y-160184174D01*
X83250000Y-160315826D01*
X83284075Y-160442993D01*
X83316988Y-160500000D01*
X82350000Y-160500000D01*
X82350000Y-161197844D01*
X82356401Y-161257372D01*
X82356403Y-161257379D01*
X82406645Y-161392086D01*
X82406649Y-161392093D01*
X82492809Y-161507187D01*
X82492812Y-161507190D01*
X82607906Y-161593350D01*
X82607913Y-161593354D01*
X82742620Y-161643596D01*
X82742627Y-161643598D01*
X82802155Y-161649999D01*
X82802172Y-161650000D01*
X83500000Y-161650000D01*
X83500000Y-160683012D01*
X83557007Y-160715925D01*
X83684174Y-160750000D01*
X83815826Y-160750000D01*
X83942993Y-160715925D01*
X84000000Y-160683012D01*
X84000000Y-161650000D01*
X84697828Y-161650000D01*
X84697844Y-161649999D01*
X84757372Y-161643598D01*
X84757379Y-161643596D01*
X84892086Y-161593354D01*
X84892093Y-161593350D01*
X85007187Y-161507190D01*
X85007190Y-161507187D01*
X85093350Y-161392093D01*
X85093353Y-161392088D01*
X85112345Y-161341166D01*
X85154215Y-161285232D01*
X85219679Y-161260813D01*
X85287952Y-161275663D01*
X85316209Y-161296816D01*
X85337636Y-161318243D01*
X85337641Y-161318247D01*
X85493192Y-161431260D01*
X85515978Y-161447815D01*
X85632501Y-161507187D01*
X85712393Y-161547895D01*
X85712396Y-161547896D01*
X85817221Y-161581955D01*
X85922049Y-161616015D01*
X86139778Y-161650500D01*
X86139779Y-161650500D01*
X86360221Y-161650500D01*
X86360222Y-161650500D01*
X86577951Y-161616015D01*
X86787606Y-161547895D01*
X86984022Y-161447815D01*
X87162365Y-161318242D01*
X87318242Y-161162365D01*
X87399682Y-161050270D01*
X87455011Y-161007606D01*
X87524624Y-161001627D01*
X87586420Y-161034232D01*
X87600313Y-161050265D01*
X87681753Y-161162358D01*
X87681758Y-161162365D01*
X87837636Y-161318243D01*
X87837641Y-161318247D01*
X87993192Y-161431260D01*
X88015978Y-161447815D01*
X88132501Y-161507187D01*
X88212393Y-161547895D01*
X88212396Y-161547896D01*
X88317221Y-161581955D01*
X88422049Y-161616015D01*
X88639778Y-161650500D01*
X88639779Y-161650500D01*
X88860221Y-161650500D01*
X88860222Y-161650500D01*
X89077951Y-161616015D01*
X89287606Y-161547895D01*
X89484022Y-161447815D01*
X89662365Y-161318242D01*
X89818242Y-161162365D01*
X89899682Y-161050270D01*
X89955011Y-161007606D01*
X90024624Y-161001627D01*
X90086420Y-161034232D01*
X90100313Y-161050265D01*
X90181753Y-161162358D01*
X90181758Y-161162365D01*
X90337636Y-161318243D01*
X90337641Y-161318247D01*
X90493192Y-161431260D01*
X90515978Y-161447815D01*
X90632501Y-161507187D01*
X90712393Y-161547895D01*
X90712396Y-161547896D01*
X90817221Y-161581955D01*
X90922049Y-161616015D01*
X91139778Y-161650500D01*
X91139779Y-161650500D01*
X91360221Y-161650500D01*
X91360222Y-161650500D01*
X91577951Y-161616015D01*
X91787606Y-161547895D01*
X91984022Y-161447815D01*
X92162365Y-161318242D01*
X92318242Y-161162365D01*
X92447815Y-160984022D01*
X92547895Y-160787606D01*
X92616015Y-160577951D01*
X92650500Y-160360222D01*
X92650500Y-160139778D01*
X92616015Y-159922049D01*
X92547895Y-159712394D01*
X92547895Y-159712393D01*
X92513237Y-159644375D01*
X92447815Y-159515978D01*
X92399681Y-159449727D01*
X92318247Y-159337641D01*
X92318243Y-159337636D01*
X92162363Y-159181756D01*
X92162358Y-159181752D01*
X91984025Y-159052187D01*
X91984024Y-159052186D01*
X91984022Y-159052185D01*
X91918203Y-159018648D01*
X91787606Y-158952104D01*
X91787603Y-158952103D01*
X91577952Y-158883985D01*
X91469086Y-158866742D01*
X91360222Y-158849500D01*
X91139778Y-158849500D01*
X91067201Y-158860995D01*
X90922047Y-158883985D01*
X90712396Y-158952103D01*
X90712393Y-158952104D01*
X90515974Y-159052187D01*
X90337641Y-159181752D01*
X90337636Y-159181756D01*
X90181756Y-159337636D01*
X90181752Y-159337641D01*
X90100318Y-159449727D01*
X90044989Y-159492393D01*
X89975375Y-159498372D01*
X89913580Y-159465767D01*
X89899682Y-159449727D01*
X89818247Y-159337641D01*
X89818243Y-159337636D01*
X89662363Y-159181756D01*
X89662358Y-159181752D01*
X89484023Y-159052185D01*
X89418204Y-159018648D01*
X89367409Y-158970674D01*
X89350500Y-158908164D01*
X89350500Y-148550097D01*
X89370185Y-148483058D01*
X89386819Y-148462416D01*
X91512417Y-146336819D01*
X91573740Y-146303334D01*
X91600098Y-146300500D01*
X95714281Y-146300500D01*
X95781320Y-146320185D01*
X95824765Y-146368205D01*
X95844947Y-146407814D01*
X95844948Y-146407815D01*
X95969890Y-146579786D01*
X96120213Y-146730109D01*
X96292182Y-146855050D01*
X96300946Y-146859516D01*
X96351742Y-146907491D01*
X96368536Y-146975312D01*
X96345998Y-147041447D01*
X96300946Y-147080484D01*
X96292182Y-147084949D01*
X96120213Y-147209890D01*
X95969890Y-147360213D01*
X95844951Y-147532179D01*
X95748444Y-147721583D01*
X95696454Y-147881593D01*
X95657016Y-147939268D01*
X95592657Y-147966466D01*
X95523811Y-147954551D01*
X95473529Y-147909246D01*
X95414038Y-147814567D01*
X95342523Y-147700752D01*
X95167416Y-147481175D01*
X94968825Y-147282584D01*
X94749248Y-147107477D01*
X94548414Y-146981284D01*
X94511442Y-146958053D01*
X94258411Y-146836200D01*
X93993329Y-146743443D01*
X93993317Y-146743439D01*
X93719512Y-146680945D01*
X93719494Y-146680942D01*
X93440431Y-146649500D01*
X93440425Y-146649500D01*
X93159575Y-146649500D01*
X93159568Y-146649500D01*
X92880505Y-146680942D01*
X92880487Y-146680945D01*
X92606682Y-146743439D01*
X92606670Y-146743443D01*
X92341588Y-146836200D01*
X92088557Y-146958053D01*
X91850753Y-147107476D01*
X91631175Y-147282583D01*
X91432583Y-147481175D01*
X91257476Y-147700753D01*
X91108053Y-147938557D01*
X90986200Y-148191588D01*
X90893443Y-148456670D01*
X90893439Y-148456682D01*
X90830945Y-148730487D01*
X90830942Y-148730505D01*
X90799500Y-149009568D01*
X90799500Y-149490431D01*
X90830942Y-149769494D01*
X90830945Y-149769512D01*
X90893439Y-150043317D01*
X90893443Y-150043329D01*
X90986200Y-150308411D01*
X91108053Y-150561442D01*
X91110849Y-150565892D01*
X91257477Y-150799248D01*
X91432584Y-151018825D01*
X91631175Y-151217416D01*
X91850752Y-151392523D01*
X92088555Y-151541945D01*
X92341592Y-151663801D01*
X92540680Y-151733465D01*
X92606670Y-151756556D01*
X92606682Y-151756560D01*
X92880491Y-151819055D01*
X92880497Y-151819055D01*
X92880505Y-151819057D01*
X93066547Y-151840018D01*
X93159569Y-151850499D01*
X93159572Y-151850500D01*
X93159575Y-151850500D01*
X93440428Y-151850500D01*
X93440429Y-151850499D01*
X93583055Y-151834429D01*
X93719494Y-151819057D01*
X93719499Y-151819056D01*
X93719509Y-151819055D01*
X93993318Y-151756560D01*
X94258408Y-151663801D01*
X94511445Y-151541945D01*
X94749248Y-151392523D01*
X94968825Y-151217416D01*
X95167416Y-151018825D01*
X95342523Y-150799248D01*
X95490235Y-150564166D01*
X95542566Y-150517878D01*
X95611620Y-150507229D01*
X95662858Y-150530000D01*
X96566988Y-150530000D01*
X96534075Y-150587007D01*
X96500000Y-150714174D01*
X96500000Y-150845826D01*
X96534075Y-150972993D01*
X96566988Y-151030000D01*
X95672769Y-151030000D01*
X95683242Y-151096126D01*
X95683242Y-151096129D01*
X95748904Y-151298217D01*
X95845379Y-151487557D01*
X95970272Y-151659459D01*
X95970276Y-151659464D01*
X96120535Y-151809723D01*
X96120540Y-151809727D01*
X96292442Y-151934620D01*
X96481782Y-152031095D01*
X96683871Y-152096757D01*
X96750000Y-152107231D01*
X96750000Y-151213012D01*
X96807007Y-151245925D01*
X96934174Y-151280000D01*
X97065826Y-151280000D01*
X97192993Y-151245925D01*
X97250000Y-151213012D01*
X97250000Y-152107230D01*
X97316126Y-152096757D01*
X97316129Y-152096757D01*
X97518217Y-152031095D01*
X97707557Y-151934620D01*
X97879459Y-151809727D01*
X97879464Y-151809723D01*
X98029723Y-151659464D01*
X98029727Y-151659459D01*
X98154620Y-151487557D01*
X98251093Y-151298221D01*
X98257568Y-151278294D01*
X98297005Y-151220618D01*
X98361363Y-151193419D01*
X98430210Y-151205333D01*
X98481686Y-151252576D01*
X98499500Y-151316611D01*
X98499500Y-166375500D01*
X98479815Y-166442539D01*
X98427011Y-166488294D01*
X98375500Y-166499500D01*
X68124500Y-166499500D01*
X68057461Y-166479815D01*
X68011706Y-166427011D01*
X68000500Y-166375500D01*
X68000500Y-150434110D01*
X68000500Y-150434108D01*
X67966392Y-150306814D01*
X67900500Y-150192686D01*
X67807314Y-150099500D01*
X67750250Y-150066554D01*
X67693187Y-150033608D01*
X67629539Y-150016554D01*
X67565892Y-149999500D01*
X67565891Y-149999500D01*
X51624500Y-149999500D01*
X51557461Y-149979815D01*
X51511706Y-149927011D01*
X51500500Y-149875500D01*
X51500500Y-149009568D01*
X79199500Y-149009568D01*
X79199500Y-149490431D01*
X79230942Y-149769494D01*
X79230945Y-149769512D01*
X79293439Y-150043317D01*
X79293443Y-150043329D01*
X79386200Y-150308411D01*
X79508053Y-150561442D01*
X79510849Y-150565892D01*
X79657477Y-150799248D01*
X79832584Y-151018825D01*
X80031175Y-151217416D01*
X80250752Y-151392523D01*
X80488555Y-151541945D01*
X80741592Y-151663801D01*
X80940680Y-151733465D01*
X81006670Y-151756556D01*
X81006682Y-151756560D01*
X81280491Y-151819055D01*
X81280497Y-151819055D01*
X81280505Y-151819057D01*
X81466547Y-151840018D01*
X81559569Y-151850499D01*
X81559572Y-151850500D01*
X81559575Y-151850500D01*
X81840428Y-151850500D01*
X81840429Y-151850499D01*
X81983055Y-151834429D01*
X82119494Y-151819057D01*
X82119499Y-151819056D01*
X82119509Y-151819055D01*
X82393318Y-151756560D01*
X82658408Y-151663801D01*
X82911445Y-151541945D01*
X83149248Y-151392523D01*
X83368825Y-151217416D01*
X83567416Y-151018825D01*
X83742523Y-150799248D01*
X83891945Y-150561445D01*
X84013801Y-150308408D01*
X84106560Y-150043318D01*
X84169055Y-149769509D01*
X84171223Y-149750272D01*
X84197665Y-149515587D01*
X84200500Y-149490425D01*
X84200500Y-149009575D01*
X84178946Y-148818277D01*
X84169057Y-148730505D01*
X84169054Y-148730487D01*
X84106560Y-148456682D01*
X84106556Y-148456670D01*
X84061902Y-148329057D01*
X84013801Y-148191592D01*
X83891945Y-147938555D01*
X83742523Y-147700752D01*
X83567416Y-147481175D01*
X83368825Y-147282584D01*
X83149248Y-147107477D01*
X82948414Y-146981284D01*
X82911442Y-146958053D01*
X82658411Y-146836200D01*
X82393329Y-146743443D01*
X82393317Y-146743439D01*
X82119512Y-146680945D01*
X82119494Y-146680942D01*
X81840431Y-146649500D01*
X81840425Y-146649500D01*
X81559575Y-146649500D01*
X81559568Y-146649500D01*
X81280505Y-146680942D01*
X81280487Y-146680945D01*
X81006682Y-146743439D01*
X81006670Y-146743443D01*
X80741588Y-146836200D01*
X80488557Y-146958053D01*
X80250753Y-147107476D01*
X80031175Y-147282583D01*
X79832583Y-147481175D01*
X79657476Y-147700753D01*
X79508053Y-147938557D01*
X79386200Y-148191588D01*
X79293443Y-148456670D01*
X79293439Y-148456682D01*
X79230945Y-148730487D01*
X79230942Y-148730505D01*
X79199500Y-149009568D01*
X51500500Y-149009568D01*
X51500500Y-129201456D01*
X53699500Y-129201456D01*
X53699500Y-142858542D01*
X53713359Y-142928214D01*
X53713359Y-142928215D01*
X53737637Y-143050272D01*
X53737949Y-143051836D01*
X53741935Y-143061459D01*
X53741935Y-143061460D01*
X53813366Y-143233911D01*
X53813371Y-143233920D01*
X53922860Y-143397781D01*
X53922863Y-143397785D01*
X54066537Y-143541459D01*
X54066559Y-143541479D01*
X57363281Y-146838201D01*
X57396766Y-146899524D01*
X57398073Y-146906483D01*
X57421523Y-147054535D01*
X57484781Y-147249223D01*
X57501780Y-147282584D01*
X57576412Y-147429057D01*
X57577715Y-147431613D01*
X57698028Y-147597213D01*
X57842786Y-147741971D01*
X57956395Y-147824511D01*
X58008390Y-147862287D01*
X58100552Y-147909246D01*
X58190776Y-147955218D01*
X58190778Y-147955218D01*
X58190781Y-147955220D01*
X58295137Y-147989127D01*
X58385465Y-148018477D01*
X58486557Y-148034488D01*
X58587648Y-148050500D01*
X58587649Y-148050500D01*
X58792351Y-148050500D01*
X58792352Y-148050500D01*
X58994534Y-148018477D01*
X59189219Y-147955220D01*
X59371610Y-147862287D01*
X59499352Y-147769478D01*
X59537213Y-147741971D01*
X59537215Y-147741968D01*
X59537219Y-147741966D01*
X59681966Y-147597219D01*
X59681968Y-147597215D01*
X59681971Y-147597213D01*
X59766276Y-147481175D01*
X59802287Y-147431610D01*
X59895220Y-147249219D01*
X59958477Y-147054534D01*
X59990500Y-146852352D01*
X59990500Y-146647648D01*
X59958477Y-146445465D01*
X59917771Y-146320185D01*
X59895220Y-146250781D01*
X59895218Y-146250778D01*
X59895218Y-146250776D01*
X59826053Y-146115034D01*
X59802287Y-146068390D01*
X59794556Y-146057749D01*
X59681971Y-145902786D01*
X59537213Y-145758028D01*
X59371613Y-145637715D01*
X59371612Y-145637714D01*
X59371610Y-145637713D01*
X59314653Y-145608691D01*
X59189223Y-145544781D01*
X58994535Y-145481523D01*
X58846483Y-145458073D01*
X58783349Y-145428143D01*
X58778201Y-145423281D01*
X55736819Y-142381899D01*
X55703334Y-142320576D01*
X55700500Y-142294218D01*
X55700500Y-141302155D01*
X58600000Y-141302155D01*
X58600000Y-142000000D01*
X59566988Y-142000000D01*
X59534075Y-142057007D01*
X59500000Y-142184174D01*
X59500000Y-142315826D01*
X59534075Y-142442993D01*
X59566988Y-142500000D01*
X58600000Y-142500000D01*
X58600000Y-143197844D01*
X58606401Y-143257372D01*
X58606403Y-143257379D01*
X58656645Y-143392086D01*
X58656649Y-143392093D01*
X58742809Y-143507187D01*
X58742812Y-143507190D01*
X58857906Y-143593350D01*
X58857913Y-143593354D01*
X58992620Y-143643596D01*
X58992627Y-143643598D01*
X59052155Y-143649999D01*
X59052172Y-143650000D01*
X59750000Y-143650000D01*
X59750000Y-142683012D01*
X59807007Y-142715925D01*
X59934174Y-142750000D01*
X60065826Y-142750000D01*
X60192993Y-142715925D01*
X60250000Y-142683012D01*
X60250000Y-143650000D01*
X60947828Y-143650000D01*
X60947844Y-143649999D01*
X61007372Y-143643598D01*
X61007379Y-143643596D01*
X61142086Y-143593354D01*
X61142093Y-143593350D01*
X61257187Y-143507190D01*
X61257190Y-143507187D01*
X61343350Y-143392093D01*
X61343353Y-143392088D01*
X61362345Y-143341166D01*
X61404215Y-143285232D01*
X61469679Y-143260813D01*
X61537952Y-143275663D01*
X61566209Y-143296816D01*
X61587636Y-143318243D01*
X61587641Y-143318247D01*
X61697113Y-143397782D01*
X61765978Y-143447815D01*
X61882501Y-143507187D01*
X61962393Y-143547895D01*
X61962396Y-143547896D01*
X62067221Y-143581955D01*
X62172049Y-143616015D01*
X62389778Y-143650500D01*
X62389779Y-143650500D01*
X62610221Y-143650500D01*
X62610222Y-143650500D01*
X62827951Y-143616015D01*
X63037606Y-143547895D01*
X63234022Y-143447815D01*
X63412365Y-143318242D01*
X63568242Y-143162365D01*
X63649682Y-143050270D01*
X63705011Y-143007606D01*
X63774624Y-143001627D01*
X63836420Y-143034232D01*
X63850313Y-143050265D01*
X63858447Y-143061460D01*
X63931758Y-143162365D01*
X64087636Y-143318243D01*
X64087641Y-143318247D01*
X64197113Y-143397782D01*
X64265978Y-143447815D01*
X64382501Y-143507187D01*
X64462393Y-143547895D01*
X64462396Y-143547896D01*
X64567221Y-143581955D01*
X64672049Y-143616015D01*
X64889778Y-143650500D01*
X64889779Y-143650500D01*
X65110221Y-143650500D01*
X65110222Y-143650500D01*
X65327951Y-143616015D01*
X65398205Y-143593187D01*
X65413417Y-143592753D01*
X65427676Y-143587435D01*
X65447628Y-143591775D01*
X65468044Y-143591192D01*
X65482132Y-143599281D01*
X65495949Y-143602287D01*
X65524203Y-143623438D01*
X65673181Y-143772416D01*
X65706666Y-143833739D01*
X65709500Y-143860097D01*
X65709500Y-145520397D01*
X65689815Y-145587436D01*
X65641800Y-145630879D01*
X65628389Y-145637712D01*
X65462786Y-145758028D01*
X65318028Y-145902786D01*
X65197715Y-146068386D01*
X65104781Y-146250776D01*
X65041522Y-146445465D01*
X65009500Y-146647648D01*
X65009500Y-146852352D01*
X65010634Y-146859514D01*
X65041522Y-147054534D01*
X65104781Y-147249223D01*
X65121780Y-147282584D01*
X65196412Y-147429057D01*
X65197715Y-147431613D01*
X65318028Y-147597213D01*
X65462786Y-147741971D01*
X65576395Y-147824511D01*
X65628390Y-147862287D01*
X65720552Y-147909246D01*
X65810776Y-147955218D01*
X65810778Y-147955218D01*
X65810781Y-147955220D01*
X65915137Y-147989127D01*
X66005465Y-148018477D01*
X66106557Y-148034488D01*
X66207648Y-148050500D01*
X66207649Y-148050500D01*
X66412351Y-148050500D01*
X66412352Y-148050500D01*
X66614534Y-148018477D01*
X66809219Y-147955220D01*
X66991610Y-147862287D01*
X67119352Y-147769478D01*
X67157213Y-147741971D01*
X67157215Y-147741968D01*
X67157219Y-147741966D01*
X67301966Y-147597219D01*
X67301968Y-147597215D01*
X67301971Y-147597213D01*
X67386276Y-147481175D01*
X67422287Y-147431610D01*
X67515220Y-147249219D01*
X67578477Y-147054534D01*
X67610500Y-146852352D01*
X67610500Y-146647648D01*
X67578477Y-146445465D01*
X67537771Y-146320185D01*
X67515220Y-146250781D01*
X67515218Y-146250778D01*
X67515218Y-146250776D01*
X67446053Y-146115034D01*
X67422287Y-146068390D01*
X67414556Y-146057749D01*
X67301971Y-145902786D01*
X67157213Y-145758028D01*
X66991610Y-145637712D01*
X66978200Y-145630879D01*
X66927406Y-145582903D01*
X66910500Y-145520397D01*
X66910500Y-143649060D01*
X66910501Y-143649047D01*
X66910501Y-143480944D01*
X66910501Y-143480943D01*
X66869577Y-143328216D01*
X66869573Y-143328209D01*
X66790524Y-143191290D01*
X66790518Y-143191282D01*
X66373438Y-142774203D01*
X66339953Y-142712880D01*
X66343187Y-142648205D01*
X66366015Y-142577951D01*
X66400500Y-142360222D01*
X66400500Y-142139778D01*
X66366015Y-141922049D01*
X66297895Y-141712394D01*
X66297895Y-141712393D01*
X66263237Y-141644375D01*
X66197815Y-141515978D01*
X66149681Y-141449727D01*
X66068247Y-141337641D01*
X66068243Y-141337636D01*
X65912363Y-141181756D01*
X65912358Y-141181752D01*
X65734025Y-141052187D01*
X65734024Y-141052186D01*
X65734022Y-141052185D01*
X65671096Y-141020122D01*
X65537606Y-140952104D01*
X65537603Y-140952103D01*
X65327952Y-140883985D01*
X65219086Y-140866742D01*
X65110222Y-140849500D01*
X64889778Y-140849500D01*
X64817201Y-140860995D01*
X64672047Y-140883985D01*
X64462396Y-140952103D01*
X64462393Y-140952104D01*
X64265974Y-141052187D01*
X64087641Y-141181752D01*
X64087636Y-141181756D01*
X63931756Y-141337636D01*
X63931752Y-141337641D01*
X63850318Y-141449727D01*
X63794989Y-141492393D01*
X63725375Y-141498372D01*
X63663580Y-141465767D01*
X63649682Y-141449727D01*
X63568247Y-141337641D01*
X63568243Y-141337636D01*
X63412363Y-141181756D01*
X63412358Y-141181752D01*
X63234025Y-141052187D01*
X63234024Y-141052186D01*
X63234022Y-141052185D01*
X63171096Y-141020122D01*
X63037606Y-140952104D01*
X63037603Y-140952103D01*
X62827952Y-140883985D01*
X62719086Y-140866742D01*
X62610222Y-140849500D01*
X62389778Y-140849500D01*
X62317201Y-140860995D01*
X62172047Y-140883985D01*
X61962396Y-140952103D01*
X61962393Y-140952104D01*
X61765974Y-141052187D01*
X61587641Y-141181752D01*
X61587635Y-141181757D01*
X61566207Y-141203185D01*
X61504884Y-141236669D01*
X61435192Y-141231683D01*
X61379259Y-141189810D01*
X61362346Y-141158834D01*
X61343355Y-141107915D01*
X61343350Y-141107906D01*
X61257190Y-140992812D01*
X61257187Y-140992809D01*
X61142093Y-140906649D01*
X61142086Y-140906645D01*
X61007379Y-140856403D01*
X61007372Y-140856401D01*
X60947844Y-140850000D01*
X60250000Y-140850000D01*
X60250000Y-141816988D01*
X60192993Y-141784075D01*
X60065826Y-141750000D01*
X59934174Y-141750000D01*
X59807007Y-141784075D01*
X59750000Y-141816988D01*
X59750000Y-140850000D01*
X59052155Y-140850000D01*
X58992627Y-140856401D01*
X58992620Y-140856403D01*
X58857913Y-140906645D01*
X58857906Y-140906649D01*
X58742812Y-140992809D01*
X58742809Y-140992812D01*
X58656649Y-141107906D01*
X58656645Y-141107913D01*
X58606403Y-141242620D01*
X58606401Y-141242627D01*
X58600000Y-141302155D01*
X55700500Y-141302155D01*
X55700500Y-135667892D01*
X55720185Y-135600853D01*
X55772989Y-135555098D01*
X55842147Y-135545154D01*
X55905703Y-135574179D01*
X55939061Y-135620439D01*
X56027786Y-135834640D01*
X56027791Y-135834651D01*
X56149727Y-136045848D01*
X56149738Y-136045864D01*
X56298199Y-136239343D01*
X56298205Y-136239350D01*
X56470649Y-136411794D01*
X56470656Y-136411800D01*
X56608431Y-136517518D01*
X56664144Y-136560268D01*
X56664151Y-136560272D01*
X56875348Y-136682208D01*
X56875353Y-136682210D01*
X56875356Y-136682212D01*
X57100679Y-136775544D01*
X57336256Y-136838666D01*
X57578056Y-136870500D01*
X57578063Y-136870500D01*
X57821937Y-136870500D01*
X57821944Y-136870500D01*
X58063744Y-136838666D01*
X58299321Y-136775544D01*
X58524644Y-136682212D01*
X58735856Y-136560268D01*
X58929345Y-136411799D01*
X59101799Y-136239345D01*
X59250268Y-136045856D01*
X59372212Y-135834644D01*
X59465544Y-135609321D01*
X59528666Y-135373744D01*
X59560500Y-135131944D01*
X59560500Y-134368056D01*
X59560499Y-134368048D01*
X65439500Y-134368048D01*
X65439500Y-135131951D01*
X65466013Y-135333333D01*
X65471334Y-135373744D01*
X65517263Y-135545154D01*
X65534456Y-135609320D01*
X65534459Y-135609330D01*
X65627786Y-135834640D01*
X65627791Y-135834651D01*
X65749727Y-136045848D01*
X65749738Y-136045864D01*
X65898199Y-136239343D01*
X65898205Y-136239350D01*
X66070649Y-136411794D01*
X66070656Y-136411800D01*
X66208431Y-136517518D01*
X66264144Y-136560268D01*
X66264151Y-136560272D01*
X66475348Y-136682208D01*
X66475353Y-136682210D01*
X66475356Y-136682212D01*
X66700679Y-136775544D01*
X66936256Y-136838666D01*
X67178056Y-136870500D01*
X67178063Y-136870500D01*
X67421937Y-136870500D01*
X67421944Y-136870500D01*
X67663744Y-136838666D01*
X67899321Y-136775544D01*
X68124644Y-136682212D01*
X68335856Y-136560268D01*
X68529345Y-136411799D01*
X68701799Y-136239345D01*
X68850268Y-136045856D01*
X68972212Y-135834644D01*
X69065544Y-135609321D01*
X69128666Y-135373744D01*
X69160500Y-135131944D01*
X69160500Y-134368056D01*
X69128666Y-134126256D01*
X69065544Y-133890679D01*
X68972212Y-133665356D01*
X68972210Y-133665353D01*
X68972208Y-133665348D01*
X68850272Y-133454151D01*
X68850268Y-133454144D01*
X68701799Y-133260655D01*
X68701794Y-133260649D01*
X68529350Y-133088205D01*
X68529343Y-133088199D01*
X68335864Y-132939738D01*
X68335862Y-132939736D01*
X68335856Y-132939732D01*
X68335851Y-132939729D01*
X68335848Y-132939727D01*
X68124651Y-132817791D01*
X68124640Y-132817786D01*
X67899330Y-132724459D01*
X67899323Y-132724457D01*
X67899321Y-132724456D01*
X67663744Y-132661334D01*
X67623333Y-132656013D01*
X67421951Y-132629500D01*
X67421944Y-132629500D01*
X67178056Y-132629500D01*
X67178048Y-132629500D01*
X66947896Y-132659801D01*
X66936256Y-132661334D01*
X66800117Y-132697812D01*
X66700679Y-132724456D01*
X66700669Y-132724459D01*
X66475359Y-132817786D01*
X66475348Y-132817791D01*
X66264151Y-132939727D01*
X66264135Y-132939738D01*
X66070656Y-133088199D01*
X66070649Y-133088205D01*
X65898205Y-133260649D01*
X65898199Y-133260656D01*
X65749738Y-133454135D01*
X65749727Y-133454151D01*
X65627791Y-133665348D01*
X65627786Y-133665359D01*
X65534459Y-133890669D01*
X65534456Y-133890679D01*
X65471335Y-134126255D01*
X65471333Y-134126264D01*
X65439500Y-134368048D01*
X59560499Y-134368048D01*
X59528666Y-134126256D01*
X59465544Y-133890679D01*
X59372212Y-133665356D01*
X59372210Y-133665353D01*
X59372208Y-133665348D01*
X59250272Y-133454151D01*
X59250268Y-133454144D01*
X59101799Y-133260655D01*
X59101794Y-133260649D01*
X58929350Y-133088205D01*
X58929343Y-133088199D01*
X58735864Y-132939738D01*
X58735862Y-132939736D01*
X58735856Y-132939732D01*
X58735851Y-132939729D01*
X58735848Y-132939727D01*
X58524651Y-132817791D01*
X58524640Y-132817786D01*
X58299330Y-132724459D01*
X58299323Y-132724457D01*
X58299321Y-132724456D01*
X58063744Y-132661334D01*
X58023333Y-132656013D01*
X57821951Y-132629500D01*
X57821944Y-132629500D01*
X57578056Y-132629500D01*
X57578048Y-132629500D01*
X57347896Y-132659801D01*
X57336256Y-132661334D01*
X57200117Y-132697812D01*
X57100679Y-132724456D01*
X57100669Y-132724459D01*
X56875359Y-132817786D01*
X56875348Y-132817791D01*
X56664151Y-132939727D01*
X56664135Y-132939738D01*
X56470656Y-133088199D01*
X56470649Y-133088205D01*
X56298205Y-133260649D01*
X56298199Y-133260656D01*
X56149738Y-133454135D01*
X56149727Y-133454151D01*
X56027791Y-133665348D01*
X56027786Y-133665360D01*
X55939061Y-133879560D01*
X55895220Y-133933963D01*
X55828926Y-133956028D01*
X55761226Y-133938749D01*
X55713616Y-133887611D01*
X55700500Y-133832107D01*
X55700500Y-129765781D01*
X55720185Y-129698742D01*
X55736814Y-129678105D01*
X59327778Y-126087141D01*
X59327782Y-126087139D01*
X59467139Y-125947782D01*
X59576632Y-125783914D01*
X59652051Y-125601835D01*
X59690500Y-125408541D01*
X59690500Y-120259568D01*
X79199500Y-120259568D01*
X79199500Y-120740431D01*
X79230942Y-121019494D01*
X79230945Y-121019512D01*
X79293439Y-121293317D01*
X79293443Y-121293329D01*
X79386200Y-121558411D01*
X79508053Y-121811442D01*
X79508055Y-121811445D01*
X79657477Y-122049248D01*
X79832584Y-122268825D01*
X80031175Y-122467416D01*
X80250752Y-122642523D01*
X80488555Y-122791945D01*
X80741592Y-122913801D01*
X80940680Y-122983465D01*
X81006670Y-123006556D01*
X81006682Y-123006560D01*
X81280491Y-123069055D01*
X81280497Y-123069055D01*
X81280505Y-123069057D01*
X81466547Y-123090018D01*
X81559569Y-123100499D01*
X81559572Y-123100500D01*
X81559575Y-123100500D01*
X81840428Y-123100500D01*
X81840429Y-123100499D01*
X81983055Y-123084429D01*
X82119494Y-123069057D01*
X82119499Y-123069056D01*
X82119509Y-123069055D01*
X82393318Y-123006560D01*
X82658408Y-122913801D01*
X82911445Y-122791945D01*
X83149248Y-122642523D01*
X83368825Y-122467416D01*
X83567416Y-122268825D01*
X83742523Y-122049248D01*
X83891945Y-121811445D01*
X84013801Y-121558408D01*
X84106560Y-121293318D01*
X84169055Y-121019509D01*
X84200500Y-120740425D01*
X84200500Y-120259575D01*
X84169055Y-119980491D01*
X84106560Y-119706682D01*
X84013801Y-119441592D01*
X83891945Y-119188555D01*
X83742523Y-118950752D01*
X83567416Y-118731175D01*
X83368825Y-118532584D01*
X83149248Y-118357477D01*
X82911445Y-118208055D01*
X82911442Y-118208053D01*
X82658411Y-118086200D01*
X82393329Y-117993443D01*
X82393317Y-117993439D01*
X82119512Y-117930945D01*
X82119494Y-117930942D01*
X81840431Y-117899500D01*
X81840425Y-117899500D01*
X81559575Y-117899500D01*
X81559568Y-117899500D01*
X81280505Y-117930942D01*
X81280487Y-117930945D01*
X81006682Y-117993439D01*
X81006670Y-117993443D01*
X80741588Y-118086200D01*
X80488557Y-118208053D01*
X80250753Y-118357476D01*
X80031175Y-118532583D01*
X79832583Y-118731175D01*
X79657476Y-118950753D01*
X79508053Y-119188557D01*
X79386200Y-119441588D01*
X79293443Y-119706670D01*
X79293439Y-119706682D01*
X79230945Y-119980487D01*
X79230942Y-119980505D01*
X79199500Y-120259568D01*
X59690500Y-120259568D01*
X59690500Y-119125761D01*
X59710185Y-119058722D01*
X59714165Y-119052899D01*
X59802287Y-118931610D01*
X59895220Y-118749219D01*
X59958477Y-118554534D01*
X59990500Y-118352352D01*
X59990500Y-118147648D01*
X59966076Y-117993443D01*
X59958477Y-117945465D01*
X59895218Y-117750776D01*
X59861503Y-117684607D01*
X59802287Y-117568390D01*
X59794556Y-117557749D01*
X59681971Y-117402786D01*
X59537213Y-117258028D01*
X59371613Y-117137715D01*
X59371612Y-117137714D01*
X59371610Y-117137713D01*
X59314653Y-117108691D01*
X59189223Y-117044781D01*
X58994534Y-116981522D01*
X58819995Y-116953878D01*
X58792352Y-116949500D01*
X58587648Y-116949500D01*
X58563329Y-116953351D01*
X58385465Y-116981522D01*
X58190776Y-117044781D01*
X58008386Y-117137715D01*
X57842786Y-117258028D01*
X57698028Y-117402786D01*
X57577715Y-117568386D01*
X57484781Y-117750776D01*
X57421522Y-117945465D01*
X57389500Y-118147648D01*
X57389500Y-118352351D01*
X57421522Y-118554534D01*
X57484781Y-118749223D01*
X57577713Y-118931610D01*
X57665819Y-119052877D01*
X57689298Y-119118681D01*
X57689500Y-119125761D01*
X57689500Y-124844217D01*
X57669815Y-124911256D01*
X57653181Y-124931898D01*
X54062221Y-128522858D01*
X54062218Y-128522861D01*
X53992538Y-128592540D01*
X53922859Y-128662219D01*
X53813371Y-128826079D01*
X53813364Y-128826092D01*
X53737950Y-129008160D01*
X53737947Y-129008170D01*
X53699500Y-129201456D01*
X51500500Y-129201456D01*
X51500500Y-99607054D01*
X52347498Y-99607054D01*
X52382734Y-99738556D01*
X52388423Y-99759785D01*
X52406767Y-99791557D01*
X52415687Y-99807007D01*
X52467479Y-99896714D01*
X52467481Y-99896717D01*
X52586349Y-100015585D01*
X52586355Y-100015590D01*
X53166241Y-100595476D01*
X53199726Y-100656799D01*
X53196492Y-100721473D01*
X53182753Y-100763757D01*
X53149500Y-100973713D01*
X53149500Y-101186286D01*
X53180812Y-101383985D01*
X53182754Y-101396243D01*
X53226632Y-101531286D01*
X53248444Y-101598414D01*
X53344951Y-101787820D01*
X53469890Y-101959786D01*
X53620213Y-102110109D01*
X53792182Y-102235050D01*
X53800946Y-102239516D01*
X53851742Y-102287491D01*
X53868536Y-102355312D01*
X53845998Y-102421447D01*
X53800946Y-102460484D01*
X53792182Y-102464949D01*
X53620213Y-102589890D01*
X53469890Y-102740213D01*
X53344951Y-102912179D01*
X53248444Y-103101585D01*
X53182753Y-103303760D01*
X53149500Y-103513713D01*
X53149500Y-103726286D01*
X53178808Y-103911334D01*
X53182754Y-103936243D01*
X53247130Y-104134372D01*
X53248444Y-104138414D01*
X53344951Y-104327820D01*
X53469890Y-104499786D01*
X53620213Y-104650109D01*
X53792182Y-104775050D01*
X53800946Y-104779516D01*
X53851742Y-104827491D01*
X53868536Y-104895312D01*
X53845998Y-104961447D01*
X53800946Y-105000484D01*
X53792182Y-105004949D01*
X53620213Y-105129890D01*
X53469890Y-105280213D01*
X53344951Y-105452179D01*
X53248444Y-105641585D01*
X53182753Y-105843760D01*
X53149500Y-106053713D01*
X53149500Y-106266286D01*
X53167819Y-106381951D01*
X53182754Y-106476243D01*
X53230680Y-106623744D01*
X53248444Y-106678414D01*
X53344951Y-106867820D01*
X53469890Y-107039786D01*
X53620213Y-107190109D01*
X53792182Y-107315050D01*
X53800946Y-107319516D01*
X53851742Y-107367491D01*
X53868536Y-107435312D01*
X53845998Y-107501447D01*
X53800946Y-107540484D01*
X53792182Y-107544949D01*
X53620213Y-107669890D01*
X53469890Y-107820213D01*
X53344951Y-107992179D01*
X53248444Y-108181585D01*
X53182753Y-108383760D01*
X53149500Y-108593713D01*
X53149500Y-108806286D01*
X53182753Y-109016239D01*
X53248444Y-109218414D01*
X53344951Y-109407820D01*
X53469890Y-109579786D01*
X53620213Y-109730109D01*
X53792179Y-109855048D01*
X53792181Y-109855049D01*
X53792184Y-109855051D01*
X53801493Y-109859794D01*
X53852290Y-109907766D01*
X53869087Y-109975587D01*
X53846552Y-110041722D01*
X53801502Y-110080762D01*
X53792443Y-110085378D01*
X53620540Y-110210272D01*
X53620535Y-110210276D01*
X53470276Y-110360535D01*
X53470272Y-110360540D01*
X53345379Y-110532442D01*
X53248904Y-110721782D01*
X53183242Y-110923870D01*
X53183242Y-110923873D01*
X53172769Y-110990000D01*
X54066988Y-110990000D01*
X54034075Y-111047007D01*
X54000000Y-111174174D01*
X54000000Y-111305826D01*
X54034075Y-111432993D01*
X54066988Y-111490000D01*
X53172769Y-111490000D01*
X53183242Y-111556126D01*
X53183242Y-111556129D01*
X53248904Y-111758217D01*
X53345379Y-111947557D01*
X53470272Y-112119459D01*
X53470276Y-112119464D01*
X53620535Y-112269723D01*
X53620540Y-112269727D01*
X53792444Y-112394622D01*
X53802048Y-112399516D01*
X53852844Y-112447491D01*
X53869638Y-112515312D01*
X53847100Y-112581447D01*
X53802048Y-112620484D01*
X53792444Y-112625377D01*
X53620540Y-112750272D01*
X53620535Y-112750276D01*
X53470276Y-112900535D01*
X53470272Y-112900540D01*
X53345379Y-113072442D01*
X53248904Y-113261782D01*
X53183242Y-113463870D01*
X53183242Y-113463873D01*
X53172769Y-113530000D01*
X54066988Y-113530000D01*
X54034075Y-113587007D01*
X54000000Y-113714174D01*
X54000000Y-113845826D01*
X54034075Y-113972993D01*
X54066988Y-114030000D01*
X53172769Y-114030000D01*
X53183242Y-114096126D01*
X53183242Y-114096129D01*
X53248904Y-114298217D01*
X53345379Y-114487557D01*
X53470272Y-114659459D01*
X53470276Y-114659464D01*
X53620535Y-114809723D01*
X53620540Y-114809727D01*
X53792442Y-114934620D01*
X53981782Y-115031095D01*
X54183871Y-115096757D01*
X54250000Y-115107231D01*
X54250000Y-114213012D01*
X54307007Y-114245925D01*
X54434174Y-114280000D01*
X54565826Y-114280000D01*
X54692993Y-114245925D01*
X54750000Y-114213012D01*
X54750000Y-115107230D01*
X54816126Y-115096757D01*
X54816129Y-115096757D01*
X55018217Y-115031095D01*
X55207557Y-114934620D01*
X55379459Y-114809727D01*
X55379464Y-114809723D01*
X55529723Y-114659464D01*
X55529727Y-114659459D01*
X55654620Y-114487557D01*
X55751095Y-114298217D01*
X55816757Y-114096129D01*
X55816757Y-114096126D01*
X55827231Y-114030000D01*
X54933012Y-114030000D01*
X54965925Y-113972993D01*
X55000000Y-113845826D01*
X55000000Y-113714174D01*
X54965925Y-113587007D01*
X54933012Y-113530000D01*
X55827231Y-113530000D01*
X55816757Y-113463873D01*
X55816757Y-113463870D01*
X55751095Y-113261782D01*
X55654620Y-113072442D01*
X55529727Y-112900540D01*
X55529723Y-112900535D01*
X55379464Y-112750276D01*
X55379459Y-112750272D01*
X55242585Y-112650827D01*
X55186003Y-112613531D01*
X55167725Y-112591937D01*
X55147157Y-112572512D01*
X55145450Y-112565620D01*
X55140863Y-112560201D01*
X55137161Y-112532151D01*
X55130361Y-112504692D01*
X55132650Y-112497971D01*
X55131722Y-112490932D01*
X55143771Y-112465335D01*
X55152897Y-112438556D01*
X55158776Y-112433460D01*
X55161481Y-112427717D01*
X55175646Y-112418843D01*
X55197954Y-112399514D01*
X55207558Y-112394620D01*
X55379459Y-112269727D01*
X55379464Y-112269723D01*
X55529723Y-112119464D01*
X55529727Y-112119459D01*
X55654620Y-111947557D01*
X55751095Y-111758217D01*
X55816757Y-111556129D01*
X55816757Y-111556126D01*
X55827231Y-111490000D01*
X54933012Y-111490000D01*
X54965925Y-111432993D01*
X55000000Y-111305826D01*
X55000000Y-111174174D01*
X54965925Y-111047007D01*
X54933012Y-110990000D01*
X55827231Y-110990000D01*
X55816757Y-110923873D01*
X55816757Y-110923870D01*
X55751095Y-110721782D01*
X55654620Y-110532442D01*
X55529727Y-110360540D01*
X55529723Y-110360535D01*
X55379464Y-110210276D01*
X55379459Y-110210272D01*
X55207555Y-110085377D01*
X55198500Y-110080763D01*
X55147706Y-110032788D01*
X55130912Y-109964966D01*
X55153451Y-109898832D01*
X55198508Y-109859793D01*
X55207816Y-109855051D01*
X55287007Y-109797515D01*
X55379786Y-109730109D01*
X55379788Y-109730106D01*
X55379792Y-109730104D01*
X55530104Y-109579792D01*
X55530106Y-109579788D01*
X55530109Y-109579786D01*
X55655048Y-109407820D01*
X55655047Y-109407820D01*
X55655051Y-109407816D01*
X55751557Y-109218412D01*
X55817246Y-109016243D01*
X55850500Y-108806287D01*
X55850500Y-108593713D01*
X55817246Y-108383757D01*
X55751557Y-108181588D01*
X55655051Y-107992184D01*
X55655049Y-107992181D01*
X55655048Y-107992179D01*
X55530109Y-107820213D01*
X55379786Y-107669890D01*
X55207820Y-107544951D01*
X55207115Y-107544591D01*
X55199054Y-107540485D01*
X55148259Y-107492512D01*
X55131463Y-107424692D01*
X55153999Y-107358556D01*
X55199054Y-107319515D01*
X55207816Y-107315051D01*
X55234247Y-107295848D01*
X55379786Y-107190109D01*
X55379788Y-107190106D01*
X55379792Y-107190104D01*
X55530104Y-107039792D01*
X55530106Y-107039788D01*
X55530109Y-107039786D01*
X55655050Y-106867817D01*
X55659375Y-106859330D01*
X55693000Y-106793335D01*
X55740974Y-106742540D01*
X55808795Y-106725744D01*
X55874930Y-106748281D01*
X55918382Y-106802995D01*
X55923260Y-106817536D01*
X55934457Y-106859323D01*
X55934459Y-106859330D01*
X56027786Y-107084640D01*
X56027791Y-107084651D01*
X56149727Y-107295848D01*
X56149738Y-107295864D01*
X56298199Y-107489343D01*
X56298205Y-107489350D01*
X56470649Y-107661794D01*
X56470655Y-107661799D01*
X56664144Y-107810268D01*
X56664151Y-107810272D01*
X56875348Y-107932208D01*
X56875353Y-107932210D01*
X56875356Y-107932212D01*
X57100679Y-108025544D01*
X57336256Y-108088666D01*
X57578056Y-108120500D01*
X57578063Y-108120500D01*
X57821937Y-108120500D01*
X57821944Y-108120500D01*
X58063744Y-108088666D01*
X58299321Y-108025544D01*
X58524644Y-107932212D01*
X58735856Y-107810268D01*
X58929345Y-107661799D01*
X59101799Y-107489345D01*
X59250268Y-107295856D01*
X59372212Y-107084644D01*
X59465544Y-106859321D01*
X59528666Y-106623744D01*
X59560500Y-106381944D01*
X59560500Y-106009097D01*
X59580185Y-105942058D01*
X59632989Y-105896303D01*
X59702147Y-105886359D01*
X59765703Y-105915384D01*
X59772181Y-105921416D01*
X61863181Y-108012416D01*
X61896666Y-108073739D01*
X61899500Y-108100097D01*
X61899500Y-112158164D01*
X61879815Y-112225203D01*
X61831796Y-112268648D01*
X61765976Y-112302185D01*
X61587641Y-112431752D01*
X61587635Y-112431757D01*
X61566207Y-112453185D01*
X61504884Y-112486669D01*
X61435192Y-112481683D01*
X61379259Y-112439810D01*
X61362346Y-112408834D01*
X61343355Y-112357915D01*
X61343350Y-112357906D01*
X61257190Y-112242812D01*
X61257187Y-112242809D01*
X61142093Y-112156649D01*
X61142086Y-112156645D01*
X61007379Y-112106403D01*
X61007372Y-112106401D01*
X60947844Y-112100000D01*
X60250000Y-112100000D01*
X60250000Y-113066988D01*
X60192993Y-113034075D01*
X60065826Y-113000000D01*
X59934174Y-113000000D01*
X59807007Y-113034075D01*
X59750000Y-113066988D01*
X59750000Y-112100000D01*
X59052155Y-112100000D01*
X58992627Y-112106401D01*
X58992620Y-112106403D01*
X58857913Y-112156645D01*
X58857906Y-112156649D01*
X58742812Y-112242809D01*
X58742809Y-112242812D01*
X58656649Y-112357906D01*
X58656645Y-112357913D01*
X58606403Y-112492620D01*
X58606401Y-112492627D01*
X58600000Y-112552155D01*
X58600000Y-113250000D01*
X59566988Y-113250000D01*
X59534075Y-113307007D01*
X59500000Y-113434174D01*
X59500000Y-113565826D01*
X59534075Y-113692993D01*
X59566988Y-113750000D01*
X58600000Y-113750000D01*
X58600000Y-114447844D01*
X58606401Y-114507372D01*
X58606403Y-114507379D01*
X58656645Y-114642086D01*
X58656649Y-114642093D01*
X58742809Y-114757187D01*
X58742812Y-114757190D01*
X58857906Y-114843350D01*
X58857913Y-114843354D01*
X58992620Y-114893596D01*
X58992627Y-114893598D01*
X59052155Y-114899999D01*
X59052172Y-114900000D01*
X59750000Y-114900000D01*
X59750000Y-113933012D01*
X59807007Y-113965925D01*
X59934174Y-114000000D01*
X60065826Y-114000000D01*
X60192993Y-113965925D01*
X60250000Y-113933012D01*
X60250000Y-114900000D01*
X60947828Y-114900000D01*
X60947844Y-114899999D01*
X61007372Y-114893598D01*
X61007379Y-114893596D01*
X61142086Y-114843354D01*
X61142093Y-114843350D01*
X61257187Y-114757190D01*
X61257190Y-114757187D01*
X61343350Y-114642093D01*
X61343353Y-114642088D01*
X61362345Y-114591166D01*
X61404215Y-114535232D01*
X61469679Y-114510813D01*
X61537952Y-114525663D01*
X61566209Y-114546816D01*
X61587636Y-114568243D01*
X61587641Y-114568247D01*
X61713185Y-114659459D01*
X61765978Y-114697815D01*
X61882501Y-114757187D01*
X61962393Y-114797895D01*
X61962396Y-114797896D01*
X62029525Y-114819707D01*
X62172049Y-114866015D01*
X62389778Y-114900500D01*
X62389779Y-114900500D01*
X62610221Y-114900500D01*
X62610222Y-114900500D01*
X62827951Y-114866015D01*
X63037606Y-114797895D01*
X63234022Y-114697815D01*
X63412365Y-114568242D01*
X63568242Y-114412365D01*
X63649682Y-114300270D01*
X63705011Y-114257606D01*
X63774624Y-114251627D01*
X63836420Y-114284232D01*
X63850313Y-114300265D01*
X63931758Y-114412365D01*
X64087636Y-114568243D01*
X64087641Y-114568247D01*
X64213185Y-114659459D01*
X64265978Y-114697815D01*
X64382501Y-114757187D01*
X64462393Y-114797895D01*
X64462396Y-114797896D01*
X64529525Y-114819707D01*
X64672049Y-114866015D01*
X64889778Y-114900500D01*
X64889779Y-114900500D01*
X65110221Y-114900500D01*
X65110222Y-114900500D01*
X65327951Y-114866015D01*
X65398205Y-114843187D01*
X65413417Y-114842753D01*
X65427676Y-114837435D01*
X65447628Y-114841775D01*
X65468044Y-114841192D01*
X65482132Y-114849281D01*
X65495949Y-114852287D01*
X65524203Y-114873438D01*
X65673181Y-115022416D01*
X65706666Y-115083739D01*
X65709500Y-115110097D01*
X65709500Y-117020397D01*
X65689815Y-117087436D01*
X65641800Y-117130879D01*
X65628389Y-117137712D01*
X65462786Y-117258028D01*
X65318028Y-117402786D01*
X65197715Y-117568386D01*
X65104781Y-117750776D01*
X65041522Y-117945465D01*
X65009500Y-118147648D01*
X65009500Y-118352351D01*
X65041522Y-118554534D01*
X65104781Y-118749223D01*
X65197715Y-118931613D01*
X65318028Y-119097213D01*
X65462786Y-119241971D01*
X65617749Y-119354556D01*
X65628390Y-119362287D01*
X65744607Y-119421503D01*
X65810776Y-119455218D01*
X65810778Y-119455218D01*
X65810781Y-119455220D01*
X65915137Y-119489127D01*
X66005465Y-119518477D01*
X66106557Y-119534488D01*
X66207648Y-119550500D01*
X66207649Y-119550500D01*
X66412351Y-119550500D01*
X66412352Y-119550500D01*
X66614534Y-119518477D01*
X66809219Y-119455220D01*
X66991610Y-119362287D01*
X67084590Y-119294732D01*
X67157213Y-119241971D01*
X67157215Y-119241968D01*
X67157219Y-119241966D01*
X67301966Y-119097219D01*
X67301968Y-119097215D01*
X67301971Y-119097213D01*
X67389873Y-118976224D01*
X67422287Y-118931610D01*
X67515220Y-118749219D01*
X67578477Y-118554534D01*
X67610500Y-118352352D01*
X67610500Y-118147648D01*
X67586076Y-117993443D01*
X67578477Y-117945465D01*
X67515218Y-117750776D01*
X67481503Y-117684607D01*
X67422287Y-117568390D01*
X67414556Y-117557749D01*
X67301971Y-117402786D01*
X67157213Y-117258028D01*
X66991610Y-117137712D01*
X66978200Y-117130879D01*
X66927406Y-117082903D01*
X66910500Y-117020397D01*
X66910500Y-114899060D01*
X66910501Y-114899047D01*
X66910501Y-114730944D01*
X66901623Y-114697812D01*
X66869577Y-114578216D01*
X66869573Y-114578209D01*
X66790524Y-114441290D01*
X66790518Y-114441282D01*
X66373438Y-114024203D01*
X66339953Y-113962880D01*
X66343187Y-113898205D01*
X66366015Y-113827951D01*
X66400500Y-113610222D01*
X66400500Y-113389778D01*
X66366015Y-113172049D01*
X66297895Y-112962394D01*
X66297895Y-112962393D01*
X66263237Y-112894375D01*
X66197815Y-112765978D01*
X66149681Y-112699727D01*
X66068247Y-112587641D01*
X66068243Y-112587636D01*
X65912363Y-112431756D01*
X65912358Y-112431752D01*
X65734025Y-112302187D01*
X65734024Y-112302186D01*
X65734022Y-112302185D01*
X65668203Y-112268648D01*
X65537606Y-112202104D01*
X65537603Y-112202103D01*
X65327952Y-112133985D01*
X65219086Y-112116742D01*
X65110222Y-112099500D01*
X64889778Y-112099500D01*
X64817201Y-112110995D01*
X64672047Y-112133985D01*
X64462396Y-112202103D01*
X64462393Y-112202104D01*
X64265974Y-112302187D01*
X64087641Y-112431752D01*
X64087636Y-112431756D01*
X63931756Y-112587636D01*
X63931752Y-112587641D01*
X63850318Y-112699727D01*
X63794989Y-112742393D01*
X63725375Y-112748372D01*
X63663580Y-112715767D01*
X63649682Y-112699727D01*
X63568247Y-112587641D01*
X63568243Y-112587636D01*
X63412363Y-112431756D01*
X63412358Y-112431752D01*
X63234023Y-112302185D01*
X63168204Y-112268648D01*
X63117409Y-112220674D01*
X63100500Y-112158164D01*
X63100500Y-107889060D01*
X63100501Y-107889047D01*
X63100501Y-107720944D01*
X63100501Y-107720943D01*
X63059577Y-107568216D01*
X63043566Y-107540484D01*
X62980524Y-107431290D01*
X62980518Y-107431282D01*
X61250914Y-105701678D01*
X61167284Y-105618048D01*
X65439500Y-105618048D01*
X65439500Y-106381951D01*
X65466013Y-106583333D01*
X65471334Y-106623744D01*
X65516776Y-106793336D01*
X65534456Y-106859320D01*
X65534459Y-106859330D01*
X65627786Y-107084640D01*
X65627791Y-107084651D01*
X65749727Y-107295848D01*
X65749738Y-107295864D01*
X65898199Y-107489343D01*
X65898205Y-107489350D01*
X66070649Y-107661794D01*
X66070655Y-107661799D01*
X66264144Y-107810268D01*
X66264151Y-107810272D01*
X66475348Y-107932208D01*
X66475353Y-107932210D01*
X66475356Y-107932212D01*
X66700679Y-108025544D01*
X66936256Y-108088666D01*
X67178056Y-108120500D01*
X67178063Y-108120500D01*
X67421937Y-108120500D01*
X67421944Y-108120500D01*
X67663744Y-108088666D01*
X67899321Y-108025544D01*
X68124644Y-107932212D01*
X68335856Y-107810268D01*
X68529345Y-107661799D01*
X68701799Y-107489345D01*
X68850268Y-107295856D01*
X68972212Y-107084644D01*
X69065544Y-106859321D01*
X69128666Y-106623744D01*
X69160500Y-106381944D01*
X69160500Y-105618056D01*
X69128666Y-105376256D01*
X69065544Y-105140679D01*
X68972212Y-104915356D01*
X68972210Y-104915353D01*
X68972208Y-104915348D01*
X68850272Y-104704151D01*
X68850268Y-104704144D01*
X68701799Y-104510655D01*
X68701794Y-104510649D01*
X68529350Y-104338205D01*
X68529343Y-104338199D01*
X68335864Y-104189738D01*
X68335862Y-104189736D01*
X68335856Y-104189732D01*
X68335851Y-104189729D01*
X68335848Y-104189727D01*
X68124651Y-104067791D01*
X68124640Y-104067786D01*
X67899330Y-103974459D01*
X67899323Y-103974457D01*
X67899321Y-103974456D01*
X67663744Y-103911334D01*
X67623333Y-103906013D01*
X67421951Y-103879500D01*
X67421944Y-103879500D01*
X67178056Y-103879500D01*
X67178048Y-103879500D01*
X66947896Y-103909801D01*
X66936256Y-103911334D01*
X66800117Y-103947812D01*
X66700679Y-103974456D01*
X66700669Y-103974459D01*
X66475359Y-104067786D01*
X66475348Y-104067791D01*
X66264151Y-104189727D01*
X66264135Y-104189738D01*
X66070656Y-104338199D01*
X66070649Y-104338205D01*
X65898205Y-104510649D01*
X65898199Y-104510656D01*
X65749738Y-104704135D01*
X65749727Y-104704151D01*
X65627791Y-104915348D01*
X65627786Y-104915359D01*
X65534459Y-105140669D01*
X65534456Y-105140679D01*
X65471335Y-105376253D01*
X65471333Y-105376264D01*
X65439500Y-105618048D01*
X61167284Y-105618048D01*
X58807590Y-103258355D01*
X58807588Y-103258352D01*
X58688717Y-103139481D01*
X58688709Y-103139475D01*
X58582420Y-103078110D01*
X58582318Y-103078051D01*
X58582144Y-103077951D01*
X58551785Y-103060423D01*
X58399057Y-103019499D01*
X58240943Y-103019499D01*
X58233347Y-103019499D01*
X58233331Y-103019500D01*
X55785719Y-103019500D01*
X55718680Y-102999815D01*
X55675235Y-102951795D01*
X55655052Y-102912185D01*
X55655051Y-102912184D01*
X55530109Y-102740213D01*
X55379786Y-102589890D01*
X55207820Y-102464951D01*
X55207115Y-102464591D01*
X55199054Y-102460485D01*
X55148259Y-102412512D01*
X55131463Y-102344692D01*
X55153999Y-102278556D01*
X55199054Y-102239515D01*
X55207816Y-102235051D01*
X55239001Y-102212394D01*
X55379786Y-102110109D01*
X55379788Y-102110106D01*
X55379792Y-102110104D01*
X55530104Y-101959792D01*
X55530106Y-101959788D01*
X55530109Y-101959786D01*
X55655048Y-101787820D01*
X55655047Y-101787820D01*
X55655051Y-101787816D01*
X55751557Y-101598412D01*
X55817246Y-101396243D01*
X55850500Y-101186287D01*
X55850500Y-100973713D01*
X55817246Y-100763757D01*
X55751557Y-100561588D01*
X55655051Y-100372184D01*
X55655049Y-100372181D01*
X55655048Y-100372179D01*
X55530109Y-100200213D01*
X55379786Y-100049890D01*
X55207820Y-99924951D01*
X55207115Y-99924591D01*
X55199054Y-99920485D01*
X55148259Y-99872512D01*
X55131463Y-99804692D01*
X55153999Y-99738556D01*
X55199054Y-99699515D01*
X55207816Y-99695051D01*
X55229789Y-99679086D01*
X55379786Y-99570109D01*
X55379788Y-99570106D01*
X55379792Y-99570104D01*
X55530104Y-99419792D01*
X55530106Y-99419788D01*
X55530109Y-99419786D01*
X55655048Y-99247820D01*
X55655047Y-99247820D01*
X55655051Y-99247816D01*
X55751557Y-99058412D01*
X55817246Y-98856243D01*
X55850500Y-98646287D01*
X55850500Y-98433713D01*
X55817246Y-98223757D01*
X55751557Y-98021588D01*
X55655051Y-97832184D01*
X55655049Y-97832181D01*
X55655048Y-97832179D01*
X55530109Y-97660213D01*
X55416569Y-97546673D01*
X55383084Y-97485350D01*
X55388068Y-97415658D01*
X55429940Y-97359725D01*
X55460915Y-97342810D01*
X55592331Y-97293796D01*
X55707546Y-97207546D01*
X55793796Y-97092331D01*
X55844091Y-96957483D01*
X55850500Y-96897873D01*
X55850499Y-95102128D01*
X55844091Y-95042517D01*
X55793796Y-94907669D01*
X55793795Y-94907668D01*
X55793793Y-94907664D01*
X55707547Y-94792455D01*
X55707544Y-94792452D01*
X55592335Y-94706206D01*
X55592332Y-94706205D01*
X55592331Y-94706204D01*
X55581161Y-94702038D01*
X55525231Y-94660166D01*
X55500816Y-94594701D01*
X55500500Y-94585858D01*
X55500500Y-94155781D01*
X55520185Y-94088742D01*
X55536814Y-94068105D01*
X58095350Y-91509568D01*
X79199500Y-91509568D01*
X79199500Y-91990431D01*
X79230942Y-92269494D01*
X79230945Y-92269512D01*
X79293439Y-92543317D01*
X79293443Y-92543329D01*
X79386200Y-92808411D01*
X79508053Y-93061442D01*
X79508055Y-93061445D01*
X79657477Y-93299248D01*
X79832584Y-93518825D01*
X80031175Y-93717416D01*
X80250752Y-93892523D01*
X80488555Y-94041945D01*
X80488557Y-94041946D01*
X80572900Y-94082563D01*
X80741592Y-94163801D01*
X80940680Y-94233465D01*
X81006670Y-94256556D01*
X81006682Y-94256560D01*
X81280491Y-94319055D01*
X81280497Y-94319055D01*
X81280505Y-94319057D01*
X81466547Y-94340018D01*
X81559569Y-94350499D01*
X81559572Y-94350500D01*
X81559575Y-94350500D01*
X81840428Y-94350500D01*
X81840429Y-94350499D01*
X81983055Y-94334429D01*
X82119494Y-94319057D01*
X82119499Y-94319056D01*
X82119509Y-94319055D01*
X82393318Y-94256560D01*
X82658408Y-94163801D01*
X82911445Y-94041945D01*
X83149248Y-93892523D01*
X83368825Y-93717416D01*
X83567416Y-93518825D01*
X83742523Y-93299248D01*
X83891945Y-93061445D01*
X84013801Y-92808408D01*
X84106560Y-92543318D01*
X84169055Y-92269509D01*
X84200500Y-91990425D01*
X84200500Y-91509575D01*
X84169055Y-91230491D01*
X84106560Y-90956682D01*
X84013801Y-90691592D01*
X83891945Y-90438555D01*
X83742523Y-90200752D01*
X83567416Y-89981175D01*
X83368825Y-89782584D01*
X83149248Y-89607477D01*
X82911445Y-89458055D01*
X82911442Y-89458053D01*
X82658411Y-89336200D01*
X82393329Y-89243443D01*
X82393317Y-89243439D01*
X82119512Y-89180945D01*
X82119494Y-89180942D01*
X81840431Y-89149500D01*
X81840425Y-89149500D01*
X81559575Y-89149500D01*
X81559568Y-89149500D01*
X81280505Y-89180942D01*
X81280487Y-89180945D01*
X81006682Y-89243439D01*
X81006670Y-89243443D01*
X80741588Y-89336200D01*
X80488557Y-89458053D01*
X80250753Y-89607476D01*
X80031175Y-89782583D01*
X79832583Y-89981175D01*
X79657476Y-90200753D01*
X79508053Y-90438557D01*
X79386200Y-90691588D01*
X79293443Y-90956670D01*
X79293439Y-90956682D01*
X79230945Y-91230487D01*
X79230942Y-91230505D01*
X79199500Y-91509568D01*
X58095350Y-91509568D01*
X58778203Y-90826715D01*
X58839524Y-90793232D01*
X58846473Y-90791927D01*
X58994534Y-90768477D01*
X59189219Y-90705220D01*
X59371610Y-90612287D01*
X59464590Y-90544732D01*
X59537213Y-90491971D01*
X59537215Y-90491968D01*
X59537219Y-90491966D01*
X59681966Y-90347219D01*
X59681968Y-90347215D01*
X59681971Y-90347213D01*
X59769873Y-90226224D01*
X59802287Y-90181610D01*
X59895220Y-89999219D01*
X59958477Y-89804534D01*
X59990500Y-89602352D01*
X59990500Y-89397648D01*
X59966076Y-89243443D01*
X59958477Y-89195465D01*
X59895218Y-89000776D01*
X59861503Y-88934607D01*
X59802287Y-88818390D01*
X59794556Y-88807749D01*
X59681971Y-88652786D01*
X59537213Y-88508028D01*
X59371613Y-88387715D01*
X59371612Y-88387714D01*
X59371610Y-88387713D01*
X59314653Y-88358691D01*
X59189223Y-88294781D01*
X58994534Y-88231522D01*
X58819995Y-88203878D01*
X58792352Y-88199500D01*
X58587648Y-88199500D01*
X58563329Y-88203351D01*
X58385465Y-88231522D01*
X58190776Y-88294781D01*
X58008386Y-88387715D01*
X57842786Y-88508028D01*
X57698028Y-88652786D01*
X57577715Y-88818386D01*
X57484781Y-89000778D01*
X57421522Y-89195468D01*
X57398073Y-89343515D01*
X57368143Y-89406649D01*
X57363281Y-89411797D01*
X54161181Y-92613898D01*
X54099858Y-92647383D01*
X54030166Y-92642399D01*
X53974233Y-92600527D01*
X53949816Y-92535063D01*
X53949500Y-92526217D01*
X53949500Y-83802155D01*
X58600000Y-83802155D01*
X58600000Y-84500000D01*
X59566988Y-84500000D01*
X59534075Y-84557007D01*
X59500000Y-84684174D01*
X59500000Y-84815826D01*
X59534075Y-84942993D01*
X59566988Y-85000000D01*
X58600000Y-85000000D01*
X58600000Y-85697844D01*
X58606401Y-85757372D01*
X58606403Y-85757379D01*
X58656645Y-85892086D01*
X58656649Y-85892093D01*
X58742809Y-86007187D01*
X58742812Y-86007190D01*
X58857906Y-86093350D01*
X58857913Y-86093354D01*
X58992620Y-86143596D01*
X58992627Y-86143598D01*
X59052155Y-86149999D01*
X59052172Y-86150000D01*
X59750000Y-86150000D01*
X59750000Y-85183012D01*
X59807007Y-85215925D01*
X59934174Y-85250000D01*
X60065826Y-85250000D01*
X60192993Y-85215925D01*
X60250000Y-85183012D01*
X60250000Y-86150000D01*
X60947828Y-86150000D01*
X60947844Y-86149999D01*
X61007372Y-86143598D01*
X61007379Y-86143596D01*
X61142086Y-86093354D01*
X61142093Y-86093350D01*
X61257187Y-86007190D01*
X61257190Y-86007187D01*
X61343350Y-85892093D01*
X61343353Y-85892088D01*
X61362345Y-85841166D01*
X61404215Y-85785232D01*
X61469679Y-85760813D01*
X61537952Y-85775663D01*
X61566209Y-85796816D01*
X61587636Y-85818243D01*
X61587641Y-85818247D01*
X61743192Y-85931260D01*
X61765978Y-85947815D01*
X61882501Y-86007187D01*
X61962393Y-86047895D01*
X61962396Y-86047896D01*
X62029525Y-86069707D01*
X62172049Y-86116015D01*
X62389778Y-86150500D01*
X62389779Y-86150500D01*
X62610221Y-86150500D01*
X62610222Y-86150500D01*
X62827951Y-86116015D01*
X63037606Y-86047895D01*
X63234022Y-85947815D01*
X63412365Y-85818242D01*
X63568242Y-85662365D01*
X63649682Y-85550270D01*
X63705011Y-85507606D01*
X63774624Y-85501627D01*
X63836420Y-85534232D01*
X63850313Y-85550265D01*
X63931758Y-85662365D01*
X64087636Y-85818243D01*
X64087641Y-85818247D01*
X64243192Y-85931260D01*
X64265978Y-85947815D01*
X64382501Y-86007187D01*
X64462393Y-86047895D01*
X64462396Y-86047896D01*
X64529525Y-86069707D01*
X64672049Y-86116015D01*
X64889778Y-86150500D01*
X64889779Y-86150500D01*
X65110221Y-86150500D01*
X65110222Y-86150500D01*
X65327951Y-86116015D01*
X65398205Y-86093187D01*
X65413417Y-86092753D01*
X65427676Y-86087435D01*
X65447628Y-86091775D01*
X65468044Y-86091192D01*
X65482132Y-86099281D01*
X65495949Y-86102287D01*
X65524203Y-86123438D01*
X65673181Y-86272416D01*
X65706666Y-86333739D01*
X65709500Y-86360097D01*
X65709500Y-88270397D01*
X65689815Y-88337436D01*
X65641800Y-88380879D01*
X65628389Y-88387712D01*
X65462786Y-88508028D01*
X65318028Y-88652786D01*
X65197715Y-88818386D01*
X65104781Y-89000776D01*
X65041522Y-89195465D01*
X65009500Y-89397648D01*
X65009500Y-89602351D01*
X65041522Y-89804534D01*
X65104781Y-89999223D01*
X65197715Y-90181613D01*
X65318028Y-90347213D01*
X65462786Y-90491971D01*
X65617749Y-90604556D01*
X65628390Y-90612287D01*
X65744607Y-90671503D01*
X65810776Y-90705218D01*
X65810778Y-90705218D01*
X65810781Y-90705220D01*
X65915137Y-90739127D01*
X66005465Y-90768477D01*
X66106557Y-90784488D01*
X66207648Y-90800500D01*
X66207649Y-90800500D01*
X66412351Y-90800500D01*
X66412352Y-90800500D01*
X66614534Y-90768477D01*
X66809219Y-90705220D01*
X66991610Y-90612287D01*
X67084590Y-90544732D01*
X67157213Y-90491971D01*
X67157215Y-90491968D01*
X67157219Y-90491966D01*
X67301966Y-90347219D01*
X67301968Y-90347215D01*
X67301971Y-90347213D01*
X67389873Y-90226224D01*
X67422287Y-90181610D01*
X67515220Y-89999219D01*
X67578477Y-89804534D01*
X67610500Y-89602352D01*
X67610500Y-89397648D01*
X67586076Y-89243443D01*
X67578477Y-89195465D01*
X67515218Y-89000776D01*
X67481503Y-88934607D01*
X67422287Y-88818390D01*
X67414556Y-88807749D01*
X67301971Y-88652786D01*
X67157213Y-88508028D01*
X66991610Y-88387712D01*
X66978200Y-88380879D01*
X66927406Y-88332903D01*
X66910500Y-88270397D01*
X66910500Y-86149060D01*
X66910501Y-86149047D01*
X66910501Y-85980944D01*
X66886693Y-85892093D01*
X66869577Y-85828216D01*
X66869573Y-85828209D01*
X66790524Y-85691290D01*
X66790518Y-85691282D01*
X66373438Y-85274203D01*
X66339953Y-85212880D01*
X66343187Y-85148205D01*
X66366015Y-85077951D01*
X66400500Y-84860222D01*
X66400500Y-84639778D01*
X66366015Y-84422049D01*
X66297895Y-84212394D01*
X66297895Y-84212393D01*
X66263237Y-84144375D01*
X66197815Y-84015978D01*
X66149681Y-83949727D01*
X66068247Y-83837641D01*
X66068243Y-83837636D01*
X65912363Y-83681756D01*
X65912358Y-83681752D01*
X65734025Y-83552187D01*
X65734024Y-83552186D01*
X65734022Y-83552185D01*
X65671096Y-83520122D01*
X65537606Y-83452104D01*
X65537603Y-83452103D01*
X65327952Y-83383985D01*
X65219086Y-83366742D01*
X65110222Y-83349500D01*
X64889778Y-83349500D01*
X64817201Y-83360995D01*
X64672047Y-83383985D01*
X64462396Y-83452103D01*
X64462393Y-83452104D01*
X64265974Y-83552187D01*
X64087641Y-83681752D01*
X64087636Y-83681756D01*
X63931756Y-83837636D01*
X63931752Y-83837641D01*
X63850318Y-83949727D01*
X63794989Y-83992393D01*
X63725375Y-83998372D01*
X63663580Y-83965767D01*
X63649682Y-83949727D01*
X63568247Y-83837641D01*
X63568243Y-83837636D01*
X63412363Y-83681756D01*
X63412358Y-83681752D01*
X63234025Y-83552187D01*
X63234024Y-83552186D01*
X63234022Y-83552185D01*
X63171096Y-83520122D01*
X63037606Y-83452104D01*
X63037603Y-83452103D01*
X62827952Y-83383985D01*
X62719086Y-83366742D01*
X62610222Y-83349500D01*
X62389778Y-83349500D01*
X62317201Y-83360995D01*
X62172047Y-83383985D01*
X61962396Y-83452103D01*
X61962393Y-83452104D01*
X61765974Y-83552187D01*
X61587641Y-83681752D01*
X61587635Y-83681757D01*
X61566207Y-83703185D01*
X61504884Y-83736669D01*
X61435192Y-83731683D01*
X61379259Y-83689810D01*
X61362346Y-83658834D01*
X61343355Y-83607915D01*
X61343350Y-83607906D01*
X61257190Y-83492812D01*
X61257187Y-83492809D01*
X61142093Y-83406649D01*
X61142086Y-83406645D01*
X61007379Y-83356403D01*
X61007372Y-83356401D01*
X60947844Y-83350000D01*
X60250000Y-83350000D01*
X60250000Y-84316988D01*
X60192993Y-84284075D01*
X60065826Y-84250000D01*
X59934174Y-84250000D01*
X59807007Y-84284075D01*
X59750000Y-84316988D01*
X59750000Y-83350000D01*
X59052155Y-83350000D01*
X58992627Y-83356401D01*
X58992620Y-83356403D01*
X58857913Y-83406645D01*
X58857906Y-83406649D01*
X58742812Y-83492809D01*
X58742809Y-83492812D01*
X58656649Y-83607906D01*
X58656645Y-83607913D01*
X58606403Y-83742620D01*
X58606401Y-83742627D01*
X58600000Y-83802155D01*
X53949500Y-83802155D01*
X53949500Y-76868048D01*
X55839500Y-76868048D01*
X55839500Y-77631951D01*
X55865804Y-77831738D01*
X55871334Y-77873744D01*
X55934456Y-78109320D01*
X55934459Y-78109330D01*
X56027786Y-78334640D01*
X56027791Y-78334651D01*
X56149727Y-78545848D01*
X56149738Y-78545864D01*
X56298199Y-78739343D01*
X56298205Y-78739350D01*
X56470649Y-78911794D01*
X56470656Y-78911800D01*
X56591716Y-79004692D01*
X56664144Y-79060268D01*
X56664151Y-79060272D01*
X56875348Y-79182208D01*
X56875353Y-79182210D01*
X56875356Y-79182212D01*
X57100679Y-79275544D01*
X57336256Y-79338666D01*
X57578056Y-79370500D01*
X57578063Y-79370500D01*
X57821937Y-79370500D01*
X57821944Y-79370500D01*
X58063744Y-79338666D01*
X58299321Y-79275544D01*
X58524644Y-79182212D01*
X58735856Y-79060268D01*
X58929345Y-78911799D01*
X59101799Y-78739345D01*
X59250268Y-78545856D01*
X59372212Y-78334644D01*
X59465544Y-78109321D01*
X59528666Y-77873744D01*
X59560500Y-77631944D01*
X59560500Y-76868056D01*
X59560499Y-76868048D01*
X65439500Y-76868048D01*
X65439500Y-77631951D01*
X65465804Y-77831738D01*
X65471334Y-77873744D01*
X65534456Y-78109320D01*
X65534459Y-78109330D01*
X65627786Y-78334640D01*
X65627791Y-78334651D01*
X65749727Y-78545848D01*
X65749738Y-78545864D01*
X65898199Y-78739343D01*
X65898205Y-78739350D01*
X66070649Y-78911794D01*
X66070656Y-78911800D01*
X66191716Y-79004692D01*
X66264144Y-79060268D01*
X66264151Y-79060272D01*
X66475348Y-79182208D01*
X66475353Y-79182210D01*
X66475356Y-79182212D01*
X66700679Y-79275544D01*
X66936256Y-79338666D01*
X67178056Y-79370500D01*
X67178063Y-79370500D01*
X67421937Y-79370500D01*
X67421944Y-79370500D01*
X67663744Y-79338666D01*
X67899321Y-79275544D01*
X68124644Y-79182212D01*
X68335856Y-79060268D01*
X68529345Y-78911799D01*
X68701799Y-78739345D01*
X68850268Y-78545856D01*
X68972212Y-78334644D01*
X69065544Y-78109321D01*
X69128666Y-77873744D01*
X69160500Y-77631944D01*
X69160500Y-76868056D01*
X69159510Y-76860540D01*
X69148115Y-76773986D01*
X69128666Y-76626256D01*
X69065544Y-76390679D01*
X68972212Y-76165356D01*
X68972210Y-76165353D01*
X68972208Y-76165348D01*
X68850272Y-75954151D01*
X68850268Y-75954144D01*
X68746101Y-75818390D01*
X68701800Y-75760656D01*
X68701794Y-75760649D01*
X68529350Y-75588205D01*
X68529343Y-75588199D01*
X68335864Y-75439738D01*
X68335862Y-75439736D01*
X68335856Y-75439732D01*
X68335851Y-75439729D01*
X68335848Y-75439727D01*
X68124651Y-75317791D01*
X68124640Y-75317786D01*
X67899330Y-75224459D01*
X67899323Y-75224457D01*
X67899321Y-75224456D01*
X67663744Y-75161334D01*
X67623333Y-75156013D01*
X67421951Y-75129500D01*
X67421944Y-75129500D01*
X67178056Y-75129500D01*
X67178048Y-75129500D01*
X66947896Y-75159801D01*
X66936256Y-75161334D01*
X66887877Y-75174297D01*
X66700679Y-75224456D01*
X66700669Y-75224459D01*
X66475359Y-75317786D01*
X66475348Y-75317791D01*
X66264151Y-75439727D01*
X66264135Y-75439738D01*
X66070656Y-75588199D01*
X66070649Y-75588205D01*
X65898205Y-75760649D01*
X65898199Y-75760656D01*
X65749738Y-75954135D01*
X65749727Y-75954151D01*
X65627791Y-76165348D01*
X65627786Y-76165359D01*
X65534459Y-76390669D01*
X65534456Y-76390679D01*
X65482288Y-76585377D01*
X65471335Y-76626253D01*
X65471333Y-76626264D01*
X65439500Y-76868048D01*
X59560499Y-76868048D01*
X59559510Y-76860540D01*
X59548115Y-76773986D01*
X59528666Y-76626256D01*
X59465544Y-76390679D01*
X59372212Y-76165356D01*
X59372210Y-76165353D01*
X59372208Y-76165348D01*
X59250272Y-75954151D01*
X59250268Y-75954144D01*
X59146101Y-75818390D01*
X59101800Y-75760656D01*
X59101794Y-75760649D01*
X58929350Y-75588205D01*
X58929343Y-75588199D01*
X58735864Y-75439738D01*
X58735862Y-75439736D01*
X58735856Y-75439732D01*
X58735851Y-75439729D01*
X58735848Y-75439727D01*
X58524651Y-75317791D01*
X58524640Y-75317786D01*
X58299330Y-75224459D01*
X58299323Y-75224457D01*
X58299321Y-75224456D01*
X58063744Y-75161334D01*
X58023333Y-75156013D01*
X57821951Y-75129500D01*
X57821944Y-75129500D01*
X57578056Y-75129500D01*
X57578048Y-75129500D01*
X57347896Y-75159801D01*
X57336256Y-75161334D01*
X57287877Y-75174297D01*
X57100679Y-75224456D01*
X57100669Y-75224459D01*
X56875359Y-75317786D01*
X56875348Y-75317791D01*
X56664151Y-75439727D01*
X56664135Y-75439738D01*
X56470656Y-75588199D01*
X56470649Y-75588205D01*
X56298205Y-75760649D01*
X56298199Y-75760656D01*
X56149738Y-75954135D01*
X56149727Y-75954151D01*
X56027791Y-76165348D01*
X56027786Y-76165359D01*
X55934459Y-76390669D01*
X55934456Y-76390679D01*
X55882288Y-76585377D01*
X55871335Y-76626253D01*
X55871333Y-76626264D01*
X55839500Y-76868048D01*
X53949500Y-76868048D01*
X53949500Y-56916245D01*
X53969185Y-56849206D01*
X54021989Y-56803451D01*
X54091147Y-56793507D01*
X54154703Y-56822532D01*
X54192477Y-56881310D01*
X54196439Y-56900060D01*
X54219017Y-57071561D01*
X54283498Y-57312207D01*
X54378830Y-57542361D01*
X54378837Y-57542376D01*
X54503400Y-57758126D01*
X54655060Y-57955774D01*
X54655066Y-57955781D01*
X54831218Y-58131933D01*
X54831225Y-58131939D01*
X55028873Y-58283599D01*
X55244623Y-58408162D01*
X55244638Y-58408169D01*
X55305552Y-58433400D01*
X55474793Y-58503502D01*
X55715435Y-58567982D01*
X55962435Y-58600500D01*
X55962442Y-58600500D01*
X56211558Y-58600500D01*
X56211565Y-58600500D01*
X56458565Y-58567982D01*
X56699207Y-58503502D01*
X56864535Y-58435020D01*
X56934000Y-58427552D01*
X56996479Y-58458827D01*
X56999665Y-58461901D01*
X58553181Y-60015416D01*
X58586666Y-60076739D01*
X58589500Y-60103097D01*
X58589500Y-63270397D01*
X58569815Y-63337436D01*
X58521800Y-63380879D01*
X58508389Y-63387712D01*
X58342786Y-63508028D01*
X58198028Y-63652786D01*
X58077715Y-63818386D01*
X57984781Y-64000776D01*
X57921522Y-64195465D01*
X57889500Y-64397648D01*
X57889500Y-64602351D01*
X57921522Y-64804534D01*
X57984781Y-64999223D01*
X58048691Y-65124653D01*
X58059714Y-65146286D01*
X58077715Y-65181613D01*
X58198028Y-65347213D01*
X58342786Y-65491971D01*
X58475036Y-65588054D01*
X58508390Y-65612287D01*
X58624607Y-65671503D01*
X58690776Y-65705218D01*
X58690778Y-65705218D01*
X58690781Y-65705220D01*
X58795137Y-65739127D01*
X58885465Y-65768477D01*
X58986557Y-65784488D01*
X59087648Y-65800500D01*
X59087649Y-65800500D01*
X59292351Y-65800500D01*
X59292352Y-65800500D01*
X59494534Y-65768477D01*
X59689219Y-65705220D01*
X59871610Y-65612287D01*
X60006626Y-65514193D01*
X60037213Y-65491971D01*
X60037215Y-65491968D01*
X60037219Y-65491966D01*
X60181966Y-65347219D01*
X60181968Y-65347215D01*
X60181971Y-65347213D01*
X60234732Y-65274590D01*
X60302287Y-65181610D01*
X60395220Y-64999219D01*
X60458477Y-64804534D01*
X60490500Y-64602352D01*
X60490500Y-64397648D01*
X65509500Y-64397648D01*
X65509500Y-64602351D01*
X65541522Y-64804534D01*
X65604781Y-64999223D01*
X65668691Y-65124653D01*
X65679714Y-65146286D01*
X65697715Y-65181613D01*
X65818028Y-65347213D01*
X65962786Y-65491971D01*
X66095036Y-65588054D01*
X66128390Y-65612287D01*
X66244607Y-65671503D01*
X66310776Y-65705218D01*
X66310778Y-65705218D01*
X66310781Y-65705220D01*
X66415137Y-65739127D01*
X66505465Y-65768477D01*
X66606557Y-65784488D01*
X66707648Y-65800500D01*
X66707649Y-65800500D01*
X66912351Y-65800500D01*
X66912352Y-65800500D01*
X67114534Y-65768477D01*
X67309219Y-65705220D01*
X67491610Y-65612287D01*
X67626626Y-65514193D01*
X67657213Y-65491971D01*
X67657215Y-65491968D01*
X67657219Y-65491966D01*
X67801966Y-65347219D01*
X67801968Y-65347215D01*
X67801971Y-65347213D01*
X67854732Y-65274590D01*
X67922287Y-65181610D01*
X68015220Y-64999219D01*
X68078477Y-64804534D01*
X68110500Y-64602352D01*
X68110500Y-64397648D01*
X68078477Y-64195466D01*
X68015220Y-64000781D01*
X68015218Y-64000778D01*
X68015218Y-64000776D01*
X67981503Y-63934607D01*
X67922287Y-63818390D01*
X67904419Y-63793796D01*
X67801971Y-63652786D01*
X67657213Y-63508028D01*
X67491613Y-63387715D01*
X67491612Y-63387714D01*
X67491610Y-63387713D01*
X67434653Y-63358691D01*
X67309223Y-63294781D01*
X67114534Y-63231522D01*
X66933484Y-63202847D01*
X66912352Y-63199500D01*
X66707648Y-63199500D01*
X66686516Y-63202847D01*
X66505465Y-63231522D01*
X66310776Y-63294781D01*
X66128386Y-63387715D01*
X65962786Y-63508028D01*
X65818028Y-63652786D01*
X65697715Y-63818386D01*
X65604781Y-64000776D01*
X65541522Y-64195465D01*
X65509500Y-64397648D01*
X60490500Y-64397648D01*
X60458477Y-64195466D01*
X60395220Y-64000781D01*
X60395218Y-64000778D01*
X60395218Y-64000776D01*
X60361503Y-63934607D01*
X60302287Y-63818390D01*
X60284419Y-63793796D01*
X60181971Y-63652786D01*
X60037213Y-63508028D01*
X59871610Y-63387712D01*
X59858200Y-63380879D01*
X59807406Y-63332903D01*
X59790500Y-63270397D01*
X59790500Y-59892060D01*
X59790501Y-59892047D01*
X59790501Y-59723944D01*
X59749576Y-59571214D01*
X59749573Y-59571209D01*
X59670524Y-59434290D01*
X59670518Y-59434282D01*
X57848901Y-57612665D01*
X57815416Y-57551342D01*
X57820400Y-57481650D01*
X57821993Y-57477602D01*
X57890502Y-57312207D01*
X57954982Y-57071565D01*
X57987500Y-56824565D01*
X57987500Y-56575441D01*
X59012500Y-56575441D01*
X59012500Y-56824558D01*
X59012501Y-56824575D01*
X59045017Y-57071561D01*
X59109498Y-57312207D01*
X59204830Y-57542361D01*
X59204837Y-57542376D01*
X59329400Y-57758126D01*
X59481060Y-57955774D01*
X59481066Y-57955781D01*
X59657218Y-58131933D01*
X59657225Y-58131939D01*
X59854873Y-58283599D01*
X60070623Y-58408162D01*
X60070638Y-58408169D01*
X60131552Y-58433400D01*
X60300793Y-58503502D01*
X60541435Y-58567982D01*
X60788435Y-58600500D01*
X60788442Y-58600500D01*
X61037558Y-58600500D01*
X61037565Y-58600500D01*
X61284565Y-58567982D01*
X61525207Y-58503502D01*
X61755373Y-58408164D01*
X61971127Y-58283599D01*
X62168776Y-58131938D01*
X62344938Y-57955776D01*
X62496599Y-57758127D01*
X62621164Y-57542373D01*
X62716502Y-57312207D01*
X62780982Y-57071565D01*
X62813500Y-56824565D01*
X62813500Y-56575435D01*
X62780982Y-56328435D01*
X62716502Y-56087793D01*
X62621164Y-55857627D01*
X62496599Y-55641873D01*
X62344938Y-55444224D01*
X62344933Y-55444218D01*
X62168781Y-55268066D01*
X62168774Y-55268060D01*
X61971126Y-55116400D01*
X61755376Y-54991837D01*
X61755361Y-54991830D01*
X61525207Y-54896498D01*
X61284561Y-54832017D01*
X61037575Y-54799501D01*
X61037570Y-54799500D01*
X61037565Y-54799500D01*
X60788435Y-54799500D01*
X60788429Y-54799500D01*
X60788424Y-54799501D01*
X60541438Y-54832017D01*
X60300792Y-54896498D01*
X60070638Y-54991830D01*
X60070623Y-54991837D01*
X59854873Y-55116400D01*
X59657225Y-55268060D01*
X59657218Y-55268066D01*
X59481066Y-55444218D01*
X59481060Y-55444225D01*
X59329400Y-55641873D01*
X59204837Y-55857623D01*
X59204830Y-55857638D01*
X59109498Y-56087792D01*
X59045017Y-56328438D01*
X59012501Y-56575424D01*
X59012500Y-56575441D01*
X57987500Y-56575441D01*
X57987500Y-56575435D01*
X57954982Y-56328435D01*
X57890502Y-56087793D01*
X57795164Y-55857627D01*
X57670599Y-55641873D01*
X57518938Y-55444224D01*
X57518933Y-55444218D01*
X57342781Y-55268066D01*
X57342774Y-55268060D01*
X57145126Y-55116400D01*
X56929376Y-54991837D01*
X56929361Y-54991830D01*
X56699207Y-54896498D01*
X56458561Y-54832017D01*
X56211575Y-54799501D01*
X56211570Y-54799500D01*
X56211565Y-54799500D01*
X55962435Y-54799500D01*
X55962429Y-54799500D01*
X55962424Y-54799501D01*
X55715438Y-54832017D01*
X55474792Y-54896498D01*
X55244638Y-54991830D01*
X55244623Y-54991837D01*
X55028873Y-55116400D01*
X54831225Y-55268060D01*
X54831218Y-55268066D01*
X54655066Y-55444218D01*
X54655060Y-55444225D01*
X54503400Y-55641873D01*
X54378837Y-55857623D01*
X54378830Y-55857638D01*
X54283498Y-56087792D01*
X54219017Y-56328438D01*
X54196439Y-56499939D01*
X54168173Y-56563836D01*
X54109848Y-56602307D01*
X54039983Y-56603138D01*
X53980760Y-56566066D01*
X53950981Y-56502860D01*
X53949500Y-56483754D01*
X53949500Y-52216245D01*
X53969185Y-52149206D01*
X54021989Y-52103451D01*
X54091147Y-52093507D01*
X54154703Y-52122532D01*
X54192477Y-52181310D01*
X54196439Y-52200060D01*
X54219017Y-52371561D01*
X54283498Y-52612207D01*
X54378830Y-52842361D01*
X54378837Y-52842376D01*
X54503400Y-53058126D01*
X54655060Y-53255774D01*
X54655066Y-53255781D01*
X54831218Y-53431933D01*
X54831225Y-53431939D01*
X55028873Y-53583599D01*
X55244623Y-53708162D01*
X55244638Y-53708169D01*
X55292083Y-53727821D01*
X55474793Y-53803502D01*
X55715435Y-53867982D01*
X55962435Y-53900500D01*
X55962442Y-53900500D01*
X56211558Y-53900500D01*
X56211565Y-53900500D01*
X56458565Y-53867982D01*
X56699207Y-53803502D01*
X56929373Y-53708164D01*
X57145127Y-53583599D01*
X57342776Y-53431938D01*
X57518938Y-53255776D01*
X57670599Y-53058127D01*
X57795164Y-52842373D01*
X57890502Y-52612207D01*
X57954982Y-52371565D01*
X57987500Y-52124565D01*
X57987500Y-51875441D01*
X59012500Y-51875441D01*
X59012500Y-52124558D01*
X59012501Y-52124575D01*
X59045017Y-52371561D01*
X59109498Y-52612207D01*
X59204830Y-52842361D01*
X59204837Y-52842376D01*
X59329400Y-53058126D01*
X59481060Y-53255774D01*
X59481066Y-53255781D01*
X59657218Y-53431933D01*
X59657225Y-53431939D01*
X59854873Y-53583599D01*
X60070623Y-53708162D01*
X60070638Y-53708169D01*
X60118083Y-53727821D01*
X60300793Y-53803502D01*
X60541435Y-53867982D01*
X60788435Y-53900500D01*
X60788442Y-53900500D01*
X61037558Y-53900500D01*
X61037565Y-53900500D01*
X61284565Y-53867982D01*
X61525207Y-53803502D01*
X61755373Y-53708164D01*
X61971127Y-53583599D01*
X62168776Y-53431938D01*
X62344938Y-53255776D01*
X62496599Y-53058127D01*
X62621164Y-52842373D01*
X62716502Y-52612207D01*
X62780982Y-52371565D01*
X62813500Y-52124565D01*
X62813500Y-51875435D01*
X62780982Y-51628435D01*
X62716502Y-51387793D01*
X62621164Y-51157627D01*
X62618490Y-51152996D01*
X62496599Y-50941873D01*
X62344939Y-50744225D01*
X62344933Y-50744218D01*
X62168781Y-50568066D01*
X62168774Y-50568060D01*
X61971126Y-50416400D01*
X61755376Y-50291837D01*
X61755361Y-50291830D01*
X61525207Y-50196498D01*
X61284561Y-50132017D01*
X61037575Y-50099501D01*
X61037570Y-50099500D01*
X61037565Y-50099500D01*
X60788435Y-50099500D01*
X60788429Y-50099500D01*
X60788424Y-50099501D01*
X60541438Y-50132017D01*
X60300792Y-50196498D01*
X60070638Y-50291830D01*
X60070623Y-50291837D01*
X59854873Y-50416400D01*
X59657225Y-50568060D01*
X59657218Y-50568066D01*
X59481066Y-50744218D01*
X59481060Y-50744225D01*
X59329400Y-50941873D01*
X59204837Y-51157623D01*
X59204830Y-51157638D01*
X59109498Y-51387792D01*
X59045017Y-51628438D01*
X59012501Y-51875424D01*
X59012500Y-51875441D01*
X57987500Y-51875441D01*
X57987500Y-51875435D01*
X57954982Y-51628435D01*
X57890502Y-51387793D01*
X57795164Y-51157627D01*
X57792490Y-51152996D01*
X57670599Y-50941873D01*
X57518939Y-50744225D01*
X57518933Y-50744218D01*
X57342781Y-50568066D01*
X57342774Y-50568060D01*
X57145126Y-50416400D01*
X56929376Y-50291837D01*
X56929361Y-50291830D01*
X56699207Y-50196498D01*
X56458561Y-50132017D01*
X56211575Y-50099501D01*
X56211570Y-50099500D01*
X56211565Y-50099500D01*
X55962435Y-50099500D01*
X55962429Y-50099500D01*
X55962424Y-50099501D01*
X55715438Y-50132017D01*
X55474792Y-50196498D01*
X55244638Y-50291830D01*
X55244623Y-50291837D01*
X55028873Y-50416400D01*
X54831225Y-50568060D01*
X54831218Y-50568066D01*
X54655066Y-50744218D01*
X54655060Y-50744225D01*
X54503400Y-50941873D01*
X54378837Y-51157623D01*
X54378830Y-51157638D01*
X54283498Y-51387792D01*
X54219017Y-51628438D01*
X54196439Y-51799939D01*
X54168173Y-51863836D01*
X54109848Y-51902307D01*
X54039983Y-51903138D01*
X53980760Y-51866066D01*
X53950981Y-51802860D01*
X53949500Y-51783754D01*
X53949500Y-47932518D01*
X53958144Y-47903077D01*
X53964668Y-47873091D01*
X53968422Y-47868075D01*
X53969185Y-47865479D01*
X53985815Y-47844841D01*
X54054487Y-47776169D01*
X54115809Y-47742685D01*
X54185501Y-47747669D01*
X54241434Y-47789541D01*
X54261942Y-47831758D01*
X54283497Y-47912205D01*
X54378830Y-48142361D01*
X54378837Y-48142376D01*
X54503400Y-48358126D01*
X54655060Y-48555774D01*
X54655066Y-48555781D01*
X54831218Y-48731933D01*
X54831225Y-48731939D01*
X55028873Y-48883599D01*
X55244623Y-49008162D01*
X55244638Y-49008169D01*
X55309465Y-49035021D01*
X55474793Y-49103502D01*
X55715435Y-49167982D01*
X55962435Y-49200500D01*
X55962442Y-49200500D01*
X56211558Y-49200500D01*
X56211565Y-49200500D01*
X56458565Y-49167982D01*
X56699207Y-49103502D01*
X56864535Y-49035020D01*
X56934001Y-49027552D01*
X56996481Y-49058827D01*
X56999666Y-49061901D01*
X57303139Y-49365374D01*
X57303149Y-49365385D01*
X57307479Y-49369715D01*
X57307480Y-49369716D01*
X57419284Y-49481520D01*
X57419286Y-49481521D01*
X57419290Y-49481524D01*
X57483823Y-49518782D01*
X57483827Y-49518783D01*
X57483828Y-49518784D01*
X57513188Y-49535735D01*
X57556212Y-49560576D01*
X57556214Y-49560576D01*
X57556215Y-49560577D01*
X57708942Y-49601500D01*
X57708943Y-49601500D01*
X73420803Y-49601500D01*
X73487842Y-49621185D01*
X73508484Y-49637819D01*
X74562181Y-50691516D01*
X74595666Y-50752839D01*
X74598500Y-50779197D01*
X74598500Y-51266555D01*
X74578815Y-51333594D01*
X74526011Y-51379349D01*
X74456853Y-51389293D01*
X74393297Y-51360268D01*
X74359939Y-51314007D01*
X74295169Y-51157638D01*
X74295162Y-51157623D01*
X74170599Y-50941873D01*
X74018939Y-50744225D01*
X74018933Y-50744218D01*
X73842781Y-50568066D01*
X73842774Y-50568060D01*
X73645126Y-50416400D01*
X73429376Y-50291837D01*
X73429361Y-50291830D01*
X73199207Y-50196498D01*
X72958561Y-50132017D01*
X72711575Y-50099501D01*
X72711570Y-50099500D01*
X72711565Y-50099500D01*
X72462435Y-50099500D01*
X72462429Y-50099500D01*
X72462424Y-50099501D01*
X72215438Y-50132017D01*
X71974792Y-50196498D01*
X71744638Y-50291830D01*
X71744623Y-50291837D01*
X71528873Y-50416400D01*
X71331225Y-50568060D01*
X71331218Y-50568066D01*
X71155066Y-50744218D01*
X71155060Y-50744225D01*
X71003400Y-50941873D01*
X70878837Y-51157623D01*
X70878830Y-51157638D01*
X70783498Y-51387792D01*
X70719017Y-51628438D01*
X70686501Y-51875424D01*
X70686500Y-51875441D01*
X70686500Y-52124558D01*
X70686501Y-52124575D01*
X70719017Y-52371561D01*
X70783498Y-52612207D01*
X70878830Y-52842361D01*
X70878837Y-52842376D01*
X71003400Y-53058126D01*
X71155060Y-53255774D01*
X71155066Y-53255781D01*
X71331218Y-53431933D01*
X71331225Y-53431939D01*
X71528873Y-53583599D01*
X71744623Y-53708162D01*
X71744638Y-53708169D01*
X71792083Y-53727821D01*
X71974793Y-53803502D01*
X72215435Y-53867982D01*
X72462435Y-53900500D01*
X72462442Y-53900500D01*
X72711558Y-53900500D01*
X72711565Y-53900500D01*
X72958565Y-53867982D01*
X73199207Y-53803502D01*
X73429373Y-53708164D01*
X73645127Y-53583599D01*
X73842776Y-53431938D01*
X74018938Y-53255776D01*
X74170599Y-53058127D01*
X74295164Y-52842373D01*
X74359939Y-52685991D01*
X74403780Y-52631588D01*
X74470074Y-52609523D01*
X74537773Y-52626802D01*
X74585384Y-52677939D01*
X74598500Y-52733444D01*
X74598500Y-55966555D01*
X74578815Y-56033594D01*
X74526011Y-56079349D01*
X74456853Y-56089293D01*
X74393297Y-56060268D01*
X74359939Y-56014007D01*
X74295169Y-55857638D01*
X74295162Y-55857623D01*
X74170599Y-55641873D01*
X74018939Y-55444225D01*
X74018933Y-55444218D01*
X73842781Y-55268066D01*
X73842774Y-55268060D01*
X73645126Y-55116400D01*
X73429376Y-54991837D01*
X73429361Y-54991830D01*
X73199207Y-54896498D01*
X72958561Y-54832017D01*
X72711575Y-54799501D01*
X72711570Y-54799500D01*
X72711565Y-54799500D01*
X72462435Y-54799500D01*
X72462429Y-54799500D01*
X72462424Y-54799501D01*
X72215438Y-54832017D01*
X71974792Y-54896498D01*
X71744638Y-54991830D01*
X71744623Y-54991837D01*
X71528873Y-55116400D01*
X71331225Y-55268060D01*
X71331218Y-55268066D01*
X71155066Y-55444218D01*
X71155060Y-55444225D01*
X71003400Y-55641873D01*
X70878837Y-55857623D01*
X70878830Y-55857638D01*
X70783498Y-56087792D01*
X70719017Y-56328438D01*
X70686501Y-56575424D01*
X70686500Y-56575441D01*
X70686500Y-56824558D01*
X70686501Y-56824575D01*
X70698569Y-56916245D01*
X70719018Y-57071565D01*
X70783498Y-57312207D01*
X70789543Y-57326802D01*
X70851978Y-57477531D01*
X70854114Y-57497400D01*
X70861100Y-57516122D01*
X70857772Y-57531427D01*
X70859447Y-57547001D01*
X70850502Y-57564870D01*
X70846257Y-57584397D01*
X70829558Y-57606709D01*
X70828172Y-57609480D01*
X70825110Y-57612654D01*
X70821286Y-57616478D01*
X70709481Y-57728282D01*
X70709479Y-57728285D01*
X70674212Y-57789371D01*
X70674211Y-57789373D01*
X70630423Y-57865214D01*
X70630423Y-57865215D01*
X70589499Y-58017943D01*
X70589499Y-58017945D01*
X70589499Y-58186046D01*
X70589500Y-58186059D01*
X70589500Y-63270397D01*
X70569815Y-63337436D01*
X70521800Y-63380879D01*
X70508389Y-63387712D01*
X70342786Y-63508028D01*
X70198028Y-63652786D01*
X70077715Y-63818386D01*
X69984781Y-64000776D01*
X69921522Y-64195465D01*
X69889500Y-64397648D01*
X69889500Y-64602351D01*
X69921522Y-64804534D01*
X69984781Y-64999223D01*
X70048691Y-65124653D01*
X70059714Y-65146286D01*
X70077715Y-65181613D01*
X70198028Y-65347213D01*
X70342786Y-65491971D01*
X70475036Y-65588054D01*
X70508390Y-65612287D01*
X70624607Y-65671503D01*
X70690776Y-65705218D01*
X70690778Y-65705218D01*
X70690781Y-65705220D01*
X70795137Y-65739127D01*
X70885465Y-65768477D01*
X70986557Y-65784488D01*
X71087648Y-65800500D01*
X71087649Y-65800500D01*
X71292351Y-65800500D01*
X71292352Y-65800500D01*
X71494534Y-65768477D01*
X71689219Y-65705220D01*
X71871610Y-65612287D01*
X72006626Y-65514193D01*
X72037213Y-65491971D01*
X72037215Y-65491968D01*
X72037219Y-65491966D01*
X72181966Y-65347219D01*
X72181968Y-65347215D01*
X72181971Y-65347213D01*
X72234732Y-65274590D01*
X72302287Y-65181610D01*
X72395220Y-64999219D01*
X72458477Y-64804534D01*
X72490500Y-64602352D01*
X72490500Y-64397648D01*
X72458477Y-64195466D01*
X72395220Y-64000781D01*
X72395218Y-64000778D01*
X72395218Y-64000776D01*
X72361503Y-63934607D01*
X72302287Y-63818390D01*
X72284419Y-63793796D01*
X72181971Y-63652786D01*
X72037213Y-63508028D01*
X71871610Y-63387712D01*
X71858200Y-63380879D01*
X71807406Y-63332903D01*
X71790500Y-63270397D01*
X71790500Y-58612744D01*
X71810185Y-58545705D01*
X71862989Y-58499950D01*
X71932147Y-58490006D01*
X71961947Y-58498181D01*
X71974793Y-58503502D01*
X72215435Y-58567982D01*
X72462435Y-58600500D01*
X72462442Y-58600500D01*
X72711558Y-58600500D01*
X72711565Y-58600500D01*
X72958565Y-58567982D01*
X73199207Y-58503502D01*
X73429373Y-58408164D01*
X73645127Y-58283599D01*
X73842776Y-58131938D01*
X74018938Y-57955776D01*
X74170599Y-57758127D01*
X74295164Y-57542373D01*
X74359939Y-57385991D01*
X74403780Y-57331588D01*
X74470074Y-57309523D01*
X74537773Y-57326802D01*
X74585384Y-57377939D01*
X74598500Y-57433444D01*
X74598500Y-74500902D01*
X74578815Y-74567941D01*
X74562181Y-74588583D01*
X73930127Y-75220636D01*
X73868804Y-75254121D01*
X73804128Y-75250886D01*
X73744535Y-75231523D01*
X73643443Y-75215511D01*
X73542352Y-75199500D01*
X73337648Y-75199500D01*
X73313329Y-75203351D01*
X73135465Y-75231522D01*
X72940776Y-75294781D01*
X72758386Y-75387715D01*
X72592786Y-75508028D01*
X72448028Y-75652786D01*
X72327715Y-75818386D01*
X72234781Y-76000776D01*
X72171522Y-76195465D01*
X72139500Y-76397648D01*
X72139500Y-76602351D01*
X72171522Y-76804534D01*
X72234781Y-76999223D01*
X72327715Y-77181613D01*
X72448028Y-77347213D01*
X72592786Y-77491971D01*
X72747749Y-77604556D01*
X72758390Y-77612287D01*
X72874607Y-77671503D01*
X72940776Y-77705218D01*
X72940778Y-77705218D01*
X72940781Y-77705220D01*
X73036045Y-77736173D01*
X73135465Y-77768477D01*
X73194252Y-77777788D01*
X73337648Y-77800500D01*
X73337649Y-77800500D01*
X73542351Y-77800500D01*
X73542352Y-77800500D01*
X73744534Y-77768477D01*
X73939219Y-77705220D01*
X74121610Y-77612287D01*
X74222011Y-77539342D01*
X74287213Y-77491971D01*
X74287215Y-77491968D01*
X74287219Y-77491966D01*
X74431966Y-77347219D01*
X74431968Y-77347215D01*
X74431971Y-77347213D01*
X74508625Y-77241706D01*
X74552287Y-77181610D01*
X74645220Y-76999219D01*
X74708477Y-76804534D01*
X74740500Y-76602352D01*
X74740500Y-76397648D01*
X74710880Y-76210638D01*
X74719834Y-76141347D01*
X74745670Y-76103563D01*
X74787820Y-76061413D01*
X74849143Y-76027929D01*
X74918835Y-76032915D01*
X74974768Y-76074787D01*
X74999184Y-76140251D01*
X74999500Y-76149096D01*
X74999500Y-79039902D01*
X74979815Y-79106941D01*
X74963181Y-79127583D01*
X73884842Y-80205921D01*
X73823519Y-80239406D01*
X73758848Y-80236173D01*
X73744534Y-80231522D01*
X73569995Y-80203878D01*
X73542352Y-80199500D01*
X73337648Y-80199500D01*
X73313329Y-80203351D01*
X73135465Y-80231522D01*
X72940776Y-80294781D01*
X72758386Y-80387715D01*
X72592786Y-80508028D01*
X72448028Y-80652786D01*
X72327715Y-80818386D01*
X72234781Y-81000776D01*
X72171522Y-81195465D01*
X72139500Y-81397648D01*
X72139500Y-81602351D01*
X72171522Y-81804534D01*
X72234781Y-81999223D01*
X72327715Y-82181613D01*
X72448028Y-82347213D01*
X72592786Y-82491971D01*
X72747749Y-82604556D01*
X72758390Y-82612287D01*
X72874607Y-82671503D01*
X72940776Y-82705218D01*
X72940778Y-82705218D01*
X72940781Y-82705220D01*
X73045137Y-82739127D01*
X73135465Y-82768477D01*
X73236557Y-82784488D01*
X73337648Y-82800500D01*
X73337649Y-82800500D01*
X73542351Y-82800500D01*
X73542352Y-82800500D01*
X73744534Y-82768477D01*
X73939219Y-82705220D01*
X74121610Y-82612287D01*
X74214590Y-82544732D01*
X74287213Y-82491971D01*
X74287215Y-82491968D01*
X74287219Y-82491966D01*
X74431966Y-82347219D01*
X74431968Y-82347215D01*
X74431971Y-82347213D01*
X74484732Y-82274590D01*
X74552287Y-82181610D01*
X74645220Y-81999219D01*
X74708477Y-81804534D01*
X74740500Y-81602352D01*
X74740500Y-81397648D01*
X74708477Y-81195466D01*
X74703825Y-81181151D01*
X74701832Y-81111312D01*
X74734075Y-81055158D01*
X75968713Y-79820521D01*
X75968716Y-79820520D01*
X76080520Y-79708716D01*
X76130639Y-79621904D01*
X76159577Y-79571785D01*
X76200500Y-79419058D01*
X76200500Y-79260943D01*
X76200500Y-68655513D01*
X79599500Y-68655513D01*
X79599500Y-68844486D01*
X79629059Y-69031118D01*
X79687454Y-69210836D01*
X79773240Y-69379199D01*
X79884310Y-69532073D01*
X79884312Y-69532075D01*
X80014909Y-69662672D01*
X80048394Y-69723995D01*
X80043410Y-69793687D01*
X80014909Y-69838034D01*
X79884689Y-69968253D01*
X79884685Y-69968258D01*
X79773670Y-70121059D01*
X79687914Y-70289362D01*
X79629548Y-70468997D01*
X79624638Y-70500000D01*
X80624722Y-70500000D01*
X80580667Y-70576306D01*
X80550000Y-70690756D01*
X80550000Y-70809244D01*
X80580667Y-70923694D01*
X80624722Y-71000000D01*
X79624638Y-71000000D01*
X79629548Y-71031002D01*
X79687914Y-71210637D01*
X79773670Y-71378940D01*
X79838358Y-71467977D01*
X79861838Y-71533784D01*
X79846012Y-71601837D01*
X79812352Y-71640128D01*
X79742452Y-71692455D01*
X79656206Y-71807664D01*
X79656202Y-71807671D01*
X79605908Y-71942517D01*
X79599501Y-72002116D01*
X79599501Y-72002123D01*
X79599500Y-72002135D01*
X79599500Y-73497870D01*
X79599501Y-73497876D01*
X79605908Y-73557483D01*
X79656202Y-73692328D01*
X79656206Y-73692335D01*
X79742452Y-73807544D01*
X79742455Y-73807547D01*
X79857664Y-73893793D01*
X79857671Y-73893797D01*
X79883030Y-73903255D01*
X79992517Y-73944091D01*
X80052127Y-73950500D01*
X80335501Y-73950499D01*
X80402539Y-73970183D01*
X80448294Y-74022987D01*
X80459500Y-74074499D01*
X80459500Y-75270397D01*
X80439815Y-75337436D01*
X80391800Y-75380879D01*
X80378389Y-75387712D01*
X80212786Y-75508028D01*
X80068028Y-75652786D01*
X79947715Y-75818386D01*
X79854781Y-76000776D01*
X79791522Y-76195465D01*
X79759500Y-76397648D01*
X79759500Y-76602351D01*
X79791522Y-76804534D01*
X79854781Y-76999223D01*
X79947715Y-77181613D01*
X80068028Y-77347213D01*
X80212786Y-77491971D01*
X80367749Y-77604556D01*
X80378390Y-77612287D01*
X80494607Y-77671503D01*
X80560776Y-77705218D01*
X80560778Y-77705218D01*
X80560781Y-77705220D01*
X80656045Y-77736173D01*
X80755465Y-77768477D01*
X80814252Y-77777788D01*
X80957648Y-77800500D01*
X80957649Y-77800500D01*
X81162350Y-77800500D01*
X81162352Y-77800500D01*
X81305744Y-77777788D01*
X81375035Y-77786742D01*
X81428487Y-77831738D01*
X81449127Y-77898489D01*
X81430403Y-77965803D01*
X81412821Y-77987942D01*
X80691286Y-78709478D01*
X80579481Y-78821282D01*
X80579475Y-78821290D01*
X80535392Y-78897646D01*
X80535392Y-78897647D01*
X80500423Y-78958214D01*
X80500423Y-78958215D01*
X80459499Y-79110943D01*
X80459499Y-79110945D01*
X80459499Y-79279046D01*
X80459500Y-79279059D01*
X80459500Y-80270397D01*
X80439815Y-80337436D01*
X80391800Y-80380879D01*
X80378389Y-80387712D01*
X80212786Y-80508028D01*
X80068028Y-80652786D01*
X79947715Y-80818386D01*
X79854781Y-81000776D01*
X79791522Y-81195465D01*
X79759500Y-81397648D01*
X79759500Y-81602351D01*
X79791522Y-81804534D01*
X79854781Y-81999223D01*
X79947715Y-82181613D01*
X80068028Y-82347213D01*
X80212786Y-82491971D01*
X80367749Y-82604556D01*
X80378390Y-82612287D01*
X80494607Y-82671503D01*
X80560776Y-82705218D01*
X80560778Y-82705218D01*
X80560781Y-82705220D01*
X80665137Y-82739127D01*
X80755465Y-82768477D01*
X80856557Y-82784488D01*
X80957648Y-82800500D01*
X80957649Y-82800500D01*
X81162351Y-82800500D01*
X81162352Y-82800500D01*
X81364534Y-82768477D01*
X81559219Y-82705220D01*
X81741610Y-82612287D01*
X81834590Y-82544732D01*
X81907213Y-82491971D01*
X81907215Y-82491968D01*
X81907219Y-82491966D01*
X82051966Y-82347219D01*
X82051968Y-82347215D01*
X82051971Y-82347213D01*
X82104732Y-82274590D01*
X82172287Y-82181610D01*
X82265220Y-81999219D01*
X82328477Y-81804534D01*
X82360500Y-81602352D01*
X82360500Y-81397648D01*
X82328477Y-81195465D01*
X82299127Y-81105137D01*
X82265220Y-81000781D01*
X82265218Y-81000778D01*
X82265218Y-81000776D01*
X82231503Y-80934607D01*
X82172287Y-80818390D01*
X82164556Y-80807749D01*
X82051971Y-80652786D01*
X81907213Y-80508028D01*
X81741610Y-80387712D01*
X81728200Y-80380879D01*
X81677406Y-80332903D01*
X81660500Y-80270397D01*
X81660500Y-79490096D01*
X81680185Y-79423057D01*
X81696814Y-79402420D01*
X87112416Y-73986817D01*
X87173739Y-73953333D01*
X87200097Y-73950499D01*
X88447871Y-73950499D01*
X88447872Y-73950499D01*
X88507483Y-73944091D01*
X88642331Y-73893796D01*
X88757546Y-73807546D01*
X88843796Y-73692331D01*
X88894091Y-73557483D01*
X88900500Y-73497873D01*
X88900499Y-72002128D01*
X88894091Y-71942517D01*
X88843796Y-71807669D01*
X88843795Y-71807668D01*
X88843793Y-71807664D01*
X88757547Y-71692455D01*
X88687647Y-71640127D01*
X88645777Y-71584193D01*
X88640793Y-71514501D01*
X88661641Y-71467975D01*
X88726331Y-71378937D01*
X88812085Y-71210637D01*
X88870451Y-71031002D01*
X88875362Y-71000000D01*
X87875278Y-71000000D01*
X87919333Y-70923694D01*
X87950000Y-70809244D01*
X87950000Y-70690756D01*
X87919333Y-70576306D01*
X87875278Y-70500000D01*
X88875362Y-70500000D01*
X88870451Y-70468997D01*
X88812085Y-70289362D01*
X88726329Y-70121059D01*
X88615314Y-69968258D01*
X88615310Y-69968253D01*
X88485091Y-69838034D01*
X88451606Y-69776711D01*
X88456590Y-69707019D01*
X88485091Y-69662672D01*
X88546181Y-69601582D01*
X88615690Y-69532073D01*
X88726760Y-69379199D01*
X88812547Y-69210832D01*
X88870940Y-69031118D01*
X88888310Y-68921447D01*
X88900500Y-68844486D01*
X88900500Y-68655513D01*
X88870940Y-68468881D01*
X88812545Y-68289163D01*
X88726759Y-68120800D01*
X88724889Y-68118226D01*
X88615690Y-67967927D01*
X88482073Y-67834310D01*
X88329199Y-67723240D01*
X88160836Y-67637454D01*
X87981118Y-67579059D01*
X87794486Y-67549500D01*
X87794481Y-67549500D01*
X87205519Y-67549500D01*
X87205514Y-67549500D01*
X87018881Y-67579059D01*
X86839163Y-67637454D01*
X86670800Y-67723240D01*
X86583579Y-67786610D01*
X86517927Y-67834310D01*
X86517925Y-67834312D01*
X86517924Y-67834312D01*
X86384312Y-67967924D01*
X86384312Y-67967925D01*
X86384310Y-67967927D01*
X86364616Y-67995034D01*
X86273240Y-68120800D01*
X86187454Y-68289163D01*
X86129059Y-68468881D01*
X86099500Y-68655513D01*
X86099500Y-68844486D01*
X86129059Y-69031118D01*
X86187454Y-69210836D01*
X86273240Y-69379199D01*
X86384310Y-69532073D01*
X86384312Y-69532075D01*
X86514909Y-69662672D01*
X86548394Y-69723995D01*
X86543410Y-69793687D01*
X86514909Y-69838034D01*
X86384689Y-69968253D01*
X86384685Y-69968258D01*
X86273670Y-70121059D01*
X86187914Y-70289362D01*
X86129548Y-70468997D01*
X86124638Y-70500000D01*
X87124722Y-70500000D01*
X87080667Y-70576306D01*
X87050000Y-70690756D01*
X87050000Y-70809244D01*
X87080667Y-70923694D01*
X87124722Y-71000000D01*
X86124638Y-71000000D01*
X86129548Y-71031002D01*
X86187914Y-71210637D01*
X86273670Y-71378940D01*
X86338358Y-71467977D01*
X86361838Y-71533784D01*
X86346012Y-71601837D01*
X86312352Y-71640128D01*
X86242452Y-71692455D01*
X86156206Y-71807664D01*
X86156202Y-71807671D01*
X86105908Y-71942517D01*
X86099501Y-72002116D01*
X86099501Y-72002123D01*
X86099500Y-72002135D01*
X86099500Y-73249902D01*
X86079815Y-73316941D01*
X86063181Y-73337583D01*
X82547942Y-76852821D01*
X82486619Y-76886306D01*
X82416927Y-76881322D01*
X82360994Y-76839450D01*
X82336577Y-76773986D01*
X82337787Y-76745750D01*
X82360500Y-76602352D01*
X82360500Y-76397648D01*
X82333963Y-76230104D01*
X82328477Y-76195465D01*
X82265218Y-76000776D01*
X82208823Y-75890096D01*
X82172287Y-75818390D01*
X82139974Y-75773914D01*
X82051971Y-75652786D01*
X81907213Y-75508028D01*
X81741610Y-75387712D01*
X81728200Y-75380879D01*
X81677406Y-75332903D01*
X81660500Y-75270397D01*
X81660500Y-74074499D01*
X81680185Y-74007460D01*
X81732989Y-73961705D01*
X81784500Y-73950499D01*
X81947871Y-73950499D01*
X81947872Y-73950499D01*
X82007483Y-73944091D01*
X82142331Y-73893796D01*
X82257546Y-73807546D01*
X82343796Y-73692331D01*
X82394091Y-73557483D01*
X82400500Y-73497873D01*
X82400499Y-72002128D01*
X82394091Y-71942517D01*
X82343796Y-71807669D01*
X82343795Y-71807668D01*
X82343793Y-71807664D01*
X82257547Y-71692455D01*
X82187647Y-71640127D01*
X82145777Y-71584193D01*
X82140793Y-71514501D01*
X82161641Y-71467975D01*
X82226331Y-71378937D01*
X82312085Y-71210637D01*
X82370451Y-71031002D01*
X82375362Y-71000000D01*
X81375278Y-71000000D01*
X81419333Y-70923694D01*
X81450000Y-70809244D01*
X81450000Y-70690756D01*
X81419333Y-70576306D01*
X81375278Y-70500000D01*
X82375362Y-70500000D01*
X82370451Y-70468997D01*
X82312085Y-70289362D01*
X82226329Y-70121059D01*
X82115314Y-69968258D01*
X82115310Y-69968253D01*
X81985091Y-69838034D01*
X81951606Y-69776711D01*
X81956590Y-69707019D01*
X81985091Y-69662672D01*
X82046181Y-69601582D01*
X82115690Y-69532073D01*
X82226760Y-69379199D01*
X82312547Y-69210832D01*
X82370940Y-69031118D01*
X82388310Y-68921447D01*
X82400500Y-68844486D01*
X82400500Y-68655513D01*
X82370940Y-68468881D01*
X82312545Y-68289163D01*
X82226759Y-68120800D01*
X82224889Y-68118226D01*
X82115690Y-67967927D01*
X81982073Y-67834310D01*
X81829199Y-67723240D01*
X81660836Y-67637454D01*
X81481118Y-67579059D01*
X81294486Y-67549500D01*
X81294481Y-67549500D01*
X80705519Y-67549500D01*
X80705514Y-67549500D01*
X80518881Y-67579059D01*
X80339163Y-67637454D01*
X80170800Y-67723240D01*
X80083579Y-67786610D01*
X80017927Y-67834310D01*
X80017925Y-67834312D01*
X80017924Y-67834312D01*
X79884312Y-67967924D01*
X79884312Y-67967925D01*
X79884310Y-67967927D01*
X79864616Y-67995034D01*
X79773240Y-68120800D01*
X79687454Y-68289163D01*
X79629059Y-68468881D01*
X79599500Y-68655513D01*
X76200500Y-68655513D01*
X76200500Y-64397648D01*
X77509500Y-64397648D01*
X77509500Y-64602351D01*
X77541522Y-64804534D01*
X77604781Y-64999223D01*
X77668691Y-65124653D01*
X77679714Y-65146286D01*
X77697715Y-65181613D01*
X77818028Y-65347213D01*
X77962786Y-65491971D01*
X78095036Y-65588054D01*
X78128390Y-65612287D01*
X78244607Y-65671503D01*
X78310776Y-65705218D01*
X78310778Y-65705218D01*
X78310781Y-65705220D01*
X78415137Y-65739127D01*
X78505465Y-65768477D01*
X78606557Y-65784488D01*
X78707648Y-65800500D01*
X78707649Y-65800500D01*
X78912351Y-65800500D01*
X78912352Y-65800500D01*
X79114534Y-65768477D01*
X79309219Y-65705220D01*
X79491610Y-65612287D01*
X79626626Y-65514193D01*
X79657213Y-65491971D01*
X79657215Y-65491968D01*
X79657219Y-65491966D01*
X79801966Y-65347219D01*
X79801968Y-65347215D01*
X79801971Y-65347213D01*
X79854732Y-65274590D01*
X79922287Y-65181610D01*
X80015220Y-64999219D01*
X80078477Y-64804534D01*
X80110500Y-64602352D01*
X80110500Y-64397648D01*
X80078477Y-64195466D01*
X80015220Y-64000781D01*
X80015218Y-64000778D01*
X80015218Y-64000776D01*
X79981503Y-63934607D01*
X79922287Y-63818390D01*
X79904419Y-63793796D01*
X79801971Y-63652786D01*
X79657213Y-63508028D01*
X79491613Y-63387715D01*
X79491612Y-63387714D01*
X79491610Y-63387713D01*
X79434653Y-63358691D01*
X79309223Y-63294781D01*
X79114534Y-63231522D01*
X78933484Y-63202847D01*
X78912352Y-63199500D01*
X78707648Y-63199500D01*
X78686516Y-63202847D01*
X78505465Y-63231522D01*
X78310776Y-63294781D01*
X78128386Y-63387715D01*
X77962786Y-63508028D01*
X77818028Y-63652786D01*
X77697715Y-63818386D01*
X77604781Y-64000776D01*
X77541522Y-64195465D01*
X77509500Y-64397648D01*
X76200500Y-64397648D01*
X76200500Y-58409246D01*
X76220185Y-58342207D01*
X76272989Y-58296452D01*
X76342147Y-58286508D01*
X76386500Y-58301859D01*
X76570623Y-58408162D01*
X76570638Y-58408169D01*
X76631552Y-58433400D01*
X76800793Y-58503502D01*
X77041435Y-58567982D01*
X77288435Y-58600500D01*
X77288442Y-58600500D01*
X77537558Y-58600500D01*
X77537565Y-58600500D01*
X77784565Y-58567982D01*
X78025207Y-58503502D01*
X78255373Y-58408164D01*
X78471127Y-58283599D01*
X78668776Y-58131938D01*
X78844938Y-57955776D01*
X78996599Y-57758127D01*
X79121164Y-57542373D01*
X79216502Y-57312207D01*
X79280982Y-57071565D01*
X79313500Y-56824565D01*
X79313500Y-56575435D01*
X79280982Y-56328435D01*
X79216502Y-56087793D01*
X79121164Y-55857627D01*
X78996599Y-55641873D01*
X78844938Y-55444224D01*
X78844933Y-55444218D01*
X78668781Y-55268066D01*
X78668774Y-55268060D01*
X78471126Y-55116400D01*
X78255376Y-54991837D01*
X78255361Y-54991830D01*
X78025207Y-54896498D01*
X77784561Y-54832017D01*
X77537575Y-54799501D01*
X77537570Y-54799500D01*
X77537565Y-54799500D01*
X77288435Y-54799500D01*
X77288429Y-54799500D01*
X77288424Y-54799501D01*
X77041438Y-54832017D01*
X76800792Y-54896498D01*
X76570638Y-54991830D01*
X76570628Y-54991835D01*
X76386499Y-55098141D01*
X76318599Y-55114613D01*
X76252572Y-55091760D01*
X76209382Y-55036838D01*
X76200500Y-54990753D01*
X76200500Y-53709246D01*
X76220185Y-53642207D01*
X76272989Y-53596452D01*
X76342147Y-53586508D01*
X76386500Y-53601859D01*
X76570623Y-53708162D01*
X76570638Y-53708169D01*
X76618083Y-53727821D01*
X76800793Y-53803502D01*
X77041435Y-53867982D01*
X77288435Y-53900500D01*
X77288442Y-53900500D01*
X77537558Y-53900500D01*
X77537565Y-53900500D01*
X77784565Y-53867982D01*
X78025207Y-53803502D01*
X78255373Y-53708164D01*
X78471127Y-53583599D01*
X78668776Y-53431938D01*
X78844938Y-53255776D01*
X78996599Y-53058127D01*
X79121164Y-52842373D01*
X79216502Y-52612207D01*
X79280982Y-52371565D01*
X79313500Y-52124565D01*
X79313500Y-51875435D01*
X79280982Y-51628435D01*
X79216502Y-51387793D01*
X79148020Y-51222465D01*
X79140552Y-51152996D01*
X79171827Y-51090517D01*
X79174873Y-51087360D01*
X79472506Y-50789728D01*
X79472511Y-50789724D01*
X79482714Y-50779520D01*
X79482716Y-50779520D01*
X79594520Y-50667716D01*
X79652055Y-50568062D01*
X79652057Y-50568060D01*
X79673574Y-50530790D01*
X79673573Y-50530790D01*
X79673577Y-50530785D01*
X79714500Y-50378058D01*
X79714500Y-50219943D01*
X79714500Y-46684481D01*
X79714501Y-46684468D01*
X79714501Y-46516367D01*
X79714501Y-46516365D01*
X79673577Y-46363637D01*
X79644639Y-46313517D01*
X79594520Y-46226706D01*
X79482716Y-46114902D01*
X79482715Y-46114901D01*
X79478385Y-46110571D01*
X79478374Y-46110561D01*
X78205168Y-44837355D01*
X78205166Y-44837352D01*
X78086295Y-44718481D01*
X78086294Y-44718480D01*
X77999482Y-44668360D01*
X77999482Y-44668359D01*
X77999478Y-44668358D01*
X77949363Y-44639423D01*
X77796635Y-44598499D01*
X77638521Y-44598499D01*
X77630925Y-44598499D01*
X77630909Y-44598500D01*
X55301992Y-44598500D01*
X55301976Y-44598499D01*
X55294380Y-44598499D01*
X55136265Y-44598499D01*
X55059901Y-44618961D01*
X54983536Y-44639423D01*
X54983531Y-44639426D01*
X54846612Y-44718475D01*
X54846604Y-44718481D01*
X52467481Y-47097604D01*
X52467477Y-47097609D01*
X52422546Y-47175434D01*
X52422546Y-47175435D01*
X52388423Y-47234536D01*
X52388423Y-47234537D01*
X52347499Y-47387265D01*
X52347499Y-47545379D01*
X52347499Y-47545381D01*
X52347500Y-47555375D01*
X52347500Y-99441330D01*
X52347499Y-99441348D01*
X52347499Y-99607054D01*
X52347498Y-99607054D01*
X51500500Y-99607054D01*
X51500500Y-43124500D01*
X51520185Y-43057461D01*
X51572989Y-43011706D01*
X51624500Y-43000500D01*
X98375500Y-43000500D01*
X98442539Y-43020185D01*
G37*
%TD.AperFunction*%
%TA.AperFunction,Conductor*%
G36*
X97250000Y-79846988D02*
G01*
X97192993Y-79814075D01*
X97065826Y-79780000D01*
X96934174Y-79780000D01*
X96807007Y-79814075D01*
X96750000Y-79846988D01*
X96750000Y-78173012D01*
X96807007Y-78205925D01*
X96934174Y-78240000D01*
X97065826Y-78240000D01*
X97192993Y-78205925D01*
X97250000Y-78173012D01*
X97250000Y-79846988D01*
G37*
%TD.AperFunction*%
%TD*%
M02*
