%TF.GenerationSoftware,KiCad,Pcbnew,10.0.1*%
%TF.CreationDate,2026-06-20T13:26:32+02:00*%
%TF.ProjectId,DMH_VCM_Mk2_PCB_1,444d485f-5643-44d5-9f4d-6b325f504342,1*%
%TF.SameCoordinates,Original*%
%TF.FileFunction,Drillmap*%
%TF.FilePolarity,Positive*%
%FSLAX45Y45*%
G04 Gerber Fmt 4.5, Leading zero omitted, Abs format (unit mm)*
G04 Created by KiCad (PCBNEW 10.0.1) date 2026-06-20 13:26:32*
%MOMM*%
%LPD*%
G01*
G04 APERTURE LIST*
%ADD10C,0.050000*%
%ADD11C,0.200000*%
%ADD12C,0.100000*%
%ADD13C,0.110000*%
G04 APERTURE END LIST*
D10*
X5100000Y-4250000D02*
X9900000Y-4250000D01*
X9900000Y-21750000D01*
X5100000Y-21750000D01*
X5100000Y-4250000D01*
D11*
D12*
X5296000Y-5860000D02*
X5376000Y-5940000D01*
X5376000Y-5860000D02*
X5296000Y-5940000D01*
X5296000Y-6235000D02*
X5376000Y-6315000D01*
X5376000Y-6235000D02*
X5296000Y-6315000D01*
X5339000Y-11860000D02*
X5419000Y-11940000D01*
X5419000Y-11860000D02*
X5339000Y-11940000D01*
X5510500Y-12980000D02*
X5590500Y-13060000D01*
X5590500Y-12980000D02*
X5510500Y-13060000D01*
X5510500Y-13280000D02*
X5590500Y-13360000D01*
X5590500Y-13280000D02*
X5510500Y-13360000D01*
X5510500Y-13580000D02*
X5590500Y-13660000D01*
X5590500Y-13580000D02*
X5510500Y-13660000D01*
X5510500Y-13880000D02*
X5590500Y-13960000D01*
X5590500Y-13880000D02*
X5510500Y-13960000D01*
X5510500Y-14180000D02*
X5590500Y-14260000D01*
X5590500Y-14180000D02*
X5510500Y-14260000D01*
X5510500Y-14485000D02*
X5590500Y-14565000D01*
X5590500Y-14485000D02*
X5510500Y-14565000D01*
X5510500Y-14805000D02*
X5590500Y-14885000D01*
X5590500Y-14805000D02*
X5510500Y-14885000D01*
X5550000Y-5860000D02*
X5630000Y-5940000D01*
X5630000Y-5860000D02*
X5550000Y-5940000D01*
X5550000Y-6235000D02*
X5630000Y-6315000D01*
X5630000Y-6235000D02*
X5550000Y-6315000D01*
X5685500Y-6785000D02*
X5765500Y-6865000D01*
X5765500Y-6785000D02*
X5685500Y-6865000D01*
X5685500Y-7110000D02*
X5765500Y-7190000D01*
X5765500Y-7110000D02*
X5685500Y-7190000D01*
X5685500Y-7435000D02*
X5765500Y-7515000D01*
X5765500Y-7435000D02*
X5685500Y-7515000D01*
X5764500Y-12980000D02*
X5844500Y-13060000D01*
X5844500Y-12980000D02*
X5764500Y-13060000D01*
X5764500Y-13280000D02*
X5844500Y-13360000D01*
X5844500Y-13280000D02*
X5764500Y-13360000D01*
X5764500Y-13580000D02*
X5844500Y-13660000D01*
X5844500Y-13580000D02*
X5764500Y-13660000D01*
X5764500Y-13880000D02*
X5844500Y-13960000D01*
X5844500Y-13880000D02*
X5764500Y-13960000D01*
X5764500Y-14180000D02*
X5844500Y-14260000D01*
X5844500Y-14180000D02*
X5764500Y-14260000D01*
X5764500Y-14485000D02*
X5844500Y-14565000D01*
X5844500Y-14485000D02*
X5764500Y-14565000D01*
X5764500Y-14805000D02*
X5844500Y-14885000D01*
X5844500Y-14805000D02*
X5764500Y-14885000D01*
X5804000Y-5860000D02*
X5884000Y-5940000D01*
X5884000Y-5860000D02*
X5804000Y-5940000D01*
X5804000Y-6235000D02*
X5884000Y-6315000D01*
X5884000Y-6235000D02*
X5804000Y-6315000D01*
X5864489Y-4760000D02*
X5944489Y-4840000D01*
X5944489Y-4760000D02*
X5864489Y-4840000D01*
X5939500Y-6785000D02*
X6019500Y-6865000D01*
X6019500Y-6785000D02*
X5939500Y-6865000D01*
X5939500Y-7110000D02*
X6019500Y-7190000D01*
X6019500Y-7110000D02*
X5939500Y-7190000D01*
X5939500Y-7435000D02*
X6019500Y-7515000D01*
X6019500Y-7435000D02*
X5939500Y-7515000D01*
X6005000Y-9760000D02*
X6085000Y-9840000D01*
X6085000Y-9760000D02*
X6005000Y-9840000D01*
X6006000Y-9210000D02*
X6086000Y-9290000D01*
X6086000Y-9210000D02*
X6006000Y-9290000D01*
X6064489Y-4760000D02*
X6144489Y-4840000D01*
X6144489Y-4760000D02*
X6064489Y-4840000D01*
X6100000Y-12150500D02*
X6180000Y-12230500D01*
X6180000Y-12150500D02*
X6100000Y-12230500D01*
X6100000Y-12404500D02*
X6180000Y-12484500D01*
X6180000Y-12404500D02*
X6100000Y-12484500D01*
X6101000Y-11860000D02*
X6181000Y-11940000D01*
X6181000Y-11860000D02*
X6101000Y-11940000D01*
X6157000Y-5510000D02*
X6237000Y-5590000D01*
X6237000Y-5510000D02*
X6157000Y-5590000D01*
X6259000Y-9760000D02*
X6339000Y-9840000D01*
X6339000Y-9760000D02*
X6259000Y-9840000D01*
X6260000Y-9210000D02*
X6340000Y-9290000D01*
X6340000Y-9210000D02*
X6260000Y-9290000D01*
X6330000Y-12910000D02*
X6410000Y-12990000D01*
X6410000Y-12910000D02*
X6330000Y-12990000D01*
X6410500Y-6135000D02*
X6490500Y-6215000D01*
X6490500Y-6135000D02*
X6410500Y-6215000D01*
X6410500Y-6460000D02*
X6490500Y-6540000D01*
X6490500Y-6460000D02*
X6410500Y-6540000D01*
X6410500Y-6785000D02*
X6490500Y-6865000D01*
X6490500Y-6785000D02*
X6410500Y-6865000D01*
X6410500Y-7110000D02*
X6490500Y-7190000D01*
X6490500Y-7110000D02*
X6410500Y-7190000D01*
X6410500Y-7435000D02*
X6490500Y-7515000D01*
X6490500Y-7435000D02*
X6410500Y-7515000D01*
X6411000Y-5510000D02*
X6491000Y-5590000D01*
X6491000Y-5510000D02*
X6411000Y-5590000D01*
X6513000Y-9760000D02*
X6593000Y-9840000D01*
X6593000Y-9760000D02*
X6513000Y-9840000D01*
X6514000Y-9210000D02*
X6594000Y-9290000D01*
X6594000Y-9210000D02*
X6514000Y-9290000D01*
X6584000Y-12910000D02*
X6664000Y-12990000D01*
X6664000Y-12910000D02*
X6584000Y-12990000D01*
X6664500Y-6135000D02*
X6744500Y-6215000D01*
X6744500Y-6135000D02*
X6664500Y-6215000D01*
X6664500Y-6460000D02*
X6744500Y-6540000D01*
X6744500Y-6460000D02*
X6664500Y-6540000D01*
X6664500Y-6785000D02*
X6744500Y-6865000D01*
X6744500Y-6785000D02*
X6664500Y-6865000D01*
X6664500Y-7110000D02*
X6744500Y-7190000D01*
X6744500Y-7110000D02*
X6664500Y-7190000D01*
X6664500Y-7435000D02*
X6744500Y-7515000D01*
X6744500Y-7435000D02*
X6664500Y-7515000D01*
X6665000Y-5510000D02*
X6745000Y-5590000D01*
X6745000Y-5510000D02*
X6665000Y-5590000D01*
X6685500Y-7810000D02*
X6765500Y-7890000D01*
X6765500Y-7810000D02*
X6685500Y-7890000D01*
X6685500Y-8110000D02*
X6765500Y-8190000D01*
X6765500Y-8110000D02*
X6685500Y-8190000D01*
X6731000Y-8410000D02*
X6811000Y-8490000D01*
X6811000Y-8410000D02*
X6731000Y-8490000D01*
X6731000Y-8710000D02*
X6811000Y-8790000D01*
X6811000Y-8710000D02*
X6731000Y-8790000D01*
X6838000Y-12910000D02*
X6918000Y-12990000D01*
X6918000Y-12910000D02*
X6838000Y-12990000D01*
X6939500Y-7810000D02*
X7019500Y-7890000D01*
X7019500Y-7810000D02*
X6939500Y-7890000D01*
X6939500Y-8110000D02*
X7019500Y-8190000D01*
X7019500Y-8110000D02*
X6939500Y-8190000D01*
X6949000Y-12170000D02*
X7029000Y-12250000D01*
X7029000Y-12170000D02*
X6949000Y-12250000D01*
X6985000Y-8410000D02*
X7065000Y-8490000D01*
X7065000Y-8410000D02*
X6985000Y-8490000D01*
X6985000Y-8710000D02*
X7065000Y-8790000D01*
X7065000Y-8710000D02*
X6985000Y-8790000D01*
X7079000Y-5960000D02*
X7159000Y-6040000D01*
X7159000Y-5960000D02*
X7079000Y-6040000D01*
X7079000Y-6214000D02*
X7159000Y-6294000D01*
X7159000Y-6214000D02*
X7079000Y-6294000D01*
X7079000Y-6468000D02*
X7159000Y-6548000D01*
X7159000Y-6468000D02*
X7079000Y-6548000D01*
X7079000Y-6722000D02*
X7159000Y-6802000D01*
X7159000Y-6722000D02*
X7079000Y-6802000D01*
X7079000Y-6976000D02*
X7159000Y-7056000D01*
X7159000Y-6976000D02*
X7079000Y-7056000D01*
X7079000Y-7230000D02*
X7159000Y-7310000D01*
X7159000Y-7230000D02*
X7079000Y-7310000D01*
X7079000Y-7484000D02*
X7159000Y-7564000D01*
X7159000Y-7484000D02*
X7079000Y-7564000D01*
X7079000Y-9660000D02*
X7159000Y-9740000D01*
X7159000Y-9660000D02*
X7079000Y-9740000D01*
X7079000Y-9914000D02*
X7159000Y-9994000D01*
X7159000Y-9914000D02*
X7079000Y-9994000D01*
X7079000Y-10168000D02*
X7159000Y-10248000D01*
X7159000Y-10168000D02*
X7079000Y-10248000D01*
X7079000Y-10422000D02*
X7159000Y-10502000D01*
X7159000Y-10422000D02*
X7079000Y-10502000D01*
X7079000Y-10676000D02*
X7159000Y-10756000D01*
X7159000Y-10676000D02*
X7079000Y-10756000D01*
X7079000Y-10930000D02*
X7159000Y-11010000D01*
X7159000Y-10930000D02*
X7079000Y-11010000D01*
X7079000Y-11184000D02*
X7159000Y-11264000D01*
X7159000Y-11184000D02*
X7079000Y-11264000D01*
X7079000Y-13360000D02*
X7159000Y-13440000D01*
X7159000Y-13360000D02*
X7079000Y-13440000D01*
X7079000Y-13614000D02*
X7159000Y-13694000D01*
X7159000Y-13614000D02*
X7079000Y-13694000D01*
X7079000Y-13868000D02*
X7159000Y-13948000D01*
X7159000Y-13868000D02*
X7079000Y-13948000D01*
X7079000Y-14122000D02*
X7159000Y-14202000D01*
X7159000Y-14122000D02*
X7079000Y-14202000D01*
X7079000Y-14376000D02*
X7159000Y-14456000D01*
X7159000Y-14376000D02*
X7079000Y-14456000D01*
X7079000Y-14630000D02*
X7159000Y-14710000D01*
X7159000Y-14630000D02*
X7079000Y-14710000D01*
X7079000Y-14884000D02*
X7159000Y-14964000D01*
X7159000Y-14884000D02*
X7079000Y-14964000D01*
X7210000Y-5660000D02*
X7290000Y-5740000D01*
X7290000Y-5660000D02*
X7210000Y-5740000D01*
X7210000Y-7785000D02*
X7290000Y-7865000D01*
X7290000Y-7785000D02*
X7210000Y-7865000D01*
X7210000Y-9360000D02*
X7290000Y-9440000D01*
X7290000Y-9360000D02*
X7210000Y-9440000D01*
X7210000Y-11485000D02*
X7290000Y-11565000D01*
X7290000Y-11485000D02*
X7210000Y-11565000D01*
X7210000Y-13060000D02*
X7290000Y-13140000D01*
X7290000Y-13060000D02*
X7210000Y-13140000D01*
X7210000Y-15185000D02*
X7290000Y-15265000D01*
X7290000Y-15185000D02*
X7210000Y-15265000D01*
X7710000Y-5660000D02*
X7790000Y-5740000D01*
X7790000Y-5660000D02*
X7710000Y-5740000D01*
X7710000Y-7785000D02*
X7790000Y-7865000D01*
X7790000Y-7785000D02*
X7710000Y-7865000D01*
X7710000Y-9360000D02*
X7790000Y-9440000D01*
X7790000Y-9360000D02*
X7710000Y-9440000D01*
X7710000Y-11485000D02*
X7790000Y-11565000D01*
X7790000Y-11485000D02*
X7710000Y-11565000D01*
X7710000Y-12460500D02*
X7790000Y-12540500D01*
X7790000Y-12460500D02*
X7710000Y-12540500D01*
X7710000Y-12714500D02*
X7790000Y-12794500D01*
X7790000Y-12714500D02*
X7710000Y-12794500D01*
X7710000Y-13060000D02*
X7790000Y-13140000D01*
X7790000Y-13060000D02*
X7710000Y-13140000D01*
X7710000Y-15185000D02*
X7790000Y-15265000D01*
X7790000Y-15185000D02*
X7710000Y-15265000D01*
X7711000Y-12170000D02*
X7791000Y-12250000D01*
X7791000Y-12170000D02*
X7711000Y-12250000D01*
X7841000Y-5960000D02*
X7921000Y-6040000D01*
X7921000Y-5960000D02*
X7841000Y-6040000D01*
X7841000Y-6214000D02*
X7921000Y-6294000D01*
X7921000Y-6214000D02*
X7841000Y-6294000D01*
X7841000Y-6468000D02*
X7921000Y-6548000D01*
X7921000Y-6468000D02*
X7841000Y-6548000D01*
X7841000Y-6722000D02*
X7921000Y-6802000D01*
X7921000Y-6722000D02*
X7841000Y-6802000D01*
X7841000Y-6976000D02*
X7921000Y-7056000D01*
X7921000Y-6976000D02*
X7841000Y-7056000D01*
X7841000Y-7230000D02*
X7921000Y-7310000D01*
X7921000Y-7230000D02*
X7841000Y-7310000D01*
X7841000Y-7484000D02*
X7921000Y-7564000D01*
X7921000Y-7484000D02*
X7841000Y-7564000D01*
X7841000Y-9660000D02*
X7921000Y-9740000D01*
X7921000Y-9660000D02*
X7841000Y-9740000D01*
X7841000Y-9914000D02*
X7921000Y-9994000D01*
X7921000Y-9914000D02*
X7841000Y-9994000D01*
X7841000Y-10168000D02*
X7921000Y-10248000D01*
X7921000Y-10168000D02*
X7841000Y-10248000D01*
X7841000Y-10422000D02*
X7921000Y-10502000D01*
X7921000Y-10422000D02*
X7841000Y-10502000D01*
X7841000Y-10676000D02*
X7921000Y-10756000D01*
X7921000Y-10676000D02*
X7841000Y-10756000D01*
X7841000Y-10930000D02*
X7921000Y-11010000D01*
X7921000Y-10930000D02*
X7841000Y-11010000D01*
X7841000Y-11184000D02*
X7921000Y-11264000D01*
X7921000Y-11184000D02*
X7841000Y-11264000D01*
X7841000Y-13360000D02*
X7921000Y-13440000D01*
X7921000Y-13360000D02*
X7841000Y-13440000D01*
X7841000Y-13614000D02*
X7921000Y-13694000D01*
X7921000Y-13614000D02*
X7841000Y-13694000D01*
X7841000Y-13868000D02*
X7921000Y-13948000D01*
X7921000Y-13868000D02*
X7841000Y-13948000D01*
X7841000Y-14122000D02*
X7921000Y-14202000D01*
X7921000Y-14122000D02*
X7841000Y-14202000D01*
X7841000Y-14376000D02*
X7921000Y-14456000D01*
X7921000Y-14376000D02*
X7841000Y-14456000D01*
X7841000Y-14630000D02*
X7921000Y-14710000D01*
X7921000Y-14630000D02*
X7841000Y-14710000D01*
X7841000Y-14884000D02*
X7921000Y-14964000D01*
X7921000Y-14884000D02*
X7841000Y-14964000D01*
X8230500Y-5410000D02*
X8310500Y-5490000D01*
X8310500Y-5410000D02*
X8230500Y-5490000D01*
X8230500Y-5725000D02*
X8310500Y-5805000D01*
X8310500Y-5725000D02*
X8230500Y-5805000D01*
X8230500Y-6030000D02*
X8310500Y-6110000D01*
X8310500Y-6030000D02*
X8230500Y-6110000D01*
X8230500Y-6335000D02*
X8310500Y-6415000D01*
X8310500Y-6335000D02*
X8230500Y-6415000D01*
X8230500Y-10635000D02*
X8310500Y-10715000D01*
X8310500Y-10635000D02*
X8230500Y-10715000D01*
X8230500Y-10935000D02*
X8310500Y-11015000D01*
X8310500Y-10935000D02*
X8230500Y-11015000D01*
X8230500Y-11235000D02*
X8310500Y-11315000D01*
X8310500Y-11235000D02*
X8230500Y-11315000D01*
X8230500Y-11535000D02*
X8310500Y-11615000D01*
X8310500Y-11535000D02*
X8230500Y-11615000D01*
X8285000Y-7906000D02*
X8365000Y-7986000D01*
X8365000Y-7906000D02*
X8285000Y-7986000D01*
X8285000Y-8160000D02*
X8365000Y-8240000D01*
X8365000Y-8160000D02*
X8285000Y-8240000D01*
X8285000Y-8414000D02*
X8365000Y-8494000D01*
X8365000Y-8414000D02*
X8285000Y-8494000D01*
X8285000Y-12432000D02*
X8365000Y-12512000D01*
X8365000Y-12432000D02*
X8285000Y-12512000D01*
X8285000Y-12686000D02*
X8365000Y-12766000D01*
X8365000Y-12686000D02*
X8285000Y-12766000D01*
X8285000Y-12940000D02*
X8365000Y-13020000D01*
X8365000Y-12940000D02*
X8285000Y-13020000D01*
X8456000Y-8935000D02*
X8536000Y-9015000D01*
X8536000Y-8935000D02*
X8456000Y-9015000D01*
X8456000Y-9235000D02*
X8536000Y-9315000D01*
X8536000Y-9235000D02*
X8456000Y-9315000D01*
X8456000Y-9535000D02*
X8536000Y-9615000D01*
X8536000Y-9535000D02*
X8456000Y-9615000D01*
X8456000Y-9835000D02*
X8536000Y-9915000D01*
X8536000Y-9835000D02*
X8456000Y-9915000D01*
X8484500Y-5410000D02*
X8564500Y-5490000D01*
X8564500Y-5410000D02*
X8484500Y-5490000D01*
X8484500Y-5725000D02*
X8564500Y-5805000D01*
X8564500Y-5725000D02*
X8484500Y-5805000D01*
X8484500Y-6030000D02*
X8564500Y-6110000D01*
X8564500Y-6030000D02*
X8484500Y-6110000D01*
X8484500Y-6335000D02*
X8564500Y-6415000D01*
X8564500Y-6335000D02*
X8484500Y-6415000D01*
X8484500Y-10635000D02*
X8564500Y-10715000D01*
X8564500Y-10635000D02*
X8484500Y-10715000D01*
X8484500Y-10935000D02*
X8564500Y-11015000D01*
X8564500Y-10935000D02*
X8484500Y-11015000D01*
X8484500Y-11235000D02*
X8564500Y-11315000D01*
X8564500Y-11235000D02*
X8484500Y-11315000D01*
X8484500Y-11535000D02*
X8564500Y-11615000D01*
X8564500Y-11535000D02*
X8484500Y-11615000D01*
X8710000Y-8935000D02*
X8790000Y-9015000D01*
X8790000Y-8935000D02*
X8710000Y-9015000D01*
X8710000Y-9235000D02*
X8790000Y-9315000D01*
X8790000Y-9235000D02*
X8710000Y-9315000D01*
X8710000Y-9535000D02*
X8790000Y-9615000D01*
X8790000Y-9535000D02*
X8710000Y-9615000D01*
X8710000Y-9835000D02*
X8790000Y-9915000D01*
X8790000Y-9835000D02*
X8710000Y-9915000D01*
X8785000Y-14510000D02*
X8865000Y-14590000D01*
X8865000Y-14510000D02*
X8785000Y-14590000D01*
X8785000Y-14810000D02*
X8865000Y-14890000D01*
X8865000Y-14810000D02*
X8785000Y-14890000D01*
X8785500Y-13310000D02*
X8865500Y-13390000D01*
X8865500Y-13310000D02*
X8785500Y-13390000D01*
X8785500Y-13610000D02*
X8865500Y-13690000D01*
X8865500Y-13610000D02*
X8785500Y-13690000D01*
X8785500Y-13910000D02*
X8865500Y-13990000D01*
X8865500Y-13910000D02*
X8785500Y-13990000D01*
X8785500Y-14210000D02*
X8865500Y-14290000D01*
X8865500Y-14210000D02*
X8785500Y-14290000D01*
X8785500Y-15110000D02*
X8865500Y-15190000D01*
X8865500Y-15110000D02*
X8785500Y-15190000D01*
X8785500Y-15410000D02*
X8865500Y-15490000D01*
X8865500Y-15410000D02*
X8785500Y-15490000D01*
X8870000Y-4760000D02*
X8950000Y-4840000D01*
X8950000Y-4760000D02*
X8870000Y-4840000D01*
X8910500Y-6635000D02*
X8990500Y-6715000D01*
X8990500Y-6635000D02*
X8910500Y-6715000D01*
X8910500Y-6940000D02*
X8990500Y-7020000D01*
X8990500Y-6940000D02*
X8910500Y-7020000D01*
X8910500Y-7245000D02*
X8990500Y-7325000D01*
X8990500Y-7245000D02*
X8910500Y-7325000D01*
X8910500Y-7560000D02*
X8990500Y-7640000D01*
X8990500Y-7560000D02*
X8910500Y-7640000D01*
X8992000Y-16355000D02*
X9072000Y-16435000D01*
X9072000Y-16355000D02*
X8992000Y-16435000D01*
X8996000Y-15980000D02*
X9076000Y-16060000D01*
X9076000Y-15980000D02*
X8996000Y-16060000D01*
X9039000Y-14510000D02*
X9119000Y-14590000D01*
X9119000Y-14510000D02*
X9039000Y-14590000D01*
X9039000Y-14810000D02*
X9119000Y-14890000D01*
X9119000Y-14810000D02*
X9039000Y-14890000D01*
X9039500Y-13310000D02*
X9119500Y-13390000D01*
X9119500Y-13310000D02*
X9039500Y-13390000D01*
X9039500Y-13610000D02*
X9119500Y-13690000D01*
X9119500Y-13610000D02*
X9039500Y-13690000D01*
X9039500Y-13910000D02*
X9119500Y-13990000D01*
X9119500Y-13910000D02*
X9039500Y-13990000D01*
X9039500Y-14210000D02*
X9119500Y-14290000D01*
X9119500Y-14210000D02*
X9039500Y-14290000D01*
X9039500Y-15110000D02*
X9119500Y-15190000D01*
X9119500Y-15110000D02*
X9039500Y-15190000D01*
X9039500Y-15410000D02*
X9119500Y-15490000D01*
X9119500Y-15410000D02*
X9039500Y-15490000D01*
X9070000Y-4760000D02*
X9150000Y-4840000D01*
X9150000Y-4760000D02*
X9070000Y-4840000D01*
X9082000Y-10025000D02*
X9162000Y-10105000D01*
X9162000Y-10025000D02*
X9082000Y-10105000D01*
X9086000Y-9650000D02*
X9166000Y-9730000D01*
X9166000Y-9650000D02*
X9086000Y-9730000D01*
X9135000Y-8110000D02*
X9215000Y-8190000D01*
X9215000Y-8110000D02*
X9135000Y-8190000D01*
X9135000Y-8430000D02*
X9215000Y-8510000D01*
X9215000Y-8430000D02*
X9135000Y-8510000D01*
X9135000Y-8735000D02*
X9215000Y-8815000D01*
X9215000Y-8735000D02*
X9135000Y-8815000D01*
X9135000Y-9035000D02*
X9215000Y-9115000D01*
X9215000Y-9035000D02*
X9135000Y-9115000D01*
X9164500Y-6635000D02*
X9244500Y-6715000D01*
X9244500Y-6635000D02*
X9164500Y-6715000D01*
X9164500Y-6940000D02*
X9244500Y-7020000D01*
X9244500Y-6940000D02*
X9164500Y-7020000D01*
X9164500Y-7245000D02*
X9244500Y-7325000D01*
X9244500Y-7245000D02*
X9164500Y-7325000D01*
X9164500Y-7560000D02*
X9244500Y-7640000D01*
X9244500Y-7560000D02*
X9164500Y-7640000D01*
X9246000Y-16355000D02*
X9326000Y-16435000D01*
X9326000Y-16355000D02*
X9246000Y-16435000D01*
X9250000Y-15980000D02*
X9330000Y-16060000D01*
X9330000Y-15980000D02*
X9250000Y-16060000D01*
X9335500Y-10610000D02*
X9415500Y-10690000D01*
X9415500Y-10610000D02*
X9335500Y-10690000D01*
X9335500Y-10910000D02*
X9415500Y-10990000D01*
X9415500Y-10910000D02*
X9335500Y-10990000D01*
X9335500Y-11210000D02*
X9415500Y-11290000D01*
X9415500Y-11210000D02*
X9335500Y-11290000D01*
X9335500Y-11510000D02*
X9415500Y-11590000D01*
X9415500Y-11510000D02*
X9335500Y-11590000D01*
X9335500Y-11960000D02*
X9415500Y-12040000D01*
X9415500Y-11960000D02*
X9335500Y-12040000D01*
X9335500Y-12260000D02*
X9415500Y-12340000D01*
X9415500Y-12260000D02*
X9335500Y-12340000D01*
X9335500Y-12560000D02*
X9415500Y-12640000D01*
X9415500Y-12560000D02*
X9335500Y-12640000D01*
X9335500Y-12860000D02*
X9415500Y-12940000D01*
X9415500Y-12860000D02*
X9335500Y-12940000D01*
X9336000Y-10025000D02*
X9416000Y-10105000D01*
X9416000Y-10025000D02*
X9336000Y-10105000D01*
X9340000Y-9650000D02*
X9420000Y-9730000D01*
X9420000Y-9650000D02*
X9340000Y-9730000D01*
X9389000Y-8110000D02*
X9469000Y-8190000D01*
X9469000Y-8110000D02*
X9389000Y-8190000D01*
X9389000Y-8430000D02*
X9469000Y-8510000D01*
X9469000Y-8430000D02*
X9389000Y-8510000D01*
X9389000Y-8735000D02*
X9469000Y-8815000D01*
X9469000Y-8735000D02*
X9389000Y-8815000D01*
X9389000Y-9035000D02*
X9469000Y-9115000D01*
X9469000Y-9035000D02*
X9389000Y-9115000D01*
X9500000Y-16355000D02*
X9580000Y-16435000D01*
X9580000Y-16355000D02*
X9500000Y-16435000D01*
X9504000Y-15980000D02*
X9584000Y-16060000D01*
X9584000Y-15980000D02*
X9504000Y-16060000D01*
X9589500Y-10610000D02*
X9669500Y-10690000D01*
X9669500Y-10610000D02*
X9589500Y-10690000D01*
X9589500Y-10910000D02*
X9669500Y-10990000D01*
X9669500Y-10910000D02*
X9589500Y-10990000D01*
X9589500Y-11210000D02*
X9669500Y-11290000D01*
X9669500Y-11210000D02*
X9589500Y-11290000D01*
X9589500Y-11510000D02*
X9669500Y-11590000D01*
X9669500Y-11510000D02*
X9589500Y-11590000D01*
X9589500Y-11960000D02*
X9669500Y-12040000D01*
X9669500Y-11960000D02*
X9589500Y-12040000D01*
X9589500Y-12260000D02*
X9669500Y-12340000D01*
X9669500Y-12260000D02*
X9589500Y-12340000D01*
X9589500Y-12560000D02*
X9669500Y-12640000D01*
X9669500Y-12560000D02*
X9589500Y-12640000D01*
X9589500Y-12860000D02*
X9669500Y-12940000D01*
X9669500Y-12860000D02*
X9589500Y-12940000D01*
X9590000Y-10025000D02*
X9670000Y-10105000D01*
X9670000Y-10025000D02*
X9590000Y-10105000D01*
X9594000Y-9650000D02*
X9674000Y-9730000D01*
X9674000Y-9650000D02*
X9594000Y-9730000D01*
X5330000Y-17316000D02*
G75*
G02*
X5230000Y-17316000I-50000J0D01*
G01*
X5230000Y-17316000D02*
G75*
G02*
X5330000Y-17316000I50000J0D01*
G01*
X5330000Y-17570000D02*
G75*
G02*
X5230000Y-17570000I-50000J0D01*
G01*
X5230000Y-17570000D02*
G75*
G02*
X5330000Y-17570000I50000J0D01*
G01*
X5330000Y-17824000D02*
G75*
G02*
X5230000Y-17824000I-50000J0D01*
G01*
X5230000Y-17824000D02*
G75*
G02*
X5330000Y-17824000I50000J0D01*
G01*
X5330000Y-18966000D02*
G75*
G02*
X5230000Y-18966000I-50000J0D01*
G01*
X5230000Y-18966000D02*
G75*
G02*
X5330000Y-18966000I50000J0D01*
G01*
X5330000Y-19220000D02*
G75*
G02*
X5230000Y-19220000I-50000J0D01*
G01*
X5230000Y-19220000D02*
G75*
G02*
X5330000Y-19220000I50000J0D01*
G01*
X5330000Y-19474000D02*
G75*
G02*
X5230000Y-19474000I-50000J0D01*
G01*
X5230000Y-19474000D02*
G75*
G02*
X5330000Y-19474000I50000J0D01*
G01*
X5330000Y-20626000D02*
G75*
G02*
X5230000Y-20626000I-50000J0D01*
G01*
X5230000Y-20626000D02*
G75*
G02*
X5330000Y-20626000I50000J0D01*
G01*
X5330000Y-20880000D02*
G75*
G02*
X5230000Y-20880000I-50000J0D01*
G01*
X5230000Y-20880000D02*
G75*
G02*
X5330000Y-20880000I50000J0D01*
G01*
X5330000Y-21134000D02*
G75*
G02*
X5230000Y-21134000I-50000J0D01*
G01*
X5230000Y-21134000D02*
G75*
G02*
X5330000Y-21134000I50000J0D01*
G01*
X5500000Y-9600000D02*
G75*
G02*
X5400000Y-9600000I-50000J0D01*
G01*
X5400000Y-9600000D02*
G75*
G02*
X5500000Y-9600000I50000J0D01*
G01*
X5500000Y-9854000D02*
G75*
G02*
X5400000Y-9854000I-50000J0D01*
G01*
X5400000Y-9854000D02*
G75*
G02*
X5500000Y-9854000I50000J0D01*
G01*
X5500000Y-10108000D02*
G75*
G02*
X5400000Y-10108000I-50000J0D01*
G01*
X5400000Y-10108000D02*
G75*
G02*
X5500000Y-10108000I50000J0D01*
G01*
X5500000Y-10362000D02*
G75*
G02*
X5400000Y-10362000I-50000J0D01*
G01*
X5400000Y-10362000D02*
G75*
G02*
X5500000Y-10362000I50000J0D01*
G01*
X5500000Y-10616000D02*
G75*
G02*
X5400000Y-10616000I-50000J0D01*
G01*
X5400000Y-10616000D02*
G75*
G02*
X5500000Y-10616000I50000J0D01*
G01*
X5500000Y-10870000D02*
G75*
G02*
X5400000Y-10870000I-50000J0D01*
G01*
X5400000Y-10870000D02*
G75*
G02*
X5500000Y-10870000I50000J0D01*
G01*
X5500000Y-11124000D02*
G75*
G02*
X5400000Y-11124000I-50000J0D01*
G01*
X5400000Y-11124000D02*
G75*
G02*
X5500000Y-11124000I50000J0D01*
G01*
X5500000Y-11378000D02*
G75*
G02*
X5400000Y-11378000I-50000J0D01*
G01*
X5400000Y-11378000D02*
G75*
G02*
X5500000Y-11378000I50000J0D01*
G01*
X5950000Y-16575000D02*
G75*
G02*
X5850000Y-16575000I-50000J0D01*
G01*
X5850000Y-16575000D02*
G75*
G02*
X5950000Y-16575000I50000J0D01*
G01*
X5975000Y-16525000D02*
X5825000Y-16525000D01*
X5825000Y-16625000D02*
G75*
G02*
X5825000Y-16525000I0J50000D01*
G01*
X5825000Y-16625000D02*
X5975000Y-16625000D01*
X5975000Y-16625000D02*
G75*
G03*
X5975000Y-16525000I0J50000D01*
G01*
X5950000Y-18225000D02*
G75*
G02*
X5850000Y-18225000I-50000J0D01*
G01*
X5850000Y-18225000D02*
G75*
G02*
X5950000Y-18225000I50000J0D01*
G01*
X5975000Y-18175000D02*
X5825000Y-18175000D01*
X5825000Y-18275000D02*
G75*
G02*
X5825000Y-18175000I0J50000D01*
G01*
X5825000Y-18275000D02*
X5975000Y-18275000D01*
X5975000Y-18275000D02*
G75*
G03*
X5975000Y-18175000I0J50000D01*
G01*
X5950000Y-19875000D02*
G75*
G02*
X5850000Y-19875000I-50000J0D01*
G01*
X5850000Y-19875000D02*
G75*
G02*
X5950000Y-19875000I50000J0D01*
G01*
X5975000Y-19825000D02*
X5825000Y-19825000D01*
X5825000Y-19925000D02*
G75*
G02*
X5825000Y-19825000I0J50000D01*
G01*
X5825000Y-19925000D02*
X5975000Y-19925000D01*
X5975000Y-19925000D02*
G75*
G03*
X5975000Y-19825000I0J50000D01*
G01*
X5950000Y-21525000D02*
G75*
G02*
X5850000Y-21525000I-50000J0D01*
G01*
X5850000Y-21525000D02*
G75*
G02*
X5950000Y-21525000I50000J0D01*
G01*
X5975000Y-21475000D02*
X5825000Y-21475000D01*
X5825000Y-21575000D02*
G75*
G02*
X5825000Y-21475000I0J50000D01*
G01*
X5825000Y-21575000D02*
X5975000Y-21575000D01*
X5975000Y-21575000D02*
G75*
G03*
X5975000Y-21475000I0J50000D01*
G01*
X6359619Y-15465381D02*
G75*
G02*
X6259619Y-15465381I-50000J0D01*
G01*
X6259619Y-15465381D02*
G75*
G02*
X6359619Y-15465381I50000J0D01*
G01*
X6398007Y-15483059D02*
X6291941Y-15376993D01*
X6221231Y-15447703D02*
G75*
G02*
X6291941Y-15376993I35355J35355D01*
G01*
X6221231Y-15447703D02*
X6327297Y-15553769D01*
X6327297Y-15553769D02*
G75*
G03*
X6398007Y-15483059I35355J35355D01*
G01*
X6359619Y-17115381D02*
G75*
G02*
X6259619Y-17115381I-50000J0D01*
G01*
X6259619Y-17115381D02*
G75*
G02*
X6359619Y-17115381I50000J0D01*
G01*
X6398007Y-17133059D02*
X6291941Y-17026993D01*
X6221231Y-17097703D02*
G75*
G02*
X6291941Y-17026993I35355J35355D01*
G01*
X6221231Y-17097703D02*
X6327297Y-17203769D01*
X6327297Y-17203769D02*
G75*
G03*
X6398007Y-17133059I35355J35355D01*
G01*
X6359619Y-18765381D02*
G75*
G02*
X6259619Y-18765381I-50000J0D01*
G01*
X6259619Y-18765381D02*
G75*
G02*
X6359619Y-18765381I50000J0D01*
G01*
X6398007Y-18783059D02*
X6291941Y-18676993D01*
X6221231Y-18747703D02*
G75*
G02*
X6291941Y-18676993I35355J35355D01*
G01*
X6221231Y-18747703D02*
X6327297Y-18853769D01*
X6327297Y-18853769D02*
G75*
G03*
X6398007Y-18783059I35355J35355D01*
G01*
X6359619Y-20415381D02*
G75*
G02*
X6259619Y-20415381I-50000J0D01*
G01*
X6259619Y-20415381D02*
G75*
G02*
X6359619Y-20415381I50000J0D01*
G01*
X6398007Y-20433059D02*
X6291941Y-20326993D01*
X6221231Y-20397703D02*
G75*
G02*
X6291941Y-20326993I35355J35355D01*
G01*
X6221231Y-20397703D02*
X6327297Y-20503769D01*
X6327297Y-20503769D02*
G75*
G03*
X6398007Y-20433059I35355J35355D01*
G01*
X6550000Y-16175000D02*
G75*
G02*
X6450000Y-16175000I-50000J0D01*
G01*
X6450000Y-16175000D02*
G75*
G02*
X6550000Y-16175000I50000J0D01*
G01*
X6450000Y-16100000D02*
X6450000Y-16250000D01*
X6550000Y-16250000D02*
G75*
G02*
X6450000Y-16250000I-50000J0D01*
G01*
X6550000Y-16250000D02*
X6550000Y-16100000D01*
X6550000Y-16100000D02*
G75*
G03*
X6450000Y-16100000I-50000J0D01*
G01*
X6550000Y-17825000D02*
G75*
G02*
X6450000Y-17825000I-50000J0D01*
G01*
X6450000Y-17825000D02*
G75*
G02*
X6550000Y-17825000I50000J0D01*
G01*
X6450000Y-17750000D02*
X6450000Y-17900000D01*
X6550000Y-17900000D02*
G75*
G02*
X6450000Y-17900000I-50000J0D01*
G01*
X6550000Y-17900000D02*
X6550000Y-17750000D01*
X6550000Y-17750000D02*
G75*
G03*
X6450000Y-17750000I-50000J0D01*
G01*
X6550000Y-19475000D02*
G75*
G02*
X6450000Y-19475000I-50000J0D01*
G01*
X6450000Y-19475000D02*
G75*
G02*
X6550000Y-19475000I50000J0D01*
G01*
X6450000Y-19400000D02*
X6450000Y-19550000D01*
X6550000Y-19550000D02*
G75*
G02*
X6450000Y-19550000I-50000J0D01*
G01*
X6550000Y-19550000D02*
X6550000Y-19400000D01*
X6550000Y-19400000D02*
G75*
G03*
X6450000Y-19400000I-50000J0D01*
G01*
X6550000Y-21125000D02*
G75*
G02*
X6450000Y-21125000I-50000J0D01*
G01*
X6450000Y-21125000D02*
G75*
G02*
X6550000Y-21125000I50000J0D01*
G01*
X6450000Y-21050000D02*
X6450000Y-21200000D01*
X6550000Y-21200000D02*
G75*
G02*
X6450000Y-21200000I-50000J0D01*
G01*
X6550000Y-21200000D02*
X6550000Y-21050000D01*
X6550000Y-21050000D02*
G75*
G03*
X6450000Y-21050000I-50000J0D01*
G01*
X6910000Y-17576000D02*
G75*
G02*
X6810000Y-17576000I-50000J0D01*
G01*
X6810000Y-17576000D02*
G75*
G02*
X6910000Y-17576000I50000J0D01*
G01*
X6910000Y-17830000D02*
G75*
G02*
X6810000Y-17830000I-50000J0D01*
G01*
X6810000Y-17830000D02*
G75*
G02*
X6910000Y-17830000I50000J0D01*
G01*
X6910000Y-18084000D02*
G75*
G02*
X6810000Y-18084000I-50000J0D01*
G01*
X6810000Y-18084000D02*
G75*
G02*
X6910000Y-18084000I50000J0D01*
G01*
X6910000Y-19226000D02*
G75*
G02*
X6810000Y-19226000I-50000J0D01*
G01*
X6810000Y-19226000D02*
G75*
G02*
X6910000Y-19226000I50000J0D01*
G01*
X6910000Y-19480000D02*
G75*
G02*
X6810000Y-19480000I-50000J0D01*
G01*
X6810000Y-19480000D02*
G75*
G02*
X6910000Y-19480000I50000J0D01*
G01*
X6910000Y-19734000D02*
G75*
G02*
X6810000Y-19734000I-50000J0D01*
G01*
X6810000Y-19734000D02*
G75*
G02*
X6910000Y-19734000I50000J0D01*
G01*
X7042000Y-4646000D02*
G75*
G02*
X6942000Y-4646000I-50000J0D01*
G01*
X6942000Y-4646000D02*
G75*
G02*
X7042000Y-4646000I50000J0D01*
G01*
X7042000Y-4900000D02*
G75*
G02*
X6942000Y-4900000I-50000J0D01*
G01*
X6942000Y-4900000D02*
G75*
G02*
X7042000Y-4900000I50000J0D01*
G01*
X7090381Y-17115381D02*
G75*
G02*
X6990381Y-17115381I-50000J0D01*
G01*
X6990381Y-17115381D02*
G75*
G02*
X7090381Y-17115381I50000J0D01*
G01*
X7058059Y-17026993D02*
X6951993Y-17133059D01*
X7022703Y-17203769D02*
G75*
G02*
X6951993Y-17133059I-35355J35355D01*
G01*
X7022703Y-17203769D02*
X7128769Y-17097703D01*
X7128769Y-17097703D02*
G75*
G03*
X7058059Y-17026993I-35355J35355D01*
G01*
X7090381Y-18765381D02*
G75*
G02*
X6990381Y-18765381I-50000J0D01*
G01*
X6990381Y-18765381D02*
G75*
G02*
X7090381Y-18765381I50000J0D01*
G01*
X7058059Y-18676993D02*
X6951993Y-18783059D01*
X7022703Y-18853769D02*
G75*
G02*
X6951993Y-18783059I-35355J35355D01*
G01*
X7022703Y-18853769D02*
X7128769Y-18747703D01*
X7128769Y-18747703D02*
G75*
G03*
X7058059Y-18676993I-35355J35355D01*
G01*
X7090381Y-20415381D02*
G75*
G02*
X6990381Y-20415381I-50000J0D01*
G01*
X6990381Y-20415381D02*
G75*
G02*
X7090381Y-20415381I50000J0D01*
G01*
X7058059Y-20326993D02*
X6951993Y-20433059D01*
X7022703Y-20503769D02*
G75*
G02*
X6951993Y-20433059I-35355J35355D01*
G01*
X7022703Y-20503769D02*
X7128769Y-20397703D01*
X7128769Y-20397703D02*
G75*
G03*
X7058059Y-20326993I-35355J35355D01*
G01*
X7296000Y-4646000D02*
G75*
G02*
X7196000Y-4646000I-50000J0D01*
G01*
X7196000Y-4646000D02*
G75*
G02*
X7296000Y-4646000I50000J0D01*
G01*
X7296000Y-4900000D02*
G75*
G02*
X7196000Y-4900000I-50000J0D01*
G01*
X7196000Y-4900000D02*
G75*
G02*
X7296000Y-4900000I50000J0D01*
G01*
X7317000Y-15996250D02*
G75*
G02*
X7217000Y-15996250I-50000J0D01*
G01*
X7217000Y-15996250D02*
G75*
G02*
X7317000Y-15996250I50000J0D01*
G01*
X7317000Y-16250250D02*
G75*
G02*
X7217000Y-16250250I-50000J0D01*
G01*
X7217000Y-16250250D02*
G75*
G02*
X7317000Y-16250250I50000J0D01*
G01*
X7550000Y-4646000D02*
G75*
G02*
X7450000Y-4646000I-50000J0D01*
G01*
X7450000Y-4646000D02*
G75*
G02*
X7550000Y-4646000I50000J0D01*
G01*
X7550000Y-4900000D02*
G75*
G02*
X7450000Y-4900000I-50000J0D01*
G01*
X7450000Y-4900000D02*
G75*
G02*
X7550000Y-4900000I50000J0D01*
G01*
X7571000Y-15996250D02*
G75*
G02*
X7471000Y-15996250I-50000J0D01*
G01*
X7471000Y-15996250D02*
G75*
G02*
X7571000Y-15996250I50000J0D01*
G01*
X7571000Y-16250250D02*
G75*
G02*
X7471000Y-16250250I-50000J0D01*
G01*
X7471000Y-16250250D02*
G75*
G02*
X7571000Y-16250250I50000J0D01*
G01*
X7800000Y-16925000D02*
G75*
G02*
X7700000Y-16925000I-50000J0D01*
G01*
X7700000Y-16925000D02*
G75*
G02*
X7800000Y-16925000I50000J0D01*
G01*
X7675000Y-16975000D02*
X7825000Y-16975000D01*
X7825000Y-16875000D02*
G75*
G02*
X7825000Y-16975000I0J-50000D01*
G01*
X7825000Y-16875000D02*
X7675000Y-16875000D01*
X7675000Y-16875000D02*
G75*
G03*
X7675000Y-16975000I0J-50000D01*
G01*
X7800000Y-18575000D02*
G75*
G02*
X7700000Y-18575000I-50000J0D01*
G01*
X7700000Y-18575000D02*
G75*
G02*
X7800000Y-18575000I50000J0D01*
G01*
X7675000Y-18625000D02*
X7825000Y-18625000D01*
X7825000Y-18525000D02*
G75*
G02*
X7825000Y-18625000I0J-50000D01*
G01*
X7825000Y-18525000D02*
X7675000Y-18525000D01*
X7675000Y-18525000D02*
G75*
G03*
X7675000Y-18625000I0J-50000D01*
G01*
X7800000Y-20225000D02*
G75*
G02*
X7700000Y-20225000I-50000J0D01*
G01*
X7700000Y-20225000D02*
G75*
G02*
X7800000Y-20225000I50000J0D01*
G01*
X7675000Y-20275000D02*
X7825000Y-20275000D01*
X7825000Y-20175000D02*
G75*
G02*
X7825000Y-20275000I0J-50000D01*
G01*
X7825000Y-20175000D02*
X7675000Y-20175000D01*
X7675000Y-20175000D02*
G75*
G03*
X7675000Y-20275000I0J-50000D01*
G01*
X7804000Y-4646000D02*
G75*
G02*
X7704000Y-4646000I-50000J0D01*
G01*
X7704000Y-4646000D02*
G75*
G02*
X7804000Y-4646000I50000J0D01*
G01*
X7804000Y-4900000D02*
G75*
G02*
X7704000Y-4900000I-50000J0D01*
G01*
X7704000Y-4900000D02*
G75*
G02*
X7804000Y-4900000I50000J0D01*
G01*
X7825000Y-15996250D02*
G75*
G02*
X7725000Y-15996250I-50000J0D01*
G01*
X7725000Y-15996250D02*
G75*
G02*
X7825000Y-15996250I50000J0D01*
G01*
X7825000Y-16250250D02*
G75*
G02*
X7725000Y-16250250I-50000J0D01*
G01*
X7725000Y-16250250D02*
G75*
G02*
X7825000Y-16250250I50000J0D01*
G01*
X8058000Y-4646000D02*
G75*
G02*
X7958000Y-4646000I-50000J0D01*
G01*
X7958000Y-4646000D02*
G75*
G02*
X8058000Y-4646000I50000J0D01*
G01*
X8058000Y-4900000D02*
G75*
G02*
X7958000Y-4900000I-50000J0D01*
G01*
X7958000Y-4900000D02*
G75*
G02*
X8058000Y-4900000I50000J0D01*
G01*
X8079000Y-15996250D02*
G75*
G02*
X7979000Y-15996250I-50000J0D01*
G01*
X7979000Y-15996250D02*
G75*
G02*
X8079000Y-15996250I50000J0D01*
G01*
X8079000Y-16250250D02*
G75*
G02*
X7979000Y-16250250I-50000J0D01*
G01*
X7979000Y-16250250D02*
G75*
G02*
X8079000Y-16250250I50000J0D01*
G01*
X8200000Y-17525000D02*
G75*
G02*
X8100000Y-17525000I-50000J0D01*
G01*
X8100000Y-17525000D02*
G75*
G02*
X8200000Y-17525000I50000J0D01*
G01*
X8100000Y-17450000D02*
X8100000Y-17600000D01*
X8200000Y-17600000D02*
G75*
G02*
X8100000Y-17600000I-50000J0D01*
G01*
X8200000Y-17600000D02*
X8200000Y-17450000D01*
X8200000Y-17450000D02*
G75*
G03*
X8100000Y-17450000I-50000J0D01*
G01*
X8200000Y-19175000D02*
G75*
G02*
X8100000Y-19175000I-50000J0D01*
G01*
X8100000Y-19175000D02*
G75*
G02*
X8200000Y-19175000I50000J0D01*
G01*
X8100000Y-19100000D02*
X8100000Y-19250000D01*
X8200000Y-19250000D02*
G75*
G02*
X8100000Y-19250000I-50000J0D01*
G01*
X8200000Y-19250000D02*
X8200000Y-19100000D01*
X8200000Y-19100000D02*
G75*
G03*
X8100000Y-19100000I-50000J0D01*
G01*
X8200000Y-20825000D02*
G75*
G02*
X8100000Y-20825000I-50000J0D01*
G01*
X8100000Y-20825000D02*
G75*
G02*
X8200000Y-20825000I50000J0D01*
G01*
X8100000Y-20750000D02*
X8100000Y-20900000D01*
X8200000Y-20900000D02*
G75*
G02*
X8100000Y-20900000I-50000J0D01*
G01*
X8200000Y-20900000D02*
X8200000Y-20750000D01*
X8200000Y-20750000D02*
G75*
G03*
X8100000Y-20750000I-50000J0D01*
G01*
X8333000Y-15996250D02*
G75*
G02*
X8233000Y-15996250I-50000J0D01*
G01*
X8233000Y-15996250D02*
G75*
G02*
X8333000Y-15996250I50000J0D01*
G01*
X8333000Y-16250250D02*
G75*
G02*
X8233000Y-16250250I-50000J0D01*
G01*
X8233000Y-16250250D02*
G75*
G02*
X8333000Y-16250250I50000J0D01*
G01*
X8550000Y-17325000D02*
G75*
G02*
X8450000Y-17325000I-50000J0D01*
G01*
X8450000Y-17325000D02*
G75*
G02*
X8550000Y-17325000I50000J0D01*
G01*
X8550000Y-17400000D02*
X8550000Y-17250000D01*
X8450000Y-17250000D02*
G75*
G02*
X8550000Y-17250000I50000J0D01*
G01*
X8450000Y-17250000D02*
X8450000Y-17400000D01*
X8450000Y-17400000D02*
G75*
G03*
X8550000Y-17400000I50000J0D01*
G01*
X8550000Y-18975000D02*
G75*
G02*
X8450000Y-18975000I-50000J0D01*
G01*
X8450000Y-18975000D02*
G75*
G02*
X8550000Y-18975000I50000J0D01*
G01*
X8550000Y-19050000D02*
X8550000Y-18900000D01*
X8450000Y-18900000D02*
G75*
G02*
X8550000Y-18900000I50000J0D01*
G01*
X8450000Y-18900000D02*
X8450000Y-19050000D01*
X8450000Y-19050000D02*
G75*
G03*
X8550000Y-19050000I50000J0D01*
G01*
X8550000Y-20625000D02*
G75*
G02*
X8450000Y-20625000I-50000J0D01*
G01*
X8450000Y-20625000D02*
G75*
G02*
X8550000Y-20625000I50000J0D01*
G01*
X8550000Y-20700000D02*
X8550000Y-20550000D01*
X8450000Y-20550000D02*
G75*
G02*
X8550000Y-20550000I50000J0D01*
G01*
X8450000Y-20550000D02*
X8450000Y-20700000D01*
X8450000Y-20700000D02*
G75*
G03*
X8550000Y-20700000I50000J0D01*
G01*
X8740381Y-18034619D02*
G75*
G02*
X8640381Y-18034619I-50000J0D01*
G01*
X8640381Y-18034619D02*
G75*
G02*
X8740381Y-18034619I50000J0D01*
G01*
X8601993Y-18016941D02*
X8708059Y-18123007D01*
X8778769Y-18052297D02*
G75*
G02*
X8708059Y-18123007I-35355J-35355D01*
G01*
X8778769Y-18052297D02*
X8672703Y-17946231D01*
X8672703Y-17946231D02*
G75*
G03*
X8601993Y-18016941I-35355J-35355D01*
G01*
X8740381Y-19684619D02*
G75*
G02*
X8640381Y-19684619I-50000J0D01*
G01*
X8640381Y-19684619D02*
G75*
G02*
X8740381Y-19684619I50000J0D01*
G01*
X8601993Y-19666941D02*
X8708059Y-19773007D01*
X8778769Y-19702297D02*
G75*
G02*
X8708059Y-19773007I-35355J-35355D01*
G01*
X8778769Y-19702297D02*
X8672703Y-19596231D01*
X8672703Y-19596231D02*
G75*
G03*
X8601993Y-19666941I-35355J-35355D01*
G01*
X8740381Y-21334619D02*
G75*
G02*
X8640381Y-21334619I-50000J0D01*
G01*
X8640381Y-21334619D02*
G75*
G02*
X8740381Y-21334619I50000J0D01*
G01*
X8601993Y-21316941D02*
X8708059Y-21423007D01*
X8778769Y-21352297D02*
G75*
G02*
X8708059Y-21423007I-35355J-35355D01*
G01*
X8778769Y-21352297D02*
X8672703Y-21246231D01*
X8672703Y-21246231D02*
G75*
G03*
X8601993Y-21316941I-35355J-35355D01*
G01*
X9150000Y-16925000D02*
G75*
G02*
X9050000Y-16925000I-50000J0D01*
G01*
X9050000Y-16925000D02*
G75*
G02*
X9150000Y-16925000I50000J0D01*
G01*
X9025000Y-16975000D02*
X9175000Y-16975000D01*
X9175000Y-16875000D02*
G75*
G02*
X9175000Y-16975000I0J-50000D01*
G01*
X9175000Y-16875000D02*
X9025000Y-16875000D01*
X9025000Y-16875000D02*
G75*
G03*
X9025000Y-16975000I0J-50000D01*
G01*
X9150000Y-18575000D02*
G75*
G02*
X9050000Y-18575000I-50000J0D01*
G01*
X9050000Y-18575000D02*
G75*
G02*
X9150000Y-18575000I50000J0D01*
G01*
X9025000Y-18625000D02*
X9175000Y-18625000D01*
X9175000Y-18525000D02*
G75*
G02*
X9175000Y-18625000I0J-50000D01*
G01*
X9175000Y-18525000D02*
X9025000Y-18525000D01*
X9025000Y-18525000D02*
G75*
G03*
X9025000Y-18625000I0J-50000D01*
G01*
X9150000Y-20225000D02*
G75*
G02*
X9050000Y-20225000I-50000J0D01*
G01*
X9050000Y-20225000D02*
G75*
G02*
X9150000Y-20225000I50000J0D01*
G01*
X9025000Y-20275000D02*
X9175000Y-20275000D01*
X9175000Y-20175000D02*
G75*
G02*
X9175000Y-20275000I0J-50000D01*
G01*
X9175000Y-20175000D02*
X9025000Y-20175000D01*
X9025000Y-20175000D02*
G75*
G03*
X9025000Y-20275000I0J-50000D01*
G01*
X9750000Y-6250000D02*
G75*
G02*
X9650000Y-6250000I-50000J0D01*
G01*
X9650000Y-6250000D02*
G75*
G02*
X9750000Y-6250000I50000J0D01*
G01*
X9750000Y-6504000D02*
G75*
G02*
X9650000Y-6504000I-50000J0D01*
G01*
X9650000Y-6504000D02*
G75*
G02*
X9750000Y-6504000I50000J0D01*
G01*
X9750000Y-6758000D02*
G75*
G02*
X9650000Y-6758000I-50000J0D01*
G01*
X9650000Y-6758000D02*
G75*
G02*
X9750000Y-6758000I50000J0D01*
G01*
X9750000Y-7012000D02*
G75*
G02*
X9650000Y-7012000I-50000J0D01*
G01*
X9650000Y-7012000D02*
G75*
G02*
X9750000Y-7012000I50000J0D01*
G01*
X9750000Y-7266000D02*
G75*
G02*
X9650000Y-7266000I-50000J0D01*
G01*
X9650000Y-7266000D02*
G75*
G02*
X9750000Y-7266000I50000J0D01*
G01*
X9750000Y-7520000D02*
G75*
G02*
X9650000Y-7520000I-50000J0D01*
G01*
X9650000Y-7520000D02*
G75*
G02*
X9750000Y-7520000I50000J0D01*
G01*
X9750000Y-7774000D02*
G75*
G02*
X9650000Y-7774000I-50000J0D01*
G01*
X9650000Y-7774000D02*
G75*
G02*
X9750000Y-7774000I50000J0D01*
G01*
X9750000Y-8028000D02*
G75*
G02*
X9650000Y-8028000I-50000J0D01*
G01*
X9650000Y-8028000D02*
G75*
G02*
X9750000Y-8028000I50000J0D01*
G01*
X9750000Y-13300000D02*
G75*
G02*
X9650000Y-13300000I-50000J0D01*
G01*
X9650000Y-13300000D02*
G75*
G02*
X9750000Y-13300000I50000J0D01*
G01*
X9750000Y-13554000D02*
G75*
G02*
X9650000Y-13554000I-50000J0D01*
G01*
X9650000Y-13554000D02*
G75*
G02*
X9750000Y-13554000I50000J0D01*
G01*
X9750000Y-13808000D02*
G75*
G02*
X9650000Y-13808000I-50000J0D01*
G01*
X9650000Y-13808000D02*
G75*
G02*
X9750000Y-13808000I50000J0D01*
G01*
X9750000Y-14062000D02*
G75*
G02*
X9650000Y-14062000I-50000J0D01*
G01*
X9650000Y-14062000D02*
G75*
G02*
X9750000Y-14062000I50000J0D01*
G01*
X9750000Y-14316000D02*
G75*
G02*
X9650000Y-14316000I-50000J0D01*
G01*
X9650000Y-14316000D02*
G75*
G02*
X9750000Y-14316000I50000J0D01*
G01*
X9750000Y-14570000D02*
G75*
G02*
X9650000Y-14570000I-50000J0D01*
G01*
X9650000Y-14570000D02*
G75*
G02*
X9750000Y-14570000I50000J0D01*
G01*
X9750000Y-14824000D02*
G75*
G02*
X9650000Y-14824000I-50000J0D01*
G01*
X9650000Y-14824000D02*
G75*
G02*
X9750000Y-14824000I50000J0D01*
G01*
X9750000Y-15078000D02*
G75*
G02*
X9650000Y-15078000I-50000J0D01*
G01*
X9650000Y-15078000D02*
G75*
G02*
X9750000Y-15078000I50000J0D01*
G01*
D13*
X5320000Y-4375000D02*
X5320000Y-4485000D01*
X5265000Y-4430000D02*
X5375000Y-4430000D01*
X5320000Y-5391000D02*
X5320000Y-5501000D01*
X5265000Y-5446000D02*
X5375000Y-5446000D01*
X9680000Y-4375000D02*
X9680000Y-4485000D01*
X9625000Y-4430000D02*
X9735000Y-4430000D01*
X9680000Y-5391000D02*
X9680000Y-5501000D01*
X9625000Y-5446000D02*
X9735000Y-5446000D01*
D11*
X5358277Y-22063984D02*
X5358277Y-21863984D01*
X5358277Y-21863984D02*
X5405896Y-21863984D01*
X5405896Y-21863984D02*
X5434467Y-21873508D01*
X5434467Y-21873508D02*
X5453515Y-21892555D01*
X5453515Y-21892555D02*
X5463039Y-21911603D01*
X5463039Y-21911603D02*
X5472563Y-21949698D01*
X5472563Y-21949698D02*
X5472563Y-21978270D01*
X5472563Y-21978270D02*
X5463039Y-22016365D01*
X5463039Y-22016365D02*
X5453515Y-22035412D01*
X5453515Y-22035412D02*
X5434467Y-22054460D01*
X5434467Y-22054460D02*
X5405896Y-22063984D01*
X5405896Y-22063984D02*
X5358277Y-22063984D01*
X5558277Y-22063984D02*
X5558277Y-21930650D01*
X5558277Y-21968746D02*
X5567801Y-21949698D01*
X5567801Y-21949698D02*
X5577324Y-21940174D01*
X5577324Y-21940174D02*
X5596372Y-21930650D01*
X5596372Y-21930650D02*
X5615420Y-21930650D01*
X5682086Y-22063984D02*
X5682086Y-21930650D01*
X5682086Y-21863984D02*
X5672562Y-21873508D01*
X5672562Y-21873508D02*
X5682086Y-21883031D01*
X5682086Y-21883031D02*
X5691610Y-21873508D01*
X5691610Y-21873508D02*
X5682086Y-21863984D01*
X5682086Y-21863984D02*
X5682086Y-21883031D01*
X5805896Y-22063984D02*
X5786848Y-22054460D01*
X5786848Y-22054460D02*
X5777324Y-22035412D01*
X5777324Y-22035412D02*
X5777324Y-21863984D01*
X5910658Y-22063984D02*
X5891610Y-22054460D01*
X5891610Y-22054460D02*
X5882086Y-22035412D01*
X5882086Y-22035412D02*
X5882086Y-21863984D01*
X6139229Y-22063984D02*
X6139229Y-21863984D01*
X6139229Y-21863984D02*
X6205896Y-22006841D01*
X6205896Y-22006841D02*
X6272562Y-21863984D01*
X6272562Y-21863984D02*
X6272562Y-22063984D01*
X6453515Y-22063984D02*
X6453515Y-21959222D01*
X6453515Y-21959222D02*
X6443991Y-21940174D01*
X6443991Y-21940174D02*
X6424943Y-21930650D01*
X6424943Y-21930650D02*
X6386848Y-21930650D01*
X6386848Y-21930650D02*
X6367801Y-21940174D01*
X6453515Y-22054460D02*
X6434467Y-22063984D01*
X6434467Y-22063984D02*
X6386848Y-22063984D01*
X6386848Y-22063984D02*
X6367801Y-22054460D01*
X6367801Y-22054460D02*
X6358277Y-22035412D01*
X6358277Y-22035412D02*
X6358277Y-22016365D01*
X6358277Y-22016365D02*
X6367801Y-21997317D01*
X6367801Y-21997317D02*
X6386848Y-21987793D01*
X6386848Y-21987793D02*
X6434467Y-21987793D01*
X6434467Y-21987793D02*
X6453515Y-21978270D01*
X6548753Y-21930650D02*
X6548753Y-22130650D01*
X6548753Y-21940174D02*
X6567801Y-21930650D01*
X6567801Y-21930650D02*
X6605896Y-21930650D01*
X6605896Y-21930650D02*
X6624943Y-21940174D01*
X6624943Y-21940174D02*
X6634467Y-21949698D01*
X6634467Y-21949698D02*
X6643991Y-21968746D01*
X6643991Y-21968746D02*
X6643991Y-22025889D01*
X6643991Y-22025889D02*
X6634467Y-22044936D01*
X6634467Y-22044936D02*
X6624943Y-22054460D01*
X6624943Y-22054460D02*
X6605896Y-22063984D01*
X6605896Y-22063984D02*
X6567801Y-22063984D01*
X6567801Y-22063984D02*
X6548753Y-22054460D01*
X6729705Y-22044936D02*
X6739229Y-22054460D01*
X6739229Y-22054460D02*
X6729705Y-22063984D01*
X6729705Y-22063984D02*
X6720182Y-22054460D01*
X6720182Y-22054460D02*
X6729705Y-22044936D01*
X6729705Y-22044936D02*
X6729705Y-22063984D01*
X6729705Y-21940174D02*
X6739229Y-21949698D01*
X6739229Y-21949698D02*
X6729705Y-21959222D01*
X6729705Y-21959222D02*
X6720182Y-21949698D01*
X6720182Y-21949698D02*
X6729705Y-21940174D01*
X6729705Y-21940174D02*
X6729705Y-21959222D01*
D12*
X5017500Y-22352500D02*
X5097500Y-22432500D01*
X5097500Y-22352500D02*
X5017500Y-22432500D01*
D11*
X5396372Y-22283984D02*
X5415420Y-22283984D01*
X5415420Y-22283984D02*
X5434467Y-22293508D01*
X5434467Y-22293508D02*
X5443991Y-22303031D01*
X5443991Y-22303031D02*
X5453515Y-22322079D01*
X5453515Y-22322079D02*
X5463039Y-22360174D01*
X5463039Y-22360174D02*
X5463039Y-22407793D01*
X5463039Y-22407793D02*
X5453515Y-22445888D01*
X5453515Y-22445888D02*
X5443991Y-22464936D01*
X5443991Y-22464936D02*
X5434467Y-22474460D01*
X5434467Y-22474460D02*
X5415420Y-22483984D01*
X5415420Y-22483984D02*
X5396372Y-22483984D01*
X5396372Y-22483984D02*
X5377324Y-22474460D01*
X5377324Y-22474460D02*
X5367801Y-22464936D01*
X5367801Y-22464936D02*
X5358277Y-22445888D01*
X5358277Y-22445888D02*
X5348753Y-22407793D01*
X5348753Y-22407793D02*
X5348753Y-22360174D01*
X5348753Y-22360174D02*
X5358277Y-22322079D01*
X5358277Y-22322079D02*
X5367801Y-22303031D01*
X5367801Y-22303031D02*
X5377324Y-22293508D01*
X5377324Y-22293508D02*
X5396372Y-22283984D01*
X5548753Y-22464936D02*
X5558277Y-22474460D01*
X5558277Y-22474460D02*
X5548753Y-22483984D01*
X5548753Y-22483984D02*
X5539229Y-22474460D01*
X5539229Y-22474460D02*
X5548753Y-22464936D01*
X5548753Y-22464936D02*
X5548753Y-22483984D01*
X5672562Y-22369698D02*
X5653515Y-22360174D01*
X5653515Y-22360174D02*
X5643991Y-22350650D01*
X5643991Y-22350650D02*
X5634467Y-22331603D01*
X5634467Y-22331603D02*
X5634467Y-22322079D01*
X5634467Y-22322079D02*
X5643991Y-22303031D01*
X5643991Y-22303031D02*
X5653515Y-22293508D01*
X5653515Y-22293508D02*
X5672562Y-22283984D01*
X5672562Y-22283984D02*
X5710658Y-22283984D01*
X5710658Y-22283984D02*
X5729705Y-22293508D01*
X5729705Y-22293508D02*
X5739229Y-22303031D01*
X5739229Y-22303031D02*
X5748753Y-22322079D01*
X5748753Y-22322079D02*
X5748753Y-22331603D01*
X5748753Y-22331603D02*
X5739229Y-22350650D01*
X5739229Y-22350650D02*
X5729705Y-22360174D01*
X5729705Y-22360174D02*
X5710658Y-22369698D01*
X5710658Y-22369698D02*
X5672562Y-22369698D01*
X5672562Y-22369698D02*
X5653515Y-22379222D01*
X5653515Y-22379222D02*
X5643991Y-22388746D01*
X5643991Y-22388746D02*
X5634467Y-22407793D01*
X5634467Y-22407793D02*
X5634467Y-22445888D01*
X5634467Y-22445888D02*
X5643991Y-22464936D01*
X5643991Y-22464936D02*
X5653515Y-22474460D01*
X5653515Y-22474460D02*
X5672562Y-22483984D01*
X5672562Y-22483984D02*
X5710658Y-22483984D01*
X5710658Y-22483984D02*
X5729705Y-22474460D01*
X5729705Y-22474460D02*
X5739229Y-22464936D01*
X5739229Y-22464936D02*
X5748753Y-22445888D01*
X5748753Y-22445888D02*
X5748753Y-22407793D01*
X5748753Y-22407793D02*
X5739229Y-22388746D01*
X5739229Y-22388746D02*
X5729705Y-22379222D01*
X5729705Y-22379222D02*
X5710658Y-22369698D01*
X5872562Y-22283984D02*
X5891610Y-22283984D01*
X5891610Y-22283984D02*
X5910658Y-22293508D01*
X5910658Y-22293508D02*
X5920182Y-22303031D01*
X5920182Y-22303031D02*
X5929705Y-22322079D01*
X5929705Y-22322079D02*
X5939229Y-22360174D01*
X5939229Y-22360174D02*
X5939229Y-22407793D01*
X5939229Y-22407793D02*
X5929705Y-22445888D01*
X5929705Y-22445888D02*
X5920182Y-22464936D01*
X5920182Y-22464936D02*
X5910658Y-22474460D01*
X5910658Y-22474460D02*
X5891610Y-22483984D01*
X5891610Y-22483984D02*
X5872562Y-22483984D01*
X5872562Y-22483984D02*
X5853515Y-22474460D01*
X5853515Y-22474460D02*
X5843991Y-22464936D01*
X5843991Y-22464936D02*
X5834467Y-22445888D01*
X5834467Y-22445888D02*
X5824943Y-22407793D01*
X5824943Y-22407793D02*
X5824943Y-22360174D01*
X5824943Y-22360174D02*
X5834467Y-22322079D01*
X5834467Y-22322079D02*
X5843991Y-22303031D01*
X5843991Y-22303031D02*
X5853515Y-22293508D01*
X5853515Y-22293508D02*
X5872562Y-22283984D01*
X6063039Y-22283984D02*
X6082086Y-22283984D01*
X6082086Y-22283984D02*
X6101134Y-22293508D01*
X6101134Y-22293508D02*
X6110658Y-22303031D01*
X6110658Y-22303031D02*
X6120182Y-22322079D01*
X6120182Y-22322079D02*
X6129705Y-22360174D01*
X6129705Y-22360174D02*
X6129705Y-22407793D01*
X6129705Y-22407793D02*
X6120182Y-22445888D01*
X6120182Y-22445888D02*
X6110658Y-22464936D01*
X6110658Y-22464936D02*
X6101134Y-22474460D01*
X6101134Y-22474460D02*
X6082086Y-22483984D01*
X6082086Y-22483984D02*
X6063039Y-22483984D01*
X6063039Y-22483984D02*
X6043991Y-22474460D01*
X6043991Y-22474460D02*
X6034467Y-22464936D01*
X6034467Y-22464936D02*
X6024943Y-22445888D01*
X6024943Y-22445888D02*
X6015420Y-22407793D01*
X6015420Y-22407793D02*
X6015420Y-22360174D01*
X6015420Y-22360174D02*
X6024943Y-22322079D01*
X6024943Y-22322079D02*
X6034467Y-22303031D01*
X6034467Y-22303031D02*
X6043991Y-22293508D01*
X6043991Y-22293508D02*
X6063039Y-22283984D01*
X6215420Y-22483984D02*
X6215420Y-22350650D01*
X6215420Y-22369698D02*
X6224943Y-22360174D01*
X6224943Y-22360174D02*
X6243991Y-22350650D01*
X6243991Y-22350650D02*
X6272563Y-22350650D01*
X6272563Y-22350650D02*
X6291610Y-22360174D01*
X6291610Y-22360174D02*
X6301134Y-22379222D01*
X6301134Y-22379222D02*
X6301134Y-22483984D01*
X6301134Y-22379222D02*
X6310658Y-22360174D01*
X6310658Y-22360174D02*
X6329705Y-22350650D01*
X6329705Y-22350650D02*
X6358277Y-22350650D01*
X6358277Y-22350650D02*
X6377324Y-22360174D01*
X6377324Y-22360174D02*
X6386848Y-22379222D01*
X6386848Y-22379222D02*
X6386848Y-22483984D01*
X6482086Y-22483984D02*
X6482086Y-22350650D01*
X6482086Y-22369698D02*
X6491610Y-22360174D01*
X6491610Y-22360174D02*
X6510658Y-22350650D01*
X6510658Y-22350650D02*
X6539229Y-22350650D01*
X6539229Y-22350650D02*
X6558277Y-22360174D01*
X6558277Y-22360174D02*
X6567801Y-22379222D01*
X6567801Y-22379222D02*
X6567801Y-22483984D01*
X6567801Y-22379222D02*
X6577324Y-22360174D01*
X6577324Y-22360174D02*
X6596372Y-22350650D01*
X6596372Y-22350650D02*
X6624943Y-22350650D01*
X6624943Y-22350650D02*
X6643991Y-22360174D01*
X6643991Y-22360174D02*
X6653515Y-22379222D01*
X6653515Y-22379222D02*
X6653515Y-22483984D01*
X7043991Y-22274460D02*
X6872563Y-22531603D01*
X7301134Y-22283984D02*
X7320182Y-22283984D01*
X7320182Y-22283984D02*
X7339229Y-22293508D01*
X7339229Y-22293508D02*
X7348753Y-22303031D01*
X7348753Y-22303031D02*
X7358277Y-22322079D01*
X7358277Y-22322079D02*
X7367801Y-22360174D01*
X7367801Y-22360174D02*
X7367801Y-22407793D01*
X7367801Y-22407793D02*
X7358277Y-22445888D01*
X7358277Y-22445888D02*
X7348753Y-22464936D01*
X7348753Y-22464936D02*
X7339229Y-22474460D01*
X7339229Y-22474460D02*
X7320182Y-22483984D01*
X7320182Y-22483984D02*
X7301134Y-22483984D01*
X7301134Y-22483984D02*
X7282086Y-22474460D01*
X7282086Y-22474460D02*
X7272563Y-22464936D01*
X7272563Y-22464936D02*
X7263039Y-22445888D01*
X7263039Y-22445888D02*
X7253515Y-22407793D01*
X7253515Y-22407793D02*
X7253515Y-22360174D01*
X7253515Y-22360174D02*
X7263039Y-22322079D01*
X7263039Y-22322079D02*
X7272563Y-22303031D01*
X7272563Y-22303031D02*
X7282086Y-22293508D01*
X7282086Y-22293508D02*
X7301134Y-22283984D01*
X7453515Y-22464936D02*
X7463039Y-22474460D01*
X7463039Y-22474460D02*
X7453515Y-22483984D01*
X7453515Y-22483984D02*
X7443991Y-22474460D01*
X7443991Y-22474460D02*
X7453515Y-22464936D01*
X7453515Y-22464936D02*
X7453515Y-22483984D01*
X7586848Y-22283984D02*
X7605896Y-22283984D01*
X7605896Y-22283984D02*
X7624944Y-22293508D01*
X7624944Y-22293508D02*
X7634467Y-22303031D01*
X7634467Y-22303031D02*
X7643991Y-22322079D01*
X7643991Y-22322079D02*
X7653515Y-22360174D01*
X7653515Y-22360174D02*
X7653515Y-22407793D01*
X7653515Y-22407793D02*
X7643991Y-22445888D01*
X7643991Y-22445888D02*
X7634467Y-22464936D01*
X7634467Y-22464936D02*
X7624944Y-22474460D01*
X7624944Y-22474460D02*
X7605896Y-22483984D01*
X7605896Y-22483984D02*
X7586848Y-22483984D01*
X7586848Y-22483984D02*
X7567801Y-22474460D01*
X7567801Y-22474460D02*
X7558277Y-22464936D01*
X7558277Y-22464936D02*
X7548753Y-22445888D01*
X7548753Y-22445888D02*
X7539229Y-22407793D01*
X7539229Y-22407793D02*
X7539229Y-22360174D01*
X7539229Y-22360174D02*
X7548753Y-22322079D01*
X7548753Y-22322079D02*
X7558277Y-22303031D01*
X7558277Y-22303031D02*
X7567801Y-22293508D01*
X7567801Y-22293508D02*
X7586848Y-22283984D01*
X7720182Y-22283984D02*
X7843991Y-22283984D01*
X7843991Y-22283984D02*
X7777325Y-22360174D01*
X7777325Y-22360174D02*
X7805896Y-22360174D01*
X7805896Y-22360174D02*
X7824944Y-22369698D01*
X7824944Y-22369698D02*
X7834467Y-22379222D01*
X7834467Y-22379222D02*
X7843991Y-22398269D01*
X7843991Y-22398269D02*
X7843991Y-22445888D01*
X7843991Y-22445888D02*
X7834467Y-22464936D01*
X7834467Y-22464936D02*
X7824944Y-22474460D01*
X7824944Y-22474460D02*
X7805896Y-22483984D01*
X7805896Y-22483984D02*
X7748753Y-22483984D01*
X7748753Y-22483984D02*
X7729706Y-22474460D01*
X7729706Y-22474460D02*
X7720182Y-22464936D01*
X8034467Y-22483984D02*
X7920182Y-22483984D01*
X7977325Y-22483984D02*
X7977325Y-22283984D01*
X7977325Y-22283984D02*
X7958277Y-22312555D01*
X7958277Y-22312555D02*
X7939229Y-22331603D01*
X7939229Y-22331603D02*
X7920182Y-22341127D01*
X8215420Y-22283984D02*
X8120182Y-22283984D01*
X8120182Y-22283984D02*
X8110658Y-22379222D01*
X8110658Y-22379222D02*
X8120182Y-22369698D01*
X8120182Y-22369698D02*
X8139229Y-22360174D01*
X8139229Y-22360174D02*
X8186848Y-22360174D01*
X8186848Y-22360174D02*
X8205896Y-22369698D01*
X8205896Y-22369698D02*
X8215420Y-22379222D01*
X8215420Y-22379222D02*
X8224944Y-22398269D01*
X8224944Y-22398269D02*
X8224944Y-22445888D01*
X8224944Y-22445888D02*
X8215420Y-22464936D01*
X8215420Y-22464936D02*
X8205896Y-22474460D01*
X8205896Y-22474460D02*
X8186848Y-22483984D01*
X8186848Y-22483984D02*
X8139229Y-22483984D01*
X8139229Y-22483984D02*
X8120182Y-22474460D01*
X8120182Y-22474460D02*
X8110658Y-22464936D01*
X8301134Y-22283984D02*
X8301134Y-22322079D01*
X8377325Y-22283984D02*
X8377325Y-22322079D01*
X8672563Y-22560174D02*
X8663039Y-22550650D01*
X8663039Y-22550650D02*
X8643991Y-22522079D01*
X8643991Y-22522079D02*
X8634468Y-22503031D01*
X8634468Y-22503031D02*
X8624944Y-22474460D01*
X8624944Y-22474460D02*
X8615420Y-22426841D01*
X8615420Y-22426841D02*
X8615420Y-22388746D01*
X8615420Y-22388746D02*
X8624944Y-22341127D01*
X8624944Y-22341127D02*
X8634468Y-22312555D01*
X8634468Y-22312555D02*
X8643991Y-22293508D01*
X8643991Y-22293508D02*
X8663039Y-22264936D01*
X8663039Y-22264936D02*
X8672563Y-22255412D01*
X8739230Y-22303031D02*
X8748753Y-22293508D01*
X8748753Y-22293508D02*
X8767801Y-22283984D01*
X8767801Y-22283984D02*
X8815420Y-22283984D01*
X8815420Y-22283984D02*
X8834468Y-22293508D01*
X8834468Y-22293508D02*
X8843991Y-22303031D01*
X8843991Y-22303031D02*
X8853515Y-22322079D01*
X8853515Y-22322079D02*
X8853515Y-22341127D01*
X8853515Y-22341127D02*
X8843991Y-22369698D01*
X8843991Y-22369698D02*
X8729706Y-22483984D01*
X8729706Y-22483984D02*
X8853515Y-22483984D01*
X9043991Y-22483984D02*
X8929706Y-22483984D01*
X8986849Y-22483984D02*
X8986849Y-22283984D01*
X8986849Y-22283984D02*
X8967801Y-22312555D01*
X8967801Y-22312555D02*
X8948753Y-22331603D01*
X8948753Y-22331603D02*
X8929706Y-22341127D01*
X9120182Y-22303031D02*
X9129706Y-22293508D01*
X9129706Y-22293508D02*
X9148753Y-22283984D01*
X9148753Y-22283984D02*
X9196372Y-22283984D01*
X9196372Y-22283984D02*
X9215420Y-22293508D01*
X9215420Y-22293508D02*
X9224944Y-22303031D01*
X9224944Y-22303031D02*
X9234468Y-22322079D01*
X9234468Y-22322079D02*
X9234468Y-22341127D01*
X9234468Y-22341127D02*
X9224944Y-22369698D01*
X9224944Y-22369698D02*
X9110658Y-22483984D01*
X9110658Y-22483984D02*
X9234468Y-22483984D01*
X9472563Y-22483984D02*
X9472563Y-22283984D01*
X9558277Y-22483984D02*
X9558277Y-22379222D01*
X9558277Y-22379222D02*
X9548753Y-22360174D01*
X9548753Y-22360174D02*
X9529706Y-22350650D01*
X9529706Y-22350650D02*
X9501134Y-22350650D01*
X9501134Y-22350650D02*
X9482087Y-22360174D01*
X9482087Y-22360174D02*
X9472563Y-22369698D01*
X9682087Y-22483984D02*
X9663039Y-22474460D01*
X9663039Y-22474460D02*
X9653515Y-22464936D01*
X9653515Y-22464936D02*
X9643992Y-22445888D01*
X9643992Y-22445888D02*
X9643992Y-22388746D01*
X9643992Y-22388746D02*
X9653515Y-22369698D01*
X9653515Y-22369698D02*
X9663039Y-22360174D01*
X9663039Y-22360174D02*
X9682087Y-22350650D01*
X9682087Y-22350650D02*
X9710658Y-22350650D01*
X9710658Y-22350650D02*
X9729706Y-22360174D01*
X9729706Y-22360174D02*
X9739230Y-22369698D01*
X9739230Y-22369698D02*
X9748753Y-22388746D01*
X9748753Y-22388746D02*
X9748753Y-22445888D01*
X9748753Y-22445888D02*
X9739230Y-22464936D01*
X9739230Y-22464936D02*
X9729706Y-22474460D01*
X9729706Y-22474460D02*
X9710658Y-22483984D01*
X9710658Y-22483984D02*
X9682087Y-22483984D01*
X9863039Y-22483984D02*
X9843992Y-22474460D01*
X9843992Y-22474460D02*
X9834468Y-22455412D01*
X9834468Y-22455412D02*
X9834468Y-22283984D01*
X10015420Y-22474460D02*
X9996373Y-22483984D01*
X9996373Y-22483984D02*
X9958277Y-22483984D01*
X9958277Y-22483984D02*
X9939230Y-22474460D01*
X9939230Y-22474460D02*
X9929706Y-22455412D01*
X9929706Y-22455412D02*
X9929706Y-22379222D01*
X9929706Y-22379222D02*
X9939230Y-22360174D01*
X9939230Y-22360174D02*
X9958277Y-22350650D01*
X9958277Y-22350650D02*
X9996373Y-22350650D01*
X9996373Y-22350650D02*
X10015420Y-22360174D01*
X10015420Y-22360174D02*
X10024944Y-22379222D01*
X10024944Y-22379222D02*
X10024944Y-22398269D01*
X10024944Y-22398269D02*
X9929706Y-22417317D01*
X10101134Y-22474460D02*
X10120182Y-22483984D01*
X10120182Y-22483984D02*
X10158277Y-22483984D01*
X10158277Y-22483984D02*
X10177325Y-22474460D01*
X10177325Y-22474460D02*
X10186849Y-22455412D01*
X10186849Y-22455412D02*
X10186849Y-22445888D01*
X10186849Y-22445888D02*
X10177325Y-22426841D01*
X10177325Y-22426841D02*
X10158277Y-22417317D01*
X10158277Y-22417317D02*
X10129706Y-22417317D01*
X10129706Y-22417317D02*
X10110658Y-22407793D01*
X10110658Y-22407793D02*
X10101134Y-22388746D01*
X10101134Y-22388746D02*
X10101134Y-22379222D01*
X10101134Y-22379222D02*
X10110658Y-22360174D01*
X10110658Y-22360174D02*
X10129706Y-22350650D01*
X10129706Y-22350650D02*
X10158277Y-22350650D01*
X10158277Y-22350650D02*
X10177325Y-22360174D01*
X10253515Y-22560174D02*
X10263039Y-22550650D01*
X10263039Y-22550650D02*
X10282087Y-22522079D01*
X10282087Y-22522079D02*
X10291611Y-22503031D01*
X10291611Y-22503031D02*
X10301134Y-22474460D01*
X10301134Y-22474460D02*
X10310658Y-22426841D01*
X10310658Y-22426841D02*
X10310658Y-22388746D01*
X10310658Y-22388746D02*
X10301134Y-22341127D01*
X10301134Y-22341127D02*
X10291611Y-22312555D01*
X10291611Y-22312555D02*
X10282087Y-22293508D01*
X10282087Y-22293508D02*
X10263039Y-22264936D01*
X10263039Y-22264936D02*
X10253515Y-22255412D01*
D12*
X5097500Y-22656500D02*
G75*
G02*
X4997500Y-22656500I-50000J0D01*
G01*
X4997500Y-22656500D02*
G75*
G02*
X5097500Y-22656500I50000J0D01*
G01*
D11*
X5463039Y-22747984D02*
X5348753Y-22747984D01*
X5405896Y-22747984D02*
X5405896Y-22547984D01*
X5405896Y-22547984D02*
X5386848Y-22576555D01*
X5386848Y-22576555D02*
X5367801Y-22595603D01*
X5367801Y-22595603D02*
X5348753Y-22605127D01*
X5548753Y-22728936D02*
X5558277Y-22738460D01*
X5558277Y-22738460D02*
X5548753Y-22747984D01*
X5548753Y-22747984D02*
X5539229Y-22738460D01*
X5539229Y-22738460D02*
X5548753Y-22728936D01*
X5548753Y-22728936D02*
X5548753Y-22747984D01*
X5682086Y-22547984D02*
X5701134Y-22547984D01*
X5701134Y-22547984D02*
X5720182Y-22557508D01*
X5720182Y-22557508D02*
X5729705Y-22567031D01*
X5729705Y-22567031D02*
X5739229Y-22586079D01*
X5739229Y-22586079D02*
X5748753Y-22624174D01*
X5748753Y-22624174D02*
X5748753Y-22671793D01*
X5748753Y-22671793D02*
X5739229Y-22709888D01*
X5739229Y-22709888D02*
X5729705Y-22728936D01*
X5729705Y-22728936D02*
X5720182Y-22738460D01*
X5720182Y-22738460D02*
X5701134Y-22747984D01*
X5701134Y-22747984D02*
X5682086Y-22747984D01*
X5682086Y-22747984D02*
X5663039Y-22738460D01*
X5663039Y-22738460D02*
X5653515Y-22728936D01*
X5653515Y-22728936D02*
X5643991Y-22709888D01*
X5643991Y-22709888D02*
X5634467Y-22671793D01*
X5634467Y-22671793D02*
X5634467Y-22624174D01*
X5634467Y-22624174D02*
X5643991Y-22586079D01*
X5643991Y-22586079D02*
X5653515Y-22567031D01*
X5653515Y-22567031D02*
X5663039Y-22557508D01*
X5663039Y-22557508D02*
X5682086Y-22547984D01*
X5872562Y-22547984D02*
X5891610Y-22547984D01*
X5891610Y-22547984D02*
X5910658Y-22557508D01*
X5910658Y-22557508D02*
X5920182Y-22567031D01*
X5920182Y-22567031D02*
X5929705Y-22586079D01*
X5929705Y-22586079D02*
X5939229Y-22624174D01*
X5939229Y-22624174D02*
X5939229Y-22671793D01*
X5939229Y-22671793D02*
X5929705Y-22709888D01*
X5929705Y-22709888D02*
X5920182Y-22728936D01*
X5920182Y-22728936D02*
X5910658Y-22738460D01*
X5910658Y-22738460D02*
X5891610Y-22747984D01*
X5891610Y-22747984D02*
X5872562Y-22747984D01*
X5872562Y-22747984D02*
X5853515Y-22738460D01*
X5853515Y-22738460D02*
X5843991Y-22728936D01*
X5843991Y-22728936D02*
X5834467Y-22709888D01*
X5834467Y-22709888D02*
X5824943Y-22671793D01*
X5824943Y-22671793D02*
X5824943Y-22624174D01*
X5824943Y-22624174D02*
X5834467Y-22586079D01*
X5834467Y-22586079D02*
X5843991Y-22567031D01*
X5843991Y-22567031D02*
X5853515Y-22557508D01*
X5853515Y-22557508D02*
X5872562Y-22547984D01*
X6063039Y-22547984D02*
X6082086Y-22547984D01*
X6082086Y-22547984D02*
X6101134Y-22557508D01*
X6101134Y-22557508D02*
X6110658Y-22567031D01*
X6110658Y-22567031D02*
X6120182Y-22586079D01*
X6120182Y-22586079D02*
X6129705Y-22624174D01*
X6129705Y-22624174D02*
X6129705Y-22671793D01*
X6129705Y-22671793D02*
X6120182Y-22709888D01*
X6120182Y-22709888D02*
X6110658Y-22728936D01*
X6110658Y-22728936D02*
X6101134Y-22738460D01*
X6101134Y-22738460D02*
X6082086Y-22747984D01*
X6082086Y-22747984D02*
X6063039Y-22747984D01*
X6063039Y-22747984D02*
X6043991Y-22738460D01*
X6043991Y-22738460D02*
X6034467Y-22728936D01*
X6034467Y-22728936D02*
X6024943Y-22709888D01*
X6024943Y-22709888D02*
X6015420Y-22671793D01*
X6015420Y-22671793D02*
X6015420Y-22624174D01*
X6015420Y-22624174D02*
X6024943Y-22586079D01*
X6024943Y-22586079D02*
X6034467Y-22567031D01*
X6034467Y-22567031D02*
X6043991Y-22557508D01*
X6043991Y-22557508D02*
X6063039Y-22547984D01*
X6215420Y-22747984D02*
X6215420Y-22614650D01*
X6215420Y-22633698D02*
X6224943Y-22624174D01*
X6224943Y-22624174D02*
X6243991Y-22614650D01*
X6243991Y-22614650D02*
X6272563Y-22614650D01*
X6272563Y-22614650D02*
X6291610Y-22624174D01*
X6291610Y-22624174D02*
X6301134Y-22643222D01*
X6301134Y-22643222D02*
X6301134Y-22747984D01*
X6301134Y-22643222D02*
X6310658Y-22624174D01*
X6310658Y-22624174D02*
X6329705Y-22614650D01*
X6329705Y-22614650D02*
X6358277Y-22614650D01*
X6358277Y-22614650D02*
X6377324Y-22624174D01*
X6377324Y-22624174D02*
X6386848Y-22643222D01*
X6386848Y-22643222D02*
X6386848Y-22747984D01*
X6482086Y-22747984D02*
X6482086Y-22614650D01*
X6482086Y-22633698D02*
X6491610Y-22624174D01*
X6491610Y-22624174D02*
X6510658Y-22614650D01*
X6510658Y-22614650D02*
X6539229Y-22614650D01*
X6539229Y-22614650D02*
X6558277Y-22624174D01*
X6558277Y-22624174D02*
X6567801Y-22643222D01*
X6567801Y-22643222D02*
X6567801Y-22747984D01*
X6567801Y-22643222D02*
X6577324Y-22624174D01*
X6577324Y-22624174D02*
X6596372Y-22614650D01*
X6596372Y-22614650D02*
X6624943Y-22614650D01*
X6624943Y-22614650D02*
X6643991Y-22624174D01*
X6643991Y-22624174D02*
X6653515Y-22643222D01*
X6653515Y-22643222D02*
X6653515Y-22747984D01*
X7043991Y-22538460D02*
X6872563Y-22795603D01*
X7301134Y-22547984D02*
X7320182Y-22547984D01*
X7320182Y-22547984D02*
X7339229Y-22557508D01*
X7339229Y-22557508D02*
X7348753Y-22567031D01*
X7348753Y-22567031D02*
X7358277Y-22586079D01*
X7358277Y-22586079D02*
X7367801Y-22624174D01*
X7367801Y-22624174D02*
X7367801Y-22671793D01*
X7367801Y-22671793D02*
X7358277Y-22709888D01*
X7358277Y-22709888D02*
X7348753Y-22728936D01*
X7348753Y-22728936D02*
X7339229Y-22738460D01*
X7339229Y-22738460D02*
X7320182Y-22747984D01*
X7320182Y-22747984D02*
X7301134Y-22747984D01*
X7301134Y-22747984D02*
X7282086Y-22738460D01*
X7282086Y-22738460D02*
X7272563Y-22728936D01*
X7272563Y-22728936D02*
X7263039Y-22709888D01*
X7263039Y-22709888D02*
X7253515Y-22671793D01*
X7253515Y-22671793D02*
X7253515Y-22624174D01*
X7253515Y-22624174D02*
X7263039Y-22586079D01*
X7263039Y-22586079D02*
X7272563Y-22567031D01*
X7272563Y-22567031D02*
X7282086Y-22557508D01*
X7282086Y-22557508D02*
X7301134Y-22547984D01*
X7453515Y-22728936D02*
X7463039Y-22738460D01*
X7463039Y-22738460D02*
X7453515Y-22747984D01*
X7453515Y-22747984D02*
X7443991Y-22738460D01*
X7443991Y-22738460D02*
X7453515Y-22728936D01*
X7453515Y-22728936D02*
X7453515Y-22747984D01*
X7586848Y-22547984D02*
X7605896Y-22547984D01*
X7605896Y-22547984D02*
X7624944Y-22557508D01*
X7624944Y-22557508D02*
X7634467Y-22567031D01*
X7634467Y-22567031D02*
X7643991Y-22586079D01*
X7643991Y-22586079D02*
X7653515Y-22624174D01*
X7653515Y-22624174D02*
X7653515Y-22671793D01*
X7653515Y-22671793D02*
X7643991Y-22709888D01*
X7643991Y-22709888D02*
X7634467Y-22728936D01*
X7634467Y-22728936D02*
X7624944Y-22738460D01*
X7624944Y-22738460D02*
X7605896Y-22747984D01*
X7605896Y-22747984D02*
X7586848Y-22747984D01*
X7586848Y-22747984D02*
X7567801Y-22738460D01*
X7567801Y-22738460D02*
X7558277Y-22728936D01*
X7558277Y-22728936D02*
X7548753Y-22709888D01*
X7548753Y-22709888D02*
X7539229Y-22671793D01*
X7539229Y-22671793D02*
X7539229Y-22624174D01*
X7539229Y-22624174D02*
X7548753Y-22586079D01*
X7548753Y-22586079D02*
X7558277Y-22567031D01*
X7558277Y-22567031D02*
X7567801Y-22557508D01*
X7567801Y-22557508D02*
X7586848Y-22547984D01*
X7720182Y-22547984D02*
X7843991Y-22547984D01*
X7843991Y-22547984D02*
X7777325Y-22624174D01*
X7777325Y-22624174D02*
X7805896Y-22624174D01*
X7805896Y-22624174D02*
X7824944Y-22633698D01*
X7824944Y-22633698D02*
X7834467Y-22643222D01*
X7834467Y-22643222D02*
X7843991Y-22662269D01*
X7843991Y-22662269D02*
X7843991Y-22709888D01*
X7843991Y-22709888D02*
X7834467Y-22728936D01*
X7834467Y-22728936D02*
X7824944Y-22738460D01*
X7824944Y-22738460D02*
X7805896Y-22747984D01*
X7805896Y-22747984D02*
X7748753Y-22747984D01*
X7748753Y-22747984D02*
X7729706Y-22738460D01*
X7729706Y-22738460D02*
X7720182Y-22728936D01*
X7939229Y-22747984D02*
X7977325Y-22747984D01*
X7977325Y-22747984D02*
X7996372Y-22738460D01*
X7996372Y-22738460D02*
X8005896Y-22728936D01*
X8005896Y-22728936D02*
X8024944Y-22700365D01*
X8024944Y-22700365D02*
X8034467Y-22662269D01*
X8034467Y-22662269D02*
X8034467Y-22586079D01*
X8034467Y-22586079D02*
X8024944Y-22567031D01*
X8024944Y-22567031D02*
X8015420Y-22557508D01*
X8015420Y-22557508D02*
X7996372Y-22547984D01*
X7996372Y-22547984D02*
X7958277Y-22547984D01*
X7958277Y-22547984D02*
X7939229Y-22557508D01*
X7939229Y-22557508D02*
X7929706Y-22567031D01*
X7929706Y-22567031D02*
X7920182Y-22586079D01*
X7920182Y-22586079D02*
X7920182Y-22633698D01*
X7920182Y-22633698D02*
X7929706Y-22652746D01*
X7929706Y-22652746D02*
X7939229Y-22662269D01*
X7939229Y-22662269D02*
X7958277Y-22671793D01*
X7958277Y-22671793D02*
X7996372Y-22671793D01*
X7996372Y-22671793D02*
X8015420Y-22662269D01*
X8015420Y-22662269D02*
X8024944Y-22652746D01*
X8024944Y-22652746D02*
X8034467Y-22633698D01*
X8205896Y-22614650D02*
X8205896Y-22747984D01*
X8158277Y-22538460D02*
X8110658Y-22681317D01*
X8110658Y-22681317D02*
X8234467Y-22681317D01*
X8301134Y-22547984D02*
X8301134Y-22586079D01*
X8377325Y-22547984D02*
X8377325Y-22586079D01*
X8672563Y-22824174D02*
X8663039Y-22814650D01*
X8663039Y-22814650D02*
X8643991Y-22786079D01*
X8643991Y-22786079D02*
X8634468Y-22767031D01*
X8634468Y-22767031D02*
X8624944Y-22738460D01*
X8624944Y-22738460D02*
X8615420Y-22690841D01*
X8615420Y-22690841D02*
X8615420Y-22652746D01*
X8615420Y-22652746D02*
X8624944Y-22605127D01*
X8624944Y-22605127D02*
X8634468Y-22576555D01*
X8634468Y-22576555D02*
X8643991Y-22557508D01*
X8643991Y-22557508D02*
X8663039Y-22528936D01*
X8663039Y-22528936D02*
X8672563Y-22519412D01*
X8843991Y-22547984D02*
X8748753Y-22547984D01*
X8748753Y-22547984D02*
X8739230Y-22643222D01*
X8739230Y-22643222D02*
X8748753Y-22633698D01*
X8748753Y-22633698D02*
X8767801Y-22624174D01*
X8767801Y-22624174D02*
X8815420Y-22624174D01*
X8815420Y-22624174D02*
X8834468Y-22633698D01*
X8834468Y-22633698D02*
X8843991Y-22643222D01*
X8843991Y-22643222D02*
X8853515Y-22662269D01*
X8853515Y-22662269D02*
X8853515Y-22709888D01*
X8853515Y-22709888D02*
X8843991Y-22728936D01*
X8843991Y-22728936D02*
X8834468Y-22738460D01*
X8834468Y-22738460D02*
X8815420Y-22747984D01*
X8815420Y-22747984D02*
X8767801Y-22747984D01*
X8767801Y-22747984D02*
X8748753Y-22738460D01*
X8748753Y-22738460D02*
X8739230Y-22728936D01*
X8948753Y-22747984D02*
X8986849Y-22747984D01*
X8986849Y-22747984D02*
X9005896Y-22738460D01*
X9005896Y-22738460D02*
X9015420Y-22728936D01*
X9015420Y-22728936D02*
X9034468Y-22700365D01*
X9034468Y-22700365D02*
X9043991Y-22662269D01*
X9043991Y-22662269D02*
X9043991Y-22586079D01*
X9043991Y-22586079D02*
X9034468Y-22567031D01*
X9034468Y-22567031D02*
X9024944Y-22557508D01*
X9024944Y-22557508D02*
X9005896Y-22547984D01*
X9005896Y-22547984D02*
X8967801Y-22547984D01*
X8967801Y-22547984D02*
X8948753Y-22557508D01*
X8948753Y-22557508D02*
X8939230Y-22567031D01*
X8939230Y-22567031D02*
X8929706Y-22586079D01*
X8929706Y-22586079D02*
X8929706Y-22633698D01*
X8929706Y-22633698D02*
X8939230Y-22652746D01*
X8939230Y-22652746D02*
X8948753Y-22662269D01*
X8948753Y-22662269D02*
X8967801Y-22671793D01*
X8967801Y-22671793D02*
X9005896Y-22671793D01*
X9005896Y-22671793D02*
X9024944Y-22662269D01*
X9024944Y-22662269D02*
X9034468Y-22652746D01*
X9034468Y-22652746D02*
X9043991Y-22633698D01*
X9282087Y-22747984D02*
X9282087Y-22547984D01*
X9367801Y-22747984D02*
X9367801Y-22643222D01*
X9367801Y-22643222D02*
X9358277Y-22624174D01*
X9358277Y-22624174D02*
X9339230Y-22614650D01*
X9339230Y-22614650D02*
X9310658Y-22614650D01*
X9310658Y-22614650D02*
X9291611Y-22624174D01*
X9291611Y-22624174D02*
X9282087Y-22633698D01*
X9491611Y-22747984D02*
X9472563Y-22738460D01*
X9472563Y-22738460D02*
X9463039Y-22728936D01*
X9463039Y-22728936D02*
X9453515Y-22709888D01*
X9453515Y-22709888D02*
X9453515Y-22652746D01*
X9453515Y-22652746D02*
X9463039Y-22633698D01*
X9463039Y-22633698D02*
X9472563Y-22624174D01*
X9472563Y-22624174D02*
X9491611Y-22614650D01*
X9491611Y-22614650D02*
X9520182Y-22614650D01*
X9520182Y-22614650D02*
X9539230Y-22624174D01*
X9539230Y-22624174D02*
X9548753Y-22633698D01*
X9548753Y-22633698D02*
X9558277Y-22652746D01*
X9558277Y-22652746D02*
X9558277Y-22709888D01*
X9558277Y-22709888D02*
X9548753Y-22728936D01*
X9548753Y-22728936D02*
X9539230Y-22738460D01*
X9539230Y-22738460D02*
X9520182Y-22747984D01*
X9520182Y-22747984D02*
X9491611Y-22747984D01*
X9672563Y-22747984D02*
X9653515Y-22738460D01*
X9653515Y-22738460D02*
X9643992Y-22719412D01*
X9643992Y-22719412D02*
X9643992Y-22547984D01*
X9824944Y-22738460D02*
X9805896Y-22747984D01*
X9805896Y-22747984D02*
X9767801Y-22747984D01*
X9767801Y-22747984D02*
X9748753Y-22738460D01*
X9748753Y-22738460D02*
X9739230Y-22719412D01*
X9739230Y-22719412D02*
X9739230Y-22643222D01*
X9739230Y-22643222D02*
X9748753Y-22624174D01*
X9748753Y-22624174D02*
X9767801Y-22614650D01*
X9767801Y-22614650D02*
X9805896Y-22614650D01*
X9805896Y-22614650D02*
X9824944Y-22624174D01*
X9824944Y-22624174D02*
X9834468Y-22643222D01*
X9834468Y-22643222D02*
X9834468Y-22662269D01*
X9834468Y-22662269D02*
X9739230Y-22681317D01*
X9910658Y-22738460D02*
X9929706Y-22747984D01*
X9929706Y-22747984D02*
X9967801Y-22747984D01*
X9967801Y-22747984D02*
X9986849Y-22738460D01*
X9986849Y-22738460D02*
X9996373Y-22719412D01*
X9996373Y-22719412D02*
X9996373Y-22709888D01*
X9996373Y-22709888D02*
X9986849Y-22690841D01*
X9986849Y-22690841D02*
X9967801Y-22681317D01*
X9967801Y-22681317D02*
X9939230Y-22681317D01*
X9939230Y-22681317D02*
X9920182Y-22671793D01*
X9920182Y-22671793D02*
X9910658Y-22652746D01*
X9910658Y-22652746D02*
X9910658Y-22643222D01*
X9910658Y-22643222D02*
X9920182Y-22624174D01*
X9920182Y-22624174D02*
X9939230Y-22614650D01*
X9939230Y-22614650D02*
X9967801Y-22614650D01*
X9967801Y-22614650D02*
X9986849Y-22624174D01*
X10234468Y-22671793D02*
X10386849Y-22671793D01*
X10310658Y-22747984D02*
X10310658Y-22595603D01*
X10615420Y-22547984D02*
X10739230Y-22547984D01*
X10739230Y-22547984D02*
X10672563Y-22624174D01*
X10672563Y-22624174D02*
X10701135Y-22624174D01*
X10701135Y-22624174D02*
X10720182Y-22633698D01*
X10720182Y-22633698D02*
X10729706Y-22643222D01*
X10729706Y-22643222D02*
X10739230Y-22662269D01*
X10739230Y-22662269D02*
X10739230Y-22709888D01*
X10739230Y-22709888D02*
X10729706Y-22728936D01*
X10729706Y-22728936D02*
X10720182Y-22738460D01*
X10720182Y-22738460D02*
X10701135Y-22747984D01*
X10701135Y-22747984D02*
X10643992Y-22747984D01*
X10643992Y-22747984D02*
X10624944Y-22738460D01*
X10624944Y-22738460D02*
X10615420Y-22728936D01*
X10863039Y-22547984D02*
X10882087Y-22547984D01*
X10882087Y-22547984D02*
X10901135Y-22557508D01*
X10901135Y-22557508D02*
X10910658Y-22567031D01*
X10910658Y-22567031D02*
X10920182Y-22586079D01*
X10920182Y-22586079D02*
X10929706Y-22624174D01*
X10929706Y-22624174D02*
X10929706Y-22671793D01*
X10929706Y-22671793D02*
X10920182Y-22709888D01*
X10920182Y-22709888D02*
X10910658Y-22728936D01*
X10910658Y-22728936D02*
X10901135Y-22738460D01*
X10901135Y-22738460D02*
X10882087Y-22747984D01*
X10882087Y-22747984D02*
X10863039Y-22747984D01*
X10863039Y-22747984D02*
X10843992Y-22738460D01*
X10843992Y-22738460D02*
X10834468Y-22728936D01*
X10834468Y-22728936D02*
X10824944Y-22709888D01*
X10824944Y-22709888D02*
X10815420Y-22671793D01*
X10815420Y-22671793D02*
X10815420Y-22624174D01*
X10815420Y-22624174D02*
X10824944Y-22586079D01*
X10824944Y-22586079D02*
X10834468Y-22567031D01*
X10834468Y-22567031D02*
X10843992Y-22557508D01*
X10843992Y-22557508D02*
X10863039Y-22547984D01*
X11158277Y-22738460D02*
X11177325Y-22747984D01*
X11177325Y-22747984D02*
X11215420Y-22747984D01*
X11215420Y-22747984D02*
X11234468Y-22738460D01*
X11234468Y-22738460D02*
X11243992Y-22719412D01*
X11243992Y-22719412D02*
X11243992Y-22709888D01*
X11243992Y-22709888D02*
X11234468Y-22690841D01*
X11234468Y-22690841D02*
X11215420Y-22681317D01*
X11215420Y-22681317D02*
X11186849Y-22681317D01*
X11186849Y-22681317D02*
X11167801Y-22671793D01*
X11167801Y-22671793D02*
X11158277Y-22652746D01*
X11158277Y-22652746D02*
X11158277Y-22643222D01*
X11158277Y-22643222D02*
X11167801Y-22624174D01*
X11167801Y-22624174D02*
X11186849Y-22614650D01*
X11186849Y-22614650D02*
X11215420Y-22614650D01*
X11215420Y-22614650D02*
X11234468Y-22624174D01*
X11358277Y-22747984D02*
X11339230Y-22738460D01*
X11339230Y-22738460D02*
X11329706Y-22719412D01*
X11329706Y-22719412D02*
X11329706Y-22547984D01*
X11463039Y-22747984D02*
X11443992Y-22738460D01*
X11443992Y-22738460D02*
X11434468Y-22728936D01*
X11434468Y-22728936D02*
X11424944Y-22709888D01*
X11424944Y-22709888D02*
X11424944Y-22652746D01*
X11424944Y-22652746D02*
X11434468Y-22633698D01*
X11434468Y-22633698D02*
X11443992Y-22624174D01*
X11443992Y-22624174D02*
X11463039Y-22614650D01*
X11463039Y-22614650D02*
X11491611Y-22614650D01*
X11491611Y-22614650D02*
X11510658Y-22624174D01*
X11510658Y-22624174D02*
X11520182Y-22633698D01*
X11520182Y-22633698D02*
X11529706Y-22652746D01*
X11529706Y-22652746D02*
X11529706Y-22709888D01*
X11529706Y-22709888D02*
X11520182Y-22728936D01*
X11520182Y-22728936D02*
X11510658Y-22738460D01*
X11510658Y-22738460D02*
X11491611Y-22747984D01*
X11491611Y-22747984D02*
X11463039Y-22747984D01*
X11586849Y-22614650D02*
X11663039Y-22614650D01*
X11615420Y-22547984D02*
X11615420Y-22719412D01*
X11615420Y-22719412D02*
X11624944Y-22738460D01*
X11624944Y-22738460D02*
X11643992Y-22747984D01*
X11643992Y-22747984D02*
X11663039Y-22747984D01*
X11720182Y-22738460D02*
X11739230Y-22747984D01*
X11739230Y-22747984D02*
X11777325Y-22747984D01*
X11777325Y-22747984D02*
X11796373Y-22738460D01*
X11796373Y-22738460D02*
X11805896Y-22719412D01*
X11805896Y-22719412D02*
X11805896Y-22709888D01*
X11805896Y-22709888D02*
X11796373Y-22690841D01*
X11796373Y-22690841D02*
X11777325Y-22681317D01*
X11777325Y-22681317D02*
X11748754Y-22681317D01*
X11748754Y-22681317D02*
X11729706Y-22671793D01*
X11729706Y-22671793D02*
X11720182Y-22652746D01*
X11720182Y-22652746D02*
X11720182Y-22643222D01*
X11720182Y-22643222D02*
X11729706Y-22624174D01*
X11729706Y-22624174D02*
X11748754Y-22614650D01*
X11748754Y-22614650D02*
X11777325Y-22614650D01*
X11777325Y-22614650D02*
X11796373Y-22624174D01*
X11872563Y-22824174D02*
X11882087Y-22814650D01*
X11882087Y-22814650D02*
X11901135Y-22786079D01*
X11901135Y-22786079D02*
X11910658Y-22767031D01*
X11910658Y-22767031D02*
X11920182Y-22738460D01*
X11920182Y-22738460D02*
X11929706Y-22690841D01*
X11929706Y-22690841D02*
X11929706Y-22652746D01*
X11929706Y-22652746D02*
X11920182Y-22605127D01*
X11920182Y-22605127D02*
X11910658Y-22576555D01*
X11910658Y-22576555D02*
X11901135Y-22557508D01*
X11901135Y-22557508D02*
X11882087Y-22528936D01*
X11882087Y-22528936D02*
X11872563Y-22519412D01*
D13*
X5042500Y-22865500D02*
X5042500Y-22975500D01*
X4987500Y-22920500D02*
X5097500Y-22920500D01*
D11*
X5463039Y-23011984D02*
X5348753Y-23011984D01*
X5405896Y-23011984D02*
X5405896Y-22811984D01*
X5405896Y-22811984D02*
X5386848Y-22840555D01*
X5386848Y-22840555D02*
X5367801Y-22859603D01*
X5367801Y-22859603D02*
X5348753Y-22869127D01*
X5548753Y-22992936D02*
X5558277Y-23002460D01*
X5558277Y-23002460D02*
X5548753Y-23011984D01*
X5548753Y-23011984D02*
X5539229Y-23002460D01*
X5539229Y-23002460D02*
X5548753Y-22992936D01*
X5548753Y-22992936D02*
X5548753Y-23011984D01*
X5748753Y-23011984D02*
X5634467Y-23011984D01*
X5691610Y-23011984D02*
X5691610Y-22811984D01*
X5691610Y-22811984D02*
X5672562Y-22840555D01*
X5672562Y-22840555D02*
X5653515Y-22859603D01*
X5653515Y-22859603D02*
X5634467Y-22869127D01*
X5872562Y-22811984D02*
X5891610Y-22811984D01*
X5891610Y-22811984D02*
X5910658Y-22821508D01*
X5910658Y-22821508D02*
X5920182Y-22831031D01*
X5920182Y-22831031D02*
X5929705Y-22850079D01*
X5929705Y-22850079D02*
X5939229Y-22888174D01*
X5939229Y-22888174D02*
X5939229Y-22935793D01*
X5939229Y-22935793D02*
X5929705Y-22973888D01*
X5929705Y-22973888D02*
X5920182Y-22992936D01*
X5920182Y-22992936D02*
X5910658Y-23002460D01*
X5910658Y-23002460D02*
X5891610Y-23011984D01*
X5891610Y-23011984D02*
X5872562Y-23011984D01*
X5872562Y-23011984D02*
X5853515Y-23002460D01*
X5853515Y-23002460D02*
X5843991Y-22992936D01*
X5843991Y-22992936D02*
X5834467Y-22973888D01*
X5834467Y-22973888D02*
X5824943Y-22935793D01*
X5824943Y-22935793D02*
X5824943Y-22888174D01*
X5824943Y-22888174D02*
X5834467Y-22850079D01*
X5834467Y-22850079D02*
X5843991Y-22831031D01*
X5843991Y-22831031D02*
X5853515Y-22821508D01*
X5853515Y-22821508D02*
X5872562Y-22811984D01*
X6063039Y-22811984D02*
X6082086Y-22811984D01*
X6082086Y-22811984D02*
X6101134Y-22821508D01*
X6101134Y-22821508D02*
X6110658Y-22831031D01*
X6110658Y-22831031D02*
X6120182Y-22850079D01*
X6120182Y-22850079D02*
X6129705Y-22888174D01*
X6129705Y-22888174D02*
X6129705Y-22935793D01*
X6129705Y-22935793D02*
X6120182Y-22973888D01*
X6120182Y-22973888D02*
X6110658Y-22992936D01*
X6110658Y-22992936D02*
X6101134Y-23002460D01*
X6101134Y-23002460D02*
X6082086Y-23011984D01*
X6082086Y-23011984D02*
X6063039Y-23011984D01*
X6063039Y-23011984D02*
X6043991Y-23002460D01*
X6043991Y-23002460D02*
X6034467Y-22992936D01*
X6034467Y-22992936D02*
X6024943Y-22973888D01*
X6024943Y-22973888D02*
X6015420Y-22935793D01*
X6015420Y-22935793D02*
X6015420Y-22888174D01*
X6015420Y-22888174D02*
X6024943Y-22850079D01*
X6024943Y-22850079D02*
X6034467Y-22831031D01*
X6034467Y-22831031D02*
X6043991Y-22821508D01*
X6043991Y-22821508D02*
X6063039Y-22811984D01*
X6215420Y-23011984D02*
X6215420Y-22878650D01*
X6215420Y-22897698D02*
X6224943Y-22888174D01*
X6224943Y-22888174D02*
X6243991Y-22878650D01*
X6243991Y-22878650D02*
X6272563Y-22878650D01*
X6272563Y-22878650D02*
X6291610Y-22888174D01*
X6291610Y-22888174D02*
X6301134Y-22907222D01*
X6301134Y-22907222D02*
X6301134Y-23011984D01*
X6301134Y-22907222D02*
X6310658Y-22888174D01*
X6310658Y-22888174D02*
X6329705Y-22878650D01*
X6329705Y-22878650D02*
X6358277Y-22878650D01*
X6358277Y-22878650D02*
X6377324Y-22888174D01*
X6377324Y-22888174D02*
X6386848Y-22907222D01*
X6386848Y-22907222D02*
X6386848Y-23011984D01*
X6482086Y-23011984D02*
X6482086Y-22878650D01*
X6482086Y-22897698D02*
X6491610Y-22888174D01*
X6491610Y-22888174D02*
X6510658Y-22878650D01*
X6510658Y-22878650D02*
X6539229Y-22878650D01*
X6539229Y-22878650D02*
X6558277Y-22888174D01*
X6558277Y-22888174D02*
X6567801Y-22907222D01*
X6567801Y-22907222D02*
X6567801Y-23011984D01*
X6567801Y-22907222D02*
X6577324Y-22888174D01*
X6577324Y-22888174D02*
X6596372Y-22878650D01*
X6596372Y-22878650D02*
X6624943Y-22878650D01*
X6624943Y-22878650D02*
X6643991Y-22888174D01*
X6643991Y-22888174D02*
X6653515Y-22907222D01*
X6653515Y-22907222D02*
X6653515Y-23011984D01*
X7043991Y-22802460D02*
X6872563Y-23059603D01*
X7301134Y-22811984D02*
X7320182Y-22811984D01*
X7320182Y-22811984D02*
X7339229Y-22821508D01*
X7339229Y-22821508D02*
X7348753Y-22831031D01*
X7348753Y-22831031D02*
X7358277Y-22850079D01*
X7358277Y-22850079D02*
X7367801Y-22888174D01*
X7367801Y-22888174D02*
X7367801Y-22935793D01*
X7367801Y-22935793D02*
X7358277Y-22973888D01*
X7358277Y-22973888D02*
X7348753Y-22992936D01*
X7348753Y-22992936D02*
X7339229Y-23002460D01*
X7339229Y-23002460D02*
X7320182Y-23011984D01*
X7320182Y-23011984D02*
X7301134Y-23011984D01*
X7301134Y-23011984D02*
X7282086Y-23002460D01*
X7282086Y-23002460D02*
X7272563Y-22992936D01*
X7272563Y-22992936D02*
X7263039Y-22973888D01*
X7263039Y-22973888D02*
X7253515Y-22935793D01*
X7253515Y-22935793D02*
X7253515Y-22888174D01*
X7253515Y-22888174D02*
X7263039Y-22850079D01*
X7263039Y-22850079D02*
X7272563Y-22831031D01*
X7272563Y-22831031D02*
X7282086Y-22821508D01*
X7282086Y-22821508D02*
X7301134Y-22811984D01*
X7453515Y-22992936D02*
X7463039Y-23002460D01*
X7463039Y-23002460D02*
X7453515Y-23011984D01*
X7453515Y-23011984D02*
X7443991Y-23002460D01*
X7443991Y-23002460D02*
X7453515Y-22992936D01*
X7453515Y-22992936D02*
X7453515Y-23011984D01*
X7586848Y-22811984D02*
X7605896Y-22811984D01*
X7605896Y-22811984D02*
X7624944Y-22821508D01*
X7624944Y-22821508D02*
X7634467Y-22831031D01*
X7634467Y-22831031D02*
X7643991Y-22850079D01*
X7643991Y-22850079D02*
X7653515Y-22888174D01*
X7653515Y-22888174D02*
X7653515Y-22935793D01*
X7653515Y-22935793D02*
X7643991Y-22973888D01*
X7643991Y-22973888D02*
X7634467Y-22992936D01*
X7634467Y-22992936D02*
X7624944Y-23002460D01*
X7624944Y-23002460D02*
X7605896Y-23011984D01*
X7605896Y-23011984D02*
X7586848Y-23011984D01*
X7586848Y-23011984D02*
X7567801Y-23002460D01*
X7567801Y-23002460D02*
X7558277Y-22992936D01*
X7558277Y-22992936D02*
X7548753Y-22973888D01*
X7548753Y-22973888D02*
X7539229Y-22935793D01*
X7539229Y-22935793D02*
X7539229Y-22888174D01*
X7539229Y-22888174D02*
X7548753Y-22850079D01*
X7548753Y-22850079D02*
X7558277Y-22831031D01*
X7558277Y-22831031D02*
X7567801Y-22821508D01*
X7567801Y-22821508D02*
X7586848Y-22811984D01*
X7824944Y-22878650D02*
X7824944Y-23011984D01*
X7777325Y-22802460D02*
X7729706Y-22945317D01*
X7729706Y-22945317D02*
X7853515Y-22945317D01*
X7910658Y-22811984D02*
X8034467Y-22811984D01*
X8034467Y-22811984D02*
X7967801Y-22888174D01*
X7967801Y-22888174D02*
X7996372Y-22888174D01*
X7996372Y-22888174D02*
X8015420Y-22897698D01*
X8015420Y-22897698D02*
X8024944Y-22907222D01*
X8024944Y-22907222D02*
X8034467Y-22926269D01*
X8034467Y-22926269D02*
X8034467Y-22973888D01*
X8034467Y-22973888D02*
X8024944Y-22992936D01*
X8024944Y-22992936D02*
X8015420Y-23002460D01*
X8015420Y-23002460D02*
X7996372Y-23011984D01*
X7996372Y-23011984D02*
X7939229Y-23011984D01*
X7939229Y-23011984D02*
X7920182Y-23002460D01*
X7920182Y-23002460D02*
X7910658Y-22992936D01*
X8101134Y-22811984D02*
X8224944Y-22811984D01*
X8224944Y-22811984D02*
X8158277Y-22888174D01*
X8158277Y-22888174D02*
X8186848Y-22888174D01*
X8186848Y-22888174D02*
X8205896Y-22897698D01*
X8205896Y-22897698D02*
X8215420Y-22907222D01*
X8215420Y-22907222D02*
X8224944Y-22926269D01*
X8224944Y-22926269D02*
X8224944Y-22973888D01*
X8224944Y-22973888D02*
X8215420Y-22992936D01*
X8215420Y-22992936D02*
X8205896Y-23002460D01*
X8205896Y-23002460D02*
X8186848Y-23011984D01*
X8186848Y-23011984D02*
X8129706Y-23011984D01*
X8129706Y-23011984D02*
X8110658Y-23002460D01*
X8110658Y-23002460D02*
X8101134Y-22992936D01*
X8301134Y-22811984D02*
X8301134Y-22850079D01*
X8377325Y-22811984D02*
X8377325Y-22850079D01*
X8672563Y-23088174D02*
X8663039Y-23078650D01*
X8663039Y-23078650D02*
X8643991Y-23050079D01*
X8643991Y-23050079D02*
X8634468Y-23031031D01*
X8634468Y-23031031D02*
X8624944Y-23002460D01*
X8624944Y-23002460D02*
X8615420Y-22954841D01*
X8615420Y-22954841D02*
X8615420Y-22916746D01*
X8615420Y-22916746D02*
X8624944Y-22869127D01*
X8624944Y-22869127D02*
X8634468Y-22840555D01*
X8634468Y-22840555D02*
X8643991Y-22821508D01*
X8643991Y-22821508D02*
X8663039Y-22792936D01*
X8663039Y-22792936D02*
X8672563Y-22783412D01*
X8834468Y-22878650D02*
X8834468Y-23011984D01*
X8786849Y-22802460D02*
X8739230Y-22945317D01*
X8739230Y-22945317D02*
X8863039Y-22945317D01*
X9091611Y-23011984D02*
X9091611Y-22811984D01*
X9177325Y-23011984D02*
X9177325Y-22907222D01*
X9177325Y-22907222D02*
X9167801Y-22888174D01*
X9167801Y-22888174D02*
X9148753Y-22878650D01*
X9148753Y-22878650D02*
X9120182Y-22878650D01*
X9120182Y-22878650D02*
X9101134Y-22888174D01*
X9101134Y-22888174D02*
X9091611Y-22897698D01*
X9301134Y-23011984D02*
X9282087Y-23002460D01*
X9282087Y-23002460D02*
X9272563Y-22992936D01*
X9272563Y-22992936D02*
X9263039Y-22973888D01*
X9263039Y-22973888D02*
X9263039Y-22916746D01*
X9263039Y-22916746D02*
X9272563Y-22897698D01*
X9272563Y-22897698D02*
X9282087Y-22888174D01*
X9282087Y-22888174D02*
X9301134Y-22878650D01*
X9301134Y-22878650D02*
X9329706Y-22878650D01*
X9329706Y-22878650D02*
X9348753Y-22888174D01*
X9348753Y-22888174D02*
X9358277Y-22897698D01*
X9358277Y-22897698D02*
X9367801Y-22916746D01*
X9367801Y-22916746D02*
X9367801Y-22973888D01*
X9367801Y-22973888D02*
X9358277Y-22992936D01*
X9358277Y-22992936D02*
X9348753Y-23002460D01*
X9348753Y-23002460D02*
X9329706Y-23011984D01*
X9329706Y-23011984D02*
X9301134Y-23011984D01*
X9482087Y-23011984D02*
X9463039Y-23002460D01*
X9463039Y-23002460D02*
X9453515Y-22983412D01*
X9453515Y-22983412D02*
X9453515Y-22811984D01*
X9634468Y-23002460D02*
X9615420Y-23011984D01*
X9615420Y-23011984D02*
X9577325Y-23011984D01*
X9577325Y-23011984D02*
X9558277Y-23002460D01*
X9558277Y-23002460D02*
X9548753Y-22983412D01*
X9548753Y-22983412D02*
X9548753Y-22907222D01*
X9548753Y-22907222D02*
X9558277Y-22888174D01*
X9558277Y-22888174D02*
X9577325Y-22878650D01*
X9577325Y-22878650D02*
X9615420Y-22878650D01*
X9615420Y-22878650D02*
X9634468Y-22888174D01*
X9634468Y-22888174D02*
X9643992Y-22907222D01*
X9643992Y-22907222D02*
X9643992Y-22926269D01*
X9643992Y-22926269D02*
X9548753Y-22945317D01*
X9720182Y-23002460D02*
X9739230Y-23011984D01*
X9739230Y-23011984D02*
X9777325Y-23011984D01*
X9777325Y-23011984D02*
X9796373Y-23002460D01*
X9796373Y-23002460D02*
X9805896Y-22983412D01*
X9805896Y-22983412D02*
X9805896Y-22973888D01*
X9805896Y-22973888D02*
X9796373Y-22954841D01*
X9796373Y-22954841D02*
X9777325Y-22945317D01*
X9777325Y-22945317D02*
X9748753Y-22945317D01*
X9748753Y-22945317D02*
X9729706Y-22935793D01*
X9729706Y-22935793D02*
X9720182Y-22916746D01*
X9720182Y-22916746D02*
X9720182Y-22907222D01*
X9720182Y-22907222D02*
X9729706Y-22888174D01*
X9729706Y-22888174D02*
X9748753Y-22878650D01*
X9748753Y-22878650D02*
X9777325Y-22878650D01*
X9777325Y-22878650D02*
X9796373Y-22888174D01*
X9872563Y-23088174D02*
X9882087Y-23078650D01*
X9882087Y-23078650D02*
X9901134Y-23050079D01*
X9901134Y-23050079D02*
X9910658Y-23031031D01*
X9910658Y-23031031D02*
X9920182Y-23002460D01*
X9920182Y-23002460D02*
X9929706Y-22954841D01*
X9929706Y-22954841D02*
X9929706Y-22916746D01*
X9929706Y-22916746D02*
X9920182Y-22869127D01*
X9920182Y-22869127D02*
X9910658Y-22840555D01*
X9910658Y-22840555D02*
X9901134Y-22821508D01*
X9901134Y-22821508D02*
X9882087Y-22792936D01*
X9882087Y-22792936D02*
X9872563Y-22783412D01*
M02*
