%TF.GenerationSoftware,KiCad,Pcbnew,9.0.4*%
%TF.CreationDate,2025-10-04T20:37:18+02:00*%
%TF.ProjectId,DMH_VCM_Mk2_PCB_1,444d485f-5643-44d5-9f4d-6b325f504342,1*%
%TF.SameCoordinates,Original*%
%TF.FileFunction,Legend,Top*%
%TF.FilePolarity,Positive*%
%FSLAX46Y46*%
G04 Gerber Fmt 4.6, Leading zero omitted, Abs format (unit mm)*
G04 Created by KiCad (PCBNEW 9.0.4) date 2025-10-04 20:37:18*
%MOMM*%
%LPD*%
G01*
G04 APERTURE LIST*
G04 Aperture macros list*
%AMRoundRect*
0 Rectangle with rounded corners*
0 $1 Rounding radius*
0 $2 $3 $4 $5 $6 $7 $8 $9 X,Y pos of 4 corners*
0 Add a 4 corners polygon primitive as box body*
4,1,4,$2,$3,$4,$5,$6,$7,$8,$9,$2,$3,0*
0 Add four circle primitives for the rounded corners*
1,1,$1+$1,$2,$3*
1,1,$1+$1,$4,$5*
1,1,$1+$1,$6,$7*
1,1,$1+$1,$8,$9*
0 Add four rect primitives between the rounded corners*
20,1,$1+$1,$2,$3,$4,$5,0*
20,1,$1+$1,$4,$5,$6,$7,0*
20,1,$1+$1,$6,$7,$8,$9,0*
20,1,$1+$1,$8,$9,$2,$3,0*%
%AMHorizOval*
0 Thick line with rounded ends*
0 $1 width*
0 $2 $3 position (X,Y) of the first rounded end (center of the circle)*
0 $4 $5 position (X,Y) of the second rounded end (center of the circle)*
0 Add line between two ends*
20,1,$1,$2,$3,$4,$5,0*
0 Add two circle primitives to create the rounded ends*
1,1,$1,$2,$3*
1,1,$1,$4,$5*%
G04 Aperture macros list end*
%ADD10C,0.150000*%
%ADD11C,0.120000*%
%ADD12HorizOval,1.712000X-0.533159X0.533159X0.533159X-0.533159X0*%
%ADD13O,3.220000X1.712000*%
%ADD14O,1.712000X3.220000*%
%ADD15HorizOval,1.712000X-0.533159X-0.533159X0.533159X0.533159X0*%
%ADD16R,1.700000X1.700000*%
%ADD17O,1.700000X1.700000*%
%ADD18C,1.600000*%
%ADD19O,1.600000X1.600000*%
%ADD20R,2.200000X2.200000*%
%ADD21O,2.200000X2.200000*%
%ADD22C,1.440000*%
%ADD23R,1.500000X1.500000*%
%ADD24C,1.500000*%
%ADD25RoundRect,0.250000X0.550000X0.550000X-0.550000X0.550000X-0.550000X-0.550000X0.550000X-0.550000X0*%
%ADD26RoundRect,0.250000X0.600000X-0.600000X0.600000X0.600000X-0.600000X0.600000X-0.600000X-0.600000X0*%
%ADD27C,1.700000*%
%ADD28R,1.600000X1.600000*%
G04 APERTURE END LIST*
D10*
X64954819Y-172008333D02*
X65669104Y-172008333D01*
X65669104Y-172008333D02*
X65811961Y-172055952D01*
X65811961Y-172055952D02*
X65907200Y-172151190D01*
X65907200Y-172151190D02*
X65954819Y-172294047D01*
X65954819Y-172294047D02*
X65954819Y-172389285D01*
X65954819Y-171008333D02*
X65954819Y-171579761D01*
X65954819Y-171294047D02*
X64954819Y-171294047D01*
X64954819Y-171294047D02*
X65097676Y-171389285D01*
X65097676Y-171389285D02*
X65192914Y-171484523D01*
X65192914Y-171484523D02*
X65240533Y-171579761D01*
X64954819Y-155984523D02*
X65669104Y-155984523D01*
X65669104Y-155984523D02*
X65811961Y-156032142D01*
X65811961Y-156032142D02*
X65907200Y-156127380D01*
X65907200Y-156127380D02*
X65954819Y-156270237D01*
X65954819Y-156270237D02*
X65954819Y-156365475D01*
X65954819Y-154984523D02*
X65954819Y-155555951D01*
X65954819Y-155270237D02*
X64954819Y-155270237D01*
X64954819Y-155270237D02*
X65097676Y-155365475D01*
X65097676Y-155365475D02*
X65192914Y-155460713D01*
X65192914Y-155460713D02*
X65240533Y-155555951D01*
X64954819Y-154365475D02*
X64954819Y-154270237D01*
X64954819Y-154270237D02*
X65002438Y-154174999D01*
X65002438Y-154174999D02*
X65050057Y-154127380D01*
X65050057Y-154127380D02*
X65145295Y-154079761D01*
X65145295Y-154079761D02*
X65335771Y-154032142D01*
X65335771Y-154032142D02*
X65573866Y-154032142D01*
X65573866Y-154032142D02*
X65764342Y-154079761D01*
X65764342Y-154079761D02*
X65859580Y-154127380D01*
X65859580Y-154127380D02*
X65907200Y-154174999D01*
X65907200Y-154174999D02*
X65954819Y-154270237D01*
X65954819Y-154270237D02*
X65954819Y-154365475D01*
X65954819Y-154365475D02*
X65907200Y-154460713D01*
X65907200Y-154460713D02*
X65859580Y-154508332D01*
X65859580Y-154508332D02*
X65764342Y-154555951D01*
X65764342Y-154555951D02*
X65573866Y-154603570D01*
X65573866Y-154603570D02*
X65335771Y-154603570D01*
X65335771Y-154603570D02*
X65145295Y-154555951D01*
X65145295Y-154555951D02*
X65050057Y-154508332D01*
X65050057Y-154508332D02*
X65002438Y-154460713D01*
X65002438Y-154460713D02*
X64954819Y-154365475D01*
X83954819Y-196658333D02*
X84669104Y-196658333D01*
X84669104Y-196658333D02*
X84811961Y-196705952D01*
X84811961Y-196705952D02*
X84907200Y-196801190D01*
X84907200Y-196801190D02*
X84954819Y-196944047D01*
X84954819Y-196944047D02*
X84954819Y-197039285D01*
X83954819Y-195705952D02*
X83954819Y-196182142D01*
X83954819Y-196182142D02*
X84431009Y-196229761D01*
X84431009Y-196229761D02*
X84383390Y-196182142D01*
X84383390Y-196182142D02*
X84335771Y-196086904D01*
X84335771Y-196086904D02*
X84335771Y-195848809D01*
X84335771Y-195848809D02*
X84383390Y-195753571D01*
X84383390Y-195753571D02*
X84431009Y-195705952D01*
X84431009Y-195705952D02*
X84526247Y-195658333D01*
X84526247Y-195658333D02*
X84764342Y-195658333D01*
X84764342Y-195658333D02*
X84859580Y-195705952D01*
X84859580Y-195705952D02*
X84907200Y-195753571D01*
X84907200Y-195753571D02*
X84954819Y-195848809D01*
X84954819Y-195848809D02*
X84954819Y-196086904D01*
X84954819Y-196086904D02*
X84907200Y-196182142D01*
X84907200Y-196182142D02*
X84859580Y-196229761D01*
X70591666Y-201204819D02*
X70591666Y-201919104D01*
X70591666Y-201919104D02*
X70544047Y-202061961D01*
X70544047Y-202061961D02*
X70448809Y-202157200D01*
X70448809Y-202157200D02*
X70305952Y-202204819D01*
X70305952Y-202204819D02*
X70210714Y-202204819D01*
X71115476Y-202204819D02*
X71305952Y-202204819D01*
X71305952Y-202204819D02*
X71401190Y-202157200D01*
X71401190Y-202157200D02*
X71448809Y-202109580D01*
X71448809Y-202109580D02*
X71544047Y-201966723D01*
X71544047Y-201966723D02*
X71591666Y-201776247D01*
X71591666Y-201776247D02*
X71591666Y-201395295D01*
X71591666Y-201395295D02*
X71544047Y-201300057D01*
X71544047Y-201300057D02*
X71496428Y-201252438D01*
X71496428Y-201252438D02*
X71401190Y-201204819D01*
X71401190Y-201204819D02*
X71210714Y-201204819D01*
X71210714Y-201204819D02*
X71115476Y-201252438D01*
X71115476Y-201252438D02*
X71067857Y-201300057D01*
X71067857Y-201300057D02*
X71020238Y-201395295D01*
X71020238Y-201395295D02*
X71020238Y-201633390D01*
X71020238Y-201633390D02*
X71067857Y-201728628D01*
X71067857Y-201728628D02*
X71115476Y-201776247D01*
X71115476Y-201776247D02*
X71210714Y-201823866D01*
X71210714Y-201823866D02*
X71401190Y-201823866D01*
X71401190Y-201823866D02*
X71496428Y-201776247D01*
X71496428Y-201776247D02*
X71544047Y-201728628D01*
X71544047Y-201728628D02*
X71591666Y-201633390D01*
X70591666Y-168204819D02*
X70591666Y-168919104D01*
X70591666Y-168919104D02*
X70544047Y-169061961D01*
X70544047Y-169061961D02*
X70448809Y-169157200D01*
X70448809Y-169157200D02*
X70305952Y-169204819D01*
X70305952Y-169204819D02*
X70210714Y-169204819D01*
X70972619Y-168204819D02*
X71591666Y-168204819D01*
X71591666Y-168204819D02*
X71258333Y-168585771D01*
X71258333Y-168585771D02*
X71401190Y-168585771D01*
X71401190Y-168585771D02*
X71496428Y-168633390D01*
X71496428Y-168633390D02*
X71544047Y-168681009D01*
X71544047Y-168681009D02*
X71591666Y-168776247D01*
X71591666Y-168776247D02*
X71591666Y-169014342D01*
X71591666Y-169014342D02*
X71544047Y-169109580D01*
X71544047Y-169109580D02*
X71496428Y-169157200D01*
X71496428Y-169157200D02*
X71401190Y-169204819D01*
X71401190Y-169204819D02*
X71115476Y-169204819D01*
X71115476Y-169204819D02*
X71020238Y-169157200D01*
X71020238Y-169157200D02*
X70972619Y-169109580D01*
X64954819Y-205008333D02*
X65669104Y-205008333D01*
X65669104Y-205008333D02*
X65811961Y-205055952D01*
X65811961Y-205055952D02*
X65907200Y-205151190D01*
X65907200Y-205151190D02*
X65954819Y-205294047D01*
X65954819Y-205294047D02*
X65954819Y-205389285D01*
X64954819Y-204627380D02*
X64954819Y-203960714D01*
X64954819Y-203960714D02*
X65954819Y-204389285D01*
X96190476Y-130154819D02*
X96190476Y-130869104D01*
X96190476Y-130869104D02*
X96142857Y-131011961D01*
X96142857Y-131011961D02*
X96047619Y-131107200D01*
X96047619Y-131107200D02*
X95904762Y-131154819D01*
X95904762Y-131154819D02*
X95809524Y-131154819D01*
X96571429Y-130154819D02*
X97238095Y-130154819D01*
X97238095Y-130154819D02*
X96809524Y-131154819D01*
X97809524Y-130154819D02*
X97904762Y-130154819D01*
X97904762Y-130154819D02*
X98000000Y-130202438D01*
X98000000Y-130202438D02*
X98047619Y-130250057D01*
X98047619Y-130250057D02*
X98095238Y-130345295D01*
X98095238Y-130345295D02*
X98142857Y-130535771D01*
X98142857Y-130535771D02*
X98142857Y-130773866D01*
X98142857Y-130773866D02*
X98095238Y-130964342D01*
X98095238Y-130964342D02*
X98047619Y-131059580D01*
X98047619Y-131059580D02*
X98000000Y-131107200D01*
X98000000Y-131107200D02*
X97904762Y-131154819D01*
X97904762Y-131154819D02*
X97809524Y-131154819D01*
X97809524Y-131154819D02*
X97714286Y-131107200D01*
X97714286Y-131107200D02*
X97666667Y-131059580D01*
X97666667Y-131059580D02*
X97619048Y-130964342D01*
X97619048Y-130964342D02*
X97571429Y-130773866D01*
X97571429Y-130773866D02*
X97571429Y-130535771D01*
X97571429Y-130535771D02*
X97619048Y-130345295D01*
X97619048Y-130345295D02*
X97666667Y-130250057D01*
X97666667Y-130250057D02*
X97714286Y-130202438D01*
X97714286Y-130202438D02*
X97809524Y-130154819D01*
X51454819Y-96809523D02*
X52169104Y-96809523D01*
X52169104Y-96809523D02*
X52311961Y-96857142D01*
X52311961Y-96857142D02*
X52407200Y-96952380D01*
X52407200Y-96952380D02*
X52454819Y-97095237D01*
X52454819Y-97095237D02*
X52454819Y-97190475D01*
X51454819Y-95904761D02*
X51454819Y-96095237D01*
X51454819Y-96095237D02*
X51502438Y-96190475D01*
X51502438Y-96190475D02*
X51550057Y-96238094D01*
X51550057Y-96238094D02*
X51692914Y-96333332D01*
X51692914Y-96333332D02*
X51883390Y-96380951D01*
X51883390Y-96380951D02*
X52264342Y-96380951D01*
X52264342Y-96380951D02*
X52359580Y-96333332D01*
X52359580Y-96333332D02*
X52407200Y-96285713D01*
X52407200Y-96285713D02*
X52454819Y-96190475D01*
X52454819Y-96190475D02*
X52454819Y-95999999D01*
X52454819Y-95999999D02*
X52407200Y-95904761D01*
X52407200Y-95904761D02*
X52359580Y-95857142D01*
X52359580Y-95857142D02*
X52264342Y-95809523D01*
X52264342Y-95809523D02*
X52026247Y-95809523D01*
X52026247Y-95809523D02*
X51931009Y-95857142D01*
X51931009Y-95857142D02*
X51883390Y-95904761D01*
X51883390Y-95904761D02*
X51835771Y-95999999D01*
X51835771Y-95999999D02*
X51835771Y-96190475D01*
X51835771Y-96190475D02*
X51883390Y-96285713D01*
X51883390Y-96285713D02*
X51931009Y-96333332D01*
X51931009Y-96333332D02*
X52026247Y-96380951D01*
X51454819Y-95190475D02*
X51454819Y-95095237D01*
X51454819Y-95095237D02*
X51502438Y-94999999D01*
X51502438Y-94999999D02*
X51550057Y-94952380D01*
X51550057Y-94952380D02*
X51645295Y-94904761D01*
X51645295Y-94904761D02*
X51835771Y-94857142D01*
X51835771Y-94857142D02*
X52073866Y-94857142D01*
X52073866Y-94857142D02*
X52264342Y-94904761D01*
X52264342Y-94904761D02*
X52359580Y-94952380D01*
X52359580Y-94952380D02*
X52407200Y-94999999D01*
X52407200Y-94999999D02*
X52454819Y-95095237D01*
X52454819Y-95095237D02*
X52454819Y-95190475D01*
X52454819Y-95190475D02*
X52407200Y-95285713D01*
X52407200Y-95285713D02*
X52359580Y-95333332D01*
X52359580Y-95333332D02*
X52264342Y-95380951D01*
X52264342Y-95380951D02*
X52073866Y-95428570D01*
X52073866Y-95428570D02*
X51835771Y-95428570D01*
X51835771Y-95428570D02*
X51645295Y-95380951D01*
X51645295Y-95380951D02*
X51550057Y-95333332D01*
X51550057Y-95333332D02*
X51502438Y-95285713D01*
X51502438Y-95285713D02*
X51454819Y-95190475D01*
X70591666Y-184704819D02*
X70591666Y-185419104D01*
X70591666Y-185419104D02*
X70544047Y-185561961D01*
X70544047Y-185561961D02*
X70448809Y-185657200D01*
X70448809Y-185657200D02*
X70305952Y-185704819D01*
X70305952Y-185704819D02*
X70210714Y-185704819D01*
X71496428Y-184704819D02*
X71305952Y-184704819D01*
X71305952Y-184704819D02*
X71210714Y-184752438D01*
X71210714Y-184752438D02*
X71163095Y-184800057D01*
X71163095Y-184800057D02*
X71067857Y-184942914D01*
X71067857Y-184942914D02*
X71020238Y-185133390D01*
X71020238Y-185133390D02*
X71020238Y-185514342D01*
X71020238Y-185514342D02*
X71067857Y-185609580D01*
X71067857Y-185609580D02*
X71115476Y-185657200D01*
X71115476Y-185657200D02*
X71210714Y-185704819D01*
X71210714Y-185704819D02*
X71401190Y-185704819D01*
X71401190Y-185704819D02*
X71496428Y-185657200D01*
X71496428Y-185657200D02*
X71544047Y-185609580D01*
X71544047Y-185609580D02*
X71591666Y-185514342D01*
X71591666Y-185514342D02*
X71591666Y-185276247D01*
X71591666Y-185276247D02*
X71544047Y-185181009D01*
X71544047Y-185181009D02*
X71496428Y-185133390D01*
X71496428Y-185133390D02*
X71401190Y-185085771D01*
X71401190Y-185085771D02*
X71210714Y-185085771D01*
X71210714Y-185085771D02*
X71115476Y-185133390D01*
X71115476Y-185133390D02*
X71067857Y-185181009D01*
X71067857Y-185181009D02*
X71020238Y-185276247D01*
X64954819Y-188508333D02*
X65669104Y-188508333D01*
X65669104Y-188508333D02*
X65811961Y-188555952D01*
X65811961Y-188555952D02*
X65907200Y-188651190D01*
X65907200Y-188651190D02*
X65954819Y-188794047D01*
X65954819Y-188794047D02*
X65954819Y-188889285D01*
X65288152Y-187603571D02*
X65954819Y-187603571D01*
X64907200Y-187841666D02*
X65621485Y-188079761D01*
X65621485Y-188079761D02*
X65621485Y-187460714D01*
X83954819Y-180158333D02*
X84669104Y-180158333D01*
X84669104Y-180158333D02*
X84811961Y-180205952D01*
X84811961Y-180205952D02*
X84907200Y-180301190D01*
X84907200Y-180301190D02*
X84954819Y-180444047D01*
X84954819Y-180444047D02*
X84954819Y-180539285D01*
X84050057Y-179729761D02*
X84002438Y-179682142D01*
X84002438Y-179682142D02*
X83954819Y-179586904D01*
X83954819Y-179586904D02*
X83954819Y-179348809D01*
X83954819Y-179348809D02*
X84002438Y-179253571D01*
X84002438Y-179253571D02*
X84050057Y-179205952D01*
X84050057Y-179205952D02*
X84145295Y-179158333D01*
X84145295Y-179158333D02*
X84240533Y-179158333D01*
X84240533Y-179158333D02*
X84383390Y-179205952D01*
X84383390Y-179205952D02*
X84954819Y-179777380D01*
X84954819Y-179777380D02*
X84954819Y-179158333D01*
X96190476Y-59354819D02*
X96190476Y-60069104D01*
X96190476Y-60069104D02*
X96142857Y-60211961D01*
X96142857Y-60211961D02*
X96047619Y-60307200D01*
X96047619Y-60307200D02*
X95904762Y-60354819D01*
X95904762Y-60354819D02*
X95809524Y-60354819D01*
X97142857Y-59354819D02*
X96666667Y-59354819D01*
X96666667Y-59354819D02*
X96619048Y-59831009D01*
X96619048Y-59831009D02*
X96666667Y-59783390D01*
X96666667Y-59783390D02*
X96761905Y-59735771D01*
X96761905Y-59735771D02*
X97000000Y-59735771D01*
X97000000Y-59735771D02*
X97095238Y-59783390D01*
X97095238Y-59783390D02*
X97142857Y-59831009D01*
X97142857Y-59831009D02*
X97190476Y-59926247D01*
X97190476Y-59926247D02*
X97190476Y-60164342D01*
X97190476Y-60164342D02*
X97142857Y-60259580D01*
X97142857Y-60259580D02*
X97095238Y-60307200D01*
X97095238Y-60307200D02*
X97000000Y-60354819D01*
X97000000Y-60354819D02*
X96761905Y-60354819D01*
X96761905Y-60354819D02*
X96666667Y-60307200D01*
X96666667Y-60307200D02*
X96619048Y-60259580D01*
X97809524Y-59354819D02*
X97904762Y-59354819D01*
X97904762Y-59354819D02*
X98000000Y-59402438D01*
X98000000Y-59402438D02*
X98047619Y-59450057D01*
X98047619Y-59450057D02*
X98095238Y-59545295D01*
X98095238Y-59545295D02*
X98142857Y-59735771D01*
X98142857Y-59735771D02*
X98142857Y-59973866D01*
X98142857Y-59973866D02*
X98095238Y-60164342D01*
X98095238Y-60164342D02*
X98047619Y-60259580D01*
X98047619Y-60259580D02*
X98000000Y-60307200D01*
X98000000Y-60307200D02*
X97904762Y-60354819D01*
X97904762Y-60354819D02*
X97809524Y-60354819D01*
X97809524Y-60354819D02*
X97714286Y-60307200D01*
X97714286Y-60307200D02*
X97666667Y-60259580D01*
X97666667Y-60259580D02*
X97619048Y-60164342D01*
X97619048Y-60164342D02*
X97571429Y-59973866D01*
X97571429Y-59973866D02*
X97571429Y-59735771D01*
X97571429Y-59735771D02*
X97619048Y-59545295D01*
X97619048Y-59545295D02*
X97666667Y-59450057D01*
X97666667Y-59450057D02*
X97714286Y-59402438D01*
X97714286Y-59402438D02*
X97809524Y-59354819D01*
X83954819Y-213158333D02*
X84669104Y-213158333D01*
X84669104Y-213158333D02*
X84811961Y-213205952D01*
X84811961Y-213205952D02*
X84907200Y-213301190D01*
X84907200Y-213301190D02*
X84954819Y-213444047D01*
X84954819Y-213444047D02*
X84954819Y-213539285D01*
X84383390Y-212539285D02*
X84335771Y-212634523D01*
X84335771Y-212634523D02*
X84288152Y-212682142D01*
X84288152Y-212682142D02*
X84192914Y-212729761D01*
X84192914Y-212729761D02*
X84145295Y-212729761D01*
X84145295Y-212729761D02*
X84050057Y-212682142D01*
X84050057Y-212682142D02*
X84002438Y-212634523D01*
X84002438Y-212634523D02*
X83954819Y-212539285D01*
X83954819Y-212539285D02*
X83954819Y-212348809D01*
X83954819Y-212348809D02*
X84002438Y-212253571D01*
X84002438Y-212253571D02*
X84050057Y-212205952D01*
X84050057Y-212205952D02*
X84145295Y-212158333D01*
X84145295Y-212158333D02*
X84192914Y-212158333D01*
X84192914Y-212158333D02*
X84288152Y-212205952D01*
X84288152Y-212205952D02*
X84335771Y-212253571D01*
X84335771Y-212253571D02*
X84383390Y-212348809D01*
X84383390Y-212348809D02*
X84383390Y-212539285D01*
X84383390Y-212539285D02*
X84431009Y-212634523D01*
X84431009Y-212634523D02*
X84478628Y-212682142D01*
X84478628Y-212682142D02*
X84573866Y-212729761D01*
X84573866Y-212729761D02*
X84764342Y-212729761D01*
X84764342Y-212729761D02*
X84859580Y-212682142D01*
X84859580Y-212682142D02*
X84907200Y-212634523D01*
X84907200Y-212634523D02*
X84954819Y-212539285D01*
X84954819Y-212539285D02*
X84954819Y-212348809D01*
X84954819Y-212348809D02*
X84907200Y-212253571D01*
X84907200Y-212253571D02*
X84859580Y-212205952D01*
X84859580Y-212205952D02*
X84764342Y-212158333D01*
X84764342Y-212158333D02*
X84573866Y-212158333D01*
X84573866Y-212158333D02*
X84478628Y-212205952D01*
X84478628Y-212205952D02*
X84431009Y-212253571D01*
X84431009Y-212253571D02*
X84383390Y-212348809D01*
%TO.C,J1*%
X54300000Y-175750000D02*
X54300000Y-173400000D01*
X54300000Y-175750000D02*
X54300000Y-178100000D01*
X62700000Y-175750000D02*
X62700000Y-173400000D01*
X62700000Y-175750000D02*
X62700000Y-178100000D01*
X54311121Y-173406222D02*
G75*
G02*
X58500000Y-170950000I4188879J-2343778D01*
G01*
X58500000Y-170950000D02*
G75*
G02*
X62688879Y-173406222I0J-4800000D01*
G01*
X58500000Y-180550000D02*
G75*
G02*
X54311121Y-178093778I2J4800003D01*
G01*
X62688879Y-178093778D02*
G75*
G02*
X58500000Y-180550000I-4188881J2343781D01*
G01*
%TO.C,J10*%
X54300000Y-159250000D02*
X54300000Y-156900000D01*
X54300000Y-159250000D02*
X54300000Y-161600000D01*
X62700000Y-159250000D02*
X62700000Y-156900000D01*
X62700000Y-159250000D02*
X62700000Y-161600000D01*
X54311121Y-156906222D02*
G75*
G02*
X58500000Y-154450000I4188879J-2343778D01*
G01*
X58500000Y-154450000D02*
G75*
G02*
X62688879Y-156906222I0J-4800000D01*
G01*
X58500000Y-164050000D02*
G75*
G02*
X54311121Y-161593778I2J4800003D01*
G01*
X62688879Y-161593778D02*
G75*
G02*
X58500000Y-164050000I-4188881J2343781D01*
G01*
%TO.C,J5*%
X87300000Y-192250000D02*
X87300000Y-189900000D01*
X87300000Y-192250000D02*
X87300000Y-194600000D01*
X95700000Y-192250000D02*
X95700000Y-189900000D01*
X95700000Y-192250000D02*
X95700000Y-194600000D01*
X87311121Y-189906222D02*
G75*
G02*
X91500000Y-187450000I4188881J-2343781D01*
G01*
X91500000Y-187450000D02*
G75*
G02*
X95688879Y-189906222I-2J-4800003D01*
G01*
X91500000Y-197050000D02*
G75*
G02*
X87311121Y-194593778I0J4800000D01*
G01*
X95688879Y-194593778D02*
G75*
G02*
X91500000Y-197050000I-4188879J2343778D01*
G01*
%TO.C,J9*%
X75000000Y-204550000D02*
X72650000Y-204550000D01*
X75000000Y-204550000D02*
X77350000Y-204550000D01*
X75000000Y-212950000D02*
X72650000Y-212950000D01*
X75000000Y-212950000D02*
X77350000Y-212950000D01*
X70200000Y-208750000D02*
G75*
G02*
X72656222Y-204561121I4800000J0D01*
G01*
X72656222Y-212938879D02*
G75*
G02*
X70200000Y-208750000I2343778J4188879D01*
G01*
X77343778Y-204561121D02*
G75*
G02*
X79800000Y-208750000I-2343781J-4188881D01*
G01*
X79800000Y-208750000D02*
G75*
G02*
X77343778Y-212938879I-4800003J2D01*
G01*
%TO.C,J3*%
X75000000Y-171550000D02*
X72650000Y-171550000D01*
X75000000Y-171550000D02*
X77350000Y-171550000D01*
X75000000Y-179950000D02*
X72650000Y-179950000D01*
X75000000Y-179950000D02*
X77350000Y-179950000D01*
X70200000Y-175750000D02*
G75*
G02*
X72656222Y-171561121I4800000J0D01*
G01*
X72656222Y-179938879D02*
G75*
G02*
X70200000Y-175750000I2343778J4188879D01*
G01*
X77343778Y-171561121D02*
G75*
G02*
X79800000Y-175750000I-2343781J-4188881D01*
G01*
X79800000Y-175750000D02*
G75*
G02*
X77343778Y-179938879I-4800003J2D01*
G01*
%TO.C,J7*%
X54300000Y-208750000D02*
X54300000Y-206400000D01*
X54300000Y-208750000D02*
X54300000Y-211100000D01*
X62700000Y-208750000D02*
X62700000Y-206400000D01*
X62700000Y-208750000D02*
X62700000Y-211100000D01*
X54311121Y-206406222D02*
G75*
G02*
X58500000Y-203950000I4188879J-2343778D01*
G01*
X58500000Y-203950000D02*
G75*
G02*
X62688879Y-206406222I0J-4800000D01*
G01*
X58500000Y-213550000D02*
G75*
G02*
X54311121Y-211093778I2J4800003D01*
G01*
X62688879Y-211093778D02*
G75*
G02*
X58500000Y-213550000I-4188881J2343781D01*
G01*
D11*
%TO.C,J70*%
X95670000Y-134270000D02*
X95670000Y-152110000D01*
X95670000Y-134270000D02*
X98330000Y-134270000D01*
X95670000Y-152110000D02*
X98330000Y-152110000D01*
X97000000Y-131670000D02*
X98330000Y-131670000D01*
X98330000Y-131670000D02*
X98330000Y-133000000D01*
X98330000Y-134270000D02*
X98330000Y-152110000D01*
%TO.C,J60*%
X53170000Y-97270000D02*
X53170000Y-115110000D01*
X53170000Y-97270000D02*
X55830000Y-97270000D01*
X53170000Y-115110000D02*
X55830000Y-115110000D01*
X54500000Y-94670000D02*
X55830000Y-94670000D01*
X55830000Y-94670000D02*
X55830000Y-96000000D01*
X55830000Y-97270000D02*
X55830000Y-115110000D01*
D10*
%TO.C,J6*%
X75000000Y-188050000D02*
X72650000Y-188050000D01*
X75000000Y-188050000D02*
X77350000Y-188050000D01*
X75000000Y-196450000D02*
X72650000Y-196450000D01*
X75000000Y-196450000D02*
X77350000Y-196450000D01*
X70200000Y-192250000D02*
G75*
G02*
X72656222Y-188061121I4800000J0D01*
G01*
X72656222Y-196438879D02*
G75*
G02*
X70200000Y-192250000I2343778J4188879D01*
G01*
X77343778Y-188061121D02*
G75*
G02*
X79800000Y-192250000I-2343781J-4188881D01*
G01*
X79800000Y-192250000D02*
G75*
G02*
X77343778Y-196438879I-4800003J2D01*
G01*
%TO.C,J4*%
X54300000Y-192250000D02*
X54300000Y-189900000D01*
X54300000Y-192250000D02*
X54300000Y-194600000D01*
X62700000Y-192250000D02*
X62700000Y-189900000D01*
X62700000Y-192250000D02*
X62700000Y-194600000D01*
X54311121Y-189906222D02*
G75*
G02*
X58500000Y-187450000I4188879J-2343778D01*
G01*
X58500000Y-187450000D02*
G75*
G02*
X62688879Y-189906222I0J-4800000D01*
G01*
X58500000Y-197050000D02*
G75*
G02*
X54311121Y-194593778I2J4800003D01*
G01*
X62688879Y-194593778D02*
G75*
G02*
X58500000Y-197050000I-4188881J2343781D01*
G01*
%TO.C,J2*%
X87300000Y-175750000D02*
X87300000Y-173400000D01*
X87300000Y-175750000D02*
X87300000Y-178100000D01*
X95700000Y-175750000D02*
X95700000Y-173400000D01*
X95700000Y-175750000D02*
X95700000Y-178100000D01*
X87311121Y-173406222D02*
G75*
G02*
X91500000Y-170950000I4188881J-2343781D01*
G01*
X91500000Y-170950000D02*
G75*
G02*
X95688879Y-173406222I-2J-4800003D01*
G01*
X91500000Y-180550000D02*
G75*
G02*
X87311121Y-178093778I0J4800000D01*
G01*
X95688879Y-178093778D02*
G75*
G02*
X91500000Y-180550000I-4188879J2343778D01*
G01*
D11*
%TO.C,J50*%
X95670000Y-63770000D02*
X95670000Y-81610000D01*
X95670000Y-63770000D02*
X98330000Y-63770000D01*
X95670000Y-81610000D02*
X98330000Y-81610000D01*
X97000000Y-61170000D02*
X98330000Y-61170000D01*
X98330000Y-61170000D02*
X98330000Y-62500000D01*
X98330000Y-63770000D02*
X98330000Y-81610000D01*
D10*
%TO.C,J8*%
X87300000Y-208750000D02*
X87300000Y-206400000D01*
X87300000Y-208750000D02*
X87300000Y-211100000D01*
X95700000Y-208750000D02*
X95700000Y-206400000D01*
X95700000Y-208750000D02*
X95700000Y-211100000D01*
X87311121Y-206406222D02*
G75*
G02*
X91500000Y-203950000I4188881J-2343781D01*
G01*
X91500000Y-203950000D02*
G75*
G02*
X95688879Y-206406222I-2J-4800003D01*
G01*
X91500000Y-213550000D02*
G75*
G02*
X87311121Y-211093778I0J4800000D01*
G01*
X95688879Y-211093778D02*
G75*
G02*
X91500000Y-213550000I-4188879J2343778D01*
G01*
%TD*%
%LPC*%
D12*
%TO.C,J1*%
X63096190Y-171153810D03*
D13*
X59000000Y-182250000D03*
D14*
X65000000Y-178250000D03*
%TD*%
D12*
%TO.C,J10*%
X63096190Y-154653810D03*
D13*
X59000000Y-165750000D03*
D14*
X65000000Y-161750000D03*
%TD*%
D12*
%TO.C,J5*%
X86903810Y-196846190D03*
D13*
X91000000Y-185750000D03*
D14*
X85000000Y-189750000D03*
%TD*%
D15*
%TO.C,J9*%
X70403810Y-204153810D03*
D14*
X81500000Y-208250000D03*
D13*
X77500000Y-202250000D03*
%TD*%
D15*
%TO.C,J3*%
X70403810Y-171153810D03*
D14*
X81500000Y-175250000D03*
D13*
X77500000Y-169250000D03*
%TD*%
D12*
%TO.C,J7*%
X63096190Y-204153810D03*
D13*
X59000000Y-215250000D03*
D14*
X65000000Y-211250000D03*
%TD*%
D16*
%TO.C,J70*%
X97000000Y-133000000D03*
D17*
X97000000Y-135540000D03*
X97000000Y-138080000D03*
X97000000Y-140620000D03*
X97000000Y-143160000D03*
X97000000Y-145700000D03*
X97000000Y-148240000D03*
X97000000Y-150780000D03*
%TD*%
D16*
%TO.C,J60*%
X54500000Y-96000000D03*
D17*
X54500000Y-98540000D03*
X54500000Y-101080000D03*
X54500000Y-103620000D03*
X54500000Y-106160000D03*
X54500000Y-108700000D03*
X54500000Y-111240000D03*
X54500000Y-113780000D03*
%TD*%
D15*
%TO.C,J6*%
X70403810Y-187653810D03*
D14*
X81500000Y-191750000D03*
D13*
X77500000Y-185750000D03*
%TD*%
D12*
%TO.C,J4*%
X63096190Y-187653810D03*
D13*
X59000000Y-198750000D03*
D14*
X65000000Y-194750000D03*
%TD*%
D12*
%TO.C,J2*%
X86903810Y-180346190D03*
D13*
X91000000Y-169250000D03*
D14*
X85000000Y-173250000D03*
%TD*%
D16*
%TO.C,J50*%
X97000000Y-62500000D03*
D17*
X97000000Y-65040000D03*
X97000000Y-67580000D03*
X97000000Y-70120000D03*
X97000000Y-72660000D03*
X97000000Y-75200000D03*
X97000000Y-77740000D03*
X97000000Y-80280000D03*
%TD*%
D12*
%TO.C,J8*%
X86903810Y-213346190D03*
D13*
X91000000Y-202250000D03*
D14*
X85000000Y-206250000D03*
%TD*%
D18*
%TO.C,R36*%
X90795000Y-139500000D03*
D19*
X88255000Y-139500000D03*
%TD*%
D20*
%TO.C,D2*%
X96800000Y-44300000D03*
D21*
X96800000Y-54460000D03*
%TD*%
D18*
%TO.C,R20*%
X91750000Y-87750000D03*
D19*
X94290000Y-87750000D03*
%TD*%
D22*
%TO.C,RV3*%
X63700000Y-129500000D03*
X66240000Y-129500000D03*
X68780000Y-129500000D03*
%TD*%
D18*
%TO.C,R48*%
X58045000Y-136200000D03*
D19*
X55505000Y-136200000D03*
%TD*%
D18*
%TO.C,R35*%
X90795000Y-136500000D03*
D19*
X88255000Y-136500000D03*
%TD*%
D18*
%TO.C,R31*%
X96295000Y-123000000D03*
D19*
X93755000Y-123000000D03*
%TD*%
D18*
%TO.C,R28*%
X96295000Y-120000000D03*
D19*
X93755000Y-120000000D03*
%TD*%
D18*
%TO.C,R27*%
X67710000Y-87500000D03*
D19*
X70250000Y-87500000D03*
%TD*%
D18*
%TO.C,R22*%
X91750000Y-81500000D03*
D19*
X94290000Y-81500000D03*
%TD*%
D18*
%TO.C,R42*%
X82705000Y-115750000D03*
D19*
X85245000Y-115750000D03*
%TD*%
D18*
%TO.C,R15*%
X92045000Y-69800000D03*
D19*
X89505000Y-69800000D03*
%TD*%
D18*
%TO.C,R64*%
X69795000Y-81500000D03*
D19*
X67255000Y-81500000D03*
%TD*%
D18*
%TO.C,R10*%
X82705000Y-60700000D03*
D19*
X85245000Y-60700000D03*
%TD*%
D20*
%TO.C,D1*%
X53200000Y-54460000D03*
D21*
X53200000Y-44300000D03*
%TD*%
D18*
%TO.C,R47*%
X58045000Y-133200000D03*
D19*
X55505000Y-133200000D03*
%TD*%
D18*
%TO.C,R51*%
X58045000Y-145250000D03*
D19*
X55505000Y-145250000D03*
%TD*%
D18*
%TO.C,R13*%
X96295000Y-106500000D03*
D19*
X93755000Y-106500000D03*
%TD*%
D18*
%TO.C,R39*%
X90790000Y-148500000D03*
D19*
X88250000Y-148500000D03*
%TD*%
D22*
%TO.C,RV10*%
X83250000Y-79460000D03*
X83250000Y-82000000D03*
X83250000Y-84540000D03*
%TD*%
%TO.C,RV2*%
X65540000Y-92500000D03*
X63000000Y-92500000D03*
X60460000Y-92500000D03*
%TD*%
D18*
%TO.C,R21*%
X91750000Y-84700000D03*
D19*
X94290000Y-84700000D03*
%TD*%
D18*
%TO.C,R50*%
X58045000Y-142200000D03*
D19*
X55505000Y-142200000D03*
%TD*%
D18*
%TO.C,R11*%
X82705000Y-57650000D03*
D19*
X85245000Y-57650000D03*
%TD*%
D18*
%TO.C,R34*%
X90795000Y-133500000D03*
D19*
X88255000Y-133500000D03*
%TD*%
D18*
%TO.C,R24*%
X87500000Y-92750000D03*
D19*
X84960000Y-92750000D03*
%TD*%
D18*
%TO.C,R12*%
X82705000Y-54500000D03*
D19*
X85245000Y-54500000D03*
%TD*%
D23*
%TO.C,Q1*%
X58440000Y-59000000D03*
D24*
X55900000Y-59000000D03*
X53360000Y-59000000D03*
%TD*%
D23*
%TO.C,Q6*%
X90320000Y-163950000D03*
D24*
X92860000Y-163950000D03*
X95400000Y-163950000D03*
%TD*%
D25*
%TO.C,U3*%
X78810000Y-134000000D03*
D18*
X78810000Y-136540000D03*
X78810000Y-139080000D03*
X78810000Y-141620000D03*
X78810000Y-144160000D03*
X78810000Y-146700000D03*
X78810000Y-149240000D03*
X71190000Y-149240000D03*
X71190000Y-146700000D03*
X71190000Y-144160000D03*
X71190000Y-141620000D03*
X71190000Y-139080000D03*
X71190000Y-136540000D03*
X71190000Y-134000000D03*
%TD*%
%TO.C,R6*%
X59795000Y-68250000D03*
D19*
X57255000Y-68250000D03*
%TD*%
D22*
%TO.C,RV11*%
X65530000Y-98000000D03*
X62990000Y-98000000D03*
X60450000Y-98000000D03*
%TD*%
D26*
%TO.C,J200*%
X82830000Y-162502500D03*
D27*
X80290000Y-162502500D03*
X77750000Y-162502500D03*
X75210000Y-162502500D03*
X72670000Y-162502500D03*
X82830000Y-159962500D03*
X80290000Y-159962500D03*
X77750000Y-159962500D03*
X75210000Y-159962500D03*
X72670000Y-159962500D03*
%TD*%
D18*
%TO.C,R44*%
X82705000Y-112750000D03*
D19*
X85245000Y-112750000D03*
%TD*%
D18*
%TO.C,C8*%
X77500000Y-152250000D03*
X72500000Y-152250000D03*
%TD*%
D23*
%TO.C,Q4*%
X91220000Y-100650000D03*
D24*
X93760000Y-100650000D03*
X96300000Y-100650000D03*
%TD*%
D25*
%TO.C,U2*%
X78810000Y-97000000D03*
D18*
X78810000Y-99540000D03*
X78810000Y-102080000D03*
X78810000Y-104620000D03*
X78810000Y-107160000D03*
X78810000Y-109700000D03*
X78810000Y-112240000D03*
X71190000Y-112240000D03*
X71190000Y-109700000D03*
X71190000Y-107160000D03*
X71190000Y-104620000D03*
X71190000Y-102080000D03*
X71190000Y-99540000D03*
X71190000Y-97000000D03*
%TD*%
%TO.C,R1*%
X67045000Y-61750000D03*
D19*
X64505000Y-61750000D03*
%TD*%
D18*
%TO.C,R52*%
X58045000Y-148450000D03*
D19*
X55505000Y-148450000D03*
%TD*%
D18*
%TO.C,C7*%
X77500000Y-131000000D03*
X72500000Y-131000000D03*
%TD*%
D22*
%TO.C,RV12*%
X83250000Y-129800000D03*
X83250000Y-127260000D03*
X83250000Y-124720000D03*
%TD*%
D18*
%TO.C,R38*%
X90790000Y-145500000D03*
D19*
X88250000Y-145500000D03*
%TD*%
D18*
%TO.C,R63*%
X92045000Y-76000000D03*
D19*
X89505000Y-76000000D03*
%TD*%
D18*
%TO.C,C4*%
X77500000Y-78250000D03*
X72500000Y-78250000D03*
%TD*%
%TO.C,R16*%
X96295000Y-109500000D03*
D19*
X93755000Y-109500000D03*
%TD*%
D18*
%TO.C,R32*%
X96295000Y-126000000D03*
D19*
X93755000Y-126000000D03*
%TD*%
D23*
%TO.C,Q3*%
X96340000Y-96900000D03*
D24*
X93800000Y-96900000D03*
X91260000Y-96900000D03*
%TD*%
D18*
%TO.C,R33*%
X96295000Y-129000000D03*
D19*
X93755000Y-129000000D03*
%TD*%
D28*
%TO.C,C2*%
X89100000Y-48000000D03*
D18*
X91100000Y-48000000D03*
%TD*%
%TO.C,R49*%
X58045000Y-139200000D03*
D19*
X55505000Y-139200000D03*
%TD*%
D18*
%TO.C,R19*%
X91750000Y-90750000D03*
D19*
X94290000Y-90750000D03*
%TD*%
D18*
%TO.C,R46*%
X58045000Y-130200000D03*
D19*
X55505000Y-130200000D03*
%TD*%
D18*
%TO.C,R14*%
X92045000Y-66750000D03*
D19*
X89505000Y-66750000D03*
%TD*%
D18*
%TO.C,R45*%
X85245000Y-109750000D03*
D19*
X82705000Y-109750000D03*
%TD*%
D18*
%TO.C,R17*%
X96295000Y-112500000D03*
D19*
X93755000Y-112500000D03*
%TD*%
D22*
%TO.C,RV1*%
X67050000Y-55500000D03*
X64510000Y-55500000D03*
X61970000Y-55500000D03*
%TD*%
D18*
%TO.C,R26*%
X87500000Y-98750000D03*
D19*
X84960000Y-98750000D03*
%TD*%
D18*
%TO.C,R2*%
X67045000Y-65000000D03*
D19*
X64505000Y-65000000D03*
%TD*%
D18*
%TO.C,R4*%
X67045000Y-71500000D03*
D19*
X64505000Y-71500000D03*
%TD*%
D18*
%TO.C,R41*%
X90795000Y-154500000D03*
D19*
X88255000Y-154500000D03*
%TD*%
D18*
%TO.C,R5*%
X67045000Y-74750000D03*
D19*
X64505000Y-74750000D03*
%TD*%
D18*
%TO.C,R23*%
X87500000Y-89750000D03*
D19*
X84960000Y-89750000D03*
%TD*%
D18*
%TO.C,R7*%
X59795000Y-71500000D03*
D19*
X57255000Y-71500000D03*
%TD*%
D18*
%TO.C,R9*%
X82705000Y-63750000D03*
D19*
X85245000Y-63750000D03*
%TD*%
D23*
%TO.C,Q2*%
X53360000Y-62750000D03*
D24*
X55900000Y-62750000D03*
X58440000Y-62750000D03*
%TD*%
D18*
%TO.C,C3*%
X77500000Y-57000000D03*
X72500000Y-57000000D03*
%TD*%
D26*
%TO.C,J100*%
X80080000Y-49000000D03*
D27*
X80080000Y-46460000D03*
X77540000Y-49000000D03*
X77540000Y-46460000D03*
X75000000Y-49000000D03*
X75000000Y-46460000D03*
X72460000Y-49000000D03*
X72460000Y-46460000D03*
X69920000Y-49000000D03*
X69920000Y-46460000D03*
%TD*%
D28*
%TO.C,C1*%
X59044888Y-48000000D03*
D18*
X61044888Y-48000000D03*
%TD*%
%TO.C,R62*%
X92045000Y-72850000D03*
D19*
X89505000Y-72850000D03*
%TD*%
D18*
%TO.C,C5*%
X77500000Y-94000000D03*
X72500000Y-94000000D03*
%TD*%
%TO.C,C6*%
X77500000Y-115250000D03*
X72500000Y-115250000D03*
%TD*%
%TO.C,R40*%
X90795000Y-151500000D03*
D19*
X88255000Y-151500000D03*
%TD*%
D18*
%TO.C,R25*%
X87500000Y-95750000D03*
D19*
X84960000Y-95750000D03*
%TD*%
D18*
%TO.C,R18*%
X96295000Y-115500000D03*
D19*
X93755000Y-115500000D03*
%TD*%
D23*
%TO.C,Q5*%
X95440000Y-160200000D03*
D24*
X92900000Y-160200000D03*
X90360000Y-160200000D03*
%TD*%
D18*
%TO.C,R37*%
X90795000Y-142500000D03*
D19*
X88255000Y-142500000D03*
%TD*%
D18*
%TO.C,R29*%
X67710000Y-84500000D03*
D19*
X70250000Y-84500000D03*
%TD*%
D18*
%TO.C,R30*%
X69795000Y-78500000D03*
D19*
X67255000Y-78500000D03*
%TD*%
D18*
%TO.C,R8*%
X59795000Y-74750000D03*
D19*
X57255000Y-74750000D03*
%TD*%
D18*
%TO.C,R65*%
X82705000Y-106750000D03*
D19*
X85245000Y-106750000D03*
%TD*%
D18*
%TO.C,R3*%
X67045000Y-68250000D03*
D19*
X64505000Y-68250000D03*
%TD*%
D25*
%TO.C,U1*%
X78810000Y-60000000D03*
D18*
X78810000Y-62540000D03*
X78810000Y-65080000D03*
X78810000Y-67620000D03*
X78810000Y-70160000D03*
X78810000Y-72700000D03*
X78810000Y-75240000D03*
X71190000Y-75240000D03*
X71190000Y-72700000D03*
X71190000Y-70160000D03*
X71190000Y-67620000D03*
X71190000Y-65080000D03*
X71190000Y-62540000D03*
X71190000Y-60000000D03*
%TD*%
%LPD*%
M02*
