M48
; DRILL file {KiCad 9.0.4} date 2025-10-04T20:37:21+0200
; FORMAT={-:-/ absolute / metric / decimal}
; #@! TF.CreationDate,2025-10-04T20:37:21+02:00
; #@! TF.GenerationSoftware,Kicad,Pcbnew,9.0.4
; #@! TF.FileFunction,Plated,1,2,PTH
FMAT,2
METRIC
; #@! TA.AperFunction,Plated,PTH,ComponentDrill
T1C0.800
; #@! TA.AperFunction,Plated,PTH,ComponentDrill
T2C1.000
; #@! TA.AperFunction,Plated,PTH,ComponentDrill
T3C1.100
%
G90
G05
T1
X53.36Y-59.0
X53.36Y-62.75
X55.505Y-130.2
X55.505Y-133.2
X55.505Y-136.2
X55.505Y-139.2
X55.505Y-142.2
X55.505Y-145.25
X55.505Y-148.45
X55.9Y-59.0
X55.9Y-62.75
X57.255Y-68.25
X57.255Y-71.5
X57.255Y-74.75
X58.045Y-130.2
X58.045Y-133.2
X58.045Y-136.2
X58.045Y-139.2
X58.045Y-142.2
X58.045Y-145.25
X58.045Y-148.45
X58.44Y-59.0
X58.44Y-62.75
X59.045Y-48.0
X59.795Y-68.25
X59.795Y-71.5
X59.795Y-74.75
X60.45Y-98.0
X60.46Y-92.5
X61.045Y-48.0
X61.97Y-55.5
X62.99Y-98.0
X63.0Y-92.5
X63.7Y-129.5
X64.505Y-61.75
X64.505Y-65.0
X64.505Y-68.25
X64.505Y-71.5
X64.505Y-74.75
X64.51Y-55.5
X65.53Y-98.0
X65.54Y-92.5
X66.24Y-129.5
X67.045Y-61.75
X67.045Y-65.0
X67.045Y-68.25
X67.045Y-71.5
X67.045Y-74.75
X67.05Y-55.5
X67.255Y-78.5
X67.255Y-81.5
X67.71Y-84.5
X67.71Y-87.5
X68.78Y-129.5
X69.795Y-78.5
X69.795Y-81.5
X70.25Y-84.5
X70.25Y-87.5
X71.19Y-60.0
X71.19Y-62.54
X71.19Y-65.08
X71.19Y-67.62
X71.19Y-70.16
X71.19Y-72.7
X71.19Y-75.24
X71.19Y-97.0
X71.19Y-99.54
X71.19Y-102.08
X71.19Y-104.62
X71.19Y-107.16
X71.19Y-109.7
X71.19Y-112.24
X71.19Y-134.0
X71.19Y-136.54
X71.19Y-139.08
X71.19Y-141.62
X71.19Y-144.16
X71.19Y-146.7
X71.19Y-149.24
X72.5Y-57.0
X72.5Y-78.25
X72.5Y-94.0
X72.5Y-115.25
X72.5Y-131.0
X72.5Y-152.25
X77.5Y-57.0
X77.5Y-78.25
X77.5Y-94.0
X77.5Y-115.25
X77.5Y-131.0
X77.5Y-152.25
X78.81Y-60.0
X78.81Y-62.54
X78.81Y-65.08
X78.81Y-67.62
X78.81Y-70.16
X78.81Y-72.7
X78.81Y-75.24
X78.81Y-97.0
X78.81Y-99.54
X78.81Y-102.08
X78.81Y-104.62
X78.81Y-107.16
X78.81Y-109.7
X78.81Y-112.24
X78.81Y-134.0
X78.81Y-136.54
X78.81Y-139.08
X78.81Y-141.62
X78.81Y-144.16
X78.81Y-146.7
X78.81Y-149.24
X82.705Y-54.5
X82.705Y-57.65
X82.705Y-60.7
X82.705Y-63.75
X82.705Y-106.75
X82.705Y-109.75
X82.705Y-112.75
X82.705Y-115.75
X83.25Y-79.46
X83.25Y-82.0
X83.25Y-84.54
X83.25Y-124.72
X83.25Y-127.26
X83.25Y-129.8
X84.96Y-89.75
X84.96Y-92.75
X84.96Y-95.75
X84.96Y-98.75
X85.245Y-54.5
X85.245Y-57.65
X85.245Y-60.7
X85.245Y-63.75
X85.245Y-106.75
X85.245Y-109.75
X85.245Y-112.75
X85.245Y-115.75
X87.5Y-89.75
X87.5Y-92.75
X87.5Y-95.75
X87.5Y-98.75
X88.25Y-145.5
X88.25Y-148.5
X88.255Y-133.5
X88.255Y-136.5
X88.255Y-139.5
X88.255Y-142.5
X88.255Y-151.5
X88.255Y-154.5
X89.1Y-48.0
X89.505Y-66.75
X89.505Y-69.8
X89.505Y-72.85
X89.505Y-76.0
X90.32Y-163.95
X90.36Y-160.2
X90.79Y-145.5
X90.79Y-148.5
X90.795Y-133.5
X90.795Y-136.5
X90.795Y-139.5
X90.795Y-142.5
X90.795Y-151.5
X90.795Y-154.5
X91.1Y-48.0
X91.22Y-100.65
X91.26Y-96.9
X91.75Y-81.5
X91.75Y-84.7
X91.75Y-87.75
X91.75Y-90.75
X92.045Y-66.75
X92.045Y-69.8
X92.045Y-72.85
X92.045Y-76.0
X92.86Y-163.95
X92.9Y-160.2
X93.755Y-106.5
X93.755Y-109.5
X93.755Y-112.5
X93.755Y-115.5
X93.755Y-120.0
X93.755Y-123.0
X93.755Y-126.0
X93.755Y-129.0
X93.76Y-100.65
X93.8Y-96.9
X94.29Y-81.5
X94.29Y-84.7
X94.29Y-87.75
X94.29Y-90.75
X95.4Y-163.95
X95.44Y-160.2
X96.295Y-106.5
X96.295Y-109.5
X96.295Y-112.5
X96.295Y-115.5
X96.295Y-120.0
X96.295Y-123.0
X96.295Y-126.0
X96.295Y-129.0
X96.3Y-100.65
X96.34Y-96.9
T2
X54.5Y-96.0
X54.5Y-98.54
X54.5Y-101.08
X54.5Y-103.62
X54.5Y-106.16
X54.5Y-108.7
X54.5Y-111.24
X54.5Y-113.78
X69.92Y-46.46
X69.92Y-49.0
X72.46Y-46.46
X72.46Y-49.0
X72.67Y-159.963
X72.67Y-162.502
X75.0Y-46.46
X75.0Y-49.0
X75.21Y-159.963
X75.21Y-162.502
X77.54Y-46.46
X77.54Y-49.0
X77.75Y-159.963
X77.75Y-162.502
X80.08Y-46.46
X80.08Y-49.0
X80.29Y-159.963
X80.29Y-162.502
X82.83Y-159.963
X82.83Y-162.502
X97.0Y-62.5
X97.0Y-65.04
X97.0Y-67.58
X97.0Y-70.12
X97.0Y-72.66
X97.0Y-75.2
X97.0Y-77.74
X97.0Y-80.28
X97.0Y-133.0
X97.0Y-135.54
X97.0Y-138.08
X97.0Y-140.62
X97.0Y-143.16
X97.0Y-145.7
X97.0Y-148.24
X97.0Y-150.78
T3
X53.2Y-44.3
X53.2Y-54.46
X96.8Y-44.3
X96.8Y-54.46
T2
X59.75Y-165.75G85X58.25Y-165.75
G05
X59.75Y-182.25G85X58.25Y-182.25
G05
X59.75Y-198.75G85X58.25Y-198.75
G05
X59.75Y-215.25G85X58.25Y-215.25
G05
X63.627Y-155.184G85X62.566Y-154.123
G05
X63.627Y-171.684G85X62.566Y-170.623
G05
X63.627Y-188.184G85X62.566Y-187.123
G05
X63.627Y-204.684G85X62.566Y-203.623
G05
X65.0Y-161.0G85X65.0Y-162.5
G05
X65.0Y-177.5G85X65.0Y-179.0
G05
X65.0Y-194.0G85X65.0Y-195.5
G05
X65.0Y-210.5G85X65.0Y-212.0
G05
X70.934Y-170.623G85X69.873Y-171.684
G05
X70.934Y-187.123G85X69.873Y-188.184
G05
X70.934Y-203.623G85X69.873Y-204.684
G05
X76.75Y-169.25G85X78.25Y-169.25
G05
X76.75Y-185.75G85X78.25Y-185.75
G05
X76.75Y-202.25G85X78.25Y-202.25
G05
X81.5Y-174.5G85X81.5Y-176.0
G05
X81.5Y-191.0G85X81.5Y-192.5
G05
X81.5Y-207.5G85X81.5Y-209.0
G05
X85.0Y-174.0G85X85.0Y-172.5
G05
X85.0Y-190.5G85X85.0Y-189.0
G05
X85.0Y-207.0G85X85.0Y-205.5
G05
X86.373Y-179.816G85X87.434Y-180.877
G05
X86.373Y-196.316G85X87.434Y-197.377
G05
X86.373Y-212.816G85X87.434Y-213.877
G05
X90.25Y-169.25G85X91.75Y-169.25
G05
X90.25Y-185.75G85X91.75Y-185.75
G05
X90.25Y-202.25G85X91.75Y-202.25
G05
M30
